<svg width="202" height="62" viewBox="0 0 202 62" fill="none" xmlns="http://www.w3.org/2000/svg">
<path d="M100.944 49.0318C95.9186 49.0318 92.8431 46.1837 91.3354 44.6651V62H86.2461V20.4362H90.8329L91.208 24.9918C94.2871 20.4362 98.0563 19.7411 100.944 19.7411C109.548 19.7411 114.322 26.8276 114.322 34.4167C114.322 42.0059 109.424 49.0318 100.944 49.0318ZM100.378 24.4214C94.7861 24.4214 91.3319 29.2943 91.3319 34.6698V38.5909C91.7707 39.3502 95.1011 44.3479 100.378 44.3479C105.779 44.3479 109.109 40.2342 109.109 34.4167C109.109 28.6598 105.782 24.4214 100.378 24.4214Z" fill="#525D77"/>
<path d="M141.96 29.7969V48.3331H137.564L137.125 44.6651C135.051 47.7022 131.785 49.0318 128.522 49.0318C121.362 49.0318 118.722 45.4885 118.722 40.113C118.722 35.2401 122.806 31.319 130.029 31.319C133.42 31.319 136.435 32.3314 136.878 32.4561V30.05C136.878 26.3178 133.045 24.2931 129.718 24.2931C126.451 24.2931 124.066 25.1771 122.119 26.2537V21.4485C124.632 20.372 127.145 19.741 129.845 19.741C136.619 19.7375 141.96 23.5338 141.96 29.7969ZM136.871 36.3131C135.993 36.06 133.416 35.2366 130.086 35.2366C125.878 35.2366 123.804 36.8799 123.804 39.9811C123.804 42.954 125.375 44.4726 129.268 44.4726C133.728 44.4726 136.867 41.2466 136.867 37.3861V36.3131H136.871Z" fill="#525D77"/>
<path d="M154.711 0V28.724C154.711 29.9253 154.648 32.0783 154.46 33.2796H154.775C155.278 32.5845 156.031 31.2549 157.1 30.1178L165.895 20.4397H172.113C168.28 24.867 164.324 29.2337 160.494 33.661L172.556 48.3367H166.21L157.164 37.0118L154.715 39.7316V48.3367H149.625V0H154.711Z" fill="#525D77"/>
<path d="M186.996 19.7375C195.161 19.7375 201.004 26.3178 201.004 34.4132C201.004 42.3837 195.161 49.0282 186.996 49.0282C178.831 49.0282 172.988 42.3837 172.988 34.5415C172.988 25.8758 179.206 19.7375 186.996 19.7375ZM186.996 44.3479C191.894 44.3479 195.791 40.2342 195.791 34.3526C195.791 28.4067 191.519 24.4214 186.996 24.4214C182.285 24.4214 178.201 28.4709 178.201 34.4809C178.201 39.9206 181.97 44.3479 186.996 44.3479Z" fill="#525D77"/>
<path d="M51.2861 22.5215L45.2943 26.4604L45.2801 26.4426L44.2856 27.0949C42.2081 28.4602 39.7236 28.9307 37.2958 28.4174C34.8679 27.9041 32.7833 26.4675 31.4243 24.3751L15.6219 0L12.6773 1.93561L24.6362 20.3791L8.90101 6.18467L7.19867 9.40712L20.5201 21.4236L5.81839 14.7185L5.6025 18.5077L23.5779 26.7064L6.0272 23.1489L6.87307 26.9345L23.9708 30.3994L8.43738 31.262L10.1893 34.7126L26.6783 33.8L12.6242 38.3949L15.0556 41.325L30.2564 36.3559L0 56.2538L1.92177 59.2196L36.7189 36.3345L12.4366 59.4228L14.8504 62L53.4556 25.2948L52.2487 24.0079L51.2861 22.5215Z" fill="#525D77"/>
<path d="M57.1292 18.3722C55.8728 18.1049 54.6412 18.9176 54.3757 20.1831C54.1103 21.4485 54.9172 22.689 56.1736 22.9564C57.43 23.2237 58.6617 22.411 58.9271 21.1455C59.1925 19.8765 58.3856 18.636 57.1292 18.3722Z" fill="#525D77"/>
<path d="M62.8733 15.4349C62.5371 15.3957 62.1903 15.3779 61.8505 15.3779C61.5178 15.5027 61.1887 15.6488 60.8666 15.8199C60.5976 15.9625 60.3358 16.1229 60.0845 16.294L61.847 18.9105C61.847 18.9105 61.8505 18.9069 61.8541 18.9069V18.9176C62.0664 18.9176 62.2788 18.9283 62.4876 18.9532C65.3614 19.2741 67.5273 21.7159 67.5273 24.6317C67.5273 27.7829 64.9827 30.3459 61.8541 30.3459V33.8891C66.9221 33.8891 71.0453 29.7363 71.0453 24.6317C71.0417 19.9086 67.5273 15.9554 62.8733 15.4349Z" fill="#525D77"/>
</svg>
