<svg width="202" height="62" viewBox="0 0 202 62" fill="none" xmlns="http://www.w3.org/2000/svg">
<path d="M100.944 49.0318C95.9185 49.0318 92.843 46.1837 91.3353 44.6651V62H86.246V20.4362H90.8328L91.2079 24.9918C94.287 20.4362 98.0562 19.7411 100.944 19.7411C109.548 19.7411 114.322 26.8276 114.322 34.4168C114.322 42.0059 109.424 49.0318 100.944 49.0318ZM100.378 24.4215C94.786 24.4215 91.3318 29.2944 91.3318 34.6699V38.591C91.7706 39.3502 95.101 44.3479 100.378 44.3479C105.779 44.3479 109.109 40.2343 109.109 34.4168C109.109 28.6599 105.782 24.4215 100.378 24.4215Z" fill="#525D77"/>
<path d="M141.96 29.797V48.3332H137.564L137.125 44.6651C135.051 47.7022 131.784 49.0318 128.521 49.0318C121.362 49.0318 118.721 45.4886 118.721 40.1131C118.721 35.2402 122.806 31.3191 130.029 31.3191C133.42 31.3191 136.435 32.3314 136.877 32.4562V30.0501C136.877 26.3179 133.044 24.2932 129.718 24.2932C126.451 24.2932 124.066 25.1772 122.119 26.2537V21.4486C124.632 20.372 127.145 19.7411 129.845 19.7411C136.619 19.7375 141.96 23.5339 141.96 29.797ZM136.87 36.3132C135.993 36.0601 133.416 35.2366 130.086 35.2366C125.878 35.2366 123.804 36.8799 123.804 39.9812C123.804 42.9541 125.375 44.4726 129.268 44.4726C133.727 44.4726 136.867 41.2466 136.867 37.3861V36.3132H136.87Z" fill="#525D77"/>
<path d="M154.711 0V28.724C154.711 29.9253 154.648 32.0783 154.46 33.2796H154.775C155.277 32.5845 156.031 31.2549 157.1 30.1178L165.895 20.4397H172.113C168.28 24.867 164.324 29.2337 160.494 33.661L172.556 48.3367H166.21L157.164 37.0118L154.715 39.7316V48.3367H149.625V0H154.711Z" fill="#525D77"/>
<path d="M186.996 19.7374C195.16 19.7374 201.004 26.3178 201.004 34.4131C201.004 42.3837 195.16 49.0282 186.996 49.0282C178.831 49.0282 172.987 42.3837 172.987 34.5414C172.987 25.8758 179.206 19.7374 186.996 19.7374ZM186.996 44.3478C191.894 44.3478 195.79 40.2342 195.79 34.3525C195.79 28.4067 191.519 24.4214 186.996 24.4214C182.285 24.4214 178.201 28.4708 178.201 34.4808C178.201 39.9205 181.97 44.3478 186.996 44.3478Z" fill="#525D77"/>
<path d="M51.2861 22.5215L45.2943 26.4604L45.2801 26.4426L44.2856 27.0949C42.2081 28.4602 39.7236 28.9307 37.2958 28.4174C34.8679 27.9041 32.7833 26.4675 31.4243 24.3751L15.6219 0L12.6773 1.93561L24.6362 20.3791L8.90101 6.18467L7.19867 9.40712L20.5201 21.4236L5.81839 14.7185L5.6025 18.5077L23.5779 26.7064L6.0272 23.1489L6.87307 26.9345L23.9708 30.3994L8.43738 31.262L10.1893 34.7126L26.6783 33.8L12.6242 38.3949L15.0556 41.325L30.2564 36.3559L0 56.2538L1.92177 59.2196L36.7189 36.3345L12.4366 59.4228L14.8504 62L53.4556 25.2948L52.2487 24.0079L51.2861 22.5215Z" fill="#525D77"/>
<path d="M57.1293 18.3722C55.8729 18.1048 54.6412 18.9176 54.3758 20.183C54.1103 21.4485 54.9173 22.689 56.1737 22.9563C57.4301 23.2237 58.6617 22.4109 58.9272 21.1455C59.1926 19.8765 58.3857 18.636 57.1293 18.3722Z" fill="#525D77"/>
<path d="M62.8733 15.435C62.5371 15.3958 62.1903 15.3779 61.8505 15.3779C61.5178 15.5027 61.1887 15.6488 60.8666 15.8199C60.5976 15.9625 60.3358 16.1229 60.0845 16.294L61.847 18.9105C61.847 18.9105 61.8505 18.9069 61.8541 18.9069V18.9176C62.0664 18.9176 62.2788 18.9283 62.4876 18.9533C65.3614 19.2741 67.5273 21.7159 67.5273 24.6318C67.5273 27.7829 64.9827 30.3459 61.8541 30.3459V33.8892C66.9221 33.8892 71.0453 29.7364 71.0453 24.6318C71.0417 19.9086 67.5273 15.9554 62.8733 15.435Z" fill="#525D77"/>
</svg>
