<svg width="60" height="102" viewBox="0 0 60 102" fill="none" xmlns="http://www.w3.org/2000/svg">
<path d="M60 46.4119V0.94169L55.1942 0.322865L55.213 46.4119C55.213 46.9312 55.2023 47.4477 55.178 47.9643C55.0757 46.6594 54.9113 45.3545 54.6824 44.0523L46.9025 0L42.0698 0.279817L49.9627 44.8837C50.0516 45.3949 50.1325 45.9061 50.1998 46.4173C49.8738 45.15 49.4832 43.8935 49.0307 42.6505L34.0852 1.63585L29.5326 3.13179L44.5293 44.2837C44.707 44.7707 44.8741 45.2603 45.0276 45.7527C44.4861 44.5608 43.8827 43.3904 43.2227 42.2469L22.6903 6.72636L18.8434 9.63484L39.0769 44.6361C39.3355 45.0854 39.586 45.5401 39.8231 45.9975C39.0823 44.9186 38.2876 43.8693 37.4337 42.8577L13.8033 14.8088L10.9208 18.7423L33.7646 45.933C34.0987 46.3312 34.4219 46.7348 34.7371 47.1437C33.8212 46.2101 32.8541 45.3141 31.8385 44.4639L7.75019 24.2929L5.72173 28.8157L28.7622 48.1258C29.1609 48.4594 29.5488 48.8011 29.9286 49.1482C28.8645 48.3894 27.7601 47.6764 26.6152 47.0173L3.93571 33.8417L2.61842 38.5205L24.2015 51.1472L24.215 51.1553C24.6648 51.4136 25.1066 51.6827 25.543 51.9598C24.3631 51.3948 23.1482 50.8863 21.9037 50.4316L1.61361 43.0702L0.829704 47.8648L20.2658 54.9301C20.7507 55.105 21.2275 55.2934 21.7016 55.4871C20.4436 55.1373 19.164 54.8494 17.8629 54.6207L0.358281 51.5993L0 56.3319L17.0305 59.3319C21.7474 60.1633 26.1599 61.8906 30.1441 64.4681C33.9936 66.9569 37.2855 70.1317 39.9282 73.9012C42.5708 77.6706 44.4323 81.8464 45.4586 86.31C46.52 90.9296 46.6358 95.6623 45.8061 100.373L50.5231 101.205C51.4659 95.8587 51.3339 90.4884 50.1271 85.2391C49.397 82.067 48.2979 79.0267 46.8433 76.1451C55.2265 68.5255 60 57.7983 60 46.4119Z" fill="#F2B43F"/>
<path d="M26.8469 86.3908C29.3806 86.3908 31.4345 84.3394 31.4345 81.8088C31.4345 79.2782 29.3806 77.2268 26.8469 77.2268C24.3132 77.2268 22.2593 79.2782 22.2593 81.8088C22.2593 84.3394 24.3132 86.3908 26.8469 86.3908Z" fill="#F2B43F"/>
</svg>
