<svg width="992" height="603" viewBox="0 0 992 603" fill="none" xmlns="http://www.w3.org/2000/svg">
<path fill-rule="evenodd" clip-rule="evenodd" d="M843.268 157.601L787.988 215.636L694.822 241.622L555.754 362.22H400.501L339.682 339.088L270.997 392.187L266.913 387.281L338.553 331.898L401.743 355.932H553.249L691.569 235.982L784.417 210.085L838.46 153.349L843.268 157.601Z" fill="#F2B43F"/>
<path fill-rule="evenodd" clip-rule="evenodd" d="M983.815 8.30897L787.988 215.636L694.822 241.622L555.754 362.22H400.501L339.682 339.088L0.5 602.5V593.5L338.553 331.898L401.743 355.931H553.249L691.569 235.982L784.416 210.085L978.625 4.98535L983.815 8.30897Z" fill="#F2B43F"/>
<path fill-rule="evenodd" clip-rule="evenodd" d="M986.466 0L992 53.1887L985.505 53.8137L980.622 6.88253L931.914 11.5703L931.263 5.3128L986.466 0Z" fill="#F2B43F"/>
<path d="M842.352 88.8069L834.624 95.1484L834.601 95.1267L833.318 96.1773C830.639 98.3755 827.244 99.4321 823.767 99.1482C820.291 98.8644 817.143 97.2735 814.901 94.6728L788.829 64.3715L785.032 67.4877L804.761 90.415L780.45 73.8742L778.599 78.5212L799.181 92.5239L777.54 85.9395L777.858 91.1018L804.318 99.1531L779.211 97.3083L781.013 102.286L805.472 104.082L783.907 107.876L786.92 112.247L809.812 108.225L790.925 116.817L794.803 120.369L815.23 111.077L776.208 143.11L779.379 146.797L824.257 109.956L794.105 145.294L797.9 148.372L845.837 92.1916L843.94 90.6549L842.352 88.8069Z" fill="#525D77"/>
<path d="M849.838 82.2059C848.038 82.0567 846.45 83.3644 846.286 85.1211C846.123 86.8778 847.453 88.4195 849.253 88.5687C851.052 88.7179 852.64 87.4102 852.804 85.6535C852.967 83.892 851.636 82.3503 849.838 82.2059Z" fill="#525D77"/>
<path d="M857.383 77.2614C856.907 77.2652 856.42 77.2997 855.945 77.3571C855.5 77.5822 855.064 77.8355 854.642 78.1214C854.29 78.3598 853.95 78.6211 853.627 78.895L856.518 82.1364C856.518 82.1364 856.523 82.131 856.527 82.1304L856.529 82.1449C856.826 82.109 857.124 82.0875 857.42 82.086C861.489 82.034 864.915 84.9709 865.392 88.9154C865.908 93.1781 862.772 97.0754 858.4 97.6044L858.98 102.398C866.062 101.541 871.144 95.2257 870.308 88.3205C869.53 81.9319 863.972 77.1784 857.383 77.2614Z" fill="#525D77"/>
</svg>
