<svg width="180" height="98" viewBox="0 0 180 98" fill="none" xmlns="http://www.w3.org/2000/svg">
<path d="M23.0544 76.9075C15.1716 76.9075 10.3476 72.4401 7.98272 70.0583V97.2484H0V32.0546H7.19443L7.78286 39.2002C12.6125 32.0546 18.5246 30.9644 23.0544 30.9644C36.5495 30.9644 44.0382 42.0797 44.0382 53.9835C44.0382 65.8872 36.3552 76.9075 23.0544 76.9075ZM22.1662 38.3056C13.3952 38.3056 7.97716 45.9489 7.97716 54.3804V60.5308C8.66552 61.7217 13.8893 69.5606 22.1662 69.5606C30.6374 69.5606 35.8612 63.1084 35.8612 53.9835C35.8612 44.9536 30.643 38.3056 22.1662 38.3056Z" fill="#525D77"/>
<path d="M87.3885 46.737V75.8114H80.4939L79.8055 70.058C76.5525 74.8218 71.4287 76.9073 66.3104 76.9073C55.0802 76.9073 50.939 71.3496 50.939 62.918C50.939 55.2748 57.3451 49.1244 68.6752 49.1244C73.9933 49.1244 78.723 50.7124 79.4169 50.908V47.134C79.4169 41.2799 73.4049 38.1041 68.1867 38.1041C63.0629 38.1041 59.3214 39.4907 56.2682 41.1793V33.6423C60.2096 31.9538 64.151 30.9641 68.3866 30.9641C79.0117 30.9585 87.3885 36.9132 87.3885 46.737ZM79.4058 56.9578C78.0291 56.5608 73.9878 55.2692 68.7641 55.2692C62.1636 55.2692 58.9106 57.8468 58.9106 62.7111C58.9106 67.3742 61.3753 69.7561 67.4817 69.7561C74.4763 69.7561 79.4003 64.696 79.4003 58.6407V56.9578H79.4058Z" fill="#525D77"/>
<path d="M107.389 0V45.0542C107.389 46.9384 107.289 50.3155 106.995 52.1998H107.489C108.277 51.1095 109.46 49.0239 111.136 47.2403L124.931 32.0601H134.685C128.673 39.0045 122.467 45.8537 116.46 52.798L135.379 75.8171H125.425L111.236 58.0538L107.395 62.3199V75.8171H99.4121V0H107.389Z" fill="#525D77"/>
<path d="M158.029 30.9587C170.835 30.9587 180 41.2802 180 53.9778C180 66.4799 170.835 76.9019 158.029 76.9019C145.222 76.9019 136.057 66.4799 136.057 54.1791C136.057 40.5868 145.81 30.9587 158.029 30.9587ZM158.029 69.5606C165.711 69.5606 171.823 63.1083 171.823 53.8828C171.823 44.5566 165.123 38.3056 158.029 38.3056C150.64 38.3056 144.234 44.6573 144.234 54.0841C144.234 62.6163 150.146 69.5606 158.029 69.5606Z" fill="#525D77"/>
</svg>
