<svg width="492" height="225" viewBox="0 0 492 225" fill="none" xmlns="http://www.w3.org/2000/svg">
<path d="M43.86 204.35C42.76 204.95 41.46 205.25 39.96 205.25C37.16 205.25 35.14 204.67 33.9 203.51C32.68 202.35 32.07 200.45 32.07 197.81V190.1H36.18V197.3C36.18 199.04 36.49 200.22 37.11 200.84C37.75 201.44 38.97 201.74 40.77 201.74C41.95 201.74 42.98 201.46 43.86 200.9V190.1H48.06V212H43.86V204.35ZM66.0499 199.46H60.8899V212H56.7499V199.46H51.5899V196.4H66.0499V199.46ZM70.297 198.29C71.697 196.83 73.587 196.1 75.967 196.1C78.347 196.1 80.237 196.83 81.637 198.29C83.037 199.75 83.737 201.72 83.737 204.2C83.737 206.68 83.037 208.65 81.637 210.11C80.237 211.57 78.347 212.3 75.967 212.3C73.587 212.3 71.697 211.57 70.297 210.11C68.917 208.65 68.227 206.68 68.227 204.2C68.227 201.72 68.917 199.75 70.297 198.29ZM75.967 209.33C77.187 209.33 78.137 208.9 78.817 208.04C79.497 207.16 79.837 205.88 79.837 204.2C79.837 202.52 79.497 201.25 78.817 200.39C78.137 199.51 77.187 199.07 75.967 199.07C74.767 199.07 73.827 199.51 73.147 200.39C72.467 201.25 72.127 202.52 72.127 204.2C72.127 205.88 72.467 207.16 73.147 208.04C73.827 208.9 74.767 209.33 75.967 209.33ZM100.527 209.09H106.587V199.31H102.237C102.237 202.89 102.157 205.12 101.997 206C101.857 206.86 101.367 207.89 100.527 209.09ZM96.1772 209.09C96.9772 208.13 97.5072 207.36 97.7672 206.78C98.0272 206.18 98.1972 205.41 98.2772 204.47C98.3772 203.51 98.4272 201.79 98.4272 199.31V196.4H110.427V209.09H112.497V215.6H108.627V212H98.7272V215.6H94.8872V209.09H96.1772ZM121.895 196.1C124.275 196.1 125.985 196.57 127.025 197.51C128.065 198.43 128.585 199.93 128.585 202.01V207.8C128.585 209.22 128.735 210.62 129.035 212H125.345C125.225 211.34 125.135 210.57 125.075 209.69H125.015C124.455 210.51 123.695 211.15 122.735 211.61C121.795 212.07 120.765 212.3 119.645 212.3C118.185 212.3 117.015 211.9 116.135 211.1C115.275 210.28 114.845 209.15 114.845 207.71C114.845 205.97 115.575 204.58 117.035 203.54C118.515 202.48 120.635 201.95 123.395 201.95H124.685V201.86C124.685 200.8 124.475 200.06 124.055 199.64C123.635 199.22 122.885 199.01 121.805 199.01C119.845 199.01 117.995 199.46 116.255 200.36L115.685 197.45C117.585 196.55 119.655 196.1 121.895 196.1ZM118.505 207.41C118.505 208.05 118.695 208.55 119.075 208.91C119.455 209.27 119.975 209.45 120.635 209.45C121.775 209.45 122.735 209.08 123.515 208.34C124.295 207.6 124.685 206.67 124.685 205.55V204.53H123.395C121.815 204.53 120.605 204.8 119.765 205.34C118.925 205.86 118.505 206.55 118.505 207.41ZM135.731 202.94H143.051C143.031 201.64 142.701 200.65 142.061 199.97C141.441 199.27 140.561 198.92 139.421 198.92C138.321 198.92 137.441 199.27 136.781 199.97C136.141 200.67 135.791 201.66 135.731 202.94ZM135.731 205.61C135.831 206.79 136.281 207.73 137.081 208.43C137.901 209.11 138.931 209.45 140.171 209.45C141.651 209.45 143.121 209.08 144.581 208.34L145.481 211.1C143.681 211.9 141.781 212.3 139.781 212.3C137.421 212.3 135.501 211.57 134.021 210.11C132.561 208.65 131.831 206.68 131.831 204.2C131.831 201.68 132.511 199.7 133.871 198.26C135.231 196.82 137.071 196.1 139.391 196.1C141.711 196.1 143.511 196.79 144.791 198.17C146.091 199.55 146.741 201.53 146.741 204.11C146.741 204.61 146.711 205.11 146.651 205.61H135.731ZM163.55 199.46H158.39V212H154.25V199.46H149.09V196.4H163.55V199.46ZM181.168 208.61H188.728V193.49H183.538C183.538 196.97 183.478 199.52 183.358 201.14C183.238 202.76 183.028 204.07 182.728 205.07C182.448 206.07 181.928 207.25 181.168 208.61ZM176.578 208.61C177.458 207.31 178.078 206.16 178.438 205.16C178.818 204.14 179.088 202.79 179.248 201.11C179.408 199.41 179.488 196.87 179.488 193.49V190.1H192.898V208.61H195.478V216.8H191.638V212H178.828V216.8H174.988V208.61H176.578ZM201.561 202.94H208.881C208.861 201.64 208.531 200.65 207.891 199.97C207.271 199.27 206.391 198.92 205.251 198.92C204.151 198.92 203.271 199.27 202.611 199.97C201.971 200.67 201.621 201.66 201.561 202.94ZM201.561 205.61C201.661 206.79 202.111 207.73 202.911 208.43C203.731 209.11 204.761 209.45 206.001 209.45C207.481 209.45 208.951 209.08 210.411 208.34L211.311 211.1C209.511 211.9 207.611 212.3 205.611 212.3C203.251 212.3 201.331 211.57 199.851 210.11C198.391 208.65 197.661 206.68 197.661 204.2C197.661 201.68 198.341 199.7 199.701 198.26C201.061 196.82 202.901 196.1 205.221 196.1C207.541 196.1 209.341 196.79 210.621 198.17C211.921 199.55 212.571 201.53 212.571 204.11C212.571 204.61 212.541 205.11 212.481 205.61H201.561ZM230.16 201.8L226.59 208.07H223.29L219.72 201.8H219.69V212H215.82V196.4H220.14L224.91 205.28H224.97L229.74 196.4H234.12V212H230.22V201.8H230.16ZM239.281 198.29C240.681 196.83 242.571 196.1 244.951 196.1C247.331 196.1 249.221 196.83 250.621 198.29C252.021 199.75 252.721 201.72 252.721 204.2C252.721 206.68 252.021 208.65 250.621 210.11C249.221 211.57 247.331 212.3 244.951 212.3C242.571 212.3 240.681 211.57 239.281 210.11C237.901 208.65 237.211 206.68 237.211 204.2C237.211 201.72 237.901 199.75 239.281 198.29ZM244.951 209.33C246.171 209.33 247.121 208.9 247.801 208.04C248.481 207.16 248.821 205.88 248.821 204.2C248.821 202.52 248.481 201.25 247.801 200.39C247.121 199.51 246.171 199.07 244.951 199.07C243.751 199.07 242.811 199.51 242.131 200.39C241.451 201.25 241.111 202.52 241.111 204.2C241.111 205.88 241.451 207.16 242.131 208.04C242.811 208.9 243.751 209.33 244.951 209.33ZM255.96 204.89V201.71H265.65V204.89H255.96ZM273.921 209.54C274.381 209.6 274.841 209.63 275.301 209.63C277.701 209.63 278.901 208.83 278.901 207.23C278.901 205.77 277.671 205.04 275.211 205.04H273.921V209.54ZM273.921 202.58H275.151C276.131 202.58 276.901 202.4 277.461 202.04C278.021 201.68 278.301 201.19 278.301 200.57C278.301 199.37 277.271 198.77 275.211 198.77C274.771 198.77 274.341 198.8 273.921 198.86V202.58ZM282.711 207.5C282.711 210.64 280.191 212.21 275.151 212.21C273.371 212.21 271.631 212.1 269.931 211.88V196.52C271.531 196.3 273.181 196.19 274.881 196.19C279.641 196.19 282.021 197.49 282.021 200.09C282.021 200.99 281.691 201.76 281.031 202.4C280.391 203.02 279.501 203.43 278.361 203.63V203.66C279.721 203.84 280.781 204.28 281.541 204.98C282.321 205.66 282.711 206.5 282.711 207.5ZM288.807 202.94H296.127C296.107 201.64 295.777 200.65 295.137 199.97C294.517 199.27 293.637 198.92 292.497 198.92C291.397 198.92 290.517 199.27 289.857 199.97C289.217 200.67 288.867 201.66 288.807 202.94ZM288.807 205.61C288.907 206.79 289.357 207.73 290.157 208.43C290.977 209.11 292.007 209.45 293.247 209.45C294.727 209.45 296.197 209.08 297.657 208.34L298.557 211.1C296.757 211.9 294.857 212.3 292.857 212.3C290.497 212.3 288.577 211.57 287.097 210.11C285.637 208.65 284.907 206.68 284.907 204.2C284.907 201.68 285.587 199.7 286.947 198.26C288.307 196.82 290.147 196.1 292.467 196.1C294.787 196.1 296.587 196.79 297.867 198.17C299.167 199.55 299.817 201.53 299.817 204.11C299.817 204.61 299.787 205.11 299.727 205.61H288.807ZM314.106 204.2C314.106 202.52 313.786 201.26 313.146 200.42C312.526 199.58 311.646 199.16 310.506 199.16C309.446 199.16 308.586 199.6 307.926 200.48C307.286 201.34 306.966 202.53 306.966 204.05V204.35C306.966 205.91 307.286 207.12 307.926 207.98C308.586 208.82 309.446 209.24 310.506 209.24C311.566 209.24 312.426 208.81 313.086 207.95C313.766 207.07 314.106 205.82 314.106 204.2ZM317.856 204.2C317.856 206.78 317.276 208.78 316.116 210.2C314.976 211.6 313.476 212.3 311.616 212.3C309.696 212.3 308.166 211.57 307.026 210.11H306.966V218.6H303.066V196.4H306.726L306.786 198.59H306.846C308.046 196.93 309.636 196.1 311.616 196.1C313.556 196.1 315.076 196.79 316.176 198.17C317.296 199.55 317.856 201.56 317.856 204.2ZM332.544 208.28L333.444 211.19C331.804 211.93 330.104 212.3 328.344 212.3C325.844 212.3 323.834 211.57 322.314 210.11C320.794 208.65 320.034 206.68 320.034 204.2C320.034 201.66 320.764 199.68 322.224 198.26C323.704 196.82 325.744 196.1 328.344 196.1C330.104 196.1 331.804 196.47 333.444 197.21L332.544 200.18C331.284 199.46 329.944 199.1 328.524 199.1C327.104 199.1 325.994 199.54 325.194 200.42C324.414 201.3 324.024 202.56 324.024 204.2C324.024 205.8 324.434 207.06 325.254 207.98C326.094 208.9 327.184 209.36 328.524 209.36C329.964 209.36 331.304 209 332.544 208.28ZM341.275 196.4V206.57H341.305L347.755 196.4H351.805V212H347.845V201.83H347.785L341.335 212H337.285V196.4H341.275ZM359.217 204.89V204.86C358.097 204.58 357.177 204.08 356.457 203.36C355.757 202.64 355.407 201.78 355.407 200.78C355.407 197.72 357.837 196.19 362.697 196.19C364.697 196.19 366.607 196.3 368.427 196.52V212H364.437V206.12H363.207C362.427 206.12 361.887 206.22 361.587 206.42C361.307 206.6 360.987 207.08 360.627 207.86L358.827 212H354.897L356.907 207.65C357.287 206.83 357.647 206.22 357.987 205.82C358.327 205.42 358.737 205.11 359.217 204.89ZM364.437 203.36V199.13C363.937 199.07 363.417 199.04 362.877 199.04C360.437 199.04 359.217 199.75 359.217 201.17C359.217 202.63 360.497 203.36 363.057 203.36H364.437ZM376.548 205.31C376.548 204.49 376.658 203.75 376.878 203.09C377.098 202.43 377.448 201.83 377.928 201.29C378.408 200.73 378.808 200.32 379.128 200.06C379.448 199.78 379.928 199.4 380.568 198.92C381.168 198.48 381.608 198.14 381.888 197.9C382.188 197.64 382.468 197.3 382.728 196.88C383.008 196.44 383.148 195.98 383.148 195.5C383.148 193.96 381.888 193.19 379.368 193.19C377.428 193.19 375.308 193.56 373.008 194.3L372.258 190.91C374.858 190.17 377.428 189.8 379.968 189.8C382.388 189.8 384.258 190.28 385.578 191.24C386.898 192.18 387.558 193.43 387.558 194.99C387.558 195.71 387.458 196.36 387.258 196.94C387.078 197.5 386.778 198.01 386.358 198.47C385.958 198.93 385.588 199.29 385.248 199.55C384.928 199.81 384.478 200.14 383.898 200.54C383.338 200.92 382.918 201.23 382.638 201.47C382.358 201.69 382.028 202 381.648 202.4C381.288 202.8 381.018 203.24 380.838 203.72C380.678 204.18 380.588 204.71 380.568 205.31H376.548ZM376.368 212V207.8H380.748V212H376.368Z" fill="#525D77"/>
<path d="M51.232 170.905C33.7147 170.905 22.9946 160.978 17.7394 155.685V216.107H0V71.2324H15.9876L17.2952 87.1115C28.0277 71.2324 41.1657 68.8096 51.232 68.8096C81.2211 68.8096 97.8626 93.5104 97.8626 119.963C97.8626 146.416 80.7894 170.905 51.232 170.905ZM49.2582 85.1235C29.7671 85.1235 17.727 102.108 17.727 120.845V134.513C19.2567 137.159 30.865 154.579 49.2582 154.579C68.0831 154.579 79.6915 140.241 79.6915 119.963C79.6915 99.8968 68.0955 85.1235 49.2582 85.1235Z" fill="#525D77"/>
<path d="M194.196 103.86V168.47H178.875L177.345 155.685C170.116 166.271 158.73 170.905 147.356 170.905C122.4 170.905 113.197 158.555 113.197 139.818C113.197 122.833 127.433 109.165 152.611 109.165C164.429 109.165 174.94 112.694 176.482 113.129V104.742C176.482 91.7333 163.122 84.6759 151.526 84.6759C140.139 84.6759 131.825 87.7573 125.04 91.5096V74.7608C133.799 71.0084 142.557 68.8092 151.97 68.8092C175.581 68.7968 194.196 82.0294 194.196 103.86ZM176.457 126.573C173.398 125.691 164.417 122.821 152.809 122.821C138.141 122.821 130.912 128.548 130.912 139.358C130.912 149.721 136.389 155.014 149.959 155.014C165.502 155.014 176.445 143.769 176.445 130.313V126.573H176.457Z" fill="#525D77"/>
<path d="M238.643 0V100.12C238.643 104.308 238.421 111.812 237.767 115.999H238.865C240.616 113.577 243.244 108.942 246.969 104.979L277.625 71.2448H299.299C285.939 86.6766 272.148 101.897 258.8 117.329L300.841 168.483H278.723L247.192 129.008L238.655 138.489V168.483H220.916V0H238.643Z" fill="#525D77"/>
<path d="M351.174 68.7972C379.633 68.7972 400 91.7337 400 119.951C400 147.733 379.633 170.893 351.174 170.893C322.714 170.893 302.347 147.733 302.347 120.398C302.347 90.193 324.022 68.7972 351.174 68.7972ZM351.174 154.579C368.247 154.579 381.829 140.241 381.829 119.74C381.829 99.0148 366.939 85.1236 351.174 85.1236C334.754 85.1236 320.518 99.2384 320.518 120.187C320.518 139.147 333.656 154.579 351.174 154.579Z" fill="#525D77"/>
</svg>
