<svg width="400" height="217" viewBox="0 0 400 217" fill="none" xmlns="http://www.w3.org/2000/svg">
<path d="M51.232 170.905C33.7147 170.905 22.9946 160.978 17.7394 155.685V216.107H0V71.2324H15.9876L17.2952 87.1115C28.0277 71.2324 41.1657 68.8096 51.232 68.8096C81.2211 68.8096 97.8626 93.5104 97.8626 119.963C97.8626 146.416 80.7894 170.905 51.232 170.905ZM49.2582 85.1235C29.7671 85.1235 17.727 102.108 17.727 120.845V134.513C19.2567 137.159 30.865 154.579 49.2582 154.579C68.0831 154.579 79.6915 140.241 79.6915 119.963C79.6915 99.8968 68.0955 85.1235 49.2582 85.1235Z" fill="#525D77"/>
<path d="M194.196 103.86V168.47H178.875L177.345 155.684C170.116 166.271 158.73 170.905 147.356 170.905C122.4 170.905 113.197 158.555 113.197 139.818C113.197 122.833 127.433 109.165 152.611 109.165C164.429 109.165 174.94 112.694 176.482 113.129V104.742C176.482 91.7332 163.122 84.6758 151.526 84.6758C140.139 84.6758 131.825 87.7572 125.04 91.5095V74.7606C133.799 71.0083 142.557 68.8091 151.97 68.8091C175.581 68.7967 194.196 82.0292 194.196 103.86ZM176.457 126.573C173.398 125.691 164.417 122.82 152.809 122.82C138.141 122.82 130.912 128.548 130.912 139.358C130.912 149.72 136.389 155.013 149.959 155.013C165.502 155.013 176.445 143.769 176.445 130.313V126.573H176.457Z" fill="#525D77"/>
<path d="M238.642 0V100.12C238.642 104.308 238.42 111.812 237.766 115.999H238.864C240.616 113.577 243.243 108.942 246.969 104.979L277.624 71.2448H299.299C285.939 86.6766 272.147 101.897 258.799 117.329L300.841 168.483H278.722L247.191 129.008L238.654 138.489V168.483H220.915V0H238.642Z" fill="#525D77"/>
<path d="M351.173 68.7974C379.633 68.7974 400 91.7339 400 119.951C400 147.733 379.633 170.893 351.173 170.893C322.714 170.893 302.347 147.733 302.347 120.398C302.347 90.1932 324.021 68.7974 351.173 68.7974ZM351.173 154.579C368.246 154.579 381.828 140.241 381.828 119.74C381.828 99.0149 366.939 85.1238 351.173 85.1238C334.754 85.1238 320.518 99.2385 320.518 120.187C320.518 139.148 333.656 154.579 351.173 154.579Z" fill="#525D77"/>
<path d="M39.3401 209.82V215H36.5801V200.5C37.9667 200.3 39.4334 200.2 40.9801 200.2C42.9801 200.2 44.4801 200.6 45.4801 201.4C46.4801 202.187 46.9801 203.334 46.9801 204.84C46.9801 206.507 46.4934 207.767 45.5201 208.62C44.5601 209.474 43.1334 209.9 41.2401 209.9C40.4667 209.9 39.8334 209.874 39.3401 209.82ZM39.3401 207.66C39.8467 207.74 40.3934 207.78 40.9801 207.78C42.0601 207.78 42.8801 207.547 43.4401 207.08C44.0134 206.6 44.3001 205.92 44.3001 205.04C44.3001 203.267 43.1934 202.38 40.9801 202.38C40.3801 202.38 39.8334 202.42 39.3401 202.5V207.66Z" fill="#525D77"/>
<path d="M52.7187 209.34H56.5987L54.6787 202.86H54.6387L52.7187 209.34ZM52.0987 211.48L51.0387 215H48.1387L53.1987 200.4H56.1987L61.2787 215H58.2787L57.2387 211.48H52.0987Z" fill="#525D77"/>
<path d="M70.0755 215.2C67.7955 215.2 65.9689 214.527 64.5955 213.18C63.2222 211.82 62.5355 209.994 62.5355 207.7C62.5355 205.394 63.2089 203.567 64.5555 202.22C65.9022 200.874 67.7422 200.2 70.0755 200.2C71.8355 200.2 73.3889 200.634 74.7355 201.5L73.8955 203.56C72.7355 202.827 71.5489 202.46 70.3355 202.46C68.8289 202.46 67.6289 202.934 66.7355 203.88C65.8422 204.814 65.3955 206.087 65.3955 207.7C65.3955 209.3 65.8555 210.574 66.7755 211.52C67.6955 212.467 68.8822 212.94 70.3355 212.94C71.5489 212.94 72.7355 212.574 73.8955 211.84L74.7355 213.9C73.3889 214.767 71.8355 215.2 70.0755 215.2Z" fill="#525D77"/>
<path d="M85.158 209.9C84.4247 210.3 83.558 210.5 82.558 210.5C80.6914 210.5 79.3447 210.114 78.518 209.34C77.7047 208.567 77.298 207.3 77.298 205.54V200.4H80.038V205.2C80.038 206.36 80.2447 207.147 80.658 207.56C81.0847 207.96 81.898 208.16 83.098 208.16C83.8847 208.16 84.5714 207.974 85.158 207.6V200.4H87.958V215H85.158V209.9Z" fill="#525D77"/>
<path d="M93.9113 202.66V206.24H99.7713V208.38H93.9113V212.74H100.171V215H91.1113V200.4H100.171V202.66H93.9113Z" fill="#525D77"/>
<path d="M113.823 200.4V202.72H109.643V215H106.803V202.72H102.623V200.4H113.823Z" fill="#525D77"/>
<path d="M129.197 215.2C126.917 215.2 125.09 214.527 123.717 213.18C122.343 211.82 121.657 209.994 121.657 207.7C121.657 205.394 122.33 203.567 123.677 202.22C125.023 200.874 126.863 200.2 129.197 200.2C130.957 200.2 132.51 200.634 133.857 201.5L133.017 203.56C131.857 202.827 130.67 202.46 129.457 202.46C127.95 202.46 126.75 202.934 125.857 203.88C124.963 204.814 124.517 206.087 124.517 207.7C124.517 209.3 124.977 210.574 125.897 211.52C126.817 212.467 128.003 212.94 129.457 212.94C130.67 212.94 131.857 212.574 133.017 211.84L133.857 213.9C132.51 214.767 130.957 215.2 129.197 215.2Z" fill="#525D77"/>
<path d="M147.319 200.4V202.72H143.139V215H140.299V202.72H136.119V200.4H147.319Z" fill="#525D77"/>
<path d="M151.059 202.24C152.392 200.88 154.165 200.2 156.379 200.2C158.592 200.2 160.359 200.88 161.679 202.24C163.012 203.587 163.679 205.407 163.679 207.7C163.679 209.994 163.012 211.82 161.679 213.18C160.359 214.527 158.592 215.2 156.379 215.2C154.165 215.2 152.392 214.527 151.059 213.18C149.739 211.82 149.079 209.994 149.079 207.7C149.079 205.407 149.739 203.587 151.059 202.24ZM153.139 211.54C153.939 212.447 155.019 212.9 156.379 212.9C157.739 212.9 158.819 212.447 159.619 211.54C160.419 210.62 160.819 209.34 160.819 207.7C160.819 206.06 160.419 204.787 159.619 203.88C158.819 202.96 157.739 202.5 156.379 202.5C155.019 202.5 153.939 202.96 153.139 203.88C152.339 204.787 151.939 206.06 151.939 207.7C151.939 209.34 152.339 210.62 153.139 211.54Z" fill="#525D77"/>
<path d="M177.476 215H174.736V205.06H174.696L168.676 215H165.936V200.4H168.676V210.34H168.716L174.736 200.4H177.476V215Z" fill="#525D77"/>
<path d="M192.303 205.14H192.263L189.063 211.34H186.543L183.343 205.14H183.303V215H180.643V200.4H183.443L187.783 209H187.823L192.163 200.4H195.043V215H192.303V205.14Z" fill="#525D77"/>
<path d="M199.281 202.24C200.615 200.88 202.388 200.2 204.601 200.2C206.814 200.2 208.581 200.88 209.901 202.24C211.235 203.587 211.901 205.407 211.901 207.7C211.901 209.994 211.235 211.82 209.901 213.18C208.581 214.527 206.814 215.2 204.601 215.2C202.388 215.2 200.615 214.527 199.281 213.18C197.961 211.82 197.301 209.994 197.301 207.7C197.301 205.407 197.961 203.587 199.281 202.24ZM201.361 211.54C202.161 212.447 203.241 212.9 204.601 212.9C205.961 212.9 207.041 212.447 207.841 211.54C208.641 210.62 209.041 209.34 209.041 207.7C209.041 206.06 208.641 204.787 207.841 203.88C207.041 202.96 205.961 202.5 204.601 202.5C203.241 202.5 202.161 202.96 201.361 203.88C200.561 204.787 200.161 206.06 200.161 207.7C200.161 209.34 200.561 210.62 201.361 211.54Z" fill="#525D77"/>
<path d="M220.798 215.2C218.518 215.2 216.692 214.527 215.318 213.18C213.945 211.82 213.258 209.994 213.258 207.7C213.258 205.394 213.932 203.567 215.278 202.22C216.625 200.874 218.465 200.2 220.798 200.2C222.558 200.2 224.112 200.634 225.458 201.5L224.618 203.56C223.458 202.827 222.272 202.46 221.058 202.46C219.552 202.46 218.352 202.934 217.458 203.88C216.565 204.814 216.118 206.087 216.118 207.7C216.118 209.3 216.578 210.574 217.498 211.52C218.418 212.467 219.605 212.94 221.058 212.94C222.272 212.94 223.458 212.574 224.618 211.84L225.458 213.9C224.112 214.767 222.558 215.2 220.798 215.2Z" fill="#525D77"/>
<path d="M238.921 200.4V202.72H234.741V215H231.901V202.72H227.721V200.4H238.921Z" fill="#525D77"/>
<path d="M253.12 215H250.38V205.06H250.34L244.32 215H241.58V200.4H244.32V210.34H244.36L250.38 200.4H253.12V215Z" fill="#525D77"/>
</svg>
