<svg width="42" height="42" viewBox="0 0 42 42" fill="none" xmlns="http://www.w3.org/2000/svg">
<path d="M13.125 21H7.875V15.75H13.125V21ZM23.625 15.75H18.375V21H23.625V15.75ZM34.125 15.75H28.875V21H34.125V15.75ZM13.125 23.625H7.875V28.875H13.125V23.625ZM23.625 23.625H18.375V28.875H23.625V23.625ZM34.125 23.625H28.875V28.875H34.125V23.625ZM13.125 31.5H7.875V36.75H13.125V31.5ZM23.625 31.5H18.375V36.75H23.625V31.5ZM10.5 7.875C11.9497 7.875 13.125 6.70089 13.125 5.25V2.625C13.125 1.17403 11.9497 0 10.5 0C9.05034 0 7.875 1.17411 7.875 2.625V5.25C7.875 6.70097 9.05034 7.875 10.5 7.875ZM42 5.25V42H0V5.25H6.5625C6.5625 7.42129 8.32872 9.1875 10.5 9.1875C12.6713 9.1875 14.4375 7.42129 14.4375 5.25H27.5625C27.5625 7.42129 29.3287 9.1875 31.5 9.1875C33.6713 9.1875 35.4375 7.42129 35.4375 5.25H42ZM39.375 13.125H2.625V39.375H39.375V13.125ZM31.5 7.875C32.951 7.875 34.125 6.70089 34.125 5.25V2.625C34.125 1.17403 32.951 0 31.5 0C30.049 0 28.875 1.17411 28.875 2.625V5.25C28.875 6.70097 30.049 7.875 31.5 7.875Z" fill="#09378B"/>
</svg>
