<svg width="115" height="113" viewBox="0 0 115 113" fill="none" xmlns="http://www.w3.org/2000/svg">
<path fill-rule="evenodd" clip-rule="evenodd" d="M30.9604 19.4662C33.0077 19.4662 34.8843 19.9262 36.5405 20.8326C38.1883 21.7376 39.4592 22.9748 40.3193 24.51L40.5866 24.9871L46.444 21.7205L46.1682 21.2653C44.6555 18.7779 42.5187 16.7806 39.8175 15.3288C37.1206 13.879 34.1407 13.1436 30.9604 13.1436C25.6774 13.1436 21.2304 14.851 17.7459 18.2174C14.2613 21.5831 12.4956 25.8019 12.4956 30.7575C12.4956 35.7131 14.2613 39.9318 17.7459 43.2975C21.2304 46.6633 25.676 48.3707 30.9604 48.3707C34.1734 48.3707 37.1717 47.627 39.8701 46.1602C42.5699 44.6933 44.6896 42.6865 46.1696 40.1984L46.4411 39.7418L40.5767 36.5278L40.3151 37.0118C39.4877 38.5456 38.2266 39.7801 36.5661 40.681C34.897 41.5874 33.0105 42.048 30.9604 42.048C27.473 42.048 24.614 40.9763 22.4644 38.8628C20.3106 36.7493 19.2173 34.022 19.2173 30.7575C19.2173 27.4936 20.3106 24.7663 22.4644 22.6508C24.6154 20.538 27.4744 19.4662 30.9604 19.4662V19.4662ZM62.2388 13.7553H49.0613V47.7596H55.783V36.4609H62.2388C65.6054 36.4609 68.4601 35.3563 70.7263 33.1772C72.9939 30.9981 74.1426 28.2831 74.1426 25.1081C74.1426 21.9009 72.9924 19.1778 70.7263 17.0151C68.4587 14.8517 65.604 13.7553 62.2388 13.7553V13.7553ZM65.958 28.8641C64.9784 29.8477 63.7629 30.3262 62.2388 30.3262H55.783V19.89H62.2388C63.7629 19.89 64.9784 20.3685 65.9566 21.3521C66.9418 22.3425 67.4209 23.5715 67.4209 25.1081C67.4209 26.6447 66.9418 27.8736 65.958 28.8641ZM83.0864 41.5313V33.683H96.7957V27.5018H83.0864V19.9836H98.0197V13.7553H76.3647V47.7596H98.2643V41.5313H83.0864Z" fill="#09378B"/>
<path fill-rule="evenodd" clip-rule="evenodd" d="M46.8379 96.1465H54.7913L51.8056 102.327H47.9994H13.0625H0V96.1465H10.7255C13.89 92.3543 15.4725 86.5953 15.4725 78.87V53.1659H46.8379V96.1465ZM18.3938 96.1465H40.0455V59.276H22.265V79.0104C22.265 86.4549 20.974 92.1679 18.3938 96.1465V96.1465Z" fill="#09378B"/>
<path fill-rule="evenodd" clip-rule="evenodd" d="M96.2298 102.327L91.9629 91.3009H68.3812L60.2006 112.285H52.7891L76.2417 53.1659H84.1024L103.641 102.327H96.2298ZM70.7771 85.1908H89.5675L80.1349 60.9614L70.7771 85.1908Z" fill="#09378B"/>
<path fill-rule="evenodd" clip-rule="evenodd" d="M48.968 96.033L42.6377 112.285H50.0493L56.2975 96.0002L48.968 96.033Z" fill="#09378B"/>
<path fill-rule="evenodd" clip-rule="evenodd" d="M6.06331 5.39661H0V102.327H6.06331V5.39661Z" fill="#09378B"/>
<path fill-rule="evenodd" clip-rule="evenodd" d="M113.55 5.39661H107.486V47.8093H113.55V5.39661Z" fill="#09378B"/>
<path fill-rule="evenodd" clip-rule="evenodd" d="M113.55 52.7858H107.486V91.077H113.55V52.7858Z" fill="#E50C6F"/>
<path fill-rule="evenodd" clip-rule="evenodd" d="M110.359 103.05C108.055 103.05 106.187 101.253 106.187 99.0378C106.187 96.8222 108.055 95.0261 110.359 95.0261C112.663 95.0261 114.531 96.8222 114.531 99.0378C114.531 101.253 112.663 103.05 110.359 103.05Z" fill="#E50C6F"/>
<path fill-rule="evenodd" clip-rule="evenodd" d="M113.55 5.83034V0H0V5.83034H113.55Z" fill="#09378B"/>
</svg>
