<svg width="50" height="19" viewBox="0 0 50 19" fill="none" xmlns="http://www.w3.org/2000/svg">
<path d="M48.4375 6.25H46.875C46.5625 6.25 46.5625 6.25 46.25 6.25C45 2.5 41.5625 0 37.5 0C33.4375 0 30 2.8125 28.75 6.5625C27.8125 5.3125 26.5625 4.6875 25 4.6875C23.4375 4.6875 22.1875 5.3125 21.25 6.5625C20 2.8125 16.5625 0 12.5 0C8.4375 0 5 2.8125 3.75 6.25C3.4375 6.25 3.4375 6.25 3.125 6.25H1.5625C0.625 6.25 0 6.875 0 7.8125C0 8.75 0.625 9.375 1.5625 9.375H3.125C3.125 14.6875 7.1875 18.75 12.5 18.75C17.1875 18.75 20.9375 15.3125 21.875 10.9375C22.8125 10.9375 23.4375 10.3125 23.4375 9.375C23.4375 8.4375 24.0625 7.8125 25 7.8125C25.9375 7.8125 26.5625 8.4375 26.5625 9.375C26.5625 10.3125 27.1875 10.9375 28.125 10.9375C28.75 15.3125 32.8125 18.75 37.5 18.75C42.8125 18.75 46.875 14.6875 46.875 9.375H48.4375C49.375 9.375 50 8.75 50 7.8125C50 6.875 49.375 6.25 48.4375 6.25ZM12.5 15.625C9.0625 15.625 6.25 12.8125 6.25 9.375C6.25 5.9375 9.0625 3.125 12.5 3.125C15.9375 3.125 18.75 5.9375 18.75 9.375C18.75 12.8125 15.9375 15.625 12.5 15.625ZM37.5 15.625C34.0625 15.625 31.25 12.8125 31.25 9.375C31.25 5.9375 34.0625 3.125 37.5 3.125C40.9375 3.125 43.75 5.9375 43.75 9.375C43.75 12.8125 40.9375 15.625 37.5 15.625Z" fill="#09378B"/>
</svg>
