<svg width="19" height="20" viewBox="0 0 19 20" fill="none" xmlns="http://www.w3.org/2000/svg">
<path d="M12.2788 4.40007C12.4839 4.61101 12.6746 4.83671 12.853 5.07085C12.7997 4.99913 12.7464 4.92952 12.693 4.8578C13.0417 5.32609 13.3308 5.83655 13.5564 6.37866C13.5216 6.29429 13.4867 6.20991 13.4539 6.12765C13.6856 6.69507 13.8415 7.28991 13.9215 7.89952C13.9092 7.80671 13.8968 7.71179 13.8845 7.61898C13.9604 8.22437 13.9604 8.83609 13.8845 9.44148C13.8968 9.34866 13.9092 9.25374 13.9215 9.16093C13.8415 9.77054 13.6856 10.3654 13.4539 10.9328C13.4887 10.8484 13.5236 10.7641 13.5564 10.6818C13.3329 11.2239 13.0437 11.7344 12.693 12.2027C12.7464 12.1309 12.7997 12.0613 12.853 11.9896C12.4982 12.4621 12.084 12.8861 11.6266 13.251C11.6964 13.1962 11.764 13.1413 11.8338 13.0865C11.3785 13.4451 10.8822 13.7425 10.3551 13.9745C10.4372 13.9387 10.5192 13.9028 10.5992 13.8691C10.0475 14.1074 9.46921 14.2677 8.87654 14.35C8.96677 14.3373 9.05906 14.3247 9.14929 14.312C8.56072 14.3901 7.96599 14.3901 7.37742 14.312C7.46765 14.3247 7.55993 14.3373 7.65017 14.35C7.05749 14.2677 6.47917 14.1074 5.92751 13.8691C6.00954 13.9049 6.09158 13.9408 6.17156 13.9745C5.64451 13.7446 5.14822 13.4472 4.69294 13.0865C4.76267 13.1413 4.83035 13.1962 4.90007 13.251C4.4407 12.8861 4.02849 12.46 3.6737 11.9896C3.72702 12.0613 3.78035 12.1309 3.83367 12.2027C3.48503 11.7344 3.19587 11.2239 2.97029 10.6818C3.00515 10.7662 3.04001 10.8505 3.07283 10.9328C2.84109 10.3654 2.68523 9.77054 2.60525 9.16093C2.61755 9.25374 2.62986 9.34866 2.64216 9.44148C2.56628 8.83609 2.56628 8.22437 2.64216 7.61898C2.62986 7.71179 2.61755 7.80671 2.60525 7.89952C2.68523 7.28991 2.84109 6.69507 3.07283 6.12765C3.03796 6.21202 3.0031 6.2964 2.97029 6.37866C3.19382 5.83655 3.48298 5.32609 3.83367 4.8578C3.78035 4.92952 3.72702 4.99913 3.6737 5.07085C4.02849 4.59835 4.44275 4.17437 4.90007 3.80944C4.83035 3.86429 4.76267 3.91913 4.69294 3.97398C5.14822 3.61538 5.64451 3.31796 6.17156 3.08593C6.08952 3.12179 6.00749 3.15765 5.92751 3.1914C6.47917 2.95304 7.05749 2.79273 7.65017 2.71046C7.55993 2.72312 7.46765 2.73577 7.37742 2.74843C7.96599 2.67038 8.56072 2.67038 9.14929 2.74843C9.05906 2.73577 8.96677 2.72312 8.87654 2.71046C9.46921 2.79273 10.0475 2.95304 10.5992 3.1914C10.5172 3.15554 10.4351 3.11968 10.3551 3.08593C10.8822 3.31585 11.3785 3.61327 11.8338 3.97398C11.764 3.91913 11.6964 3.86429 11.6266 3.80944C11.8543 3.99296 12.0737 4.18913 12.2788 4.40007C12.4654 4.59202 12.7402 4.70804 13.0048 4.70804C13.257 4.70804 13.5564 4.59413 13.7307 4.40007C13.9092 4.19968 14.0425 3.93601 14.0302 3.65335C14.0178 3.37491 13.9256 3.10913 13.7307 2.90663C12.6295 1.78233 11.1816 0.976554 9.64558 0.712882C9.23132 0.641163 8.81091 0.590538 8.3905 0.5821C8.00495 0.573663 7.62351 0.607413 7.24206 0.660147C6.85857 0.712882 6.48122 0.782491 6.11003 0.894288C5.70603 1.01663 5.31228 1.17905 4.92878 1.36046C4.22126 1.69796 3.56911 2.17046 2.99695 2.71257C2.41247 3.26734 1.90593 3.93179 1.51833 4.64687C1.14919 5.3303 0.866185 6.08124 0.712377 6.84906C0.558568 7.61687 0.494994 8.4121 0.568822 9.19468C0.64265 9.9857 0.802611 10.7577 1.09997 11.4918C1.26404 11.8968 1.4404 12.2934 1.66599 12.6667C1.89363 13.0485 2.16023 13.4092 2.44324 13.7509C2.96003 14.3711 3.58962 14.909 4.26638 15.333C4.91648 15.7401 5.64451 16.0523 6.38484 16.24C7.86345 16.6155 9.47741 16.5522 10.9068 15.9974C11.3067 15.8413 11.7025 15.6641 12.0758 15.4469C12.451 15.2296 12.7956 14.968 13.134 14.6938C13.7615 14.1834 14.2968 13.5548 14.7377 12.8713C15.5846 11.5593 16.0256 9.94351 15.9907 8.36991C15.9558 6.78999 15.4657 5.19319 14.5531 3.91491C14.2988 3.56054 14.0301 3.22093 13.7287 2.90874C13.5441 2.71679 13.2652 2.60077 13.0027 2.60077C12.7505 2.60077 12.451 2.71468 12.2767 2.90874C12.0983 3.10913 11.965 3.3728 11.9773 3.65546C11.9896 3.9339 12.0819 4.19757 12.2788 4.40007Z" fill="#09378B"/>
<path d="M12.2787 14.1496C12.7771 14.6621 13.2774 15.1768 13.7758 15.6894C14.5715 16.5078 15.3672 17.3263 16.1629 18.1447C16.3454 18.3324 16.53 18.5223 16.7125 18.71C16.8991 18.902 17.1739 19.018 17.4385 19.018C17.6907 19.018 17.9901 18.9041 18.1645 18.71C18.3429 18.5096 18.4762 18.246 18.4639 17.9633C18.4516 17.6828 18.3593 17.4191 18.1645 17.2166C17.6661 16.704 17.1657 16.1893 16.6674 15.6767C15.8717 14.8583 15.076 14.0399 14.2803 13.2214C14.0978 13.0337 13.9132 12.8438 13.7307 12.6561C13.544 12.4642 13.2692 12.3481 13.0047 12.3481C12.7524 12.3481 12.453 12.4621 12.2787 12.6561C12.1003 12.8565 11.967 13.1202 11.9793 13.4028C11.9896 13.6834 12.0818 13.9471 12.2787 14.1496Z" fill="#09378B"/>
</svg>
