<svg width="38" height="40" viewBox="0 0 38 40" fill="none" xmlns="http://www.w3.org/2000/svg">
<path d="M30.3508 26.3791C28.1714 26.3791 26.2191 27.4234 24.9932 29.0125L13.9603 22.6107C14.6414 20.9308 14.6414 19.0692 13.9603 17.3893L24.9932 10.9875C26.2191 12.5766 28.1714 13.6209 30.3508 13.6209C34.1192 13.6209 37.1612 10.5789 37.1612 6.81044C37.1612 3.042 34.1192 0 30.3508 0C26.5823 0 23.5403 3.042 23.5403 6.81044C23.5403 7.7185 23.722 8.62656 24.0398 9.39841L13.0069 15.8456C11.7356 14.2565 9.82865 13.2123 7.64931 13.2123C3.88086 13.2123 0.838867 16.2543 0.838867 20.0227C0.838867 23.7911 3.88086 26.8331 7.64931 26.8331C9.82865 26.8331 11.781 25.7889 13.0069 24.1998L24.0398 30.6016C23.722 31.3734 23.5403 32.2815 23.5403 33.1896C23.5403 36.958 26.5823 40 30.3508 40C34.1192 40 37.1612 36.958 37.1612 33.1896C37.1612 29.4211 34.1192 26.3791 30.3508 26.3791ZM30.3508 1.86152C33.1204 1.86152 35.3451 4.08627 35.3451 6.85585C35.3451 9.62543 33.1204 11.8502 30.3508 11.8502C27.5812 11.8502 25.3565 9.62543 25.3565 6.85585C25.3565 4.08627 27.5812 1.86152 30.3508 1.86152ZM7.64931 25.017C4.87973 25.017 2.65499 22.7923 2.65499 20.0227C2.65499 17.2531 4.87973 15.0284 7.64931 15.0284C10.4189 15.0284 12.6436 17.2531 12.6436 20.0227C12.6436 22.7923 10.4189 25.017 7.64931 25.017ZM30.3508 38.1839C27.5812 38.1839 25.3565 35.9591 25.3565 33.1896C25.3565 30.42 27.5812 28.1952 30.3508 28.1952C33.1204 28.1952 35.3451 30.42 35.3451 33.1896C35.3451 35.9591 33.1204 38.1839 30.3508 38.1839Z" fill="#09378B"/>
</svg>
