<svg width="41" height="41" viewBox="0 0 41 41" fill="none" xmlns="http://www.w3.org/2000/svg">
<path d="M9.74963 40.6563C9.18494 40.6555 8.63484 40.4768 8.17744 40.1457C7.78323 39.8467 7.47327 39.4506 7.27779 38.996C7.08232 38.5415 7.00802 38.0441 7.06213 37.5522L8.04307 26.5469L1.01526 18.2694C0.697764 17.8917 0.48279 17.4387 0.39101 16.9539C0.29923 16.4691 0.33373 15.9689 0.491193 15.5013C0.636295 15.0456 0.896998 14.6352 1.24789 14.3102C1.59878 13.9852 2.02789 13.7567 2.49338 13.6469L12.7328 11.2282L18.1078 1.82192C18.3467 1.3938 18.6957 1.03722 19.1185 0.788999C19.5413 0.540778 20.0228 0.409912 20.5131 0.409912C21.0034 0.409912 21.4848 0.540778 21.9076 0.788999C22.3305 1.03722 22.6794 1.3938 22.9184 1.82192L28.2934 11.2954L38.5328 13.7141C38.9982 13.8239 39.4274 14.0524 39.7782 14.3774C40.1291 14.7024 40.3898 15.1128 40.5349 15.5685C40.6924 16.0361 40.7269 16.5363 40.6351 17.0211C40.5433 17.5059 40.3284 17.9589 40.0109 18.3366L33.0234 26.5469L34.0043 37.5522C34.051 38.0502 33.9663 38.5516 33.7589 39.0066C33.5514 39.4616 33.2283 39.8544 32.8218 40.1457C32.4374 40.4237 31.9863 40.595 31.5143 40.6422C31.0423 40.6894 30.5661 40.6108 30.1343 40.4144L20.4996 36.0607L10.8784 40.4144C10.5241 40.5759 10.139 40.6584 9.74963 40.6563ZM20.5668 3.0313L14.7887 13.0154C14.6975 13.1763 14.574 13.3166 14.426 13.4276C14.278 13.5386 14.1087 13.6178 13.9287 13.6604L3.17869 16.2C3.09807 16.3344 3.08463 16.4151 3.17869 16.4822L10.5021 25.2032C10.6155 25.3384 10.7012 25.4946 10.7542 25.6629C10.8073 25.8312 10.8266 26.0083 10.8112 26.1841L9.77651 37.7404C9.65557 37.9688 9.74963 37.9688 9.74963 37.9688L19.9353 33.3732C20.1085 33.2953 20.2963 33.255 20.4862 33.255C20.6761 33.255 20.8639 33.2953 21.0371 33.3732L31.2496 37.9688C31.2496 37.9688 31.3706 37.9688 31.3571 37.7941L30.3224 26.2379C30.307 26.0621 30.3264 25.885 30.3794 25.7167C30.4324 25.5483 30.5181 25.3921 30.6315 25.2569L37.9684 16.536C37.9837 16.507 37.9917 16.4747 37.9917 16.4419C37.9917 16.4091 37.9837 16.3769 37.9684 16.3479L27.084 13.6604C26.904 13.6178 26.7347 13.5386 26.5867 13.4276C26.4387 13.3166 26.3152 13.1763 26.224 13.0154L20.5668 3.0313Z" fill="#09378B"/>
</svg>
