<svg width="35" height="32" viewBox="0 0 35 32" fill="none" xmlns="http://www.w3.org/2000/svg">
<path d="M34.1984 0.559253C33.8808 0.284951 33.4942 0.102786 33.0805 0.0324917C32.6668 -0.0378025 32.2417 0.00645493 31.8514 0.160469L1.46233 12.0991C0.998845 12.2811 0.606779 12.6084 0.344802 13.0319C0.0828238 13.4554 -0.0349798 13.9523 0.00901782 14.4484C0.0530155 14.9444 0.256449 15.4128 0.588878 15.7836C0.921306 16.1543 1.36486 16.4075 1.85316 16.5051L9.83688 18.1018V28.0133C9.83647 28.4694 9.97143 28.9154 10.2247 29.2947C10.4779 29.6741 10.838 29.9697 11.2594 30.1443C11.6808 30.3188 12.1446 30.3643 12.5919 30.2751C13.0392 30.1859 13.4499 29.966 13.7721 29.6432L18.2623 25.153L24.978 31.0629C25.3956 31.4337 25.9346 31.6388 26.4932 31.6395C26.736 31.6392 26.9773 31.601 27.2083 31.5261C27.5893 31.4053 27.9319 31.1866 28.2021 30.892C28.4722 30.5974 28.6603 30.2371 28.7478 29.8471L34.9411 2.82106C35.0355 2.41217 35.0161 1.98526 34.8852 1.58658C34.7543 1.18789 34.5168 0.832622 34.1984 0.559253ZM1.97721 14.2737C1.96655 14.2023 1.98156 14.1294 2.01956 14.068C2.05757 14.0066 2.11612 13.9606 2.18481 13.9383L27.6128 3.94867L10.5959 16.2386L2.2406 14.5675C2.16904 14.5576 2.1033 14.5227 2.05507 14.4689C2.00685 14.4151 1.97926 14.3459 1.97721 14.2737ZM12.375 28.2461C12.3289 28.2922 12.2702 28.3236 12.2063 28.3363C12.1425 28.349 12.0762 28.3425 12.0161 28.3175C11.9559 28.2926 11.9045 28.2504 11.8683 28.1962C11.8321 28.1421 11.8128 28.0784 11.8128 28.0133V19.4773L16.776 23.8451L12.375 28.2461ZM26.8218 29.4056C26.809 29.4613 26.7821 29.5126 26.7435 29.5547C26.705 29.5967 26.6562 29.628 26.6019 29.6456C26.5476 29.6631 26.4897 29.6662 26.4338 29.6546C26.3779 29.643 26.326 29.6171 26.2832 29.5795L12.4068 17.3681L32.9865 2.50509L26.8218 29.4056Z" fill="#09378B"/>
</svg>
