<svg width="42" height="42" viewBox="0 0 42 42" fill="none" xmlns="http://www.w3.org/2000/svg">
<path d="M21 41.3125C16.9826 41.3125 13.0554 40.1212 9.71499 37.8892C6.37462 35.6573 3.77111 32.4849 2.23371 28.7733C0.696301 25.0616 0.294046 20.9775 1.07781 17.0372C1.86157 13.097 3.79615 9.47766 6.6369 6.6369C9.47766 3.79615 13.097 1.86157 17.0372 1.07781C20.9775 0.294046 25.0616 0.696301 28.7733 2.23371C32.4849 3.77111 35.6573 6.37462 37.8892 9.71499C40.1212 13.0554 41.3125 16.9826 41.3125 21C41.3125 26.3872 39.1724 31.5538 35.3631 35.3631C31.5538 39.1724 26.3872 41.3125 21 41.3125ZM21 3.81251C17.6006 3.81251 14.2776 4.82054 11.4511 6.70912C8.62468 8.59771 6.42171 11.282 5.12083 14.4226C3.81995 17.5632 3.47958 21.0191 4.14276 24.3531C4.80595 27.6872 6.4429 30.7497 8.84661 33.1534C11.2503 35.5571 14.3128 37.1941 17.6469 37.8573C20.9809 38.5204 24.4368 38.1801 27.5774 36.8792C30.718 35.5783 33.4023 33.3753 35.2909 30.5489C37.1795 27.7224 38.1875 24.3994 38.1875 21C38.1875 16.4416 36.3767 12.0699 33.1534 8.84661C29.9301 5.62333 25.5584 3.81251 21 3.81251Z" fill="#09378B"/>
<path d="M29.5938 31.1562C29.3881 31.1574 29.1843 31.118 28.9939 31.0403C28.8035 30.9625 28.6304 30.8479 28.4844 30.7031L19.8907 22.1094C19.7458 21.9634 19.6313 21.7902 19.5535 21.5999C19.4758 21.4095 19.4363 21.2056 19.4375 21V8.5C19.4375 8.0856 19.6021 7.68817 19.8952 7.39515C20.1882 7.10212 20.5856 6.9375 21 6.9375C21.4144 6.9375 21.8119 7.10212 22.1049 7.39515C22.3979 7.68817 22.5625 8.0856 22.5625 8.5V20.3594L30.7031 28.4844C30.8496 28.6296 30.9658 28.8024 31.0452 28.9928C31.1245 29.1833 31.1653 29.3875 31.1653 29.5938C31.1653 29.8 31.1245 30.0042 31.0452 30.1947C30.9658 30.3851 30.8496 30.5579 30.7031 30.7031C30.5571 30.8479 30.384 30.9625 30.1936 31.0403C30.0033 31.118 29.7994 31.1574 29.5938 31.1562Z" fill="#09378B"/>
</svg>
