<svg width="45" height="25" viewBox="0 0 45 25" fill="none" xmlns="http://www.w3.org/2000/svg">
<path d="M1.51945 0C3.09299 0 5.49076 0 6.8395 0C7.51388 0 8.03839 0.40984 8.26318 0.956293C8.93755 2.73227 10.4362 6.62574 12.1596 9.2897C14.4824 12.7733 15.981 14.0712 16.9551 13.9346C17.9292 13.7296 17.6295 11.4072 17.6295 9.56293C17.6295 7.71865 17.8543 4.57654 16.8802 3.14211L15.3816 1.16121C15.0069 0.683067 15.3816 0.0683069 15.981 0.0683069H24.5231C25.3473 0.0683069 26.0217 0.683067 26.0217 1.43444V11.3389C26.0217 11.3389 26.3963 13.1149 28.4944 11.2706C30.5924 9.42632 32.8403 6.01098 34.7136 2.52735L35.4629 0.887986C35.6877 0.40984 36.2122 0.0683069 36.8116 0.0683069H42.3565C43.4055 0.0683069 44.1548 1.0246 43.7801 1.91259L43.1807 3.34702C43.1807 3.34702 41.1576 7.03558 39.0595 9.63124C36.9615 12.2952 36.5119 12.91 36.8116 13.593C37.1113 14.2761 42.5063 18.8526 43.8551 21.0384C44.2297 21.6532 44.5294 22.1997 44.8292 22.6778C45.3537 23.5658 44.6044 24.727 43.4804 24.727H37.1863C36.6618 24.727 36.1373 24.4538 35.9125 24.0439L35.313 23.1559C35.313 23.1559 31.4916 19.0576 29.1687 17.7597C26.771 16.5302 26.8459 18.3062 26.8459 18.3062V21.9264C26.8459 23.4292 25.4971 24.6587 23.8487 24.6587H22.3501C22.3501 24.6587 14.1077 24.6587 7.51388 15.7105C2.34369 8.74325 0.62029 4.23501 0.0208478 1.63936C-0.129013 0.819679 0.54536 0 1.51945 0Z" fill="#09378B"/>
</svg>
