<svg width="1181" height="244" viewBox="0 0 1181 244" fill="none" xmlns="http://www.w3.org/2000/svg">
<path fill-rule="evenodd" clip-rule="evenodd" d="M503.77 89.8743C503.311 89.8743 502.864 89.7322 502.522 89.4691L485.735 76.5498C485.352 76.2547 485.142 75.8381 485.16 75.4067C485.177 74.9752 485.421 74.5712 485.827 74.2981L570.816 17.1906C571.564 16.6878 572.66 16.7514 573.315 17.3352C573.97 17.9191 573.956 18.8211 573.284 19.3913C572.854 19.7558 530.229 55.9471 520.532 66.972C510.888 77.931 505.517 88.825 505.464 88.9338C505.239 89.3932 504.753 89.7319 504.165 89.8389C504.034 89.8626 503.901 89.8743 503.77 89.8743V89.8743ZM489.75 75.5333L503.12 85.8229C505.141 82.1084 510.049 73.7684 517.573 65.218C522.951 59.1049 537.752 45.8343 550.373 34.7991L489.75 75.5333Z" fill="#A5B9C4"/>
<path fill-rule="evenodd" clip-rule="evenodd" d="M490.203 99.6375C488.686 99.6375 487.29 99.3852 486.122 98.8715C485.233 98.481 484.899 97.5733 485.375 96.8438C485.851 96.1144 486.957 95.8401 487.845 96.2305C489.632 97.0165 492.791 96.6578 495.708 95.3388C499.374 93.6808 501.707 91.0379 501.95 88.2688C502.022 87.4437 502.897 86.8236 503.901 86.8822C504.906 86.9417 505.662 87.6588 505.591 88.4841C505.258 92.2694 502.222 95.8129 497.469 97.9627C495.022 99.0696 492.477 99.6375 490.203 99.6375V99.6375Z" fill="#A5B9C4"/>
<path fill-rule="evenodd" clip-rule="evenodd" d="M486.982 76.2061C486.498 76.2061 486.095 75.894 486.072 75.4931C486.048 75.0796 486.437 74.7288 486.94 74.709L512.344 73.7141C512.848 73.6941 513.275 74.0135 513.299 74.4265C513.323 74.84 512.935 75.1906 512.431 75.2104L487.027 76.2051C487.012 76.2058 486.997 76.2058 486.982 76.2058V76.2061Z" fill="#A5B9C4"/>
<path fill-rule="evenodd" clip-rule="evenodd" d="M503.769 87.4053C503.337 87.4053 502.953 87.1523 502.872 86.7909L498.553 67.3943C498.462 66.9873 498.791 66.5973 499.286 66.5228C499.782 66.4482 500.257 66.718 500.348 67.125L504.668 86.5215C504.758 86.9285 504.43 87.3186 503.934 87.3929C503.879 87.4011 503.824 87.4053 503.769 87.4053V87.4053Z" fill="#A5B9C4"/>
<path fill-rule="evenodd" clip-rule="evenodd" d="M513.263 74.0997C512.831 74.0997 512.448 73.8465 512.367 73.4853L509.173 59.1437C509.083 58.7367 509.411 58.3468 509.907 58.2723C510.403 58.1977 510.878 58.4675 510.969 58.8745L514.162 73.2159C514.252 73.6227 513.924 74.013 513.428 74.0875C513.373 74.0957 513.318 74.0997 513.263 74.0997V74.0997Z" fill="#A5B9C4"/>
<path fill-rule="evenodd" clip-rule="evenodd" d="M523.877 61.2153C523.445 61.2153 523.061 60.9624 522.981 60.601L521.063 51.9763C520.972 51.5694 521.301 51.1791 521.797 51.105C522.292 51.0304 522.768 51.3004 522.858 51.7074L524.776 60.3319C524.866 60.7389 524.538 61.1289 524.042 61.203C523.986 61.2114 523.931 61.2153 523.877 61.2153V61.2153Z" fill="#A5B9C4"/>
<path fill-rule="evenodd" clip-rule="evenodd" d="M532.623 53.2111C532.191 53.2111 531.808 52.9579 531.727 52.5964L530.137 45.452C530.047 45.045 530.375 44.6549 530.871 44.5808C531.367 44.5066 531.842 44.776 531.933 45.183L533.522 52.3275C533.612 52.7341 533.284 53.1244 532.788 53.1988C532.733 53.2072 532.678 53.2111 532.623 53.2111V53.2111Z" fill="#A5B9C4"/>
<path fill-rule="evenodd" clip-rule="evenodd" d="M502.672 66.0129C502.188 66.0129 501.784 65.7006 501.761 65.2997C501.737 64.8865 502.126 64.5355 502.629 64.5159L520.734 63.8082C521.238 63.7869 521.665 64.1076 521.689 64.5204C521.713 64.9338 521.324 65.2847 520.821 65.3042L502.716 66.0121C502.7 66.0127 502.686 66.0128 502.672 66.0128V66.0129Z" fill="#A5B9C4"/>
<path fill-rule="evenodd" clip-rule="evenodd" d="M515.958 57.09C515.48 57.09 515.078 56.7844 515.048 56.3876C515.017 55.9747 515.399 55.6192 515.902 55.5934L529.773 54.8855C530.276 54.8612 530.71 55.1739 530.741 55.5867C530.773 55.9994 530.39 56.3549 529.887 56.3806L516.016 57.0886C515.996 57.0893 515.977 57.09 515.958 57.09Z" fill="#A5B9C4"/>
<path fill-rule="evenodd" clip-rule="evenodd" d="M571.973 19.0984C571.721 19.0984 571.47 19.0133 571.29 18.8462L552.278 1.24618C551.944 0.936664 551.979 0.463141 552.356 0.188625C552.733 -0.0856851 553.31 -0.057314 553.644 0.252199L572.655 17.8526C572.989 18.162 572.954 18.6355 572.577 18.9098C572.404 19.0362 572.187 19.0984 571.973 19.0984Z" fill="#A5B9C4"/>
<path fill-rule="evenodd" clip-rule="evenodd" d="M551.893 5.06723C551.584 5.06723 551.283 4.93872 551.111 4.70603C550.548 3.94039 550.38 3.0409 550.64 2.17276C550.9 1.30421 551.557 0.571299 552.489 0.108341C552.92 -0.105709 553.482 0.00755969 553.742 0.361733C554.003 0.715698 553.865 1.17603 553.434 1.39015C552.919 1.64582 552.556 2.05085 552.412 2.53045C552.268 3.01004 552.361 3.50739 552.673 3.931C552.934 4.28476 552.795 4.74516 552.364 4.95942C552.217 5.03238 552.054 5.06723 551.893 5.06723V5.06723Z" fill="#A5B9C4"/>
<path fill-rule="evenodd" clip-rule="evenodd" d="M552.962 7.33469C551.618 7.33469 550.523 6.43702 550.523 5.33384C550.523 4.23046 551.618 3.33276 552.962 3.33276C554.306 3.33276 555.399 4.23046 555.399 5.33384C555.399 6.43702 554.306 7.33469 552.962 7.33469ZM552.962 4.83058C552.623 4.83058 552.349 5.05601 552.349 5.33384C552.349 5.61126 552.623 5.83669 552.962 5.83669C553.299 5.83669 553.574 5.61126 553.574 5.33384C553.574 5.05601 553.299 4.83058 552.962 4.83058Z" fill="#A5B9C4"/>
<path fill-rule="evenodd" clip-rule="evenodd" d="M492.18 66.7532C491.917 66.7532 491.655 66.6602 491.475 66.4801C491.155 66.1605 491.211 65.6888 491.6 65.4258L567.479 14.2106C567.869 13.9476 568.443 13.9938 568.763 14.3133C569.083 14.6329 569.028 15.1048 568.638 15.3674L492.759 66.583C492.589 66.6974 492.384 66.7532 492.18 66.7532V66.7532Z" fill="#A5B9C4"/>
<path fill-rule="evenodd" clip-rule="evenodd" d="M682.572 91.7292C682.069 91.7292 681.66 91.3936 681.66 90.98V84.6753C681.66 84.2618 682.069 83.9265 682.572 83.9265C683.076 83.9265 683.485 84.2618 683.485 84.6753V90.98C683.485 91.3936 683.076 91.7292 682.572 91.7292Z" fill="#A5B9C4"/>
<path fill-rule="evenodd" clip-rule="evenodd" d="M682.572 94.4849C682.069 94.4849 681.66 94.1497 681.66 93.7359V93.4844C681.66 93.0708 682.069 92.7356 682.572 92.7356C683.076 92.7356 683.485 93.0708 683.485 93.4844V93.7359C683.485 94.1497 683.076 94.4849 682.572 94.4849Z" fill="#A5B9C4"/>
<path fill-rule="evenodd" clip-rule="evenodd" d="M491.731 91.7292C491.226 91.7292 490.818 91.3936 490.818 90.98V84.6753C490.818 84.2618 491.226 83.9265 491.731 83.9265C492.235 83.9265 492.643 84.2618 492.643 84.6753V90.98C492.643 91.3936 492.235 91.7292 491.731 91.7292Z" fill="#A5B9C4"/>
<path fill-rule="evenodd" clip-rule="evenodd" d="M491.731 94.4849C491.226 94.4849 490.818 94.1497 490.818 93.7359V93.4844C490.818 93.0708 491.226 92.7356 491.731 92.7356C492.235 92.7356 492.643 93.0708 492.643 93.4844V93.7359C492.643 94.1497 492.235 94.4849 491.731 94.4849Z" fill="#A5B9C4"/>
<path fill-rule="evenodd" clip-rule="evenodd" d="M670.341 89.8742C670.209 89.8742 670.077 89.8625 669.946 89.8388C669.358 89.7318 668.871 89.3931 668.647 88.9337C668.594 88.8251 663.208 77.9143 653.579 66.9724C643.881 55.947 601.264 19.7555 600.834 19.391C600.161 18.8209 600.148 17.919 600.803 17.3351C601.458 16.7511 602.553 16.6877 603.301 17.1906L688.284 74.298C688.69 74.5712 688.934 74.9752 688.951 75.4067C688.969 75.8381 688.759 76.2546 688.376 76.5497L671.589 89.4691C671.247 89.7322 670.8 89.8742 670.341 89.8742V89.8742ZM623.737 34.7949C636.357 45.8308 651.16 59.1043 656.538 65.2182C664.062 73.7683 668.969 82.1083 670.991 85.8228L684.361 75.5332L623.737 34.7949Z" fill="#A5B9C4"/>
<path fill-rule="evenodd" clip-rule="evenodd" d="M687.128 76.206C687.113 76.206 687.099 76.2059 687.084 76.2053L661.679 75.2106C661.176 75.1909 660.787 74.8402 660.811 74.4267C660.836 74.0135 661.263 73.6951 661.766 73.7143L687.171 74.7093C687.674 74.7291 688.063 75.0799 688.038 75.4933C688.015 75.8942 687.612 76.2063 687.128 76.2063V76.206Z" fill="#A5B9C4"/>
<path fill-rule="evenodd" clip-rule="evenodd" d="M670.342 87.4053C670.287 87.4053 670.232 87.4011 670.177 87.3929C669.681 87.3186 669.352 86.9285 669.443 86.5215L673.763 67.125C673.853 66.718 674.329 66.4482 674.824 66.5228C675.32 66.5973 675.649 66.9873 675.558 67.3943L671.238 86.7909C671.158 87.1523 670.774 87.4053 670.342 87.4053V87.4053Z" fill="#A5B9C4"/>
<path fill-rule="evenodd" clip-rule="evenodd" d="M660.84 74.0997C660.785 74.0997 660.73 74.0955 660.675 74.0874C660.179 74.013 659.851 73.6226 659.941 73.2159L663.135 58.8745C663.226 58.4675 663.701 58.1979 664.196 58.2722C664.692 58.3468 665.02 58.7367 664.93 59.1437L661.736 73.4853C661.656 73.8465 661.272 74.0997 660.84 74.0997Z" fill="#A5B9C4"/>
<path fill-rule="evenodd" clip-rule="evenodd" d="M650.234 61.2152C650.179 61.2152 650.124 61.2111 650.068 61.2029C649.572 61.1288 649.244 60.7388 649.335 60.3318L651.253 51.7073C651.343 51.3003 651.818 51.0307 652.314 51.1049C652.809 51.179 653.138 51.5693 653.047 51.9762L651.13 60.6009C651.049 60.9623 650.666 61.2152 650.234 61.2152V61.2152Z" fill="#A5B9C4"/>
<path fill-rule="evenodd" clip-rule="evenodd" d="M641.487 53.2111C641.432 53.2111 641.377 53.2069 641.322 53.1988C640.826 53.1244 640.498 52.7341 640.589 52.3273L642.178 45.183C642.269 44.776 642.744 44.5062 643.24 44.5807C643.735 44.6549 644.064 45.045 643.973 45.452L642.383 52.5965C642.303 52.9579 641.919 53.2111 641.487 53.2111V53.2111Z" fill="#A5B9C4"/>
<path fill-rule="evenodd" clip-rule="evenodd" d="M671.432 66.0129C671.417 66.0129 671.402 66.0127 671.388 66.0123L653.289 65.3043C652.786 65.2848 652.397 64.9339 652.421 64.5205C652.446 64.1077 652.871 63.7891 653.376 63.8083L671.475 64.516C671.978 64.5356 672.367 64.8866 672.343 65.2998C672.319 65.7007 671.916 66.013 671.432 66.013V66.0129Z" fill="#A5B9C4"/>
<path fill-rule="evenodd" clip-rule="evenodd" d="M658.152 57.09C658.133 57.09 658.114 57.0896 658.095 57.0887L644.224 56.3806C643.721 56.3549 643.338 55.9994 643.37 55.5867C643.401 55.1739 643.833 54.8611 644.337 54.8855L658.208 55.5934C658.711 55.6192 659.093 55.9747 659.062 56.3876C659.032 56.7844 658.63 57.09 658.152 57.09Z" fill="#A5B9C4"/>
<path fill-rule="evenodd" clip-rule="evenodd" d="M602.145 19.0984C601.93 19.0984 601.714 19.0362 601.54 18.9098C601.163 18.6355 601.129 18.162 601.463 17.8526L620.474 0.252199C620.808 -0.057314 621.385 -0.0856851 621.762 0.188625C622.139 0.463141 622.174 0.936664 621.839 1.24618L602.829 18.8462C602.648 19.0133 602.398 19.0984 602.145 19.0984V19.0984Z" fill="#A5B9C4"/>
<path fill-rule="evenodd" clip-rule="evenodd" d="M690.285 72.3092C690.081 72.3092 689.876 72.2534 689.706 72.1393L605.338 15.3506C604.948 15.0881 604.891 14.6163 605.211 14.2967C605.531 13.9767 606.105 13.9303 606.495 14.1923L690.864 70.9812C691.253 71.2431 691.31 71.7151 690.99 72.035C690.81 72.2157 690.548 72.3092 690.285 72.3092Z" fill="#A5B9C4"/>
<path fill-rule="evenodd" clip-rule="evenodd" d="M683.907 99.6377C681.629 99.6377 679.081 99.0682 676.63 97.9586C671.88 95.8078 668.848 92.2656 668.521 88.4827C668.449 87.6577 669.206 86.9411 670.211 86.8822C671.218 86.8233 672.089 87.4451 672.161 88.2703C672.401 91.036 674.73 93.6773 678.393 95.3355C681.313 96.6574 684.477 97.0172 686.266 96.2305C687.154 95.8401 688.26 96.1144 688.736 96.8438C689.212 97.5733 688.877 98.481 687.989 98.8716C686.82 99.3852 685.423 99.6377 683.907 99.6377Z" fill="#A5B9C4"/>
<path fill-rule="evenodd" clip-rule="evenodd" d="M622.217 5.06719C622.057 5.06719 621.894 5.03234 621.746 4.95938C621.315 4.74512 621.177 4.28472 621.438 3.93075C622.081 3.05792 621.742 1.9178 620.683 1.38948C620.252 1.17446 620.115 0.713853 620.376 0.360301C620.638 0.00674972 621.199 -0.105755 621.63 0.108847C623.548 1.06548 624.162 3.12778 622.999 4.70599C622.827 4.93868 622.526 5.06719 622.217 5.06719V5.06719Z" fill="#A5B9C4"/>
<path fill-rule="evenodd" clip-rule="evenodd" d="M621.156 7.33469C619.812 7.33469 618.719 6.43702 618.719 5.33384C618.719 4.23046 619.812 3.33276 621.156 3.33276C622.5 3.33276 623.594 4.23046 623.594 5.33384C623.594 6.43702 622.5 7.33469 621.156 7.33469ZM621.156 4.83058C620.813 4.83058 620.544 5.05146 620.544 5.33384C620.544 5.61581 620.813 5.83669 621.156 5.83669C621.494 5.83669 621.769 5.61126 621.769 5.33384C621.769 5.05601 621.494 4.83058 621.156 4.83058Z" fill="#A5B9C4"/>
<path fill-rule="evenodd" clip-rule="evenodd" d="M687.198 75.211C686.985 75.211 686.771 75.1503 686.599 75.0262C686.219 74.7543 686.18 74.281 686.511 73.9695L689.598 71.0676C689.929 70.7559 690.506 70.7238 690.885 70.996C691.264 71.2681 691.304 71.7411 690.973 72.0525L687.886 74.9549C687.705 75.1243 687.453 75.211 687.198 75.211Z" fill="#A5B9C4"/>
<path fill-rule="evenodd" clip-rule="evenodd" d="M990.313 75.467C989.912 75.467 989.512 75.3475 989.214 75.1105C980.786 68.4065 972.75 66.977 967.493 66.9584C964.487 66.9504 961.592 67.3839 958.884 68.2545C956.309 69.0823 954.037 70.2566 952.131 71.7448C951.548 72.1996 950.588 72.2113 949.986 71.7706C949.384 71.3298 949.369 70.604 949.952 70.1489C952.142 68.4395 954.748 67.0921 957.697 66.1437C960.787 65.1502 964.09 64.6532 967.507 64.6647C973.354 64.6854 982.247 66.2403 991.413 73.5301C991.989 73.9893 991.965 74.715 991.358 75.1515C991.065 75.3625 990.689 75.467 990.313 75.467V75.467Z" fill="#A5B9C4"/>
<path fill-rule="evenodd" clip-rule="evenodd" d="M957.765 78.9078C957.055 78.9078 956.421 78.5291 956.278 77.9827C955.78 76.0722 953.876 74.0561 950.917 72.3063C947.795 70.46 943.812 69.1174 939.7 68.5258C935.06 67.8583 930.423 68.1648 926.291 69.4123C921.434 70.8785 917.297 73.5937 913.994 77.4822C913.542 78.0151 912.603 78.1699 911.899 77.8277C911.193 77.4853 910.989 76.7757 911.442 76.2428C915.092 71.9441 919.71 68.9293 925.166 67.2821C929.836 65.8722 935.058 65.523 940.267 66.2727C949.773 67.6403 957.936 72.4837 959.255 77.5388C959.417 78.1604 958.882 78.7634 958.06 78.8859C957.961 78.9008 957.862 78.9078 957.765 78.9078V78.9078Z" fill="#A5B9C4"/>
<path fill-rule="evenodd" clip-rule="evenodd" d="M869.861 82.1338C869.712 82.1338 869.56 82.1168 869.41 82.0817C868.61 81.8932 868.164 81.2502 868.413 80.6455C869.757 77.3828 872.563 74.417 876.526 72.0683C880.292 69.8376 884.856 68.2925 889.727 67.5996C894.426 66.9311 899.162 67.1114 903.423 68.1204C908.172 69.2451 912.165 71.3155 915.289 74.2742C915.812 74.7692 915.705 75.4907 915.051 75.8861C914.396 76.2814 913.442 76.2005 912.919 75.7058C910.178 73.1105 906.678 71.295 902.517 70.3094C898.729 69.412 894.5 69.2546 890.287 69.8538C885.893 70.479 881.782 71.8691 878.398 73.8739C874.92 75.934 872.47 78.5115 871.309 81.3275C871.107 81.8189 870.508 82.1338 869.861 82.1338V82.1338Z" fill="#A5B9C4"/>
<path fill-rule="evenodd" clip-rule="evenodd" d="M891.98 69.2826C891.384 69.2826 890.818 69.015 890.577 68.572C888.43 64.6288 885.171 61.5139 880.889 59.3138C877.19 57.4128 872.755 56.2411 868.064 55.9248C859.913 55.3762 851.849 57.5208 848.891 61.0247C848.44 61.5585 847.502 61.7151 846.796 61.3743C846.09 61.0335 845.883 60.3241 846.334 59.7903C849.924 55.5388 858.971 53.01 868.334 53.6402C873.538 53.9909 878.469 55.2967 882.594 57.4167C887.376 59.8736 891.005 63.3331 893.382 67.6989C893.701 68.2845 893.332 68.9549 892.557 69.196C892.368 69.2549 892.172 69.2826 891.98 69.2826V69.2826Z" fill="#A5B9C4"/>
<path fill-rule="evenodd" clip-rule="evenodd" d="M806.402 71.0699C806.183 71.0699 805.96 71.034 805.748 70.9576C804.993 70.6844 804.673 69.9994 805.035 69.4281C807.853 64.9733 811.848 61.5245 816.909 59.1776C821.338 57.123 826.501 55.9936 831.837 55.9117C836.604 55.8383 841.267 56.5871 845.32 58.0772C849.456 59.5982 852.591 61.7577 854.386 64.3217C854.779 64.8816 854.496 65.5756 853.755 65.8721C853.015 66.1681 852.097 65.9549 851.705 65.3951C850.213 63.2638 847.547 61.4468 843.993 60.1401C840.371 58.808 836.189 58.1392 831.899 58.205C827.101 58.2788 822.466 59.2913 818.495 61.1326C813.941 63.2446 810.333 66.3687 807.771 70.4178C807.511 70.8295 806.968 71.0699 806.402 71.0699Z" fill="#A5B9C4"/>
<path fill-rule="evenodd" clip-rule="evenodd" d="M765.822 94.2945C765.218 94.2945 764.646 94.0188 764.411 93.5673C761.687 88.3359 761.607 83.0868 764.181 78.3871C766.47 74.2088 770.817 70.612 776.423 68.2597C782.144 65.859 788.693 64.9283 794.861 65.6387C801.723 66.4291 807.621 69.1614 811.917 73.5402C812.416 74.049 812.275 74.7675 811.603 75.1449C810.93 75.5223 809.98 75.4156 809.481 74.907C805.672 71.0243 800.458 68.6036 794.404 67.9064C788.896 67.272 783.033 68.1096 777.895 70.2654C772.886 72.3671 769.011 75.5633 766.984 79.2649C764.717 83.4043 764.803 88.0594 767.233 92.727C767.54 93.3165 767.157 93.9823 766.378 94.2144C766.195 94.2687 766.007 94.2945 765.822 94.2945V94.2945Z" fill="#A5B9C4"/>
<path fill-rule="evenodd" clip-rule="evenodd" d="M754.954 110.637C754.161 110.637 753.494 110.172 753.442 109.565C752.954 103.913 754.585 99.464 758.291 96.3408C762.939 92.4233 769.637 91.6416 773.216 91.5245C774.053 91.4981 774.761 91.9878 774.797 92.6206C774.834 93.2534 774.184 93.7887 773.347 93.816C770.244 93.9177 764.456 94.5797 760.549 97.8723C757.409 100.519 756.036 104.403 756.469 109.416C756.524 110.048 755.89 110.594 755.054 110.635C755.02 110.636 754.987 110.637 754.954 110.637V110.637Z" fill="#A5B9C4"/>
<path fill-rule="evenodd" clip-rule="evenodd" d="M826.863 70.7878C826.855 70.7878 826.846 70.7876 826.838 70.7875C826.419 70.7773 826.091 70.5123 826.105 70.1957C826.219 67.531 828.859 66.0187 831.291 65.4923C832.583 65.2123 833.955 65.1723 835.154 65.3797C836.492 65.6113 837.547 66.1264 838.205 66.869C838.438 67.1321 838.345 67.4882 837.997 67.6647C837.649 67.8407 837.178 67.7706 836.945 67.5073C836.049 66.4964 833.896 66.1211 831.709 66.5947C829.79 67.0101 827.709 68.1841 827.621 70.233C827.607 70.5432 827.27 70.7878 826.863 70.7878V70.7878Z" fill="#A5B9C4"/>
<path fill-rule="evenodd" clip-rule="evenodd" d="M846.86 71.4509C846.85 71.4509 846.84 71.4509 846.83 71.4506C846.412 71.438 846.086 71.1715 846.102 70.855C846.196 69.0475 844.844 67.0247 841.653 66.8551C839.573 66.7432 837.338 67.6351 837.038 69.8735C836.996 70.1886 836.623 70.4181 836.207 70.386C835.791 70.3543 835.487 70.0731 835.529 69.7579C835.929 66.7714 839.039 65.5652 841.759 65.7111C843.353 65.7958 844.821 66.3105 845.892 67.1606C847.099 68.1177 847.695 69.4109 847.618 70.9001C847.601 71.2088 847.266 71.4509 846.86 71.4509V71.4509Z" fill="#A5B9C4"/>
<path fill-rule="evenodd" clip-rule="evenodd" d="M999.156 87.9427C999.084 87.9427 999.012 87.9349 998.94 87.9189C998.538 87.829 998.309 87.5096 998.429 87.2061C999.43 84.65 1002.49 83.6918 1005.02 83.6476C1006.36 83.625 1007.7 83.8478 1008.79 84.2775C1010.01 84.7576 1010.86 85.4578 1011.25 86.3021C1011.39 86.6013 1011.18 86.928 1010.78 87.0322C1010.38 87.136 1009.95 86.9778 1009.82 86.6786C1009.29 85.5293 1007.33 84.7559 1005.05 84.7943C1003.06 84.829 1000.65 85.5667 999.882 87.5321C999.785 87.7814 999.483 87.9427 999.156 87.9427Z" fill="#A5B9C4"/>
<path fill-rule="evenodd" clip-rule="evenodd" d="M1018.28 92.4088C1018.21 92.4088 1018.13 92.4007 1018.06 92.3838C1017.66 92.292 1017.43 91.9715 1017.55 91.6686C1018.25 89.9379 1017.62 87.7223 1014.59 86.9479C1012.61 86.443 1010.15 86.877 1009.11 88.9855C1008.97 89.2823 1008.53 89.4331 1008.14 89.3226C1007.75 89.2119 1007.55 88.8817 1007.69 88.5849C1009.08 85.772 1012.49 85.2011 1015.07 85.8613C1016.59 86.2481 1017.84 87.0269 1018.59 88.0543C1019.43 89.211 1019.58 90.5762 1019.01 92.0021C1018.91 92.2494 1018.61 92.4088 1018.28 92.4088V92.4088Z" fill="#A5B9C4"/>
<path fill-rule="evenodd" clip-rule="evenodd" d="M886.605 96.185C886.245 96.185 885.925 95.9902 885.86 95.7127C885.425 93.8794 883.349 93.0306 881.55 92.8475C879.499 92.6384 877.626 93.1877 876.999 94.1827C876.818 94.4686 876.365 94.5896 875.987 94.4535C875.609 94.3172 875.449 93.9748 875.629 93.689C876.105 92.9347 876.987 92.3507 878.182 92.0004C879.247 91.6876 880.515 91.5851 881.752 91.7109C884.08 91.948 886.774 93.0707 887.352 95.5104C887.426 95.8222 887.152 96.1202 886.739 96.176C886.694 96.182 886.649 96.185 886.605 96.185V96.185Z" fill="#A5B9C4"/>
<path fill-rule="evenodd" clip-rule="evenodd" d="M868.504 98.8056C868.145 98.8056 867.827 98.6132 867.759 98.337C867.423 96.9755 867.744 95.725 868.683 94.7209C869.519 93.8292 870.778 93.2058 872.23 92.9657C874.709 92.5557 877.788 93.3484 878.691 96.0583C878.793 96.3656 878.547 96.6771 878.14 96.7542C877.734 96.8319 877.322 96.6452 877.22 96.3382C876.56 94.3585 874.401 93.7806 872.554 94.0858C870.565 94.4149 868.682 95.82 869.25 98.1271C869.327 98.4386 869.055 98.7379 868.643 98.7959C868.596 98.8025 868.55 98.8056 868.504 98.8056V98.8056Z" fill="#A5B9C4"/>
<path fill-rule="evenodd" clip-rule="evenodd" d="M801.402 102.475C801.076 102.475 800.775 102.315 800.676 102.067C800.206 100.886 800.37 99.7023 801.151 98.6429C801.837 97.711 802.962 96.9434 804.318 96.4806C806.634 95.6909 809.738 95.8284 811.45 97.9166C811.671 98.186 811.561 98.5394 811.205 98.7061C810.849 98.8732 810.382 98.7901 810.161 98.5211C808.849 96.9207 806.529 96.9848 804.942 97.5262C803.038 98.1756 801.345 99.7699 802.128 101.736C802.249 102.039 802.022 102.359 801.621 102.45C801.548 102.467 801.474 102.475 801.402 102.475V102.475Z" fill="#A5B9C4"/>
<path fill-rule="evenodd" clip-rule="evenodd" d="M808.709 97.4214C808.674 97.4214 808.639 97.4198 808.603 97.4158C808.188 97.3721 807.899 97.0825 807.957 96.7688C808.459 94.0391 811.394 92.7033 813.973 92.3633C815.346 92.1823 816.765 92.2551 817.97 92.5682C819.313 92.9176 820.324 93.5347 820.892 94.3525C821.087 94.6326 820.944 94.9794 820.573 95.1266C820.202 95.2738 819.743 95.166 819.549 94.8854C818.765 93.7564 816.579 93.1837 814.234 93.493C812.181 93.7637 809.849 94.8078 809.459 96.9269C809.406 97.2136 809.081 97.4214 808.709 97.4214V97.4214Z" fill="#A5B9C4"/>
<path fill-rule="evenodd" clip-rule="evenodd" d="M925.693 93.5508C925.333 93.5508 925.013 93.3562 924.948 93.0787C924.526 91.3087 925.817 89.4401 928.159 88.4286C930.539 87.4007 933.257 87.5695 935.254 88.869C935.572 89.0755 935.608 89.4376 935.334 89.6779C935.061 89.918 934.582 89.945 934.265 89.7382C932.746 88.7501 930.745 88.6326 928.912 89.4244C927.425 90.0661 926.085 91.3824 926.44 92.8757C926.515 93.1873 926.24 93.4855 925.828 93.5415C925.783 93.5475 925.738 93.5508 925.693 93.5508Z" fill="#A5B9C4"/>
<path fill-rule="evenodd" clip-rule="evenodd" d="M933.03 89.1199C932.989 89.1199 932.947 89.1172 932.906 89.1122C932.492 89.0605 932.212 88.7656 932.281 88.4531C932.744 86.3329 935.078 85.2042 937.107 84.855C939.307 84.4767 941.416 84.9022 942.354 85.9146C942.594 86.1741 942.511 86.5315 942.168 86.7133C941.825 86.895 941.352 86.8321 941.112 86.5729C940.533 85.9479 939.024 85.7016 937.444 85.9734C934.47 86.485 933.886 88.1435 933.777 88.6397C933.716 88.9206 933.395 89.1199 933.03 89.1199V89.1199Z" fill="#A5B9C4"/>
<path fill-rule="evenodd" clip-rule="evenodd" d="M789.962 83.2287C789.932 83.2287 789.902 83.2277 789.872 83.225C789.456 83.1879 789.158 82.9028 789.208 82.5882C789.516 80.6116 791.365 79.0968 794.034 78.6352C796.663 78.1801 799.288 78.8944 800.567 80.412C800.792 80.6791 800.688 81.0336 800.334 81.2038C799.981 81.3738 799.512 81.2955 799.288 81.0284C798.509 80.1049 796.688 79.3524 794.372 79.753C792.316 80.1086 790.948 81.2189 790.714 82.7226C790.668 83.0143 790.341 83.2288 789.962 83.2289V83.2287Z" fill="#A5B9C4"/>
<path fill-rule="evenodd" clip-rule="evenodd" d="M782.085 84.5457C781.711 84.5457 781.385 84.3358 781.334 84.0472C781.12 82.82 782.295 81.4263 784.257 80.5793C786.062 79.8 788.787 79.4385 791.021 80.7612C791.351 80.9564 791.408 81.3167 791.151 81.566C790.892 81.8156 790.416 81.8594 790.086 81.6641C789.563 81.3547 787.653 80.4342 785.009 81.5753C783.599 82.1839 782.706 83.139 782.838 83.8975C782.893 84.2112 782.601 84.4994 782.185 84.5407C782.152 84.5438 782.118 84.5459 782.085 84.5459V84.5457Z" fill="#A5B9C4"/>
<path fill-rule="evenodd" clip-rule="evenodd" d="M881.35 63.8257C881.161 63.8257 880.971 63.7725 880.824 63.6655C877.719 61.4053 872.951 59.8921 867.745 59.5133C867.328 59.4831 867.022 59.2028 867.062 58.8877C867.103 58.5725 867.473 58.3409 867.89 58.3718C870.694 58.5755 873.347 59.0756 875.774 59.8576C878.162 60.6267 880.214 61.6299 881.876 62.8392C882.178 63.0588 882.187 63.4218 881.897 63.6499C881.748 63.7668 881.549 63.8257 881.35 63.8257Z" fill="#A5B9C4"/>
<path fill-rule="evenodd" clip-rule="evenodd" d="M884.396 67.0784C884.101 67.0784 883.821 66.948 883.698 66.7305C883.441 66.2764 883.128 65.8363 882.767 65.4229C882.536 65.1587 882.633 64.8028 882.982 64.6283C883.332 64.4538 883.803 64.5267 884.033 64.791C884.444 65.2617 884.801 65.7625 885.093 66.2792C885.258 66.5705 885.079 66.9074 884.694 67.0321C884.596 67.0635 884.495 67.0784 884.396 67.0784V67.0784Z" fill="#A5B9C4"/>
<path fill-rule="evenodd" clip-rule="evenodd" d="M800.454 74.121C800.32 74.121 800.185 74.0945 800.063 74.0387C796.367 72.3553 791.273 71.6781 786.088 72.1811C785.672 72.2209 785.292 71.9993 785.239 71.685C785.185 71.3709 785.479 71.0837 785.894 71.0434C788.687 70.7726 791.42 70.816 794.018 71.1721C796.572 71.5224 798.869 72.1562 800.845 73.0563C801.204 73.2197 801.32 73.5721 801.104 73.8434C800.961 74.0221 800.711 74.121 800.454 74.121V74.121Z" fill="#A5B9C4"/>
<path fill-rule="evenodd" clip-rule="evenodd" d="M804.377 76.7821C804.144 76.7821 803.913 76.7005 803.764 76.5467C803.38 76.1487 802.944 75.7714 802.47 75.4252C802.168 75.2053 802.159 74.8423 802.45 74.6142C802.742 74.3864 803.221 74.3798 803.523 74.5997C804.06 74.9917 804.554 75.4195 804.989 75.8706C805.236 76.1261 805.162 76.4851 804.824 76.6717C804.689 76.7462 804.533 76.7821 804.377 76.7821Z" fill="#A5B9C4"/>
<path fill-rule="evenodd" clip-rule="evenodd" d="M751.291 101.606C751.222 101.606 751.152 101.599 751.083 101.584C750.68 101.497 750.447 101.179 750.562 100.875C751.837 97.4965 755.161 94.1509 759.683 91.696C760.023 91.5113 760.497 91.5702 760.741 91.8274C760.985 92.0846 760.908 92.443 760.567 92.6276C756.319 94.9344 753.203 98.0553 752.02 101.19C751.925 101.442 751.621 101.606 751.291 101.606V101.606Z" fill="#A5B9C4"/>
<path fill-rule="evenodd" clip-rule="evenodd" d="M750.813 105.573C750.432 105.573 750.105 105.357 750.06 105.065C749.975 104.509 749.951 103.944 749.988 103.384C750.009 103.068 750.367 102.825 750.784 102.841C751.202 102.857 751.524 103.126 751.503 103.442C751.47 103.938 751.491 104.44 751.567 104.933C751.615 105.248 751.317 105.533 750.9 105.569C750.871 105.572 750.841 105.573 750.813 105.573V105.573Z" fill="#A5B9C4"/>
<path fill-rule="evenodd" clip-rule="evenodd" d="M950.135 76.3698C949.936 76.3698 949.739 76.311 949.59 76.1944C946.52 73.7902 941.66 72.1627 936.255 71.7296C935.839 71.6962 935.537 71.4139 935.581 71.099C935.625 70.7838 936.001 70.5561 936.415 70.5891C942.169 71.05 947.368 72.803 950.681 75.3979C950.972 75.6259 950.963 75.989 950.662 76.2088C950.515 76.3162 950.325 76.3698 950.135 76.3698Z" fill="#A5B9C4"/>
<path fill-rule="evenodd" clip-rule="evenodd" d="M952.872 79.4859C952.573 79.4859 952.288 79.3508 952.169 79.1277C951.905 78.6344 951.578 78.1596 951.199 77.7168C950.971 77.451 951.071 77.0959 951.423 76.9235C951.774 76.7515 952.244 76.8272 952.472 77.0929C952.903 77.5966 953.274 78.1364 953.575 78.6968C953.732 78.9906 953.545 79.325 953.157 79.4438C953.064 79.4724 952.967 79.4859 952.872 79.4859V79.4859Z" fill="#A5B9C4"/>
<path fill-rule="evenodd" clip-rule="evenodd" d="M1022.11 80.678C1021.91 80.678 1021.71 80.6196 1021.56 80.5029C1018.49 78.0986 1013.63 76.4713 1008.23 76.0381C1007.81 76.0047 1007.51 75.7221 1007.56 75.4072C1007.6 75.0923 1007.97 74.8647 1008.39 74.8976C1014.14 75.3587 1019.34 77.1115 1022.66 79.7065C1022.95 79.9343 1022.94 80.2972 1022.64 80.5171C1022.49 80.6248 1022.3 80.678 1022.11 80.678V80.678Z" fill="#A5B9C4"/>
<path fill-rule="evenodd" clip-rule="evenodd" d="M1024.85 83.7941C1024.55 83.7941 1024.26 83.6587 1024.14 83.4359C1023.88 82.9425 1023.55 82.4679 1023.17 82.0249C1022.95 81.7591 1023.05 81.404 1023.4 81.2319C1023.75 81.0598 1024.22 81.1353 1024.45 81.401C1024.88 81.905 1025.25 82.4446 1025.55 83.0052C1025.71 83.2987 1025.52 83.6329 1025.13 83.7519C1025.04 83.7805 1024.94 83.7941 1024.85 83.7941V83.7941Z" fill="#A5B9C4"/>
<path fill-rule="evenodd" clip-rule="evenodd" d="M948.594 103.006C948.443 103.006 948.291 102.972 948.158 102.901C947.815 102.719 947.733 102.361 947.974 102.103C948.657 101.367 948.23 100.726 947.656 100.401C946.95 100.001 945.867 99.9469 945.039 100.729C944.777 100.977 944.3 101.017 943.973 100.819C943.646 100.621 943.593 100.26 943.855 100.013C945.245 98.6995 947.277 98.7524 948.567 99.4839C949.204 99.8453 949.637 100.352 949.785 100.911C949.953 101.54 949.755 102.18 949.215 102.762C949.067 102.921 948.832 103.006 948.594 103.006V103.006Z" fill="#A5B9C4"/>
<path fill-rule="evenodd" clip-rule="evenodd" d="M785.611 104.737C785.515 104.737 785.416 104.723 785.321 104.693C784.934 104.572 784.751 104.237 784.911 103.944C785.567 102.75 785.288 101.224 783.189 100.507C781.555 99.9492 779.249 100.195 778.046 102.055C777.861 102.339 777.407 102.457 777.031 102.318C776.655 102.179 776.499 101.835 776.683 101.551C777.416 100.419 778.548 99.6361 779.958 99.2879C781.21 98.9787 782.579 99.0406 783.813 99.4617C785.922 100.182 787.604 102.03 786.312 104.384C786.191 104.604 785.909 104.737 785.611 104.737V104.737Z" fill="#A5B9C4"/>
<path fill-rule="evenodd" clip-rule="evenodd" d="M812.742 85.4664C812.356 85.4664 812.026 85.2441 811.988 84.9475C811.807 83.5136 813.1 82.6299 814.471 82.4979C815.151 82.4325 815.82 82.5497 816.357 82.8283C816.96 83.1421 817.347 83.6265 817.474 84.2292C817.54 84.5419 817.258 84.8359 816.844 84.8858C816.431 84.9355 816.042 84.7225 815.976 84.4098C815.799 83.5695 814.851 83.6173 814.662 83.6356C813.764 83.7222 813.43 84.3021 813.498 84.8386C813.538 85.1536 813.232 85.4336 812.815 85.4639C812.791 85.4655 812.766 85.4665 812.742 85.4665V85.4664Z" fill="#A5B9C4"/>
<path fill-rule="evenodd" clip-rule="evenodd" d="M856.215 90.7462C855.828 90.7462 855.497 90.5232 855.461 90.226C855.283 88.7901 856.581 87.907 857.954 87.7772C858.633 87.7124 859.302 87.8309 859.836 88.1099C860.438 88.4238 860.821 88.9081 860.947 89.5103C861.012 89.8231 860.729 90.1165 860.315 90.1657C859.902 90.2146 859.513 90.0014 859.448 89.6883C859.313 89.0398 858.685 88.8636 858.142 88.9148C857.493 88.9766 856.879 89.3727 856.971 90.1193C857.01 90.4348 856.703 90.7142 856.286 90.7437C856.262 90.7453 856.239 90.7464 856.215 90.7464V90.7462Z" fill="#A5B9C4"/>
<path fill-rule="evenodd" clip-rule="evenodd" d="M863.889 71.1931C863.636 71.1931 863.389 71.0974 863.245 70.923C862.557 70.0887 862.341 69.197 862.62 68.3444C862.868 67.586 863.49 66.9235 864.372 66.4787C865.885 65.7151 868.214 65.6357 869.75 67.2651C869.993 67.5229 869.914 67.8811 869.573 68.0651C869.232 68.2487 868.759 68.1888 868.515 67.931C867.495 66.8486 866.098 66.986 865.213 67.4326C863.729 68.1813 863.82 69.4524 864.532 70.3163C864.754 70.585 864.645 70.9389 864.29 71.1062C864.165 71.1651 864.027 71.1931 863.889 71.1931V71.1931Z" fill="#A5B9C4"/>
<path fill-rule="evenodd" clip-rule="evenodd" d="M886.984 84.9581C886.62 84.9581 886.298 84.759 886.237 84.4782C886.051 83.6296 884.986 83.1163 884.013 82.9842C882.815 82.8215 881.761 83.1744 881.191 83.9278C880.983 84.2026 880.52 84.2983 880.156 84.141C879.792 83.9837 879.666 83.6336 879.874 83.3587C880.763 82.1829 882.451 81.6069 884.281 81.8553C886.081 82.0997 887.468 83.0786 887.733 84.291C887.802 84.6033 887.522 84.8985 887.109 84.9501C887.067 84.9555 887.025 84.9581 886.984 84.9581V84.9581Z" fill="#A5B9C4"/>
<path fill-rule="evenodd" clip-rule="evenodd" d="M875.509 83.509C875.442 83.509 875.373 83.5022 875.306 83.4882C874.902 83.4034 874.665 83.0874 874.777 82.7821C875.09 81.9309 876.298 81.2912 877.857 81.1534C879.643 80.9951 881.238 81.5643 882.02 82.6386C882.223 82.916 882.089 83.2646 881.722 83.4175C881.355 83.5701 880.894 83.4692 880.692 83.1919C880.51 82.9418 879.78 82.1376 878.033 82.2924C877.148 82.3709 876.376 82.7132 876.239 83.0885C876.146 83.3424 875.841 83.509 875.509 83.509Z" fill="#A5B9C4"/>
<path fill-rule="evenodd" clip-rule="evenodd" d="M1017.63 104.422C1017.27 104.422 1016.94 104.223 1016.88 103.942C1016.7 103.093 1015.63 102.58 1014.66 102.448C1013.46 102.286 1012.41 102.638 1011.84 103.391C1011.63 103.666 1011.17 103.762 1010.8 103.605C1010.44 103.447 1010.31 103.097 1010.52 102.822C1011.41 101.646 1013.1 101.071 1014.93 101.319C1016.73 101.563 1018.11 102.542 1018.38 103.755C1018.45 104.067 1018.17 104.362 1017.76 104.414C1017.71 104.419 1017.67 104.422 1017.63 104.422V104.422Z" fill="#A5B9C4"/>
<path fill-rule="evenodd" clip-rule="evenodd" d="M1006.16 102.973C1006.09 102.973 1006.02 102.966 1005.95 102.952C1005.55 102.867 1005.31 102.551 1005.42 102.246C1005.74 101.394 1006.94 100.755 1008.5 100.617C1010.29 100.459 1011.88 101.028 1012.67 102.102C1012.87 102.38 1012.74 102.728 1012.37 102.881C1012 103.034 1011.54 102.933 1011.34 102.656C1011.16 102.405 1010.43 101.601 1008.68 101.756C1007.79 101.835 1007.02 102.177 1006.89 102.552C1006.79 102.806 1006.49 102.973 1006.16 102.973V102.973Z" fill="#A5B9C4"/>
<path fill-rule="evenodd" clip-rule="evenodd" d="M1031.67 98.8811C1031.48 98.8811 1031.29 98.8555 1031.11 98.8013C1030.33 98.569 1029.95 97.9033 1030.26 97.3139C1032.69 92.6464 1032.77 87.9912 1030.5 83.8518C1028.48 80.1501 1024.6 76.9542 1019.59 74.8521C1014.46 72.6966 1008.59 71.859 1003.08 72.4935C997.03 73.1906 991.817 75.6114 988.008 79.4939C987.508 80.0025 986.559 80.109 985.886 79.7317C985.213 79.3544 985.072 78.6359 985.571 78.1272C989.867 73.7483 995.765 71.0161 1002.63 70.2256C1008.8 69.5152 1015.34 70.446 1021.07 72.8466C1026.67 75.199 1031.02 78.7956 1033.31 82.974C1035.88 87.6735 1035.8 92.9228 1033.08 98.1542C1032.84 98.6056 1032.27 98.8811 1031.67 98.8811Z" fill="#A5B9C4"/>
<path fill-rule="evenodd" clip-rule="evenodd" d="M1042.09 109.179C1041.38 109.179 1040.75 108.804 1040.61 108.26C1039.63 104.615 1037.17 101.924 1033.31 100.263C1030.06 98.8677 1026.53 98.4813 1024.14 98.4028C1023.3 98.3754 1022.66 97.8403 1022.69 97.2075C1022.73 96.5747 1023.44 96.0836 1024.27 96.1113C1027 96.2004 1031.04 96.6475 1034.81 98.2698C1036.94 99.1865 1038.74 100.38 1040.16 101.817C1041.81 103.486 1042.96 105.5 1043.58 107.804C1043.74 108.425 1043.21 109.03 1042.39 109.156C1042.29 109.172 1042.19 109.179 1042.09 109.179V109.179Z" fill="#A5B9C4"/>
<path fill-rule="evenodd" clip-rule="evenodd" d="M395.149 182.299H316.055C315.551 182.299 315.143 181.964 315.143 181.55C315.143 181.136 315.551 180.801 316.055 180.801H395.149C395.653 180.801 396.061 181.136 396.061 181.55C396.061 181.964 395.653 182.299 395.149 182.299Z" fill="#A5B9C4"/>
<path fill-rule="evenodd" clip-rule="evenodd" d="M579.022 222.128H553.268C552.764 222.128 552.356 221.792 552.356 221.379C552.356 220.965 552.764 220.63 553.268 220.63H579.022C579.526 220.63 579.935 220.965 579.935 221.379C579.935 221.792 579.526 222.128 579.022 222.128V222.128Z" fill="#A5B9C4"/>
<path fill-rule="evenodd" clip-rule="evenodd" d="M700.149 193.662H674.395C673.89 193.662 673.482 193.327 673.482 192.913C673.482 192.499 673.89 192.164 674.395 192.164H700.149C700.653 192.164 701.061 192.499 701.061 192.913C701.061 193.327 700.653 193.662 700.149 193.662Z" fill="#A5B9C4"/>
<path fill-rule="evenodd" clip-rule="evenodd" d="M657.33 149.96H653.117C652.613 149.96 652.204 149.624 652.204 149.211C652.204 148.797 652.613 148.462 653.117 148.462H657.33C657.833 148.462 658.242 148.797 658.242 149.211C658.242 149.624 657.833 149.96 657.33 149.96Z" fill="#A5B9C4"/>
<path fill-rule="evenodd" clip-rule="evenodd" d="M621.746 177.764H617.532C617.029 177.764 616.62 177.429 616.62 177.015C616.62 176.602 617.029 176.266 617.532 176.266H621.746C622.25 176.266 622.658 176.602 622.658 177.015C622.658 177.429 622.25 177.764 621.746 177.764Z" fill="#A5B9C4"/>
<path fill-rule="evenodd" clip-rule="evenodd" d="M732.596 171.585H728.384C727.879 171.585 727.471 171.25 727.471 170.836C727.471 170.423 727.879 170.087 728.384 170.087H732.596C733.1 170.087 733.508 170.423 733.508 170.836C733.508 171.25 733.1 171.585 732.596 171.585Z" fill="#A5B9C4"/>
<path fill-rule="evenodd" clip-rule="evenodd" d="M599.221 131.432H595.008C594.504 131.432 594.096 131.097 594.096 130.683C594.096 130.269 594.504 129.934 595.008 129.934H599.221C599.725 129.934 600.133 130.269 600.133 130.683C600.133 131.097 599.725 131.432 599.221 131.432Z" fill="#A5B9C4"/>
<path fill-rule="evenodd" clip-rule="evenodd" d="M738.427 135.817H734.214C733.71 135.817 733.302 135.482 733.302 135.068C733.302 134.655 733.71 134.319 734.214 134.319H738.427C738.931 134.319 739.339 134.655 739.339 135.068C739.339 135.482 738.931 135.817 738.427 135.817Z" fill="#A5B9C4"/>
<path fill-rule="evenodd" clip-rule="evenodd" d="M604.147 208.664H599.934C599.43 208.664 599.021 208.329 599.021 207.915C599.021 207.502 599.43 207.167 599.934 207.167H604.147C604.65 207.167 605.059 207.502 605.059 207.915C605.059 208.329 604.65 208.664 604.147 208.664Z" fill="#A5B9C4"/>
<path fill-rule="evenodd" clip-rule="evenodd" d="M626.208 222.108H621.995C621.492 222.108 621.083 221.773 621.083 221.359C621.083 220.945 621.492 220.61 621.995 220.61H626.208C626.712 220.61 627.121 220.945 627.121 221.359C627.121 221.773 626.712 222.108 626.208 222.108Z" fill="#A5B9C4"/>
<path fill-rule="evenodd" clip-rule="evenodd" d="M557.493 178.911H553.28C552.777 178.911 552.368 178.576 552.368 178.162C552.368 177.749 552.777 177.413 553.28 177.413H557.493C557.997 177.413 558.406 177.749 558.406 178.162C558.406 178.576 557.997 178.911 557.493 178.911Z" fill="#A5B9C4"/>
<path fill-rule="evenodd" clip-rule="evenodd" d="M500.425 154.588H496.212C495.708 154.588 495.3 154.252 495.3 153.839C495.3 153.425 495.708 153.09 496.212 153.09H500.425C500.929 153.09 501.337 153.425 501.337 153.839C501.337 154.252 500.929 154.588 500.425 154.588Z" fill="#A5B9C4"/>
<path fill-rule="evenodd" clip-rule="evenodd" d="M435.594 172.089H431.382C430.878 172.089 430.469 171.753 430.469 171.339C430.469 170.926 430.878 170.59 431.382 170.59H435.594C436.098 170.59 436.507 170.926 436.507 171.339C436.507 171.753 436.098 172.089 435.594 172.089V172.089Z" fill="#A5B9C4"/>
<path fill-rule="evenodd" clip-rule="evenodd" d="M412.228 196.154H408.015C407.512 196.154 407.103 195.819 407.103 195.405C407.103 194.992 407.512 194.656 408.015 194.656H412.228C412.732 194.656 413.141 194.992 413.141 195.405C413.141 195.819 412.732 196.154 412.228 196.154V196.154Z" fill="#A5B9C4"/>
<path fill-rule="evenodd" clip-rule="evenodd" d="M435.594 231.253H431.382C430.878 231.253 430.469 230.917 430.469 230.504C430.469 230.09 430.878 229.755 431.382 229.755H435.594C436.098 229.755 436.507 230.09 436.507 230.504C436.507 230.917 436.098 231.253 435.594 231.253V231.253Z" fill="#A5B9C4"/>
<path fill-rule="evenodd" clip-rule="evenodd" d="M325.699 159.854H321.487C320.983 159.854 320.574 159.519 320.574 159.105C320.574 158.691 320.983 158.356 321.487 158.356H325.699C326.204 158.356 326.612 158.691 326.612 159.105C326.612 159.519 326.204 159.854 325.699 159.854Z" fill="#A5B9C4"/>
<path fill-rule="evenodd" clip-rule="evenodd" d="M320.852 223.766H316.639C316.135 223.766 315.727 223.431 315.727 223.017C315.727 222.603 316.135 222.268 316.639 222.268H320.852C321.356 222.268 321.764 222.603 321.764 223.017C321.764 223.431 321.356 223.766 320.852 223.766Z" fill="#A5B9C4"/>
<path fill-rule="evenodd" clip-rule="evenodd" d="M548.25 217.032H531.449C530.945 217.032 530.537 216.696 530.537 216.283C530.537 215.869 530.945 215.534 531.449 215.534H548.25C548.754 215.534 549.162 215.869 549.162 216.283C549.162 216.696 548.754 217.032 548.25 217.032Z" fill="#A5B9C4"/>
<path fill-rule="evenodd" clip-rule="evenodd" d="M690.896 135.726H674.095C673.591 135.726 673.183 135.391 673.183 134.977C673.183 134.563 673.591 134.228 674.095 134.228H690.896C691.4 134.228 691.809 134.563 691.809 134.977C691.809 135.391 691.4 135.726 690.896 135.726Z" fill="#A5B9C4"/>
<path fill-rule="evenodd" clip-rule="evenodd" d="M508.365 177.118H491.564C491.061 177.118 490.652 176.782 490.652 176.369C490.652 175.955 491.061 175.62 491.564 175.62H508.365C508.869 175.62 509.278 175.955 509.278 176.369C509.278 176.782 508.869 177.118 508.365 177.118Z" fill="#A5B9C4"/>
<path fill-rule="evenodd" clip-rule="evenodd" d="M360.093 204.548H343.292C342.788 204.548 342.379 204.213 342.379 203.799C342.379 203.386 342.788 203.05 343.292 203.05H360.093C360.597 203.05 361.005 203.386 361.005 203.799C361.005 204.213 360.597 204.548 360.093 204.548V204.548Z" fill="#A5B9C4"/>
<path fill-rule="evenodd" clip-rule="evenodd" d="M703.898 165.892H702.279C701.776 165.892 701.367 165.557 701.367 165.143C701.367 164.73 701.776 164.394 702.279 164.394H703.898C704.402 164.394 704.811 164.73 704.811 165.143C704.811 165.557 704.402 165.892 703.898 165.892V165.892Z" fill="#A5B9C4"/>
<path fill-rule="evenodd" clip-rule="evenodd" d="M604.147 194.976H561.884C561.38 194.976 560.971 194.64 560.971 194.227C560.971 193.813 561.38 193.478 561.884 193.478H604.147C604.651 193.478 605.059 193.813 605.059 194.227C605.059 194.64 604.651 194.976 604.147 194.976V194.976Z" fill="#A5B9C4"/>
<path fill-rule="evenodd" clip-rule="evenodd" d="M497.267 227.195H455.011C454.508 227.195 454.099 226.859 454.099 226.446C454.099 226.032 454.508 225.697 455.011 225.697H497.267C497.771 225.697 498.179 226.032 498.179 226.446C498.179 226.859 497.771 227.195 497.267 227.195Z" fill="#A5B9C4"/>
<path fill-rule="evenodd" clip-rule="evenodd" d="M415.036 219.712H372.774C372.27 219.712 371.862 219.376 371.862 218.962C371.862 218.549 372.27 218.214 372.774 218.214H415.036C415.54 218.214 415.949 218.549 415.949 218.962C415.949 219.376 415.54 219.712 415.036 219.712V219.712Z" fill="#A5B9C4"/>
<path fill-rule="evenodd" clip-rule="evenodd" d="M404.957 165.436H362.695C362.191 165.436 361.782 165.1 361.782 164.687C361.782 164.273 362.191 163.938 362.695 163.938H404.957C405.461 163.938 405.87 164.273 405.87 164.687C405.87 165.1 405.461 165.436 404.957 165.436Z" fill="#A5B9C4"/>
<path fill-rule="evenodd" clip-rule="evenodd" d="M968.658 196.213H914.826C914.322 196.213 913.914 195.877 913.914 195.464C913.914 195.05 914.322 194.715 914.826 194.715H968.658C969.162 194.715 969.57 195.05 969.57 195.464C969.57 195.877 969.162 196.213 968.658 196.213Z" fill="#A5B9C4"/>
<path fill-rule="evenodd" clip-rule="evenodd" d="M493.325 208.199H425.522C425.184 208.199 424.873 208.046 424.716 207.8C424.558 207.555 424.578 207.258 424.768 207.028L430.834 199.726C431.004 199.521 431.287 199.399 431.588 199.399H502.756C503.129 199.399 503.465 199.586 503.604 199.872C503.742 200.157 503.654 200.482 503.382 200.693L493.951 207.995C493.782 208.126 493.558 208.199 493.325 208.199ZM427.249 206.701H492.962L500.459 200.897H432.07L427.249 206.701Z" fill="#A5B9C4"/>
<path fill-rule="evenodd" clip-rule="evenodd" d="M476.139 200.897C475.635 200.897 475.227 200.561 475.227 200.148V152.59C475.227 152.176 475.635 151.841 476.139 151.841C476.644 151.841 477.052 152.176 477.052 152.59V200.148C477.052 200.561 476.644 200.897 476.139 200.897Z" fill="#A5B9C4"/>
<path fill-rule="evenodd" clip-rule="evenodd" d="M448.618 200.897C448.114 200.897 447.705 200.561 447.705 200.148V180.301C447.705 179.887 448.114 179.552 448.618 179.552C449.121 179.552 449.53 179.887 449.53 180.301V200.148C449.53 200.561 449.121 200.897 448.618 200.897Z" fill="#A5B9C4"/>
<path fill-rule="evenodd" clip-rule="evenodd" d="M454.091 196.154C453.62 196.155 453.221 195.857 453.182 195.466C452.409 187.677 454.14 179.142 458.056 171.432C460.048 167.51 462.522 163.976 465.408 160.928C468.471 157.693 471.92 155.093 475.66 153.201C475.942 153.059 476.296 153.052 476.585 153.185C476.873 153.317 477.052 153.567 477.052 153.839V195.405C477.052 195.819 476.644 196.154 476.139 196.154C475.965 196.154 475.802 196.114 475.664 196.045C474.063 195.785 462.429 195.683 454.155 196.153C454.133 196.154 454.112 196.154 454.091 196.154V196.154ZM475.227 195.407C475.227 195.408 475.227 195.408 475.227 195.408C475.227 195.408 475.227 195.408 475.227 195.407ZM475.227 155.222C472.204 156.938 469.391 159.162 466.849 161.847C464.062 164.79 461.67 168.209 459.74 172.008C456.057 179.26 454.361 187.254 454.936 194.61C458.71 194.42 463.578 194.316 468.183 194.328C470.379 194.334 472.302 194.365 473.745 194.42C474.368 194.443 474.85 194.468 475.227 194.496V155.222Z" fill="#A5B9C4"/>
<path fill-rule="evenodd" clip-rule="evenodd" d="M461.591 176.752C461.49 176.752 461.389 176.739 461.289 176.71C460.814 176.574 460.563 176.146 460.729 175.756C463.193 169.972 466.757 164.774 471.038 160.726C471.368 160.414 471.944 160.38 472.325 160.651C472.705 160.923 472.746 161.396 472.416 161.708C468.285 165.614 464.84 170.643 462.451 176.25C462.32 176.559 461.968 176.752 461.591 176.752V176.752Z" fill="#A5B9C4"/>
<path fill-rule="evenodd" clip-rule="evenodd" d="M459.952 181.228C459.877 181.228 459.8 181.221 459.724 181.205C459.237 181.102 458.942 180.694 459.067 180.293C459.299 179.551 459.559 178.785 459.861 177.949C460.004 177.553 460.512 177.326 460.995 177.444C461.478 177.562 461.753 177.979 461.61 178.375C461.315 179.193 461.061 179.942 460.835 180.665C460.729 181.004 460.358 181.228 459.952 181.228V181.228Z" fill="#A5B9C4"/>
<path fill-rule="evenodd" clip-rule="evenodd" d="M454.091 191.722C453.615 191.722 453.215 191.42 453.181 191.025C453.147 190.612 453.526 190.254 454.029 190.226C457.908 190.006 463.2 189.882 468.183 189.895C470.379 189.902 472.302 189.933 473.745 189.988C476.216 190.081 476.474 190.195 476.749 190.405C476.941 190.553 477.052 190.76 477.052 190.973C477.052 191.387 476.643 191.722 476.139 191.722C475.965 191.722 475.802 191.682 475.664 191.612C474.063 191.353 462.429 191.251 454.155 191.72C454.133 191.722 454.112 191.722 454.091 191.722V191.722ZM475.227 190.977C475.227 190.977 475.227 190.977 475.227 190.977C475.227 190.977 475.227 190.977 475.227 190.977ZM475.227 190.977V190.977V190.977ZM475.227 190.975C475.227 190.975 475.227 190.976 475.227 190.976C475.227 190.975 475.227 190.975 475.227 190.975ZM475.227 190.973C475.227 190.974 475.227 190.974 475.227 190.974C475.227 190.974 475.227 190.973 475.227 190.973Z" fill="#A5B9C4"/>
<path fill-rule="evenodd" clip-rule="evenodd" d="M438.888 197.901C438.711 197.901 438.535 197.859 438.384 197.777C438.14 197.644 437.988 197.424 437.976 197.184C437.888 195.502 438.288 192.446 439.705 189.367C441.478 185.512 444.409 182.582 448.18 180.892C448.463 180.766 448.806 180.771 449.083 180.906C449.36 181.041 449.53 181.286 449.53 181.55V197.152C449.53 197.566 449.121 197.901 448.617 197.901C448.204 197.901 447.855 197.676 447.743 197.366C447.422 197.251 446.346 197.058 444.038 197.179C442.168 197.276 440.182 197.553 439.208 197.853C439.104 197.886 438.996 197.901 438.888 197.901ZM447.705 182.893C441.598 186.382 439.979 192.98 439.806 196.162C441.983 195.753 445.603 195.433 447.705 195.805V182.893Z" fill="#A5B9C4"/>
<path fill-rule="evenodd" clip-rule="evenodd" d="M448.617 195.736C448.204 195.736 447.855 195.511 447.743 195.202C447.441 195.091 446.482 194.915 444.405 194.997C442.674 195.065 440.793 195.291 439.613 195.574C439.13 195.69 438.623 195.462 438.482 195.066C438.341 194.668 438.618 194.252 439.102 194.136C441.185 193.637 447.206 192.986 448.923 194.042C449.313 194.283 449.529 194.619 449.529 194.987C449.529 195.401 449.121 195.736 448.617 195.736V195.736Z" fill="#A5B9C4"/>
<path fill-rule="evenodd" clip-rule="evenodd" d="M494.238 196.154C494.204 196.154 494.17 196.153 494.136 196.15C485.596 195.37 478.73 195.805 476.292 196.144C476.027 196.181 475.756 196.12 475.551 195.978C475.346 195.836 475.227 195.626 475.227 195.406V154.336C475.227 153.986 475.522 153.683 475.938 153.606C476.354 153.529 476.78 153.699 476.963 154.015C478.428 156.543 479.186 160.278 480.064 164.604C480.998 169.214 482.059 174.439 484.226 179.728C486.726 185.829 490.219 190.79 494.903 194.894C495.164 195.123 495.224 195.461 495.053 195.741C494.897 195.996 494.58 196.154 494.238 196.154ZM477.052 159.336V194.545C479.225 194.328 484.572 193.95 492.004 194.472C487.918 190.505 484.796 185.818 482.496 180.205C480.282 174.803 479.21 169.515 478.264 164.85C477.859 162.858 477.481 160.995 477.052 159.336Z" fill="#A5B9C4"/>
<path fill-rule="evenodd" clip-rule="evenodd" d="M476.138 191.722C475.702 191.722 475.316 191.464 475.24 191.099C475.156 190.691 475.49 190.304 475.986 190.235C476.199 190.205 481.293 189.511 489.507 189.895C490.01 189.919 490.394 190.272 490.365 190.685C490.337 191.098 489.906 191.413 489.403 191.391C481.414 191.017 476.342 191.705 476.292 191.712C476.24 191.719 476.189 191.722 476.138 191.722V191.722Z" fill="#A5B9C4"/>
<path fill-rule="evenodd" clip-rule="evenodd" d="M669.875 212.338H625.923C625.593 212.338 625.288 212.191 625.127 211.954L621.477 206.588C621.319 206.356 621.323 206.073 621.487 205.844C621.65 205.615 621.95 205.474 622.273 205.474H665.157C665.449 205.474 665.725 205.59 665.897 205.785L670.615 211.15C670.816 211.378 670.844 211.679 670.688 211.93C670.532 212.18 670.218 212.338 669.875 212.338ZM626.459 210.84H668.091L664.69 206.972H623.828L626.459 210.84Z" fill="#A5B9C4"/>
<path fill-rule="evenodd" clip-rule="evenodd" d="M646.074 206.972C645.571 206.972 645.162 206.637 645.162 206.223V175.891C645.162 175.477 645.571 175.142 646.074 175.142C646.579 175.142 646.987 175.477 646.987 175.891V206.223C646.987 206.637 646.579 206.972 646.074 206.972Z" fill="#A5B9C4"/>
<path fill-rule="evenodd" clip-rule="evenodd" d="M657.33 202.853C657.269 202.853 657.207 202.848 657.146 202.838C651.493 201.884 646.329 202.825 646.277 202.834C646.007 202.885 645.723 202.831 645.506 202.689C645.289 202.547 645.162 202.332 645.162 202.104V177.388C645.162 177.002 645.521 176.678 645.991 176.643C646.46 176.607 646.886 176.871 646.971 177.252C649.407 188.003 654.419 199.122 657.916 201.53C658.236 201.75 658.333 202.121 658.151 202.43C657.996 202.692 657.674 202.853 657.33 202.853V202.853ZM646.987 184.206V201.205C648.536 201.005 651.535 200.739 655.012 201.05C653.752 199.574 652.168 197.12 650.33 193.048C649.095 190.309 647.958 187.295 646.987 184.206Z" fill="#A5B9C4"/>
<path fill-rule="evenodd" clip-rule="evenodd" d="M628.888 202.853C628.655 202.853 628.427 202.779 628.255 202.643C628.028 202.464 627.931 202.201 627.996 201.948C628.492 200.037 630.237 195.02 633.293 189.707C636.994 183.274 641.138 178.913 645.61 176.744C645.892 176.607 646.242 176.605 646.527 176.738C646.811 176.871 646.987 177.119 646.987 177.388V202.104C646.987 202.372 646.812 202.62 646.529 202.753C646.245 202.887 645.897 202.886 645.614 202.75C642.496 201.256 633.876 201.849 629.111 202.83C629.037 202.846 628.962 202.853 628.888 202.853V202.853ZM645.162 178.786C636.923 183.804 631.661 196.321 630.12 201.112C634.117 200.46 641.092 199.853 645.162 200.961V178.786Z" fill="#A5B9C4"/>
<path fill-rule="evenodd" clip-rule="evenodd" d="M636.544 193.725C636.423 193.725 636.3 193.705 636.182 193.664C635.72 193.5 635.506 193.059 635.706 192.679C637.707 188.874 639.912 185.643 642.258 183.077C642.561 182.746 643.133 182.679 643.536 182.927C643.939 183.176 644.02 183.645 643.718 183.976C641.458 186.448 639.326 189.576 637.382 193.273C637.232 193.556 636.896 193.725 636.544 193.725V193.725Z" fill="#A5B9C4"/>
<path fill-rule="evenodd" clip-rule="evenodd" d="M634.305 198.471C634.208 198.471 634.108 198.458 634.009 198.43C633.533 198.296 633.279 197.87 633.443 197.479C633.729 196.794 634.035 196.103 634.352 195.425C634.533 195.039 635.061 194.846 635.531 194.995C636.002 195.143 636.236 195.577 636.055 195.963C635.745 196.623 635.448 197.296 635.169 197.964C635.039 198.275 634.685 198.471 634.305 198.471V198.471Z" fill="#A5B9C4"/>
<path fill-rule="evenodd" clip-rule="evenodd" d="M499.969 203.281H429.607C429.103 203.281 428.695 202.946 428.695 202.532C428.695 202.119 429.103 201.783 429.607 201.783H499.969C500.473 201.783 500.881 202.119 500.881 202.532C500.881 202.946 500.473 203.281 499.969 203.281V203.281Z" fill="#A5B9C4"/>
<path fill-rule="evenodd" clip-rule="evenodd" d="M667.516 209.652H624.098C623.594 209.652 623.186 209.317 623.186 208.903C623.186 208.489 623.594 208.154 624.098 208.154H667.516C668.02 208.154 668.429 208.489 668.429 208.903C668.429 209.317 668.02 209.652 667.516 209.652V209.652Z" fill="#A5B9C4"/>
<path fill-rule="evenodd" clip-rule="evenodd" d="M910.729 168.566H903.765C903.261 168.566 902.852 168.231 902.852 167.817C902.852 167.404 903.261 167.068 903.765 167.068H910.729C911.233 167.068 911.641 167.404 911.641 167.817C911.641 168.231 911.233 168.566 910.729 168.566Z" fill="#A5B9C4"/>
<path fill-rule="evenodd" clip-rule="evenodd" d="M997.557 168.566H990.592C990.089 168.566 989.68 168.231 989.68 167.817C989.68 167.404 990.089 167.068 990.592 167.068H997.557C998.06 167.068 998.469 167.404 998.469 167.817C998.469 168.231 998.06 168.566 997.557 168.566Z" fill="#A5B9C4"/>
<path fill-rule="evenodd" clip-rule="evenodd" d="M993.33 179.028H978.218C977.714 179.028 977.306 178.693 977.306 178.279C977.306 177.866 977.714 177.53 978.218 177.53H993.33C993.834 177.53 994.242 177.866 994.242 178.279C994.242 178.693 993.834 179.028 993.33 179.028Z" fill="#A5B9C4"/>
<path fill-rule="evenodd" clip-rule="evenodd" d="M1086.28 165.436H1071.17C1070.67 165.436 1070.26 165.1 1070.26 164.687C1070.26 164.273 1070.67 163.938 1071.17 163.938H1086.28C1086.78 163.938 1087.19 164.273 1087.19 164.687C1087.19 165.1 1086.78 165.436 1086.28 165.436Z" fill="#A5B9C4"/>
<path fill-rule="evenodd" clip-rule="evenodd" d="M241.244 192H237.756C237.338 192 237 191.328 237 190.5C237 189.672 237.338 189 237.756 189H241.244C241.662 189 242 189.672 242 190.5C242 191.328 241.662 192 241.244 192Z" fill="#A5B9C4"/>
<path fill-rule="evenodd" clip-rule="evenodd" d="M858.093 161H853.907C853.406 161 853 160.328 853 159.5C853 158.672 853.406 158 853.907 158H858.093C858.594 158 859 158.672 859 159.5C859 160.328 858.594 161 858.093 161Z" fill="#A5B9C4"/>
<path fill-rule="evenodd" clip-rule="evenodd" d="M791.396 177H788.605C788.271 177 788 176.776 788 176.5C788 176.224 788.271 176 788.605 176H791.396C791.729 176 792 176.224 792 176.5C792 176.776 791.729 177 791.396 177V177Z" fill="#A5B9C4"/>
<path fill-rule="evenodd" clip-rule="evenodd" d="M866.069 182H848.931C848.417 182 848 181.776 848 181.5C848 181.224 848.417 181 848.931 181H866.069C866.583 181 867 181.224 867 181.5C867 181.776 866.583 182 866.069 182Z" fill="#A5B9C4"/>
<path fill-rule="evenodd" clip-rule="evenodd" d="M849.795 214H782.9C782.566 214 782.26 213.843 782.105 213.592C781.949 213.341 781.968 213.037 782.156 212.802L788.141 205.335C788.309 205.125 788.587 205 788.885 205H859.1C859.468 205 859.8 205.192 859.936 205.483C860.073 205.775 859.986 206.108 859.718 206.323L850.413 213.791C850.246 213.925 850.025 214 849.795 214ZM784.603 212.468H849.438L856.833 206.532H789.361L784.603 212.468Z" fill="#A5B9C4"/>
<path fill-rule="evenodd" clip-rule="evenodd" d="M833.5 205C833.224 205 833 204.672 833 204.267V157.733C833 157.328 833.224 157 833.5 157C833.776 157 834 157.328 834 157.733V204.267C834 204.672 833.776 205 833.5 205Z" fill="#A5B9C4"/>
<path fill-rule="evenodd" clip-rule="evenodd" d="M805 205C804.448 205 804 204.67 804 204.263V184.737C804 184.33 804.448 184 805 184C805.552 184 806 184.33 806 184.737V204.263C806 204.67 805.552 205 805 205Z" fill="#A5B9C4"/>
<path fill-rule="evenodd" clip-rule="evenodd" d="M812.041 201C811.591 201 811.21 200.703 811.173 200.313C810.432 192.535 812.088 184.013 815.834 176.315C817.739 172.399 820.104 168.87 822.865 165.826C825.794 162.596 829.093 160 832.669 158.111C832.939 157.969 833.277 157.963 833.553 158.095C833.829 158.227 834 158.477 834 158.748V200.252C834 200.665 833.609 201 833.127 201C832.96 201 832.805 200.96 832.672 200.89C831.141 200.631 820.015 200.53 812.102 200.998C812.082 201 812.062 201 812.041 201V201ZM832.254 200.254C832.254 200.254 832.254 200.254 832.254 200.254C832.254 200.254 832.254 200.254 832.254 200.254ZM832.254 160.129C829.364 161.843 826.674 164.063 824.243 166.744C821.577 169.683 819.29 173.097 817.444 176.89C813.921 184.13 812.3 192.113 812.85 199.458C816.459 199.268 821.115 199.164 825.518 199.176C827.618 199.182 829.457 199.214 830.838 199.268C831.433 199.292 831.894 199.316 832.254 199.344V160.129Z" fill="#A5B9C4"/>
<path fill-rule="evenodd" clip-rule="evenodd" d="M819.916 182C819.815 182 819.714 181.985 819.613 181.956C819.136 181.813 818.885 181.367 819.051 180.96C821.523 174.921 825.099 169.496 829.394 165.269C829.725 164.943 830.303 164.908 830.685 165.191C831.066 165.474 831.107 165.968 830.776 166.294C826.632 170.372 823.176 175.622 820.779 181.476C820.648 181.798 820.294 182 819.916 182V182Z" fill="#A5B9C4"/>
<path fill-rule="evenodd" clip-rule="evenodd" d="M816.4 186C816.285 186 816.167 185.992 816.051 185.975C815.304 185.867 814.852 185.44 815.044 185.019C815.399 184.242 815.798 183.438 816.26 182.562C816.479 182.146 817.258 181.909 817.999 182.033C818.739 182.156 819.161 182.593 818.942 183.009C818.489 183.866 818.1 184.651 817.753 185.41C817.591 185.764 817.023 186 816.4 186V186Z" fill="#A5B9C4"/>
<path fill-rule="evenodd" clip-rule="evenodd" d="M811.878 196C811.42 196 811.034 195.835 811.002 195.619C810.969 195.393 811.334 195.197 811.819 195.181C815.557 195.061 820.654 194.993 825.455 195.001C827.571 195.004 829.423 195.021 830.814 195.051C833.194 195.102 833.443 195.165 833.708 195.28C833.893 195.36 834 195.473 834 195.59C834 195.817 833.606 196 833.121 196C832.953 196 832.796 195.978 832.662 195.94C831.12 195.798 819.912 195.742 811.94 195.999C811.919 196 811.899 196 811.878 196V196ZM832.242 195.593C832.242 195.593 832.242 195.593 832.242 195.593C832.242 195.593 832.242 195.593 832.242 195.593ZM832.242 195.592V195.592V195.592ZM832.242 195.591C832.242 195.591 832.242 195.592 832.242 195.592C832.242 195.591 832.242 195.591 832.242 195.591ZM832.242 195.59C832.242 195.591 832.242 195.591 832.242 195.591C832.242 195.591 832.242 195.59 832.242 195.59Z" fill="#A5B9C4"/>
<path fill-rule="evenodd" clip-rule="evenodd" d="M795.878 202C795.71 202 795.543 201.961 795.399 201.884C795.167 201.76 795.023 201.554 795.011 201.329C794.927 199.756 795.308 196.896 796.655 194.015C798.342 190.408 801.13 187.666 804.717 186.086C804.986 185.967 805.312 185.972 805.576 186.098C805.839 186.224 806 186.453 806 186.701V201.299C806 201.686 805.611 202 805.132 202C804.739 202 804.407 201.789 804.301 201.499C803.995 201.392 802.972 201.211 800.777 201.324C798.998 201.415 797.11 201.674 796.183 201.955C796.084 201.985 795.981 202 795.878 202ZM804.265 187.957C798.456 191.222 796.917 197.396 796.751 200.373C798.822 199.99 802.266 199.691 804.265 200.039V187.957Z" fill="#A5B9C4"/>
<path fill-rule="evenodd" clip-rule="evenodd" d="M805.095 201C804.685 201 804.338 200.801 804.227 200.527C803.927 200.429 802.976 200.274 800.915 200.346C799.196 200.406 797.33 200.607 796.159 200.857C795.679 200.96 795.177 200.758 795.037 200.407C794.896 200.055 795.172 199.688 795.652 199.585C797.719 199.143 803.694 198.567 805.398 199.502C805.786 199.715 806 200.012 806 200.338C806 200.703 805.595 201 805.095 201V201Z" fill="#A5B9C4"/>
<path fill-rule="evenodd" clip-rule="evenodd" d="M852.084 201C852.051 201 852.017 200.998 851.983 200.995C843.409 200.207 836.517 200.647 834.07 200.989C833.804 201.027 833.531 200.965 833.325 200.821C833.119 200.678 833 200.466 833 200.243V158.757C833 158.403 833.297 158.096 833.714 158.019C834.132 157.941 834.559 158.112 834.743 158.432C836.214 160.985 836.974 164.759 837.855 169.129C838.794 173.786 839.858 179.063 842.034 184.406C844.544 190.57 848.05 195.581 852.752 199.726C853.015 199.958 853.075 200.299 852.903 200.582C852.747 200.84 852.428 201 852.084 201ZM834.832 163.807V199.374C837.013 199.155 842.381 198.773 849.842 199.3C845.74 195.293 842.607 190.558 840.298 184.888C838.075 179.431 836.998 174.09 836.049 169.377C835.643 167.365 835.263 165.483 834.832 163.807Z" fill="#A5B9C4"/>
<path fill-rule="evenodd" clip-rule="evenodd" d="M833.843 196C833.439 196 833.082 195.867 833.012 195.679C832.934 195.469 833.243 195.27 833.702 195.234C833.899 195.219 838.61 194.862 846.204 195.059C846.67 195.071 847.025 195.254 846.999 195.466C846.972 195.679 846.574 195.841 846.108 195.829C838.722 195.637 834.032 195.991 833.985 195.995C833.937 195.998 833.89 196 833.843 196V196Z" fill="#A5B9C4"/>
<path fill-rule="evenodd" clip-rule="evenodd" d="M287.077 182H242.615C242.28 182 241.972 181.85 241.809 181.609L238.117 176.136C237.958 175.9 237.961 175.611 238.127 175.377C238.292 175.144 238.596 175 238.923 175H282.304C282.6 175 282.878 175.118 283.052 175.317L287.825 180.789C288.028 181.022 288.057 181.329 287.899 181.584C287.741 181.84 287.424 182 287.077 182ZM243.157 180.472H285.272L281.831 176.528H240.495L243.157 180.472Z" fill="#A5B9C4"/>
<path fill-rule="evenodd" clip-rule="evenodd" d="M261.5 176C261.224 176 261 175.663 261 175.247V144.753C261 144.337 261.224 144 261.5 144C261.776 144 262 144.337 262 144.753V175.247C262 175.663 261.776 176 261.5 176Z" fill="#A5B9C4"/>
<path fill-rule="evenodd" clip-rule="evenodd" d="M272.163 173C272.107 173 272.051 172.995 271.994 172.984C266.808 172.002 262.071 172.971 262.023 172.981C261.775 173.033 261.515 172.978 261.315 172.831C261.116 172.685 261 172.463 261 172.228V146.771C261 146.373 261.33 146.04 261.761 146.003C262.191 145.966 262.581 146.239 262.66 146.631C264.894 157.705 269.493 169.157 272.701 171.637C272.995 171.864 273.083 172.246 272.917 172.564C272.775 172.834 272.479 173 272.163 173V173ZM262.674 153.794V171.302C264.095 171.097 266.847 170.823 270.037 171.143C268.88 169.622 267.427 167.095 265.742 162.9C264.608 160.079 263.565 156.975 262.674 153.794Z" fill="#A5B9C4"/>
<path fill-rule="evenodd" clip-rule="evenodd" d="M243.912 173C243.678 173 243.451 172.924 243.278 172.784C243.052 172.599 242.955 172.328 243.02 172.068C243.516 170.1 245.26 164.932 248.314 159.46C252.013 152.834 256.155 148.342 260.624 146.107C260.906 145.966 261.256 145.964 261.54 146.101C261.824 146.238 262 146.494 262 146.771V172.228C262 172.505 261.825 172.76 261.542 172.897C261.259 173.035 260.911 173.034 260.628 172.894C257.511 171.355 248.897 171.966 244.134 172.977C244.06 172.992 243.986 173 243.912 173V173ZM260.176 148.211C251.942 153.379 246.683 166.272 245.143 171.207C249.138 170.535 256.109 169.91 260.176 171.051V148.211Z" fill="#A5B9C4"/>
<path fill-rule="evenodd" clip-rule="evenodd" d="M251.103 163C250.957 163 250.809 162.984 250.666 162.95C250.107 162.815 249.849 162.452 250.09 162.14C252.511 159.012 255.177 156.356 258.014 154.246C258.38 153.974 259.072 153.919 259.559 154.123C260.046 154.327 260.145 154.713 259.779 154.985C257.046 157.017 254.468 159.589 252.117 162.628C251.936 162.861 251.53 163 251.103 163V163Z" fill="#A5B9C4"/>
<path fill-rule="evenodd" clip-rule="evenodd" d="M250.005 168C249.898 168 249.787 167.985 249.679 167.954C249.154 167.802 248.875 167.319 249.055 166.875C249.37 166.097 249.707 165.313 250.057 164.545C250.256 164.107 250.837 163.888 251.356 164.057C251.874 164.225 252.132 164.717 251.933 165.155C251.591 165.904 251.263 166.668 250.956 167.425C250.813 167.778 250.423 168 250.005 168V168Z" fill="#A5B9C4"/>
<path fill-rule="evenodd" clip-rule="evenodd" d="M857.102 208H787.897C787.402 208 787 207.776 787 207.5C787 207.224 787.402 207 787.897 207H857.102C857.598 207 858 207.224 858 207.5C858 207.776 857.598 208 857.102 208V208Z" fill="#A5B9C4"/>
<path fill-rule="evenodd" clip-rule="evenodd" d="M283.072 180H238.928C238.415 180 238 179.776 238 179.5C238 179.224 238.415 179 238.928 179H283.072C283.585 179 284 179.224 284 179.5C284 179.776 283.585 180 283.072 180V180Z" fill="#A5B9C4"/>
<path fill-rule="evenodd" clip-rule="evenodd" d="M1032.09 214H1027.91C1027.41 214 1027 213.552 1027 213C1027 212.448 1027.41 212 1027.91 212H1032.09C1032.59 212 1033 212.448 1033 213C1033 213.552 1032.59 214 1032.09 214Z" fill="#A5B9C4"/>
<path fill-rule="evenodd" clip-rule="evenodd" d="M1075.1 204H1031.52C1031.19 204 1030.89 203.829 1030.73 203.553L1027.11 197.299C1026.96 197.028 1026.96 196.698 1027.12 196.431C1027.29 196.164 1027.58 196 1027.9 196H1070.42C1070.71 196 1070.98 196.135 1071.15 196.362L1075.83 202.616C1076.03 202.882 1076.06 203.233 1075.9 203.524C1075.75 203.817 1075.44 204 1075.1 204ZM1032.05 202.254H1073.33L1069.95 197.746H1029.45L1032.05 202.254Z" fill="#A5B9C4"/>
<path fill-rule="evenodd" clip-rule="evenodd" d="M1052 199C1051.45 199 1051 198.663 1051 198.247V167.753C1051 167.337 1051.45 167 1052 167C1052.55 167 1053 167.337 1053 167.753V198.247C1053 198.663 1052.55 199 1052 199Z" fill="#A5B9C4"/>
<path fill-rule="evenodd" clip-rule="evenodd" d="M1063.09 195C1063.03 195 1062.97 194.995 1062.91 194.984C1057.29 194.002 1052.16 194.971 1052.11 194.981C1051.84 195.033 1051.56 194.978 1051.34 194.831C1051.13 194.685 1051 194.463 1051 194.228V168.771C1051 168.373 1051.36 168.04 1051.82 168.003C1052.29 167.966 1052.71 168.239 1052.8 168.631C1055.22 179.705 1060.2 191.157 1063.68 193.637C1063.99 193.864 1064.09 194.246 1063.91 194.564C1063.76 194.834 1063.44 195 1063.09 195V195ZM1052.81 175.794V193.302C1054.35 193.097 1057.33 192.823 1060.79 193.143C1059.54 191.622 1057.96 189.095 1056.14 184.9C1054.91 182.079 1053.78 178.975 1052.81 175.794Z" fill="#A5B9C4"/>
<path fill-rule="evenodd" clip-rule="evenodd" d="M1042.88 186C1042.77 186 1042.65 185.978 1042.53 185.933C1042.09 185.753 1041.88 185.27 1042.07 184.853C1044.01 180.682 1046.14 177.141 1048.41 174.328C1048.7 173.966 1049.26 173.892 1049.65 174.164C1050.04 174.437 1050.12 174.951 1049.82 175.314C1047.64 178.023 1045.57 181.451 1043.69 185.504C1043.55 185.814 1043.22 186 1042.88 186V186Z" fill="#A5B9C4"/>
<path fill-rule="evenodd" clip-rule="evenodd" d="M1040.67 189C1040.6 189 1040.52 188.989 1040.45 188.965C1040.1 188.851 1039.92 188.489 1040.04 188.156C1040.25 187.573 1040.47 186.985 1040.7 186.409C1040.84 186.08 1041.22 185.916 1041.57 186.043C1041.92 186.169 1042.09 186.538 1041.96 186.866C1041.73 187.428 1041.51 188.001 1041.3 188.569C1041.21 188.834 1040.95 189 1040.67 189V189Z" fill="#A5B9C4"/>
<path fill-rule="evenodd" clip-rule="evenodd" d="M1074.07 201H1029.93C1029.42 201 1029 200.552 1029 200C1029 199.448 1029.42 199 1029.93 199H1074.07C1074.58 199 1075 199.448 1075 200C1075 200.552 1074.58 201 1074.07 201V201Z" fill="#A5B9C4"/>
<path fill-rule="evenodd" clip-rule="evenodd" d="M734.518 127.866H687.963C686.956 127.866 686.139 127.195 686.139 126.368V74.5647C686.139 73.737 686.956 73.0667 687.963 73.0667H763.273C764.281 73.0667 765.098 73.737 765.098 74.5647C765.098 75.3917 764.281 76.0622 763.273 76.0622H689.788V124.87H734.518C735.525 124.87 736.343 125.541 736.343 126.368C736.343 127.195 735.525 127.866 734.518 127.866V127.866Z" fill="#A5B9C4"/>
<path fill-rule="evenodd" clip-rule="evenodd" d="M916.613 116.754H864.2C863.192 116.754 862.375 116.084 862.375 115.256C862.375 114.429 863.192 113.758 864.2 113.758H916.613C917.621 113.758 918.438 114.429 918.438 115.256C918.438 116.084 917.621 116.754 916.613 116.754Z" fill="#A5B9C4"/>
<path fill-rule="evenodd" clip-rule="evenodd" d="M734.518 135.478C733.51 135.478 732.693 134.808 732.693 133.98V115.256C732.693 114.429 733.51 113.758 734.518 113.758H836.5C837.508 113.758 838.325 114.429 838.325 115.256C838.325 116.084 837.508 116.754 836.5 116.754H736.342V133.98C736.342 134.808 735.525 135.478 734.518 135.478V135.478Z" fill="#A5B9C4"/>
<path fill-rule="evenodd" clip-rule="evenodd" d="M915.494 142.968H870.459C869.451 142.968 868.634 142.297 868.634 141.47C868.634 140.642 869.451 139.972 870.459 139.972H915.494C916.502 139.972 917.319 140.642 917.319 141.47C917.319 142.297 916.502 142.968 915.494 142.968Z" fill="#A5B9C4"/>
<path fill-rule="evenodd" clip-rule="evenodd" d="M836.5 142.968H789.989C788.981 142.968 788.164 142.297 788.164 141.47C788.164 140.642 788.981 139.972 789.989 139.972H836.5C837.508 139.972 838.325 140.642 838.325 141.47C838.325 142.297 837.508 142.968 836.5 142.968Z" fill="#A5B9C4"/>
<path fill-rule="evenodd" clip-rule="evenodd" d="M714.26 142.968H651.332C650.324 142.968 649.507 142.297 649.507 141.47V133.98C649.507 133.153 650.324 132.482 651.332 132.482H836.115C837.123 132.482 837.94 133.153 837.94 133.98C837.94 134.808 837.123 135.478 836.115 135.478H653.157V139.972H714.26C715.268 139.972 716.084 140.643 716.084 141.47C716.084 142.297 715.268 142.968 714.26 142.968Z" fill="#A5B9C4"/>
<path fill-rule="evenodd" clip-rule="evenodd" d="M916.114 135.478H870.33C869.322 135.478 868.505 134.808 868.505 133.98C868.505 133.153 869.322 132.482 870.33 132.482H916.114C917.122 132.482 917.939 133.153 917.939 133.98C917.939 134.808 917.122 135.478 916.114 135.478Z" fill="#A5B9C4"/>
<path fill-rule="evenodd" clip-rule="evenodd" d="M734.518 135.478H655.894C654.886 135.478 654.069 134.808 654.069 133.98V126.368C654.069 125.541 654.886 124.87 655.894 124.87H734.518C735.525 124.87 736.342 125.541 736.342 126.368V133.98C736.342 134.808 735.525 135.478 734.518 135.478ZM657.719 132.482H732.693V127.866H657.719V132.482Z" fill="#A5B9C4"/>
<path fill-rule="evenodd" clip-rule="evenodd" d="M665.781 126.491C660.164 126.491 655.595 122.74 655.595 118.129C655.595 113.517 660.164 109.765 665.781 109.765C671.398 109.765 675.967 113.517 675.967 118.129C675.967 122.74 671.398 126.491 665.781 126.491ZM665.781 111.263C661.17 111.263 657.42 114.343 657.42 118.129C657.42 121.914 661.17 124.993 665.781 124.993C670.391 124.993 674.142 121.914 674.142 118.129C674.142 114.343 670.391 111.263 665.781 111.263Z" fill="#A5B9C4"/>
<path fill-rule="evenodd" clip-rule="evenodd" d="M668.369 122.43C668.066 122.43 667.769 122.306 667.596 122.08C667.328 121.73 667.456 121.267 667.883 121.047C667.918 121.029 667.952 121.012 667.987 120.995C668.01 120.984 668.031 120.974 668.053 120.962C668.48 120.742 669.044 120.848 669.312 121.198C669.58 121.548 669.451 122.01 669.025 122.23C668.99 122.248 668.955 122.265 668.921 122.282C668.898 122.293 668.876 122.304 668.854 122.315C668.703 122.393 668.535 122.43 668.369 122.43V122.43Z" fill="#A5B9C4"/>
<path fill-rule="evenodd" clip-rule="evenodd" d="M670.499 120.341C670.393 120.341 670.286 120.326 670.182 120.294C669.709 120.15 669.469 119.719 669.644 119.331C669.819 118.946 669.908 118.541 669.908 118.129C669.908 116.771 668.927 115.548 667.41 115.015C666.947 114.852 666.732 114.412 666.931 114.031C667.129 113.651 667.666 113.475 668.129 113.638C670.318 114.408 671.733 116.171 671.733 118.129C671.733 118.72 671.605 119.3 671.355 119.853C671.218 120.155 670.87 120.341 670.499 120.341V120.341Z" fill="#A5B9C4"/>
<path fill-rule="evenodd" clip-rule="evenodd" d="M694.508 105.368C694.004 105.368 693.595 105.033 693.595 104.619V85.7199C693.595 85.3062 694.004 84.9711 694.508 84.9711C695.011 84.9711 695.42 85.3062 695.42 85.7199V104.619C695.42 105.033 695.011 105.368 694.508 105.368Z" fill="#A5B9C4"/>
<path fill-rule="evenodd" clip-rule="evenodd" d="M694.508 109.329C694.004 109.329 693.595 108.994 693.595 108.58V108.019C693.595 107.605 694.004 107.27 694.508 107.27C695.011 107.27 695.42 107.605 695.42 108.019V108.58C695.42 108.994 695.011 109.329 694.508 109.329Z" fill="#A5B9C4"/>
<path fill-rule="evenodd" clip-rule="evenodd" d="M760.792 83.3646H687.964C687.46 83.3646 687.051 83.029 687.051 82.6158C687.051 82.202 687.46 81.8668 687.964 81.8668H760.792C761.296 81.8668 761.705 82.202 761.705 82.6158C761.705 83.029 761.296 83.3646 760.792 83.3646Z" fill="#A5B9C4"/>
<path fill-rule="evenodd" clip-rule="evenodd" d="M1021.49 113.867L1181 115.222L1021.49 116.578C1020.74 116.584 1020.12 115.983 1020.12 115.234C1020.11 114.485 1020.72 113.873 1021.47 113.867C1021.47 113.867 1021.49 113.867 1021.49 113.867Z" fill="#A5B9C4"/>
<path fill-rule="evenodd" clip-rule="evenodd" d="M10.1027 240.611L1181 242.306L10.1027 244C4.57016 244.008 0.0459834 243.256 0.000403033 242.32C-0.0487137 241.384 4.39771 240.619 9.92904 240.611C9.9703 240.611 10.0626 240.611 10.1027 240.611Z" fill="#A5B9C4"/>
<path fill-rule="evenodd" clip-rule="evenodd" d="M995.422 116.754H942.902C941.895 116.754 941.077 116.084 941.077 115.256C941.077 114.429 941.895 113.758 942.902 113.758H995.422C996.43 113.758 997.247 114.429 997.247 115.256C997.247 116.084 996.43 116.754 995.422 116.754Z" fill="#A5B9C4"/>
<path fill-rule="evenodd" clip-rule="evenodd" d="M1028.18 140.3L1181 141.656L1028.18 143.011C1027.66 143.016 1027.24 142.413 1027.24 141.664C1027.23 140.915 1027.65 140.305 1028.17 140.3C1028.17 140.3 1028.18 140.3 1028.18 140.3Z" fill="#A5B9C4"/>
<path fill-rule="evenodd" clip-rule="evenodd" d="M994.71 142.968H950.422C949.415 142.968 948.597 142.297 948.597 141.47C948.597 140.642 949.415 139.972 950.422 139.972H994.71C995.717 139.972 996.534 140.642 996.534 141.47C996.534 142.297 995.717 142.968 994.71 142.968Z" fill="#A5B9C4"/>
<path fill-rule="evenodd" clip-rule="evenodd" d="M994.71 135.478H949.709C948.701 135.478 947.885 134.808 947.885 133.98C947.885 133.153 948.701 132.482 949.709 132.482H994.71C995.717 132.482 996.534 133.153 996.534 133.98C996.534 134.808 995.717 135.478 994.71 135.478Z" fill="#A5B9C4"/>
<path fill-rule="evenodd" clip-rule="evenodd" d="M1028.31 132.167L1181 133.861L1028.31 135.556C1027.72 135.562 1027.24 134.809 1027.24 133.873C1027.23 132.937 1027.7 132.173 1028.29 132.167C1028.29 132.167 1028.3 132.167 1028.31 132.167V132.167Z" fill="#A5B9C4"/>
<path fill-rule="evenodd" clip-rule="evenodd" d="M687.245 102.332H487.101C486.597 102.332 486.188 101.997 486.188 101.583C486.188 101.169 486.597 100.834 487.101 100.834H687.245C687.749 100.834 688.157 101.169 688.157 101.583C688.157 101.997 687.749 102.332 687.245 102.332Z" fill="#A5B9C4"/>
<path fill-rule="evenodd" clip-rule="evenodd" d="M674.956 91.9694H661.84C661.336 91.9694 660.928 91.634 660.928 91.2206V87.0396H657.228C656.724 87.0396 656.316 86.7045 656.316 86.2908V81.7972H645.666V86.1358C645.666 86.5495 645.258 86.8846 644.754 86.8846H637.384C636.88 86.8846 636.471 86.5495 636.471 86.1358V83.7779H628.744V89.629C628.744 90.0427 628.335 90.3778 627.832 90.3778H605.079C604.575 90.3778 604.166 90.0427 604.166 89.629V88.3038H598.842V91.2206C598.842 91.634 598.433 91.9694 597.929 91.9694H592.454C591.951 91.9694 591.542 91.634 591.542 91.2206V85.615H579.225V89.629C579.225 90.0427 578.817 90.3778 578.312 90.3778H567.135C566.632 90.3778 566.223 90.0427 566.223 89.629V83.646H560.748V89.3712C560.748 89.785 560.34 90.1202 559.836 90.1202H553.079C552.575 90.1202 552.167 89.785 552.167 89.3712V87.9761H543.641V91.2206C543.641 91.634 543.232 91.9694 542.729 91.9694H531.152C530.649 91.9694 530.24 91.634 530.24 91.2206V86.8846H522.078C521.575 86.8846 521.166 86.5495 521.166 86.1358V83.7779H514.294V88.3504C514.294 88.7642 513.886 89.0992 513.382 89.0992H502.561C502.058 89.0992 501.649 88.7642 501.649 88.3504C501.649 87.9366 502.058 87.6014 502.561 87.6014H512.469V83.0289C512.469 82.6152 512.878 82.2801 513.382 82.2801H522.078C522.582 82.2801 522.991 82.6152 522.991 83.0289V85.3868H531.152C531.657 85.3868 532.065 85.722 532.065 86.1358V90.4714H541.816V87.2271C541.816 86.8132 542.225 86.4781 542.729 86.4781H553.079C553.583 86.4781 553.991 86.8132 553.991 87.2271V88.6224H558.924V82.8972C558.924 82.4834 559.332 82.148 559.836 82.148H567.135C567.639 82.148 568.048 82.4834 568.048 82.8972V88.88H577.4V84.8658C577.4 84.4524 577.808 84.117 578.312 84.117H592.454C592.958 84.117 593.367 84.4524 593.367 84.8658V90.4714H597.016V87.5546C597.016 87.141 597.425 86.8056 597.929 86.8056H605.079C605.582 86.8056 605.991 87.141 605.991 87.5546V88.88H626.919V83.0289C626.919 82.6152 627.328 82.2801 627.832 82.2801H637.384C637.887 82.2801 638.296 82.6152 638.296 83.0289V85.3868H643.842V81.048C643.842 80.6345 644.25 80.2992 644.754 80.2992H657.228C657.732 80.2992 658.141 80.6345 658.141 81.048V85.542H661.84C662.344 85.542 662.752 85.8772 662.752 86.2908V90.4714H674.956C675.46 90.4714 675.869 90.8068 675.869 91.2206C675.869 91.634 675.46 91.9694 674.956 91.9694V91.9694Z" fill="#A5B9C4"/>
<path fill-rule="evenodd" clip-rule="evenodd" d="M527.638 99.1166C527.134 99.1166 526.726 98.7815 526.726 98.3678V91.6972C526.726 91.2836 527.134 90.9482 527.638 90.9482C528.142 90.9482 528.551 91.2836 528.551 91.6972V98.3678C528.551 98.7815 528.142 99.1166 527.638 99.1166Z" fill="#A5B9C4"/>
<path fill-rule="evenodd" clip-rule="evenodd" d="M549.785 96.2875C549.282 96.2875 548.873 95.9522 548.873 95.5383V91.1915C548.873 90.7776 549.282 90.4424 549.785 90.4424C550.289 90.4424 550.698 90.7776 550.698 91.1915V95.5383C550.698 95.9522 550.289 96.2875 549.785 96.2875Z" fill="#A5B9C4"/>
<path fill-rule="evenodd" clip-rule="evenodd" d="M564.305 99.8773C563.802 99.8773 563.393 99.5419 563.393 99.1283V90.3809C563.393 89.9673 563.802 89.6321 564.305 89.6321C564.809 89.6321 565.217 89.9673 565.217 90.3809V99.1283C565.217 99.5419 564.809 99.8773 564.305 99.8773Z" fill="#A5B9C4"/>
<path fill-rule="evenodd" clip-rule="evenodd" d="M589.554 96.5421C589.05 96.5421 588.641 96.2067 588.641 95.7933V90.6851C588.641 90.2714 589.05 89.9361 589.554 89.9361C590.057 89.9361 590.466 90.2714 590.466 90.6851V95.7933C590.466 96.2067 590.057 96.5421 589.554 96.5421Z" fill="#A5B9C4"/>
<path fill-rule="evenodd" clip-rule="evenodd" d="M584.001 100.334C583.497 100.334 583.088 99.9982 583.088 99.5848V94.4296C583.088 94.016 583.497 93.6808 584.001 93.6808C584.504 93.6808 584.913 94.016 584.913 94.4296V99.5848C584.913 99.9982 584.504 100.334 584.001 100.334Z" fill="#A5B9C4"/>
<path fill-rule="evenodd" clip-rule="evenodd" d="M602.263 95.1788C601.759 95.1788 601.35 94.8436 601.35 94.4297V92.0485C601.35 91.6347 601.759 91.2997 602.263 91.2997C602.767 91.2997 603.175 91.6347 603.175 92.0485V94.4297C603.175 94.8436 602.767 95.1788 602.263 95.1788Z" fill="#A5B9C4"/>
<path fill-rule="evenodd" clip-rule="evenodd" d="M633.947 99.5232C633.444 99.5232 633.035 99.1878 633.035 98.7744V89.6229C633.035 89.2095 633.444 88.8741 633.947 88.8741C634.452 88.8741 634.86 89.2095 634.86 89.6229V98.7744C634.86 99.1878 634.452 99.5232 633.947 99.5232Z" fill="#A5B9C4"/>
<path fill-rule="evenodd" clip-rule="evenodd" d="M653.45 95.1786C652.946 95.1786 652.538 94.8435 652.538 94.4296V88.3621C652.538 87.9484 652.946 87.6133 653.45 87.6133C653.954 87.6133 654.362 87.9484 654.362 88.3621V94.4296C654.362 94.8435 653.954 95.1786 653.45 95.1786V95.1786Z" fill="#A5B9C4"/>
<path fill-rule="evenodd" clip-rule="evenodd" d="M658.433 99.3187C657.929 99.3187 657.521 98.9835 657.521 98.5697V92.0485C657.521 91.6347 657.929 91.2997 658.433 91.2997C658.937 91.2997 659.345 91.6347 659.345 92.0485V98.5697C659.345 98.9835 658.937 99.3187 658.433 99.3187Z" fill="#A5B9C4"/>
<path fill-rule="evenodd" clip-rule="evenodd" d="M621.752 99.3186C621.248 99.3186 620.839 98.9835 620.839 98.5696V94.8923C620.839 94.4785 621.248 94.1431 621.752 94.1431C622.255 94.1431 622.664 94.4785 622.664 94.8923V98.5696C622.664 98.9835 622.255 99.3186 621.752 99.3186Z" fill="#A5B9C4"/>
<path fill-rule="evenodd" clip-rule="evenodd" d="M645.01 98.6662C644.506 98.6662 644.098 98.3308 644.098 97.9174V92.9551C644.098 92.5417 644.506 92.2063 645.01 92.2063C645.514 92.2063 645.923 92.5417 645.923 92.9551V97.9174C645.923 98.3308 645.514 98.6662 645.01 98.6662Z" fill="#A5B9C4"/>
<path fill-rule="evenodd" clip-rule="evenodd" d="M574.99 98.827C574.487 98.827 574.078 98.4916 574.078 98.078V94.4296C574.078 94.016 574.487 93.6808 574.99 93.6808C575.494 93.6808 575.903 94.016 575.903 94.4296V98.078C575.903 98.4916 575.494 98.827 574.99 98.827Z" fill="#A5B9C4"/>
<path fill-rule="evenodd" clip-rule="evenodd" d="M540.49 99.3185C539.987 99.3185 539.578 98.9833 539.578 98.5695V96.2522C539.578 95.8388 539.987 95.5034 540.49 95.5034C540.995 95.5034 541.403 95.8388 541.403 96.2522V98.5695C541.403 98.9833 540.995 99.3185 540.49 99.3185Z" fill="#A5B9C4"/>
<path fill-rule="evenodd" clip-rule="evenodd" d="M519.049 97.0014C518.545 97.0014 518.136 96.666 518.136 96.2522V89.7751C518.136 89.3613 518.545 89.0261 519.049 89.0261C519.553 89.0261 519.961 89.3613 519.961 89.7751V96.2522C519.961 96.666 519.553 97.0014 519.049 97.0014Z" fill="#A5B9C4"/>
<path fill-rule="evenodd" clip-rule="evenodd" d="M510.188 99.7369C509.685 99.7369 509.276 99.4017 509.276 98.9879V94.1345C509.276 93.7206 509.685 93.3855 510.188 93.3855C510.692 93.3855 511.1 93.7206 511.1 94.1345V98.9879C511.1 99.4017 510.692 99.7369 510.188 99.7369V99.7369Z" fill="#A5B9C4"/>
<path fill-rule="evenodd" clip-rule="evenodd" d="M607.645 100.334C607.14 100.334 606.732 99.9982 606.732 99.5848V95.7932C606.732 95.3794 607.14 95.044 607.645 95.044C608.148 95.044 608.557 95.3794 608.557 95.7932V99.5848C608.557 99.9982 608.148 100.334 607.645 100.334V100.334Z" fill="#A5B9C4"/>
<path fill-rule="evenodd" clip-rule="evenodd" d="M623.431 160.82H519.731C519.486 160.82 519.251 160.738 519.079 160.595L496.753 141.871C496.497 141.656 496.422 141.335 496.564 141.057C496.707 140.779 497.038 140.598 497.405 140.598H627.309C627.577 140.598 627.833 140.695 628.006 140.864C628.179 141.032 628.253 141.255 628.208 141.473L624.331 160.196C624.256 160.556 623.876 160.82 623.431 160.82ZM520.115 159.322H622.661L626.228 142.096H499.575L520.115 159.322Z" fill="#A5B9C4"/>
<path fill-rule="evenodd" clip-rule="evenodd" d="M620.01 142.096H514.883C514.538 142.096 514.222 141.936 514.068 141.682C513.913 141.429 513.946 141.125 514.154 140.898L520.99 133.409C521.162 133.22 521.432 133.109 521.719 133.109H620.01C620.514 133.109 620.922 133.444 620.922 133.858V141.347C620.922 141.761 620.514 142.096 620.01 142.096V142.096ZM516.708 140.598H619.097V134.607H522.176L516.708 140.598Z" fill="#A5B9C4"/>
<path fill-rule="evenodd" clip-rule="evenodd" d="M561.616 134.606H527.857C527.518 134.606 527.207 134.452 527.05 134.206C526.892 133.96 526.913 133.663 527.104 133.434L529.938 130.044L525.027 126.538C524.739 126.333 524.638 126.003 524.771 125.711C524.904 125.418 525.245 125.224 525.626 125.224H552.15C552.394 125.224 552.628 125.304 552.799 125.447L562.266 133.332C562.523 133.547 562.599 133.868 562.458 134.147C562.315 134.425 561.983 134.606 561.616 134.606ZM529.589 133.108H559.436L551.768 126.722H528.065L531.749 129.352C532.099 129.601 532.165 130.027 531.903 130.34L529.589 133.108Z" fill="#A5B9C4"/>
<path fill-rule="evenodd" clip-rule="evenodd" d="M608.911 129.987C608.73 129.987 608.55 129.942 608.395 129.856C608.147 129.716 607.999 129.485 607.999 129.238V125.183C607.999 124.936 608.147 124.705 608.395 124.565C608.644 124.426 608.96 124.395 609.24 124.485L615.627 126.512C615.979 126.624 616.21 126.901 616.21 127.211C616.21 127.52 615.979 127.798 615.627 127.909L609.24 129.937C609.134 129.97 609.022 129.987 608.911 129.987ZM609.824 126.276V128.145L612.768 127.211L609.824 126.276Z" fill="#A5B9C4"/>
<path fill-rule="evenodd" clip-rule="evenodd" d="M608.911 134.606C608.407 134.606 607.999 134.271 607.999 133.858V123.559C607.999 123.146 608.407 122.81 608.911 122.81C609.415 122.81 609.824 123.146 609.824 123.559V133.858C609.824 134.271 609.415 134.606 608.911 134.606Z" fill="#A5B9C4"/>
<path fill-rule="evenodd" clip-rule="evenodd" d="M519.731 148.921C518.147 148.921 516.859 147.863 516.859 146.563C516.859 145.262 518.147 144.202 519.731 144.202C521.315 144.202 522.604 145.262 522.604 146.563C522.604 147.863 521.315 148.921 519.731 148.921ZM519.731 145.7C519.153 145.7 518.683 146.087 518.683 146.563C518.683 147.037 519.153 147.423 519.731 147.423C520.308 147.423 520.779 147.037 520.779 146.563C520.779 146.087 520.308 145.7 519.731 145.7Z" fill="#A5B9C4"/>
<path fill-rule="evenodd" clip-rule="evenodd" d="M539.946 148.921C538.362 148.921 537.073 147.863 537.073 146.563C537.073 145.262 538.362 144.202 539.946 144.202C541.53 144.202 542.819 145.262 542.819 146.563C542.819 147.863 541.53 148.921 539.946 148.921ZM539.946 145.7C539.368 145.7 538.898 146.087 538.898 146.563C538.898 147.037 539.368 147.423 539.946 147.423C540.524 147.423 540.994 147.037 540.994 146.563C540.994 146.087 540.524 145.7 539.946 145.7Z" fill="#A5B9C4"/>
<path fill-rule="evenodd" clip-rule="evenodd" d="M558.194 148.921C556.61 148.921 555.321 147.863 555.321 146.563C555.321 145.262 556.61 144.202 558.194 144.202C559.778 144.202 561.067 145.262 561.067 146.563C561.067 147.863 559.778 148.921 558.194 148.921ZM558.194 145.7C557.616 145.7 557.146 146.087 557.146 146.563C557.146 147.037 557.616 147.423 558.194 147.423C558.772 147.423 559.242 147.037 559.242 146.563C559.242 146.087 558.772 145.7 558.194 145.7Z" fill="#A5B9C4"/>
<path fill-rule="evenodd" clip-rule="evenodd" d="M576.442 148.921C574.858 148.921 573.57 147.863 573.57 146.563C573.57 145.262 574.858 144.202 576.442 144.202C578.026 144.202 579.315 145.262 579.315 146.563C579.315 147.863 578.026 148.921 576.442 148.921ZM576.442 145.7C575.864 145.7 575.394 146.087 575.394 146.563C575.394 147.037 575.864 147.423 576.442 147.423C577.02 147.423 577.49 147.037 577.49 146.563C577.49 146.087 577.02 145.7 576.442 145.7Z" fill="#A5B9C4"/>
<path fill-rule="evenodd" clip-rule="evenodd" d="M594.69 148.921C593.107 148.921 591.818 147.863 591.818 146.563C591.818 145.262 593.107 144.202 594.69 144.202C596.275 144.202 597.563 145.262 597.563 146.563C597.563 147.863 596.275 148.921 594.69 148.921ZM594.69 145.7C594.113 145.7 593.643 146.087 593.643 146.563C593.643 147.037 594.113 147.423 594.69 147.423C595.268 147.423 595.738 147.037 595.738 146.563C595.738 146.087 595.268 145.7 594.69 145.7Z" fill="#A5B9C4"/>
<path fill-rule="evenodd" clip-rule="evenodd" d="M620.01 137.793H518.811C518.307 137.793 517.899 137.457 517.899 137.044C517.899 136.63 518.307 136.295 518.811 136.295H620.01C620.514 136.295 620.922 136.63 620.922 137.044C620.922 137.457 620.514 137.793 620.01 137.793Z" fill="#A5B9C4"/>
<path fill-rule="evenodd" clip-rule="evenodd" d="M624.785 152.377H509.666C509.162 152.377 508.753 152.042 508.753 151.628C508.753 151.214 509.162 150.879 509.666 150.879H624.785C625.289 150.879 625.698 151.214 625.698 151.628C625.698 152.042 625.289 152.377 624.785 152.377V152.377Z" fill="#A5B9C4"/>
<path fill-rule="evenodd" clip-rule="evenodd" d="M623.941 155.24H512.923C512.419 155.24 512.011 154.905 512.011 154.492C512.011 154.078 512.419 153.743 512.923 153.743H623.941C624.445 153.743 624.853 154.078 624.853 154.492C624.853 154.905 624.445 155.24 623.941 155.24V155.24Z" fill="#A5B9C4"/>
<path fill-rule="evenodd" clip-rule="evenodd" d="M556.883 130.666H531.15C530.646 130.666 530.238 130.33 530.238 129.917C530.238 129.503 530.646 129.168 531.15 129.168H556.883C557.386 129.168 557.795 129.503 557.795 129.917C557.795 130.33 557.386 130.666 556.883 130.666Z" fill="#A5B9C4"/>
<path fill-rule="evenodd" clip-rule="evenodd" d="M622.549 148.286C622.498 148.286 622.446 148.283 622.394 148.276C621.898 148.206 621.564 147.82 621.648 147.412L622.347 144.045C622.432 143.637 622.903 143.363 623.399 143.432C623.896 143.501 624.23 143.888 624.146 144.296L623.447 147.663C623.371 148.029 622.985 148.286 622.549 148.286Z" fill="#A5B9C4"/>
<path fill-rule="evenodd" clip-rule="evenodd" d="M537.273 128.711H532.027C531.523 128.711 531.114 128.376 531.114 127.962C531.114 127.549 531.523 127.214 532.027 127.214H537.273C537.777 127.214 538.186 127.549 538.186 127.962C538.186 128.376 537.777 128.711 537.273 128.711Z" fill="#A5B9C4"/>
<path fill-rule="evenodd" clip-rule="evenodd" d="M529.746 140.007H520.543C520.039 140.007 519.631 139.672 519.631 139.258C519.631 138.845 520.039 138.509 520.543 138.509H529.746C530.249 138.509 530.658 138.845 530.658 139.258C530.658 139.672 530.249 140.007 529.746 140.007Z" fill="#A5B9C4"/>
<path fill-rule="evenodd" clip-rule="evenodd" d="M532.141 140.007H530.045C529.541 140.007 529.132 139.672 529.132 139.258C529.132 138.845 529.541 138.509 530.045 138.509H532.141C532.645 138.509 533.053 138.845 533.053 139.258C533.053 139.672 532.645 140.007 532.141 140.007Z" fill="#A5B9C4"/>
<path fill-rule="evenodd" clip-rule="evenodd" d="M538.093 140.007H535.997C535.494 140.007 535.085 139.672 535.085 139.258C535.085 138.845 535.494 138.509 535.997 138.509H538.093C538.597 138.509 539.005 138.845 539.005 139.258C539.005 139.672 538.597 140.007 538.093 140.007Z" fill="#A5B9C4"/>
<path fill-rule="evenodd" clip-rule="evenodd" d="M544.037 140.007H541.949C541.445 140.007 541.037 139.672 541.037 139.258C541.037 138.845 541.445 138.509 541.949 138.509H544.037C544.542 138.509 544.95 138.845 544.95 139.258C544.95 139.672 544.542 140.007 544.037 140.007Z" fill="#A5B9C4"/>
<path fill-rule="evenodd" clip-rule="evenodd" d="M549.99 140.007H547.901C547.397 140.007 546.989 139.672 546.989 139.258C546.989 138.845 547.397 138.509 547.901 138.509H549.99C550.494 138.509 550.902 138.845 550.902 139.258C550.902 139.672 550.494 140.007 549.99 140.007Z" fill="#A5B9C4"/>
<path fill-rule="evenodd" clip-rule="evenodd" d="M555.193 140.007H554.595C554.091 140.007 553.682 139.672 553.682 139.258C553.682 138.845 554.091 138.509 554.595 138.509H555.193C555.698 138.509 556.106 138.845 556.106 139.258C556.106 139.672 555.698 140.007 555.193 140.007Z" fill="#A5B9C4"/>
<path fill-rule="evenodd" clip-rule="evenodd" d="M561.145 140.007H560.547C560.043 140.007 559.634 139.672 559.634 139.258C559.634 138.845 560.043 138.509 560.547 138.509H561.145C561.649 138.509 562.058 138.845 562.058 139.258C562.058 139.672 561.649 140.007 561.145 140.007Z" fill="#A5B9C4"/>
<path fill-rule="evenodd" clip-rule="evenodd" d="M567.097 140.007H566.499C565.994 140.007 565.586 139.672 565.586 139.258C565.586 138.845 565.994 138.509 566.499 138.509H567.097C567.601 138.509 568.01 138.845 568.01 139.258C568.01 139.672 567.601 140.007 567.097 140.007Z" fill="#A5B9C4"/>
<path fill-rule="evenodd" clip-rule="evenodd" d="M573.049 140.007H572.451C571.947 140.007 571.538 139.672 571.538 139.258C571.538 138.845 571.947 138.509 572.451 138.509H573.049C573.554 138.509 573.962 138.845 573.962 139.258C573.962 139.672 573.554 140.007 573.049 140.007Z" fill="#A5B9C4"/>
<path fill-rule="evenodd" clip-rule="evenodd" d="M578.802 140.007H578.595C578.092 140.007 577.683 139.672 577.683 139.258C577.683 138.845 578.092 138.509 578.595 138.509H578.802C579.306 138.509 579.714 138.845 579.714 139.258C579.714 139.672 579.306 140.007 578.802 140.007Z" fill="#A5B9C4"/>
<path fill-rule="evenodd" clip-rule="evenodd" d="M561.978 149.469C561.8 149.469 561.62 149.426 561.461 149.336C561.046 149.102 560.942 148.635 561.228 148.295C561.659 147.781 561.887 147.183 561.887 146.563C561.887 146.166 561.794 145.78 561.613 145.417C561.422 145.035 561.644 144.597 562.11 144.44C562.576 144.283 563.109 144.466 563.301 144.848C563.573 145.393 563.712 145.97 563.712 146.563C563.712 147.488 563.372 148.38 562.73 149.145C562.554 149.355 562.268 149.469 561.978 149.469V149.469Z" fill="#A5B9C4"/>
<path fill-rule="evenodd" clip-rule="evenodd" d="M544.037 149.469C543.857 149.469 543.675 149.425 543.515 149.334C543.102 149.097 543.001 148.63 543.29 148.291C543.718 147.787 543.945 147.19 543.945 146.563C543.945 146.168 543.854 145.78 543.675 145.409C543.489 145.025 543.717 144.59 544.186 144.437C544.654 144.284 545.184 144.472 545.37 144.856C545.636 145.404 545.77 145.978 545.77 146.563C545.77 147.498 545.43 148.392 544.786 149.149C544.608 149.357 544.325 149.469 544.037 149.469V149.469Z" fill="#A5B9C4"/>
<path fill-rule="evenodd" clip-rule="evenodd" d="M523.465 149.469C523.285 149.469 523.102 149.425 522.943 149.334C522.53 149.097 522.429 148.63 522.718 148.291C523.146 147.787 523.373 147.19 523.373 146.563C523.373 146.168 523.282 145.78 523.102 145.409C522.917 145.025 523.145 144.589 523.614 144.437C524.082 144.284 524.612 144.472 524.798 144.856C525.064 145.404 525.198 145.978 525.198 146.563C525.198 147.498 524.858 148.392 524.214 149.149C524.036 149.357 523.753 149.469 523.465 149.469Z" fill="#A5B9C4"/>
<path fill-rule="evenodd" clip-rule="evenodd" d="M580.169 149.469C579.991 149.469 579.81 149.426 579.653 149.336C579.238 149.102 579.133 148.636 579.419 148.295C579.85 147.781 580.078 147.182 580.078 146.563C580.078 146.166 579.986 145.78 579.804 145.417C579.613 145.034 579.835 144.597 580.302 144.44C580.768 144.283 581.301 144.466 581.492 144.849C581.764 145.393 581.902 145.97 581.902 146.563C581.902 147.487 581.563 148.38 580.922 149.145C580.744 149.355 580.459 149.469 580.169 149.469V149.469Z" fill="#A5B9C4"/>
<path fill-rule="evenodd" clip-rule="evenodd" d="M598.56 149.469C598.382 149.469 598.202 149.426 598.044 149.336C597.629 149.102 597.524 148.636 597.81 148.295C598.241 147.781 598.468 147.183 598.468 146.563C598.468 146.166 598.376 145.78 598.194 145.417C598.003 145.035 598.226 144.597 598.692 144.44C599.158 144.283 599.691 144.466 599.883 144.848C600.155 145.393 600.293 145.97 600.293 146.563C600.293 147.487 599.954 148.38 599.312 149.145C599.136 149.355 598.85 149.469 598.56 149.469V149.469Z" fill="#A5B9C4"/>
<path fill-rule="evenodd" clip-rule="evenodd" d="M606.452 167.867H558.194C557.69 167.867 557.282 167.532 557.282 167.118C557.282 166.705 557.69 166.37 558.194 166.37H606.452C606.955 166.37 607.364 166.705 607.364 167.118C607.364 167.532 606.955 167.867 606.452 167.867V167.867Z" fill="#A5B9C4"/>
<path fill-rule="evenodd" clip-rule="evenodd" d="M612.582 164.003H611.263C610.759 164.003 610.352 163.668 610.352 163.254C610.352 162.84 610.759 162.505 611.263 162.505H612.582C613.086 162.505 613.495 162.84 613.495 163.254C613.495 163.668 613.086 164.003 612.582 164.003Z" fill="#A5B9C4"/>
<path fill-rule="evenodd" clip-rule="evenodd" d="M245.904 129.516H193.319C192.311 129.516 191.494 128.845 191.494 128.018C191.494 127.191 192.311 126.52 193.319 126.52H245.904C246.911 126.52 247.728 127.191 247.728 128.018C247.728 128.845 246.911 129.516 245.904 129.516Z" fill="#A5B9C4"/>
<path fill-rule="evenodd" clip-rule="evenodd" d="M485.395 132.258H358.137C357.129 132.258 356.313 131.553 356.313 130.685C356.313 129.816 357.129 129.112 358.137 129.112H483.571V77.8624H193.318C192.311 77.8624 84.3572 78.7308 84.3572 77.8624C84.3572 76.9933 192.311 74.7169 193.318 74.7169H485.395C486.402 74.7169 487.219 75.4208 487.219 76.2899V130.685C487.219 131.553 486.402 132.258 485.395 132.258Z" fill="#A5B9C4"/>
<path fill-rule="evenodd" clip-rule="evenodd" d="M236.024 121.5H193.319C192.311 121.5 191.494 120.829 191.494 120.002C191.494 119.175 192.311 118.504 193.319 118.504H236.024C237.032 118.504 237.849 119.175 237.849 120.002C237.849 120.829 237.032 121.5 236.024 121.5Z" fill="#A5B9C4"/>
<path fill-rule="evenodd" clip-rule="evenodd" d="M480.046 121.322H6.87488C3.07985 121.322 0 120.715 0 119.967C0 119.218 3.07985 118.611 6.87488 118.611H480.046C483.843 118.611 486.922 119.218 486.922 119.967C486.922 120.715 483.843 121.322 480.046 121.322V121.322Z" fill="#A5B9C4"/>
<path fill-rule="evenodd" clip-rule="evenodd" d="M484.701 84.7223H1.50922C0.676087 84.7223 0 84.4186 0 84.0446C0 83.6701 0.676087 83.3667 1.50922 83.3667H484.701C485.535 83.3667 486.21 83.6701 486.21 84.0446C486.21 84.4186 485.535 84.7223 484.701 84.7223Z" fill="#A5B9C4"/>
<path fill-rule="evenodd" clip-rule="evenodd" d="M479.458 107.516C478.954 107.516 478.545 107.18 478.545 106.767V88.2127C478.545 87.799 478.954 87.4637 479.458 87.4637C479.962 87.4637 480.37 87.799 480.37 88.2127V106.767C480.37 107.18 479.962 107.516 479.458 107.516Z" fill="#A5B9C4"/>
<path fill-rule="evenodd" clip-rule="evenodd" d="M479.458 113.092C478.954 113.092 478.545 112.756 478.545 112.343V110.19C478.545 109.776 478.954 109.44 479.458 109.44C479.962 109.44 480.37 109.776 480.37 110.19V112.343C480.37 112.756 479.962 113.092 479.458 113.092Z" fill="#A5B9C4"/>
<path fill-rule="evenodd" clip-rule="evenodd" d="M451.815 115.157C449.873 115.157 448.293 113.863 448.293 112.273C448.293 110.679 449.873 109.382 451.815 109.382C453.756 109.382 455.336 110.679 455.336 112.273C455.336 113.863 453.756 115.157 451.815 115.157ZM451.815 110.88C450.879 110.88 450.118 111.505 450.118 112.273C450.118 113.038 450.879 113.66 451.815 113.66C452.75 113.66 453.511 113.038 453.511 112.273C453.511 111.505 452.75 110.88 451.815 110.88Z" fill="#A5B9C4"/>
<path fill-rule="evenodd" clip-rule="evenodd" d="M451.815 111.74C451.311 111.74 450.902 111.405 450.902 110.991V108.528C450.902 108.114 451.311 107.779 451.815 107.779C452.319 107.779 452.727 108.114 452.727 108.528V110.991C452.727 111.405 452.319 111.74 451.815 111.74Z" fill="#A5B9C4"/>
<path fill-rule="evenodd" clip-rule="evenodd" d="M373.968 115.157C372.03 115.157 370.454 113.863 370.454 112.273C370.454 110.679 372.03 109.382 373.968 109.382C375.909 109.382 377.489 110.679 377.489 112.273C377.489 113.863 375.909 115.157 373.968 115.157ZM373.968 110.88C373.036 110.88 372.279 111.505 372.279 112.273C372.279 113.038 373.036 113.66 373.968 113.66C374.903 113.66 375.665 113.038 375.665 112.273C375.665 111.505 374.903 110.88 373.968 110.88Z" fill="#A5B9C4"/>
<path fill-rule="evenodd" clip-rule="evenodd" d="M373.968 111.74C373.464 111.74 373.056 111.405 373.056 110.991V108.528C373.056 108.114 373.464 107.779 373.968 107.779C374.472 107.779 374.881 108.114 374.881 108.528V110.991C374.881 111.405 374.472 111.74 373.968 111.74Z" fill="#A5B9C4"/>
<path fill-rule="evenodd" clip-rule="evenodd" d="M218.282 115.157C216.341 115.157 214.761 113.863 214.761 112.273C214.761 110.679 216.341 109.382 218.282 109.382C220.224 109.382 221.804 110.679 221.804 112.273C221.804 113.863 220.224 115.157 218.282 115.157ZM218.282 110.88C217.347 110.88 216.585 111.505 216.585 112.273C216.585 113.038 217.347 113.66 218.282 113.66C219.217 113.66 219.978 113.038 219.978 112.273C219.978 111.505 219.217 110.88 218.282 110.88Z" fill="#A5B9C4"/>
<path fill-rule="evenodd" clip-rule="evenodd" d="M218.282 111.74C217.778 111.74 217.37 111.405 217.37 110.991V108.528C217.37 108.114 217.778 107.779 218.282 107.779C218.786 107.779 219.195 108.114 219.195 108.528V110.991C219.195 111.405 218.786 111.74 218.282 111.74Z" fill="#A5B9C4"/>
</svg>
