<svg width="30" height="51" viewBox="0 0 30 51" fill="none" xmlns="http://www.w3.org/2000/svg">
<path d="M30 23.2059V0.470845L27.5971 0.161433L27.6065 23.2059C27.6065 23.4656 27.6011 23.7239 27.589 23.9822C27.5378 23.3297 27.4557 22.6773 27.3412 22.0261L23.4513 0L21.0349 0.139908L24.9814 22.4418C25.0258 22.6974 25.0662 22.953 25.0999 23.2086C24.9369 22.575 24.7416 21.9468 24.5153 21.3253L17.0426 0.817925L14.7663 1.5659L22.2646 22.1418C22.3535 22.3853 22.437 22.6302 22.5138 22.8764C22.2431 22.2804 21.9414 21.6952 21.6114 21.1235L11.3451 3.36318L9.42172 4.81742L19.5385 22.3181C19.6678 22.5427 19.793 22.7701 19.9116 22.9988C19.5411 22.4593 19.1438 21.9347 18.7168 21.4288L6.90163 7.40438L5.46042 9.37117L16.8823 22.9665C17.0493 23.1656 17.211 23.3674 17.3686 23.5719C16.9106 23.105 16.4271 22.6571 15.9193 22.232L3.8751 12.1465L2.86086 14.4079L14.3811 24.0629C14.5804 24.2297 14.7744 24.4005 14.9643 24.5741C14.4323 24.1947 13.88 23.8382 13.3076 23.5086L1.96785 16.9208L1.30921 19.2603L12.1007 25.5736L12.1075 25.5777C12.3324 25.7068 12.5533 25.8413 12.7715 25.9799C12.1816 25.6974 11.5741 25.4431 10.9518 25.2158L0.806806 21.5351L0.414852 23.9324L10.1329 27.4651C10.3753 27.5525 10.6137 27.6467 10.8508 27.7435C10.2218 27.5687 9.582 27.4247 8.93144 27.3104L0.179141 25.7996L0 28.166L8.51524 29.6659C10.8737 30.0816 13.08 30.9453 15.0721 32.2341C16.9968 33.4784 18.6428 35.0659 19.9641 36.9506C21.2854 38.8353 22.2161 40.9232 22.7293 43.155C23.26 45.4648 23.3179 47.8312 22.9031 50.1867L25.2615 50.6024C25.733 47.9294 25.667 45.2442 25.0635 42.6196C24.6985 41.0335 24.149 39.5133 23.4216 38.0725C27.6133 34.2627 30 28.8991 30 23.2059Z" fill="#F2B43F"/>
<path d="M13.4227 43.1953C14.6896 43.1953 15.7165 42.1696 15.7165 40.9043C15.7165 39.639 14.6896 38.6133 13.4227 38.6133C12.1559 38.6133 11.1289 39.639 11.1289 40.9043C11.1289 42.1696 12.1559 43.1953 13.4227 43.1953Z" fill="#F2B43F"/>
</svg>
