<svg width="144" height="153" viewBox="0 0 144 153" fill="none" xmlns="http://www.w3.org/2000/svg">
<path fill-rule="evenodd" clip-rule="evenodd" d="M144 76.5C144 34.2486 111.764 0 72 0C32.236 0 0 34.2486 0 76.5C0 76.5574 0.008 76.6105 0.008 76.67C0.008 76.7338 0 76.7805 0 76.8485V143.788C0 143.788 0 153 8.67 153H71.672C71.672 153 71.76 153 71.882 152.994C71.922 152.994 71.96 153 72.002 153C111.76 153 144 118.749 144 76.5Z" fill="#30B7C4"/>
<path fill-rule="evenodd" clip-rule="evenodd" d="M78 80.7883C78 80.7883 90.126 79.5579 90.126 90.9033C90.126 102.247 90.196 109.54 90.196 113.407C90.196 117.285 91.052 121.242 95.136 121.242C99.216 121.242 100.688 118.182 100.688 113.139V80.7883H110V109.629C110 114.909 105.584 123.25 95.082 123.25C84.578 123.25 80.492 116.072 80.492 111.142V88.0239C80.492 85.7395 79.948 82.0208 78 82.0208V80.7883ZM57.95 76.7827C43.786 76.7827 38.89 63.9328 38.28 62.3964C53.37 62.3964 64 62.0479 64 50.0502C64 38.0545 49.012 38.2628 48.874 38.2628C48.734 38.2628 28 37.0707 28 57.7065C28 78.336 49.928 78.625 56.98 78.625H60.62V76.7827H57.95ZM48.352 39.6164C49.156 39.6164 56.072 38.8854 56.072 49.5827C56.072 60.2842 44.262 61.047 41.978 61.047C39.698 61.047 37.898 60.962 37.898 60.962C33.496 42.1728 47.55 39.6164 48.352 39.6164Z" fill="#FEFEFE"/>
<path fill-rule="evenodd" clip-rule="evenodd" d="M77.6727 78.591V76.7465H79.6347C80.9347 76.7465 99.0467 76.0984 100.413 56.185C101.097 40.8213 89.0647 39.6036 87.5627 39.6036C86.0627 39.6036 74.0807 39.7354 74.0807 61.5273V102.795C74.0807 105.032 72.6567 125.375 50.5787 125.375C28.5007 125.375 28.0307 103.804 28.0307 102.797C28.0307 101.788 25.9647 81.1644 55.7387 81.1644H60.2267V82.4458H57.9607C56.6647 82.4458 38.6007 84.2669 37.3407 103.024C36.0767 121.788 49.8607 123.403 51.0527 123.403C52.2447 123.403 63.5647 125.337 63.5647 102.4V64.4343C63.5647 60.9238 65.1047 38.25 87.5527 38.25C109.999 38.25 109.999 56.5144 109.999 57.9955C109.999 59.4788 110.717 78.591 82.3787 78.591H77.6727Z" fill="#FEFEFE"/>
</svg>
