<svg width="117" height="183" viewBox="0 0 117 183" fill="none" xmlns="http://www.w3.org/2000/svg">
<path fill-rule="evenodd" clip-rule="evenodd" d="M30.9604 19.4662C33.0077 19.4662 34.8843 19.9262 36.5405 20.8326C38.1883 21.7376 39.4592 22.9748 40.3193 24.51L40.5866 24.9871L46.444 21.7205L46.1682 21.2653C44.6555 18.7779 42.5187 16.7806 39.8175 15.3288C37.1206 13.879 34.1407 13.1436 30.9604 13.1436C25.6774 13.1436 21.2304 14.851 17.7459 18.2174C14.2613 21.5831 12.4956 25.8019 12.4956 30.7575C12.4956 35.7131 14.2613 39.9318 17.7459 43.2975C21.2304 46.6633 25.676 48.3707 30.9604 48.3707C34.1734 48.3707 37.1717 47.627 39.8701 46.1602C42.5699 44.6933 44.6896 42.6865 46.1696 40.1984L46.4411 39.7418L40.5767 36.5278L40.3151 37.0118C39.4877 38.5456 38.2266 39.7801 36.5661 40.681C34.897 41.5874 33.0105 42.048 30.9604 42.048C27.473 42.048 24.614 40.9763 22.4644 38.8628C20.3106 36.7493 19.2173 34.022 19.2173 30.7575C19.2173 27.4936 20.3106 24.7663 22.4644 22.6508C24.6154 20.538 27.4744 19.4662 30.9604 19.4662V19.4662ZM62.2388 13.7553H49.0613V47.7596H55.783V36.4609H62.2388C65.6054 36.4609 68.4601 35.3563 70.7263 33.1772C72.9939 30.9981 74.1426 28.2831 74.1426 25.1081C74.1426 21.9009 72.9924 19.1778 70.7263 17.0151C68.4587 14.8517 65.604 13.7553 62.2388 13.7553V13.7553ZM65.958 28.8641C64.9784 29.8477 63.7629 30.3262 62.2388 30.3262H55.783V19.89H62.2388C63.7629 19.89 64.9784 20.3685 65.9566 21.3521C66.9418 22.3425 67.4209 23.5715 67.4209 25.1081C67.4209 26.6447 66.9418 27.8736 65.958 28.8641ZM83.0864 41.5313V33.683H96.7957V27.5018H83.0864V19.9836H98.0197V13.7553H76.3647V47.7596H98.2643V41.5313H83.0864Z" fill="#09378B"/>
<path fill-rule="evenodd" clip-rule="evenodd" d="M46.8379 96.1465H54.7913L51.8056 102.327H47.9994H13.0625H0V96.1465H10.7255C13.89 92.3543 15.4725 86.5953 15.4725 78.87V53.1659H46.8379V96.1465ZM18.3938 96.1465H40.0455V59.276H22.265V79.0104C22.265 86.4549 20.974 92.1679 18.3938 96.1465V96.1465Z" fill="#09378B"/>
<path fill-rule="evenodd" clip-rule="evenodd" d="M96.2298 102.327L91.9629 91.3009H68.3812L60.2006 112.285H52.7891L76.2417 53.1659H84.1024L103.641 102.327H96.2298ZM70.7771 85.1908H89.5675L80.1349 60.9614L70.7771 85.1908Z" fill="#09378B"/>
<path fill-rule="evenodd" clip-rule="evenodd" d="M48.968 96.033L42.6377 112.285H50.0493L56.2975 96.0002L48.968 96.033Z" fill="#09378B"/>
<path fill-rule="evenodd" clip-rule="evenodd" d="M6.06331 5.39661H0V102.327H6.06331V5.39661Z" fill="#09378B"/>
<path fill-rule="evenodd" clip-rule="evenodd" d="M113.55 5.39661H107.486V47.8093H113.55V5.39661Z" fill="#09378B"/>
<path fill-rule="evenodd" clip-rule="evenodd" d="M113.55 52.7858H107.486V91.077H113.55V52.7858Z" fill="#E50C6F"/>
<path fill-rule="evenodd" clip-rule="evenodd" d="M110.359 103.05C108.055 103.05 106.187 101.253 106.187 99.0378C106.187 96.8222 108.055 95.0261 110.359 95.0261C112.663 95.0261 114.531 96.8222 114.531 99.0378C114.531 101.253 112.663 103.05 110.359 103.05Z" fill="#E50C6F"/>
<path fill-rule="evenodd" clip-rule="evenodd" d="M113.55 5.83034V0H0V5.83034H113.55Z" fill="#09378B"/>
<path fill-rule="evenodd" clip-rule="evenodd" d="M3.35498 137.156V121.8H10.3088V124.029H5.7854V128.221H9.72368V130.493H5.7854V134.928H10.3088V137.156H3.35498Z" fill="#09378B"/>
<path fill-rule="evenodd" clip-rule="evenodd" d="M12.9644 137.156V140.068H10.9165V135.17L11.8392 134.972C12.259 134.531 12.5442 134.02 12.6944 133.438C12.8441 132.858 12.9342 132.089 12.9644 131.133L13.2351 121.8H20.2558V134.994H21.246V140.068H19.1981V137.156H12.9644ZM15.1473 131.119C15.1171 132 15.0573 132.759 14.9673 133.398C14.8772 134.036 14.7046 134.568 14.4497 134.994H17.8253V124.029H15.3274L15.1473 131.119Z" fill="#09378B"/>
<path fill-rule="evenodd" clip-rule="evenodd" d="M28.357 127.537L25.0714 137.156H22.731V121.8H25.094V131.53H25.1839L28.4471 121.8H30.81V137.156H28.4246V127.537H28.357Z" fill="#09378B"/>
<path fill-rule="evenodd" clip-rule="evenodd" d="M38.2811 137.156V130.449H35.4905V137.156H33.0601V121.8H35.4905V128.221H38.2811V121.8H40.7115V137.156H38.2811Z" fill="#09378B"/>
<path fill-rule="evenodd" clip-rule="evenodd" d="M50.478 133.229C50.478 134.567 50.1714 135.579 49.5581 136.262C48.9449 136.946 47.98 137.288 46.6635 137.288C45.347 137.288 44.3899 136.961 43.7914 136.307C43.1929 135.652 42.894 134.707 42.894 133.471V125.749C42.894 125.146 42.9651 124.595 43.1071 124.095C43.2492 123.595 43.4697 123.165 43.7689 122.804C44.0682 122.444 44.4609 122.164 44.9472 121.966C45.4331 121.767 46.013 121.668 46.686 121.668C47.404 121.668 48.006 121.76 48.4923 121.943C48.9783 122.128 49.3672 122.396 49.6591 122.749C49.9505 123.102 50.1598 123.529 50.2871 124.028C50.4143 124.529 50.478 125.095 50.478 125.727V133.229ZM48.0475 125.551C48.0475 125.124 47.9537 124.742 47.7663 124.404C47.5785 124.065 47.2223 123.896 46.6973 123.896C46.4121 123.896 46.1797 123.959 45.9996 124.084C45.8196 124.209 45.6807 124.363 45.5833 124.547C45.4856 124.731 45.4181 124.937 45.3808 125.165C45.3431 125.393 45.3245 125.602 45.3245 125.794V133.516C45.3245 133.913 45.4258 134.27 45.6283 134.586C45.8309 134.902 46.1797 135.06 46.6748 135.06C47.1699 135.06 47.5222 134.895 47.7325 134.564C47.9424 134.233 48.0475 133.832 48.0475 133.361V125.551Z" fill="#09378B"/>
<path fill-rule="evenodd" clip-rule="evenodd" d="M52.7061 137.156V121.8H59.6598V124.029H55.1365V128.221H59.0747V130.493H55.1365V134.928H59.6598V137.156H52.7061Z" fill="#09378B"/>
<path fill-rule="evenodd" clip-rule="evenodd" d="M10.8041 156.085C10.8041 157.423 10.4975 158.434 9.88425 159.118C9.27102 159.802 8.30613 160.144 6.98964 160.144C5.67315 160.144 4.71602 159.817 4.11754 159.162C3.51907 158.508 3.22021 157.563 3.22021 156.327V148.605C3.22021 148.002 3.2912 147.451 3.43327 146.951C3.5753 146.451 3.79584 146.02 4.09505 145.66C4.39431 145.3 4.78705 145.02 5.27332 144.821C5.75931 144.623 6.33913 144.524 7.01213 144.524C7.73019 144.524 8.33219 144.616 8.81846 144.799C9.30441 144.983 9.69335 145.252 9.98515 145.605C10.2767 145.958 10.4859 146.384 10.6132 146.884C10.7405 147.385 10.8041 147.951 10.8041 148.583V156.085ZM8.37365 148.407C8.37365 147.98 8.27981 147.598 8.0924 147.259C7.9046 146.921 7.5484 146.752 7.02339 146.752C6.73821 146.752 6.50585 146.815 6.32578 146.94C6.14575 147.065 6.00684 147.219 5.90947 147.403C5.8117 147.587 5.7442 147.793 5.70692 148.021C5.66932 148.249 5.65063 148.458 5.65063 148.649V156.372C5.65063 156.769 5.75189 157.125 5.95445 157.442C6.157 157.758 6.50585 157.916 7.00092 157.916C7.49603 157.916 7.8483 157.75 8.05863 157.42C8.26853 157.089 8.37365 156.688 8.37365 156.217V148.407Z" fill="#09378B"/>
<path fill-rule="evenodd" clip-rule="evenodd" d="M15.4398 150.591H16.4704C17.2771 150.591 17.9455 150.697 18.4758 150.91C19.006 151.123 19.4319 151.427 19.7532 151.824C20.0743 152.22 20.3021 152.704 20.4364 153.276C20.5708 153.849 20.6383 154.494 20.6383 155.213C20.6383 156.813 20.3007 158.012 19.6256 158.812C18.9505 159.612 17.9075 160.012 16.4975 160.012H13.0093V144.656H19.8732V146.884H15.4398V150.591ZM15.4398 157.761H16.3554C16.4743 157.761 16.5787 157.739 16.668 157.695C17.3227 157.637 17.7581 157.383 17.974 156.934C18.1899 156.485 18.2978 155.923 18.2978 155.246C18.2978 154.408 18.1526 153.794 17.8625 153.404C17.5721 153.014 17.0549 152.819 16.3108 152.819H15.4398V157.761Z" fill="#09378B"/>
<path fill-rule="evenodd" clip-rule="evenodd" d="M34.2305 157.783H35.2658V162.924H33.2178V160.012H22.2808V144.656H24.7112V157.783H27.0291V144.656H29.4597V157.783H31.8001V144.656H34.2305V157.783Z" fill="#09378B"/>
<path fill-rule="evenodd" clip-rule="evenodd" d="M36.8633 160.012V144.656H43.8171V146.884H39.2937V151.076H43.2319V153.349H39.2937V157.783H43.8171V160.012H36.8633Z" fill="#09378B"/>
<path fill-rule="evenodd" clip-rule="evenodd" d="M49.083 144.524C49.7279 144.524 50.2831 144.611 50.7483 144.786C51.2132 144.961 51.5996 145.205 51.9073 145.518C52.2146 145.831 52.4397 146.203 52.5824 146.634C52.7249 147.066 52.7962 147.539 52.7962 148.054L50.4332 148.649C50.4332 148.091 50.3253 147.634 50.1094 147.281C49.8935 146.928 49.5479 146.752 49.0718 146.752C48.7891 146.752 48.5584 146.811 48.3798 146.929C48.2011 147.047 48.0637 147.198 47.967 147.382C47.8699 147.566 47.8031 147.765 47.7658 147.979C47.7285 148.193 47.7102 148.395 47.7102 148.587V156.39C47.7102 156.538 47.7249 156.7 47.7549 156.877C47.7842 157.054 47.8477 157.22 47.9444 157.374C48.0411 157.529 48.1751 157.658 48.346 157.761C48.5169 157.865 48.7367 157.916 49.0046 157.916C49.8971 157.916 50.351 157.284 50.3658 156.018C50.7708 156.092 51.1759 156.155 51.581 156.206C51.9861 156.258 52.3911 156.313 52.7962 156.372C52.7661 157.534 52.4397 158.453 51.8173 159.129C51.1946 159.806 50.2757 160.144 49.0605 160.144C47.77 160.144 46.8174 159.824 46.2025 159.185C45.5871 158.545 45.2798 157.607 45.2798 156.372V148.716C45.2798 148.142 45.3434 147.601 45.4711 147.094C45.5984 146.586 45.8121 146.142 46.1125 145.759C46.4123 145.377 46.8062 145.075 47.2939 144.855C47.7813 144.634 48.3776 144.524 49.083 144.524V144.524Z" fill="#09378B"/>
<path fill-rule="evenodd" clip-rule="evenodd" d="M58.3997 146.884V160.012H55.9693V146.884H53.4487V144.656H60.9201V146.884H58.3997Z" fill="#09378B"/>
<path fill-rule="evenodd" clip-rule="evenodd" d="M67.8962 151.981C68.5861 152.201 69.0587 152.621 69.314 153.238C69.5689 153.856 69.6966 154.562 69.6966 155.356C69.6966 156.96 69.3478 158.136 68.6501 158.887C67.9525 159.637 66.8835 160.012 65.4433 160.012H62.2026V144.656H65.6233C67.0034 144.656 68.0048 145.013 68.6276 145.726C69.25 146.439 69.5615 147.473 69.5615 148.826C69.5615 149.532 69.4378 150.15 69.1902 150.679C68.9426 151.209 68.5112 151.606 67.8962 151.87V151.981ZM67.2436 148.87C67.2436 148.164 67.1008 147.656 66.816 147.347C66.5309 147.039 66.0582 146.884 65.3982 146.884H64.6331V150.856H65.4208C66.0509 150.856 66.5122 150.687 66.8048 150.348C67.0973 150.01 67.2436 149.517 67.2436 148.87ZM67.3786 155.158C67.3786 154.437 67.2435 153.9 66.9736 153.547C66.7035 153.194 66.2309 153.018 65.5557 153.018H64.6331V157.783H65.6008C65.9907 157.783 66.3019 157.714 66.5347 157.574C66.7671 157.434 66.9472 157.247 67.0748 157.011C67.2021 156.776 67.2847 156.496 67.3223 156.173C67.3596 155.849 67.3786 155.511 67.3786 155.158V155.158Z" fill="#09378B"/>
<path fill-rule="evenodd" clip-rule="evenodd" d="M71.8794 160.012V144.656H78.8331V146.884H74.3098V151.076H78.2481V153.349H74.3098V157.783H78.8331V160.012H71.8794Z" fill="#09378B"/>
<path fill-rule="evenodd" clip-rule="evenodd" d="M85.6517 160.012V153.305H82.8611V160.012H80.4307V144.656H82.8611V151.076H85.6517V144.656H88.0821V160.012H85.6517Z" fill="#09378B"/>
<path fill-rule="evenodd" clip-rule="evenodd" d="M95.6209 160.012V153.305H92.8303V160.012H90.3999V144.656H92.8303V151.076H95.6209V144.656H98.0513V160.012H95.6209Z" fill="#09378B"/>
<path fill-rule="evenodd" clip-rule="evenodd" d="M107.818 156.085C107.818 157.423 107.512 158.434 106.898 159.118C106.285 159.802 105.32 160.144 104.004 160.144C102.687 160.144 101.73 159.817 101.132 159.162C100.533 158.508 100.234 157.563 100.234 156.327V148.605C100.234 148.002 100.305 147.451 100.448 146.951C100.59 146.451 100.81 146.02 101.109 145.66C101.409 145.3 101.801 145.02 102.288 144.821C102.773 144.623 103.353 144.524 104.026 144.524C104.744 144.524 105.346 144.616 105.833 144.799C106.319 144.983 106.708 145.252 106.999 145.605C107.291 145.958 107.5 146.384 107.627 146.884C107.755 147.385 107.818 147.951 107.818 148.583V156.085ZM105.388 148.407C105.388 147.98 105.294 147.598 105.107 147.259C104.919 146.921 104.563 146.752 104.038 146.752C103.752 146.752 103.52 146.815 103.34 146.94C103.16 147.065 103.021 147.219 102.924 147.403C102.826 147.587 102.758 147.793 102.721 148.021C102.683 148.249 102.665 148.458 102.665 148.649V156.372C102.665 156.769 102.766 157.125 102.969 157.442C103.171 157.758 103.52 157.916 104.015 157.916C104.51 157.916 104.863 157.75 105.073 157.42C105.283 157.089 105.388 156.688 105.388 156.217V148.407Z" fill="#09378B"/>
<path fill-rule="evenodd" clip-rule="evenodd" d="M110.046 160.012V144.656H117V146.884H112.476V151.076H116.415V153.349H112.476V157.783H117V160.012H110.046Z" fill="#09378B"/>
<path fill-rule="evenodd" clip-rule="evenodd" d="M8.26091 182.868V169.806H5.7854V182.868H3.35498V167.512H10.6913V182.868H8.26091Z" fill="#09378B"/>
<path fill-rule="evenodd" clip-rule="evenodd" d="M16.4974 167.512C17.9377 167.512 18.9914 167.88 19.6592 168.615C20.3266 169.351 20.6606 170.534 20.6606 172.167C20.6606 172.888 20.5931 173.543 20.4581 174.131C20.3231 174.719 20.0903 175.223 19.7605 175.642C19.4303 176.061 18.9989 176.389 18.4665 176.624C17.9337 176.859 17.2625 176.977 16.4523 176.977H15.4622V182.868H13.0317V167.512H16.4974ZM15.4622 169.74V174.704H16.3173C17.0674 174.704 17.5888 174.494 17.8814 174.073C18.1739 173.652 18.3202 173.02 18.3202 172.178C18.3202 171.424 18.1813 170.83 17.9039 170.394C17.6261 169.958 17.1124 169.74 16.3623 169.74H15.4622Z" fill="#09378B"/>
<path fill-rule="evenodd" clip-rule="evenodd" d="M29.7524 178.94C29.7524 180.279 29.4457 181.29 28.8325 181.974C28.2193 182.658 27.2544 183 25.9379 183C24.6214 183 23.6643 182.673 23.0658 182.018C22.4673 181.364 22.1685 180.419 22.1685 179.183V171.461C22.1685 170.858 22.2395 170.306 22.3815 169.806C22.5236 169.306 22.7441 168.876 23.0433 168.515C23.3425 168.155 23.7353 167.876 24.2216 167.677C24.7076 167.479 25.2874 167.379 25.9604 167.379C26.6785 167.379 27.2805 167.471 27.7667 167.655C28.2527 167.839 28.6416 168.107 28.9334 168.46C29.2249 168.813 29.4342 169.24 29.5614 169.74C29.6887 170.24 29.7524 170.807 29.7524 171.439V178.94ZM27.3219 171.262C27.3219 170.836 27.2281 170.454 27.0406 170.115C26.8528 169.777 26.4966 169.608 25.9717 169.608C25.6865 169.608 25.454 169.67 25.274 169.795C25.0939 169.92 24.9551 170.075 24.8577 170.259C24.7599 170.443 24.6924 170.648 24.6552 170.876C24.6176 171.104 24.5989 171.314 24.5989 171.505V179.227C24.5989 179.624 24.7001 179.981 24.9027 180.297C25.1052 180.614 25.4541 180.772 25.9492 180.772C26.4443 180.772 26.7966 180.606 27.0068 180.275C27.2168 179.944 27.3219 179.544 27.3219 179.073V171.262Z" fill="#09378B"/>
<path fill-rule="evenodd" clip-rule="evenodd" d="M35.6485 167.379C36.2933 167.379 36.8485 167.467 37.3138 167.642C37.7786 167.816 38.1651 168.06 38.4727 168.374C38.7801 168.686 39.0051 169.059 39.1478 169.49C39.2903 169.922 39.3617 170.395 39.3617 170.909L36.9987 171.505C36.9987 170.946 36.8907 170.49 36.6748 170.137C36.4589 169.784 36.1133 169.608 35.6372 169.608C35.3545 169.608 35.1238 169.667 34.9452 169.784C34.7665 169.902 34.6291 170.054 34.5324 170.238C34.4353 170.422 34.3685 170.621 34.3313 170.835C34.294 171.048 34.2757 171.251 34.2757 171.443V179.246C34.2757 179.394 34.2904 179.556 34.3203 179.733C34.3497 179.91 34.4131 180.076 34.5098 180.23C34.6065 180.385 34.7405 180.514 34.9114 180.617C35.0823 180.72 35.3021 180.772 35.57 180.772C36.4625 180.772 36.9164 180.139 36.9312 178.874C37.3363 178.948 37.7414 179.01 38.1464 179.062C38.5515 179.113 38.9566 179.169 39.3617 179.227C39.3315 180.389 39.0051 181.309 38.3827 181.985C37.76 182.662 36.8412 183 35.626 183C34.3355 183 33.3829 182.68 32.7679 182.04C32.1525 181.4 31.8452 180.463 31.8452 179.227V171.571C31.8452 170.998 31.9089 170.457 32.0365 169.95C32.1638 169.442 32.3776 168.997 32.6779 168.615C32.9778 168.232 33.3716 167.931 33.8593 167.71C34.3467 167.49 34.9431 167.379 35.6485 167.379V167.379Z" fill="#09378B"/>
<path fill-rule="evenodd" clip-rule="evenodd" d="M44.9651 169.74V182.868H42.5347V169.74H40.0142V167.512H47.4856V169.74H44.9651Z" fill="#09378B"/>
<path fill-rule="evenodd" clip-rule="evenodd" d="M52.2337 167.512C53.674 167.512 54.7278 167.88 55.3956 168.615C56.0629 169.351 56.397 170.534 56.397 172.167C56.397 172.888 56.3295 173.543 56.1944 174.131C56.0595 174.719 55.8267 175.223 55.4969 175.642C55.1667 176.061 54.7352 176.389 54.2028 176.624C53.6701 176.859 52.9989 176.977 52.1887 176.977H51.1985V182.868H48.7681V167.512H52.2337ZM51.1985 169.74V174.704H52.0537C52.8037 174.704 53.3252 174.494 53.6177 174.073C53.9103 173.652 54.0566 173.02 54.0566 172.178C54.0566 171.424 53.9177 170.83 53.6403 170.394C53.3624 169.958 52.8487 169.74 52.0987 169.74H51.1985Z" fill="#09378B"/>
<path fill-rule="evenodd" clip-rule="evenodd" d="M62.5404 182.868L61.9328 179.668H59.0523C58.9472 180.198 58.8458 180.731 58.7484 181.268C58.6507 181.805 58.5572 182.338 58.4671 182.868H55.9917C56.5166 180.294 57.0416 177.735 57.567 175.19C58.092 172.645 58.6169 170.086 59.1423 167.512H61.8428L65.0159 182.868H62.5404ZM60.4251 171.064C60.2749 172.123 60.1173 173.179 59.9524 174.23C59.7871 175.282 59.6071 176.352 59.4123 177.44H61.5503L60.5375 171.064H60.4251Z" fill="#09378B"/>
<path fill-rule="evenodd" clip-rule="evenodd" d="M71.6321 182.868V176.16H68.8415V182.868H66.4111V167.512H68.8415V173.932H71.6321V167.512H74.0626V182.868H71.6321Z" fill="#09378B"/>
<path fill-rule="evenodd" clip-rule="evenodd" d="M80.0488 167.379C80.6937 167.379 81.2489 167.467 81.7141 167.642C82.179 167.816 82.5654 168.06 82.8731 168.374C83.1804 168.686 83.4055 169.059 83.5482 169.49C83.6907 169.922 83.762 170.395 83.762 170.909L81.3991 171.505C81.3991 170.946 81.2911 170.49 81.0753 170.137C80.8593 169.784 80.5137 169.608 80.0375 169.608C79.7548 169.608 79.5242 169.667 79.3456 169.784C79.1669 169.902 79.0295 170.054 78.9328 170.238C78.8357 170.422 78.7689 170.621 78.7316 170.835C78.6943 171.048 78.676 171.251 78.676 171.443V179.246C78.676 179.394 78.6907 179.556 78.7207 179.733C78.7501 179.91 78.8136 180.076 78.9103 180.23C79.007 180.385 79.1409 180.514 79.3118 180.617C79.4827 180.72 79.7024 180.772 79.9704 180.772C80.8628 180.772 81.3168 180.139 81.3315 178.874C81.7366 178.948 82.1418 179.01 82.5468 179.062C82.9519 179.113 83.357 179.169 83.762 179.227C83.7319 180.389 83.4055 181.309 82.7831 181.985C82.1604 182.662 81.2415 183 80.0263 183C78.7358 183 77.7832 182.68 77.1682 182.04C76.5529 181.4 76.2456 180.463 76.2456 179.227V171.571C76.2456 170.998 76.3093 170.457 76.4369 169.95C76.5642 169.442 76.778 168.997 77.0783 168.615C77.3782 168.232 77.772 167.931 78.2597 167.71C78.7471 167.49 79.3435 167.379 80.0488 167.379V167.379Z" fill="#09378B"/>
<path fill-rule="evenodd" clip-rule="evenodd" d="M89.3655 169.74V182.868H86.935V169.74H84.4146V167.512H91.886V169.74H89.3655Z" fill="#09378B"/>
<path fill-rule="evenodd" clip-rule="evenodd" d="M98.8621 174.837C99.5519 175.057 100.025 175.477 100.28 176.094C100.535 176.712 100.662 177.418 100.662 178.212C100.662 179.816 100.314 180.992 99.6159 181.742C98.9183 182.493 97.8493 182.868 96.409 182.868H93.1685V167.512H96.5891C97.9692 167.512 98.9707 167.869 99.5934 168.582C100.216 169.295 100.527 170.329 100.527 171.682C100.527 172.388 100.404 173.005 100.156 173.535C99.9085 174.064 99.477 174.462 98.8621 174.726V174.837ZM98.2094 171.726C98.2094 171.02 98.0667 170.512 97.7818 170.203C97.4967 169.895 97.0241 169.74 96.364 169.74H95.5989V173.711H96.3866C97.0167 173.711 97.478 173.543 97.7706 173.204C98.0631 172.866 98.2094 172.373 98.2094 171.726V171.726ZM98.3444 178.014C98.3444 177.293 98.2094 176.756 97.9394 176.403C97.6693 176.05 97.1967 175.874 96.5215 175.874H95.5989V180.639H96.5666C96.9565 180.639 97.2677 180.57 97.5005 180.43C97.733 180.29 97.913 180.102 98.0406 179.867C98.1679 179.632 98.2506 179.352 98.2882 179.029C98.3255 178.705 98.3444 178.367 98.3444 178.014V178.014Z" fill="#09378B"/>
<path fill-rule="evenodd" clip-rule="evenodd" d="M110.294 178.94C110.294 180.279 109.987 181.29 109.374 181.974C108.761 182.658 107.796 183 106.479 183C105.163 183 104.206 182.673 103.607 182.018C103.009 181.364 102.71 180.419 102.71 179.183V171.461C102.71 170.858 102.781 170.306 102.923 169.806C103.065 169.306 103.286 168.876 103.585 168.515C103.884 168.155 104.277 167.876 104.763 167.677C105.249 167.479 105.829 167.379 106.502 167.379C107.22 167.379 107.822 167.471 108.308 167.655C108.794 167.839 109.183 168.107 109.475 168.46C109.766 168.813 109.976 169.24 110.103 169.74C110.23 170.24 110.294 170.807 110.294 171.439V178.94ZM107.863 171.262C107.863 170.836 107.77 170.454 107.582 170.115C107.394 169.777 107.038 169.608 106.513 169.608C106.228 169.608 105.996 169.67 105.816 169.795C105.636 169.92 105.497 170.075 105.399 170.259C105.301 170.443 105.234 170.648 105.197 170.876C105.159 171.104 105.14 171.314 105.14 171.505V179.227C105.14 179.624 105.242 179.981 105.444 180.297C105.647 180.614 105.996 180.772 106.491 180.772C106.986 180.772 107.338 180.606 107.548 180.275C107.758 179.944 107.863 179.544 107.863 179.073V171.262Z" fill="#09378B"/>
</svg>
