<svg width="111" height="56" viewBox="0 0 111 56" fill="none" xmlns="http://www.w3.org/2000/svg">
<path fill-rule="evenodd" clip-rule="evenodd" d="M14.6118 3.81844H6.7372V5.50236H12.9873C12.9873 7.37337 12.7533 8.68912 12.058 8.68912C11.5969 8.68912 6.73032 8.68912 6.73032 8.68912V10.373H14.6049V13.934H0.941406V0.44458H14.6049V3.81844H14.6118Z" fill="#16509D"/>
<path fill-rule="evenodd" clip-rule="evenodd" d="M25.2683 4.01172C25.0342 6.63717 24.339 8.88239 23.4167 10.1921H27.3539V4.01172H25.2683ZM29.9008 16.0043V13.9402H21.331V16.0043H16.2373V10.1981C16.2373 10.1981 16.4713 10.1981 17.3937 10.011C18.5501 9.63684 19.4794 8.51423 19.9406 6.82428C20.6358 4.57906 20.8698 2.1407 20.8698 0.456787H33.1428V10.3852H35.2285V16.0043H29.9008Z" fill="#16509D"/>
<path fill-rule="evenodd" clip-rule="evenodd" d="M49.1179 13.94V8.32095V7.01124C49.1179 7.01124 45.4146 10.9464 44.7194 12.069C44.2582 12.8174 43.3289 13.94 41.7114 13.94C39.6257 13.94 37.54 13.94 37.54 13.94V0.450616H42.8678V6.4439V8.50202C42.8678 8.50202 47.7343 2.69583 48.8907 1.38009C49.5859 0.631682 50.7423 0.44458 51.2104 0.44458C51.6716 0.44458 54.6865 0.44458 54.6865 0.44458V13.934H49.1316L49.1179 13.94Z" fill="#16509D"/>
<path fill-rule="evenodd" clip-rule="evenodd" d="M63.243 5.1345H68.5707V0.450928H74.3596V13.9403H68.3436V8.88257H63.243V13.9403H57.4541V0.450928H63.243V5.1345Z" fill="#16509D"/>
<path fill-rule="evenodd" clip-rule="evenodd" d="M83.3907 8.32126H86.8668L85.2424 3.45059L83.3907 8.32126ZM95.2026 13.9403H88.9525L87.7961 11.1278H82.7024L81.78 13.9403H75.2959L81.3188 0.450928H88.9594L95.2095 13.9403H95.2026Z" fill="#16509D"/>
<path fill-rule="evenodd" clip-rule="evenodd" d="M103.773 3.25732C103.312 3.25732 102.617 3.25732 102.149 3.63152C101.687 3.81862 101.453 4.19282 101.453 4.56703C101.453 5.12833 101.687 5.50253 102.149 5.68964C102.61 5.87674 103.305 6.06384 103.773 6.06384H105.391V3.25128H103.773V3.25732ZM105.164 13.9342V8.6893C104.468 8.6893 103.539 8.8764 103.312 9.4377C103.078 9.99901 101.921 12.0571 101.694 12.8116C101.233 13.7471 100.999 13.9342 100.304 13.9342C99.1475 13.9342 94.749 13.9342 94.749 13.9342L96.3735 10.9345C97.3028 9.2506 97.998 8.6893 98.6863 8.12196C99.1475 7.74775 100.304 7.37355 100.304 7.37355C99.8427 7.37355 98.4523 7.18645 97.523 6.62514C96.3666 5.87674 95.8985 5.12833 95.8985 3.99969C95.8985 3.25128 96.1326 2.50287 97.289 1.56133C98.2182 1.00003 99.6018 0.438721 101.921 0.438721H110.952V13.9281H105.164V13.9342Z" fill="#16509D"/>
<path fill-rule="evenodd" clip-rule="evenodd" d="M103.773 3.25732C103.312 3.25732 102.617 3.25732 102.149 3.63152C101.687 3.81862 101.453 4.19282 101.453 4.56703C101.453 5.12833 101.687 5.50253 102.149 5.68964C102.61 5.87674 103.305 6.06384 103.773 6.06384H105.391V3.25128H103.773V3.25732ZM105.164 13.9342V8.6893C104.468 8.6893 103.539 8.8764 103.312 9.4377C103.078 9.99901 101.921 12.0571 101.694 12.8116C101.233 13.7471 100.999 13.9342 100.304 13.9342C99.1475 13.9342 94.749 13.9342 94.749 13.9342L96.3735 10.9345C97.3028 9.2506 97.998 8.6893 98.6863 8.12196C99.1475 7.74775 100.304 7.37355 100.304 7.37355C99.8427 7.37355 98.4523 7.18645 97.523 6.62514C96.3666 5.87674 95.8985 5.12833 95.8985 3.99969C95.8985 3.25128 96.1326 2.50287 97.289 1.56133C98.2182 1.00003 99.6018 0.438721 101.921 0.438721H110.952V13.9281H105.164V13.9342Z" fill="#16509D"/>
<path fill-rule="evenodd" clip-rule="evenodd" d="M86.1718 33.7971V27.4236V25.9268C86.1718 25.9268 82.2345 30.6103 81.3052 31.7329C80.1488 33.2297 79.4536 33.7971 77.8291 33.7971C75.5163 33.7971 73.4307 33.7971 73.4307 33.7971V19.1851H79.4536V25.1783L79.2196 27.4236C79.2196 27.4236 84.7744 21.6174 85.7037 20.3077C86.3989 19.1851 87.7894 19.1851 88.4846 19.1851C88.9458 19.1851 92.1878 19.1851 92.1878 19.1851L91.9538 33.7971H86.1649H86.1718Z" fill="#16509D"/>
<path fill-rule="evenodd" clip-rule="evenodd" d="M103.078 22.1784C102.617 22.1784 101.921 22.3655 101.453 22.5526C100.992 22.9268 100.758 23.1139 100.758 23.6752C100.758 24.2365 100.992 24.6107 101.219 24.7978C101.915 25.172 102.61 25.172 103.305 25.172H104.923V22.1723H103.071L103.078 22.1784ZM104.695 33.7968V28.1777C104 28.1777 103.078 28.3648 102.61 28.9261C102.376 29.4874 101.219 31.7387 100.758 32.6742C100.297 33.6097 100.063 33.7968 99.3677 33.7968C97.9772 33.7968 93.3447 33.7968 93.3447 33.7968L95.1964 30.61C96.1256 28.5519 96.8208 28.1717 97.5092 27.6104C98.2044 27.049 99.3608 26.6748 99.3608 26.6748C98.8996 26.6748 97.5092 26.4877 96.3528 25.9264C94.9623 25.178 94.5011 24.2425 94.7283 23.1139C94.7283 22.3655 94.7283 21.43 96.1187 20.3013C97.048 19.74 98.6656 19.1787 100.978 19.1787H110.939V33.7907H104.689L104.695 33.7968Z" fill="#16509D"/>
<path fill-rule="evenodd" clip-rule="evenodd" d="M7.2042 26.1135H8.82867C10.4531 26.1135 10.9143 24.9909 10.9143 24.4296C10.9143 23.6812 10.6803 22.5586 8.82867 22.5586H7.2042V26.1196V26.1135ZM8.3606 19.1787C10.2122 19.1787 13.2271 19.1787 14.8447 20.4884C16.0011 21.2368 16.9304 22.3594 16.9304 24.4236C16.9304 27.4172 14.1495 29.6685 10.4463 29.6685H7.2042V33.7907H0.954102V19.1787H8.36749H8.3606Z" fill="#16509D"/>
<path fill-rule="evenodd" clip-rule="evenodd" d="M27.5798 22.7461C24.7989 22.7461 24.5718 25.1845 24.5718 26.4942C24.5718 27.8039 24.8058 30.0551 27.5798 30.0551C30.1267 30.0551 30.5878 27.991 30.5878 26.6813C30.3538 24.0558 28.9703 22.7461 27.5798 22.7461ZM34.5251 21.2493C36.1496 22.7461 37.072 24.6232 37.072 26.4942C37.072 30.0551 34.5251 33.9843 27.3458 33.9843C25.7282 33.9843 23.1745 33.7972 20.8617 32.3004C19.01 30.8036 18.0808 28.7394 18.0808 26.4942C17.8467 21.9977 21.5569 18.998 27.5729 18.998C30.3538 18.998 32.9007 19.5594 34.7523 21.2433H34.5182L34.5251 21.2493Z" fill="#16509D"/>
<path fill-rule="evenodd" clip-rule="evenodd" d="M53.7505 23.4943C53.0552 23.3072 51.4308 23.1201 50.0472 23.1201C47.0392 23.1201 45.1807 24.617 45.1807 26.494C45.1807 28.365 46.3371 29.8679 49.8132 29.8679C51.6648 29.8679 53.2893 29.6808 53.7505 29.6808L54.4457 33.6159C51.4376 33.9901 48.8908 33.9901 48.4227 33.9901C42.6338 33.9901 38.2354 31.1776 38.2354 26.5C38.4694 21.8165 41.9386 19.0039 48.6568 19.0039C51.2036 19.0039 53.5164 19.191 54.6797 19.5652L53.7573 23.5004L53.7505 23.4943Z" fill="#16509D"/>
<path fill-rule="evenodd" clip-rule="evenodd" d="M70.6557 23.4943C69.9605 23.3072 68.3429 23.1201 66.7184 23.1201C63.7104 23.1201 61.8588 24.617 61.8588 26.494C61.8588 28.365 63.0152 29.8679 66.7184 29.8679C68.3429 29.8679 69.9605 29.6808 70.6557 29.6808L71.1169 33.6159C68.1089 33.9901 65.7892 33.9901 65.328 33.9901C59.3051 33.9901 55.1406 31.1776 55.1406 26.5C55.1406 21.8165 58.8439 19.0039 65.328 19.0039C67.8749 19.0039 70.4217 19.191 71.5781 19.5652L70.6488 23.5004L70.6557 23.4943Z" fill="#16509D"/>
<path d="M110.952 36.8208H0.480469V55.5672H110.952V36.8208Z" fill="#E31E24"/>
<path d="M15.6794 43.7916V43.339C15.6794 41.6611 14.5849 40.6652 12.575 40.6652C10.4343 40.6652 9.34668 41.6611 9.34668 43.7916V47.1112C9.34668 48.7287 9.96618 50.1531 12.5474 50.1531C15.0048 50.1531 15.6794 48.7408 15.6794 47.087V46.6947H13.7107V47.1896C13.7107 48.3605 13.3253 48.7649 12.5337 48.7649C11.7008 48.7649 11.3566 48.3726 11.3566 47.1896V43.5924C11.3566 42.4457 11.7146 42.0534 12.5474 42.0534C13.3803 42.0534 13.7107 42.4457 13.7107 43.5924V43.7916H15.6794ZM20.6079 46.3809V48.0587C20.6079 48.6744 20.1604 48.9701 19.6167 48.9701C19.0591 48.9701 18.8388 48.5416 18.8388 48.0225C18.8388 47.7087 18.9972 47.2922 19.4446 47.0387L20.6079 46.3809ZM18.8388 45.1677V45.0289C18.8388 44.4133 19.2587 44.1477 19.7612 44.1477C20.305 44.1477 20.6079 44.3348 20.6079 44.7513C20.6079 45.3307 19.83 45.6325 18.9696 45.9523C17.6067 46.4593 16.9734 47.0387 16.9734 48.2338C16.9734 49.5314 17.8201 50.141 18.9834 50.141C19.9333 50.141 20.3463 49.8151 20.6905 49.284C20.6905 49.459 20.718 49.7909 20.835 49.9418H22.6866C22.487 49.7004 22.4595 49.3986 22.4595 48.9339V44.6426C22.4595 43.3933 21.2687 42.8742 19.7474 42.8742C18.2125 42.8742 17.118 43.7313 17.118 44.8297V45.1677H18.8388ZM25.6603 43.0493H23.8912V49.9418H25.6603V46.8999H27.3536V49.9418H29.1226V43.0493H27.3536V45.6747H25.6603V43.0493ZM32.3233 43.0493H30.5543V49.9418H32.3233V47.9742L32.7432 47.2681L33.8377 49.9418H35.8063L33.9547 45.8256L35.8063 43.0493H33.9547L32.3302 45.6083V43.0493H32.3233ZM36.0885 43.0493V44.2745H37.8989V49.9418H39.6679V44.2745H41.4782V43.0493H36.0954H36.0885ZM42.1666 46.1515V47.2621H45.8285V46.1515H42.1666ZM47.0469 40.8282V49.9358H49.0155V42.2163H51.6174V49.9358H53.5861V40.8282H47.0537H47.0469ZM60.3455 46.6585V45.053C60.3455 43.5019 59.2098 42.8682 57.6472 42.8682C56.0847 42.8682 54.949 43.4838 54.949 45.053V47.9561C54.949 49.5193 56.0847 50.141 57.6472 50.141C59.2098 50.141 60.3455 49.5073 60.3455 47.9561V47.769H58.5765V48.1613C58.5765 48.6382 58.2186 48.9158 57.6404 48.9158C57.069 48.9158 56.7042 48.6623 56.7042 48.1613V46.6585H60.3386H60.3455ZM56.7111 45.5238V44.8539C56.7111 44.3469 57.069 44.0994 57.6472 44.0994C58.2186 44.0994 58.5834 44.3771 58.5834 44.8539V45.5238H56.718H56.7111ZM61.1371 43.0493V44.2745H62.9474V49.9418H64.7165V44.2745H66.5268V43.0493H61.144H61.1371ZM72.7562 46.6585V45.053C72.7562 43.5019 71.6205 42.8682 70.0579 42.8682C68.4954 42.8682 67.3597 43.4838 67.3597 45.053V47.9561C67.3597 49.5193 68.4954 50.141 70.0579 50.141C71.6205 50.141 72.7562 49.5073 72.7562 47.9561V47.769H70.9872V48.1613C70.9872 48.6382 70.6293 48.9158 70.0511 48.9158C69.4797 48.9158 69.1149 48.6623 69.1149 48.1613V46.6585H72.7493H72.7562ZM69.1218 45.5238V44.8539C69.1218 44.3469 69.4797 44.0994 70.0579 44.0994C70.6293 44.0994 70.9941 44.3771 70.9941 44.8539V45.5238H69.1287H69.1218ZM76.7623 44.1477C77.2235 44.1477 77.609 44.4133 77.609 44.9565V48.1131C77.609 48.6563 77.2235 48.9218 76.7623 48.9218C76.3149 48.9218 75.8882 48.6563 75.8882 48.0889V44.9867C75.8882 44.4193 76.3218 44.1538 76.7623 44.1538V44.1477ZM74.1191 43.0493V52.2353H75.8882V49.2055C76.191 49.8211 76.721 50.141 77.3956 50.141C78.4694 50.141 79.4469 49.5254 79.4469 48.1976V44.8056C79.4469 43.4174 78.4694 42.8742 77.3956 42.8742C76.7761 42.8742 76.1635 43.1881 75.8882 43.8218V43.0493H74.1191ZM82.2346 44.0572C82.3929 42.8199 82.9367 42.3914 84.0312 42.1379C85.3665 41.8361 85.8415 41.3533 86.0274 40.6592H84.7746C84.6163 40.961 84.1275 41.0998 83.1363 41.3171C81.6289 41.643 80.7409 42.7656 80.7409 44.697V47.8898C80.7409 49.0908 81.4293 50.135 83.5287 50.135C85.5799 50.135 86.3027 49.0848 86.3027 47.8898V45.4152C86.3027 44.0149 85.5386 43.17 83.8591 43.17C83.04 43.17 82.5926 43.6468 82.2759 44.0512H82.2346V44.0572ZM83.5287 48.9158C82.9849 48.9158 82.5788 48.7166 82.5788 48.095V45.216C82.5788 44.5823 82.9987 44.3952 83.5425 44.3952C84.1138 44.3952 84.4648 44.5702 84.4648 45.216V48.095C84.4648 48.7408 84.1069 48.9158 83.5287 48.9158ZM87.0599 43.0493C88.6981 48.9701 89.1111 50.4428 89.1111 50.5575C89.1111 50.8109 88.9803 51.0101 88.7256 51.0101H88.0786V52.181C88.409 52.2172 88.6706 52.2293 89.0147 52.2293C90.0748 52.2293 90.5773 51.9517 90.8801 50.8049L92.9658 43.0432H91.1142L90.1092 48.3303H90.0816L89.0354 43.0432H87.0667L87.0599 43.0493ZM96.5382 44.1477C96.9994 44.1477 97.3849 44.4133 97.3849 44.9565V48.1131C97.3849 48.6563 96.9994 48.9218 96.5382 48.9218C96.0908 48.9218 95.6641 48.6563 95.6641 48.0889V44.9867C95.6641 44.4193 96.0977 44.1538 96.5382 44.1538V44.1477ZM93.895 43.0493V52.2353H95.6641V49.2055C95.9669 49.8211 96.4969 50.141 97.1715 50.141C98.2453 50.141 99.2228 49.5254 99.2228 48.1976V44.8056C99.2228 43.4174 98.2453 42.8742 97.1715 42.8742C96.552 42.8742 95.9394 43.1881 95.6641 43.8218V43.0493H93.895ZM100.586 43.0493V49.9418H102.355V44.2745H105.184V43.0493H100.586Z" fill="#FEFEFE"/>
</svg>
