<svg width="68" height="68" viewBox="0 0 68 68" fill="none" xmlns="http://www.w3.org/2000/svg">
<path d="M68 34C68 52.7777 52.7777 68 34 68C15.2223 68 0 52.7777 0 34C0 15.2223 15.2223 0 34 0C52.7777 0 68 15.2223 68 34Z" fill="#FDB301"/>
<path d="M31.95 54.58C27.7353 54.58 24.468 53.652 22.148 51.796C19.8667 49.94 18.726 47.33 18.726 43.966C18.726 42.11 19.1127 40.4473 19.886 38.978C20.698 37.5086 22.032 36.0586 23.888 34.628C25.7827 33.1586 28.3347 31.554 31.544 29.814C34.2507 28.3833 36.358 27.146 37.866 26.102C39.374 25.058 40.4373 24.0913 41.056 23.202C41.6747 22.274 41.984 21.2686 41.984 20.186C41.984 18.3686 41.3073 16.996 39.954 16.068C38.6007 15.1013 36.6287 14.618 34.038 14.618C31.486 14.618 29.514 15.1013 28.122 16.068C26.73 17.0346 26.034 18.4073 26.034 20.186C26.034 21.0366 26.2273 21.8873 26.614 22.738C27.0393 23.55 27.7933 24.478 28.876 25.522C29.9587 26.566 31.4667 27.9 33.4 29.524L50.278 43.212L48.016 46.46L29.05 30.974C27.1553 29.4273 25.6667 28.0546 24.584 26.856C23.5013 25.6573 22.728 24.5166 22.264 23.434C21.8 22.3513 21.568 21.23 21.568 20.07C21.568 17.2086 22.6507 15.0046 24.816 13.458C27.02 11.8726 30.0747 11.08 33.98 11.08C37.8853 11.08 40.9207 11.8726 43.086 13.458C45.29 15.0046 46.392 17.2086 46.392 20.07C46.392 21.6166 45.986 23.086 45.174 24.478C44.4007 25.8313 43.086 27.204 41.23 28.596C39.4127 29.9493 36.9573 31.438 33.864 33.062C31.2733 34.4153 29.2047 35.6526 27.658 36.774C26.15 37.8953 25.0673 38.9973 24.41 40.08C23.7913 41.1626 23.482 42.342 23.482 43.618C23.482 45.8606 24.3133 47.6006 25.976 48.838C27.6773 50.0753 30.0553 50.694 33.11 50.694C36.126 50.694 38.91 50.0753 41.462 48.838C44.014 47.6006 46.3147 45.7446 48.364 43.27V30.046H52.598V54H48.422L48.364 48.548H48.248C46.2373 50.4813 43.8207 51.97 40.998 53.014C38.1753 54.058 35.1593 54.58 31.95 54.58Z" fill="#505D79"/>
<path fill-rule="evenodd" clip-rule="evenodd" d="M21.5233 52.5768L21.5169 52.5717C18.9669 50.497 17.726 47.5822 17.726 43.966C17.726 41.9671 18.1436 40.1414 19.0011 38.5122L19.0058 38.5032L19.0108 38.4943C19.9095 36.868 21.3525 35.32 23.2763 33.8368C24.449 32.9275 25.8557 31.9754 27.4926 30.9802C26.0029 29.7199 24.783 28.5681 23.8419 27.5262C22.7108 26.274 21.865 25.0416 21.3449 23.8279C20.8284 22.6227 20.568 21.3675 20.568 20.07C20.568 16.9146 21.784 14.3952 24.2338 12.6449C26.6677 10.895 29.9544 10.08 33.98 10.08C38.0005 10.08 41.2706 10.893 43.6687 12.6452C46.1531 14.3923 47.392 16.9103 47.392 20.07C47.392 21.7999 46.9358 23.4409 46.04 24.9781C45.1739 26.4918 43.745 27.9597 41.83 29.396L41.8273 29.398C40.746 30.2032 39.4552 31.0482 37.9583 31.9332L47.364 39.5612V29.046H53.598V55H47.4326L47.386 50.6197C45.6141 52.0087 43.5981 53.1185 41.3449 53.9519C38.404 55.0396 35.2698 55.58 31.95 55.58C27.6013 55.58 24.0817 54.6235 21.5233 52.5768ZM47.3724 49.34C47.6719 49.0852 47.9633 48.8216 48.2467 48.5492C48.2472 48.5488 48.2476 48.5484 48.248 48.548H48.3638L48.422 54H52.598V30.046H48.364V41.6597L36.1988 31.7938C36.5174 31.6142 36.8274 31.4365 37.1289 31.2605C38.7397 30.3207 40.1067 29.4324 41.23 28.596C43.086 27.204 44.4007 25.8313 45.174 24.478C45.986 23.086 46.392 21.6166 46.392 20.07C46.392 17.2086 45.29 15.0046 43.086 13.458C40.9207 11.8726 37.8853 11.08 33.98 11.08C30.0747 11.08 27.02 11.8726 24.816 13.458C22.6507 15.0046 21.568 17.2086 21.568 20.07C21.568 21.23 21.8 22.3513 22.264 23.434C22.728 24.5166 23.5013 25.6573 24.584 26.856C25.5398 27.9142 26.8121 29.108 28.4008 30.4375C28.6116 30.6139 28.828 30.7927 29.05 30.974L29.223 31.1152C29.0357 31.2241 28.8512 31.3324 28.6695 31.4401C28.6694 31.4402 28.6695 31.4401 28.6695 31.4401C28.547 31.5127 28.4257 31.5851 28.3058 31.6572C26.5668 32.7023 25.0942 33.6925 23.888 34.628C22.032 36.0586 20.698 37.5086 19.886 38.978C19.1127 40.4473 18.726 42.11 18.726 43.966C18.726 47.33 19.8667 49.94 22.148 51.796C24.468 53.652 27.7353 54.58 31.95 54.58C35.1593 54.58 38.1753 54.058 40.998 53.014C43.4223 52.1173 45.5471 50.8927 47.3724 49.34ZM32.0729 28.3974C32.3349 28.6224 32.6067 28.8541 32.8883 29.0925C33.2105 28.9167 33.5227 28.7441 33.8251 28.5747C35.4649 27.656 36.8119 26.8317 37.866 26.102C39.374 25.058 40.4373 24.0913 41.056 23.202C41.6747 22.274 41.984 21.2686 41.984 20.186C41.984 18.3686 41.3073 16.996 39.954 16.068C38.6007 15.1013 36.6287 14.618 34.038 14.618C31.486 14.618 29.514 15.1013 28.122 16.068C26.73 17.0346 26.034 18.4073 26.034 20.186C26.034 21.0366 26.2273 21.8873 26.614 22.738C27.0393 23.55 27.7933 24.478 28.876 25.522C29.697 26.3137 30.7627 27.2721 32.0729 28.3974ZM27.5127 22.2983C27.8698 22.9698 28.5344 23.8034 29.5702 24.8021C30.4314 25.6326 31.5768 26.6592 33.0106 27.8839C34.7812 26.9016 36.2077 26.0338 37.2968 25.2798C38.7596 24.267 39.7091 23.3836 40.2295 22.639C40.7384 21.8725 40.984 21.0618 40.984 20.186C40.984 18.6568 40.4374 17.6119 39.3885 16.8927L39.3806 16.8873L39.3728 16.8817C38.2598 16.0867 36.5285 15.618 34.038 15.618C31.5929 15.618 29.8518 16.0842 28.6924 16.8893C27.585 17.6584 27.034 18.7157 27.034 20.186C27.034 20.8722 27.1872 21.5738 27.5127 22.2983ZM32.4994 33.7904C32.1764 33.9668 31.8629 34.1412 31.5588 34.3134C30.0149 35.1877 28.7146 36.0079 27.658 36.774C26.15 37.8953 25.0673 38.9973 24.41 40.08C23.7913 41.1626 23.482 42.342 23.482 43.618C23.482 45.8606 24.3133 47.6006 25.976 48.838C27.6773 50.0753 30.0553 50.694 33.11 50.694C36.126 50.694 38.91 50.0753 41.462 48.838C42.9963 48.094 44.4398 47.1265 45.7924 45.9353C46.0429 45.7147 46.2904 45.4864 46.5347 45.2504L32.4994 33.7904ZM32.3908 34.9928C30.7221 35.9247 29.3439 36.7872 28.2499 37.58C26.8084 38.6525 25.8382 39.6592 25.2717 40.5876C24.7458 41.5124 24.482 42.5163 24.482 43.618C24.482 45.5726 25.1856 47.0013 26.5686 48.0324C28.0373 49.0986 30.178 49.694 33.11 49.694C35.9847 49.694 38.6183 49.1054 41.0257 47.9381C42.4263 47.2591 43.7535 46.3794 45.0067 45.2939L32.3908 34.9928Z" fill="#505D79"/>
</svg>
