<svg width="359" height="239" viewBox="0 0 359 239" fill="none" xmlns="http://www.w3.org/2000/svg">
<path d="M202.283 49.0083L188.814 57.5797L188.782 57.541L186.547 58.9605C181.877 61.9314 176.292 62.9553 170.835 61.8383C165.377 60.7213 160.692 57.5953 157.637 53.0419L122.116 0L115.497 4.21202L142.378 44.3464L107.008 13.4583L103.181 20.4706L133.126 46.6192L100.079 32.0284L99.5935 40.274L139.999 58.115L100.548 50.3736L102.45 58.6114L140.883 66.1512L105.966 68.0283L109.904 75.537L146.968 73.5513L115.377 83.55L120.843 89.9262L155.011 79.113L87 122.412L91.3198 128.866L169.538 79.0665L114.956 129.308L120.381 134.916L207.16 55.0432L204.447 52.243L202.283 49.0083Z" fill="#525D77"/>
<path d="M215.418 39.9791C212.594 39.3974 209.825 41.166 209.229 43.9197C208.632 46.6734 210.446 49.3728 213.27 49.9546C216.094 50.5363 218.863 48.7678 219.46 46.014C220.056 43.2526 218.242 40.5532 215.418 39.9791Z" fill="#525D77"/>
<path d="M228.329 33.5877C227.573 33.5024 226.794 33.4636 226.03 33.4636C225.282 33.7351 224.542 34.0532 223.818 34.4255C223.214 34.7358 222.625 35.0848 222.06 35.4572L226.022 41.1507C226.022 41.1507 226.03 41.143 226.038 41.143V41.1663C226.515 41.1663 226.992 41.1895 227.462 41.2438C233.922 41.942 238.79 47.2555 238.79 53.6006C238.79 60.4578 233.07 66.035 226.038 66.035V73.7454C237.43 73.7454 246.698 64.7086 246.698 53.6006C246.69 43.3227 238.79 34.7202 228.329 33.5877Z" fill="#525D77"/>
<path fill-rule="evenodd" clip-rule="evenodd" d="M353.974 89.3523L320.095 126.265L262.997 142.793L177.768 219.5H82.6197L45.346 204.787L3.25174 238.56L0.748535 235.44L44.6543 200.213L83.3806 215.5H176.233L261.003 139.206L317.906 122.735L351.027 86.6476L353.974 89.3523Z" fill="#F2B43F"/>
<path fill-rule="evenodd" clip-rule="evenodd" d="M354.632 84.8108L358.017 118.642L354.037 119.04L351.05 89.1892L321.199 92.1763L320.801 88.1961L354.632 84.8108Z" fill="#F2B43F"/>
</svg>
