<svg width="133" height="136" viewBox="0 0 133 136" fill="none" xmlns="http://www.w3.org/2000/svg">
<g clip-path="url(#clip0_208_35)">
<path d="M112.12 43.9119L133 103.664H115.059L97.0772 50.9427V103.664H78V0H97.0772V39.0754L115.059 0H133L112.12 43.9119Z" fill="white"/>
<path d="M15.9515 111.598L9.97406 121.836L15.9515 135.776H10.7628L5.65968 123.485V135.776H0.128906V111.598H5.65968V120.721L10.7628 111.598H15.9515Z" fill="white"/>
<path d="M34.4933 111.598H40.1191V135.776H34.6738V123.23L29.4852 135.776H23.8594V111.598H29.3902V125.967L34.4933 111.598Z" fill="white"/>
<path d="M54.9693 111.682C57.3735 112.079 59.4167 112.927 61.1177 114.217C62.8188 115.507 63.6645 117.104 63.6645 119.007C63.6645 120.017 63.3985 120.949 62.8758 121.803C62.3531 122.656 61.6119 123.366 60.6806 123.927C59.7398 124.488 58.8465 124.944 58.0007 125.296C57.155 125.648 56.2522 125.954 55.3209 126.221L54.4371 126.475V135.768H48.9062V111.59H54.4371L54.9693 111.682ZM54.4371 123.946C57.0124 122.689 58.3048 121.047 58.3048 119.013C58.3048 116.791 57.0124 115.09 54.4371 113.91V123.946Z" fill="white"/>
<path d="M81.5044 111.598C82.0936 111.957 82.6732 112.542 83.2624 113.351C83.8516 114.159 84.3743 115.098 84.8399 116.173C85.3056 117.248 85.6762 118.441 85.9328 119.75C86.1989 121.061 86.3319 122.364 86.3319 123.654C86.3319 126.261 85.7807 128.731 84.6594 131.064C83.5475 133.404 82.3786 134.968 81.1432 135.769H74.1965C72.9706 134.974 71.7922 133.404 70.6804 131.064C69.5685 128.725 69.0078 126.255 69.0078 123.654C69.0078 121.067 69.502 118.597 70.4998 116.245C71.4976 113.885 72.638 112.341 73.9305 111.598H81.5044ZM77.7317 133.925C78.5489 133.162 79.2997 131.761 79.9744 129.721C80.6491 127.676 80.9817 125.661 80.9817 123.661C80.9817 121.51 80.6301 119.392 79.9269 117.287C79.2237 115.188 78.4919 113.794 77.7317 113.11C76.9144 113.794 76.1636 115.188 75.4889 117.287C74.8142 119.385 74.4816 121.51 74.4816 123.661C74.4816 125.655 74.8142 127.676 75.4889 129.721C76.1636 131.761 76.9049 133.162 77.7317 133.925Z" fill="white"/>
<path d="M108.31 117.104C108.31 117.958 107.959 118.759 107.255 119.514C106.552 120.265 105.735 120.851 104.794 121.268C105.26 121.515 105.716 121.855 106.153 122.292C106.59 122.728 106.97 123.21 107.294 123.745C107.617 124.279 107.864 124.846 108.044 125.452C108.225 126.058 108.31 126.651 108.31 127.218C108.31 128.339 108.063 129.395 107.569 130.385C107.075 131.376 106.467 132.184 105.764 132.809C105.06 133.435 104.357 133.989 103.654 134.465C102.951 134.94 102.332 135.279 101.809 135.495L101.107 135.781H93.3711V111.604H101.373C103.017 111.89 104.585 112.536 106.077 113.539C107.56 114.542 108.31 115.735 108.31 117.104ZM98.9018 120.72C99.7856 120.492 100.67 120.056 101.582 119.411C102.494 118.765 102.941 117.997 102.941 117.104C102.941 116.289 102.598 115.546 101.933 114.894C101.258 114.236 100.575 113.786 99.8712 113.539L98.9018 113.167V120.72ZM98.9018 133.865C99.8996 133.064 100.583 132.496 100.963 132.151C101.344 131.812 101.771 131.18 102.237 130.268C102.703 129.356 102.941 128.339 102.941 127.218C102.941 126.286 102.666 125.381 102.105 124.494C101.554 123.608 100.973 122.95 100.393 122.513C99.8046 122.076 99.339 121.822 98.9874 121.744L98.9018 121.718V133.865Z" fill="white"/>
<path d="M128.432 111.598L133.003 135.776H127.557L127.025 133.58H121.314L120.877 135.776H115.336L119.907 111.598H128.432ZM121.846 131.475H126.588L124.212 116.988L121.846 131.475Z" fill="white"/>
<path d="M65.8716 93.6654H66V0H33.1835L12.6916 94.6523L0 94.5614V103.522L65.8716 103.664V93.6654ZM30.2653 94.6523L48.4263 8.70687V94.6523H30.2653Z" fill="white"/>
</g>
<defs>
<clipPath id="clip0_208_35">
<rect width="133" height="136" fill="white"/>
</clipPath>
</defs>
</svg>
