<svg width="68" height="68" viewBox="0 0 68 68" fill="none" xmlns="http://www.w3.org/2000/svg">
<path d="M68 34C68 52.7777 52.7777 68 34 68C15.2223 68 0 52.7777 0 34C0 15.2223 15.2223 0 34 0C52.7777 0 68 15.2223 68 34Z" fill="#FDB301"/>
<path d="M46.6502 27.7303L42.602 30.3066L42.5924 30.2949L41.9205 30.7216C40.5169 31.6145 38.8383 31.9223 37.198 31.5865C35.5577 31.2508 34.1493 30.3112 33.2311 28.9426L22.5546 13L20.5651 14.266L28.6448 26.3291L18.0138 17.0451L16.8636 19.1528L25.8639 27.0122L15.9311 22.6267L15.7852 25.105L27.9299 30.4674L16.0721 28.1406L16.6436 30.6166L28.1953 32.8828L17.7005 33.4471L18.8841 35.7039L30.0245 35.1071L20.5293 38.1124L22.172 40.0288L32.442 36.7787L12 49.7931L13.2984 51.7329L36.8082 36.7648L20.4025 51.8657L22.0333 53.5514L48.116 29.5442L47.3006 28.7025L46.6502 27.7303Z" fill="#525D77"/>
<path d="M50.5976 25.0162C49.7487 24.8413 48.9166 25.3729 48.7373 26.2006C48.5579 27.0283 49.1031 27.8396 49.952 28.0145C50.8008 28.1893 51.633 27.6578 51.8123 26.8301C51.9916 26.0001 51.4464 25.1887 50.5976 25.0162Z" fill="#525D77"/>
<path d="M54.479 23.0954C54.2518 23.0698 54.0175 23.0581 53.7879 23.0581C53.5631 23.1397 53.3408 23.2353 53.1232 23.3472C52.9414 23.4405 52.7645 23.5454 52.5947 23.6573L53.7855 25.3686C53.7855 25.3686 53.7879 25.3663 53.7903 25.3663V25.3733C53.9338 25.3733 54.0772 25.3803 54.2183 25.3966C56.1599 25.6064 57.6233 27.2035 57.6233 29.1106C57.6233 31.1717 55.9041 32.848 53.7903 32.848V35.1655C57.2144 35.1655 60.0001 32.4493 60.0001 29.1106C59.9977 26.0214 57.6233 23.4358 54.479 23.0954Z" fill="#525D77"/>
</svg>
