<svg width="72" height="62" viewBox="0 0 72 62" fill="none" xmlns="http://www.w3.org/2000/svg">
<path d="M51.2861 22.5215L45.2943 26.4604L45.2801 26.4426L44.2856 27.0949C42.2081 28.4602 39.7236 28.9307 37.2958 28.4174C34.8679 27.9041 32.7833 26.4675 31.4243 24.3751L15.6219 0L12.6773 1.93561L24.6362 20.3791L8.90101 6.18467L7.19867 9.40712L20.5201 21.4236L5.81839 14.7185L5.6025 18.5077L23.5779 26.7064L6.0272 23.1489L6.87307 26.9345L23.9708 30.3994L8.43738 31.262L10.1893 34.7126L26.6783 33.8L12.6242 38.3949L15.0556 41.325L30.2564 36.3559L0 56.2538L1.92177 59.2196L36.7189 36.3345L12.4366 59.4228L14.8504 62L53.4556 25.2948L52.2487 24.0079L51.2861 22.5215Z" fill="#525D77"/>
<path d="M57.1293 18.3722C55.8729 18.1048 54.6412 18.9176 54.3758 20.183C54.1103 21.4485 54.9173 22.689 56.1737 22.9563C57.4301 23.2237 58.6617 22.4109 58.9272 21.1455C59.1926 19.8765 58.3857 18.636 57.1293 18.3722Z" fill="#525D77"/>
<path d="M62.8733 15.435C62.5371 15.3958 62.1903 15.3779 61.8505 15.3779C61.5178 15.5027 61.1887 15.6488 60.8666 15.8199C60.5976 15.9625 60.3358 16.1229 60.0845 16.294L61.847 18.9105C61.847 18.9105 61.8505 18.9069 61.8541 18.9069V18.9176C62.0664 18.9176 62.2788 18.9283 62.4876 18.9533C65.3614 19.2741 67.5273 21.7159 67.5273 24.6318C67.5273 27.7829 64.9827 30.3459 61.8541 30.3459V33.8892C66.9221 33.8892 71.0453 29.7364 71.0453 24.6318C71.0417 19.9086 67.5273 15.9554 62.8733 15.435Z" fill="#525D77"/>
</svg>
