<svg width="109" height="37" viewBox="0 0 109 37" fill="none" xmlns="http://www.w3.org/2000/svg">
<path d="M18.733 0H109.001V28.3831L4.07617 33.734L18.733 0Z" fill="#FDB301"/>
<path fill-rule="evenodd" clip-rule="evenodd" d="M15.3881 2.19287H105.877V30.8367L0.610352 36.2051L15.3881 2.19287ZM15.716 2.69287L1.39031 35.6647L105.377 30.3615V2.69287H15.716Z" fill="black"/>
<path d="M27.3779 23.7305V7.42647H29.8347V23.7305H27.3779ZM33.5722 9.88324V7.42647H36.029V9.88324H33.5722ZM33.5722 23.7305V12.1167H36.029V23.7305H33.5722ZM45.8621 23.9538C45.073 23.9538 44.3434 23.8124 43.6734 23.5295C43.0034 23.2466 42.4524 22.852 42.0206 22.3458H41.976L41.9536 23.7305H39.6532V7.42647H42.0653V13.5014H42.11C42.5269 12.9803 43.0629 12.5857 43.7181 12.3177C44.3732 12.0348 45.0879 11.8933 45.8621 11.8933C47.4108 11.8933 48.6243 12.4293 49.5028 13.5014C50.3813 14.5585 50.8205 16.0326 50.8205 17.9236C50.8205 19.8145 50.3813 21.296 49.5028 22.3681C48.6243 23.4252 47.4108 23.9538 45.8621 23.9538ZM45.3038 21.9437C46.3163 21.9437 47.0905 21.5938 47.6267 20.894C48.1776 20.1942 48.4531 19.2041 48.4531 17.9236C48.4531 16.6431 48.1776 15.6529 47.6267 14.9531C47.0905 14.2533 46.3163 13.9034 45.3038 13.9034C44.6933 13.9034 44.1424 14.03 43.651 14.2831C43.1597 14.5362 42.7726 14.8861 42.4897 15.3328C42.2068 15.7646 42.0653 16.2634 42.0653 16.8292V19.018C42.0653 19.5689 42.2068 20.0677 42.4897 20.5143C42.7726 20.961 43.1597 21.3109 43.651 21.5641C44.1424 21.8172 44.6933 21.9437 45.3038 21.9437ZM57.7935 23.9538C56.1407 23.9538 54.8677 23.5965 53.9743 22.8818C53.0958 22.1671 52.6566 21.1472 52.6566 19.822C52.6566 19.1073 52.8055 18.467 53.1033 17.9012C53.416 17.3354 53.9296 16.7696 54.6443 16.2038C55.3739 15.638 56.3641 15.0201 57.6148 14.3501C58.6273 13.8141 59.409 13.3599 59.9599 12.9877C60.5108 12.6006 60.8905 12.2507 61.0989 11.938C61.3223 11.6104 61.434 11.2605 61.434 10.8883C61.434 10.2778 61.2032 9.81623 60.7416 9.50355C60.2949 9.19087 59.6323 9.03454 58.7538 9.03454C57.8903 9.03454 57.2202 9.19832 56.7438 9.52589C56.2673 9.83857 56.0291 10.2927 56.0291 10.8883C56.0291 11.201 56.111 11.5211 56.2747 11.8487C56.4385 12.1613 56.7289 12.5187 57.1458 12.9207C57.5627 13.3227 58.1359 13.8215 58.8655 14.4171L64.8064 19.1966L63.6674 20.9164L56.4758 15.0871C55.7908 14.5213 55.2399 14.0076 54.823 13.5461C54.421 13.0845 54.1307 12.6378 53.952 12.206C53.7733 11.7593 53.684 11.2977 53.684 10.8213C53.684 9.67478 54.1232 8.78886 55.0017 8.1635C55.8951 7.52325 57.1309 7.20312 58.7092 7.20312C60.3024 7.20312 61.5456 7.52325 62.439 8.1635C63.3324 8.78886 63.7791 9.67478 63.7791 10.8213C63.7791 11.4466 63.6153 12.0348 63.2877 12.5857C62.975 13.1366 62.4539 13.6875 61.7243 14.2384C61.0096 14.7893 60.0492 15.3775 58.8432 16.0028C57.9349 16.4793 57.2128 16.9111 56.6768 17.2982C56.1407 17.6853 55.7536 18.065 55.5154 18.4373C55.292 18.8095 55.1804 19.2115 55.1804 19.6433C55.1804 20.3729 55.4633 20.9387 56.0291 21.3407C56.6098 21.7427 57.4212 21.9437 58.4635 21.9437C59.5207 21.9437 60.4959 21.7278 61.3893 21.296C62.2827 20.8643 63.1165 20.1942 63.8907 19.286V14.6851H66.1242V23.7305H63.9131L63.8907 21.9884H63.8461C63.1016 22.6138 62.2008 23.0977 61.1436 23.4401C60.0865 23.7826 58.9697 23.9538 57.7935 23.9538ZM69.4729 23.7305V7.42647H71.9297V23.7305H69.4729ZM78.2786 23.9538C77.1173 23.9538 76.2016 23.6411 75.5315 23.0158C74.8615 22.3755 74.5265 21.5119 74.5265 20.425C74.5265 19.0701 75.0625 18.0278 76.1346 17.2982C77.2066 16.5537 78.7328 16.1815 80.7131 16.1815H82.3882C82.3882 15.5859 82.3137 15.1243 82.1648 14.7968C82.0159 14.4692 81.7553 14.2384 81.3831 14.1044C81.0258 13.9704 80.527 13.9034 79.8867 13.9034C79.1273 13.9034 78.3531 13.9779 77.564 14.1267C76.7897 14.2756 76.0527 14.499 75.3529 14.7968L75.0178 12.809C75.7623 12.5261 76.5812 12.3028 77.4746 12.139C78.3829 11.9752 79.2911 11.8933 80.1994 11.8933C81.3608 11.8933 82.269 12.0348 82.9242 12.3177C83.5942 12.6006 84.0707 13.077 84.3536 13.7471C84.6514 14.4171 84.8003 15.303 84.8003 16.4048V23.7305H82.4998L82.4775 22.3904H82.4328C82.0308 22.852 81.4352 23.2317 80.6461 23.5295C79.8718 23.8124 79.0827 23.9538 78.2786 23.9538ZM79.1274 21.9884C79.7229 21.9884 80.2664 21.8767 80.7578 21.6534C81.264 21.4301 81.6586 21.1323 81.9415 20.76C82.2393 20.3878 82.3882 19.9709 82.3882 19.5093V18.0129H81.0481C79.6783 18.0129 78.6509 18.1916 77.966 18.5489C77.2811 18.9063 76.9386 19.4497 76.9386 20.1793C76.9386 20.7451 77.1247 21.1918 77.497 21.5194C77.8841 21.8321 78.4275 21.9884 79.1274 21.9884ZM94.1076 23.9538C93.3185 23.9538 92.5889 23.8124 91.9188 23.5295C91.2488 23.2466 90.6979 22.852 90.2661 22.3458H90.2214L90.1991 23.7305H87.8987V7.42647H90.3108V13.5014H90.3554C90.7723 12.9803 91.3084 12.5857 91.9635 12.3177C92.6186 12.0348 93.3333 11.8933 94.1076 11.8933C95.6561 11.8933 96.8696 12.4293 97.7481 13.5014C98.6266 14.5585 99.0658 16.0326 99.0658 17.9236C99.0658 19.8145 98.6266 21.296 97.7481 22.3681C96.8696 23.4252 95.6561 23.9538 94.1076 23.9538ZM93.5492 21.9437C94.5617 21.9437 95.336 21.5938 95.872 20.894C96.4229 20.1942 96.6984 19.2041 96.6984 17.9236C96.6984 16.6431 96.4229 15.6529 95.872 14.9531C95.336 14.2533 94.5617 13.9034 93.5492 13.9034C92.9388 13.9034 92.3879 14.03 91.8965 14.2831C91.4052 14.5362 91.018 14.8861 90.7351 15.3328C90.4522 15.7646 90.3108 16.2634 90.3108 16.8292V19.018C90.3108 19.5689 90.4522 20.0677 90.7351 20.5143C91.018 20.961 91.4052 21.3109 91.8965 21.5641C92.3879 21.8172 92.9388 21.9437 93.5492 21.9437Z" fill="#505D79"/>
<path d="M27.3774 23.7304H26.9121V24.1957H27.3774V23.7304ZM27.3774 7.42643V6.96114H26.9121V7.42643H27.3774ZM29.8342 7.42643H30.2995V6.96114H29.8342V7.42643ZM29.8342 23.7304V24.1957H30.2995V23.7304H29.8342ZM27.8427 23.7304V7.42643H26.9121V23.7304H27.8427ZM27.3774 7.89173H29.8342V6.96114H27.3774V7.89173ZM29.3689 7.42643V23.7304H30.2995V7.42643H29.3689ZM29.8342 23.2652H27.3774V24.1957H29.8342V23.2652ZM33.5717 9.8832H33.1064V10.3485H33.5717V9.8832ZM33.5717 7.42643V6.96114H33.1064V7.42643H33.5717ZM36.0284 7.42643H36.4937V6.96114H36.0284V7.42643ZM36.0284 9.8832V10.3485H36.4937V9.8832H36.0284ZM33.5717 23.7304H33.1064V24.1957H33.5717V23.7304ZM33.5717 12.1166V11.6513H33.1064V12.1166H33.5717ZM36.0284 12.1166H36.4937V11.6513H36.0284V12.1166ZM36.0284 23.7304V24.1957H36.4937V23.7304H36.0284ZM34.037 9.8832V7.42643H33.1064V9.8832H34.037ZM33.5717 7.89173H36.0284V6.96114H33.5717V7.89173ZM35.5631 7.42643V9.8832H36.4937V7.42643H35.5631ZM36.0284 9.4179H33.5717V10.3485H36.0284V9.4179ZM34.037 23.7304V12.1166H33.1064V23.7304H34.037ZM33.5717 12.5819H36.0284V11.6513H33.5717V12.5819ZM35.5631 12.1166V23.7304H36.4937V12.1166H35.5631ZM36.0284 23.2652H33.5717V24.1957H36.0284V23.2652ZM42.0201 22.3457L42.3742 22.0438L42.2348 21.8804H42.0201V22.3457ZM41.9755 22.3457V21.8804H41.5176L41.5102 22.3382L41.9755 22.3457ZM41.9531 23.7304V24.1957H42.411L42.4184 23.7379L41.9531 23.7304ZM39.6527 23.7304H39.1874V24.1957H39.6527V23.7304ZM39.6527 7.42643V6.96114H39.1874V7.42643H39.6527ZM42.0648 7.42643H42.5301V6.96114H42.0648V7.42643ZM42.0648 13.5014H41.5995V13.9667H42.0648V13.5014ZM42.1095 13.5014V13.9667H42.3331L42.4728 13.792L42.1095 13.5014ZM43.7175 12.3176L43.8937 12.7483L43.8979 12.7466L43.902 12.7448L43.7175 12.3176ZM49.5023 13.5014L49.1421 13.7963L49.1445 13.7987L49.5023 13.5014ZM49.5023 22.3681L49.8601 22.6654L49.862 22.663L49.5023 22.3681ZM47.6262 20.894L47.2604 20.6062L47.2566 20.611L47.6262 20.894ZM47.6262 14.9531L47.2566 15.236L47.2604 15.2409L47.6262 14.9531ZM42.4891 15.3328L42.8784 15.5877L42.8803 15.5848L42.8822 15.5817L42.4891 15.3328ZM45.8616 23.4885C45.1293 23.4885 44.4619 23.3575 43.8539 23.1008L43.4919 23.9581C44.2239 24.2672 45.0157 24.4191 45.8616 24.4191V23.4885ZM43.8539 23.1008C43.2443 22.8434 42.7546 22.4899 42.3742 22.0438L41.6661 22.6477C42.1492 23.2141 42.7614 23.6497 43.4919 23.9581L43.8539 23.1008ZM42.0201 21.8804H41.9755V22.811H42.0201V21.8804ZM41.5102 22.3382L41.4879 23.723L42.4184 23.7379L42.4407 22.3532L41.5102 22.3382ZM41.9531 23.2652H39.6527V24.1957H41.9531V23.2652ZM40.118 23.7304V7.42643H39.1874V23.7304H40.118ZM39.6527 7.89173H42.0648V6.96114H39.6527V7.89173ZM41.5995 7.42643V13.5014H42.5301V7.42643H41.5995ZM42.0648 13.9667H42.1095V13.0361H42.0648V13.9667ZM42.4728 13.792C42.8372 13.3365 43.3073 12.9882 43.8937 12.7483L43.5414 11.887C42.8175 12.1831 42.2155 12.6239 41.7462 13.2107L42.4728 13.792ZM43.902 12.7448C44.4941 12.4891 45.1454 12.3586 45.8616 12.3586V11.428C45.0294 11.428 44.2513 11.5803 43.5331 11.8904L43.902 12.7448ZM45.8616 12.3586C47.2892 12.3586 48.3632 12.8456 49.1421 13.7963L49.862 13.2064C48.8839 12.013 47.5313 11.428 45.8616 11.428V12.3586ZM49.1445 13.7987C49.9313 14.7457 50.3547 16.1006 50.3547 17.9235H51.2853C51.2853 15.9645 50.8302 14.3713 49.8601 13.204L49.1445 13.7987ZM50.3547 17.9235C50.3547 19.746 49.9313 21.1101 49.1421 22.0732L49.862 22.663C50.8298 21.4819 51.2853 19.883 51.2853 17.9235H50.3547ZM49.1445 22.0707C48.366 23.0072 47.2915 23.4885 45.8616 23.4885V24.4191C47.529 24.4191 48.8811 23.8432 49.8601 22.6654L49.1445 22.0707ZM45.3033 22.409C46.4361 22.409 47.3573 22.0098 47.9957 21.1769L47.2566 20.611C46.8225 21.1778 46.1954 21.4784 45.3033 21.4784V22.409ZM47.9915 21.1818C48.6299 20.3708 48.9179 19.264 48.9179 17.9235H47.9873C47.9873 19.1441 47.7239 20.0176 47.2604 20.6062L47.9915 21.1818ZM48.9179 17.9235C48.9179 16.5831 48.6299 15.4763 47.9915 14.6652L47.2604 15.2409C47.7239 15.8295 47.9873 16.703 47.9873 17.9235H48.9179ZM47.9957 14.6701C47.3573 13.8373 46.4361 13.4381 45.3033 13.4381V14.3687C46.1954 14.3687 46.8225 14.6692 47.2566 15.236L47.9957 14.6701ZM45.3033 13.4381C44.6265 13.4381 44.0014 13.5789 43.4375 13.8694L43.8636 14.6967C44.2824 14.4809 44.759 14.3687 45.3033 14.3687V13.4381ZM43.4375 13.8694C42.876 14.1586 42.4253 14.564 42.0961 15.0838L42.8822 15.5817C43.1188 15.2082 43.4423 14.9137 43.8636 14.6967L43.4375 13.8694ZM42.1 15.0778C41.7627 15.5926 41.5995 16.1818 41.5995 16.8292H42.5301C42.5301 16.3449 42.6499 15.9365 42.8784 15.5877L42.1 15.0778ZM41.5995 16.8292V19.0179H42.5301V16.8292H41.5995ZM41.5995 19.0179C41.5995 19.6531 41.764 20.2389 42.0961 20.7633L42.8822 20.2653C42.6486 19.8964 42.5301 19.4846 42.5301 19.0179H41.5995ZM42.0961 20.7633C42.4253 21.2831 42.876 21.6884 43.4375 21.9777L43.8636 21.1504C43.4423 20.9334 43.1188 20.6389 42.8822 20.2653L42.0961 20.7633ZM43.4375 21.9777C44.0014 22.2682 44.6265 22.409 45.3033 22.409V21.4784C44.759 21.4784 44.2824 21.3661 43.8636 21.1504L43.4375 21.9777ZM53.9738 22.8817L53.6802 23.2427L53.683 23.2451L53.9738 22.8817ZM53.1028 17.9012L52.6956 17.6761L52.6933 17.6803L52.691 17.6845L53.1028 17.9012ZM54.6438 16.2038L54.3586 15.8361L54.3549 15.839L54.6438 16.2038ZM57.6143 14.3501L57.3965 13.9388L57.3947 13.9399L57.6143 14.3501ZM59.9594 12.9877L60.2199 13.3732L60.2232 13.3708L60.2269 13.3684L59.9594 12.9877ZM61.0984 11.938L60.7136 11.6758L60.7113 11.6799L61.0984 11.938ZM60.7411 9.50352L60.474 9.88469L60.4772 9.88674L60.48 9.88874L60.7411 9.50352ZM56.7432 9.52585L56.9982 9.91484L57.0024 9.9121L57.0066 9.90926L56.7432 9.52585ZM56.2742 11.8486L55.8578 12.0567L55.8601 12.0607L55.862 12.0645L56.2742 11.8486ZM58.865 14.4171L58.5705 14.7775L58.5733 14.7796L58.865 14.4171ZM64.8059 19.1966L65.1935 19.4535L65.428 19.0999L65.0977 18.834L64.8059 19.1966ZM63.6669 20.9163L63.3737 21.2778L63.7716 21.6004L64.0545 21.1733L63.6669 20.9163ZM56.4752 15.0871L56.1788 15.4458L56.1821 15.4486L56.4752 15.0871ZM54.8225 13.546L54.4717 13.8516L54.4745 13.8548L54.4772 13.8579L54.8225 13.546ZM53.9515 12.206L53.5192 12.3788L53.5215 12.3839L53.9515 12.206ZM55.0012 8.16346L55.271 8.54254L55.272 8.54166L55.0012 8.16346ZM62.4385 8.16346L62.1672 8.5417L62.1714 8.54463L62.4385 8.16346ZM63.2872 12.5856L62.887 12.3478L62.8847 12.3519L62.8824 12.356L63.2872 12.5856ZM61.7238 14.2384L61.4432 13.867L61.4395 13.8699L61.7238 14.2384ZM58.8427 16.0028L58.6282 15.5897L58.6263 15.5908L58.8427 16.0028ZM55.5149 18.4372L55.1226 18.1864L55.1194 18.1921L55.1156 18.1978L55.5149 18.4372ZM56.0285 21.3407L55.7591 21.72L55.7638 21.7232L56.0285 21.3407ZM63.8902 19.2859L64.2443 19.5878L64.3555 19.4573V19.2859H63.8902ZM63.8902 14.6851V14.2198H63.4249V14.6851H63.8902ZM66.1236 14.6851H66.5889V14.2198H66.1236V14.6851ZM66.1236 23.7304V24.1957H66.5889V23.7304H66.1236ZM63.9125 23.7304L63.4472 23.7364L63.4528 24.1957H63.9125V23.7304ZM63.8902 21.9884L64.3555 21.9824L64.3495 21.5231H63.8902V21.9884ZM63.8455 21.9884V21.5231H63.6757L63.5464 21.6321L63.8455 21.9884ZM57.793 23.4885C56.2002 23.4885 55.0454 23.1433 54.2641 22.5184L53.683 23.2451C54.6885 24.0495 56.0802 24.4191 57.793 24.4191V23.4885ZM54.2674 22.5208C53.5164 21.91 53.1214 21.0337 53.1214 19.8219H52.1908C52.1908 21.2605 52.6738 22.4241 53.6802 23.2427L54.2674 22.5208ZM53.1214 19.8219C53.1214 19.1737 53.2558 18.6093 53.5145 18.1179L52.691 17.6845C52.3541 18.3247 52.1908 19.0408 52.1908 19.8219H53.1214ZM53.5099 18.1263C53.783 17.6318 54.2479 17.1107 54.9323 16.5686L54.3549 15.839C53.6104 16.4285 53.0474 17.0391 52.6956 17.6761L53.5099 18.1263ZM54.929 16.5715C55.6303 16.0277 56.5953 15.4237 57.8339 14.7602L57.3947 13.9399C56.1314 14.6164 55.1166 15.2482 54.3586 15.8361L54.929 16.5715ZM57.832 14.7613C58.8501 14.2221 59.6486 13.7591 60.2199 13.3732L59.6988 12.6021C59.1679 12.9607 58.403 13.4059 57.3965 13.9388L57.832 14.7613ZM60.2269 13.3684C60.7937 12.9701 61.2292 12.5806 61.4856 12.1961L60.7113 11.6799C60.5508 11.9207 60.2269 12.231 59.6918 12.607L60.2269 13.3684ZM61.4828 12.2001C61.755 11.8006 61.8987 11.3602 61.8987 10.8882H60.9681C60.9681 11.1608 60.8876 11.4202 60.7136 11.6758L61.4828 12.2001ZM61.8987 10.8882C61.8987 10.1407 61.6051 9.52678 61.0021 9.1183L60.48 9.88874C60.8002 10.1056 60.9681 10.4149 60.9681 10.8882H61.8987ZM61.0077 9.12235C60.4484 8.73066 59.6737 8.5692 58.7533 8.5692V9.4998C59.5895 9.4998 60.1404 9.65102 60.474 9.88469L61.0077 9.12235ZM58.7533 8.5692C57.8395 8.5692 57.0634 8.74118 56.4794 9.14245L57.0066 9.90926C57.376 9.65539 57.94 9.4998 58.7533 9.4998V8.5692ZM56.4878 9.13687C55.8736 9.54009 55.5632 10.1444 55.5632 10.8882H56.4938C56.4938 10.441 56.66 10.137 56.9982 9.91484L56.4878 9.13687ZM55.5632 10.8882C55.5632 11.2845 55.6675 11.6756 55.8578 12.0567L56.6902 11.6405C56.5534 11.3665 56.4938 11.1173 56.4938 10.8882H55.5632ZM55.862 12.0645C56.0588 12.4406 56.3892 12.8382 56.8223 13.2556L57.4682 12.5857C57.0671 12.1991 56.8168 11.882 56.6865 11.6327L55.862 12.0645ZM56.8223 13.2556C57.2523 13.6703 57.8362 14.1782 58.5705 14.7775L59.1591 14.0566C58.4341 13.4648 57.8721 12.9751 57.4682 12.5857L56.8223 13.2556ZM58.5733 14.7796L64.5142 19.5591L65.0977 18.834L59.1567 14.0545L58.5733 14.7796ZM64.4179 18.9397L63.2788 20.6594L64.0545 21.1733L65.1935 19.4535L64.4179 18.9397ZM63.9595 20.5548L56.7679 14.7256L56.1821 15.4486L63.3737 21.2778L63.9595 20.5548ZM56.7716 14.7283C56.0974 14.1714 55.5646 13.6735 55.1677 13.2341L54.4772 13.8579C54.9142 14.3417 55.4832 14.8711 56.1788 15.4458L56.7716 14.7283ZM55.1733 13.2404C54.7946 12.8057 54.5359 12.4014 54.3814 12.028L53.5215 12.3839C53.7244 12.8741 54.0459 13.3632 54.4717 13.8516L55.1733 13.2404ZM54.3833 12.0332C54.2264 11.6409 54.1487 11.2379 54.1487 10.8212H53.2181C53.2181 11.3575 53.3187 11.8777 53.5192 12.3788L54.3833 12.0332ZM54.1487 10.8212C54.1487 9.81411 54.5238 9.07428 55.271 8.54254L54.7313 7.78439C53.7211 8.50336 53.2181 9.53539 53.2181 10.8212H54.1487ZM55.272 8.54166C56.0588 7.9779 57.1867 7.66839 58.7087 7.66839V6.73779C57.0736 6.73779 55.7303 7.06853 54.7299 7.78527L55.272 8.54166ZM58.7087 7.66839C60.2465 7.66839 61.3813 7.97841 62.1672 8.5417L62.7093 7.78527C61.7089 7.06806 60.3572 6.73779 58.7087 6.73779V7.66839ZM62.1714 8.54463C62.9331 9.07777 63.3132 9.81736 63.3132 10.8212H64.2438C64.2438 9.53214 63.7301 8.49987 62.7051 7.78229L62.1714 8.54463ZM63.3132 10.8212C63.3132 11.3608 63.1732 11.867 62.887 12.3478L63.6869 12.8235C64.0563 12.2025 64.2438 11.5324 64.2438 10.8212H63.3132ZM62.8824 12.356C62.6116 12.8329 62.143 13.3387 61.4432 13.867L62.0039 14.6097C62.7637 14.0362 63.337 13.4402 63.6915 12.8153L62.8824 12.356ZM61.4395 13.8699C60.755 14.3977 59.8207 14.9714 58.6282 15.5897L59.0567 16.4159C60.2762 15.7835 61.2631 15.1809 62.0076 14.6069L61.4395 13.8699ZM58.6263 15.5908C57.7078 16.0725 56.9647 16.5159 56.4036 16.921L56.9484 17.6754C57.4598 17.3062 58.1605 16.886 59.0586 16.4148L58.6263 15.5908ZM56.4036 16.921C55.8415 17.327 55.4041 17.7468 55.1226 18.1864L55.9066 18.6881C56.1016 18.3832 56.4385 18.0436 56.9484 17.6754L56.4036 16.921ZM55.1156 18.1978C54.8495 18.642 54.7145 19.1267 54.7145 19.6433H55.6451C55.6451 19.2963 55.7335 18.977 55.9136 18.6766L55.1156 18.1978ZM54.7145 19.6433C54.7145 20.5145 55.0631 21.2256 55.7591 21.72L56.298 20.9614C55.862 20.6518 55.6451 20.2313 55.6451 19.6433H54.7145ZM55.7638 21.7232C56.451 22.1992 57.3686 22.409 58.463 22.409V21.4784C57.4724 21.4784 56.7674 21.2862 56.2933 20.9581L55.7638 21.7232ZM58.463 22.409C59.5853 22.409 60.6303 22.1792 61.5912 21.7149L61.1864 20.8771C60.36 21.2764 59.4545 21.4784 58.463 21.4784V22.409ZM61.5912 21.7149C62.5529 21.2499 63.4365 20.5354 64.2443 19.5878L63.5361 18.9841C62.7954 19.853 62.0109 20.4785 61.1864 20.8771L61.5912 21.7149ZM64.3555 19.2859V14.6851H63.4249V19.2859H64.3555ZM63.8902 15.1504H66.1236V14.2198H63.8902V15.1504ZM65.6583 14.6851V23.7304H66.5889V14.6851H65.6583ZM66.1236 23.2652H63.9125V24.1957H66.1236V23.2652ZM64.3778 23.7245L64.3555 21.9824L63.4249 21.9943L63.4472 23.7364L64.3778 23.7245ZM63.8902 21.5231H63.8455V22.4537H63.8902V21.5231ZM63.5464 21.6321C62.8535 22.2138 62.0076 22.6709 60.9998 22.9975L61.2864 23.8827C62.3924 23.5244 63.3481 23.0137 64.1447 22.3447L63.5464 21.6321ZM60.9998 22.9975C59.9915 23.3241 58.9232 23.4885 57.793 23.4885V24.4191C59.0148 24.4191 60.1804 24.2411 61.2864 23.8827L60.9998 22.9975ZM69.4724 23.7304H69.0071V24.1957H69.4724V23.7304ZM69.4724 7.42643V6.96114H69.0071V7.42643H69.4724ZM71.9291 7.42643H72.3944V6.96114H71.9291V7.42643ZM71.9291 23.7304V24.1957H72.3944V23.7304H71.9291ZM69.9377 23.7304V7.42643H69.0071V23.7304H69.9377ZM69.4724 7.89173H71.9291V6.96114H69.4724V7.89173ZM71.4638 7.42643V23.7304H72.3944V7.42643H71.4638ZM71.9291 23.2652H69.4724V24.1957H71.9291V23.2652ZM75.531 23.0158L75.2095 23.3522L75.2137 23.3559L75.531 23.0158ZM76.134 17.2982L76.396 17.6828L76.3993 17.6804L76.134 17.2982ZM82.3876 16.1815V16.6468H82.8529V16.1815H82.3876ZM81.3826 14.1044L81.2193 14.5401L81.2249 14.5422L81.3826 14.1044ZM77.5634 14.1267L77.4769 13.6695L77.4755 13.6698L77.5634 14.1267ZM75.3523 14.7967L74.8936 14.8741L74.9917 15.4559L75.5343 15.2249L75.3523 14.7967ZM75.0173 12.809L74.8521 12.374L74.4948 12.5097L74.5585 12.8863L75.0173 12.809ZM77.4741 12.139L77.3913 11.6811L77.3903 11.6813L77.4741 12.139ZM82.9236 12.3176L82.7389 12.7448L82.7427 12.7463L82.9236 12.3176ZM84.353 13.747L83.9245 13.928L83.9259 13.932L83.9278 13.936L84.353 13.747ZM84.7997 23.7304V24.1957H85.265V23.7304H84.7997ZM82.4993 23.7304L82.034 23.7382L82.0415 24.1957H82.4993V23.7304ZM82.477 22.3904L82.9423 22.3826L82.9344 21.9251H82.477V22.3904ZM82.4323 22.3904V21.9251H82.2206L82.0815 22.0848L82.4323 22.3904ZM80.6456 23.5294L80.8052 23.9665L80.8098 23.9648L80.6456 23.5294ZM80.7572 21.6534L80.5692 21.2276L80.5646 21.2298L80.7572 21.6534ZM81.9409 20.76L81.5775 20.4693L81.5738 20.4738L81.5706 20.4784L81.9409 20.76ZM82.3876 18.0129H82.8529V17.5476H82.3876V18.0129ZM77.4964 21.5194L77.1889 21.8687L77.1963 21.8752L77.2042 21.8813L77.4964 21.5194ZM78.2781 23.4885C77.2019 23.4885 76.4109 23.2007 75.8483 22.6756L75.2137 23.3559C75.9907 24.0816 77.0316 24.4191 78.2781 24.4191V23.4885ZM75.8525 22.6793C75.29 22.1421 74.9913 21.4087 74.9913 20.425H74.0607C74.0607 21.6151 74.4315 22.6089 75.2095 23.3522L75.8525 22.6793ZM74.9913 20.425C74.9913 19.2158 75.4575 18.3213 76.3955 17.6828L75.8721 16.9135C74.666 17.7343 74.0607 18.9243 74.0607 20.425H74.9913ZM76.3993 17.6804C77.3629 17.0114 78.7811 16.6468 80.7126 16.6468V15.7162C78.6834 15.7162 77.0493 16.096 75.8684 16.916L76.3993 17.6804ZM80.7126 16.6468H82.3876V15.7162H80.7126V16.6468ZM82.8529 16.1815C82.8529 15.5575 82.7766 15.0193 82.5877 14.6042L81.7409 14.9893C81.8497 15.2293 81.9223 15.6143 81.9223 16.1815H82.8529ZM82.5877 14.6042C82.3816 14.1504 82.0177 13.8385 81.5403 13.6666L81.2249 14.5422C81.4919 14.6383 81.6492 14.7879 81.7409 14.9893L82.5877 14.6042ZM81.5459 13.6687C81.1127 13.5062 80.5497 13.4381 79.8862 13.4381V14.3687C80.5032 14.3687 80.9378 14.4346 81.2193 14.5401L81.5459 13.6687ZM79.8862 13.4381C79.0961 13.4381 78.293 13.5155 77.4769 13.6695L77.6495 14.584C78.4121 14.4401 79.1575 14.3687 79.8862 14.3687V13.4381ZM77.4755 13.6698C76.6701 13.8247 75.9014 14.0574 75.1699 14.3686L75.5343 15.2249C76.2029 14.9405 76.9083 14.7265 77.6514 14.5836L77.4755 13.6698ZM75.8111 14.7194L75.4761 12.7317L74.5585 12.8863L74.8936 14.8741L75.8111 14.7194ZM75.1825 13.244C75.8972 12.9724 76.6887 12.756 77.5578 12.5966L77.3903 11.6813C76.4728 11.8495 75.6264 12.0798 74.8521 12.374L75.1825 13.244ZM77.5565 12.5969C78.4382 12.4379 79.3185 12.3586 80.1989 12.3586V11.428C79.2622 11.428 78.3265 11.5124 77.3913 11.6811L77.5565 12.5969ZM80.1989 12.3586C81.3319 12.3586 82.1675 12.4979 82.7389 12.7448L83.1079 11.8904C82.3695 11.5715 81.3886 11.428 80.1989 11.428V12.3586ZM82.7427 12.7463C83.301 12.982 83.6886 13.3697 83.9245 13.928L84.7816 13.566C84.4517 12.7843 83.8864 12.219 83.1047 11.889L82.7427 12.7463ZM83.9278 13.936C84.1893 14.5244 84.3344 15.3383 84.3344 16.4048H85.265C85.265 15.2676 85.1124 14.3098 84.7783 13.5581L83.9278 13.936ZM84.3344 16.4048V23.7304H85.265V16.4048H84.3344ZM84.7997 23.2652H82.4993V24.1957H84.7997V23.2652ZM82.9646 23.7227L82.9423 22.3826L82.0117 22.3982L82.034 23.7382L82.9646 23.7227ZM82.477 21.9251H82.4323V22.8557H82.477V21.9251ZM82.0815 22.0848C81.7455 22.4706 81.2244 22.8137 80.4813 23.0941L80.8098 23.9648C81.645 23.6496 82.315 23.2333 82.7831 22.696L82.0815 22.0848ZM80.486 23.0924C79.7615 23.3571 79.0263 23.4885 78.2781 23.4885V24.4191C79.138 24.4191 79.9811 24.2676 80.8052 23.9665L80.486 23.0924ZM79.1268 22.4537C79.782 22.4537 80.392 22.3305 80.9499 22.077L80.5646 21.2298C80.1398 21.4229 79.6629 21.5231 79.1268 21.5231V22.4537ZM80.9452 22.0791C81.5101 21.8298 81.9726 21.4871 82.3113 21.0415L81.5706 20.4784C81.3435 20.7773 81.0169 21.0302 80.5692 21.2276L80.9452 22.0791ZM82.3043 21.0507C82.6659 20.5989 82.8529 20.0802 82.8529 19.5093H81.9223C81.9223 19.8615 81.8116 20.1766 81.5775 20.4693L82.3043 21.0507ZM82.8529 19.5093V18.0129H81.9223V19.5093H82.8529ZM82.3876 17.5476H81.0476V18.4782H82.3876V17.5476ZM81.0476 17.5476C79.6521 17.5476 78.535 17.727 77.75 18.1364L78.1804 18.9614C78.7658 18.6561 79.7029 18.4782 81.0476 18.4782V17.5476ZM77.75 18.1364C77.3494 18.3454 77.0246 18.6222 76.8013 18.9765C76.577 19.3322 76.4728 19.7389 76.4728 20.1793H77.4034C77.4034 19.8901 77.4704 19.6603 77.5886 19.4726C77.7077 19.2834 77.8961 19.1098 78.1804 18.9614L77.75 18.1364ZM76.4728 20.1793C76.4728 20.8579 76.7017 21.4398 77.1889 21.8687L77.804 21.1701C77.5467 20.9438 77.4034 20.6323 77.4034 20.1793H76.4728ZM77.2042 21.8813C77.7016 22.2834 78.3633 22.4537 79.1268 22.4537V21.5231C78.4908 21.5231 78.065 21.3806 77.7886 21.1574L77.2042 21.8813ZM90.2656 22.3457L90.6197 22.0438L90.4805 21.8804H90.2656V22.3457ZM90.2209 22.3457V21.8804H89.7631L89.7556 22.3382L90.2209 22.3457ZM90.1986 23.7304V24.1957H90.6564L90.6639 23.7379L90.1986 23.7304ZM87.8981 23.7304H87.4328V24.1957H87.8981V23.7304ZM87.8981 7.42643V6.96114H87.4328V7.42643H87.8981ZM90.3102 7.42643H90.7755V6.96114H90.3102V7.42643ZM90.3102 13.5014H89.8449V13.9667H90.3102V13.5014ZM90.3549 13.5014V13.9667H90.5787L90.7183 13.792L90.3549 13.5014ZM91.963 12.3176L92.1393 12.7483L92.1435 12.7466L92.1477 12.7448L91.963 12.3176ZM97.7476 13.5014L97.3879 13.7963L97.3897 13.7987L97.7476 13.5014ZM97.7476 22.3681L98.1054 22.6654L98.1077 22.663L97.7476 22.3681ZM95.8715 20.894L95.5058 20.6062L95.502 20.611L95.8715 20.894ZM95.8715 14.9531L95.502 15.236L95.5058 15.2409L95.8715 14.9531ZM90.7346 15.3328L91.1241 15.5877L91.1259 15.5848L91.1278 15.5817L90.7346 15.3328ZM94.1071 23.4885C93.3747 23.4885 92.7075 23.3575 92.0993 23.1008L91.7373 23.9581C92.4692 24.2672 93.2612 24.4191 94.1071 24.4191V23.4885ZM92.0993 23.1008C91.4898 22.8434 91.0003 22.4899 90.6197 22.0438L89.9115 22.6477C90.3949 23.2141 91.0068 23.6497 91.7373 23.9581L92.0993 23.1008ZM90.2656 21.8804H90.2209V22.811H90.2656V21.8804ZM89.7556 22.3382L89.7333 23.723L90.6639 23.7379L90.6862 22.3532L89.7556 22.3382ZM90.1986 23.2652H87.8981V24.1957H90.1986V23.2652ZM88.3634 23.7304V7.42643H87.4328V23.7304H88.3634ZM87.8981 7.89173H90.3102V6.96114H87.8981V7.89173ZM89.8449 7.42643V13.5014H90.7755V7.42643H89.8449ZM90.3102 13.9667H90.3549V13.0361H90.3102V13.9667ZM90.7183 13.792C91.0826 13.3365 91.5526 12.9882 92.1393 12.7483L91.7866 11.887C91.0631 12.1831 90.461 12.6239 89.9915 13.2107L90.7183 13.792ZM92.1477 12.7448C92.7396 12.4891 93.391 12.3586 94.1071 12.3586V11.428C93.2747 11.428 92.4967 11.5803 91.7787 11.8904L92.1477 12.7448ZM94.1071 12.3586C95.5346 12.3586 96.6085 12.8456 97.3879 13.7963L98.1077 13.2064C97.1296 12.013 95.7766 11.428 94.1071 11.428V12.3586ZM97.3897 13.7987C98.1766 14.7457 98.6 16.1006 98.6 17.9235H99.5306C99.5306 15.9645 99.0755 14.3713 98.1054 13.204L97.3897 13.7987ZM98.6 17.9235C98.6 19.746 98.177 21.1101 97.3879 22.0732L98.1077 22.663C99.0755 21.4819 99.5306 19.883 99.5306 17.9235H98.6ZM97.3897 22.0707C96.6118 23.0072 95.5369 23.4885 94.1071 23.4885V24.4191C95.7742 24.4191 97.1268 23.8432 98.1054 22.6654L97.3897 22.0707ZM93.5487 22.409C94.6817 22.409 95.603 22.0098 96.2409 21.1769L95.502 20.611C95.0679 21.1778 94.4407 21.4784 93.5487 21.4784V22.409ZM96.2372 21.1818C96.8756 20.3708 97.1631 19.264 97.1631 17.9235H96.2326C96.2326 19.1441 95.9692 20.0176 95.5058 20.6062L96.2372 21.1818ZM97.1631 17.9235C97.1631 16.5831 96.8756 15.4763 96.2372 14.6652L95.5058 15.2409C95.9692 15.8295 96.2326 16.703 96.2326 17.9235H97.1631ZM96.2409 14.6701C95.603 13.8373 94.6817 13.4381 93.5487 13.4381V14.3687C94.4407 14.3687 95.0679 14.6692 95.502 15.236L96.2409 14.6701ZM93.5487 13.4381C92.8722 13.4381 92.2468 13.5789 91.6829 13.8694L92.1091 14.6967C92.5279 14.4809 93.0048 14.3687 93.5487 14.3687V13.4381ZM91.6829 13.8694C91.1217 14.1586 90.6708 14.564 90.3414 15.0838L91.1278 15.5817C91.3641 15.2082 91.688 14.9137 92.1091 14.6967L91.6829 13.8694ZM90.3456 15.0778C90.0083 15.5926 89.8449 16.1818 89.8449 16.8292H90.7755C90.7755 16.3449 90.8951 15.9365 91.1241 15.5877L90.3456 15.0778ZM89.8449 16.8292V19.0179H90.7755V16.8292H89.8449ZM89.8449 19.0179C89.8449 19.6531 90.0097 20.2389 90.3414 20.7633L91.1278 20.2653C90.8942 19.8964 90.7755 19.4846 90.7755 19.0179H89.8449ZM90.3414 20.7633C90.6708 21.2831 91.1217 21.6884 91.6829 21.9777L92.1091 21.1504C91.688 20.9334 91.3641 20.6389 91.1278 20.2653L90.3414 20.7633ZM91.6829 21.9777C92.2468 22.2682 92.8722 22.409 93.5487 22.409V21.4784C93.0048 21.4784 92.5279 21.3661 92.1091 21.1504L91.6829 21.9777Z" fill="#505D79"/>
</svg>
