<svg width="37" height="38" viewBox="0 0 37 38" fill="none" xmlns="http://www.w3.org/2000/svg">
<path d="M35.1469 18.4146C35.4859 18.4146 35.7715 18.478 36.0002 18.6012C35.9941 18.1819 35.9735 17.7663 35.9385 17.3543H33.2933C33.0081 15.8876 32.0635 15.1985 30.1743 15.1985C27.982 15.1985 26.6987 16.5591 26.6987 19.1214C26.6987 21.7013 27.7146 23.062 30.0495 23.062C32.0279 23.062 33.8102 22.2138 33.8102 20.5351H30.1921V18.4146H35.1469Z" fill="#DBD9D5" stroke="#DBD9D5" stroke-miterlimit="10"/>
<path d="M33.8097 25.3592V24.2459L34.3444 22.3021H33.6315C33.6137 23.0266 33.3106 25.5359 29.5856 25.5359C25.914 25.5359 23.8465 22.9383 23.8465 19.1214C23.8465 15.3222 26.5378 12.7246 30.1737 12.7246C32.787 12.7246 34.911 14.0341 35.7759 16.0304C34.4058 7.51096 26.9612 1 17.9824 1C10.14 1 3.46793 5.96714 0.991699 12.9013H3.93748C7.28824 12.9013 10.7816 13.7671 10.7816 19.1214C10.7816 24.4933 7.28824 25.3592 3.93748 25.3592H1.19072C3.81133 32.015 10.3413 36.7305 17.9824 36.7305C25.6235 36.7305 32.1535 32.015 34.7742 25.3592H33.8097ZM22.2422 15.3752H16.1288V18.9624L21.8323 18.6089V21.1182L16.1288 21.4716V25.3592H13.2771V12.9013H22.2422V15.3752Z" fill="#DBD9D5" stroke="#DBD9D5" stroke-miterlimit="10"/>
<path d="M7.93001 19.1212C7.93001 15.5517 6.1655 15.375 3.9376 15.375H2.15527V22.8851H3.9376C6.1655 22.8851 7.93001 22.7084 7.93001 19.1212Z" fill="#DBD9D5" stroke="#DBD9D5" stroke-miterlimit="10"/>
</svg>
