<svg width="400" height="167" viewBox="0 0 400 167" fill="none" xmlns="http://www.w3.org/2000/svg">
<path fill-rule="evenodd" clip-rule="evenodd" d="M113.977 92.1883C113.585 92.1883 113.202 92.0426 112.91 91.7727L98.5582 78.5207C98.2305 78.218 98.0509 77.7907 98.0663 77.3482C98.0808 76.9056 98.2893 76.4912 98.637 76.211L171.297 17.6332C171.936 17.1174 172.874 17.1826 173.433 17.7815C173.993 18.3804 173.982 19.3057 173.407 19.8905C173.04 20.2644 136.598 57.3875 128.308 68.6963C120.062 79.9375 115.47 91.112 115.425 91.2235C115.233 91.6948 114.818 92.0422 114.315 92.152C114.202 92.1763 114.089 92.1883 113.977 92.1883V92.1883ZM101.991 77.4781L113.421 88.0326C115.149 84.2224 119.345 75.6677 125.778 66.8972C130.375 60.6266 143.029 47.0144 153.819 35.695L101.991 77.4781Z" fill="#A5B9C4"/>
<path fill-rule="evenodd" clip-rule="evenodd" d="M102.377 102.203C101.081 102.203 99.8867 101.944 98.8882 101.417C98.1288 101.017 97.8428 100.086 98.2496 99.3373C98.6564 98.5891 99.602 98.3077 100.362 98.7081C101.889 99.5144 104.59 99.1465 107.084 97.7935C110.218 96.0928 112.213 93.3819 112.42 90.5415C112.482 89.6951 113.23 89.0591 114.088 89.1192C114.948 89.1802 115.594 89.9158 115.533 90.7623C115.249 94.6451 112.653 98.2798 108.589 100.485C106.497 101.62 104.322 102.203 102.377 102.203V102.203Z" fill="#A5B9C4"/>
<path fill-rule="evenodd" clip-rule="evenodd" d="M99.6248 78.168C99.2111 78.168 98.8662 77.8479 98.8466 77.4367C98.826 77.0126 99.1584 76.6528 99.5882 76.6324L121.308 75.6119C121.738 75.5914 122.104 75.9189 122.124 76.3426C122.145 76.7667 121.812 77.1264 121.382 77.1467L99.6626 78.167C99.6501 78.1677 99.6377 78.1677 99.6248 78.1677V78.168Z" fill="#A5B9C4"/>
<path fill-rule="evenodd" clip-rule="evenodd" d="M113.977 89.6559C113.607 89.6559 113.279 89.3964 113.21 89.0257L109.517 69.1296C109.44 68.7122 109.72 68.3121 110.144 68.2357C110.568 68.1592 110.974 68.436 111.052 68.8534L114.745 88.7493C114.822 89.1668 114.541 89.5669 114.117 89.6432C114.07 89.6516 114.023 89.6559 113.977 89.6559V89.6559Z" fill="#A5B9C4"/>
<path fill-rule="evenodd" clip-rule="evenodd" d="M122.093 76.0076C121.724 76.0076 121.396 75.7479 121.327 75.3774L118.597 60.6665C118.519 60.2491 118.8 59.8491 119.224 59.7726C119.648 59.6962 120.054 59.9729 120.132 60.3904L122.862 75.1011C122.939 75.5183 122.658 75.9187 122.235 75.995C122.187 76.0035 122.14 76.0076 122.093 76.0076V76.0076Z" fill="#A5B9C4"/>
<path fill-rule="evenodd" clip-rule="evenodd" d="M131.167 62.7915C130.797 62.7915 130.469 62.532 130.4 62.1613L128.761 53.3145C128.683 52.8972 128.965 52.4968 129.389 52.4208C129.812 52.3443 130.218 52.6213 130.296 53.0387L131.935 61.8853C132.013 62.3027 131.732 62.7028 131.308 62.7788C131.26 62.7875 131.213 62.7915 131.167 62.7915V62.7915Z" fill="#A5B9C4"/>
<path fill-rule="evenodd" clip-rule="evenodd" d="M138.645 54.5811C138.276 54.5811 137.948 54.3214 137.879 53.9505L136.52 46.6222C136.442 46.2048 136.723 45.8046 137.147 45.7285C137.571 45.6524 137.977 45.9288 138.054 46.3463L139.413 53.6747C139.491 54.0918 139.21 54.4922 138.786 54.5685C138.739 54.5771 138.692 54.5811 138.645 54.5811V54.5811Z" fill="#A5B9C4"/>
<path fill-rule="evenodd" clip-rule="evenodd" d="M113.038 67.7127C112.624 67.7127 112.28 67.3924 112.26 66.9811C112.239 66.5572 112.571 66.1972 113.002 66.1771L128.481 65.4512C128.911 65.4293 129.276 65.7583 129.297 66.1818C129.317 66.6058 128.985 66.9657 128.555 66.9857L113.076 67.7119C113.063 67.7125 113.051 67.7126 113.038 67.7126V67.7127Z" fill="#A5B9C4"/>
<path fill-rule="evenodd" clip-rule="evenodd" d="M124.396 58.56C123.988 58.56 123.644 58.2465 123.619 57.8395C123.592 57.416 123.919 57.0513 124.349 57.0249L136.208 56.2987C136.637 56.2739 137.008 56.5945 137.035 57.018C137.062 57.4413 136.735 57.806 136.305 57.8323L124.446 58.5586C124.429 58.5593 124.413 58.56 124.396 58.56Z" fill="#A5B9C4"/>
<path fill-rule="evenodd" clip-rule="evenodd" d="M172.286 19.5902C172.07 19.5902 171.856 19.5029 171.702 19.3315L155.448 1.27832C155.163 0.960839 155.192 0.475124 155.515 0.193539C155.837 -0.0878334 156.33 -0.0587318 156.616 0.258751L172.869 18.3123C173.154 18.6297 173.125 19.1154 172.803 19.3968C172.654 19.5264 172.469 19.5902 172.286 19.5902Z" fill="#A5B9C4"/>
<path fill-rule="evenodd" clip-rule="evenodd" d="M155.119 5.1977C154.855 5.1977 154.597 5.06587 154.45 4.8272C153.969 4.04185 153.825 3.1192 154.048 2.2287C154.27 1.33778 154.831 0.586005 155.629 0.111127C155.997 -0.108434 156.477 0.0077512 156.7 0.371043C156.923 0.734123 156.805 1.20631 156.436 1.42594C155.996 1.6882 155.685 2.10366 155.563 2.5956C155.44 3.08754 155.519 3.59769 155.785 4.03221C156.009 4.39508 155.89 4.86734 155.522 5.08711C155.395 5.16195 155.256 5.1977 155.119 5.1977V5.1977Z" fill="#A5B9C4"/>
<path fill-rule="evenodd" clip-rule="evenodd" d="M156.033 7.52342C154.884 7.52342 153.948 6.60264 153.948 5.47106C153.948 4.33927 154.884 3.41846 156.033 3.41846C157.182 3.41846 158.116 4.33927 158.116 5.47106C158.116 6.60264 157.182 7.52342 156.033 7.52342ZM156.033 4.95484C155.744 4.95484 155.509 5.18608 155.509 5.47106C155.509 5.75562 155.744 5.98685 156.033 5.98685C156.322 5.98685 156.556 5.75562 156.556 5.47106C156.556 5.18608 156.322 4.95484 156.033 4.95484Z" fill="#A5B9C4"/>
<path fill-rule="evenodd" clip-rule="evenodd" d="M104.069 68.472C103.843 68.472 103.62 68.3766 103.466 68.1918C103.192 67.8641 103.24 67.3801 103.573 67.1104L168.445 14.5765C168.778 14.3068 169.269 14.3541 169.542 14.6819C169.816 15.0096 169.769 15.4937 169.435 15.7631L104.564 68.2974C104.419 68.4148 104.243 68.472 104.069 68.472V68.472Z" fill="#A5B9C4"/>
<path fill-rule="evenodd" clip-rule="evenodd" d="M266.841 94.091C266.411 94.091 266.062 93.7468 266.062 93.3225V86.8555C266.062 86.4314 266.411 86.0874 266.841 86.0874C267.272 86.0874 267.621 86.4314 267.621 86.8555V93.3225C267.621 93.7468 267.272 94.091 266.841 94.091Z" fill="#A5B9C4"/>
<path fill-rule="evenodd" clip-rule="evenodd" d="M266.841 96.9177C266.411 96.9177 266.062 96.5738 266.062 96.1494V95.8914C266.062 95.4672 266.411 95.1234 266.841 95.1234C267.272 95.1234 267.621 95.4672 267.621 95.8914V96.1494C267.621 96.5738 267.272 96.9177 266.841 96.9177Z" fill="#A5B9C4"/>
<path fill-rule="evenodd" clip-rule="evenodd" d="M103.683 94.091C103.252 94.091 102.903 93.7468 102.903 93.3225V86.8555C102.903 86.4314 103.252 86.0874 103.683 86.0874C104.114 86.0874 104.464 86.4314 104.464 86.8555V93.3225C104.464 93.7468 104.114 94.091 103.683 94.091Z" fill="#A5B9C4"/>
<path fill-rule="evenodd" clip-rule="evenodd" d="M103.683 96.9177C103.252 96.9177 102.903 96.5738 102.903 96.1494V95.8914C102.903 95.4672 103.252 95.1234 103.683 95.1234C104.114 95.1234 104.464 95.4672 104.464 95.8914V96.1494C104.464 96.5738 104.114 96.9177 103.683 96.9177Z" fill="#A5B9C4"/>
<path fill-rule="evenodd" clip-rule="evenodd" d="M256.384 92.1883C256.272 92.1883 256.159 92.1763 256.047 92.152C255.544 92.0423 255.128 91.6948 254.936 91.2235C254.891 91.1122 250.287 79.9204 242.054 68.6968C233.763 57.3876 197.328 20.2642 196.961 19.8903C196.385 19.3055 196.374 18.3804 196.934 17.7815C197.494 17.1824 198.43 17.1174 199.07 17.6332L271.724 76.211C272.072 76.4912 272.28 76.9056 272.295 77.3482C272.31 77.7907 272.131 78.218 271.803 78.5207L257.451 91.7727C257.159 92.0426 256.777 92.1883 256.384 92.1883V92.1883ZM216.541 35.6908C227.33 47.0108 239.986 60.6261 244.584 66.8974C251.017 75.6677 255.212 84.2224 256.94 88.0326L268.37 77.4781L216.541 35.6908Z" fill="#A5B9C4"/>
<path fill-rule="evenodd" clip-rule="evenodd" d="M270.736 78.168C270.724 78.168 270.712 78.1679 270.699 78.1673L248.98 77.147C248.549 77.1267 248.217 76.7671 248.237 76.3429C248.258 75.919 248.623 75.5925 249.054 75.6122L270.773 76.6327C271.203 76.6531 271.536 77.0129 271.515 77.437C271.495 77.8482 271.15 78.1683 270.736 78.1683V78.168Z" fill="#A5B9C4"/>
<path fill-rule="evenodd" clip-rule="evenodd" d="M256.385 89.6559C256.338 89.6559 256.291 89.6516 256.244 89.6432C255.82 89.5669 255.539 89.1668 255.616 88.7493L259.309 68.8534C259.387 68.436 259.793 68.1592 260.217 68.2357C260.641 68.3121 260.922 68.7122 260.844 69.1296L257.151 89.0257C257.082 89.3964 256.754 89.6559 256.385 89.6559V89.6559Z" fill="#A5B9C4"/>
<path fill-rule="evenodd" clip-rule="evenodd" d="M248.262 76.0077C248.215 76.0077 248.168 76.0035 248.121 75.9951C247.697 75.9188 247.416 75.5184 247.493 75.1011L250.224 60.3905C250.301 59.973 250.707 59.6965 251.131 59.7727C251.555 59.8492 251.836 60.2491 251.758 60.6666L249.028 75.3775C248.959 75.748 248.631 76.0077 248.262 76.0077Z" fill="#A5B9C4"/>
<path fill-rule="evenodd" clip-rule="evenodd" d="M239.193 62.7915C239.147 62.7915 239.099 62.7872 239.052 62.7788C238.628 62.7028 238.347 62.3027 238.425 61.8853L240.064 53.0388C240.142 52.6213 240.548 52.3447 240.972 52.4208C241.395 52.4968 241.676 52.8972 241.599 53.3145L239.959 62.1613C239.891 62.532 239.563 62.7915 239.193 62.7915V62.7915Z" fill="#A5B9C4"/>
<path fill-rule="evenodd" clip-rule="evenodd" d="M231.716 54.5811C231.67 54.5811 231.623 54.5768 231.575 54.5685C231.152 54.4921 230.871 54.0918 230.949 53.6745L232.308 46.3463C232.385 45.9288 232.791 45.6521 233.215 45.7285C233.639 45.8046 233.92 46.2047 233.842 46.6222L232.483 53.9506C232.414 54.3214 232.086 54.5811 231.716 54.5811V54.5811Z" fill="#A5B9C4"/>
<path fill-rule="evenodd" clip-rule="evenodd" d="M257.318 67.7126C257.305 67.7126 257.292 67.7124 257.28 67.7119L241.807 66.9857C241.376 66.9657 241.044 66.6058 241.064 66.1818C241.085 65.7583 241.449 65.4315 241.881 65.4512L257.354 66.1771C257.784 66.1972 258.117 66.5572 258.096 66.9811C258.076 67.3924 257.731 67.7127 257.318 67.7127V67.7126Z" fill="#A5B9C4"/>
<path fill-rule="evenodd" clip-rule="evenodd" d="M245.964 58.56C245.948 58.56 245.931 58.5596 245.915 58.5586L234.056 57.8323C233.626 57.806 233.299 57.4414 233.326 57.018C233.353 56.5946 233.722 56.2737 234.153 56.2987L246.012 57.0249C246.442 57.0514 246.768 57.416 246.742 57.8395C246.716 58.2465 246.373 58.56 245.964 58.56Z" fill="#A5B9C4"/>
<path fill-rule="evenodd" clip-rule="evenodd" d="M198.082 19.5902C197.898 19.5902 197.713 19.5264 197.564 19.3968C197.242 19.1154 197.212 18.6297 197.498 18.3123L213.751 0.258751C214.037 -0.0587318 214.53 -0.0878334 214.853 0.193539C215.175 0.475124 215.205 0.960839 214.919 1.27832L198.666 19.3315C198.511 19.5029 198.297 19.5902 198.082 19.5902V19.5902Z" fill="#A5B9C4"/>
<path fill-rule="evenodd" clip-rule="evenodd" d="M273.435 74.171C273.261 74.171 273.086 74.1138 272.941 73.9967L200.811 15.7458C200.478 15.4765 200.429 14.9926 200.702 14.6648C200.976 14.3365 201.467 14.2889 201.8 14.5577L273.93 72.8088C274.263 73.0775 274.312 73.5616 274.038 73.8897C273.884 74.075 273.66 74.171 273.435 74.171Z" fill="#A5B9C4"/>
<path fill-rule="evenodd" clip-rule="evenodd" d="M267.982 102.203C266.035 102.203 263.857 101.619 261.761 100.481C257.7 98.2746 255.108 94.6411 254.828 90.7609C254.767 89.9146 255.414 89.1796 256.274 89.1192C257.135 89.0588 257.879 89.6966 257.941 90.543C258.145 93.3799 260.137 96.0892 263.268 97.7901C265.765 99.1461 268.47 99.5152 269.999 98.7082C270.758 98.3078 271.704 98.5891 272.111 99.3373C272.518 100.086 272.232 101.017 271.472 101.417C270.473 101.944 269.279 102.203 267.982 102.203Z" fill="#A5B9C4"/>
<path fill-rule="evenodd" clip-rule="evenodd" d="M215.242 5.19766C215.105 5.19766 214.965 5.16191 214.839 5.08707C214.471 4.8673 214.352 4.39504 214.576 4.03196C215.125 3.13665 214.836 1.96718 213.93 1.42525C213.562 1.2047 213.445 0.732233 213.668 0.369578C213.892 0.0069235 214.372 -0.108478 214.74 0.11165C216.379 1.09291 216.904 3.20831 215.91 4.82716C215.764 5.06584 215.506 5.19766 215.242 5.19766V5.19766Z" fill="#A5B9C4"/>
<path fill-rule="evenodd" clip-rule="evenodd" d="M214.335 7.52342C213.186 7.52342 212.251 6.60264 212.251 5.47106C212.251 4.33927 213.186 3.41846 214.335 3.41846C215.484 3.41846 216.419 4.33927 216.419 5.47106C216.419 6.60264 215.484 7.52342 214.335 7.52342ZM214.335 4.95484C214.041 4.95484 213.811 5.1814 213.811 5.47106C213.811 5.76029 214.041 5.98685 214.335 5.98685C214.624 5.98685 214.859 5.75562 214.859 5.47106C214.859 5.18608 214.624 4.95484 214.335 4.95484Z" fill="#A5B9C4"/>
<path fill-rule="evenodd" clip-rule="evenodd" d="M270.796 77.1475C270.614 77.1475 270.431 77.0853 270.284 76.9581C269.959 76.6791 269.926 76.1936 270.209 75.8741L272.848 72.8975C273.131 72.5778 273.624 72.5448 273.949 72.824C274.273 73.1032 274.306 73.5883 274.023 73.9078L271.384 76.8849C271.23 77.0586 271.014 77.1475 270.796 77.1475Z" fill="#A5B9C4"/>
<path fill-rule="evenodd" clip-rule="evenodd" d="M340.766 91.5916C340.144 91.5916 339.556 91.2223 339.315 90.6174C336.513 83.6089 336.431 76.5767 339.078 70.2807C341.432 64.683 345.904 59.8643 351.67 56.713C357.554 53.4969 364.289 52.2499 370.634 53.2017C377.691 54.2605 383.758 57.921 388.176 63.7873C388.689 64.4689 388.544 65.4315 387.853 65.937C387.161 66.4426 386.183 66.2997 385.67 65.6183C381.753 60.4167 376.39 57.1737 370.163 56.2397C364.498 55.3897 358.467 56.5119 353.184 59.4C348.032 62.2156 344.046 66.4976 341.961 71.4566C339.629 77.0022 339.718 83.2386 342.218 89.4917C342.533 90.2815 342.139 91.1734 341.337 91.4843C341.15 91.5571 340.956 91.5916 340.766 91.5916V91.5916Z" fill="#A5B9C4"/>
<path fill-rule="evenodd" clip-rule="evenodd" d="M329.588 113.486C328.773 113.486 328.087 112.862 328.033 112.05C327.531 104.478 329.209 98.5172 333.02 94.333C337.801 89.0848 344.69 88.0375 348.371 87.8806C349.232 87.8452 349.96 88.5013 349.998 89.3491C350.035 90.1968 349.367 90.9139 348.506 90.9505C345.315 91.0868 339.361 91.9736 335.343 96.3847C332.113 99.9305 330.702 105.134 331.147 111.849C331.203 112.696 330.551 113.427 329.691 113.483C329.657 113.485 329.622 113.486 329.588 113.486V113.486Z" fill="#A5B9C4"/>
<path fill-rule="evenodd" clip-rule="evenodd" d="M377.361 102.551C377.026 102.551 376.717 102.336 376.615 102.004C376.131 100.423 376.3 98.8364 377.103 97.4171C377.809 96.1687 378.966 95.1403 380.36 94.5203C382.743 93.4623 385.935 93.6465 387.696 96.4441C387.923 96.8049 387.81 97.2784 387.444 97.5018C387.078 97.7256 386.597 97.6144 386.37 97.2539C385.02 95.1098 382.635 95.1957 381.002 95.921C379.044 96.7911 377.303 98.927 378.108 101.561C378.233 101.967 377.999 102.395 377.586 102.518C377.512 102.54 377.436 102.551 377.361 102.551V102.551Z" fill="#A5B9C4"/>
<path fill-rule="evenodd" clip-rule="evenodd" d="M384.877 95.7807C384.841 95.7807 384.805 95.7786 384.768 95.7733C384.341 95.7147 384.044 95.3267 384.103 94.9065C384.62 91.2495 387.638 89.46 390.291 89.0044C391.703 88.7619 393.163 88.8595 394.402 89.2789C395.784 89.747 396.823 90.5737 397.407 91.6693C397.608 92.0447 397.461 92.5093 397.079 92.7064C396.698 92.9036 396.226 92.7591 396.026 92.3832C395.22 90.8707 392.972 90.1034 390.56 90.5179C388.448 90.8806 386.05 92.2793 385.649 95.1182C385.594 95.5023 385.26 95.7807 384.877 95.7807V95.7807Z" fill="#A5B9C4"/>
<path fill-rule="evenodd" clip-rule="evenodd" d="M365.595 76.7668C365.564 76.7668 365.533 76.7653 365.502 76.7618C365.074 76.712 364.768 76.3301 364.819 75.9086C365.136 73.2606 367.038 71.2313 369.783 70.6129C372.487 70.0032 375.187 70.9601 376.502 72.9932C376.734 73.3511 376.627 73.8259 376.263 74.0539C375.9 74.2818 375.418 74.1768 375.186 73.819C374.386 72.5818 372.512 71.5737 370.131 72.1104C368.016 72.5868 366.609 74.0743 366.368 76.0887C366.321 76.4795 365.985 76.7668 365.595 76.7671V76.7668Z" fill="#A5B9C4"/>
<path fill-rule="evenodd" clip-rule="evenodd" d="M357.493 78.5311C357.108 78.5311 356.773 78.25 356.721 77.8633C356.501 76.2193 357.709 74.3521 359.727 73.2174C361.584 72.1733 364.386 71.689 366.684 73.4611C367.023 73.7225 367.082 74.2052 366.817 74.5392C366.551 74.8736 366.061 74.9324 365.722 74.6707C365.184 74.2562 363.22 73.0229 360.5 74.5517C359.05 75.3671 358.132 76.6466 358.268 77.6627C358.324 78.083 358.024 78.4691 357.596 78.5244C357.562 78.5286 357.527 78.5314 357.493 78.5314V78.5311Z" fill="#A5B9C4"/>
<path fill-rule="evenodd" clip-rule="evenodd" d="M376.386 64.5651C376.249 64.5651 376.11 64.5296 375.984 64.4549C372.183 62.1996 366.943 61.2924 361.61 61.9662C361.182 62.0196 360.792 61.7227 360.737 61.3017C360.682 60.8808 360.984 60.4961 361.411 60.4421C364.283 60.0792 367.094 60.1374 369.766 60.6145C372.394 61.0837 374.756 61.9329 376.789 63.1387C377.158 63.3576 377.277 63.8298 377.055 64.1932C376.908 64.4326 376.65 64.5651 376.386 64.5651V64.5651Z" fill="#A5B9C4"/>
<path fill-rule="evenodd" clip-rule="evenodd" d="M380.421 68.1304C380.181 68.1304 379.943 68.021 379.791 67.8149C379.395 67.2818 378.948 66.7762 378.459 66.3124C378.149 66.0178 378.14 65.5315 378.439 65.226C378.739 64.9208 379.232 64.9119 379.542 65.2065C380.095 65.7318 380.603 66.3048 381.051 66.9091C381.305 67.2515 381.228 67.7324 380.881 67.9825C380.742 68.0822 380.581 68.1304 380.421 68.1304Z" fill="#A5B9C4"/>
<path fill-rule="evenodd" clip-rule="evenodd" d="M325.82 101.386C325.75 101.386 325.678 101.377 325.606 101.357C325.192 101.24 324.952 100.815 325.07 100.407C326.382 95.8811 329.801 91.399 334.452 88.1102C334.802 87.8628 335.289 87.9416 335.54 88.2862C335.791 88.6308 335.712 89.111 335.361 89.3582C330.992 92.4486 327.787 96.6296 326.571 100.829C326.473 101.166 326.16 101.386 325.82 101.386V101.386Z" fill="#A5B9C4"/>
<path fill-rule="evenodd" clip-rule="evenodd" d="M325.328 106.701C324.937 106.701 324.6 106.412 324.554 106.021C324.467 105.276 324.442 104.519 324.48 103.769C324.502 103.346 324.87 103.02 325.298 103.041C325.729 103.062 326.06 103.423 326.038 103.846C326.004 104.511 326.026 105.183 326.104 105.844C326.154 106.266 325.847 106.647 325.419 106.696C325.388 106.699 325.358 106.701 325.328 106.701V106.701Z" fill="#A5B9C4"/>
<path fill-rule="evenodd" clip-rule="evenodd" d="M361.12 105.582C361.021 105.582 360.919 105.563 360.822 105.523C360.424 105.36 360.235 104.911 360.4 104.519C361.074 102.919 360.788 100.875 358.628 99.9143C356.948 99.1671 354.576 99.497 353.339 101.988C353.149 102.369 352.682 102.527 352.295 102.341C351.908 102.154 351.748 101.694 351.937 101.313C352.691 99.7959 353.855 98.7476 355.305 98.2812C356.593 97.8669 358.001 97.9498 359.27 98.514C361.44 99.4792 363.17 101.954 361.841 105.108C361.716 105.404 361.426 105.582 361.12 105.582V105.582Z" fill="#A5B9C4"/>
<path fill-rule="evenodd" clip-rule="evenodd" d="M389.024 79.7647C388.627 79.7647 388.287 79.4668 388.249 79.0694C388.063 77.1485 389.393 75.9646 390.803 75.7878C391.502 75.7001 392.19 75.8572 392.742 76.2303C393.363 76.6508 393.76 77.2996 393.891 78.1071C393.959 78.5261 393.669 78.9199 393.243 78.9867C392.818 79.0534 392.418 78.768 392.35 78.3491C392.168 77.2234 391.193 77.2874 390.999 77.3119C390.076 77.4279 389.732 78.2048 389.802 78.9235C389.842 79.3456 389.528 79.7207 389.099 79.7613C389.074 79.7634 389.049 79.7648 389.024 79.7648V79.7647Z" fill="#A5B9C4"/>
<path fill-rule="evenodd" clip-rule="evenodd" d="M245.261 166.335H241.659C241.228 166.335 240.879 165.991 240.879 165.567C240.879 165.142 241.228 164.798 241.659 164.798H245.261C245.691 164.798 246.041 165.142 246.041 165.567C246.041 165.991 245.691 166.335 245.261 166.335Z" fill="#A5B9C4"/>
<path fill-rule="evenodd" clip-rule="evenodd" d="M188.534 130.152H184.932C184.502 130.152 184.152 129.808 184.152 129.384C184.152 128.959 184.502 128.615 184.932 128.615H188.534C188.965 128.615 189.314 128.959 189.314 129.384C189.314 129.808 188.965 130.152 188.534 130.152Z" fill="#A5B9C4"/>
<path fill-rule="evenodd" clip-rule="evenodd" d="M314.594 151.829H310.992C310.561 151.829 310.212 151.485 310.212 151.06C310.212 150.636 310.561 150.292 310.992 150.292H314.594C315.024 150.292 315.374 150.636 315.374 151.06C315.374 151.485 315.024 151.829 314.594 151.829Z" fill="#A5B9C4"/>
<path fill-rule="evenodd" clip-rule="evenodd" d="M104.069 153.904H100.468C100.037 153.904 99.6875 153.56 99.6875 153.136C99.6875 152.712 100.037 152.368 100.468 152.368H104.069C104.5 152.368 104.849 152.712 104.849 153.136C104.849 153.56 104.5 153.904 104.069 153.904Z" fill="#A5B9C4"/>
<path fill-rule="evenodd" clip-rule="evenodd" d="M273.957 151.735H259.594C259.163 151.735 258.813 151.391 258.813 150.967C258.813 150.542 259.163 150.198 259.594 150.198H273.957C274.388 150.198 274.738 150.542 274.738 150.967C274.738 151.391 274.388 151.735 273.957 151.735Z" fill="#A5B9C4"/>
<path fill-rule="evenodd" clip-rule="evenodd" d="M295.975 131.766H292.373C291.942 131.766 291.593 131.422 291.593 130.998C291.593 130.574 291.942 130.229 292.373 130.229H295.975C296.405 130.229 296.754 130.574 296.754 130.998C296.754 131.422 296.405 131.766 295.975 131.766V131.766Z" fill="#A5B9C4"/>
<path fill-rule="evenodd" clip-rule="evenodd" d="M330.638 161.316C330.207 161.316 329.857 160.972 329.857 160.548V111.765C329.857 111.341 330.207 110.997 330.638 110.997C331.069 110.997 331.418 111.341 331.418 111.765V160.548C331.418 160.972 331.069 161.316 330.638 161.316Z" fill="#A5B9C4"/>
<path fill-rule="evenodd" clip-rule="evenodd" d="M307.108 161.316C306.677 161.316 306.328 160.972 306.328 160.548V140.19C306.328 139.765 306.677 139.422 307.108 139.422C307.539 139.422 307.888 139.765 307.888 140.19V160.548C307.888 160.972 307.539 161.316 307.108 161.316Z" fill="#A5B9C4"/>
<path fill-rule="evenodd" clip-rule="evenodd" d="M311.787 156.452C311.385 156.452 311.044 156.147 311.011 155.746C310.349 147.756 311.829 139.001 315.178 131.093C316.881 127.07 318.995 123.445 321.463 120.318C324.082 117 327.031 114.333 330.228 112.392C330.469 112.246 330.771 112.24 331.018 112.375C331.265 112.511 331.418 112.768 331.418 113.046V155.683C331.418 156.108 331.069 156.452 330.637 156.452C330.488 156.452 330.349 156.41 330.231 156.339C328.862 156.072 318.916 155.968 311.842 156.45C311.823 156.451 311.805 156.451 311.787 156.451V156.452ZM329.857 155.685C329.857 155.685 329.857 155.685 329.857 155.685C329.857 155.685 329.857 155.685 329.857 155.685ZM329.857 114.466C327.273 116.226 324.868 118.506 322.695 121.261C320.312 124.28 318.267 127.787 316.617 131.684C313.468 139.122 312.018 147.322 312.51 154.867C315.736 154.673 319.899 154.566 323.835 154.578C325.713 154.584 327.357 154.616 328.591 154.672C329.123 154.697 329.535 154.722 329.857 154.75V114.466Z" fill="#A5B9C4"/>
<path fill-rule="evenodd" clip-rule="evenodd" d="M318.2 136.55C318.114 136.55 318.027 136.536 317.942 136.507C317.535 136.367 317.321 135.929 317.463 135.528C319.569 129.595 322.617 124.264 326.276 120.111C326.559 119.791 327.051 119.757 327.377 120.035C327.702 120.313 327.737 120.798 327.454 121.118C323.923 125.125 320.977 130.283 318.935 136.035C318.823 136.351 318.522 136.55 318.2 136.55V136.55Z" fill="#A5B9C4"/>
<path fill-rule="evenodd" clip-rule="evenodd" d="M316.798 141.141C316.734 141.141 316.669 141.133 316.604 141.117C316.187 141.011 315.935 140.593 316.042 140.182C316.24 139.421 316.462 138.635 316.72 137.778C316.843 137.371 317.277 137.139 317.69 137.26C318.103 137.38 318.338 137.808 318.216 138.215C317.964 139.053 317.747 139.822 317.553 140.564C317.463 140.911 317.146 141.141 316.798 141.141V141.141Z" fill="#A5B9C4"/>
<path fill-rule="evenodd" clip-rule="evenodd" d="M311.787 151.905C311.381 151.905 311.038 151.595 311.01 151.19C310.98 150.767 311.304 150.4 311.734 150.371C315.051 150.144 319.575 150.017 323.835 150.031C325.712 150.038 327.356 150.07 328.591 150.126C330.703 150.222 330.924 150.339 331.158 150.555C331.323 150.706 331.418 150.918 331.418 151.137C331.418 151.561 331.068 151.905 330.637 151.905C330.488 151.905 330.349 151.864 330.231 151.793C328.862 151.526 318.916 151.422 311.842 151.903C311.823 151.905 311.805 151.905 311.787 151.905V151.905ZM329.857 151.141C329.857 151.141 329.857 151.141 329.857 151.141C329.857 151.141 329.857 151.141 329.857 151.141ZM329.857 151.141V151.141V151.141ZM329.857 151.139C329.857 151.139 329.857 151.139 329.857 151.139C329.857 151.139 329.857 151.139 329.857 151.139ZM329.857 151.137C329.857 151.137 329.857 151.138 329.857 151.138C329.857 151.137 329.857 151.137 329.857 151.137Z" fill="#A5B9C4"/>
<path fill-rule="evenodd" clip-rule="evenodd" d="M298.79 158.243C298.639 158.243 298.489 158.2 298.36 158.116C298.151 157.98 298.021 157.754 298.011 157.508C297.936 155.783 298.277 152.648 299.489 149.49C301.005 145.535 303.511 142.529 306.735 140.797C306.977 140.666 307.27 140.672 307.507 140.811C307.743 140.949 307.888 141.2 307.888 141.471V157.475C307.888 157.899 307.539 158.243 307.109 158.243C306.755 158.243 306.456 158.012 306.361 157.694C306.086 157.576 305.166 157.378 303.194 157.502C301.595 157.602 299.897 157.886 299.064 158.194C298.975 158.227 298.883 158.243 298.79 158.243ZM306.329 142.848C301.108 146.428 299.724 153.196 299.575 156.459C301.436 156.04 304.532 155.711 306.329 156.093V142.848Z" fill="#A5B9C4"/>
<path fill-rule="evenodd" clip-rule="evenodd" d="M307.108 156.023C306.755 156.023 306.456 155.792 306.36 155.474C306.102 155.361 305.282 155.18 303.507 155.264C302.026 155.334 300.418 155.566 299.41 155.857C298.996 155.976 298.564 155.742 298.443 155.335C298.322 154.927 298.559 154.501 298.973 154.382C300.753 153.87 305.901 153.201 307.369 154.285C307.703 154.532 307.888 154.876 307.888 155.255C307.888 155.679 307.538 156.023 307.108 156.023V156.023Z" fill="#A5B9C4"/>
<path fill-rule="evenodd" clip-rule="evenodd" d="M346.111 156.452C346.082 156.452 346.053 156.45 346.024 156.447C338.722 155.647 332.852 156.093 330.768 156.441C330.542 156.479 330.31 156.416 330.134 156.271C329.959 156.124 329.857 155.91 329.857 155.683V113.557C329.857 113.198 330.11 112.886 330.466 112.807C330.821 112.728 331.185 112.903 331.342 113.227C332.594 115.82 333.242 119.652 333.993 124.089C334.792 128.817 335.698 134.176 337.551 139.602C339.689 145.86 342.675 150.949 346.679 155.158C346.903 155.393 346.954 155.74 346.808 156.028C346.675 156.289 346.403 156.452 346.111 156.452ZM331.418 118.685V154.801C333.275 154.578 337.847 154.19 344.201 154.726C340.707 150.656 338.039 145.848 336.072 140.091C334.179 134.55 333.262 129.126 332.454 124.341C332.108 122.298 331.785 120.386 331.418 118.685Z" fill="#A5B9C4"/>
<path fill-rule="evenodd" clip-rule="evenodd" d="M330.637 151.905C330.263 151.905 329.933 151.64 329.869 151.266C329.797 150.848 330.082 150.451 330.507 150.38C330.688 150.349 335.044 149.637 342.066 150.031C342.496 150.055 342.824 150.418 342.8 150.842C342.776 151.265 342.407 151.588 341.977 151.565C335.147 151.182 330.811 151.887 330.768 151.895C330.724 151.902 330.68 151.905 330.637 151.905V151.905Z" fill="#A5B9C4"/>
<path fill-rule="evenodd" clip-rule="evenodd" d="M351.01 163.762H290.855C290.425 163.762 290.075 163.418 290.075 162.994C290.075 162.569 290.425 162.225 290.855 162.225H351.01C351.441 162.225 351.79 162.569 351.79 162.994C351.79 163.418 351.441 163.762 351.01 163.762V163.762Z" fill="#A5B9C4"/>
<path fill-rule="evenodd" clip-rule="evenodd" d="M311.252 129.767H271.45C270.589 129.767 269.891 129.08 269.891 128.231V75.094C269.891 74.2451 270.589 73.5574 271.45 73.5574H335.835C336.697 73.5574 337.395 74.2451 337.395 75.094C337.395 75.9424 336.697 76.6301 335.835 76.6301H273.01V126.695H311.252C312.113 126.695 312.811 127.382 312.811 128.231C312.811 129.08 312.113 129.767 311.252 129.767V129.767Z" fill="#A5B9C4"/>
<path fill-rule="evenodd" clip-rule="evenodd" d="M311.252 137.576C310.39 137.576 309.691 136.888 309.691 136.039V116.834C309.691 115.985 310.39 115.297 311.252 115.297H398.44C399.302 115.297 400 115.985 400 116.834C400 117.682 399.302 118.37 398.44 118.37H312.812V136.039C312.812 136.888 312.113 137.576 311.252 137.576V137.576Z" fill="#A5B9C4"/>
<path fill-rule="evenodd" clip-rule="evenodd" d="M398.44 145.258H358.676C357.815 145.258 357.116 144.57 357.116 143.722C357.116 142.873 357.815 142.185 358.676 142.185H398.44C399.302 142.185 400 142.873 400 143.722C400 144.57 399.302 145.258 398.44 145.258Z" fill="#A5B9C4"/>
<path fill-rule="evenodd" clip-rule="evenodd" d="M293.932 145.258H240.133C239.272 145.258 238.573 144.57 238.573 143.722V136.039C238.573 135.191 239.272 134.503 240.133 134.503H398.111C398.973 134.503 399.671 135.191 399.671 136.039C399.671 136.888 398.973 137.576 398.111 137.576H241.694V142.185H293.932C294.794 142.185 295.492 142.873 295.492 143.722C295.492 144.57 294.794 145.258 293.932 145.258Z" fill="#A5B9C4"/>
<path fill-rule="evenodd" clip-rule="evenodd" d="M311.252 137.576H244.034C243.172 137.576 242.474 136.888 242.474 136.039V128.231C242.474 127.382 243.172 126.695 244.034 126.695H311.252C312.113 126.695 312.812 127.382 312.812 128.231V136.039C312.812 136.888 312.113 137.576 311.252 137.576ZM245.594 134.503H309.692V129.767H245.594V134.503Z" fill="#A5B9C4"/>
<path fill-rule="evenodd" clip-rule="evenodd" d="M252.486 128.357C247.684 128.357 243.777 124.51 243.777 119.78C243.777 115.05 247.684 111.201 252.486 111.201C257.288 111.201 261.194 115.05 261.194 119.78C261.194 124.51 257.288 128.357 252.486 128.357ZM252.486 112.737C248.544 112.737 245.338 115.897 245.338 119.78C245.338 123.662 248.544 126.821 252.486 126.821C256.427 126.821 259.634 123.662 259.634 119.78C259.634 115.897 256.427 112.737 252.486 112.737Z" fill="#A5B9C4"/>
<path fill-rule="evenodd" clip-rule="evenodd" d="M254.699 124.192C254.439 124.192 254.186 124.065 254.038 123.833C253.808 123.473 253.918 122.999 254.283 122.773C254.313 122.755 254.342 122.738 254.372 122.72C254.391 122.709 254.41 122.698 254.429 122.686C254.794 122.46 255.275 122.569 255.505 122.928C255.734 123.287 255.624 123.761 255.259 123.987C255.229 124.005 255.2 124.023 255.171 124.04C255.151 124.051 255.132 124.062 255.113 124.074C254.984 124.154 254.841 124.192 254.699 124.192V124.192Z" fill="#A5B9C4"/>
<path fill-rule="evenodd" clip-rule="evenodd" d="M256.52 122.05C256.43 122.05 256.338 122.034 256.249 122.001C255.845 121.853 255.639 121.411 255.789 121.013C255.939 120.618 256.015 120.203 256.015 119.78C256.015 118.387 255.176 117.133 253.879 116.585C253.483 116.418 253.3 115.967 253.47 115.577C253.639 115.187 254.098 115.006 254.494 115.173C256.365 115.963 257.575 117.771 257.575 119.78C257.575 120.386 257.466 120.981 257.251 121.549C257.135 121.858 256.837 122.05 256.52 122.05V122.05Z" fill="#A5B9C4"/>
<path fill-rule="evenodd" clip-rule="evenodd" d="M277.045 106.691C276.614 106.691 276.265 106.347 276.265 105.923V86.5365C276.265 86.1122 276.614 85.7684 277.045 85.7684C277.476 85.7684 277.825 86.1122 277.825 86.5365V105.923C277.825 106.347 277.476 106.691 277.045 106.691Z" fill="#A5B9C4"/>
<path fill-rule="evenodd" clip-rule="evenodd" d="M277.045 110.754C276.614 110.754 276.265 110.41 276.265 109.986V109.409C276.265 108.985 276.614 108.641 277.045 108.641C277.476 108.641 277.825 108.985 277.825 109.409V109.986C277.825 110.41 277.476 110.754 277.045 110.754Z" fill="#A5B9C4"/>
<path fill-rule="evenodd" clip-rule="evenodd" d="M333.715 84.1205H271.451C271.02 84.1205 270.671 83.7764 270.671 83.3525C270.671 82.928 271.02 82.5842 271.451 82.5842H333.715C334.146 82.5842 334.495 82.928 334.495 83.3525C334.495 83.7764 334.146 84.1205 333.715 84.1205Z" fill="#A5B9C4"/>
<path fill-rule="evenodd" clip-rule="evenodd" d="M270.836 104.967H99.7251C99.2943 104.967 98.9453 104.623 98.9453 104.198C98.9453 103.774 99.2943 103.43 99.7251 103.43H270.836C271.267 103.43 271.616 103.774 271.616 104.198C271.616 104.623 271.267 104.967 270.836 104.967Z" fill="#A5B9C4"/>
<path fill-rule="evenodd" clip-rule="evenodd" d="M260.33 94.3375H249.117C248.686 94.3375 248.337 93.9935 248.337 93.5694V89.2808H245.174C244.743 89.2808 244.394 88.937 244.394 88.5127V83.9034H235.289V88.3537C235.289 88.7781 234.94 89.1218 234.509 89.1218H228.208C227.777 89.1218 227.428 88.7781 227.428 88.3537V85.9351H220.822V91.9369C220.822 92.3612 220.473 92.705 220.042 92.705H200.589C200.159 92.705 199.809 92.3612 199.809 91.9369V90.5775H195.257V93.5694C195.257 93.9935 194.908 94.3375 194.477 94.3375H189.796C189.366 94.3375 189.016 93.9935 189.016 93.5694V87.8195H178.486V91.9369C178.486 92.3612 178.137 92.705 177.706 92.705H168.15C167.72 92.705 167.371 92.3612 167.371 91.9369V85.7998H162.69V91.6724C162.69 92.0968 162.341 92.4407 161.91 92.4407H156.133C155.702 92.4407 155.353 92.0968 155.353 91.6724V90.2414H148.064V93.5694C148.064 93.9935 147.715 94.3375 147.284 94.3375H137.387C136.957 94.3375 136.607 93.9935 136.607 93.5694V89.1218H129.629C129.199 89.1218 128.849 88.7781 128.849 88.3537V85.9351H122.975V90.6253C122.975 91.0498 122.626 91.3934 122.195 91.3934H112.944C112.513 91.3934 112.164 91.0498 112.164 90.6253C112.164 90.2009 112.513 89.857 112.944 89.857H121.415V85.1668C121.415 84.7425 121.764 84.3987 122.195 84.3987H129.629C130.06 84.3987 130.41 84.7425 130.41 85.1668V87.5855H137.387C137.818 87.5855 138.167 87.9293 138.167 88.3537V92.8009H146.504V89.4731C146.504 89.0486 146.853 88.7048 147.284 88.7048H156.133C156.564 88.7048 156.913 89.0486 156.913 89.4731V90.9043H161.13V85.0317C161.13 84.6072 161.479 84.2632 161.91 84.2632H168.15C168.581 84.2632 168.931 84.6072 168.931 85.0317V91.1686H176.926V87.051C176.926 86.6269 177.275 86.2829 177.706 86.2829H189.796C190.228 86.2829 190.577 86.6269 190.577 87.051V92.8009H193.697V89.809C193.697 89.3848 194.046 89.0407 194.477 89.0407H200.589C201.02 89.0407 201.37 89.3848 201.37 89.809V91.1686H219.262V85.1668C219.262 84.7425 219.611 84.3987 220.042 84.3987H228.208C228.639 84.3987 228.988 84.7425 228.988 85.1668V87.5855H233.729V83.1349C233.729 82.7108 234.079 82.3668 234.509 82.3668H245.174C245.605 82.3668 245.954 82.7108 245.954 83.1349V87.7446H249.117C249.548 87.7446 249.897 88.0884 249.897 88.5127V92.8009H260.33C260.761 92.8009 261.111 93.1449 261.111 93.5694C261.111 93.9935 260.761 94.3375 260.33 94.3375V94.3375Z" fill="#A5B9C4"/>
<path fill-rule="evenodd" clip-rule="evenodd" d="M134.383 101.669C133.952 101.669 133.603 101.325 133.603 100.901V94.0582C133.603 93.634 133.952 93.2899 134.383 93.2899C134.814 93.2899 135.163 93.634 135.163 94.0582V100.901C135.163 101.325 134.814 101.669 134.383 101.669Z" fill="#A5B9C4"/>
<path fill-rule="evenodd" clip-rule="evenodd" d="M153.317 98.7667C152.887 98.7667 152.537 98.4228 152.537 97.9982V93.5395C152.537 93.115 152.887 92.7712 153.317 92.7712C153.748 92.7712 154.097 93.115 154.097 93.5395V97.9982C154.097 98.4228 153.748 98.7667 153.317 98.7667Z" fill="#A5B9C4"/>
<path fill-rule="evenodd" clip-rule="evenodd" d="M165.731 102.449C165.301 102.449 164.951 102.105 164.951 101.681V92.7081C164.951 92.2838 165.301 91.9401 165.731 91.9401C166.162 91.9401 166.511 92.2838 166.511 92.7081V101.681C166.511 102.105 166.162 102.449 165.731 102.449Z" fill="#A5B9C4"/>
<path fill-rule="evenodd" clip-rule="evenodd" d="M187.316 99.0279C186.886 99.0279 186.536 98.6838 186.536 98.2598V93.02C186.536 92.5957 186.886 92.2518 187.316 92.2518C187.747 92.2518 188.096 92.5957 188.096 93.02V98.2598C188.096 98.6838 187.747 99.0279 187.316 99.0279Z" fill="#A5B9C4"/>
<path fill-rule="evenodd" clip-rule="evenodd" d="M182.57 102.917C182.138 102.917 181.789 102.573 181.789 102.149V96.861C181.789 96.4368 182.138 96.093 182.57 96.093C183 96.093 183.349 96.4368 183.349 96.861V102.149C183.349 102.573 183 102.917 182.57 102.917Z" fill="#A5B9C4"/>
<path fill-rule="evenodd" clip-rule="evenodd" d="M198.182 97.6293C197.751 97.6293 197.401 97.2856 197.401 96.861V94.4185C197.401 93.994 197.751 93.6504 198.182 93.6504C198.612 93.6504 198.962 93.994 198.962 94.4185V96.861C198.962 97.2856 198.612 97.6293 198.182 97.6293Z" fill="#A5B9C4"/>
<path fill-rule="evenodd" clip-rule="evenodd" d="M225.27 102.086C224.84 102.086 224.49 101.742 224.49 101.318V91.9306C224.49 91.5065 224.84 91.1625 225.27 91.1625C225.701 91.1625 226.05 91.5065 226.05 91.9306V101.318C226.05 101.742 225.701 102.086 225.27 102.086Z" fill="#A5B9C4"/>
<path fill-rule="evenodd" clip-rule="evenodd" d="M241.944 97.6293C241.514 97.6293 241.164 97.2855 241.164 96.861V90.6372C241.164 90.2129 241.514 89.8691 241.944 89.8691C242.375 89.8691 242.724 90.2129 242.724 90.6372V96.861C242.724 97.2855 242.375 97.6293 241.944 97.6293V97.6293Z" fill="#A5B9C4"/>
<path fill-rule="evenodd" clip-rule="evenodd" d="M246.204 101.876C245.773 101.876 245.424 101.532 245.424 101.108V94.4185C245.424 93.994 245.773 93.6504 246.204 93.6504C246.635 93.6504 246.984 93.994 246.984 94.4185V101.108C246.984 101.532 246.635 101.876 246.204 101.876Z" fill="#A5B9C4"/>
<path fill-rule="evenodd" clip-rule="evenodd" d="M214.843 101.876C214.413 101.876 214.063 101.532 214.063 101.108V97.3355C214.063 96.911 214.413 96.567 214.843 96.567C215.274 96.567 215.623 96.911 215.623 97.3355V101.108C215.623 101.532 215.274 101.876 214.843 101.876Z" fill="#A5B9C4"/>
<path fill-rule="evenodd" clip-rule="evenodd" d="M234.728 101.207C234.297 101.207 233.948 100.863 233.948 100.439V95.3485C233.948 94.9245 234.297 94.5804 234.728 94.5804C235.159 94.5804 235.508 94.9245 235.508 95.3485V100.439C235.508 100.863 235.159 101.207 234.728 101.207Z" fill="#A5B9C4"/>
<path fill-rule="evenodd" clip-rule="evenodd" d="M174.866 101.372C174.435 101.372 174.086 101.028 174.086 100.603V96.861C174.086 96.4368 174.435 96.093 174.866 96.093C175.297 96.093 175.646 96.4368 175.646 96.861V100.603C175.646 101.028 175.297 101.372 174.866 101.372Z" fill="#A5B9C4"/>
<path fill-rule="evenodd" clip-rule="evenodd" d="M145.371 101.876C144.94 101.876 144.591 101.532 144.591 101.108V98.7306C144.591 98.3065 144.94 97.9625 145.371 97.9625C145.802 97.9625 146.151 98.3065 146.151 98.7306V101.108C146.151 101.532 145.802 101.876 145.371 101.876Z" fill="#A5B9C4"/>
<path fill-rule="evenodd" clip-rule="evenodd" d="M127.039 99.4991C126.608 99.4991 126.259 99.1551 126.259 98.7306V92.0868C126.259 91.6622 126.608 91.3185 127.039 91.3185C127.47 91.3185 127.819 91.6622 127.819 92.0868V98.7306C127.819 99.1551 127.47 99.4991 127.039 99.4991Z" fill="#A5B9C4"/>
<path fill-rule="evenodd" clip-rule="evenodd" d="M119.464 102.305C119.033 102.305 118.684 101.961 118.684 101.537V96.5582C118.684 96.1337 119.033 95.7899 119.464 95.7899C119.894 95.7899 120.243 96.1337 120.243 96.5582V101.537C120.243 101.961 119.894 102.305 119.464 102.305V102.305Z" fill="#A5B9C4"/>
<path fill-rule="evenodd" clip-rule="evenodd" d="M202.783 102.917C202.352 102.917 202.003 102.573 202.003 102.149V98.2597C202.003 97.8352 202.352 97.4912 202.783 97.4912C203.214 97.4912 203.563 97.8352 203.563 98.2597V102.149C203.563 102.573 203.214 102.917 202.783 102.917V102.917Z" fill="#A5B9C4"/>
<path fill-rule="evenodd" clip-rule="evenodd" d="M209.232 147.782H120.575C120.365 147.782 120.164 147.699 120.017 147.552L100.93 128.346C100.711 128.125 100.647 127.796 100.769 127.511C100.891 127.225 101.174 127.04 101.488 127.04H212.547C212.777 127.04 212.995 127.14 213.143 127.313C213.291 127.486 213.355 127.714 213.316 127.937L210.001 147.143C209.937 147.512 209.612 147.782 209.232 147.782ZM120.903 146.246H208.573L211.623 128.577H103.343L120.903 146.246Z" fill="#A5B9C4"/>
<path fill-rule="evenodd" clip-rule="evenodd" d="M206.306 128.577H116.43C116.135 128.577 115.865 128.412 115.733 128.152C115.601 127.892 115.629 127.581 115.806 127.348L121.651 119.666C121.798 119.472 122.029 119.358 122.274 119.358H206.306C206.737 119.358 207.086 119.702 207.086 120.126V127.809C207.086 128.233 206.737 128.577 206.306 128.577V128.577ZM117.99 127.04H205.526V120.894H122.665L117.99 127.04Z" fill="#A5B9C4"/>
<path fill-rule="evenodd" clip-rule="evenodd" d="M156.383 120.894H127.521C127.232 120.894 126.966 120.736 126.832 120.484C126.696 120.232 126.715 119.926 126.878 119.691L129.301 116.214L125.102 112.618C124.857 112.408 124.769 112.07 124.884 111.77C124.997 111.469 125.288 111.27 125.614 111.27H148.29C148.499 111.27 148.699 111.353 148.846 111.499L156.939 119.587C157.159 119.807 157.224 120.137 157.103 120.423C156.981 120.708 156.698 120.894 156.383 120.894ZM129.003 119.358H154.52L147.964 112.807H127.7L130.849 115.504C131.149 115.76 131.205 116.197 130.981 116.518L129.003 119.358Z" fill="#A5B9C4"/>
<path fill-rule="evenodd" clip-rule="evenodd" d="M196.818 116.156C196.663 116.156 196.509 116.11 196.377 116.021C196.165 115.878 196.038 115.641 196.038 115.388V111.228C196.038 110.975 196.165 110.738 196.377 110.595C196.589 110.451 196.859 110.42 197.099 110.512L202.56 112.592C202.86 112.706 203.058 112.991 203.058 113.308C203.058 113.626 202.86 113.91 202.56 114.025L197.099 116.104C197.008 116.139 196.913 116.156 196.818 116.156ZM197.598 112.349V114.267L200.116 113.308L197.598 112.349Z" fill="#A5B9C4"/>
<path fill-rule="evenodd" clip-rule="evenodd" d="M196.818 120.894C196.387 120.894 196.038 120.55 196.038 120.126V109.563C196.038 109.139 196.387 108.795 196.818 108.795C197.249 108.795 197.598 109.139 197.598 109.563V120.126C197.598 120.55 197.249 120.894 196.818 120.894Z" fill="#A5B9C4"/>
<path fill-rule="evenodd" clip-rule="evenodd" d="M120.575 135.578C119.221 135.578 118.119 134.493 118.119 133.159C118.119 131.824 119.221 130.737 120.575 130.737C121.929 130.737 123.031 131.824 123.031 133.159C123.031 134.493 121.929 135.578 120.575 135.578ZM120.575 132.274C120.081 132.274 119.679 132.671 119.679 133.159C119.679 133.645 120.081 134.041 120.575 134.041C121.069 134.041 121.471 133.645 121.471 133.159C121.471 132.671 121.069 132.274 120.575 132.274Z" fill="#A5B9C4"/>
<path fill-rule="evenodd" clip-rule="evenodd" d="M137.857 135.578C136.503 135.578 135.401 134.493 135.401 133.159C135.401 131.824 136.503 130.737 137.857 130.737C139.212 130.737 140.313 131.824 140.313 133.159C140.313 134.493 139.212 135.578 137.857 135.578ZM137.857 132.274C137.363 132.274 136.961 132.671 136.961 133.159C136.961 133.645 137.363 134.041 137.857 134.041C138.351 134.041 138.753 133.645 138.753 133.159C138.753 132.671 138.351 132.274 137.857 132.274Z" fill="#A5B9C4"/>
<path fill-rule="evenodd" clip-rule="evenodd" d="M153.458 135.578C152.104 135.578 151.002 134.493 151.002 133.159C151.002 131.824 152.104 130.737 153.458 130.737C154.813 130.737 155.914 131.824 155.914 133.159C155.914 134.493 154.813 135.578 153.458 135.578ZM153.458 132.274C152.964 132.274 152.562 132.671 152.562 133.159C152.562 133.645 152.964 134.041 153.458 134.041C153.952 134.041 154.354 133.645 154.354 133.159C154.354 132.671 153.952 132.274 153.458 132.274Z" fill="#A5B9C4"/>
<path fill-rule="evenodd" clip-rule="evenodd" d="M169.059 135.578C167.705 135.578 166.604 134.493 166.604 133.159C166.604 131.824 167.705 130.737 169.059 130.737C170.414 130.737 171.515 131.824 171.515 133.159C171.515 134.493 170.414 135.578 169.059 135.578ZM169.059 132.274C168.565 132.274 168.164 132.671 168.164 133.159C168.164 133.645 168.565 134.041 169.059 134.041C169.553 134.041 169.955 133.645 169.955 133.159C169.955 132.671 169.553 132.274 169.059 132.274Z" fill="#A5B9C4"/>
<path fill-rule="evenodd" clip-rule="evenodd" d="M184.66 135.578C183.306 135.578 182.204 134.493 182.204 133.159C182.204 131.824 183.306 130.737 184.66 130.737C186.015 130.737 187.116 131.824 187.116 133.159C187.116 134.493 186.015 135.578 184.66 135.578ZM184.66 132.274C184.166 132.274 183.765 132.671 183.765 133.159C183.765 133.645 184.166 134.041 184.66 134.041C185.154 134.041 185.556 133.645 185.556 133.159C185.556 132.671 185.154 132.274 184.66 132.274Z" fill="#A5B9C4"/>
<path fill-rule="evenodd" clip-rule="evenodd" d="M206.306 124.162H119.788C119.357 124.162 119.008 123.818 119.008 123.394C119.008 122.97 119.357 122.626 119.788 122.626H206.306C206.737 122.626 207.086 122.97 207.086 123.394C207.086 123.818 206.737 124.162 206.306 124.162Z" fill="#A5B9C4"/>
<path fill-rule="evenodd" clip-rule="evenodd" d="M210.39 139.122H111.97C111.538 139.122 111.189 138.778 111.189 138.354C111.189 137.929 111.538 137.586 111.97 137.586H210.39C210.82 137.586 211.17 137.929 211.17 138.354C211.17 138.778 210.82 139.122 210.39 139.122V139.122Z" fill="#A5B9C4"/>
<path fill-rule="evenodd" clip-rule="evenodd" d="M209.668 142.06H114.755C114.324 142.06 113.975 141.716 113.975 141.292C113.975 140.867 114.324 140.523 114.755 140.523H209.668C210.099 140.523 210.448 140.867 210.448 141.292C210.448 141.716 210.099 142.06 209.668 142.06V142.06Z" fill="#A5B9C4"/>
<path fill-rule="evenodd" clip-rule="evenodd" d="M152.337 116.852H130.337C129.906 116.852 129.557 116.508 129.557 116.084C129.557 115.66 129.906 115.316 130.337 115.316H152.337C152.767 115.316 153.116 115.66 153.116 116.084C153.116 116.508 152.767 116.852 152.337 116.852Z" fill="#A5B9C4"/>
<path fill-rule="evenodd" clip-rule="evenodd" d="M208.477 134.926C208.434 134.926 208.39 134.923 208.345 134.916C207.921 134.844 207.635 134.448 207.708 134.029L208.305 130.575C208.377 130.157 208.78 129.876 209.205 129.947C209.629 130.018 209.915 130.415 209.842 130.833L209.245 134.287C209.181 134.662 208.85 134.926 208.477 134.926Z" fill="#A5B9C4"/>
<path fill-rule="evenodd" clip-rule="evenodd" d="M135.572 114.848H131.087C130.656 114.848 130.307 114.504 130.307 114.079C130.307 113.655 130.656 113.311 131.087 113.311H135.572C136.003 113.311 136.352 113.655 136.352 114.079C136.352 114.504 136.003 114.848 135.572 114.848Z" fill="#A5B9C4"/>
<path fill-rule="evenodd" clip-rule="evenodd" d="M129.137 126.434H121.269C120.839 126.434 120.489 126.09 120.489 125.666C120.489 125.242 120.839 124.898 121.269 124.898H129.137C129.568 124.898 129.917 125.242 129.917 125.666C129.917 126.09 129.568 126.434 129.137 126.434Z" fill="#A5B9C4"/>
<path fill-rule="evenodd" clip-rule="evenodd" d="M131.185 126.434H129.393C128.962 126.434 128.612 126.09 128.612 125.666C128.612 125.242 128.962 124.898 129.393 124.898H131.185C131.615 124.898 131.965 125.242 131.965 125.666C131.965 126.09 131.615 126.434 131.185 126.434Z" fill="#A5B9C4"/>
<path fill-rule="evenodd" clip-rule="evenodd" d="M136.273 126.434H134.481C134.051 126.434 133.701 126.09 133.701 125.666C133.701 125.242 134.051 124.898 134.481 124.898H136.273C136.704 124.898 137.053 125.242 137.053 125.666C137.053 126.09 136.704 126.434 136.273 126.434Z" fill="#A5B9C4"/>
<path fill-rule="evenodd" clip-rule="evenodd" d="M141.354 126.434H139.569C139.138 126.434 138.789 126.09 138.789 125.666C138.789 125.242 139.138 124.898 139.569 124.898H141.354C141.786 124.898 142.135 125.242 142.135 125.666C142.135 126.09 141.786 126.434 141.354 126.434Z" fill="#A5B9C4"/>
<path fill-rule="evenodd" clip-rule="evenodd" d="M146.444 126.434H144.658C144.227 126.434 143.878 126.09 143.878 125.666C143.878 125.242 144.227 124.898 144.658 124.898H146.444C146.875 124.898 147.224 125.242 147.224 125.666C147.224 126.09 146.875 126.434 146.444 126.434Z" fill="#A5B9C4"/>
<path fill-rule="evenodd" clip-rule="evenodd" d="M150.893 126.434H150.381C149.95 126.434 149.601 126.09 149.601 125.666C149.601 125.242 149.95 124.898 150.381 124.898H150.893C151.324 124.898 151.673 125.242 151.673 125.666C151.673 126.09 151.324 126.434 150.893 126.434Z" fill="#A5B9C4"/>
<path fill-rule="evenodd" clip-rule="evenodd" d="M155.981 126.434H155.47C155.038 126.434 154.689 126.09 154.689 125.666C154.689 125.242 155.038 124.898 155.47 124.898H155.981C156.412 124.898 156.761 125.242 156.761 125.666C156.761 126.09 156.412 126.434 155.981 126.434Z" fill="#A5B9C4"/>
<path fill-rule="evenodd" clip-rule="evenodd" d="M161.069 126.434H160.557C160.126 126.434 159.777 126.09 159.777 125.666C159.777 125.242 160.126 124.898 160.557 124.898H161.069C161.5 124.898 161.85 125.242 161.85 125.666C161.85 126.09 161.5 126.434 161.069 126.434Z" fill="#A5B9C4"/>
<path fill-rule="evenodd" clip-rule="evenodd" d="M166.158 126.434H165.646C165.216 126.434 164.866 126.09 164.866 125.666C164.866 125.242 165.216 124.898 165.646 124.898H166.158C166.589 124.898 166.938 125.242 166.938 125.666C166.938 126.09 166.589 126.434 166.158 126.434Z" fill="#A5B9C4"/>
<path fill-rule="evenodd" clip-rule="evenodd" d="M171.077 126.434H170.9C170.47 126.434 170.12 126.09 170.12 125.666C170.12 125.242 170.47 124.898 170.9 124.898H171.077C171.508 124.898 171.857 125.242 171.857 125.666C171.857 126.09 171.508 126.434 171.077 126.434Z" fill="#A5B9C4"/>
<path fill-rule="evenodd" clip-rule="evenodd" d="M156.694 136.139C156.541 136.139 156.387 136.095 156.251 136.003C155.897 135.763 155.808 135.284 156.052 134.935C156.42 134.408 156.615 133.794 156.615 133.159C156.615 132.751 156.536 132.356 156.381 131.984C156.218 131.591 156.408 131.142 156.806 130.981C157.205 130.82 157.66 131.007 157.824 131.4C158.057 131.958 158.175 132.55 158.175 133.159C158.175 134.107 157.885 135.023 157.336 135.807C157.185 136.023 156.941 136.139 156.694 136.139V136.139Z" fill="#A5B9C4"/>
<path fill-rule="evenodd" clip-rule="evenodd" d="M141.355 136.139C141.2 136.139 141.045 136.094 140.909 136.001C140.555 135.758 140.469 135.279 140.716 134.931C141.082 134.414 141.276 133.801 141.276 133.159C141.276 132.754 141.198 132.356 141.045 131.975C140.886 131.581 141.081 131.134 141.482 130.978C141.882 130.821 142.335 131.014 142.495 131.408C142.722 131.97 142.836 132.559 142.836 133.159C142.836 134.118 142.545 135.035 141.995 135.811C141.843 136.025 141.601 136.139 141.355 136.139V136.139Z" fill="#A5B9C4"/>
<path fill-rule="evenodd" clip-rule="evenodd" d="M123.766 136.139C123.612 136.139 123.456 136.094 123.321 136.001C122.968 135.758 122.881 135.279 123.128 134.931C123.494 134.414 123.688 133.801 123.688 133.159C123.688 132.754 123.61 132.356 123.457 131.975C123.298 131.581 123.493 131.134 123.894 130.978C124.294 130.821 124.748 131.014 124.907 131.408C125.133 131.97 125.248 132.559 125.248 133.159C125.248 134.118 124.957 135.035 124.407 135.811C124.255 136.025 124.013 136.139 123.766 136.139Z" fill="#A5B9C4"/>
<path fill-rule="evenodd" clip-rule="evenodd" d="M172.246 136.139C172.094 136.139 171.939 136.095 171.805 136.004C171.45 135.763 171.36 135.285 171.604 134.935C171.973 134.408 172.168 133.794 172.168 133.159C172.168 132.751 172.089 132.356 171.934 131.983C171.77 131.591 171.961 131.142 172.359 130.981C172.758 130.82 173.213 131.008 173.377 131.4C173.61 131.959 173.728 132.551 173.728 133.159C173.728 134.107 173.438 135.022 172.889 135.807C172.738 136.023 172.494 136.139 172.246 136.139V136.139Z" fill="#A5B9C4"/>
<path fill-rule="evenodd" clip-rule="evenodd" d="M187.969 136.139C187.816 136.139 187.662 136.095 187.527 136.004C187.172 135.763 187.083 135.285 187.327 134.935C187.695 134.408 187.89 133.794 187.89 133.159C187.89 132.751 187.811 132.356 187.656 131.984C187.492 131.591 187.683 131.142 188.081 130.981C188.48 130.82 188.936 131.007 189.099 131.4C189.332 131.958 189.45 132.55 189.45 133.159C189.45 134.107 189.161 135.022 188.612 135.807C188.461 136.023 188.217 136.139 187.969 136.139V136.139Z" fill="#A5B9C4"/>
<path fill-rule="evenodd" clip-rule="evenodd" d="M194.715 155.893H153.458C153.027 155.893 152.678 155.549 152.678 155.124C152.678 154.7 153.027 154.356 153.458 154.356H194.715C195.146 154.356 195.495 154.7 195.495 155.124C195.495 155.549 195.146 155.893 194.715 155.893V155.893Z" fill="#A5B9C4"/>
<path fill-rule="evenodd" clip-rule="evenodd" d="M162.562 165.142H121.305C120.874 165.142 120.524 164.799 120.524 164.374C120.524 163.95 120.874 163.606 121.305 163.606H162.562C162.992 163.606 163.342 163.95 163.342 164.374C163.342 164.799 162.992 165.142 162.562 165.142V165.142Z" fill="#A5B9C4"/>
<path fill-rule="evenodd" clip-rule="evenodd" d="M65.6646 163.187H24.4071C23.9762 163.187 23.627 162.843 23.627 162.418C23.627 161.994 23.9762 161.65 24.4071 161.65H65.6646C66.0948 161.65 66.4445 161.994 66.4445 162.418C66.4445 162.843 66.0948 163.187 65.6646 163.187V163.187Z" fill="#A5B9C4"/>
<path fill-rule="evenodd" clip-rule="evenodd" d="M199.957 151.047H198.829C198.399 151.047 198.05 150.704 198.05 150.279C198.05 149.855 198.399 149.511 198.829 149.511H199.957C200.388 149.511 200.737 149.855 200.737 150.279C200.737 150.704 200.388 151.047 199.957 151.047Z" fill="#A5B9C4"/>
<path fill-rule="evenodd" clip-rule="evenodd" d="M49.4413 136.093H4.48486C3.62337 136.093 2.9248 135.405 2.9248 134.557C2.9248 133.708 3.62337 133.02 4.48486 133.02H49.4413C50.3028 133.02 51.0014 133.708 51.0014 134.557C51.0014 135.405 50.3028 136.093 49.4413 136.093Z" fill="#A5B9C4"/>
<path fill-rule="evenodd" clip-rule="evenodd" d="M99.2237 135.663H57.1451C56.812 135.663 56.542 134.941 56.542 134.05C56.542 133.159 56.812 132.436 57.1451 132.436H98.6206V79.8672H2.647C2.31399 79.8672 2.04395 79.145 2.04395 78.2542C2.04395 77.3628 2.31399 76.6407 2.647 76.6407H99.2237C99.5568 76.6407 99.8269 77.3628 99.8269 78.2542V134.05C99.8269 134.941 99.5568 135.663 99.2237 135.663Z" fill="#A5B9C4"/>
<path fill-rule="evenodd" clip-rule="evenodd" d="M98.4584 124.651H4.29297C3.53772 124.651 2.9248 123.961 2.9248 123.11C2.9248 122.259 3.53772 121.568 4.29297 121.568H98.4584C99.214 121.568 99.8268 122.259 99.8268 123.11C99.8268 123.961 99.214 124.651 98.4584 124.651V124.651Z" fill="#A5B9C4"/>
<path fill-rule="evenodd" clip-rule="evenodd" d="M99.0896 87.2119H4.10235C3.93857 87.2119 3.80566 86.8172 3.80566 86.3311C3.80566 85.8443 3.93857 85.45 4.10235 85.45H99.0896C99.2534 85.45 99.3863 85.8443 99.3863 86.3311C99.3863 86.8172 99.2534 87.2119 99.0896 87.2119V87.2119Z" fill="#A5B9C4"/>
<path fill-rule="evenodd" clip-rule="evenodd" d="M93.1914 110.284C92.7605 110.284 92.4111 109.94 92.4111 109.516V90.4839C92.4111 90.0596 92.7605 89.7156 93.1914 89.7156C93.622 89.7156 93.9714 90.0596 93.9714 90.4839V109.516C93.9714 109.94 93.622 110.284 93.1914 110.284Z" fill="#A5B9C4"/>
<path fill-rule="evenodd" clip-rule="evenodd" d="M93.1914 116.004C92.7605 116.004 92.4111 115.66 92.4111 115.236V113.027C92.4111 112.602 92.7605 112.258 93.1914 112.258C93.622 112.258 93.9714 112.602 93.9714 113.027V115.236C93.9714 115.66 93.622 116.004 93.1914 116.004Z" fill="#A5B9C4"/>
<path fill-rule="evenodd" clip-rule="evenodd" d="M69.5585 118.122C67.8984 118.122 66.5479 116.795 66.5479 115.164C66.5479 113.528 67.8984 112.199 69.5585 112.199C71.2185 112.199 72.5688 113.528 72.5688 115.164C72.5688 116.795 71.2185 118.122 69.5585 118.122ZM69.5585 113.735C68.7586 113.735 68.1081 114.376 68.1081 115.164C68.1081 115.948 68.7586 116.586 69.5585 116.586C70.3584 116.586 71.0091 115.948 71.0091 115.164C71.0091 114.376 70.3584 113.735 69.5585 113.735Z" fill="#A5B9C4"/>
<path fill-rule="evenodd" clip-rule="evenodd" d="M69.5586 114.617C69.1277 114.617 68.7783 114.273 68.7783 113.849V111.322C68.7783 110.898 69.1277 110.554 69.5586 110.554C69.9895 110.554 70.3387 110.898 70.3387 111.322V113.849C70.3387 114.273 69.9895 114.617 69.5586 114.617Z" fill="#A5B9C4"/>
<path fill-rule="evenodd" clip-rule="evenodd" d="M3.00421 118.122C1.34771 118.122 0 116.795 0 115.164C0 113.528 1.34771 112.199 3.00421 112.199C4.66401 112.199 6.01471 113.528 6.01471 115.164C6.01471 116.795 4.66401 118.122 3.00421 118.122ZM3.00421 113.735C2.20778 113.735 1.56006 114.376 1.56006 115.164C1.56006 115.948 2.20778 116.586 3.00421 116.586C3.80376 116.586 4.45465 115.948 4.45465 115.164C4.45465 114.376 3.80376 113.735 3.00421 113.735Z" fill="#A5B9C4"/>
<path fill-rule="evenodd" clip-rule="evenodd" d="M3.00439 114.617C2.57368 114.617 2.22461 114.273 2.22461 113.849V111.322C2.22461 110.898 2.57368 110.554 3.00439 110.554C3.43529 110.554 3.78454 110.898 3.78454 111.322V113.849C3.78454 114.273 3.43529 114.617 3.00439 114.617Z" fill="#A5B9C4"/>
</svg>
