<svg width="228" height="224" viewBox="0 0 228 224" fill="none" xmlns="http://www.w3.org/2000/svg">
<g opacity="0.4">
<rect width="12.1912" height="97.7961" transform="matrix(0.697461 -0.716623 0.697231 0.716847 149.024 8.73653)" fill="url(#paint0_linear_1_3841)"/>
<rect width="12.1667" height="57.8247" transform="matrix(0.748343 -0.663312 0.642772 0.766057 0.186768 80.2913)" fill="url(#paint1_linear_1_3841)"/>
<rect width="12.1998" height="107.998" transform="matrix(0.678879 0.73425 -0.715385 0.698731 77.2605 4.34682)" fill="url(#paint2_linear_1_3841)"/>
<rect width="12.1912" height="97.7961" transform="matrix(0.697461 -0.716623 0.697231 0.716847 134.222 53.6527)" fill="url(#paint3_linear_1_3841)"/>
<rect width="12.1912" height="51.377" transform="matrix(0.697461 -0.716623 0.697231 0.716847 149.778 112.392)" fill="url(#paint4_linear_1_3841)"/>
<rect width="12.1912" height="51.1871" transform="matrix(0.697461 -0.716623 0.697231 0.716847 130.309 135.844)" fill="url(#paint5_linear_1_3841)"/>
<rect width="12.1912" height="37.7405" transform="matrix(0.697461 -0.716623 0.697231 0.716847 114.486 161.597)" fill="url(#paint6_linear_1_3841)"/>
<rect width="12.1912" height="37.7405" transform="matrix(0.697461 -0.716623 0.697231 0.716847 92.6355 177.535)" fill="url(#paint7_linear_1_3841)"/>
<rect width="12.202" height="43.2007" transform="matrix(-0.674099 -0.738641 0.71992 -0.694057 194.607 100.575)" fill="url(#paint8_linear_1_3841)"/>
<rect width="12.202" height="30.8959" transform="matrix(-0.674099 -0.738641 0.71992 -0.694057 142.847 30.4564)" fill="url(#paint9_linear_1_3841)"/>
<rect width="12.3568" height="23.4208" transform="matrix(-0.0389942 -0.999239 0.999151 -0.0411892 119.162 58.3178)" fill="#2E4A92"/>
<rect width="12.3568" height="35.3843" transform="matrix(-0.0389942 -0.999239 0.999151 -0.0411892 107.266 31.9163)" fill="url(#paint10_linear_1_3841)"/>
<rect width="12.217" height="30.0897" transform="matrix(0.639931 -0.768433 0.750815 0.660513 70.0801 13.7348)" fill="url(#paint11_linear_1_3841)"/>
<rect width="12.1906" height="32.1609" transform="matrix(-0.698726 -0.715389 0.695963 -0.718078 84.0354 55.7221)" fill="#E50C6F"/>
<rect width="12.1906" height="32.1609" transform="matrix(-0.698726 -0.715389 0.695963 -0.718078 104.678 77.4557)" fill="url(#paint12_linear_1_3841)"/>
<mask id="path-16-inside-1_1_3841" fill="white">
<path d="M180.74 144.848C183.054 147.242 185.729 149.22 188.611 150.671C191.494 152.121 194.528 153.016 197.54 153.303C200.552 153.59 203.484 153.264 206.167 152.343C208.851 151.423 211.234 149.926 213.18 147.938C215.126 145.951 216.598 143.511 217.51 140.759C218.423 138.007 218.759 134.996 218.499 131.898C218.239 128.8 217.388 125.676 215.995 122.705C214.602 119.733 212.694 116.971 210.381 114.578L201.783 123.359C202.754 124.364 203.555 125.523 204.14 126.771C204.725 128.018 205.082 129.33 205.191 130.631C205.3 131.931 205.159 133.195 204.776 134.351C204.393 135.506 203.775 136.53 202.958 137.365C202.141 138.199 201.14 138.828 200.014 139.214C198.887 139.601 197.656 139.737 196.392 139.617C195.127 139.497 193.853 139.121 192.643 138.512C191.433 137.903 190.31 137.072 189.338 136.068L180.74 144.848Z"/>
</mask>
<path d="M180.74 144.848C183.054 147.242 185.729 149.22 188.611 150.671C191.494 152.121 194.528 153.016 197.54 153.303C200.552 153.59 203.484 153.264 206.167 152.343C208.851 151.423 211.234 149.926 213.18 147.938C215.126 145.951 216.598 143.511 217.51 140.759C218.423 138.007 218.759 134.996 218.499 131.898C218.239 128.8 217.388 125.676 215.995 122.705C214.602 119.733 212.694 116.971 210.381 114.578L201.783 123.359C202.754 124.364 203.555 125.523 204.14 126.771C204.725 128.018 205.082 129.33 205.191 130.631C205.3 131.931 205.159 133.195 204.776 134.351C204.393 135.506 203.775 136.53 202.958 137.365C202.141 138.199 201.14 138.828 200.014 139.214C198.887 139.601 197.656 139.737 196.392 139.617C195.127 139.497 193.853 139.121 192.643 138.512C191.433 137.903 190.31 137.072 189.338 136.068L180.74 144.848Z" fill="#D9D9D9" stroke="#348FC7" stroke-width="36" mask="url(#path-16-inside-1_1_3841)"/>
<g opacity="0.8">
<mask id="path-17-inside-2_1_3841" fill="white">
<path d="M77.7172 45.0517C75.2333 47.2576 73.127 49.8622 71.5186 52.7167C69.9102 55.5713 68.8312 58.6199 68.3432 61.6885C67.8551 64.757 67.9677 67.7855 68.6744 70.601C69.381 73.4164 70.668 75.9637 72.4618 78.0974C74.2555 80.2311 76.521 81.9095 79.1288 83.0366C81.7365 84.1637 84.6356 84.7175 87.6604 84.6665C90.6852 84.6154 93.7764 83.9604 96.7577 82.7389C99.739 81.5175 102.552 79.7534 105.036 77.5475L97.1113 68.1212C96.0684 69.0473 94.8875 69.7879 93.6358 70.3008C92.3841 70.8136 91.0862 71.0886 89.8163 71.11C88.5464 71.1315 87.3292 70.8989 86.2344 70.4257C85.1395 69.9525 84.1884 69.2479 83.4353 68.3521C82.6822 67.4562 82.1418 66.3868 81.8452 65.2047C81.5485 64.0227 81.5012 62.7512 81.7061 61.4628C81.911 60.1745 82.364 58.8946 83.0393 57.6961C83.7145 56.4977 84.5989 55.4041 85.6417 54.478L77.7172 45.0517Z"/>
</mask>
<path d="M77.7172 45.0517C75.2333 47.2576 73.127 49.8622 71.5186 52.7167C69.9102 55.5713 68.8312 58.6199 68.3432 61.6885C67.8551 64.757 67.9677 67.7855 68.6744 70.601C69.381 73.4164 70.668 75.9637 72.4618 78.0974C74.2555 80.2311 76.521 81.9095 79.1288 83.0366C81.7365 84.1637 84.6356 84.7175 87.6604 84.6665C90.6852 84.6154 93.7764 83.9604 96.7577 82.7389C99.739 81.5175 102.552 79.7534 105.036 77.5475L97.1113 68.1212C96.0684 69.0473 94.8875 69.7879 93.6358 70.3008C92.3841 70.8136 91.0862 71.0886 89.8163 71.11C88.5464 71.1315 87.3292 70.8989 86.2344 70.4257C85.1395 69.9525 84.1884 69.2479 83.4353 68.3521C82.6822 67.4562 82.1418 66.3868 81.8452 65.2047C81.5485 64.0227 81.5012 62.7512 81.7061 61.4628C81.911 60.1745 82.364 58.8946 83.0393 57.6961C83.7145 56.4977 84.5989 55.4041 85.6417 54.478L77.7172 45.0517Z" fill="#313131" stroke="#E50C6F" stroke-width="36" mask="url(#path-17-inside-2_1_3841)"/>
</g>
<g opacity="0.8">
<mask id="path-18-inside-3_1_3841" fill="white">
<path d="M116.592 19.5241C111.825 18.8543 106.913 19.5174 102.403 21.4396C97.8925 23.3618 93.9613 26.4676 91.0474 30.4107L101.109 37.5271C102.62 35.4828 104.658 33.8726 106.996 32.8761C109.334 31.8795 111.881 31.5357 114.352 31.883L116.592 19.5241Z"/>
</mask>
<path d="M116.592 19.5241C111.825 18.8543 106.913 19.5174 102.403 21.4396C97.8925 23.3618 93.9613 26.4676 91.0474 30.4107L101.109 37.5271C102.62 35.4828 104.658 33.8726 106.996 32.8761C109.334 31.8795 111.881 31.5357 114.352 31.883L116.592 19.5241Z" fill="#D9D9D9" stroke="url(#paint13_linear_1_3841)" stroke-width="36" mask="url(#path-18-inside-3_1_3841)"/>
</g>
<mask id="path-19-inside-4_1_3841" fill="white">
<path d="M158.89 165.133C161.204 167.526 163.878 169.505 166.761 170.955C169.643 172.406 172.677 173.3 175.689 173.587C178.702 173.874 181.633 173.548 184.317 172.628C187 171.708 189.383 170.211 191.329 168.223C193.276 166.236 194.747 163.796 195.66 161.044C196.572 158.292 196.908 155.281 196.648 152.183C196.388 149.085 195.537 145.961 194.145 142.989C192.752 140.018 190.844 137.256 188.53 134.863L179.932 143.644C180.904 144.648 181.705 145.808 182.289 147.055C182.874 148.303 183.231 149.615 183.34 150.915C183.45 152.216 183.309 153.48 182.925 154.636C182.542 155.791 181.924 156.815 181.107 157.65C180.29 158.484 179.29 159.113 178.163 159.499C177.036 159.885 175.806 160.022 174.541 159.902C173.276 159.781 172.003 159.406 170.792 158.797C169.582 158.188 168.459 157.357 167.488 156.352L158.89 165.133Z"/>
</mask>
<path d="M158.89 165.133C161.204 167.526 163.878 169.505 166.761 170.955C169.643 172.406 172.677 173.3 175.689 173.587C178.702 173.874 181.633 173.548 184.317 172.628C187 171.708 189.383 170.211 191.329 168.223C193.276 166.236 194.747 163.796 195.66 161.044C196.572 158.292 196.908 155.281 196.648 152.183C196.388 149.085 195.537 145.961 194.145 142.989C192.752 140.018 190.844 137.256 188.53 134.863L179.932 143.644C180.904 144.648 181.705 145.808 182.289 147.055C182.874 148.303 183.231 149.615 183.34 150.915C183.45 152.216 183.309 153.48 182.925 154.636C182.542 155.791 181.924 156.815 181.107 157.65C180.29 158.484 179.29 159.113 178.163 159.499C177.036 159.885 175.806 160.022 174.541 159.902C173.276 159.781 172.003 159.406 170.792 158.797C169.582 158.188 168.459 157.357 167.488 156.352L158.89 165.133Z" fill="#D9D9D9" stroke="#348FC7" stroke-width="36" mask="url(#path-19-inside-4_1_3841)"/>
<mask id="path-20-inside-5_1_3841" fill="white">
<path d="M134.22 183.244C136.534 185.638 139.208 187.616 142.091 189.067C144.973 190.517 148.007 191.412 151.019 191.699C154.032 191.986 156.963 191.66 159.647 190.739C162.33 189.819 164.713 188.322 166.659 186.335C168.606 184.347 170.077 181.908 170.99 179.155C171.902 176.403 172.238 173.392 171.978 170.294C171.718 167.197 170.868 164.073 169.475 161.101C168.082 158.129 166.174 155.368 163.86 152.974L155.262 161.755C156.234 162.76 157.035 163.919 157.619 165.167C158.204 166.414 158.561 167.726 158.67 169.027C158.78 170.327 158.639 171.591 158.255 172.747C157.872 173.902 157.255 174.927 156.437 175.761C155.62 176.596 154.62 177.224 153.493 177.61C152.367 177.997 151.136 178.134 149.871 178.013C148.606 177.893 147.333 177.517 146.122 176.908C144.912 176.299 143.789 175.469 142.818 174.464L134.22 183.244Z"/>
</mask>
<path d="M134.22 183.244C136.534 185.638 139.208 187.616 142.091 189.067C144.973 190.517 148.007 191.412 151.019 191.699C154.032 191.986 156.963 191.66 159.647 190.739C162.33 189.819 164.713 188.322 166.659 186.335C168.606 184.347 170.077 181.908 170.99 179.155C171.902 176.403 172.238 173.392 171.978 170.294C171.718 167.197 170.868 164.073 169.475 161.101C168.082 158.129 166.174 155.368 163.86 152.974L155.262 161.755C156.234 162.76 157.035 163.919 157.619 165.167C158.204 166.414 158.561 167.726 158.67 169.027C158.78 170.327 158.639 171.591 158.255 172.747C157.872 173.902 157.255 174.927 156.437 175.761C155.62 176.596 154.62 177.224 153.493 177.61C152.367 177.997 151.136 178.134 149.871 178.013C148.606 177.893 147.333 177.517 146.122 176.908C144.912 176.299 143.789 175.469 142.818 174.464L134.22 183.244Z" fill="#D9D9D9" stroke="#348FC7" stroke-width="36" mask="url(#path-20-inside-5_1_3841)"/>
<mask id="path-21-inside-6_1_3841" fill="white">
<path d="M115.863 201.472C117.988 203.67 120.449 205.482 123.105 206.804C125.761 208.127 128.561 208.934 131.344 209.18C134.127 209.426 136.839 209.106 139.326 208.238C141.812 207.37 144.025 205.971 145.836 204.122C147.647 202.272 149.022 200.007 149.883 197.457C150.743 194.907 151.072 192.121 150.85 189.259C150.629 186.397 149.861 183.515 148.591 180.776C147.321 178.038 145.574 175.497 143.45 173.299L135.447 181.472C136.339 182.394 137.073 183.461 137.606 184.611C138.139 185.76 138.461 186.971 138.555 188.172C138.648 189.374 138.51 190.543 138.148 191.614C137.787 192.685 137.21 193.636 136.449 194.412C135.689 195.189 134.76 195.776 133.716 196.141C132.672 196.505 131.533 196.639 130.365 196.536C129.196 196.433 128.021 196.094 126.906 195.538C125.791 194.983 124.758 194.222 123.866 193.3L115.863 201.472Z"/>
</mask>
<path d="M115.863 201.472C117.988 203.67 120.449 205.482 123.105 206.804C125.761 208.127 128.561 208.934 131.344 209.18C134.127 209.426 136.839 209.106 139.326 208.238C141.812 207.37 144.025 205.971 145.836 204.122C147.647 202.272 149.022 200.007 149.883 197.457C150.743 194.907 151.072 192.121 150.85 189.259C150.629 186.397 149.861 183.515 148.591 180.776C147.321 178.038 145.574 175.497 143.45 173.299L135.447 181.472C136.339 182.394 137.073 183.461 137.606 184.611C138.139 185.76 138.461 186.971 138.555 188.172C138.648 189.374 138.51 190.543 138.148 191.614C137.787 192.685 137.21 193.636 136.449 194.412C135.689 195.189 134.76 195.776 133.716 196.141C132.672 196.505 131.533 196.639 130.365 196.536C129.196 196.433 128.021 196.094 126.906 195.538C125.791 194.983 124.758 194.222 123.866 193.3L115.863 201.472Z" fill="#D9D9D9" stroke="#348FC7" stroke-width="36" mask="url(#path-21-inside-6_1_3841)"/>
<mask id="path-22-inside-7_1_3841" fill="white">
<path d="M89.6689 182.556C99.3198 173.798 107.691 167.129 118.133 179.491C128.131 189.014 121.3 199.384 111.649 208.142C101.998 216.9 95.217 222.912 83.1845 211.207C75.6196 201.684 80.0181 191.314 89.6689 182.556ZM106.101 201.684C110.88 197.347 112.317 190.995 109.312 187.497C106.306 183.998 99.9958 184.677 95.217 189.014C90.4381 193.351 89.0006 199.703 92.0061 203.201C95.0116 206.7 101.322 206.021 106.101 201.684Z"/>
</mask>
<path d="M89.6689 182.556C99.3198 173.798 107.691 167.129 118.133 179.491C128.131 189.014 121.3 199.384 111.649 208.142C101.998 216.9 95.217 222.912 83.1845 211.207C75.6196 201.684 80.0181 191.314 89.6689 182.556ZM106.101 201.684C110.88 197.347 112.317 190.995 109.312 187.497C106.306 183.998 99.9958 184.677 95.217 189.014C90.4381 193.351 89.0006 199.703 92.0061 203.201C95.0116 206.7 101.322 206.021 106.101 201.684Z" fill="#D9D9D9"/>
<path d="M118.133 179.491L104.707 191.474L105.335 192.217L106.038 192.887L118.133 179.491ZM83.1845 211.207L69.4135 222.769L70.1305 223.672L70.9539 224.473L83.1845 211.207ZM101.398 196.21C103.81 194.021 105.484 192.575 106.893 191.558C108.321 190.528 108.586 190.607 107.973 190.769C107.586 190.871 106.953 190.979 106.154 190.938C105.339 190.897 104.617 190.715 104.062 190.49C103.024 190.068 103.296 189.803 104.707 191.474L131.56 167.508C127.75 162.998 123.059 158.93 117.213 156.556C111.032 154.046 104.849 153.955 99.2355 155.438C89.7258 157.951 82.0045 165.213 77.9396 168.902L101.398 196.21ZM106.038 192.887C106.609 193.43 105.904 192.969 105.502 191.366C105.087 189.713 105.394 188.45 105.506 188.12C105.556 187.975 105.365 188.57 104.318 189.908C103.309 191.197 101.855 192.732 99.9196 194.488L123.378 221.796C128.671 216.993 135.763 209.611 139.013 200.087C140.79 194.879 141.533 188.691 139.889 182.141C138.257 175.642 134.657 170.313 130.228 166.095L106.038 192.887ZM99.9196 194.488C98.694 195.601 97.6857 196.512 96.7393 197.331C95.8019 198.142 95.0751 198.73 94.4833 199.168C93.199 200.117 93.1753 199.88 94.0474 199.655C94.5556 199.524 95.2225 199.434 95.9698 199.476C96.7137 199.519 97.2721 199.677 97.581 199.795C98.0789 199.985 97.384 199.857 95.4151 197.941L70.9539 224.473C79.2359 232.529 89.9119 238.302 102.572 235.041C107.85 233.682 112.083 231.031 115.161 228.756C118.197 226.511 121.111 223.853 123.378 221.796L99.9196 194.488ZM96.9556 199.645C96.6216 199.224 96.8739 199.394 97.0256 200.136C97.1796 200.889 97.0701 201.45 97.038 201.564C97.0322 201.585 97.1813 201.063 97.9098 200.025C98.6322 198.996 99.7595 197.697 101.398 196.21L77.9396 168.902C71.8267 174.45 65.5751 182.046 62.9036 191.625C59.9049 202.376 62.0497 213.499 69.4135 222.769L96.9556 199.645ZM117.83 215.337C122.679 210.937 126.407 205.03 127.919 198.35C129.421 191.711 128.912 182.7 122.641 175.4L95.9823 199.593C92.7171 195.792 92.9918 191.705 93.3322 190.201C93.6819 188.656 94.3013 188.094 94.3715 188.03L117.83 215.337ZM122.641 175.4C116.371 168.101 107.733 166.465 101.137 167.175C94.501 167.89 88.3367 170.96 83.4876 175.361L106.946 202.668C106.876 202.732 106.256 203.294 104.721 203.459C103.227 203.62 99.2475 203.394 95.9823 199.593L122.641 175.4ZM83.4876 175.361C78.6385 179.761 74.9109 185.668 73.3991 192.348C71.8966 198.986 72.4059 207.998 78.6766 215.298L105.336 191.105C108.601 194.906 108.326 198.993 107.986 200.497C107.636 202.042 107.017 202.604 106.946 202.668L83.4876 175.361ZM78.6766 215.298C84.9473 222.597 93.5849 224.233 100.18 223.523C106.817 222.808 112.981 219.738 117.83 215.337L94.3715 188.03C94.4418 187.966 95.0615 187.404 96.5966 187.239C98.0907 187.078 102.07 187.304 105.336 191.105L78.6766 215.298Z" fill="url(#paint14_linear_1_3841)" mask="url(#path-22-inside-7_1_3841)"/>
<mask id="path-24-inside-8_1_3841" fill="white">
<path d="M67.1239 164.776C77.9483 154.953 87.3107 147.443 98.4028 160.586C109.088 170.652 101.308 182.145 90.4831 191.968C79.6587 201.791 72.057 208.539 59.2042 196.159C51.185 186.019 56.2995 174.6 67.1239 164.776ZM84.5869 185.104C89.9469 180.24 91.7027 173.283 88.5086 169.565C85.3145 165.847 78.38 166.776 73.0201 171.64C67.6601 176.504 65.9043 183.461 69.0984 187.179C72.2925 190.898 79.227 189.969 84.5869 185.104Z"/>
</mask>
<path d="M67.1239 164.776C77.9483 154.953 87.3107 147.443 98.4028 160.586C109.088 170.652 101.308 182.145 90.4831 191.968C79.6587 201.791 72.057 208.539 59.2042 196.159C51.185 186.019 56.2995 174.6 67.1239 164.776ZM84.5869 185.104C89.9469 180.24 91.7027 173.283 88.5086 169.565C85.3145 165.847 78.38 166.776 73.0201 171.64C67.6601 176.504 65.9043 183.461 69.0984 187.179C72.2925 190.898 79.227 189.969 84.5869 185.104Z" fill="#D9D9D9"/>
<path d="M98.4028 160.586L84.9711 172.562L85.6337 173.347L86.3792 174.05L98.4028 160.586ZM59.2042 196.159L45.4093 207.69L46.164 208.645L47.037 209.486L59.2042 196.159ZM78.8533 178.43C81.5585 175.975 83.5486 174.245 85.2759 172.983C87.0319 171.7 87.646 171.562 87.4008 171.632C86.7806 171.811 85.4613 171.924 84.1489 171.425C83.1427 171.043 83.4777 170.793 84.9711 172.562L111.835 148.609C107.782 143.807 102.787 139.567 96.5675 137.203C90.0417 134.723 83.6255 134.864 77.9252 136.505C68.1882 139.309 60.0651 146.884 55.3946 151.123L78.8533 178.43ZM86.3792 174.05C86.9867 174.622 86.2723 174.17 85.9084 172.576C85.5471 170.993 85.9111 169.947 85.8936 169.995C85.8182 170.201 85.3955 171.141 84.0664 172.809C82.7802 174.423 81.0082 176.268 78.7537 178.314L102.212 205.622C108.045 200.329 115.545 192.517 119.125 182.741C121.07 177.429 122.052 171.009 120.483 164.133C118.911 157.246 115.162 151.583 110.426 147.122L86.3792 174.05ZM78.7537 178.314C75.9097 180.895 74.0508 182.553 72.4227 183.77C70.8215 184.966 70.4604 184.94 70.9687 184.797C71.2998 184.704 71.8202 184.611 72.4535 184.629C73.0901 184.647 73.576 184.771 73.842 184.865C74.2668 185.016 73.4701 184.853 71.3714 182.831L47.037 209.486C56.0274 218.145 67.257 223.634 80.2399 219.982C85.6083 218.472 89.9804 215.69 93.2506 213.246C96.4938 210.822 99.6443 207.952 102.212 205.622L78.7537 178.314ZM72.9991 184.627C72.6444 184.178 72.8739 184.308 72.9935 184.969C73.1099 185.613 72.9762 185.957 73.0415 185.742C73.1336 185.439 73.4723 184.58 74.4625 183.202C75.442 181.84 76.8792 180.222 78.8533 178.43L55.3946 151.123C48.7892 157.117 42.1531 165.107 39.1539 174.956C35.7891 186.005 37.5677 197.776 45.4093 207.69L72.9991 184.627ZM96.3163 198.758C101.303 194.232 105.228 188.218 106.942 181.427C108.625 174.756 108.491 165.213 101.838 157.468L75.1791 181.661C71.72 177.635 72.3053 173.429 72.5694 172.383C72.8638 171.216 73.2305 171.112 72.8576 171.451L96.3163 198.758ZM101.838 157.468C95.1849 149.724 85.9878 148.405 79.3389 149.296C72.5704 150.203 66.2777 153.461 61.2907 157.986L84.7494 185.294C85.1224 184.955 84.9769 185.316 83.8142 185.472C82.771 185.612 78.6382 185.688 75.1791 181.661L101.838 157.468ZM61.2907 157.986C56.3037 162.512 52.3791 168.526 50.6654 175.317C48.9819 181.988 49.1158 191.531 55.769 199.276L82.4279 175.083C85.887 179.11 85.3017 183.315 85.0376 184.362C84.7432 185.528 84.3765 185.632 84.7494 185.294L61.2907 157.986ZM55.769 199.276C62.4221 207.021 71.6192 208.339 78.2681 207.448C85.0366 206.542 91.3293 203.284 96.3163 198.758L72.8576 171.451C72.4846 171.789 72.6301 171.428 73.7929 171.272C74.836 171.132 78.9689 171.056 82.4279 175.083L55.769 199.276Z" fill="url(#paint15_linear_1_3841)" mask="url(#path-24-inside-8_1_3841)"/>
<mask id="path-26-inside-9_1_3841" fill="white">
<path d="M48.0929 146.097C58.9173 136.274 68.2797 128.763 79.3718 141.906C90.0573 151.973 82.2765 163.465 71.4521 173.288C60.6277 183.112 53.026 189.859 40.1732 177.479C32.1539 167.34 37.2685 155.92 48.0929 146.097ZM65.5559 166.425C70.9159 161.561 72.6717 154.603 69.4776 150.885C66.2835 147.167 59.349 148.096 53.9891 152.96C48.6291 157.825 46.8733 164.782 50.0674 168.5C53.2615 172.218 60.196 171.289 65.5559 166.425Z"/>
</mask>
<path d="M48.0929 146.097C58.9173 136.274 68.2797 128.763 79.3718 141.906C90.0573 151.973 82.2765 163.465 71.4521 173.288C60.6277 183.112 53.026 189.859 40.1732 177.479C32.1539 167.34 37.2685 155.92 48.0929 146.097ZM65.5559 166.425C70.9159 161.561 72.6717 154.603 69.4776 150.885C66.2835 147.167 59.349 148.096 53.9891 152.96C48.6291 157.825 46.8733 164.782 50.0674 168.5C53.2615 172.218 60.196 171.289 65.5559 166.425Z" fill="#D9D9D9"/>
<path d="M79.3718 141.906L65.9401 153.883L66.6027 154.668L67.3482 155.37L79.3718 141.906ZM40.1732 177.479L26.3783 189.011L27.133 189.965L28.006 190.806L40.1732 177.479ZM59.8223 159.751C62.5275 157.296 64.5176 155.565 66.2449 154.303C68.0009 153.02 68.615 152.882 68.3698 152.953C67.7496 153.131 66.4303 153.245 65.1179 152.746C64.1117 152.364 64.4467 152.113 65.9401 153.883L92.8036 129.93C88.7509 125.128 83.756 120.888 77.5365 118.524C71.0107 116.044 64.5945 116.185 58.8942 117.826C49.1572 120.629 41.0341 128.205 36.3635 132.443L59.8223 159.751ZM67.3482 155.37C67.9557 155.942 67.2413 155.491 66.8774 153.896C66.5161 152.314 66.8801 151.268 66.8626 151.316C66.7872 151.522 66.3645 152.462 65.0354 154.13C63.7492 155.744 61.9772 157.589 59.7227 159.635L83.1815 186.942C89.0136 181.649 96.5136 173.838 100.094 164.061C102.039 158.75 103.021 152.329 101.452 145.454C99.8796 138.566 96.1307 132.903 91.3955 128.443L67.3482 155.37ZM59.7227 159.635C56.8787 162.216 55.0198 163.873 53.3917 165.09C51.7905 166.287 51.4294 166.26 51.9377 166.117C52.2688 166.024 52.7892 165.931 53.4225 165.949C54.0591 165.968 54.545 166.091 54.811 166.186C55.2358 166.336 54.4391 166.174 52.3404 164.152L28.006 190.806C36.9964 199.466 48.226 204.955 61.2089 201.302C66.5773 199.792 70.9494 197.011 74.2196 194.566C77.4628 192.142 80.6133 189.273 83.1815 186.942L59.7227 159.635ZM53.9681 165.947C53.6134 165.499 53.8429 165.628 53.9625 166.29C54.0789 166.934 53.9452 167.277 54.0105 167.063C54.1026 166.76 54.4413 165.901 55.4315 164.523C56.411 163.16 57.8482 161.542 59.8223 159.751L36.3635 132.443C29.7582 138.438 23.1221 146.427 20.1229 156.276C16.7581 167.325 18.5367 179.096 26.3783 189.011L53.9681 165.947ZM77.2853 180.079C82.2723 175.553 86.1969 169.538 87.9106 162.748C89.5941 156.077 89.4602 146.533 82.807 138.789L56.1481 162.982C52.689 158.955 53.2743 154.75 53.5384 153.703C53.8328 152.536 54.1995 152.433 53.8266 152.771L77.2853 180.079ZM82.807 138.789C76.1539 131.044 66.9568 129.726 60.3079 130.616C53.5394 131.523 47.2467 134.781 42.2597 139.307L65.7184 166.614C66.0914 166.276 65.9459 166.637 64.7831 166.793C63.74 166.932 59.6071 167.008 56.1481 162.982L82.807 138.789ZM42.2597 139.307C37.2727 143.832 33.3481 149.847 31.6344 156.638C29.9509 163.308 30.0848 172.852 36.738 180.597L63.3969 156.404C66.856 160.43 66.2707 164.636 66.0066 165.682C65.7122 166.849 65.3455 166.953 65.7184 166.614L42.2597 139.307ZM36.738 180.597C43.3911 188.341 52.5882 189.66 59.2371 188.769C66.0056 187.862 72.2983 184.604 77.2853 180.079L53.8266 152.771C53.4536 153.11 53.5991 152.749 54.7619 152.593C55.805 152.453 59.9379 152.377 63.3969 156.404L36.738 180.597Z" fill="url(#paint16_linear_1_3841)" mask="url(#path-26-inside-9_1_3841)"/>
<mask id="path-28-inside-10_1_3841" fill="white">
<path d="M27.652 127.261C38.4764 117.438 47.8388 109.927 58.9309 123.07C69.6164 133.137 61.8356 144.629 51.0112 154.453C40.1868 164.276 32.5851 171.023 19.7323 158.643C11.713 148.504 16.8276 137.084 27.652 127.261ZM45.115 147.589C50.475 142.725 52.2307 135.768 49.0366 132.05C45.8425 128.331 38.9081 129.26 33.5482 134.125C28.1882 138.989 26.4324 145.946 29.6265 149.664C32.8206 153.382 39.7551 152.453 45.115 147.589Z"/>
</mask>
<path d="M27.652 127.261C38.4764 117.438 47.8388 109.927 58.9309 123.07C69.6164 133.137 61.8356 144.629 51.0112 154.453C40.1868 164.276 32.5851 171.023 19.7323 158.643C11.713 148.504 16.8276 137.084 27.652 127.261ZM45.115 147.589C50.475 142.725 52.2307 135.768 49.0366 132.05C45.8425 128.331 38.9081 129.26 33.5482 134.125C28.1882 138.989 26.4324 145.946 29.6265 149.664C32.8206 153.382 39.7551 152.453 45.115 147.589Z" fill="url(#paint17_linear_1_3841)"/>
<path d="M58.9309 123.07L45.4991 135.047L46.1617 135.832L46.9072 136.534L58.9309 123.07ZM19.7323 158.643L5.93738 170.175L6.69206 171.129L7.56509 171.97L19.7323 158.643ZM39.3813 140.915C42.0866 138.46 44.0767 136.729 45.804 135.467C47.56 134.184 48.1741 134.046 47.9288 134.117C47.3087 134.295 45.9894 134.409 44.677 133.91C43.6708 133.528 44.0058 133.277 45.4991 135.047L72.3627 111.094C68.31 106.292 63.3151 102.052 57.0956 99.6882C50.5698 97.2082 44.1536 97.3488 38.4533 98.99C28.7163 101.793 20.5932 109.369 15.9226 113.607L39.3813 140.915ZM46.9072 136.534C47.5147 137.107 46.8004 136.655 46.4364 135.061C46.0752 133.478 46.4392 132.432 46.4217 132.48C46.3463 132.686 45.9236 133.626 44.5945 135.294C43.3083 136.908 41.5363 138.753 39.2818 140.799L62.7405 168.106C68.5727 162.814 76.0727 155.002 79.6528 145.225C81.5979 139.914 82.5801 133.494 81.0107 126.618C79.4386 119.73 75.6898 114.068 70.9546 109.607L46.9072 136.534ZM39.2818 140.799C36.4378 143.38 34.5789 145.037 32.9508 146.254C31.3496 147.451 30.9885 147.425 31.4968 147.282C31.8279 147.188 32.3483 147.095 32.9815 147.114C33.6181 147.132 34.1041 147.255 34.37 147.35C34.7949 147.501 33.9982 147.338 31.8995 145.316L7.56509 171.97C16.5555 180.63 27.7851 186.119 40.768 182.467C46.1364 180.956 50.5085 178.175 53.7787 175.731C57.0219 173.306 60.1724 170.437 62.7405 168.106L39.2818 140.799ZM33.5272 147.111C33.1725 146.663 33.402 146.792 33.5216 147.454C33.638 148.098 33.5042 148.441 33.5695 148.227C33.6617 147.924 34.0004 147.065 34.9906 145.687C35.9701 144.325 37.4073 142.706 39.3813 140.915L15.9226 113.607C9.31724 119.602 2.6812 127.592 -0.318029 137.44C-3.68283 148.49 -1.90422 160.26 5.93738 170.175L33.5272 147.111ZM56.8444 161.243C61.8314 156.717 65.756 150.703 67.4697 143.912C69.1532 137.241 69.0193 127.698 62.3661 119.953L35.7072 144.146C32.2481 140.119 32.8333 135.914 33.0975 134.867C33.3919 133.701 33.7586 133.597 33.3857 133.935L56.8444 161.243ZM62.3661 119.953C55.713 112.208 46.5158 110.89 39.867 111.781C33.0985 112.687 26.8058 115.945 21.8188 120.471L45.2775 147.778C45.6505 147.44 45.5049 147.801 44.3422 147.957C43.2991 148.097 39.1662 148.173 35.7072 144.146L62.3661 119.953ZM21.8188 120.471C16.8318 124.997 12.9072 131.011 11.1934 137.802C9.50996 144.473 9.6439 154.016 16.2971 161.761L42.956 137.568C46.415 141.594 45.8298 145.8 45.5657 146.846C45.2713 148.013 44.9046 148.117 45.2775 147.778L21.8188 120.471ZM16.2971 161.761C22.9502 169.505 32.1473 170.824 38.7962 169.933C45.5646 169.026 51.8574 165.768 56.8444 161.243L33.3857 133.935C33.0127 134.274 33.1582 133.913 34.3209 133.757C35.3641 133.617 39.4969 133.541 42.956 137.568L16.2971 161.761Z" fill="url(#paint18_linear_1_3841)" mask="url(#path-28-inside-10_1_3841)"/>
</g>
<defs>
<linearGradient id="paint0_linear_1_3841" x1="6.09561" y1="0" x2="6.09561" y2="97.7961" gradientUnits="userSpaceOnUse">
<stop stop-color="#2B468D"/>
<stop offset="1" stop-color="#2AA2DC"/>
</linearGradient>
<linearGradient id="paint1_linear_1_3841" x1="6.08335" y1="0" x2="6.08335" y2="57.8247" gradientUnits="userSpaceOnUse">
<stop stop-color="#E50C6F"/>
<stop offset="1" stop-color="#09378B"/>
</linearGradient>
<linearGradient id="paint2_linear_1_3841" x1="6.09989" y1="0" x2="6.09989" y2="107.998" gradientUnits="userSpaceOnUse">
<stop stop-color="#09378B"/>
<stop offset="1" stop-color="#E50C6F"/>
</linearGradient>
<linearGradient id="paint3_linear_1_3841" x1="6.09561" y1="0" x2="6.09561" y2="97.7961" gradientUnits="userSpaceOnUse">
<stop stop-color="#2F408A"/>
<stop offset="1" stop-color="#299AD7"/>
</linearGradient>
<linearGradient id="paint4_linear_1_3841" x1="6.09561" y1="0" x2="6.09561" y2="51.377" gradientUnits="userSpaceOnUse">
<stop stop-color="#09378B"/>
<stop offset="1" stop-color="#2CA7E0"/>
</linearGradient>
<linearGradient id="paint5_linear_1_3841" x1="6.09561" y1="0" x2="6.09561" y2="51.1871" gradientUnits="userSpaceOnUse">
<stop stop-color="#09378B"/>
<stop offset="1" stop-color="#2CA7E0"/>
</linearGradient>
<linearGradient id="paint6_linear_1_3841" x1="6.09561" y1="0" x2="6.09561" y2="37.7405" gradientUnits="userSpaceOnUse">
<stop stop-color="#09378B"/>
<stop offset="1" stop-color="#2CA7E0"/>
</linearGradient>
<linearGradient id="paint7_linear_1_3841" x1="6.09561" y1="0" x2="6.09561" y2="37.7405" gradientUnits="userSpaceOnUse">
<stop stop-color="#2783BC"/>
<stop offset="1" stop-color="#2CA7E0"/>
</linearGradient>
<linearGradient id="paint8_linear_1_3841" x1="6.10098" y1="0" x2="6.10098" y2="43.2007" gradientUnits="userSpaceOnUse">
<stop stop-color="#09378B"/>
<stop offset="1" stop-color="#2CA7E0"/>
</linearGradient>
<linearGradient id="paint9_linear_1_3841" x1="6.10098" y1="0" x2="6.10098" y2="30.8959" gradientUnits="userSpaceOnUse">
<stop stop-color="#293D81"/>
<stop offset="1" stop-color="#264690"/>
</linearGradient>
<linearGradient id="paint10_linear_1_3841" x1="6.17838" y1="0" x2="6.17838" y2="35.3843" gradientUnits="userSpaceOnUse">
<stop stop-color="#E50C6F"/>
<stop offset="1" stop-color="#3B4D78"/>
</linearGradient>
<linearGradient id="paint11_linear_1_3841" x1="6.10852" y1="0" x2="6.10852" y2="30.0897" gradientUnits="userSpaceOnUse">
<stop stop-color="#09378B"/>
<stop offset="1" stop-color="#E50C6F"/>
</linearGradient>
<linearGradient id="paint12_linear_1_3841" x1="6.09532" y1="0" x2="6.09532" y2="32.1609" gradientUnits="userSpaceOnUse">
<stop stop-color="#E50C6F"/>
<stop offset="1" stop-color="#2E4A92"/>
</linearGradient>
<linearGradient id="paint13_linear_1_3841" x1="102.045" y1="21.5951" x2="122.77" y2="68.3685" gradientUnits="userSpaceOnUse">
<stop stop-color="#E50C6F"/>
<stop offset="1" stop-color="#09378B"/>
</linearGradient>
<linearGradient id="paint14_linear_1_3841" x1="83.1845" y1="211.207" x2="119.053" y2="180.394" gradientUnits="userSpaceOnUse">
<stop stop-color="#E50C6F"/>
<stop offset="1" stop-color="#09378B"/>
</linearGradient>
<linearGradient id="paint15_linear_1_3841" x1="59.2042" y1="196.159" x2="99.4338" y2="161.599" gradientUnits="userSpaceOnUse">
<stop stop-color="#E50C6F"/>
<stop offset="1" stop-color="#09378B"/>
</linearGradient>
<linearGradient id="paint16_linear_1_3841" x1="40.1732" y1="177.479" x2="80.4028" y2="142.919" gradientUnits="userSpaceOnUse">
<stop stop-color="#E50C6F"/>
<stop offset="1" stop-color="#09378B"/>
</linearGradient>
<linearGradient id="paint17_linear_1_3841" x1="19.7323" y1="158.643" x2="59.9619" y2="124.083" gradientUnits="userSpaceOnUse">
<stop stop-color="#E83B8A"/>
<stop offset="1" stop-color="#09378B"/>
</linearGradient>
<linearGradient id="paint18_linear_1_3841" x1="19.7323" y1="158.643" x2="59.9619" y2="124.083" gradientUnits="userSpaceOnUse">
<stop stop-color="#E83B8A"/>
<stop offset="1" stop-color="#09378B"/>
</linearGradient>
</defs>
</svg>
