<svg width="335" height="290" viewBox="0 0 335 290" fill="none" xmlns="http://www.w3.org/2000/svg">
<path fill-rule="evenodd" clip-rule="evenodd" d="M332.604 288.734C333.927 288.734 335 287.65 335 286.312V218.972C335 217.634 333.927 216.55 332.604 216.55C331.281 216.55 330.207 217.634 330.207 218.972V252.642V286.312C330.207 287.65 331.281 288.734 332.604 288.734Z" fill="#A5B9C4" fill-opacity="0.63"/>
<path fill-rule="evenodd" clip-rule="evenodd" d="M115.907 287.784C115.907 289.008 118.672 290 122.084 290L293.904 290C297.317 290 300.082 289.008 300.082 287.784C300.082 286.561 297.317 285.568 293.904 285.568L207.994 285.568H122.084C118.672 285.568 115.907 286.561 115.907 287.784Z" fill="#A5B9C4" fill-opacity="0.63"/>
<path fill-rule="evenodd" clip-rule="evenodd" d="M227.584 154.746H272.05C273.389 154.746 274.475 153.757 274.475 152.537V137.784C274.475 136.564 273.389 135.575 272.05 135.575H227.584C226.245 135.575 225.159 136.564 225.159 137.784V152.537C225.159 153.757 226.245 154.746 227.584 154.746ZM269.625 150.329H230.01V139.992H269.625V150.329Z" fill="#A5B9C4" fill-opacity="0.63"/>
<path fill-rule="evenodd" clip-rule="evenodd" d="M226.599 202.756H273.035C274.374 202.756 275.46 201.767 275.46 200.548V160.518C275.46 159.298 274.374 158.309 273.035 158.309H226.599C225.26 158.309 224.175 159.298 224.175 160.518V200.548C224.175 201.767 225.26 202.756 226.599 202.756ZM270.61 198.338H229.025V162.726H270.61V198.338Z" fill="#A5B9C4" fill-opacity="0.63"/>
<path fill-rule="evenodd" clip-rule="evenodd" d="M214.589 210.737H285.047C286.386 210.737 287.472 209.748 287.472 208.528V200.548C287.472 199.328 286.386 198.338 285.047 198.338H214.589C213.249 198.338 212.163 199.328 212.163 200.548V208.528C212.163 209.748 213.249 210.737 214.589 210.737ZM282.622 206.319H217.014V202.756H282.622V206.319Z" fill="#A5B9C4" fill-opacity="0.63"/>
<path fill-rule="evenodd" clip-rule="evenodd" d="M214.589 162.727H285.047C286.386 162.727 287.472 161.738 287.472 160.518V152.537C287.472 151.318 286.386 150.329 285.047 150.329H214.589C213.249 150.329 212.163 151.318 212.163 152.537V160.518C212.163 161.738 213.249 162.727 214.589 162.727ZM282.622 158.309H217.014V154.746H282.622V158.309Z" fill="#A5B9C4" fill-opacity="0.63"/>
<path fill-rule="evenodd" clip-rule="evenodd" d="M300.033 289.807C301.372 289.807 302.458 288.818 302.458 287.599V208.528C302.458 207.308 301.372 206.319 300.033 206.319H199.602C198.263 206.319 197.177 207.308 197.177 208.528V258.238C197.177 259.457 198.263 260.446 199.602 260.446C200.942 260.446 202.027 259.457 202.027 258.238V210.737H297.608V287.599C297.608 288.818 298.694 289.807 300.033 289.807Z" fill="#A5B9C4" fill-opacity="0.63"/>
<path fill-rule="evenodd" clip-rule="evenodd" d="M227.584 139.992C228.924 139.992 230.01 139.003 230.01 137.784C230.01 127.838 238.895 119.747 249.817 119.747C260.739 119.747 269.625 127.838 269.625 137.784C269.625 139.003 270.711 139.992 272.05 139.992C273.389 139.992 274.475 139.003 274.475 137.784C274.475 125.402 263.414 115.329 249.817 115.329C236.221 115.329 225.159 125.402 225.159 137.784C225.159 139.003 226.245 139.992 227.584 139.992Z" fill="#A5B9C4" fill-opacity="0.63"/>
<path fill-rule="evenodd" clip-rule="evenodd" d="M249.817 134.535C253.709 134.535 256.875 131.649 256.875 128.103C256.875 124.556 253.709 121.671 249.817 121.671C245.926 121.671 242.76 124.556 242.76 128.103C242.76 131.649 245.926 134.535 249.817 134.535ZM249.817 123.88C252.372 123.88 254.45 125.774 254.45 128.103C254.45 130.432 252.372 132.326 249.817 132.326C247.263 132.326 245.185 130.432 245.185 128.103C245.185 125.774 247.263 123.88 249.817 123.88Z" fill="#A5B9C4" fill-opacity="0.63"/>
<path fill-rule="evenodd" clip-rule="evenodd" d="M279.155 267.517C279.825 267.517 280.368 267.023 280.368 266.413V258.523C280.368 243.18 266.663 230.698 249.817 230.698C242.028 230.698 234.609 233.37 228.928 238.222C223.275 243.051 219.868 249.576 219.337 256.596C219.291 257.205 219.795 257.732 220.463 257.774C221.132 257.817 221.71 257.357 221.757 256.748C222.246 250.287 225.382 244.279 230.588 239.833C235.817 235.367 242.647 232.906 249.817 232.906C265.325 232.906 277.943 244.398 277.943 258.523V266.413C277.943 267.023 278.485 267.517 279.155 267.517Z" fill="#A5B9C4" fill-opacity="0.63"/>
<path fill-rule="evenodd" clip-rule="evenodd" d="M219.447 245.793C219.89 245.793 220.317 245.57 220.53 245.185C222.367 241.873 224.846 238.937 227.9 236.458C230.97 233.967 234.475 232.056 238.316 230.781C238.945 230.572 239.269 229.939 239.04 229.366C238.81 228.793 238.115 228.497 237.485 228.706C233.355 230.077 229.587 232.131 226.287 234.809C223.004 237.473 220.34 240.629 218.365 244.19C218.063 244.735 218.303 245.398 218.901 245.674C219.076 245.754 219.263 245.793 219.447 245.793Z" fill="#A5B9C4" fill-opacity="0.63"/>
<path fill-rule="evenodd" clip-rule="evenodd" d="M216.682 252.815C217.237 252.815 217.737 252.467 217.864 251.954C218.215 250.535 218.689 249.124 219.27 247.762C219.513 247.194 219.203 246.554 218.58 246.333C217.955 246.112 217.253 246.393 217.01 246.962C216.385 248.425 215.876 249.942 215.499 251.468C215.351 252.063 215.762 252.654 216.414 252.788C216.505 252.807 216.594 252.815 216.682 252.815Z" fill="#A5B9C4" fill-opacity="0.63"/>
<path fill-rule="evenodd" clip-rule="evenodd" d="M273.036 288.703C273.705 288.703 274.248 288.208 274.248 287.599V258.769C274.248 246.499 263.289 236.517 249.817 236.517C236.347 236.517 225.387 246.499 225.387 258.769V261.862C225.387 262.472 225.93 262.966 226.6 262.966C227.269 262.966 227.812 262.472 227.812 261.862V258.769C227.812 247.717 237.684 238.726 249.817 238.726C261.951 238.726 271.823 247.717 271.823 258.769V287.599C271.823 288.208 272.366 288.703 273.036 288.703Z" fill="#A5B9C4" fill-opacity="0.63"/>
<path fill-rule="evenodd" clip-rule="evenodd" d="M265.429 289.807C266.768 289.807 267.854 288.818 267.854 287.599V260.218C267.854 251.16 259.762 243.79 249.817 243.79C245.321 243.79 241.013 245.307 237.688 248.062C234.383 250.799 232.32 254.527 231.878 258.558C231.745 259.772 232.718 260.853 234.051 260.975C235.383 261.096 236.571 260.21 236.705 258.996C237.027 256.054 238.535 253.331 240.951 251.33C243.381 249.317 246.53 248.208 249.817 248.208C257.088 248.208 263.004 253.596 263.004 260.218V287.599C263.004 288.818 264.09 289.807 265.429 289.807Z" fill="#A5B9C4" fill-opacity="0.63"/>
<path fill-rule="evenodd" clip-rule="evenodd" d="M245.811 119.747H253.824C255.164 119.747 256.25 118.758 256.25 117.538V110.239C256.25 109.019 255.164 108.03 253.824 108.03H245.811C244.471 108.03 243.385 109.019 243.385 110.239V117.538C243.385 118.758 244.471 119.747 245.811 119.747ZM251.4 115.329H248.236V112.448H251.4V115.329Z" fill="#A5B9C4" fill-opacity="0.63"/>
<path fill-rule="evenodd" clip-rule="evenodd" d="M245.812 112.448C247.114 112.448 248.19 111.507 248.235 110.313L249.817 67.6269L251.401 110.313C251.446 111.532 252.568 112.483 253.906 112.446C255.245 112.405 256.293 111.383 256.248 110.164L252.241 2.13389C252.197 0.943739 251.125 0 249.817 0C248.51 0 247.438 0.943739 247.394 2.13389L243.387 110.164C243.342 111.383 244.39 112.405 245.729 112.446C245.757 112.447 245.785 112.448 245.812 112.448V112.448Z" fill="#A5B9C4" fill-opacity="0.63"/>
<path fill-rule="evenodd" clip-rule="evenodd" d="M199.602 218.313H300.033C300.703 218.313 301.246 217.818 301.246 217.208C301.246 216.598 300.703 216.104 300.033 216.104H199.602C198.933 216.104 198.39 216.598 198.39 217.208C198.39 217.818 198.933 218.313 199.602 218.313Z" fill="#A5B9C4" fill-opacity="0.63"/>
<path fill-rule="evenodd" clip-rule="evenodd" d="M227.584 144.604H272.05C272.72 144.604 273.262 144.109 273.262 143.499C273.262 142.889 272.72 142.395 272.05 142.395H227.584C226.915 142.395 226.372 142.889 226.372 143.499C226.372 144.109 226.915 144.604 227.584 144.604Z" fill="#A5B9C4" fill-opacity="0.63"/>
<path fill-rule="evenodd" clip-rule="evenodd" d="M223.9 138.888H275.736C276.405 138.888 276.948 138.394 276.948 137.784C276.948 137.174 276.405 136.679 275.736 136.679H223.9C223.231 136.679 222.687 137.174 222.687 137.784C222.687 138.394 223.231 138.888 223.9 138.888Z" fill="#A5B9C4" fill-opacity="0.63"/>
<path fill-rule="evenodd" clip-rule="evenodd" d="M242.164 111.343H257.472C258.141 111.343 258.685 110.849 258.685 110.239C258.685 109.629 258.141 109.135 257.472 109.135H242.164C241.494 109.135 240.951 109.629 240.951 110.239C240.951 110.849 241.494 111.343 242.164 111.343Z" fill="#A5B9C4" fill-opacity="0.63"/>
<path fill-rule="evenodd" clip-rule="evenodd" d="M199.602 224.766H300.033C300.703 224.766 301.246 224.271 301.246 223.661C301.246 223.051 300.703 222.557 300.033 222.557H199.602C198.933 222.557 198.39 223.051 198.39 223.661C198.39 224.271 198.933 224.766 199.602 224.766Z" fill="#A5B9C4" fill-opacity="0.63"/>
<path fill-rule="evenodd" clip-rule="evenodd" d="M273.093 267.517H300.033C300.703 267.517 301.246 267.023 301.246 266.413C301.246 265.803 300.703 265.308 300.033 265.308H273.093C272.423 265.308 271.88 265.803 271.88 266.413C271.88 267.023 272.423 267.517 273.093 267.517Z" fill="#A5B9C4" fill-opacity="0.63"/>
<path fill-rule="evenodd" clip-rule="evenodd" d="M262.738 196.725C263.408 196.725 263.951 196.231 263.951 195.62V165.095C263.951 164.485 263.408 163.991 262.738 163.991C262.069 163.991 261.526 164.485 261.526 165.095V195.62C261.526 196.231 262.069 196.725 262.738 196.725Z" fill="#A5B9C4" fill-opacity="0.63"/>
<path fill-rule="evenodd" clip-rule="evenodd" d="M268.005 196.725C268.675 196.725 269.218 196.231 269.218 195.62V165.095C269.218 164.485 268.675 163.991 268.005 163.991C267.335 163.991 266.793 164.485 266.793 165.095V195.62C266.793 196.231 267.335 196.725 268.005 196.725Z" fill="#A5B9C4" fill-opacity="0.63"/>
<path fill-rule="evenodd" clip-rule="evenodd" d="M262.738 166.199H268.006C268.499 166.199 268.943 165.927 269.129 165.51L270.616 162.166C270.768 161.826 270.724 161.439 270.499 161.134C270.273 160.83 269.896 160.647 269.493 160.647H261.251C260.848 160.647 260.471 160.83 260.246 161.134C260.02 161.439 259.976 161.826 260.127 162.166L261.615 165.51C261.8 165.927 262.245 166.199 262.738 166.199ZM267.188 163.991H263.556L263.05 162.856H267.693L267.188 163.991Z" fill="#A5B9C4" fill-opacity="0.63"/>
<path fill-rule="evenodd" clip-rule="evenodd" d="M261.251 200.073H269.493C269.896 200.073 270.273 199.89 270.499 199.586C270.724 199.281 270.768 198.895 270.617 198.554L269.129 195.206C268.944 194.789 268.499 194.516 268.005 194.516H262.738C262.245 194.516 261.8 194.789 261.614 195.206L260.127 198.554C259.976 198.895 260.02 199.281 260.246 199.586C260.471 199.89 260.848 200.073 261.251 200.073ZM267.694 197.864H263.05L263.556 196.725H267.188L267.694 197.864Z" fill="#A5B9C4" fill-opacity="0.63"/>
<path fill-rule="evenodd" clip-rule="evenodd" d="M278.293 196.725C278.963 196.725 279.506 196.231 279.506 195.62V165.095C279.506 164.485 278.963 163.991 278.293 163.991C277.624 163.991 277.081 164.485 277.081 165.095V195.62C277.081 196.231 277.624 196.725 278.293 196.725Z" fill="#A5B9C4" fill-opacity="0.63"/>
<path fill-rule="evenodd" clip-rule="evenodd" d="M283.56 196.725C284.23 196.725 284.773 196.231 284.773 195.62V165.095C284.773 164.485 284.23 163.991 283.56 163.991C282.891 163.991 282.347 164.485 282.347 165.095V195.62C282.347 196.231 282.891 196.725 283.56 196.725Z" fill="#A5B9C4" fill-opacity="0.63"/>
<path fill-rule="evenodd" clip-rule="evenodd" d="M278.293 166.199H283.56C284.054 166.199 284.499 165.927 284.684 165.51L286.172 162.166C286.323 161.825 286.277 161.439 286.052 161.134C285.827 160.83 285.451 160.647 285.047 160.647H276.815C276.412 160.647 276.036 160.829 275.81 161.133C275.585 161.438 275.54 161.824 275.69 162.164L277.168 165.508C277.353 165.926 277.798 166.199 278.293 166.199ZM282.743 163.991H279.112L278.611 162.856H283.248L282.743 163.991Z" fill="#A5B9C4" fill-opacity="0.63"/>
<path fill-rule="evenodd" clip-rule="evenodd" d="M276.815 200.073H285.047C285.451 200.073 285.827 199.89 286.052 199.586C286.277 199.281 286.323 198.895 286.172 198.554L284.684 195.206C284.499 194.789 284.054 194.516 283.56 194.516H278.293C277.798 194.516 277.353 194.79 277.168 195.208L275.69 198.557C275.54 198.897 275.585 199.283 275.81 199.587C276.036 199.891 276.412 200.073 276.815 200.073ZM283.249 197.864H278.61L279.112 196.725H282.743L283.249 197.864Z" fill="#A5B9C4" fill-opacity="0.63"/>
<path fill-rule="evenodd" clip-rule="evenodd" d="M247.185 196.725C247.854 196.725 248.397 196.231 248.397 195.62V165.095C248.397 164.485 247.854 163.991 247.185 163.991C246.515 163.991 245.972 164.485 245.972 165.095V195.62C245.972 196.231 246.515 196.725 247.185 196.725Z" fill="#A5B9C4" fill-opacity="0.63"/>
<path fill-rule="evenodd" clip-rule="evenodd" d="M252.451 196.725C253.121 196.725 253.664 196.231 253.664 195.62V165.095C253.664 164.485 253.121 163.991 252.451 163.991C251.782 163.991 251.239 164.485 251.239 165.095V195.62C251.239 196.231 251.782 196.725 252.451 196.725Z" fill="#A5B9C4" fill-opacity="0.63"/>
<path fill-rule="evenodd" clip-rule="evenodd" d="M247.184 166.199H252.451C252.945 166.199 253.389 165.927 253.575 165.51L255.062 162.166C255.214 161.825 255.169 161.439 254.944 161.134C254.718 160.83 254.342 160.647 253.938 160.647H245.697C245.294 160.647 244.917 160.83 244.691 161.134C244.466 161.439 244.422 161.826 244.573 162.166L246.061 165.51C246.246 165.927 246.69 166.199 247.184 166.199ZM251.634 163.991H248.002L247.496 162.856H252.139L251.634 163.991Z" fill="#A5B9C4" fill-opacity="0.63"/>
<path fill-rule="evenodd" clip-rule="evenodd" d="M245.697 200.073H253.938C254.342 200.073 254.718 199.89 254.944 199.586C255.169 199.281 255.214 198.895 255.062 198.554L253.575 195.206C253.39 194.789 252.945 194.516 252.451 194.516H247.185C246.69 194.516 246.246 194.789 246.06 195.206L244.573 198.554C244.422 198.895 244.466 199.281 244.692 199.586C244.917 199.89 245.294 200.073 245.697 200.073ZM252.14 197.864H247.496L248.002 196.725H251.634L252.14 197.864Z" fill="#A5B9C4" fill-opacity="0.63"/>
<path fill-rule="evenodd" clip-rule="evenodd" d="M231.629 196.725C232.299 196.725 232.842 196.231 232.842 195.62V165.095C232.842 164.485 232.299 163.991 231.629 163.991C230.96 163.991 230.417 164.485 230.417 165.095V195.62C230.417 196.231 230.96 196.725 231.629 196.725Z" fill="#A5B9C4" fill-opacity="0.63"/>
<path fill-rule="evenodd" clip-rule="evenodd" d="M236.897 196.725C237.566 196.725 238.109 196.231 238.109 195.62V165.095C238.109 164.485 237.566 163.991 236.897 163.991C236.226 163.991 235.684 164.485 235.684 165.095V195.62C235.684 196.231 236.226 196.725 236.897 196.725Z" fill="#A5B9C4" fill-opacity="0.63"/>
<path fill-rule="evenodd" clip-rule="evenodd" d="M231.629 166.199H236.897C237.391 166.199 237.835 165.927 238.021 165.51L239.508 162.166C239.659 161.825 239.615 161.439 239.389 161.134C239.164 160.83 238.787 160.647 238.383 160.647H230.142C229.739 160.647 229.362 160.83 229.136 161.134C228.912 161.439 228.867 161.825 229.019 162.166L230.505 165.51C230.691 165.927 231.135 166.199 231.629 166.199ZM236.08 163.991H232.447L231.942 162.856H236.584L236.08 163.991Z" fill="#A5B9C4" fill-opacity="0.63"/>
<path fill-rule="evenodd" clip-rule="evenodd" d="M230.142 200.073H238.383C238.787 200.073 239.164 199.89 239.389 199.586C239.615 199.281 239.659 198.895 239.508 198.554L238.021 195.206C237.835 194.789 237.391 194.516 236.897 194.516H231.629C231.135 194.516 230.691 194.789 230.505 195.206L229.019 198.554C228.867 198.895 228.912 199.281 229.137 199.586C229.362 199.89 229.739 200.073 230.142 200.073ZM236.585 197.864H231.94L232.447 196.725H236.079L236.585 197.864Z" fill="#A5B9C4" fill-opacity="0.63"/>
<path fill-rule="evenodd" clip-rule="evenodd" d="M216.076 196.725C216.745 196.725 217.289 196.231 217.289 195.62V165.095C217.289 164.485 216.745 163.991 216.076 163.991C215.406 163.991 214.863 164.485 214.863 165.095V195.62C214.863 196.231 215.406 196.725 216.076 196.725Z" fill="#A5B9C4" fill-opacity="0.63"/>
<path fill-rule="evenodd" clip-rule="evenodd" d="M221.343 196.725C222.012 196.725 222.556 196.231 222.556 195.62V165.095C222.556 164.485 222.012 163.991 221.343 163.991C220.673 163.991 220.13 164.485 220.13 165.095V195.62C220.13 196.231 220.673 196.725 221.343 196.725Z" fill="#A5B9C4" fill-opacity="0.63"/>
<path fill-rule="evenodd" clip-rule="evenodd" d="M216.076 166.199H221.343C221.836 166.199 222.281 165.927 222.466 165.51L223.954 162.166C224.105 161.826 224.061 161.439 223.835 161.134C223.61 160.83 223.233 160.647 222.83 160.647H214.589C214.185 160.647 213.808 160.83 213.583 161.134C213.358 161.439 213.313 161.825 213.465 162.166L214.952 165.51C215.137 165.927 215.582 166.199 216.076 166.199ZM220.525 163.991H216.893L216.388 162.856H221.03L220.525 163.991Z" fill="#A5B9C4" fill-opacity="0.63"/>
<path fill-rule="evenodd" clip-rule="evenodd" d="M214.589 200.073H222.83C223.233 200.073 223.61 199.89 223.835 199.586C224.061 199.281 224.105 198.895 223.954 198.554L222.466 195.206C222.281 194.789 221.837 194.516 221.343 194.516H216.076C215.582 194.516 215.137 194.789 214.952 195.206L213.465 198.554C213.313 198.895 213.358 199.281 213.583 199.586C213.809 199.89 214.185 200.073 214.589 200.073ZM221.031 197.864H216.387L216.893 196.725H220.525L221.031 197.864Z" fill="#A5B9C4" fill-opacity="0.63"/>
<path fill-rule="evenodd" clip-rule="evenodd" d="M248.775 238.726H250.859C251.346 238.726 251.787 238.46 251.977 238.052L254.458 232.702C254.616 232.361 254.576 231.97 254.351 231.662C254.127 231.353 253.748 231.168 253.342 231.168H246.293C245.887 231.168 245.508 231.353 245.283 231.662C245.058 231.97 245.018 232.361 245.177 232.702L247.659 238.052C247.848 238.46 248.288 238.726 248.775 238.726ZM250.056 236.517H249.579L248.122 233.376H251.513L250.056 236.517Z" fill="#A5B9C4" fill-opacity="0.63"/>
<path fill-rule="evenodd" clip-rule="evenodd" d="M208.241 234.136H221.873C222.543 234.136 223.086 233.641 223.086 233.031V228.605C223.086 227.995 222.543 227.5 221.873 227.5H208.241C207.572 227.5 207.029 227.995 207.029 228.605V233.031C207.029 233.641 207.572 234.136 208.241 234.136ZM220.66 231.927H209.454V229.709H220.66V231.927Z" fill="#A5B9C4" fill-opacity="0.63"/>
<path fill-rule="evenodd" clip-rule="evenodd" d="M151.783 270.317C153.122 270.317 154.208 269.328 154.208 268.108V220.34H197.177V258.238C197.177 259.458 198.263 260.446 199.602 260.446C200.942 260.446 202.027 259.458 202.027 258.238V218.131C202.027 216.911 200.942 215.922 199.602 215.922H151.783C150.444 215.922 149.358 216.911 149.358 218.131V268.108C149.358 269.328 150.444 270.317 151.783 270.317Z" fill="#A5B9C4" fill-opacity="0.63"/>
<path fill-rule="evenodd" clip-rule="evenodd" d="M151.783 224.766H199.659C200.328 224.766 200.871 224.272 200.871 223.662C200.871 223.052 200.328 222.557 199.659 222.557H151.783C151.113 222.557 150.57 223.052 150.57 223.662C150.57 224.272 151.113 224.766 151.783 224.766Z" fill="#A5B9C4" fill-opacity="0.63"/>
<path fill-rule="evenodd" clip-rule="evenodd" d="M151.783 230.301H199.659C200.328 230.301 200.871 229.806 200.871 229.196C200.871 228.586 200.328 228.092 199.659 228.092H151.783C151.113 228.092 150.57 228.586 150.57 229.196C150.57 229.806 151.113 230.301 151.783 230.301Z" fill="#A5B9C4" fill-opacity="0.63"/>
<path fill-rule="evenodd" clip-rule="evenodd" d="M151.783 267.517H174.026C174.695 267.517 175.238 267.023 175.238 266.413C175.238 265.803 174.695 265.308 174.026 265.308H151.783C151.113 265.308 150.57 265.803 150.57 266.413C150.57 267.023 151.113 267.517 151.783 267.517Z" fill="#A5B9C4" fill-opacity="0.63"/>
<path fill-rule="evenodd" clip-rule="evenodd" d="M184.521 246.246H190.963C191.633 246.246 192.176 245.751 192.176 245.141V234.753C192.176 234.143 191.633 233.648 190.963 233.648H184.521C183.851 233.648 183.309 234.143 183.309 234.753V245.141C183.309 245.751 183.851 246.246 184.521 246.246ZM189.75 244.037H185.734V235.857H189.75V244.037Z" fill="#A5B9C4" fill-opacity="0.63"/>
<path fill-rule="evenodd" clip-rule="evenodd" d="M160.423 246.246H166.855C167.524 246.246 168.067 245.751 168.067 245.141V234.753C168.067 234.143 167.524 233.648 166.855 233.648H160.423C159.753 233.648 159.21 234.143 159.21 234.753V245.141C159.21 245.751 159.753 246.246 160.423 246.246ZM165.642 244.037H161.635V235.857H165.642V244.037Z" fill="#A5B9C4" fill-opacity="0.63"/>
<path fill-rule="evenodd" clip-rule="evenodd" d="M172.472 246.246H178.913C179.583 246.246 180.126 245.751 180.126 245.141V234.753C180.126 234.143 179.583 233.648 178.913 233.648H172.472C171.802 233.648 171.259 234.143 171.259 234.753V245.141C171.259 245.751 171.802 246.246 172.472 246.246ZM177.701 244.037H173.685V235.857H177.701V244.037Z" fill="#A5B9C4" fill-opacity="0.63"/>
<path fill-rule="evenodd" clip-rule="evenodd" d="M184.521 257.198C185.191 257.198 185.734 256.704 185.734 256.094V252.582H189.75V254.955C189.75 255.565 190.293 256.06 190.963 256.06C191.633 256.06 192.176 255.565 192.176 254.955V251.478C192.176 250.868 191.633 250.374 190.963 250.374H184.521C183.851 250.374 183.309 250.868 183.309 251.478V256.094C183.309 256.704 183.851 257.198 184.521 257.198Z" fill="#A5B9C4" fill-opacity="0.63"/>
<path fill-rule="evenodd" clip-rule="evenodd" d="M160.423 262.966H166.855C167.524 262.966 168.067 262.472 168.067 261.862V251.478C168.067 250.868 167.524 250.374 166.855 250.374H160.423C159.753 250.374 159.21 250.868 159.21 251.478V261.862C159.21 262.472 159.753 262.966 160.423 262.966ZM165.642 260.758H161.635V252.582H165.642V260.758Z" fill="#A5B9C4" fill-opacity="0.63"/>
<path fill-rule="evenodd" clip-rule="evenodd" d="M172.472 262.966H178.913C179.583 262.966 180.126 262.472 180.126 261.862V251.478C180.126 250.868 179.583 250.374 178.913 250.374H172.472C171.802 250.374 171.259 250.868 171.259 251.478V261.862C171.259 262.472 171.802 262.966 172.472 262.966ZM177.701 260.758H173.685V252.582H177.701V260.758Z" fill="#A5B9C4" fill-opacity="0.63"/>
<path fill-rule="evenodd" clip-rule="evenodd" d="M300.033 289.807H332.307C333.646 289.807 334.732 288.818 334.732 287.599C334.732 286.379 333.646 285.39 332.307 285.39H302.457V220.34H332.307C333.646 220.34 334.732 219.35 334.732 218.131C334.732 216.911 333.646 215.922 332.307 215.922H300.033C298.693 215.922 297.608 216.911 297.608 218.131V287.599C297.608 288.818 298.693 289.807 300.033 289.807Z" fill="#A5B9C4" fill-opacity="0.63"/>
<path fill-rule="evenodd" clip-rule="evenodd" d="M300.033 224.766H332.307C332.977 224.766 333.52 224.272 333.52 223.662C333.52 223.052 332.977 222.557 332.307 222.557H300.033C299.363 222.557 298.821 223.052 298.821 223.662C298.821 224.272 299.363 224.766 300.033 224.766Z" fill="#A5B9C4" fill-opacity="0.63"/>
<path fill-rule="evenodd" clip-rule="evenodd" d="M300.033 230.301H332.307C332.977 230.301 333.52 229.806 333.52 229.196C333.52 228.586 332.977 228.092 332.307 228.092H300.033C299.363 228.092 298.821 228.586 298.821 229.196C298.821 229.806 299.363 230.301 300.033 230.301Z" fill="#A5B9C4" fill-opacity="0.63"/>
<path fill-rule="evenodd" clip-rule="evenodd" d="M300.033 267.517H331.653C332.323 267.517 332.866 267.023 332.866 266.413C332.866 265.803 332.323 265.308 331.653 265.308H300.033C299.363 265.308 298.821 265.803 298.821 266.413C298.821 267.023 299.363 267.517 300.033 267.517Z" fill="#A5B9C4" fill-opacity="0.63"/>
<path fill-rule="evenodd" clip-rule="evenodd" d="M308.672 246.246H315.114C315.783 246.246 316.326 245.751 316.326 245.141V234.753C316.326 234.143 315.783 233.648 315.114 233.648H308.672C308.003 233.648 307.459 234.143 307.459 234.753V245.141C307.459 245.751 308.003 246.246 308.672 246.246ZM313.901 244.037H309.884V235.857H313.901V244.037Z" fill="#A5B9C4" fill-opacity="0.63"/>
<path fill-rule="evenodd" clip-rule="evenodd" d="M320.731 246.246H327.163C327.833 246.246 328.375 245.751 328.375 245.141V234.753C328.375 234.143 327.833 233.648 327.163 233.648H320.731C320.062 233.648 319.519 234.143 319.519 234.753V245.141C319.519 245.751 320.062 246.246 320.731 246.246ZM325.951 244.037H321.944V235.857H325.951V244.037Z" fill="#A5B9C4" fill-opacity="0.63"/>
<path fill-rule="evenodd" clip-rule="evenodd" d="M308.672 262.966H315.114C315.783 262.966 316.326 262.472 316.326 261.862V251.478C316.326 250.868 315.783 250.374 315.114 250.374H308.672C308.003 250.374 307.459 250.868 307.459 251.478V261.862C307.459 262.472 308.003 262.966 308.672 262.966ZM313.901 260.758H309.884V252.582H313.901V260.758Z" fill="#A5B9C4" fill-opacity="0.63"/>
<path fill-rule="evenodd" clip-rule="evenodd" d="M320.731 262.966H327.163C327.833 262.966 328.375 262.472 328.375 261.862V251.478C328.375 250.868 327.833 250.374 327.163 250.374H320.731C320.062 250.374 319.519 250.868 319.519 251.478V261.862C319.519 262.472 320.062 262.966 320.731 262.966ZM325.951 260.758H321.944V252.582H325.951V260.758Z" fill="#A5B9C4" fill-opacity="0.63"/>
<path fill-rule="evenodd" clip-rule="evenodd" d="M277.762 234.136H291.394C292.063 234.136 292.606 233.641 292.606 233.031V228.605C292.606 227.995 292.063 227.5 291.394 227.5H277.762C277.093 227.5 276.55 227.995 276.55 228.605V233.031C276.55 233.641 277.093 234.136 277.762 234.136ZM290.181 231.927H278.975V229.709H290.181V231.927Z" fill="#A5B9C4" fill-opacity="0.63"/>
<path fill-rule="evenodd" clip-rule="evenodd" d="M236.043 129.833C236.448 129.833 236.844 129.648 237.074 129.312C238.315 127.493 240.123 125.879 242.302 124.644C242.871 124.322 243.044 123.641 242.691 123.124C242.337 122.605 241.59 122.447 241.021 122.769C238.528 124.182 236.451 126.041 235.014 128.146C234.661 128.664 234.835 129.344 235.404 129.666C235.603 129.779 235.824 129.833 236.043 129.833Z" fill="#A5B9C4" fill-opacity="0.63"/>
<path fill-rule="evenodd" clip-rule="evenodd" d="M234.189 133.922C234.746 133.922 235.247 133.572 235.372 133.056C235.491 132.565 235.661 132.048 235.894 131.475C236.125 130.903 235.805 130.268 235.176 130.057C234.548 129.846 233.851 130.138 233.619 130.71C233.349 131.378 233.147 131.989 233.004 132.58C232.86 133.176 233.273 133.765 233.926 133.896C234.015 133.914 234.102 133.922 234.189 133.922Z" fill="#A5B9C4" fill-opacity="0.63"/>
<path fill-rule="evenodd" clip-rule="evenodd" d="M247.287 127.909C247.741 127.909 248.176 127.675 248.384 127.277C248.539 126.979 248.775 126.726 249.069 126.544C249.622 126.201 249.767 125.515 249.39 125.01C249.013 124.505 248.259 124.375 247.705 124.718C247.054 125.121 246.531 125.679 246.192 126.332C245.905 126.884 246.164 127.542 246.769 127.803C246.937 127.875 247.113 127.909 247.287 127.909Z" fill="#A5B9C4" fill-opacity="0.63"/>
<path fill-rule="evenodd" clip-rule="evenodd" d="M331.749 98.5827C332.311 98.5827 332.815 98.2252 332.935 97.705C333.415 95.621 332.989 93.6025 331.703 91.8676C330.574 90.3442 328.848 89.1509 326.842 88.5085C323.401 87.4055 318.981 87.9905 316.865 91.7846C316.562 92.3281 316.8 92.9928 317.397 93.2693C317.994 93.5451 318.724 93.3284 319.027 92.7843C320.578 90.0047 323.773 89.8657 326.037 90.5919C328.755 91.4628 331.329 93.9182 330.561 97.2509C330.424 97.8484 330.843 98.4338 331.5 98.559C331.583 98.5749 331.667 98.5827 331.749 98.5827Z" fill="#A5B9C4" fill-opacity="0.63"/>
<path fill-rule="evenodd" clip-rule="evenodd" d="M320.683 90.8437C320.772 90.8437 320.863 90.8346 320.954 90.8157C321.607 90.6802 322.015 90.0878 321.866 89.4932C320.704 84.8601 316.308 82.8941 312.582 82.599C310.601 82.442 308.595 82.726 306.93 83.3979C305.065 84.1516 303.718 85.331 303.036 86.809C302.777 87.3714 303.067 88.0188 303.684 88.2552C304.301 88.4914 305.012 88.2272 305.272 87.6648C306.171 85.7179 309.09 84.5402 312.371 84.7992C315.247 85.0269 318.63 86.5088 319.501 89.9851C319.631 90.4966 320.13 90.8437 320.683 90.8437Z" fill="#A5B9C4" fill-opacity="0.63"/>
<path fill-rule="evenodd" clip-rule="evenodd" d="M292.17 97.1074C292.262 97.1074 292.355 97.0982 292.449 97.0776C293.101 96.9375 293.504 96.3426 293.35 95.7488C292.554 92.6821 293.728 88.8826 298.187 87.7882C301.092 87.0759 304.58 88.0323 305.825 91.7765C306.02 92.3598 306.697 92.6905 307.337 92.513C307.978 92.3362 308.341 91.7196 308.146 91.1356C306.44 86.0043 301.46 84.6976 297.556 85.6555C295.272 86.2163 293.332 87.498 292.094 89.2646C290.701 91.2533 290.319 93.6715 290.99 96.2572C291.122 96.7652 291.62 97.1074 292.17 97.1074Z" fill="#A5B9C4" fill-opacity="0.63"/>
<path fill-rule="evenodd" clip-rule="evenodd" d="M118.504 279.549C119.24 279.549 119.968 279.245 120.445 278.667C123.604 274.834 127.377 272.576 131.352 272.138C134.353 271.808 137.362 272.578 139.609 274.253C140.647 275.025 142.174 274.886 143.022 273.942C143.87 272.998 143.717 271.606 142.681 270.833C139.416 268.401 135.074 267.278 130.77 267.752C127.06 268.161 121.585 269.927 116.566 276.014C115.761 276.99 115.978 278.374 117.05 279.106C117.486 279.405 117.997 279.549 118.504 279.549Z" fill="#A5B9C4" fill-opacity="0.63"/>
<path fill-rule="evenodd" clip-rule="evenodd" d="M137.823 279.963C139.074 279.963 140.135 279.087 140.237 277.931C140.48 275.186 144.807 272.249 148.54 271.331C151.792 270.53 158.019 270.195 163.178 276.945C163.943 277.947 165.454 278.193 166.554 277.496C167.653 276.799 167.924 275.423 167.159 274.422C164.484 270.922 161.227 268.541 157.479 267.345C154.249 266.315 150.72 266.218 147.274 267.066C140.897 268.636 135.794 273.154 135.403 277.577C135.295 278.793 136.29 279.858 137.626 279.956C137.692 279.961 137.757 279.963 137.823 279.963V279.963Z" fill="#A5B9C4" fill-opacity="0.63"/>
<path fill-rule="evenodd" clip-rule="evenodd" d="M189.468 276.81C189.797 276.81 190.13 276.749 190.451 276.619C191.675 276.124 192.226 274.819 191.682 273.704C189.316 268.853 183.46 265.442 176.762 265.012C170.176 264.589 164.294 267.179 161.027 271.938C160.318 272.972 160.663 274.335 161.799 274.981C162.934 275.628 164.431 275.314 165.14 274.279C167.473 270.88 171.584 269.107 176.422 269.419C181.277 269.73 185.628 272.173 187.25 275.498C187.652 276.321 188.538 276.81 189.468 276.81Z" fill="#A5B9C4" fill-opacity="0.63"/>
<path fill-rule="evenodd" clip-rule="evenodd" d="M175.39 269.131C176.449 269.131 177.421 268.496 177.723 267.523C178.543 264.881 180.012 262.715 182.087 261.084C183.884 259.673 186.132 258.682 188.591 258.221C193.278 257.34 197.315 258.554 198.734 260.145C199.579 261.091 201.107 261.235 202.145 260.466C203.184 259.696 203.342 258.305 202.497 257.358C201.061 255.749 198.821 254.574 196.021 253.961C193.372 253.382 190.463 253.358 187.611 253.894C180.391 255.251 175.086 259.781 173.056 266.321C172.691 267.495 173.441 268.716 174.729 269.047C174.95 269.104 175.173 269.131 175.39 269.131Z" fill="#A5B9C4" fill-opacity="0.63"/>
<path fill-rule="evenodd" clip-rule="evenodd" d="M225.549 265.11C225.991 265.11 226.438 265.001 226.84 264.77C227.973 264.121 228.313 262.757 227.6 261.725C225.394 258.533 222.532 256.177 219.093 254.723C216.075 253.447 212.685 252.928 209.29 253.222C202.952 253.771 197.443 257.063 195.58 261.413C195.094 262.549 195.71 263.83 196.958 264.273C198.207 264.716 199.612 264.154 200.1 263.018C201.294 260.228 205.262 258.008 209.749 257.619C215.315 257.137 220.325 259.49 223.495 264.078C223.956 264.745 224.744 265.11 225.549 265.11Z" fill="#A5B9C4" fill-opacity="0.63"/>
<path fill-rule="evenodd" clip-rule="evenodd" d="M251.335 278.95C252.407 278.95 253.388 278.297 253.676 277.308C254.905 273.103 254.433 269.046 252.314 265.576C250.436 262.503 247.307 260.024 243.503 258.594C239.632 257.139 235.37 256.867 231.502 257.829C227.162 258.908 223.64 261.42 221.316 265.094C220.647 266.151 221.046 267.502 222.206 268.111C223.367 268.72 224.849 268.357 225.518 267.3C227.19 264.657 229.701 262.856 232.779 262.09C235.617 261.385 238.768 261.593 241.653 262.677C244.447 263.728 246.728 265.52 248.075 267.724C249.572 270.174 249.888 273.095 248.99 276.172C248.645 277.351 249.415 278.561 250.71 278.875C250.918 278.926 251.128 278.95 251.335 278.95Z" fill="#A5B9C4" fill-opacity="0.63"/>
<path fill-rule="evenodd" clip-rule="evenodd" d="M259.146 289.786C259.188 289.786 259.23 289.785 259.272 289.783C260.609 289.721 261.638 288.683 261.571 287.465C261.325 283.067 259.799 279.708 257.034 277.481C253.549 274.674 249.097 274.514 246.754 274.666C245.418 274.754 244.413 275.811 244.51 277.029C244.605 278.245 245.767 279.159 247.103 279.073C248.686 278.968 251.665 279.054 253.821 280.79C255.572 282.201 256.55 284.522 256.727 287.689C256.793 288.869 257.864 289.785 259.146 289.785V289.786Z" fill="#A5B9C4" fill-opacity="0.63"/>
<path fill-rule="evenodd" clip-rule="evenodd" d="M212.929 268.527C212.988 268.527 213.048 268.523 213.108 268.514C213.771 268.425 214.228 267.863 214.129 267.26C213.826 265.39 212.264 264.02 210.053 263.686C207.998 263.376 206.097 264.084 205.325 265.45C205.019 265.992 205.253 266.658 205.849 266.937C206.444 267.217 207.175 267.003 207.482 266.461C207.756 265.976 208.691 265.72 209.656 265.865C210.088 265.93 211.513 266.247 211.731 267.584C211.82 268.132 212.338 268.527 212.929 268.527Z" fill="#A5B9C4" fill-opacity="0.63"/>
<path fill-rule="evenodd" clip-rule="evenodd" d="M201.306 270.226C201.367 270.226 201.43 270.221 201.493 270.213C202.154 270.12 202.608 269.556 202.506 268.953C202.34 267.978 202.778 266.891 204.128 266.66C204.945 266.52 205.92 266.789 206.205 267.963C206.35 268.558 206.998 268.934 207.651 268.803C208.305 268.67 208.717 268.081 208.572 267.485C208.3 266.365 207.639 265.489 206.659 264.951C205.79 264.473 204.732 264.31 203.681 264.489C201.562 264.851 199.655 266.617 200.109 269.291C200.202 269.836 200.718 270.226 201.306 270.226Z" fill="#A5B9C4" fill-opacity="0.63"/>
<path fill-rule="evenodd" clip-rule="evenodd" d="M179.114 283.078C179.749 283.078 180.282 282.628 180.323 282.043C180.405 280.854 181.637 280.479 182.014 280.392C182.832 280.202 183.683 280.357 183.949 280.744C184.304 281.261 185.053 281.417 185.62 281.093C186.188 280.769 186.359 280.087 186.003 279.571C185.158 278.343 183.315 277.812 181.417 278.251C179.372 278.724 178.025 280.123 177.902 281.904C177.86 282.512 178.368 283.037 179.036 283.076C179.062 283.078 179.088 283.078 179.114 283.078V283.078Z" fill="#A5B9C4" fill-opacity="0.63"/>
<path fill-rule="evenodd" clip-rule="evenodd" d="M189.922 283.807C190.553 283.807 191.085 283.362 191.131 282.781C191.33 280.239 189.383 278.719 187.359 278.531C186.354 278.438 185.372 278.67 184.595 279.183C183.718 279.761 183.172 280.634 183.016 281.707C182.928 282.312 183.395 282.867 184.059 282.947C184.723 283.026 185.332 282.602 185.42 281.997C185.615 280.659 186.865 280.705 187.113 280.729C187.914 280.803 188.811 281.344 188.711 282.623C188.664 283.232 189.167 283.76 189.835 283.804C189.864 283.806 189.893 283.807 189.922 283.807V283.807Z" fill="#A5B9C4" fill-opacity="0.63"/>
<path fill-rule="evenodd" clip-rule="evenodd" d="M223.096 283.289C223.671 283.289 224.182 282.915 224.287 282.382C224.497 281.332 224.252 280.325 223.58 279.47C223.002 278.735 222.14 278.172 221.151 277.883C219.056 277.273 217.059 278.003 216.181 279.7C215.896 280.251 216.156 280.909 216.761 281.169C217.367 281.429 218.089 281.192 218.374 280.641C218.895 279.635 220.065 279.886 220.412 279.987C221.074 280.18 222.135 280.819 221.902 281.987C221.782 282.588 222.22 283.162 222.878 283.271C222.951 283.283 223.024 283.289 223.096 283.289Z" fill="#A5B9C4" fill-opacity="0.63"/>
<path fill-rule="evenodd" clip-rule="evenodd" d="M218.386 280.183C218.487 280.183 218.59 280.172 218.693 280.147C219.341 279.994 219.729 279.39 219.56 278.8C219.021 276.911 217.25 275.663 214.939 275.545C212.798 275.436 210.943 276.349 210.321 277.819C210.081 278.388 210.393 279.027 211.018 279.247C211.642 279.466 212.344 279.182 212.585 278.612C212.815 278.068 213.768 277.698 214.802 277.751C215.268 277.774 216.815 277.961 217.214 279.357C217.356 279.854 217.848 280.183 218.386 280.183Z" fill="#A5B9C4" fill-opacity="0.63"/>
<path fill-rule="evenodd" clip-rule="evenodd" d="M159.04 283.522C159.676 283.522 160.209 283.072 160.249 282.487C160.358 280.921 159.252 279.41 157.497 278.727C155.709 278.031 153.806 278.382 152.531 279.642C152.077 280.09 152.108 280.789 152.6 281.202C153.093 281.616 153.86 281.587 154.314 281.139C155.133 280.33 156.146 280.603 156.544 280.758C157.198 281.013 157.879 281.619 157.83 282.348C157.787 282.957 158.295 283.482 158.963 283.52C158.99 283.521 159.015 283.522 159.04 283.522Z" fill="#A5B9C4" fill-opacity="0.63"/>
<path fill-rule="evenodd" clip-rule="evenodd" d="M154.359 280.856C154.47 280.856 154.582 280.842 154.694 280.814C155.337 280.646 155.71 280.034 155.526 279.448C155.054 277.946 153.601 276.899 151.732 276.713C150.08 276.549 148.614 277.112 147.998 278.148C147.68 278.684 147.898 279.354 148.487 279.644C149.076 279.935 149.813 279.735 150.131 279.199C150.216 279.055 150.736 278.836 151.47 278.909C151.8 278.942 152.901 279.121 153.194 280.056C153.347 280.541 153.832 280.856 154.359 280.856Z" fill="#A5B9C4" fill-opacity="0.63"/>
<path fill-rule="evenodd" clip-rule="evenodd" d="M236.289 271.952C236.381 271.952 236.475 271.943 236.568 271.923C237.22 271.783 237.624 271.189 237.471 270.595C237.04 268.927 235.572 267.77 233.641 267.575C231.738 267.384 229.955 268.205 229.203 269.62C228.91 270.169 229.162 270.829 229.765 271.095C230.368 271.361 231.093 271.132 231.385 270.583C231.736 269.923 232.662 269.699 233.374 269.771C233.804 269.814 234.834 270.03 235.11 271.1C235.242 271.609 235.739 271.952 236.289 271.952Z" fill="#A5B9C4" fill-opacity="0.63"/>
<path fill-rule="evenodd" clip-rule="evenodd" d="M241.008 272.392C241.668 272.392 242.209 271.91 242.22 271.306C242.241 270.132 241.269 268.989 239.742 268.395C238.014 267.723 236.183 267.988 234.964 269.087C234.487 269.517 234.483 270.216 234.955 270.649C235.426 271.083 236.194 271.086 236.67 270.657C237.429 269.973 238.484 270.307 238.789 270.426C239.465 270.689 239.798 271.108 239.796 271.269C239.784 271.879 240.318 272.381 240.988 272.391C240.995 272.391 241.001 272.392 241.008 272.392L241.008 272.392Z" fill="#A5B9C4" fill-opacity="0.63"/>
<path fill-rule="evenodd" clip-rule="evenodd" d="M158.897 122.086C159.567 122.086 160.11 121.591 160.11 120.981C160.11 106.594 147.259 94.89 131.464 94.89C129.875 94.89 128.244 95.0282 126.479 95.3124C125.819 95.4186 125.379 95.9916 125.496 96.5923C125.612 97.1928 126.241 97.5938 126.901 97.4876C128.526 97.2262 130.018 97.0989 131.464 97.0989C145.922 97.0989 157.685 107.813 157.685 120.981C157.685 121.591 158.227 122.086 158.897 122.086Z" fill="#A5B9C4" fill-opacity="0.63"/>
<path fill-rule="evenodd" clip-rule="evenodd" d="M111.088 105.369C111.419 105.369 111.748 105.246 111.988 105.005C115.886 101.072 121.181 98.4024 126.9 97.4876C127.239 97.4335 127.536 97.2503 127.719 96.9844C127.9 96.7186 127.95 96.3943 127.854 96.0931C126.165 90.7697 122.561 85.9776 117.708 82.599C112.69 79.1054 106.689 77.2592 100.355 77.2592C95.4199 77.2592 90.5379 78.4366 86.2382 80.6648C85.6559 80.9663 85.452 81.6406 85.7836 82.1709C86.1147 82.7009 86.8552 82.8861 87.4368 82.5844C91.3724 80.5453 95.8395 79.4678 100.355 79.4678C106.152 79.4678 111.644 81.1574 116.235 84.3536C120.328 87.2027 123.449 91.1487 125.126 95.5602C119.399 96.7431 114.137 99.5406 110.188 103.524C109.739 103.977 109.778 104.675 110.275 105.084C110.507 105.275 110.798 105.369 111.088 105.369Z" fill="#A5B9C4" fill-opacity="0.63"/>
<path fill-rule="evenodd" clip-rule="evenodd" d="M42.2293 89.5667C42.6868 89.5667 43.1245 89.3295 43.3297 88.9271C45.4081 84.8485 48.6925 81.3935 52.8268 78.9353C57.0724 76.4105 62.0101 75.0761 67.1062 75.0761C74.2681 75.0761 80.9665 77.6739 85.9651 82.3912C86.4302 82.8303 87.1979 82.8425 87.6798 82.4189C88.1619 81.9956 88.1756 81.2963 87.7103 80.8577C82.2498 75.705 74.9325 72.8672 67.1062 72.8672C61.5382 72.8672 56.1419 74.3263 51.5009 77.0859C46.9864 79.7702 43.4003 83.5432 41.1302 87.9969C40.8478 88.55 41.1121 89.2069 41.719 89.4637C41.8843 89.5335 42.058 89.5667 42.2293 89.5667Z" fill="#A5B9C4" fill-opacity="0.63"/>
<path fill-rule="evenodd" clip-rule="evenodd" d="M77.0888 91.2186C77.4914 91.2186 77.8856 91.036 78.1156 90.7024C80.4322 87.3479 83.6559 84.5408 87.4364 82.5849C88.0186 82.2837 88.2225 81.6097 87.8913 81.0791C87.5612 80.5489 86.8208 80.3634 86.2389 80.6646C82.1106 82.8002 78.5927 85.864 76.0636 89.5261C75.7074 90.0426 75.8773 90.7244 76.444 91.049C76.6445 91.1638 76.8677 91.2186 77.0888 91.2186Z" fill="#A5B9C4" fill-opacity="0.63"/>
<path fill-rule="evenodd" clip-rule="evenodd" d="M1.21288 111.257C1.88248 111.257 2.42499 110.763 2.42499 110.153C2.42499 96.9841 14.1877 86.2708 28.6459 86.2708C33.1834 86.2708 37.6725 87.36 41.6277 89.4206C42.2088 89.7235 42.9496 89.5398 43.2826 89.0106C43.6153 88.4811 43.4133 87.8066 42.8314 87.5036C38.5106 85.2517 33.6056 84.0619 28.6459 84.0619C12.8505 84.0619 7.62939e-06 95.7659 7.62939e-06 110.153C7.62939e-06 110.763 0.542519 111.257 1.21288 111.257Z" fill="#A5B9C4" fill-opacity="0.63"/>
<path fill-rule="evenodd" clip-rule="evenodd" d="M52.2536 98.5399C52.4639 98.5399 52.677 98.49 52.8715 98.3849C53.4476 98.0737 53.6369 97.3959 53.2945 96.8717C50.7646 92.992 47.1467 89.7525 42.8318 87.5037C42.2506 87.2008 41.5102 87.3843 41.1777 87.9138C40.8446 88.4428 41.0464 89.1177 41.6277 89.4207C45.5798 91.4807 48.8933 94.4469 51.2098 97.9995C51.4366 98.3469 51.8397 98.5399 52.2536 98.5399Z" fill="#A5B9C4" fill-opacity="0.63"/>
<path fill-rule="evenodd" clip-rule="evenodd" d="M9.25434 103.777C9.72275 103.777 10.1688 103.528 10.3669 103.112C13.0405 97.5054 18.5743 93.5005 25.17 92.3997C25.8285 92.2901 26.2648 91.7142 26.144 91.1141C26.0232 90.5143 25.3911 90.1173 24.7324 90.2275C17.3407 91.4607 11.1395 95.9488 8.14316 102.232C7.87643 102.792 8.158 103.442 8.77252 103.685C8.92939 103.748 9.09339 103.777 9.25434 103.777Z" fill="#A5B9C4" fill-opacity="0.63"/>
<path fill-rule="evenodd" clip-rule="evenodd" d="M7.4841 111.516C8.15332 111.516 8.6964 111.022 8.6964 110.412C8.6964 109.407 8.78943 108.379 8.97388 107.355C9.08204 106.753 8.63418 106.185 7.97353 106.086C7.31315 105.988 6.68884 106.396 6.58106 106.998C6.37558 108.14 6.2717 109.289 6.2717 110.412C6.2717 111.022 6.8145 111.516 7.4841 111.516Z" fill="#A5B9C4" fill-opacity="0.63"/>
<path fill-rule="evenodd" clip-rule="evenodd" d="M98.0347 188.304C98.0433 188.304 98.0525 188.304 98.0603 188.304C98.4561 188.296 98.8234 188.113 99.0426 187.813C99.6178 187.029 99.8381 187.008 101.059 186.894C102.127 186.793 103.742 186.643 106.168 185.757C106.79 185.53 107.091 184.888 106.843 184.321C106.594 183.755 105.888 183.48 105.266 183.707C103.155 184.477 101.855 184.599 100.81 184.697C99.8103 184.791 98.9092 184.875 98.0287 185.54C96.3356 184.13 94.4415 184.02 92.9944 183.936C92.4087 183.901 91.8559 183.869 91.4746 183.753C90.839 183.561 90.153 183.873 89.9411 184.452C89.7291 185.031 90.0723 185.656 90.7074 185.849C91.3878 186.055 92.1258 186.098 92.839 186.14C94.3723 186.229 95.8208 186.313 97.0555 187.852C97.2845 188.137 97.6486 188.304 98.0347 188.304Z" fill="#A5B9C4" fill-opacity="0.63"/>
<path fill-rule="evenodd" clip-rule="evenodd" d="M298.243 92.8448C298.581 92.8448 298.917 92.7167 299.157 92.4665C299.778 91.8185 300.558 91.3817 301.412 91.204C302.065 91.0681 302.473 90.4757 302.324 89.8814C302.175 89.2867 301.524 88.9149 300.872 89.0505C299.515 89.3332 298.289 90.0124 297.329 91.0144C296.889 91.4743 296.942 92.1717 297.446 92.5727C297.676 92.7554 297.96 92.8448 298.243 92.8448Z" fill="#A5B9C4" fill-opacity="0.63"/>
<path fill-rule="evenodd" clip-rule="evenodd" d="M296.662 96.1583C297.277 96.1583 297.804 95.7333 297.867 95.1643L297.88 95.0397C297.888 95.0099 297.899 94.9679 297.914 94.9017C298.052 94.3049 297.632 93.7191 296.977 93.5936C296.321 93.4675 295.678 93.8501 295.54 94.4468C295.528 94.5016 295.519 94.5353 295.514 94.5587C295.484 94.6767 295.478 94.7223 295.464 94.8516L295.454 94.9431C295.387 95.5498 295.873 96.0917 296.539 96.1526C296.58 96.1566 296.621 96.1587 296.662 96.1587V96.1583ZM297.875 95.0651H297.873H297.875Z" fill="#A5B9C4" fill-opacity="0.63"/>
</svg>
