<svg width="327" height="240" viewBox="0 0 327 240" fill="none" xmlns="http://www.w3.org/2000/svg">
<path fill-rule="evenodd" clip-rule="evenodd" d="M148.416 53.4164H121.329C120.506 53.4164 119.839 52.8688 119.839 52.1937V46.5059C119.839 45.8303 120.506 45.2832 121.329 45.2832C122.151 45.2832 122.819 45.8303 122.819 46.5059V50.9712H148.416C149.239 50.9712 149.906 51.5183 149.906 52.1937C149.906 52.8688 149.239 53.4164 148.416 53.4164Z" fill="#A5B9C4"/>
<path fill-rule="evenodd" clip-rule="evenodd" d="M211.036 53.4164H165.181C164.359 53.4164 163.692 52.8688 163.692 52.1937C163.692 51.5183 164.359 50.9712 165.181 50.9712H209.546V46.5059C209.546 45.8303 210.213 45.2832 211.036 45.2832C211.859 45.2832 212.526 45.8303 212.526 46.5059V52.1937C212.526 52.8688 211.859 53.4164 211.036 53.4164Z" fill="#A5B9C4"/>
<path fill-rule="evenodd" clip-rule="evenodd" d="M148.416 47.7283H118.483C117.842 47.7283 117.273 47.3918 117.07 46.8928C116.867 46.3938 117.076 45.8443 117.588 45.5282L148.668 26.3633C149.325 25.9577 150.26 26.0665 150.754 26.6063C151.248 27.146 151.116 27.9124 150.458 28.3181L122.946 45.2833H148.416C149.239 45.2833 149.906 45.8304 149.906 46.5059C149.906 47.181 149.239 47.7283 148.416 47.7283Z" fill="#A5B9C4"/>
<path fill-rule="evenodd" clip-rule="evenodd" d="M213.887 47.7283H165.181C164.359 47.7283 163.692 47.1811 163.692 46.506C163.692 45.8304 164.359 45.2833 165.181 45.2833H209.424L166.182 18.6187L162.626 20.8126C161.968 21.2185 161.034 21.11 160.54 20.5702C160.045 20.0302 160.178 19.2638 160.836 18.8583L165.287 16.1122C165.818 15.7853 166.547 15.7851 167.077 16.112L214.782 45.5283C215.294 45.8443 215.503 46.3939 215.3 46.8928C215.097 47.3919 214.528 47.7283 213.887 47.7283Z" fill="#A5B9C4"/>
<path fill-rule="evenodd" clip-rule="evenodd" d="M148.411 42.3009H135.144C134.823 42.3009 134.538 42.1327 134.437 41.8832C134.335 41.6335 134.44 41.3588 134.696 41.2008L148.691 32.5686C149.02 32.3656 149.487 32.42 149.734 32.6899C149.981 32.9598 149.915 33.343 149.586 33.5458L137.374 41.0782H148.411C148.823 41.0782 149.156 41.3519 149.156 41.6895C149.156 42.0271 148.823 42.3009 148.411 42.3009Z" fill="#A5B9C4"/>
<path fill-rule="evenodd" clip-rule="evenodd" d="M197.221 42.3008H170.297C169.885 42.3008 169.552 42.0271 169.552 41.6895C169.552 41.3519 169.885 41.0781 170.297 41.0781H194.99L167.748 24.2811C167.42 24.0781 167.353 23.695 167.601 23.4252C167.848 23.1552 168.314 23.1006 168.643 23.3035L197.669 41.2006C197.925 41.3586 198.029 41.6334 197.928 41.8832C197.826 42.1326 197.542 42.3008 197.221 42.3008Z" fill="#A5B9C4"/>
<path fill-rule="evenodd" clip-rule="evenodd" d="M170.908 67.1275C170.496 67.1275 170.163 66.8539 170.163 66.5164V55.7973C170.163 55.4596 170.496 55.186 170.908 55.186C171.319 55.186 171.653 55.4596 171.653 55.7973V66.5164C171.653 66.8539 171.319 67.1275 170.908 67.1275Z" fill="#A5B9C4"/>
<path fill-rule="evenodd" clip-rule="evenodd" d="M170.908 75.2989C170.496 75.2989 170.163 75.0253 170.163 74.6874V71.2538C170.163 70.9164 170.496 70.6426 170.908 70.6426C171.319 70.6426 171.653 70.9164 171.653 71.2538V74.6874C171.653 75.0253 171.319 75.2989 170.908 75.2989Z" fill="#A5B9C4"/>
<path fill-rule="evenodd" clip-rule="evenodd" d="M176 75.2991C175.588 75.2991 175.255 75.0254 175.255 74.6876V55.7974C175.255 55.4596 175.588 55.186 176 55.186C176.411 55.186 176.745 55.4596 176.745 55.7974V74.6876C176.745 75.0254 176.411 75.2991 176 75.2991Z" fill="#A5B9C4"/>
<path fill-rule="evenodd" clip-rule="evenodd" d="M199.986 76.541C199.574 76.541 199.241 76.2673 199.241 75.9295V55.7973C199.241 55.4596 199.574 55.186 199.986 55.186C200.397 55.186 200.73 55.4596 200.73 55.7973V75.9295C200.73 76.2673 200.397 76.541 199.986 76.541Z" fill="#A5B9C4"/>
<path fill-rule="evenodd" clip-rule="evenodd" d="M205.077 74.1243C204.666 74.1243 204.332 73.8506 204.332 73.5133V55.7974C204.332 55.4596 204.666 55.186 205.077 55.186C205.489 55.186 205.822 55.4596 205.822 55.7974V73.5133C205.822 73.8506 205.489 74.1243 205.077 74.1243Z" fill="#A5B9C4"/>
<path fill-rule="evenodd" clip-rule="evenodd" d="M185.45 74.6401C185.038 74.6401 184.705 74.3664 184.705 74.0286V55.7973C184.705 55.4596 185.038 55.186 185.45 55.186C185.861 55.186 186.194 55.4596 186.194 55.7973V74.0286C186.194 74.3664 185.861 74.6401 185.45 74.6401Z" fill="#A5B9C4"/>
<path fill-rule="evenodd" clip-rule="evenodd" d="M190.541 74.6401C190.13 74.6401 189.796 74.3664 189.796 74.0287V55.7974C189.796 55.4596 190.13 55.186 190.541 55.186C190.952 55.186 191.286 55.4596 191.286 55.7974V74.0287C191.286 74.3664 190.952 74.6401 190.541 74.6401Z" fill="#A5B9C4"/>
<path fill-rule="evenodd" clip-rule="evenodd" d="M141.83 76.0298C141.418 76.0298 141.085 75.7561 141.085 75.4186V55.7973C141.085 55.4596 141.418 55.186 141.83 55.186C142.241 55.186 142.575 55.4596 142.575 55.7973V75.4186C142.575 75.7561 142.241 76.0298 141.83 76.0298Z" fill="#A5B9C4"/>
<path fill-rule="evenodd" clip-rule="evenodd" d="M127.288 63.4863C126.876 63.4863 126.543 63.2127 126.543 62.8749V55.7854C126.543 55.4476 126.876 55.1742 127.288 55.1742C127.699 55.1742 128.033 55.4476 128.033 55.7854V62.8749C128.033 63.2127 127.699 63.4863 127.288 63.4863Z" fill="#A5B9C4"/>
<path fill-rule="evenodd" clip-rule="evenodd" d="M132.379 66.0867C131.968 66.0867 131.635 65.8131 131.635 65.4755V55.7853C131.635 55.4476 131.968 55.1741 132.379 55.1741C132.791 55.1741 133.124 55.4476 133.124 55.7853V65.4755C133.124 65.8131 132.791 66.0867 132.379 66.0867Z" fill="#A5B9C4"/>
<path fill-rule="evenodd" clip-rule="evenodd" d="M121.329 62.3519C120.506 62.3519 119.839 61.8046 119.839 61.1292V51.8621C119.839 51.1868 120.506 50.6394 121.329 50.6394C122.151 50.6394 122.819 51.1868 122.819 51.8621V61.1292C122.819 61.8046 122.151 62.3519 121.329 62.3519Z" fill="#A5B9C4"/>
<path fill-rule="evenodd" clip-rule="evenodd" d="M211.036 73.1073C210.213 73.1073 209.546 72.5597 209.546 71.8846V51.8621C209.546 51.1868 210.213 50.6394 211.036 50.6394C211.859 50.6394 212.526 51.1868 212.526 51.8621V71.8846C212.526 72.5597 211.859 73.1073 211.036 73.1073Z" fill="#A5B9C4"/>
<path fill-rule="evenodd" clip-rule="evenodd" d="M132.379 56.4086H127.288C126.985 56.4086 126.711 56.2578 126.597 56.0272L125.358 53.5199C125.265 53.3314 125.292 53.1174 125.431 52.9485C125.569 52.7798 125.8 52.6787 126.049 52.6787H133.619C133.866 52.6787 134.098 52.7798 134.236 52.9485C134.375 53.1174 134.402 53.3314 134.309 53.5199L133.07 56.0272C132.955 56.2578 132.683 56.4086 132.379 56.4086ZM127.789 55.186H131.878L132.513 53.9014H127.154L127.789 55.186Z" fill="#A5B9C4"/>
<path fill-rule="evenodd" clip-rule="evenodd" d="M175.999 56.4086H170.907C170.604 56.4086 170.331 56.2578 170.217 56.0272L168.978 53.5199C168.884 53.3314 168.911 53.1174 169.05 52.9485C169.189 52.7798 169.42 52.6787 169.668 52.6787H177.238C177.486 52.6787 177.718 52.7798 177.856 52.9485C177.995 53.1174 178.022 53.3314 177.928 53.5199L176.689 56.0272C176.575 56.2578 176.302 56.4086 175.999 56.4086ZM171.409 55.186H175.497L176.133 53.9014H170.774L171.409 55.186Z" fill="#A5B9C4"/>
<path fill-rule="evenodd" clip-rule="evenodd" d="M190.541 56.4086H185.449C185.146 56.4086 184.873 56.2578 184.759 56.0272L183.519 53.5199C183.426 53.3314 183.453 53.1174 183.592 52.9485C183.73 52.7798 183.962 52.6787 184.21 52.6787H191.78C192.028 52.6787 192.26 52.7798 192.398 52.9485C192.537 53.1174 192.564 53.3314 192.47 53.5199L191.231 56.0272C191.117 56.2578 190.844 56.4086 190.541 56.4086ZM185.951 55.186H190.039L190.674 53.9014H185.316L185.951 55.186Z" fill="#A5B9C4"/>
<path fill-rule="evenodd" clip-rule="evenodd" d="M205.077 56.4086H199.986C199.682 56.4086 199.409 56.2578 199.296 56.0272L198.056 53.5199C197.963 53.3314 197.99 53.1174 198.128 52.9485C198.267 52.7798 198.498 52.6787 198.746 52.6787H206.317C206.565 52.6787 206.796 52.7798 206.935 52.9485C207.073 53.1174 207.1 53.3314 207.007 53.5199L205.767 56.0272C205.653 56.2578 205.381 56.4086 205.077 56.4086ZM200.487 55.186H204.576L205.211 53.9014H199.852L200.487 55.186Z" fill="#A5B9C4"/>
<path fill-rule="evenodd" clip-rule="evenodd" d="M211.036 49.9612H164.896C164.485 49.9612 164.152 49.6875 164.152 49.3497C164.152 49.0122 164.485 48.7385 164.896 48.7385H211.036C211.447 48.7385 211.781 49.0122 211.781 49.3497C211.781 49.6875 211.447 49.9612 211.036 49.9612Z" fill="#A5B9C4"/>
<path fill-rule="evenodd" clip-rule="evenodd" d="M148.161 49.9612H121.795C121.383 49.9612 121.05 49.6875 121.05 49.3497C121.05 49.0122 121.383 48.7385 121.795 48.7385H148.161C148.572 48.7385 148.906 49.0122 148.906 49.3497C148.906 49.6875 148.572 49.9612 148.161 49.9612Z" fill="#A5B9C4"/>
<path fill-rule="evenodd" clip-rule="evenodd" d="M203.296 69.2052C203.091 69.2052 202.924 69.0683 202.924 68.8997V57.2849C202.924 57.1161 203.091 56.9792 203.296 56.9792C203.502 56.9792 203.669 57.1161 203.669 57.2849V68.8997C203.669 69.0683 203.502 69.2052 203.296 69.2052Z" fill="#A5B9C4"/>
<path fill-rule="evenodd" clip-rule="evenodd" d="M203.296 71.7651C203.091 71.7651 202.924 71.6284 202.924 71.4596V70.4281C202.924 70.2591 203.091 70.1226 203.296 70.1226C203.502 70.1226 203.669 70.2591 203.669 70.4281V71.4596C203.669 71.6284 203.502 71.7651 203.296 71.7651Z" fill="#A5B9C4"/>
<path fill-rule="evenodd" clip-rule="evenodd" d="M188.725 69.2052C188.52 69.2052 188.353 69.0683 188.353 68.8997V57.2849C188.353 57.1161 188.52 56.9792 188.725 56.9792C188.931 56.9792 189.097 57.1161 189.097 57.2849V68.8997C189.097 69.0683 188.931 69.2052 188.725 69.2052Z" fill="#A5B9C4"/>
<path fill-rule="evenodd" clip-rule="evenodd" d="M188.725 71.7651C188.52 71.7651 188.353 71.6284 188.353 71.4596V70.4281C188.353 70.2591 188.52 70.1226 188.725 70.1226C188.931 70.1226 189.097 70.2591 189.097 70.4281V71.4596C189.097 71.6284 188.931 71.7651 188.725 71.7651Z" fill="#A5B9C4"/>
<path fill-rule="evenodd" clip-rule="evenodd" d="M174.247 69.2052C174.042 69.2052 173.875 69.0683 173.875 68.8997V57.2849C173.875 57.1161 174.042 56.9792 174.247 56.9792C174.453 56.9792 174.62 57.1161 174.62 57.2849V68.8997C174.62 69.0683 174.453 69.2052 174.247 69.2052Z" fill="#A5B9C4"/>
<path fill-rule="evenodd" clip-rule="evenodd" d="M130.441 64.9929C130.236 64.9929 130.069 64.8561 130.069 64.6873V57.2849C130.069 57.1161 130.236 56.9792 130.441 56.9792C130.647 56.9792 130.814 57.1161 130.814 57.2849V64.6873C130.814 64.8561 130.647 64.9929 130.441 64.9929Z" fill="#A5B9C4"/>
<path fill-rule="evenodd" clip-rule="evenodd" d="M174.247 71.7651C174.042 71.7651 173.875 71.6284 173.875 71.4596V70.4281C173.875 70.2591 174.042 70.1226 174.247 70.1226C174.453 70.1226 174.62 70.2591 174.62 70.4281V71.4596C174.62 71.6284 174.453 71.7651 174.247 71.7651Z" fill="#A5B9C4"/>
<path fill-rule="evenodd" clip-rule="evenodd" d="M183.791 36.9922C183.638 36.9922 183.483 36.9539 183.35 36.8737L169.227 28.3536C168.896 28.1534 168.824 27.7711 169.068 27.499C169.312 27.227 169.778 27.1684 170.109 27.3684L184.233 35.8885C184.564 36.0885 184.635 36.4711 184.392 36.7431C184.245 36.906 184.02 36.9922 183.791 36.9922Z" fill="#A5B9C4"/>
<path fill-rule="evenodd" clip-rule="evenodd" d="M186.863 38.8647C186.714 38.8647 186.564 38.8283 186.433 38.7523L185.316 38.1026C184.98 37.9076 184.901 37.5259 185.139 37.2504C185.377 36.9751 185.841 36.91 186.177 37.105L187.294 37.7544C187.63 37.9496 187.709 38.3311 187.472 38.6066C187.326 38.7748 187.097 38.8647 186.863 38.8647Z" fill="#A5B9C4"/>
<path fill-rule="evenodd" clip-rule="evenodd" d="M96.3358 61.2416C95.9243 61.2416 95.5911 60.9678 95.5911 60.63V58.9992C95.5911 58.6615 95.9243 58.3879 96.3358 58.3879C96.7476 58.3879 97.0805 58.6615 97.0805 58.9992V60.63C97.0805 60.9678 96.7476 61.2416 96.3358 61.2416Z" fill="#A5B9C4"/>
<path fill-rule="evenodd" clip-rule="evenodd" d="M148.417 53.4165H121.329C120.506 53.4165 119.839 52.8689 119.839 52.1938V46.506C119.839 45.8304 120.506 45.2833 121.329 45.2833C122.151 45.2833 122.819 45.8304 122.819 46.506V50.9713H148.417C149.239 50.9713 149.907 51.5184 149.907 52.1938C149.907 52.8689 149.239 53.4165 148.417 53.4165Z" fill="#A5B9C4"/>
<path fill-rule="evenodd" clip-rule="evenodd" d="M211.036 53.4165H165.182C164.359 53.4165 163.692 52.8689 163.692 52.1938C163.692 51.5184 164.359 50.9713 165.182 50.9713H209.546V46.506C209.546 45.8304 210.213 45.2833 211.036 45.2833C211.859 45.2833 212.526 45.8304 212.526 46.506V52.1938C212.526 52.8689 211.859 53.4165 211.036 53.4165Z" fill="#A5B9C4"/>
<path fill-rule="evenodd" clip-rule="evenodd" d="M132.838 37.4412L133.733 38.2767C133.092 38.2767 132.523 37.9403 132.32 37.4412C132.117 36.9423 132.326 36.3927 132.838 36.0767L163.917 16.9118C164.575 16.5061 165.509 16.6149 166.004 17.1547C166.498 17.6945 166.365 18.4609 165.707 18.8665L138.195 35.8317L135.511 35.2976C136.334 35.2976 132.838 36.7656 132.838 37.4412C132.838 38.1163 132.32 38.2767 132.838 37.4412Z" fill="#A5B9C4"/>
<path fill-rule="evenodd" clip-rule="evenodd" d="M137.79 46.4972L137.952 47.5622C137.443 47.2614 137.212 46.7346 137.379 46.2541C137.546 45.7738 138.073 45.4475 138.687 45.4438L175.953 45.2333C176.742 45.2287 177.412 45.7512 177.45 46.3998C177.488 47.0484 176.879 47.5779 176.09 47.5823L143.101 47.7687L141.321 46.0969C141.974 46.483 138.234 45.9757 137.79 46.4972C137.347 47.0183 136.83 46.8991 137.79 46.4972Z" fill="#A5B9C4"/>
<path fill-rule="evenodd" clip-rule="evenodd" d="M137.792 51.8871L137.937 52.9538C137.433 52.6474 137.211 52.1181 137.385 51.6395C137.56 51.161 138.092 50.8406 138.706 50.8437L175.973 51.0474C176.761 51.0516 177.423 51.5815 177.45 52.2304C177.478 52.8795 176.86 53.4022 176.071 53.3977L143.082 53.2175L141.33 51.5261C141.976 51.9194 138.245 51.3706 137.792 51.8871C137.341 52.4033 136.826 52.2783 137.792 51.8871Z" fill="#A5B9C4"/>
<path fill-rule="evenodd" clip-rule="evenodd" d="M213.888 47.7283H165.182C164.36 47.7283 163.693 47.1811 163.693 46.506C163.693 45.8304 164.36 45.2833 165.182 45.2833H209.425L166.183 18.6187L162.626 20.8126C161.969 21.2185 161.035 21.11 160.541 20.5702C160.046 20.0302 160.179 19.2638 160.837 18.8583L165.288 16.1122C165.818 15.7853 166.547 15.7851 167.078 16.112L214.783 45.5283C215.295 45.8443 215.504 46.3939 215.3 46.8928C215.098 47.3919 214.529 47.7283 213.888 47.7283Z" fill="#A5B9C4"/>
<path fill-rule="evenodd" clip-rule="evenodd" d="M148.411 42.3009H135.144C134.823 42.3009 134.538 42.1327 134.437 41.8832C134.335 41.6335 134.44 41.3588 134.696 41.2008L148.691 32.5686C149.02 32.3656 149.487 32.42 149.734 32.6899C149.981 32.9598 149.915 33.343 149.586 33.5458L137.374 41.0782H148.411C148.823 41.0782 149.156 41.3519 149.156 41.6895C149.156 42.0271 148.823 42.3009 148.411 42.3009Z" fill="#A5B9C4"/>
<path fill-rule="evenodd" clip-rule="evenodd" d="M197.222 42.3008H170.297C169.885 42.3008 169.552 42.0271 169.552 41.6895C169.552 41.3519 169.885 41.0781 170.297 41.0781H194.99L167.748 24.2811C167.42 24.0781 167.353 23.695 167.601 23.4252C167.848 23.1552 168.315 23.1006 168.644 23.3035L197.669 41.2006C197.925 41.3586 198.03 41.6334 197.928 41.8832C197.827 42.1326 197.542 42.3008 197.222 42.3008Z" fill="#A5B9C4"/>
<path fill-rule="evenodd" clip-rule="evenodd" d="M170.908 67.1276C170.497 67.1276 170.163 66.854 170.163 66.5165V55.7974C170.163 55.4597 170.497 55.1861 170.908 55.1861C171.319 55.1861 171.653 55.4597 171.653 55.7974V66.5165C171.653 66.854 171.319 67.1276 170.908 67.1276Z" fill="#A5B9C4"/>
<path fill-rule="evenodd" clip-rule="evenodd" d="M170.908 75.2991C170.497 75.2991 170.164 75.0254 170.164 74.6876V71.2539C170.164 70.9165 170.497 70.6428 170.908 70.6428C171.319 70.6428 171.653 70.9165 171.653 71.2539V74.6876C171.653 75.0254 171.319 75.2991 170.908 75.2991Z" fill="#A5B9C4"/>
<path fill-rule="evenodd" clip-rule="evenodd" d="M176 75.2992C175.588 75.2992 175.255 75.0255 175.255 74.6877V55.7975C175.255 55.4598 175.588 55.1862 176 55.1862C176.411 55.1862 176.745 55.4598 176.745 55.7975V74.6877C176.745 75.0255 176.411 75.2992 176 75.2992Z" fill="#A5B9C4"/>
<path fill-rule="evenodd" clip-rule="evenodd" d="M153.664 67.478C153.252 67.478 152.919 67.2044 152.919 66.8669V56.1479C152.919 55.8101 153.252 55.5365 153.664 55.5365C154.075 55.5365 154.409 55.8101 154.409 56.1479V66.8669C154.409 67.2044 154.075 67.478 153.664 67.478Z" fill="#A5B9C4"/>
<path fill-rule="evenodd" clip-rule="evenodd" d="M153.664 75.6497C153.252 75.6497 152.919 75.376 152.919 75.0381V71.6045C152.919 71.2671 153.252 70.9933 153.664 70.9933C154.075 70.9933 154.409 71.2671 154.409 71.6045V75.0381C154.409 75.376 154.075 75.6497 153.664 75.6497Z" fill="#A5B9C4"/>
<path fill-rule="evenodd" clip-rule="evenodd" d="M158.756 75.6495C158.344 75.6495 158.011 75.3758 158.011 75.038V56.1479C158.011 55.8101 158.344 55.5365 158.756 55.5365C159.167 55.5365 159.501 55.8101 159.501 56.1479V75.038C159.501 75.3758 159.167 75.6495 158.756 75.6495Z" fill="#A5B9C4"/>
<path fill-rule="evenodd" clip-rule="evenodd" d="M199.986 76.5412C199.574 76.5412 199.241 76.2674 199.241 75.9296V55.7974C199.241 55.4597 199.574 55.1861 199.986 55.1861C200.397 55.1861 200.73 55.4597 200.73 55.7974V75.9296C200.73 76.2674 200.397 76.5412 199.986 76.5412Z" fill="#A5B9C4"/>
<path fill-rule="evenodd" clip-rule="evenodd" d="M205.077 74.1244C204.666 74.1244 204.332 73.8507 204.332 73.5134V55.7975C204.332 55.4598 204.666 55.1862 205.077 55.1862C205.489 55.1862 205.822 55.4598 205.822 55.7975V73.5134C205.822 73.8507 205.489 74.1244 205.077 74.1244Z" fill="#A5B9C4"/>
<path fill-rule="evenodd" clip-rule="evenodd" d="M185.45 74.6402C185.038 74.6402 184.705 74.3665 184.705 74.0287V55.7974C184.705 55.4597 185.038 55.1861 185.45 55.1861C185.861 55.1861 186.194 55.4597 186.194 55.7974V74.0287C186.194 74.3665 185.861 74.6402 185.45 74.6402Z" fill="#A5B9C4"/>
<path fill-rule="evenodd" clip-rule="evenodd" d="M190.541 74.6403C190.13 74.6403 189.796 74.3666 189.796 74.0288V55.7975C189.796 55.4598 190.13 55.1862 190.541 55.1862C190.952 55.1862 191.286 55.4598 191.286 55.7975V74.0288C191.286 74.3666 190.952 74.6403 190.541 74.6403Z" fill="#A5B9C4"/>
<path fill-rule="evenodd" clip-rule="evenodd" d="M141.83 76.0299C141.418 76.0299 141.085 75.7562 141.085 75.4187V55.7974C141.085 55.4597 141.418 55.1861 141.83 55.1861C142.241 55.1861 142.575 55.4597 142.575 55.7974V75.4187C142.575 75.7562 142.241 76.0299 141.83 76.0299Z" fill="#A5B9C4"/>
<path fill-rule="evenodd" clip-rule="evenodd" d="M127.288 63.4864C126.877 63.4864 126.543 63.2128 126.543 62.875V55.7854C126.543 55.4477 126.877 55.1743 127.288 55.1743C127.699 55.1743 128.033 55.4477 128.033 55.7854V62.875C128.033 63.2128 127.699 63.4864 127.288 63.4864Z" fill="#A5B9C4"/>
<path fill-rule="evenodd" clip-rule="evenodd" d="M132.38 66.0867C131.968 66.0867 131.635 65.8132 131.635 65.4755V55.7854C131.635 55.4476 131.968 55.1742 132.38 55.1742C132.791 55.1742 133.125 55.4476 133.125 55.7854V65.4755C133.125 65.8132 132.791 66.0867 132.38 66.0867Z" fill="#A5B9C4"/>
<path fill-rule="evenodd" clip-rule="evenodd" d="M121.329 62.3519C120.506 62.3519 119.839 61.8046 119.839 61.1292V51.8621C119.839 51.1868 120.506 50.6394 121.329 50.6394C122.151 50.6394 122.819 51.1868 122.819 51.8621V61.1292C122.819 61.8046 122.151 62.3519 121.329 62.3519Z" fill="#A5B9C4"/>
<path fill-rule="evenodd" clip-rule="evenodd" d="M211.036 73.1073C210.213 73.1073 209.546 72.5597 209.546 71.8846V51.8621C209.546 51.1868 210.213 50.6394 211.036 50.6394C211.859 50.6394 212.526 51.1868 212.526 51.8621V71.8846C212.526 72.5597 211.859 73.1073 211.036 73.1073Z" fill="#A5B9C4"/>
<path fill-rule="evenodd" clip-rule="evenodd" d="M132.379 56.4086H127.288C126.985 56.4086 126.712 56.2578 126.598 56.0272L125.358 53.5199C125.265 53.3314 125.292 53.1174 125.431 52.9485C125.569 52.7798 125.8 52.6787 126.049 52.6787H133.619C133.866 52.6787 134.098 52.7798 134.237 52.9485C134.375 53.1174 134.402 53.3314 134.309 53.5199L133.07 56.0272C132.956 56.2578 132.683 56.4086 132.379 56.4086ZM127.789 55.186H131.878L132.513 53.9014H127.154L127.789 55.186Z" fill="#A5B9C4"/>
<path fill-rule="evenodd" clip-rule="evenodd" d="M175.999 56.4086H170.908C170.604 56.4086 170.331 56.2578 170.217 56.0272L168.978 53.5199C168.885 53.3314 168.912 53.1174 169.05 52.9485C169.189 52.7798 169.42 52.6787 169.668 52.6787H177.238C177.486 52.6787 177.718 52.7798 177.856 52.9485C177.995 53.1174 178.022 53.3314 177.928 53.5199L176.689 56.0272C176.575 56.2578 176.303 56.4086 175.999 56.4086ZM171.409 55.186H175.497L176.133 53.9014H170.774L171.409 55.186Z" fill="#A5B9C4"/>
<path fill-rule="evenodd" clip-rule="evenodd" d="M158.755 56.4086H153.664C153.36 56.4086 153.087 56.2578 152.973 56.0272L151.734 53.5199C151.641 53.3314 151.668 53.1174 151.806 52.9485C151.945 52.7798 152.176 52.6787 152.424 52.6787H159.995C160.242 52.6787 160.474 52.7798 160.612 52.9485C160.751 53.1174 160.778 53.3314 160.685 53.5199L159.446 56.0272C159.331 56.2578 159.059 56.4086 158.755 56.4086ZM154.165 55.186H158.253L158.889 53.9014H153.53L154.165 55.186Z" fill="#A5B9C4"/>
<path fill-rule="evenodd" clip-rule="evenodd" d="M190.541 56.4086H185.45C185.146 56.4086 184.873 56.2578 184.76 56.0272L183.52 53.5199C183.427 53.3314 183.454 53.1174 183.593 52.9485C183.731 52.7798 183.962 52.6787 184.211 52.6787H191.781C192.029 52.6787 192.26 52.7798 192.398 52.9485C192.537 53.1174 192.564 53.3314 192.471 53.5199L191.231 56.0272C191.117 56.2578 190.845 56.4086 190.541 56.4086ZM185.951 55.186H190.04L190.675 53.9014H185.316L185.951 55.186Z" fill="#A5B9C4"/>
<path fill-rule="evenodd" clip-rule="evenodd" d="M205.077 56.4086H199.986C199.682 56.4086 199.409 56.2578 199.296 56.0272L198.056 53.5199C197.963 53.3314 197.99 53.1174 198.128 52.9485C198.267 52.7798 198.498 52.6787 198.746 52.6787H206.317C206.565 52.6787 206.796 52.7798 206.935 52.9485C207.073 53.1174 207.1 53.3314 207.007 53.5199L205.767 56.0272C205.653 56.2578 205.381 56.4086 205.077 56.4086ZM200.487 55.186H204.576L205.211 53.9014H199.852L200.487 55.186Z" fill="#A5B9C4"/>
<path fill-rule="evenodd" clip-rule="evenodd" d="M211.036 49.9612H164.896C164.485 49.9612 164.152 49.6875 164.152 49.3497C164.152 49.0122 164.485 48.7385 164.896 48.7385H211.036C211.447 48.7385 211.781 49.0122 211.781 49.3497C211.781 49.6875 211.447 49.9612 211.036 49.9612Z" fill="#A5B9C4"/>
<path fill-rule="evenodd" clip-rule="evenodd" d="M148.161 49.9612H121.795C121.383 49.9612 121.05 49.6875 121.05 49.3497C121.05 49.0122 121.383 48.7385 121.795 48.7385H148.161C148.573 48.7385 148.906 49.0122 148.906 49.3497C148.906 49.6875 148.573 49.9612 148.161 49.9612Z" fill="#A5B9C4"/>
<path fill-rule="evenodd" clip-rule="evenodd" d="M203.296 69.2052C203.091 69.2052 202.924 69.0683 202.924 68.8997V57.2849C202.924 57.1161 203.091 56.9792 203.296 56.9792C203.502 56.9792 203.669 57.1161 203.669 57.2849V68.8997C203.669 69.0683 203.502 69.2052 203.296 69.2052Z" fill="#A5B9C4"/>
<path fill-rule="evenodd" clip-rule="evenodd" d="M203.296 71.7651C203.091 71.7651 202.924 71.6284 202.924 71.4596V70.4281C202.924 70.2591 203.091 70.1226 203.296 70.1226C203.502 70.1226 203.669 70.2591 203.669 70.4281V71.4596C203.669 71.6284 203.502 71.7651 203.296 71.7651Z" fill="#A5B9C4"/>
<path fill-rule="evenodd" clip-rule="evenodd" d="M188.725 69.2052C188.52 69.2052 188.353 69.0683 188.353 68.8997V57.2849C188.353 57.1161 188.52 56.9792 188.725 56.9792C188.931 56.9792 189.097 57.1161 189.097 57.2849V68.8997C189.097 69.0683 188.931 69.2052 188.725 69.2052Z" fill="#A5B9C4"/>
<path fill-rule="evenodd" clip-rule="evenodd" d="M188.725 71.7651C188.52 71.7651 188.353 71.6284 188.353 71.4596V70.4281C188.353 70.2591 188.52 70.1226 188.725 70.1226C188.931 70.1226 189.097 70.2591 189.097 70.4281V71.4596C189.097 71.6284 188.931 71.7651 188.725 71.7651Z" fill="#A5B9C4"/>
<path fill-rule="evenodd" clip-rule="evenodd" d="M174.247 69.2052C174.042 69.2052 173.875 69.0683 173.875 68.8997V57.2849C173.875 57.1161 174.042 56.9792 174.247 56.9792C174.453 56.9792 174.62 57.1161 174.62 57.2849V68.8997C174.62 69.0683 174.453 69.2052 174.247 69.2052Z" fill="#A5B9C4"/>
<path fill-rule="evenodd" clip-rule="evenodd" d="M130.441 64.9929C130.236 64.9929 130.069 64.8561 130.069 64.6873V57.2849C130.069 57.1161 130.236 56.9792 130.441 56.9792C130.647 56.9792 130.814 57.1161 130.814 57.2849V64.6873C130.814 64.8561 130.647 64.9929 130.441 64.9929Z" fill="#A5B9C4"/>
<path fill-rule="evenodd" clip-rule="evenodd" d="M174.247 71.7651C174.042 71.7651 173.875 71.6284 173.875 71.4596V70.4281C173.875 70.2591 174.042 70.1226 174.247 70.1226C174.453 70.1226 174.62 70.2591 174.62 70.4281V71.4596C174.62 71.6284 174.453 71.7651 174.247 71.7651Z" fill="#A5B9C4"/>
<path fill-rule="evenodd" clip-rule="evenodd" d="M183.791 36.9922C183.638 36.9922 183.483 36.9539 183.35 36.8737L169.227 28.3536C168.896 28.1534 168.824 27.7711 169.068 27.499C169.312 27.227 169.778 27.1684 170.109 27.3684L184.233 35.8885C184.564 36.0885 184.635 36.4711 184.392 36.7431C184.245 36.906 184.02 36.9922 183.791 36.9922Z" fill="#A5B9C4"/>
<path fill-rule="evenodd" clip-rule="evenodd" d="M166.623 23.7029C166.572 23.8232 166.477 23.9316 166.342 24.0096L152.002 32.2748C151.666 32.4689 151.209 32.3975 150.983 32.1154C150.756 31.8335 150.844 31.4479 151.181 31.2538L165.521 22.9885C165.857 22.7944 166.314 22.8658 166.541 23.1478C166.676 23.3168 166.699 23.5228 166.623 23.7029Z" fill="#A5B9C4"/>
<path fill-rule="evenodd" clip-rule="evenodd" d="M165.806 42.1403C165.682 42.2151 165.53 42.2596 165.366 42.2598L147.93 42.2717C147.521 42.2719 147.194 41.9972 147.2 41.6576C147.205 41.3182 147.541 41.0429 147.95 41.0425L165.386 41.0306C165.795 41.0302 166.122 41.3052 166.117 41.6446C166.113 41.8479 165.991 42.0281 165.806 42.1403Z" fill="#A5B9C4"/>
<path fill-rule="evenodd" clip-rule="evenodd" d="M186.863 38.8647C186.714 38.8647 186.564 38.8283 186.433 38.7523L185.316 38.1026C184.98 37.9076 184.901 37.5259 185.139 37.2504C185.377 36.9751 185.841 36.91 186.177 37.105L187.294 37.7544C187.63 37.9496 187.709 38.3311 187.472 38.6066C187.326 38.7748 187.097 38.8647 186.863 38.8647Z" fill="#A5B9C4"/>
<path fill-rule="evenodd" clip-rule="evenodd" d="M228.27 16.487C227.914 16.487 227.599 16.2762 227.537 15.978C227.183 14.2666 227.519 12.6311 228.509 11.2481C229.405 9.99758 230.802 9.01829 232.444 8.49049C233.936 8.01076 235.563 7.93549 237.026 8.27888C238.64 8.65771 240.022 9.52247 241.022 10.7799C241.247 11.0625 241.15 11.4413 240.805 11.6258C240.46 11.8105 239.999 11.7309 239.774 11.4481C238.973 10.4406 237.881 9.75104 236.616 9.4543C235.466 9.18409 234.177 9.24607 232.987 9.62901C230.535 10.4173 228.353 12.623 229.005 15.7731C229.074 16.1059 228.802 16.4217 228.396 16.4782C228.354 16.4841 228.312 16.487 228.27 16.487Z" fill="#A5B9C4"/>
<path fill-rule="evenodd" clip-rule="evenodd" d="M237.564 9.67909C237.483 9.67909 237.4 9.66827 237.319 9.64511C236.931 9.53407 236.725 9.1856 236.86 8.86666C238.268 5.54999 240.51 3.10377 243.525 1.59556C246.135 0.289487 249.203 -0.230023 252.395 0.0935369C255.292 0.386898 258.069 1.36316 260.216 2.8427C262.461 4.38923 263.82 6.36608 264.044 8.40884C264.081 8.74497 263.778 9.04222 263.368 9.07253C262.959 9.10273 262.597 8.85438 262.56 8.5182C262.372 6.7995 261.199 5.11623 259.259 3.77901C257.329 2.44967 254.827 1.57161 252.213 1.30682C249.357 1.0174 246.621 1.47831 244.3 2.63953C241.588 3.9962 239.558 6.2268 238.267 9.26882C238.16 9.52083 237.872 9.67909 237.564 9.67909Z" fill="#A5B9C4"/>
<path fill-rule="evenodd" clip-rule="evenodd" d="M276.268 20.6969C276.227 20.6969 276.186 20.6941 276.144 20.6886C275.739 20.6325 275.465 20.3173 275.533 19.9844C275.914 18.1188 275.268 16.0784 273.714 14.2391C272.2 12.4468 269.975 10.9855 267.45 10.1248C265.031 9.30015 262.543 9.09952 260.255 9.54477C257.648 10.0523 255.411 11.3579 253.608 13.4254C253.369 13.7003 252.904 13.7632 252.569 13.5668C252.235 13.3703 252.158 12.9888 252.397 12.7139C254.415 10.3992 256.943 8.93264 259.911 8.35533C262.506 7.85018 265.311 8.07171 268.022 8.99574C270.807 9.94501 273.263 11.5596 274.939 13.5425C276.715 15.6453 277.448 18.0048 277.002 20.1866C276.941 20.4855 276.626 20.6969 276.268 20.6969Z" fill="#A5B9C4"/>
<path fill-rule="evenodd" clip-rule="evenodd" d="M257.308 6.03266C257.138 6.03266 256.967 5.98505 256.827 5.88781C255.314 4.83645 253.472 4.14223 251.498 3.88031C251.092 3.82634 250.816 3.51252 250.882 3.17939C250.948 2.84591 251.331 2.61959 251.736 2.67345C253.977 2.97065 256.07 3.75974 257.79 4.95482C258.104 5.17297 258.143 5.55862 257.877 5.81626C257.73 5.95902 257.52 6.03266 257.308 6.03266Z" fill="#A5B9C4"/>
<path fill-rule="evenodd" clip-rule="evenodd" d="M259.26 7.5981C259.071 7.5981 258.844 7.53263 258.618 7.31161C258.603 7.29707 258.589 7.28186 258.576 7.26637C258.113 6.71734 258.63 6.38465 258.691 6.34842C258.752 6.31214 259.298 6.01033 259.791 6.54167C260.284 7.07216 259.786 7.42463 259.727 7.46299C259.694 7.48468 259.51 7.5981 259.26 7.5981ZM258.61 7.28124C258.827 7.463 259.24 7.53421 259.569 7.33617C259.896 7.13927 259.939 6.79863 259.797 6.57266L259.188 6.91853L259.755 6.52792C259.527 6.35592 259.116 6.3002 258.799 6.50713C258.478 6.71559 258.454 7.06039 258.61 7.28124Z" fill="#A5B9C4"/>
<path fill-rule="evenodd" clip-rule="evenodd" d="M272.653 82.1528C272.259 82.1528 271.866 82.0254 271.573 81.7727C263.296 74.6261 255.404 73.1023 250.241 73.0824C247.289 73.0738 244.445 73.536 241.786 74.4641C239.258 75.3466 237.026 76.5983 235.154 78.1848C234.581 78.6697 233.639 78.6821 233.047 78.2123C232.456 77.7424 232.441 76.9687 233.014 76.4835C235.164 74.6613 237.724 73.2249 240.62 72.214C243.655 71.1548 246.898 70.625 250.255 70.6372C255.997 70.6593 264.731 72.3168 273.732 80.088C274.299 80.5775 274.275 81.3511 273.679 81.8165C273.391 82.0413 273.022 82.1528 272.653 82.1528Z" fill="#A5B9C4"/>
<path fill-rule="evenodd" clip-rule="evenodd" d="M240.687 85.8207C239.99 85.8207 239.367 85.417 239.227 84.8346C238.738 82.7979 236.868 80.6488 233.962 78.7834C230.896 76.8152 226.983 75.384 222.945 74.7533C218.388 74.0417 213.834 74.3684 209.776 75.6983C205.006 77.2613 200.943 80.1558 197.7 84.301C197.255 84.8691 196.334 85.0341 195.641 84.6693C194.949 84.3044 194.748 83.5478 195.193 82.9798C198.778 78.3972 203.313 75.1834 208.671 73.4275C213.258 71.9245 218.386 71.5522 223.502 72.3514C232.838 73.8093 240.855 78.9725 242.15 84.3614C242.309 85.024 241.784 85.6668 240.977 85.7974C240.879 85.8133 240.783 85.8207 240.687 85.8207Z" fill="#A5B9C4"/>
<path fill-rule="evenodd" clip-rule="evenodd" d="M154.357 89.2597C154.21 89.2597 154.061 89.2416 153.913 89.2041C153.128 89.0032 152.689 88.3178 152.934 87.6732C154.254 84.195 157.009 81.0334 160.902 78.5297C164.6 76.1517 169.083 74.5045 173.866 73.7659C178.481 73.0533 183.133 73.2454 187.318 74.321C191.982 75.5201 195.903 77.7272 198.972 80.8812C199.485 81.4088 199.38 82.178 198.737 82.5996C198.094 83.0209 197.157 82.9346 196.643 82.4073C193.951 79.6406 190.514 77.7053 186.428 76.6546C182.707 75.698 178.554 75.5301 174.417 76.1689C170.102 76.8354 166.064 78.3173 162.74 80.4544C159.325 82.6505 156.918 85.3982 155.779 88.4001C155.58 88.924 154.992 89.2597 154.357 89.2597Z" fill="#A5B9C4"/>
<path fill-rule="evenodd" clip-rule="evenodd" d="M176.08 75.5601C175.494 75.5601 174.938 75.2749 174.702 74.8026C172.593 70.5991 169.392 67.2786 165.187 64.9331C161.554 62.9067 157.199 61.6576 152.592 61.3205C144.586 60.7357 136.667 63.0218 133.761 66.7571C133.319 67.3261 132.397 67.4931 131.704 67.1297C131.011 66.7664 130.807 66.0102 131.25 65.4412C134.776 60.909 143.661 58.2131 152.856 58.885C157.967 59.2589 162.81 60.6509 166.862 62.9108C171.557 65.5299 175.122 69.2178 177.457 73.8719C177.769 74.4962 177.407 75.2109 176.646 75.4678C176.46 75.5306 176.268 75.5601 176.08 75.5601Z" fill="#A5B9C4"/>
<path fill-rule="evenodd" clip-rule="evenodd" d="M92.0335 77.4656C91.8178 77.4656 91.599 77.4273 91.3913 77.3458C90.6492 77.0545 90.3353 76.3243 90.6904 75.7154C93.4582 70.9664 97.3817 67.2899 102.352 64.788C106.702 62.5978 111.772 61.3938 117.013 61.3065C121.694 61.2282 126.274 62.0265 130.254 63.615C134.316 65.2364 137.395 67.5384 139.159 70.2718C139.544 70.8687 139.266 71.6085 138.539 71.9245C137.812 72.2401 136.911 72.0128 136.525 71.416C135.06 69.1441 132.441 67.207 128.951 65.8141C125.394 64.394 121.287 63.6811 117.073 63.7512C112.361 63.8299 107.809 64.9092 103.91 66.8721C99.4373 69.1236 95.894 72.4539 93.378 76.7704C93.1224 77.2093 92.5891 77.4656 92.0335 77.4656Z" fill="#A5B9C4"/>
<path fill-rule="evenodd" clip-rule="evenodd" d="M52.1796 102.223C51.5856 102.223 51.0239 101.93 50.7933 101.448C48.1182 95.8714 48.04 90.2757 50.5676 85.2658C52.8154 80.8116 57.0852 76.9773 62.5907 74.4697C68.2094 71.9105 74.6405 70.9183 80.6988 71.6757C87.4381 72.5182 93.2305 75.431 97.4495 80.0989C97.9396 80.6413 97.8013 81.4072 97.1409 81.8095C96.4801 82.2118 95.5465 82.0981 95.0569 81.5559C91.3161 77.4168 86.1956 74.8363 80.2499 74.0931C74.8402 73.4167 69.0818 74.3097 64.0364 76.6078C59.117 78.8482 55.3111 82.2556 53.3201 86.2015C51.094 90.6143 51.1788 95.5767 53.5654 100.552C53.8667 101.181 53.4906 101.891 52.7249 102.138C52.5459 102.196 52.3612 102.223 52.1796 102.223Z" fill="#A5B9C4"/>
<path fill-rule="evenodd" clip-rule="evenodd" d="M41.5059 119.645C40.7272 119.645 40.0722 119.149 40.0209 118.502C39.5415 112.477 41.1438 107.734 44.783 104.405C49.3476 100.229 55.9259 99.3953 59.4411 99.2704C60.2635 99.2423 60.958 99.7644 60.994 100.439C61.0298 101.114 60.392 101.684 59.5699 101.713C56.5227 101.822 50.8374 102.527 47.0008 106.037C43.917 108.859 42.569 112.999 42.9938 118.343C43.0475 119.017 42.4255 119.599 41.6042 119.643C41.5713 119.644 41.5383 119.645 41.5059 119.645V119.645Z" fill="#A5B9C4"/>
<path fill-rule="evenodd" clip-rule="evenodd" d="M112.128 77.1645C112.12 77.1645 112.112 77.1643 112.104 77.1642C111.692 77.1533 111.37 76.8708 111.383 76.5333C111.496 73.6927 114.088 72.0805 116.477 71.5193C117.746 71.2208 119.093 71.1782 120.27 71.3994C121.584 71.6463 122.621 72.1953 123.267 72.987C123.496 73.2674 123.405 73.6471 123.063 73.8352C122.721 74.0228 122.258 73.9481 122.03 73.6674C121.15 72.5898 119.035 72.1897 116.887 72.6946C115.003 73.1374 112.959 74.3889 112.872 76.5731C112.859 76.9037 112.528 77.1645 112.128 77.1645Z" fill="#A5B9C4"/>
<path fill-rule="evenodd" clip-rule="evenodd" d="M131.767 77.8714C131.758 77.8714 131.747 77.8714 131.738 77.8711C131.327 77.8577 131.007 77.5736 131.022 77.2361C131.115 75.3093 129.787 73.153 126.653 72.9722C124.61 72.8529 122.416 73.8036 122.121 76.1899C122.079 76.5257 121.713 76.7704 121.305 76.7362C120.896 76.7024 120.597 76.4027 120.639 76.0666C121.032 72.8829 124.086 71.5971 126.758 71.7527C128.323 71.8429 129.764 72.3916 130.817 73.2978C132.001 74.3182 132.587 75.6967 132.511 77.2842C132.495 77.6133 132.165 77.8714 131.767 77.8714Z" fill="#A5B9C4"/>
<path fill-rule="evenodd" clip-rule="evenodd" d="M281.336 95.4522C281.266 95.4522 281.195 95.444 281.124 95.4268C280.73 95.331 280.505 94.9905 280.622 94.667C281.606 91.9421 284.611 90.9207 287.096 90.8736C288.415 90.8494 289.731 91.0869 290.802 91.5451C291.998 92.0568 292.832 92.8033 293.213 93.7033C293.348 94.0223 293.142 94.3706 292.754 94.4816C292.365 94.5922 291.94 94.4236 291.805 94.1046C291.286 92.8794 289.363 92.055 287.13 92.0959C285.171 92.133 282.807 92.9193 282.05 95.0145C281.954 95.2802 281.658 95.4522 281.336 95.4522Z" fill="#A5B9C4"/>
<path fill-rule="evenodd" clip-rule="evenodd" d="M300.12 100.213C300.048 100.213 299.975 100.205 299.903 100.187C299.509 100.089 299.287 99.7472 299.407 99.4242C300.09 97.5792 299.47 95.2173 296.494 94.3918C294.553 93.8536 292.137 94.3163 291.117 96.564C290.973 96.8803 290.545 97.0412 290.158 96.9233C289.773 96.8053 289.577 96.4533 289.721 96.1369C291.082 93.1383 294.433 92.5297 296.971 93.2335C298.457 93.6458 299.682 94.476 300.421 95.5713C301.253 96.8043 301.395 98.2597 300.832 99.7797C300.734 100.043 300.439 100.213 300.12 100.213Z" fill="#A5B9C4"/>
<path fill-rule="evenodd" clip-rule="evenodd" d="M170.8 104.239C170.446 104.239 170.132 104.031 170.068 103.735C169.641 101.781 167.602 100.876 165.836 100.681C163.821 100.458 161.982 101.044 161.366 102.104C161.188 102.409 160.744 102.538 160.373 102.393C160.001 102.248 159.844 101.883 160.021 101.578C160.488 100.774 161.355 100.151 162.528 99.778C163.574 99.4445 164.82 99.3351 166.035 99.4693C168.321 99.7221 170.966 100.919 171.534 103.52C171.607 103.852 171.337 104.17 170.932 104.229C170.888 104.236 170.844 104.239 170.8 104.239Z" fill="#A5B9C4"/>
<path fill-rule="evenodd" clip-rule="evenodd" d="M153.023 107.032C152.671 107.032 152.359 106.827 152.292 106.533C151.962 105.081 152.277 103.748 153.2 102.678C154.02 101.727 155.257 101.063 156.683 100.807C159.117 100.37 162.142 101.215 163.028 104.104C163.128 104.431 162.887 104.763 162.487 104.846C162.088 104.928 161.683 104.729 161.583 104.402C160.936 102.292 158.815 101.676 157.001 102.001C155.047 102.352 153.198 103.85 153.756 106.309C153.832 106.641 153.565 106.96 153.16 107.022C153.114 107.029 153.068 107.032 153.023 107.032Z" fill="#A5B9C4"/>
<path fill-rule="evenodd" clip-rule="evenodd" d="M87.1227 110.944C86.8023 110.944 86.507 110.773 86.4095 110.509C85.9476 109.251 86.1089 107.988 86.8757 106.859C87.5502 105.866 88.6547 105.047 89.9863 104.554C92.2613 103.712 95.3093 103.859 96.991 106.085C97.2076 106.372 97.0998 106.749 96.7501 106.926C96.4002 107.105 95.9414 107.016 95.7246 106.729C94.436 105.023 92.1579 105.091 90.5994 105.669C88.7289 106.361 87.0667 108.06 87.836 110.156C87.9549 110.48 87.7316 110.82 87.3373 110.918C87.266 110.936 87.1937 110.944 87.1227 110.944Z" fill="#A5B9C4"/>
<path fill-rule="evenodd" clip-rule="evenodd" d="M94.2987 105.557C94.2644 105.557 94.2297 105.555 94.1951 105.551C93.7873 105.504 93.5034 105.196 93.5599 104.861C94.0533 101.951 96.9356 100.527 99.4688 100.165C100.817 99.9719 102.211 100.05 103.394 100.383C104.713 100.756 105.706 101.414 106.263 102.285C106.455 102.584 106.315 102.954 105.95 103.111C105.586 103.268 105.136 103.153 104.945 102.853C104.175 101.65 102.028 101.039 99.7248 101.369C97.7088 101.658 95.4184 102.771 95.0355 105.03C94.9836 105.335 94.6642 105.557 94.2987 105.557Z" fill="#A5B9C4"/>
<path fill-rule="evenodd" clip-rule="evenodd" d="M209.189 101.431C208.835 101.431 208.521 101.223 208.457 100.927C208.043 99.0405 209.31 97.0485 211.61 95.9702C213.947 94.8745 216.617 95.0545 218.579 96.4397C218.891 96.6598 218.926 97.0458 218.657 97.302C218.389 97.558 217.919 97.5867 217.607 97.3663C216.115 96.3129 214.15 96.1877 212.35 97.0318C210.89 97.7159 209.574 99.119 209.923 100.711C209.996 101.043 209.726 101.361 209.321 101.421C209.277 101.427 209.232 101.431 209.189 101.431Z" fill="#A5B9C4"/>
<path fill-rule="evenodd" clip-rule="evenodd" d="M216.395 96.7074C216.354 96.7074 216.314 96.7045 216.272 96.6992C215.866 96.6441 215.592 96.3296 215.659 95.9965C216.114 93.7364 218.405 92.5331 220.398 92.1609C222.56 91.7576 224.631 92.2112 225.552 93.2904C225.788 93.5671 225.706 93.9481 225.369 94.1419C225.032 94.3356 224.568 94.2685 224.332 93.9922C223.763 93.3259 222.282 93.0633 220.729 93.3531C217.809 93.8985 217.235 95.6665 217.129 96.1955C217.069 96.495 216.753 96.7074 216.395 96.7074Z" fill="#A5B9C4"/>
<path fill-rule="evenodd" clip-rule="evenodd" d="M75.887 90.4271C75.8579 90.4271 75.8286 90.426 75.7988 90.4232C75.3903 90.3836 75.0981 90.0797 75.1465 89.7443C75.4491 87.6372 77.2653 86.0224 79.8862 85.5304C82.4683 85.0452 85.0464 85.8066 86.3022 87.4244C86.5233 87.7092 86.4212 88.0871 86.074 88.2685C85.7273 88.4498 85.2667 88.3662 85.0459 88.0815C84.2816 87.0971 82.4925 86.2949 80.2185 86.7219C78.1995 87.1011 76.8561 88.2846 76.6258 89.8876C76.581 90.1985 76.2594 90.4272 75.887 90.4274V90.4271Z" fill="#A5B9C4"/>
<path fill-rule="evenodd" clip-rule="evenodd" d="M68.1517 91.831C67.7836 91.831 67.4636 91.6072 67.4141 91.2995C67.204 89.9914 68.3574 88.5056 70.2845 87.6027C72.0574 86.7719 74.7334 86.3865 76.9274 87.7966C77.251 88.0046 77.3078 88.3887 77.0546 88.6545C76.8006 88.9206 76.3328 88.9673 76.009 88.7591C75.4955 88.4293 73.6193 87.448 71.023 88.6644C69.6379 89.3133 68.7613 90.3314 68.8909 91.14C68.9445 91.4744 68.6579 91.7816 68.2499 91.8256C68.2168 91.8289 68.184 91.8312 68.1517 91.8312V91.831Z" fill="#A5B9C4"/>
<path fill-rule="evenodd" clip-rule="evenodd" d="M165.64 69.7428C165.454 69.7428 165.268 69.6862 165.123 69.5721C162.073 67.1626 157.391 65.5495 152.278 65.1458C151.868 65.1135 151.568 64.8147 151.608 64.4788C151.647 64.1428 152.011 63.8959 152.421 63.9288C155.174 64.146 157.78 64.6791 160.163 65.5128C162.508 66.3327 164.524 67.4021 166.156 68.6912C166.453 68.9253 166.462 69.3123 166.176 69.5555C166.03 69.6801 165.835 69.7428 165.64 69.7428Z" fill="#A5B9C4"/>
<path fill-rule="evenodd" clip-rule="evenodd" d="M168.631 73.2104C168.342 73.2104 168.067 73.0714 167.946 72.8395C167.694 72.3555 167.386 71.8863 167.032 71.4456C166.805 71.1639 166.9 70.7846 167.243 70.5986C167.586 70.4125 168.049 70.4903 168.275 70.772C168.678 71.2738 169.028 71.8077 169.315 72.3585C169.477 72.6689 169.302 73.0282 168.924 73.161C168.828 73.1945 168.729 73.2104 168.631 73.2104Z" fill="#A5B9C4"/>
<path fill-rule="evenodd" clip-rule="evenodd" d="M86.1911 80.7178C86.0602 80.7178 85.9277 80.6896 85.8071 80.6301C82.1777 78.8356 77.175 78.1137 72.0823 78.6498C71.6738 78.6923 71.3011 78.4561 71.2486 78.121C71.1961 77.7861 71.4845 77.48 71.8926 77.4371C74.6348 77.1483 77.319 77.1946 79.8706 77.5743C82.3795 77.9476 84.6354 78.6233 86.576 79.5828C86.9285 79.757 87.042 80.1327 86.8298 80.4219C86.69 80.6124 86.4437 80.7178 86.1911 80.7178Z" fill="#A5B9C4"/>
<path fill-rule="evenodd" clip-rule="evenodd" d="M90.0447 83.5547C89.8151 83.5547 89.5883 83.4677 89.4424 83.3037C89.0651 82.8795 88.6374 82.4772 88.171 82.1081C87.8752 81.8737 87.8664 81.4868 88.152 81.2437C88.4381 81.0008 88.9093 80.9937 89.2052 81.2282C89.7331 81.6461 90.2178 82.1021 90.6455 82.583C90.8883 82.8554 90.8154 83.238 90.4835 83.437C90.3507 83.5164 90.1971 83.5547 90.0447 83.5547Z" fill="#A5B9C4"/>
<path fill-rule="evenodd" clip-rule="evenodd" d="M37.9083 110.017C37.8408 110.017 37.7721 110.01 37.7037 109.994C37.3081 109.901 37.079 109.563 37.1919 109.238C38.4441 105.637 41.7091 102.07 46.1499 99.4533C46.484 99.2564 46.9492 99.3191 47.1893 99.5933C47.429 99.8675 47.353 100.25 47.0187 100.446C42.846 102.905 39.7862 106.232 38.6247 109.574C38.5313 109.842 38.2326 110.017 37.9083 110.017Z" fill="#A5B9C4"/>
<path fill-rule="evenodd" clip-rule="evenodd" d="M37.4386 114.246C37.0652 114.246 36.7434 114.017 36.6997 113.705C36.6165 113.112 36.5923 112.51 36.6288 111.913C36.6497 111.576 37.0007 111.317 37.4101 111.334C37.8213 111.351 38.1375 111.638 38.1166 111.975C38.0841 112.504 38.1052 113.039 38.1796 113.565C38.2268 113.9 37.9341 114.204 37.5249 114.242C37.4961 114.245 37.4669 114.246 37.4386 114.246V114.246Z" fill="#A5B9C4"/>
<path fill-rule="evenodd" clip-rule="evenodd" d="M233.194 83.1156C232.998 83.1156 232.804 83.0528 232.658 82.9286C229.643 80.3656 224.87 78.6306 219.562 78.1689C219.153 78.1333 218.856 77.8324 218.9 77.4967C218.943 77.1607 219.312 76.9179 219.719 76.9531C225.369 77.4445 230.476 79.3132 233.729 82.0794C234.015 82.3225 234.007 82.7096 233.711 82.9439C233.566 83.0584 233.38 83.1156 233.194 83.1156Z" fill="#A5B9C4"/>
<path fill-rule="evenodd" clip-rule="evenodd" d="M235.882 86.4369C235.588 86.4369 235.308 86.2929 235.192 86.0551C234.932 85.5292 234.611 85.0231 234.238 84.551C234.014 84.2677 234.113 83.8892 234.458 83.7053C234.804 83.522 235.265 83.6027 235.488 83.886C235.913 84.4229 236.277 84.9983 236.572 85.5958C236.726 85.909 236.543 86.2654 236.161 86.3921C236.07 86.4225 235.975 86.4369 235.882 86.4369Z" fill="#A5B9C4"/>
<path fill-rule="evenodd" clip-rule="evenodd" d="M303.88 87.7078C303.684 87.7078 303.489 87.6456 303.343 87.5212C300.329 84.9581 295.556 83.2233 290.248 82.7615C289.839 82.7259 289.542 82.4247 289.586 82.089C289.629 81.7533 289.998 81.5107 290.405 81.5457C296.056 82.0373 301.162 83.9058 304.416 86.6722C304.701 86.9151 304.692 87.3019 304.397 87.5363C304.252 87.6511 304.066 87.7078 303.88 87.7078Z" fill="#A5B9C4"/>
<path fill-rule="evenodd" clip-rule="evenodd" d="M306.568 91.0297C306.274 91.0297 305.995 90.8853 305.877 90.6478C305.618 90.1218 305.297 89.6159 304.925 89.1436C304.701 88.8603 304.799 88.4818 305.145 88.2983C305.49 88.1148 305.951 88.1953 306.175 88.4786C306.599 89.0158 306.963 89.5911 307.258 90.1887C307.413 90.5016 307.229 90.8579 306.847 90.9847C306.756 91.0152 306.662 91.0297 306.568 91.0297Z" fill="#A5B9C4"/>
<path fill-rule="evenodd" clip-rule="evenodd" d="M231.68 111.51C231.532 111.51 231.382 111.474 231.252 111.399C230.915 111.204 230.834 110.823 231.071 110.547C231.742 109.763 231.322 109.08 230.759 108.733C230.066 108.307 229.002 108.249 228.189 109.083C227.932 109.347 227.463 109.39 227.142 109.179C226.82 108.968 226.769 108.583 227.025 108.32C228.391 106.919 230.387 106.976 231.653 107.756C232.279 108.141 232.704 108.681 232.85 109.277C233.015 109.948 232.821 110.63 232.29 111.25C232.145 111.419 231.914 111.51 231.68 111.51Z" fill="#A5B9C4"/>
<path fill-rule="evenodd" clip-rule="evenodd" d="M71.6146 113.356C71.5195 113.356 71.4228 113.341 71.3294 113.309C70.9494 113.179 70.769 112.822 70.9269 112.51C71.5706 111.237 71.2972 109.61 69.2352 108.846C67.6307 108.251 65.3655 108.514 64.1841 110.496C64.0029 110.799 63.557 110.925 63.1878 110.776C62.8181 110.628 62.665 110.262 62.8456 109.959C63.5654 108.752 64.6771 107.918 66.0619 107.546C67.2916 107.217 68.6363 107.283 69.848 107.732C71.9198 108.5 73.5716 110.469 72.3027 112.978C72.1838 113.214 71.9067 113.356 71.6146 113.356Z" fill="#A5B9C4"/>
<path fill-rule="evenodd" clip-rule="evenodd" d="M98.2597 92.8125C97.8804 92.8125 97.5562 92.5755 97.5194 92.2593C97.3415 90.7308 98.6115 89.7887 99.9577 89.648C100.625 89.5782 101.283 89.7033 101.81 90.0002C102.402 90.3348 102.782 90.8511 102.907 91.4936C102.972 91.827 102.695 92.1403 102.288 92.1935C101.882 92.2465 101.5 92.0194 101.436 91.6861C101.262 90.7904 100.331 90.8413 100.146 90.8608C99.2637 90.9531 98.9357 91.5713 99.0023 92.1432C99.041 92.479 98.7409 92.7776 98.3314 92.8098C98.3075 92.8115 98.2832 92.8126 98.2597 92.8126V92.8125Z" fill="#A5B9C4"/>
<path fill-rule="evenodd" clip-rule="evenodd" d="M140.954 98.4408C140.574 98.4408 140.25 98.2032 140.213 97.8863C140.039 96.3556 141.314 95.4142 142.662 95.2758C143.329 95.2068 143.986 95.3331 144.51 95.6305C145.101 95.9651 145.478 96.4814 145.601 97.1234C145.665 97.4568 145.387 97.7696 144.981 97.8221C144.575 97.8741 144.193 97.6469 144.13 97.3131C143.997 96.6218 143.38 96.434 142.847 96.4886C142.209 96.5544 141.606 96.9767 141.697 97.7726C141.735 98.1089 141.434 98.4068 141.024 98.4382C141.001 98.4399 140.978 98.441 140.954 98.441V98.4408Z" fill="#A5B9C4"/>
<path fill-rule="evenodd" clip-rule="evenodd" d="M148.491 77.5967C148.243 77.5967 148 77.4947 147.859 77.3088C147.183 76.4194 146.971 75.4688 147.245 74.56C147.488 73.7514 148.099 73.0452 148.965 72.5711C150.451 71.7571 152.738 71.6724 154.247 73.4093C154.486 73.6842 154.408 74.066 154.073 74.2622C153.738 74.4579 153.273 74.3941 153.034 74.1192C152.032 72.9653 150.661 73.1118 149.792 73.5879C148.334 74.3861 148.423 75.741 149.123 76.662C149.341 76.9485 149.234 77.3258 148.885 77.5041C148.762 77.5669 148.626 77.5967 148.491 77.5967Z" fill="#A5B9C4"/>
<path fill-rule="evenodd" clip-rule="evenodd" d="M171.173 92.2706C170.815 92.2706 170.499 92.0583 170.439 91.7591C170.256 90.8544 169.21 90.3072 168.254 90.1663C167.078 89.9929 166.042 90.3692 165.483 91.1723C165.279 91.4652 164.824 91.5673 164.467 91.3995C164.11 91.2319 163.985 90.8586 164.19 90.5656C165.063 89.3122 166.72 88.6982 168.518 88.963C170.285 89.2234 171.648 90.267 171.908 91.5594C171.975 91.8924 171.701 92.207 171.295 92.2621C171.254 92.2679 171.213 92.2706 171.173 92.2706Z" fill="#A5B9C4"/>
<path fill-rule="evenodd" clip-rule="evenodd" d="M159.902 90.7256C159.837 90.7256 159.77 90.7184 159.703 90.7034C159.307 90.613 159.074 90.2762 159.184 89.9507C159.491 89.0433 160.678 88.3614 162.209 88.2144C163.963 88.0457 165.529 88.6525 166.298 89.7977C166.496 90.0935 166.365 90.4651 166.005 90.628C165.644 90.7907 165.191 90.6831 164.993 90.3875C164.814 90.121 164.098 89.2636 162.382 89.4286C161.513 89.5123 160.755 89.8772 160.62 90.2773C160.528 90.548 160.229 90.7256 159.902 90.7256Z" fill="#A5B9C4"/>
<path fill-rule="evenodd" clip-rule="evenodd" d="M299.481 113.019C299.123 113.019 298.807 112.807 298.747 112.508C298.565 111.603 297.519 111.056 296.563 110.915C295.388 110.742 294.351 111.118 293.792 111.921C293.588 112.214 293.133 112.316 292.775 112.149C292.418 111.981 292.294 111.607 292.498 111.315C293.371 110.061 295.03 109.447 296.826 109.712C298.594 109.972 299.957 111.016 300.217 112.308C300.284 112.642 300.009 112.956 299.604 113.011C299.562 113.017 299.522 113.019 299.481 113.019Z" fill="#A5B9C4"/>
<path fill-rule="evenodd" clip-rule="evenodd" d="M288.211 111.475C288.145 111.475 288.078 111.467 288.012 111.452C287.615 111.362 287.383 111.025 287.493 110.7C287.799 109.792 288.986 109.111 290.517 108.964C292.271 108.795 293.838 109.402 294.606 110.547C294.804 110.842 294.673 111.214 294.313 111.377C293.952 111.54 293.5 111.432 293.302 111.137C293.123 110.87 292.406 110.012 290.69 110.178C289.821 110.261 289.063 110.626 288.928 111.026C288.837 111.297 288.537 111.475 288.211 111.475Z" fill="#A5B9C4"/>
<path fill-rule="evenodd" clip-rule="evenodd" d="M313.265 107.113C313.084 107.113 312.899 107.086 312.72 107.028C311.954 106.78 311.578 106.07 311.88 105.442C314.266 100.466 314.351 95.504 312.125 91.0913C310.134 87.1452 306.328 83.7382 301.408 81.4974C296.363 79.1996 290.605 78.3067 285.195 78.983C279.249 79.7262 274.129 82.3068 270.388 86.4456C269.898 86.9879 268.965 87.1014 268.304 86.6991C267.644 86.297 267.505 85.531 267.995 84.9887C272.215 80.3207 278.007 77.4081 284.746 76.5654C290.804 75.8081 297.236 76.8004 302.854 79.3594C308.36 81.8671 312.63 85.7013 314.877 90.1556C317.405 95.1653 317.327 100.761 314.652 106.338C314.421 106.819 313.859 107.113 313.265 107.113Z" fill="#A5B9C4"/>
<path fill-rule="evenodd" clip-rule="evenodd" d="M323.502 118.091C322.809 118.091 322.187 117.691 322.044 117.111C321.082 113.225 318.672 110.357 314.879 108.586C311.692 107.098 308.223 106.687 305.874 106.603C305.053 106.574 304.415 106.003 304.451 105.329C304.487 104.654 305.181 104.131 306.004 104.16C308.68 104.255 312.648 104.732 316.352 106.461C318.446 107.438 320.214 108.711 321.608 110.243C323.227 112.021 324.356 114.169 324.963 116.625C325.127 117.287 324.607 117.932 323.8 118.066C323.7 118.083 323.6 118.091 323.502 118.091Z" fill="#A5B9C4"/>
<path fill-rule="evenodd" clip-rule="evenodd" d="M325.51 161.689H221.569C220.747 161.689 28.8926 161.141 28.8926 160.466C28.8926 159.791 220.747 159.243 221.569 159.243H324.02V119.406H86.9508C86.1282 119.406 34.3602 120.081 34.3602 119.406C34.3602 118.731 86.1282 116.961 86.9508 116.961H325.51C326.333 116.961 327 117.508 327 118.184V160.466C327 161.141 326.333 161.689 325.51 161.689Z" fill="#A5B9C4"/>
<path fill-rule="evenodd" clip-rule="evenodd" d="M322.642 155.164H31.234C28.8968 155.164 27 154.615 27 153.938C27 153.26 28.8968 152.711 31.234 152.711H322.642C324.98 152.711 326.877 153.26 326.877 153.938C326.877 154.615 324.98 155.164 322.642 155.164Z" fill="#A5B9C4"/>
<path fill-rule="evenodd" clip-rule="evenodd" d="M325.547 125.373H34.6379C34.1363 125.373 33.7292 125.059 33.7292 124.672C33.7292 124.285 34.1363 123.971 34.6379 123.971H325.547C326.049 123.971 326.456 124.285 326.456 124.672C326.456 125.059 326.049 125.373 325.547 125.373Z" fill="#A5B9C4"/>
<path fill-rule="evenodd" clip-rule="evenodd" d="M320.541 143.732C320.129 143.732 319.796 143.458 319.796 143.12V127.976C319.796 127.639 320.129 127.365 320.541 127.365C320.952 127.365 321.285 127.639 321.285 127.976V143.12C321.285 143.458 320.952 143.732 320.541 143.732Z" fill="#A5B9C4"/>
<path fill-rule="evenodd" clip-rule="evenodd" d="M320.541 148.283C320.129 148.283 319.796 148.009 319.796 147.672V145.914C319.796 145.577 320.129 145.303 320.541 145.303C320.952 145.303 321.285 145.577 321.285 145.914V147.672C321.285 148.009 320.952 148.283 320.541 148.283Z" fill="#A5B9C4"/>
<path fill-rule="evenodd" clip-rule="evenodd" d="M297.974 149.969C296.389 149.969 295.099 148.913 295.099 147.615C295.099 146.313 296.389 145.255 297.974 145.255C299.559 145.255 300.848 146.313 300.848 147.615C300.848 148.913 299.559 149.969 297.974 149.969ZM297.974 146.478C297.21 146.478 296.589 146.988 296.589 147.615C296.589 148.239 297.21 148.746 297.974 148.746C298.738 148.746 299.359 148.239 299.359 147.615C299.359 146.988 298.738 146.478 297.974 146.478Z" fill="#A5B9C4"/>
<path fill-rule="evenodd" clip-rule="evenodd" d="M297.974 147.18C297.563 147.18 297.229 146.906 297.229 146.568V144.558C297.229 144.221 297.563 143.947 297.974 143.947C298.386 143.947 298.719 144.221 298.719 144.558V146.568C298.719 146.906 298.386 147.18 297.974 147.18Z" fill="#A5B9C4"/>
<path fill-rule="evenodd" clip-rule="evenodd" d="M234.424 149.969C232.842 149.969 231.555 148.913 231.555 147.615C231.555 146.313 232.842 145.255 234.424 145.255C236.009 145.255 237.298 146.313 237.298 147.615C237.298 148.913 236.009 149.969 234.424 149.969ZM234.424 146.478C233.663 146.478 233.045 146.988 233.045 147.615C233.045 148.239 233.663 148.746 234.424 148.746C235.187 148.746 235.809 148.239 235.809 147.615C235.809 146.988 235.187 146.478 234.424 146.478Z" fill="#A5B9C4"/>
<path fill-rule="evenodd" clip-rule="evenodd" d="M234.424 147.18C234.013 147.18 233.679 146.906 233.679 146.568V144.558C233.679 144.221 234.013 143.947 234.424 143.947C234.835 143.947 235.169 144.221 235.169 144.558V146.568C235.169 146.906 234.835 147.18 234.424 147.18Z" fill="#A5B9C4"/>
<path fill-rule="evenodd" clip-rule="evenodd" d="M107.329 149.969C105.744 149.969 104.455 148.913 104.455 147.615C104.455 146.313 105.744 145.255 107.329 145.255C108.914 145.255 110.204 146.313 110.204 147.615C110.204 148.913 108.914 149.969 107.329 149.969ZM107.329 146.478C106.566 146.478 105.944 146.988 105.944 147.615C105.944 148.239 106.566 148.746 107.329 148.746C108.093 148.746 108.714 148.239 108.714 147.615C108.714 146.988 108.093 146.478 107.329 146.478Z" fill="#A5B9C4"/>
<path fill-rule="evenodd" clip-rule="evenodd" d="M107.329 147.18C106.918 147.18 106.584 146.906 106.584 146.568V144.558C106.584 144.221 106.918 143.947 107.329 143.947C107.741 143.947 108.074 144.221 108.074 144.558V146.568C108.074 146.906 107.741 147.18 107.329 147.18Z" fill="#A5B9C4"/>
<path fill-rule="evenodd" clip-rule="evenodd" d="M101.592 207.297H19.9418C19.4214 207.297 19 206.886 19 206.38C19 205.873 19.4214 205.463 19.9418 205.463H101.592C102.112 205.463 102.533 205.873 102.533 206.38C102.533 206.886 102.112 207.297 101.592 207.297Z" fill="#A5B9C4"/>
<path fill-rule="evenodd" clip-rule="evenodd" d="M210.27 173.364H205.921C205.401 173.364 204.979 172.953 204.979 172.446C204.979 171.94 205.401 171.53 205.921 171.53H210.27C210.79 171.53 211.212 171.94 211.212 172.446C211.212 172.953 210.79 173.364 210.27 173.364Z" fill="#A5B9C4"/>
<path fill-rule="evenodd" clip-rule="evenodd" d="M143.344 194.794H138.995C138.475 194.794 138.053 194.383 138.053 193.877C138.053 193.37 138.475 192.959 138.995 192.959H143.344C143.864 192.959 144.286 193.37 144.286 193.877C144.286 194.383 143.864 194.794 143.344 194.794Z" fill="#A5B9C4"/>
<path fill-rule="evenodd" clip-rule="evenodd" d="M119.223 224.263H114.874C114.354 224.263 113.932 223.852 113.932 223.346C113.932 222.84 114.354 222.429 114.874 222.429H119.223C119.743 222.429 120.165 222.84 120.165 223.346C120.165 223.852 119.743 224.263 119.223 224.263Z" fill="#A5B9C4"/>
<path fill-rule="evenodd" clip-rule="evenodd" d="M29.8976 179.812H25.5489C25.0288 179.812 24.6069 179.402 24.6069 178.895C24.6069 178.389 25.0288 177.978 25.5489 177.978H29.8976C30.4182 177.978 30.84 178.389 30.84 178.895C30.84 179.402 30.4182 179.812 29.8976 179.812Z" fill="#A5B9C4"/>
<path fill-rule="evenodd" clip-rule="evenodd" d="M218.467 200.952H201.123C200.603 200.952 200.181 200.542 200.181 200.035C200.181 199.529 200.603 199.118 201.123 199.118H218.467C218.987 199.118 219.409 199.529 219.409 200.035C219.409 200.542 218.987 200.952 218.467 200.952Z" fill="#A5B9C4"/>
<path fill-rule="evenodd" clip-rule="evenodd" d="M65.4025 234.542H48.0587C47.5386 234.542 47.1167 234.131 47.1167 233.624C47.1167 233.118 47.5386 232.707 48.0587 232.707H65.4025C65.9228 232.707 66.3447 233.118 66.3447 233.624C66.3447 234.131 65.9228 234.542 65.4025 234.542Z" fill="#A5B9C4"/>
<path fill-rule="evenodd" clip-rule="evenodd" d="M111.717 186.648H68.0889C67.5688 186.648 67.147 186.237 67.147 185.73C67.147 185.224 67.5688 184.813 68.0889 184.813H111.717C112.237 184.813 112.659 185.224 112.659 185.73C112.659 186.237 112.237 186.648 111.717 186.648Z" fill="#A5B9C4"/>
<path fill-rule="evenodd" clip-rule="evenodd" d="M202.941 239.012H132.946C132.597 239.012 132.276 238.824 132.114 238.524C131.951 238.223 131.971 237.859 132.168 237.578L138.43 228.637C138.606 228.386 138.897 228.236 139.208 228.236H212.676C213.061 228.236 213.409 228.466 213.551 228.815C213.694 229.164 213.603 229.563 213.322 229.82L203.587 238.762C203.412 238.922 203.181 239.012 202.941 239.012ZM134.729 237.178H202.566L210.305 230.07H139.706L134.729 237.178Z" fill="#A5B9C4"/>
<path fill-rule="evenodd" clip-rule="evenodd" d="M185.199 230.07C184.679 230.07 184.257 229.659 184.257 229.153V170.917C184.257 170.411 184.679 170 185.199 170C185.72 170 186.141 170.411 186.141 170.917V229.153C186.141 229.659 185.72 230.07 185.199 230.07Z" fill="#A5B9C4"/>
<path fill-rule="evenodd" clip-rule="evenodd" d="M156.788 230.07C156.268 230.07 155.846 229.66 155.846 229.153V204.85C155.846 204.343 156.268 203.933 156.788 203.933C157.308 203.933 157.73 204.343 157.73 204.85V229.153C157.73 229.66 157.308 230.07 156.788 230.07Z" fill="#A5B9C4"/>
<path fill-rule="evenodd" clip-rule="evenodd" d="M162.439 224.263C161.952 224.263 161.541 223.899 161.501 223.421C160.702 213.882 162.489 203.431 166.532 193.99C168.589 189.188 171.142 184.86 174.122 181.127C177.284 177.166 180.844 173.983 184.705 171.666C184.996 171.492 185.361 171.484 185.659 171.646C185.957 171.808 186.142 172.114 186.142 172.447V223.346C186.142 223.852 185.72 224.263 185.2 224.263C185.02 224.263 184.851 224.214 184.709 224.129C183.056 223.81 171.046 223.686 162.504 224.261C162.482 224.263 162.46 224.263 162.439 224.263V224.263ZM184.258 223.348C184.258 223.349 184.258 223.349 184.258 223.349C184.258 223.349 184.258 223.349 184.258 223.348ZM184.258 174.141C181.137 176.242 178.234 178.965 175.609 182.253C172.732 185.857 170.263 190.044 168.271 194.696C164.468 203.575 162.718 213.364 163.311 222.372C167.207 222.139 172.233 222.012 176.986 222.026C179.253 222.034 181.238 222.072 182.728 222.139C183.371 222.168 183.868 222.198 184.258 222.232V174.141Z" fill="#A5B9C4"/>
<path fill-rule="evenodd" clip-rule="evenodd" d="M170.181 200.505C170.077 200.505 169.973 200.488 169.869 200.453C169.379 200.286 169.12 199.763 169.291 199.285C171.834 192.202 175.514 185.838 179.933 180.881C180.274 180.498 180.869 180.457 181.262 180.789C181.654 181.121 181.697 181.7 181.356 182.083C177.092 186.866 173.535 193.024 171.069 199.89C170.934 200.268 170.57 200.505 170.181 200.505Z" fill="#A5B9C4"/>
<path fill-rule="evenodd" clip-rule="evenodd" d="M168.489 205.986C168.411 205.986 168.332 205.977 168.254 205.957C167.75 205.831 167.446 205.331 167.576 204.841C167.815 203.932 168.083 202.993 168.395 201.97C168.542 201.485 169.067 201.208 169.565 201.352C170.064 201.496 170.348 202.007 170.2 202.492C169.896 203.494 169.634 204.411 169.4 205.296C169.291 205.711 168.908 205.986 168.489 205.986Z" fill="#A5B9C4"/>
<path fill-rule="evenodd" clip-rule="evenodd" d="M162.438 218.836C161.947 218.836 161.534 218.466 161.499 217.982C161.464 217.477 161.855 217.039 162.374 217.004C166.379 216.734 171.842 216.582 176.986 216.599C179.253 216.607 181.238 216.645 182.728 216.712C185.278 216.826 185.545 216.966 185.828 217.223C186.027 217.404 186.141 217.657 186.141 217.919C186.141 218.425 185.72 218.836 185.199 218.836C185.019 218.836 184.851 218.787 184.708 218.701C183.056 218.383 171.046 218.259 162.504 218.834C162.482 218.835 162.46 218.835 162.438 218.835V218.836ZM184.257 217.924C184.257 217.924 184.257 217.924 184.257 217.924C184.257 217.924 184.257 217.924 184.257 217.924ZM184.257 217.923V217.923V217.923ZM184.257 217.921C184.257 217.921 184.257 217.922 184.257 217.922C184.257 217.921 184.257 217.921 184.257 217.921ZM184.257 217.919C184.257 217.919 184.257 217.919 184.257 217.919C184.257 217.919 184.257 217.919 184.257 217.919Z" fill="#A5B9C4"/>
<path fill-rule="evenodd" clip-rule="evenodd" d="M146.744 226.402C146.561 226.402 146.38 226.35 146.224 226.25C145.972 226.088 145.815 225.818 145.803 225.524C145.712 223.465 146.125 219.723 147.587 215.952C149.418 211.231 152.444 207.643 156.337 205.574C156.629 205.419 156.983 205.426 157.269 205.591C157.555 205.756 157.73 206.056 157.73 206.38V225.485C157.73 225.991 157.308 226.402 156.788 226.402C156.361 226.402 156.001 226.126 155.885 225.747C155.554 225.606 154.443 225.369 152.061 225.517C150.13 225.636 148.08 225.976 147.075 226.343C146.967 226.383 146.855 226.402 146.744 226.402ZM155.846 208.024C149.542 212.297 147.871 220.376 147.692 224.272C149.939 223.772 153.677 223.379 155.846 223.835V208.024Z" fill="#A5B9C4"/>
<path fill-rule="evenodd" clip-rule="evenodd" d="M156.788 223.751C156.362 223.751 156.001 223.475 155.885 223.097C155.574 222.961 154.584 222.746 152.44 222.846C150.652 222.929 148.711 223.207 147.493 223.553C146.994 223.695 146.471 223.416 146.325 222.93C146.179 222.443 146.466 221.934 146.965 221.792C149.115 221.181 155.331 220.383 157.103 221.677C157.507 221.972 157.73 222.383 157.73 222.834C157.73 223.34 157.308 223.751 156.788 223.751Z" fill="#A5B9C4"/>
<path fill-rule="evenodd" clip-rule="evenodd" d="M203.883 224.263C203.848 224.263 203.813 224.261 203.778 224.258C194.961 223.302 187.874 223.835 185.357 224.25C185.084 224.296 184.804 224.221 184.592 224.047C184.38 223.873 184.257 223.616 184.257 223.346V173.056C184.257 172.627 184.563 172.256 184.992 172.161C185.421 172.067 185.861 172.275 186.05 172.662C187.562 175.758 188.344 180.332 189.25 185.629C190.215 191.274 191.31 197.671 193.547 204.148C196.129 211.62 199.734 217.695 204.569 222.719C204.839 223 204.901 223.414 204.724 223.757C204.564 224.07 204.236 224.263 203.883 224.263ZM186.141 179.178V222.293C188.384 222.027 193.904 221.564 201.577 222.203C197.358 217.345 194.136 211.605 191.762 204.733C189.476 198.117 188.369 191.643 187.392 185.93C186.975 183.491 186.584 181.209 186.141 179.178Z" fill="#A5B9C4"/>
<path fill-rule="evenodd" clip-rule="evenodd" d="M185.199 218.836C184.748 218.836 184.349 218.519 184.271 218.072C184.184 217.573 184.529 217.1 185.042 217.015C185.261 216.978 190.52 216.128 198.999 216.598C199.518 216.627 199.915 217.06 199.885 217.566C199.856 218.072 199.411 218.457 198.892 218.43C190.645 217.972 185.409 218.814 185.357 218.823C185.304 218.832 185.251 218.836 185.199 218.836Z" fill="#A5B9C4"/>
<path fill-rule="evenodd" clip-rule="evenodd" d="M209.799 232.99H137.163C136.643 232.99 136.221 232.579 136.221 232.073C136.221 231.566 136.643 231.156 137.163 231.156H209.799C210.319 231.156 210.741 231.566 210.741 232.073C210.741 232.579 210.319 232.99 209.799 232.99Z" fill="#A5B9C4"/>
<path fill-rule="evenodd" clip-rule="evenodd" d="M132.834 194.306H125.644C125.124 194.306 124.702 193.896 124.702 193.389C124.702 192.883 125.124 192.472 125.644 192.472H132.834C133.353 192.472 133.776 192.883 133.776 193.389C133.776 193.896 133.353 194.306 132.834 194.306Z" fill="#A5B9C4"/>
<path fill-rule="evenodd" clip-rule="evenodd" d="M222.467 194.306H215.278C214.758 194.306 214.336 193.896 214.336 193.389C214.336 192.883 214.758 192.472 215.278 192.472H222.467C222.987 192.472 223.409 192.883 223.409 193.389C223.409 193.896 222.987 194.306 222.467 194.306Z" fill="#A5B9C4"/>
<path fill-rule="evenodd" clip-rule="evenodd" d="M218.104 207.117H202.504C201.984 207.117 201.562 206.706 201.562 206.2C201.562 205.694 201.984 205.283 202.504 205.283H218.104C218.624 205.283 219.046 205.694 219.046 206.2C219.046 206.706 218.624 207.117 218.104 207.117Z" fill="#A5B9C4"/>
<path fill-rule="evenodd" clip-rule="evenodd" d="M314.058 190.473H298.459C297.938 190.473 297.517 190.063 297.517 189.556C297.517 189.049 297.938 188.639 298.459 188.639H314.058C314.578 188.639 315 189.049 315 189.556C315 190.063 314.578 190.473 314.058 190.473Z" fill="#A5B9C4"/>
<path fill-rule="evenodd" clip-rule="evenodd" d="M78.0935 168H73.9068C73.4063 168 73 167.552 73 167C73 166.448 73.4063 166 73.9068 166H78.0935C78.5941 166 79 166.448 79 167C79 167.552 78.5941 168 78.0935 168Z" fill="#A5B9C4"/>
<path fill-rule="evenodd" clip-rule="evenodd" d="M86.069 196H68.9308C68.4169 196 68 195.553 68 195C68 194.448 68.4169 194 68.9308 194H86.069C86.5829 194 87 194.448 87 195C87 195.553 86.5829 196 86.069 196Z" fill="#A5B9C4"/>
<path fill-rule="evenodd" clip-rule="evenodd" d="M70.403 234H0.93478C0.58803 234 0.269739 233.808 0.108612 233.501C-0.0533223 233.194 -0.0331503 232.823 0.162227 232.536L6.3774 223.409C6.55136 223.153 6.84076 223 7.14967 223H80.0652C80.4479 223 80.7924 223.234 80.934 223.591C81.0753 223.947 80.9853 224.354 80.7067 224.617L71.0443 233.744C70.8707 233.908 70.6414 234 70.403 234ZM2.70352 232.128H70.0314L77.7116 224.872H7.64368L2.70352 232.128Z" fill="#A5B9C4"/>
<path fill-rule="evenodd" clip-rule="evenodd" d="M72.0386 219C72.0033 219 71.9676 218.998 71.9319 218.995C62.9294 218.041 55.6924 218.573 53.1231 218.987C52.8438 219.032 52.5578 218.958 52.3416 218.784C52.1253 218.61 52 218.354 52 218.085V167.915C52 167.487 52.3116 167.117 52.7499 167.023C53.1884 166.928 53.6371 167.136 53.8302 167.522C55.3744 170.61 56.1732 175.174 57.0982 180.458C58.0836 186.089 59.2011 192.472 61.4853 198.933C64.1213 206.386 67.8026 212.447 72.7399 217.46C73.0154 217.739 73.0785 218.152 72.8982 218.495C72.7339 218.806 72.399 219 72.0386 219ZM53.9239 174.022V217.034C56.2139 216.769 61.8499 216.307 69.6845 216.945C65.3767 212.098 62.0869 206.372 59.6624 199.516C57.3286 192.916 56.198 186.457 55.2009 180.759C54.7749 178.325 54.3762 176.049 53.9239 174.022Z" fill="#A5B9C4"/>
<path fill-rule="evenodd" clip-rule="evenodd" d="M78.0518 228H4.94787C4.42459 228 4 227.552 4 227C4 226.448 4.42459 226 4.94787 226H78.0518C78.5754 226 79 226.448 79 227C79 227.552 78.5754 228 78.0518 228Z" fill="#A5B9C4"/>
<path fill-rule="evenodd" clip-rule="evenodd" d="M258.093 234H253.907C253.406 234 253 233.776 253 233.5C253 233.224 253.406 233 253.907 233H258.093C258.594 233 259 233.224 259 233.5C259 233.776 258.594 234 258.093 234Z" fill="#A5B9C4"/>
<path fill-rule="evenodd" clip-rule="evenodd" d="M303.058 223H257.707C257.366 223 257.052 222.808 256.885 222.497L253.119 215.461C252.957 215.157 252.961 214.785 253.13 214.485C253.298 214.185 253.607 214 253.941 214H298.19C298.492 214 298.776 214.152 298.953 214.407L303.822 221.443C304.029 221.742 304.058 222.137 303.897 222.465C303.736 222.794 303.412 223 303.058 223ZM258.26 221.036H301.218L297.708 215.964H255.545L258.26 221.036Z" fill="#A5B9C4"/>
<path fill-rule="evenodd" clip-rule="evenodd" d="M279 216C278.448 216 278 215.589 278 215.083V177.918C278 177.411 278.448 177 279 177C279.553 177 280 177.411 280 177.918V215.083C280 215.589 279.553 216 279 216Z" fill="#A5B9C4"/>
<path fill-rule="evenodd" clip-rule="evenodd" d="M290.094 211C290.033 211 289.972 210.994 289.911 210.981C284.292 209.817 279.16 210.965 279.108 210.977C278.84 211.039 278.557 210.974 278.342 210.8C278.126 210.627 278 210.363 278 210.085V179.914C278 179.442 278.357 179.047 278.824 179.004C279.29 178.96 279.713 179.283 279.798 179.747C282.219 192.872 287.2 206.445 290.676 209.385C290.994 209.654 291.09 210.107 290.91 210.483C290.756 210.803 290.436 211 290.094 211V211ZM279.814 188.237V208.988C281.353 208.745 284.334 208.419 287.79 208.799C286.537 206.997 284.963 204.002 283.137 199.03C281.909 195.686 280.779 192.007 279.814 188.237Z" fill="#A5B9C4"/>
<path fill-rule="evenodd" clip-rule="evenodd" d="M260.96 211C260.714 211 260.474 210.91 260.293 210.744C260.055 210.525 259.952 210.204 260.021 209.895C260.543 207.563 262.379 201.438 265.594 194.953C269.488 187.099 273.847 181.775 278.552 179.127C278.849 178.96 279.217 178.958 279.516 179.12C279.815 179.283 280 179.586 280 179.914V210.085C280 210.413 279.816 210.715 279.518 210.878C279.22 211.041 278.853 211.04 278.556 210.875C275.275 209.05 266.207 209.774 261.194 210.972C261.116 210.991 261.038 211 260.96 211V211ZM278.08 181.62C269.413 187.746 263.877 203.026 262.255 208.875C266.461 208.079 273.799 207.338 278.08 208.69V181.62Z" fill="#A5B9C4"/>
<path fill-rule="evenodd" clip-rule="evenodd" d="M268.993 200C268.861 200 268.728 199.975 268.6 199.921C268.096 199.712 267.864 199.148 268.081 198.662C270.26 193.796 272.659 189.664 275.213 186.383C275.542 185.96 276.165 185.874 276.603 186.192C277.042 186.509 277.13 187.11 276.801 187.533C274.341 190.693 272.021 194.693 269.905 199.422C269.743 199.784 269.377 200 268.993 200Z" fill="#A5B9C4"/>
<path fill-rule="evenodd" clip-rule="evenodd" d="M267.005 206C266.898 206 266.787 205.981 266.679 205.942C266.154 205.752 265.875 205.148 266.055 204.593C266.37 203.622 266.707 202.642 267.057 201.681C267.256 201.133 267.837 200.86 268.356 201.071C268.874 201.282 269.132 201.896 268.933 202.444C268.591 203.38 268.263 204.335 267.956 205.282C267.813 205.723 267.423 206 267.005 206Z" fill="#A5B9C4"/>
<path fill-rule="evenodd" clip-rule="evenodd" d="M301.052 219H255.948C255.424 219 255 218.552 255 218C255 217.448 255.424 217 255.948 217H301.052C301.575 217 302 217.448 302 218C302 218.552 301.575 219 301.052 219Z" fill="#A5B9C4"/>
</svg>
