<svg width="419" height="272" viewBox="0 0 419 272" fill="none" xmlns="http://www.w3.org/2000/svg">
<path fill-rule="evenodd" clip-rule="evenodd" d="M416.882 270.812C418.052 270.812 419 269.796 419 268.541V205.38C419 204.126 418.052 203.109 416.882 203.109C415.712 203.109 414.763 204.126 414.763 205.38V236.961V268.541C414.763 269.796 415.712 270.812 416.882 270.812Z" fill="#A5B9C4" fill-opacity="0.63"/>
<path fill-rule="evenodd" clip-rule="evenodd" d="M-0.000152588 270.124C-0.000152588 271.16 5.825 272 13.0158 272L375.043 272C382.234 272 388.061 271.16 388.061 270.124C388.061 269.089 382.234 268.248 375.043 268.248L194.03 268.248L13.0158 268.248C5.825 268.248 -0.000152588 269.089 -0.000152588 270.124Z" fill="#A5B9C4" fill-opacity="0.63"/>
<path fill-rule="evenodd" clip-rule="evenodd" d="M324.048 145.141H363.354C364.538 145.141 365.498 144.213 365.498 143.069V129.232C365.498 128.087 364.538 127.16 363.354 127.16H324.048C322.864 127.16 321.904 128.087 321.904 129.232V143.069C321.904 144.213 322.864 145.141 324.048 145.141ZM361.21 140.998H326.192V131.303H361.21V140.998Z" fill="#A5B9C4" fill-opacity="0.63"/>
<path fill-rule="evenodd" clip-rule="evenodd" d="M323.177 190.171H364.225C365.409 190.171 366.369 189.244 366.369 188.1V150.555C366.369 149.411 365.409 148.483 364.225 148.483H323.177C321.994 148.483 321.034 149.411 321.034 150.555V188.1C321.034 189.244 321.994 190.171 323.177 190.171ZM362.081 186.028H325.321V152.626H362.081V186.028Z" fill="#A5B9C4" fill-opacity="0.63"/>
<path fill-rule="evenodd" clip-rule="evenodd" d="M312.56 197.657H374.843C376.027 197.657 376.987 196.729 376.987 195.585V188.1C376.987 186.955 376.027 186.028 374.843 186.028H312.56C311.376 186.028 310.417 186.955 310.417 188.1V195.585C310.417 196.729 311.376 197.657 312.56 197.657V197.657ZM372.7 193.513H314.704V190.171H372.7V193.513Z" fill="#A5B9C4" fill-opacity="0.63"/>
<path fill-rule="evenodd" clip-rule="evenodd" d="M312.56 152.626H374.843C376.027 152.626 376.987 151.699 376.987 150.555V143.069C376.987 141.926 376.027 140.998 374.843 140.998H312.56C311.376 140.998 310.417 141.926 310.417 143.069V150.555C310.417 151.699 311.376 152.626 312.56 152.626V152.626ZM372.7 148.483H314.704V145.141H372.7V148.483Z" fill="#A5B9C4" fill-opacity="0.63"/>
<path fill-rule="evenodd" clip-rule="evenodd" d="M388.09 271.819C389.274 271.819 390.233 270.892 390.233 269.748V195.585C390.233 194.441 389.274 193.513 388.09 193.513H299.312C298.129 193.513 297.169 194.441 297.169 195.585V242.209C297.169 243.353 298.129 244.281 299.312 244.281C300.497 244.281 301.456 243.353 301.456 242.209V197.657H385.947V269.748C385.947 270.892 386.906 271.819 388.09 271.819V271.819Z" fill="#A5B9C4" fill-opacity="0.63"/>
<path fill-rule="evenodd" clip-rule="evenodd" d="M324.048 131.303C325.232 131.303 326.192 130.376 326.192 129.231C326.192 119.903 334.046 112.314 343.701 112.314C353.356 112.314 361.21 119.903 361.21 129.231C361.21 130.376 362.17 131.303 363.354 131.303C364.538 131.303 365.498 130.376 365.498 129.231C365.498 117.618 355.72 108.171 343.701 108.171C331.682 108.171 321.904 117.618 321.904 129.231C321.904 130.376 322.864 131.303 324.048 131.303V131.303Z" fill="#A5B9C4" fill-opacity="0.63"/>
<path fill-rule="evenodd" clip-rule="evenodd" d="M343.701 126.184C347.141 126.184 349.939 123.478 349.939 120.152C349.939 116.825 347.141 114.119 343.701 114.119C340.261 114.119 337.463 116.825 337.463 120.152C337.463 123.478 340.261 126.184 343.701 126.184ZM343.701 116.19C345.959 116.19 347.796 117.968 347.796 120.152C347.796 122.336 345.959 124.113 343.701 124.113C341.443 124.113 339.606 122.336 339.606 120.152C339.606 117.968 341.443 116.19 343.701 116.19Z" fill="#A5B9C4" fill-opacity="0.63"/>
<path fill-rule="evenodd" clip-rule="evenodd" d="M369.635 250.913C370.227 250.913 370.707 250.449 370.707 249.877V242.476C370.707 228.086 358.593 216.379 343.701 216.379C336.816 216.379 330.258 218.885 325.236 223.436C320.239 227.965 317.227 234.085 316.758 240.67C316.717 241.24 317.163 241.735 317.753 241.774C318.344 241.815 318.855 241.383 318.897 240.812C319.329 234.752 322.101 229.117 326.703 224.947C331.326 220.758 337.363 218.45 343.701 218.45C357.41 218.45 368.563 229.229 368.563 242.476V249.877C368.563 250.449 369.043 250.913 369.635 250.913V250.913Z" fill="#A5B9C4" fill-opacity="0.63"/>
<path fill-rule="evenodd" clip-rule="evenodd" d="M316.855 230.536C317.246 230.536 317.623 230.328 317.812 229.967C319.436 226.86 321.627 224.106 324.327 221.781C327.041 219.445 330.139 217.653 333.535 216.457C334.09 216.261 334.377 215.667 334.174 215.129C333.971 214.592 333.356 214.314 332.8 214.511C329.148 215.796 325.818 217.723 322.901 220.235C319.999 222.733 317.644 225.694 315.898 229.033C315.631 229.544 315.843 230.167 316.372 230.425C316.527 230.5 316.692 230.536 316.855 230.536V230.536Z" fill="#A5B9C4" fill-opacity="0.63"/>
<path fill-rule="evenodd" clip-rule="evenodd" d="M314.411 237.124C314.901 237.124 315.343 236.797 315.455 236.315C315.766 234.984 316.184 233.662 316.698 232.384C316.913 231.851 316.639 231.251 316.088 231.043C315.536 230.836 314.915 231.1 314.7 231.633C314.148 233.006 313.698 234.428 313.364 235.859C313.234 236.417 313.597 236.972 314.174 237.098C314.254 237.115 314.333 237.124 314.411 237.124V237.124Z" fill="#A5B9C4" fill-opacity="0.63"/>
<path fill-rule="evenodd" clip-rule="evenodd" d="M364.226 270.783C364.817 270.783 365.297 270.319 365.297 269.748V242.707C365.297 231.199 355.61 221.837 343.701 221.837C331.794 221.837 322.106 231.199 322.106 242.707V245.608C322.106 246.181 322.586 246.644 323.178 246.644C323.77 246.644 324.249 246.181 324.249 245.608V242.707C324.249 232.341 332.976 223.908 343.701 223.908C354.428 223.908 363.154 232.341 363.154 242.707V269.748C363.154 270.319 363.634 270.783 364.226 270.783Z" fill="#A5B9C4" fill-opacity="0.63"/>
<path fill-rule="evenodd" clip-rule="evenodd" d="M357.502 271.819C358.685 271.819 359.646 270.892 359.646 269.748V244.066C359.646 235.57 352.493 228.658 343.701 228.658C339.727 228.658 335.919 230.081 332.979 232.665C330.059 235.232 328.235 238.729 327.844 242.509C327.727 243.648 328.587 244.663 329.765 244.776C330.942 244.89 331.993 244.059 332.111 242.921C332.396 240.161 333.728 237.607 335.864 235.73C338.012 233.842 340.796 232.802 343.701 232.802C350.129 232.802 355.358 237.855 355.358 244.066V269.748C355.358 270.892 356.318 271.819 357.502 271.819V271.819Z" fill="#A5B9C4" fill-opacity="0.63"/>
<path fill-rule="evenodd" clip-rule="evenodd" d="M340.16 112.314H347.244C348.428 112.314 349.388 111.387 349.388 110.243V103.396C349.388 102.253 348.428 101.325 347.244 101.325H340.16C338.976 101.325 338.016 102.253 338.016 103.396V110.243C338.016 111.387 338.976 112.314 340.16 112.314ZM345.1 108.171H342.304V105.468H345.1V108.171Z" fill="#A5B9C4" fill-opacity="0.63"/>
<path fill-rule="evenodd" clip-rule="evenodd" d="M340.161 105.468C341.311 105.468 342.263 104.586 342.302 103.466L343.701 63.4294L345.101 103.466C345.141 104.61 346.133 105.502 347.316 105.467C348.499 105.428 349.426 104.47 349.386 103.326L345.844 2.00144C345.805 0.885162 344.857 0 343.701 0C342.546 0 341.598 0.885162 341.559 2.00144L338.017 103.326C337.977 104.47 338.904 105.428 340.087 105.467C340.112 105.468 340.136 105.469 340.161 105.469V105.468Z" fill="#A5B9C4" fill-opacity="0.63"/>
<path fill-rule="evenodd" clip-rule="evenodd" d="M299.312 204.762H388.09C388.682 204.762 389.162 204.298 389.162 203.726C389.162 203.154 388.682 202.69 388.09 202.69H299.312C298.721 202.69 298.241 203.154 298.241 203.726C298.241 204.298 298.721 204.762 299.312 204.762V204.762Z" fill="#A5B9C4" fill-opacity="0.63"/>
<path fill-rule="evenodd" clip-rule="evenodd" d="M324.048 135.628H363.355C363.947 135.628 364.426 135.165 364.426 134.592C364.426 134.021 363.947 133.557 363.355 133.557H324.048C323.457 133.557 322.977 134.021 322.977 134.592C322.977 135.165 323.457 135.628 324.048 135.628Z" fill="#A5B9C4" fill-opacity="0.63"/>
<path fill-rule="evenodd" clip-rule="evenodd" d="M320.792 130.267H366.613C367.204 130.267 367.685 129.804 367.685 129.232C367.685 128.659 367.204 128.195 366.613 128.195H320.792C320.2 128.195 319.72 128.659 319.72 129.232C319.72 129.804 320.2 130.267 320.792 130.267Z" fill="#A5B9C4" fill-opacity="0.63"/>
<path fill-rule="evenodd" clip-rule="evenodd" d="M336.936 104.432H350.468C351.059 104.432 351.54 103.968 351.54 103.396C351.54 102.824 351.059 102.361 350.468 102.361H336.936C336.343 102.361 335.864 102.824 335.864 103.396C335.864 103.968 336.343 104.432 336.936 104.432Z" fill="#A5B9C4" fill-opacity="0.63"/>
<path fill-rule="evenodd" clip-rule="evenodd" d="M299.312 210.815H388.09C388.682 210.815 389.162 210.351 389.162 209.779C389.162 209.207 388.682 208.743 388.09 208.743H299.312C298.721 208.743 298.241 209.207 298.241 209.779C298.241 210.351 298.721 210.815 299.312 210.815V210.815Z" fill="#A5B9C4" fill-opacity="0.63"/>
<path fill-rule="evenodd" clip-rule="evenodd" d="M364.276 250.913H388.09C388.682 250.913 389.162 250.449 389.162 249.877C389.162 249.305 388.682 248.841 388.09 248.841H364.276C363.684 248.841 363.204 249.305 363.204 249.877C363.204 250.449 363.684 250.913 364.276 250.913Z" fill="#A5B9C4" fill-opacity="0.63"/>
<path fill-rule="evenodd" clip-rule="evenodd" d="M355.123 184.514C355.715 184.514 356.195 184.051 356.195 183.478V154.848C356.195 154.275 355.715 153.812 355.123 153.812C354.531 153.812 354.051 154.275 354.051 154.848V183.478C354.051 184.051 354.531 184.514 355.123 184.514Z" fill="#A5B9C4" fill-opacity="0.63"/>
<path fill-rule="evenodd" clip-rule="evenodd" d="M359.779 184.514C360.371 184.514 360.851 184.051 360.851 183.478V154.848C360.851 154.275 360.371 153.812 359.779 153.812C359.187 153.812 358.707 154.275 358.707 154.848V183.478C358.707 184.051 359.187 184.514 359.779 184.514Z" fill="#A5B9C4" fill-opacity="0.63"/>
<path fill-rule="evenodd" clip-rule="evenodd" d="M355.123 155.884H359.779C360.215 155.884 360.608 155.628 360.772 155.237L362.087 152.101C362.221 151.781 362.182 151.419 361.983 151.133C361.784 150.847 361.45 150.676 361.094 150.676H353.808C353.452 150.676 353.119 150.847 352.919 151.133C352.72 151.419 352.681 151.781 352.815 152.101L354.13 155.237C354.294 155.628 354.687 155.884 355.123 155.884V155.884ZM359.057 153.812H355.846L355.399 152.748H359.503L359.057 153.812Z" fill="#A5B9C4" fill-opacity="0.63"/>
<path fill-rule="evenodd" clip-rule="evenodd" d="M353.808 187.655H361.094C361.45 187.655 361.783 187.483 361.983 187.198C362.182 186.912 362.221 186.549 362.087 186.23L360.772 183.09C360.609 182.699 360.215 182.443 359.779 182.443H355.123C354.687 182.443 354.294 182.699 354.129 183.09L352.814 186.23C352.681 186.549 352.72 186.912 352.919 187.198C353.119 187.483 353.452 187.655 353.808 187.655V187.655ZM359.504 185.583H355.398L355.846 184.514H359.056L359.504 185.583Z" fill="#A5B9C4" fill-opacity="0.63"/>
<path fill-rule="evenodd" clip-rule="evenodd" d="M368.873 184.514C369.465 184.514 369.945 184.051 369.945 183.478V154.848C369.945 154.275 369.465 153.812 368.873 153.812C368.281 153.812 367.801 154.275 367.801 154.848V183.478C367.801 184.051 368.281 184.514 368.873 184.514Z" fill="#A5B9C4" fill-opacity="0.63"/>
<path fill-rule="evenodd" clip-rule="evenodd" d="M373.528 184.514C374.121 184.514 374.601 184.051 374.601 183.478V154.848C374.601 154.275 374.121 153.812 373.528 153.812C372.937 153.812 372.456 154.275 372.456 154.848V183.478C372.456 184.051 372.937 184.514 373.528 184.514Z" fill="#A5B9C4" fill-opacity="0.63"/>
<path fill-rule="evenodd" clip-rule="evenodd" d="M368.873 155.884H373.528C373.965 155.884 374.358 155.628 374.522 155.237L375.837 152.101C375.971 151.781 375.931 151.419 375.732 151.133C375.533 150.847 375.2 150.676 374.843 150.676H367.566C367.21 150.676 366.877 150.847 366.678 151.132C366.479 151.418 366.439 151.779 366.572 152.098L367.878 155.235C368.042 155.627 368.435 155.884 368.873 155.884V155.884ZM372.806 153.812H369.597L369.154 152.748H373.252L372.806 153.812Z" fill="#A5B9C4" fill-opacity="0.63"/>
<path fill-rule="evenodd" clip-rule="evenodd" d="M367.566 187.655H374.843C375.2 187.655 375.532 187.483 375.732 187.198C375.931 186.912 375.971 186.549 375.837 186.23L374.522 183.09C374.359 182.699 373.965 182.443 373.528 182.443H368.873C368.435 182.443 368.041 182.7 367.878 183.092L366.572 186.233C366.439 186.551 366.479 186.913 366.678 187.199C366.877 187.484 367.21 187.655 367.566 187.655V187.655ZM373.253 185.583H369.153L369.597 184.514H372.806L373.253 185.583Z" fill="#A5B9C4" fill-opacity="0.63"/>
<path fill-rule="evenodd" clip-rule="evenodd" d="M341.374 184.514C341.966 184.514 342.446 184.051 342.446 183.478V154.848C342.446 154.275 341.966 153.812 341.374 153.812C340.782 153.812 340.302 154.275 340.302 154.848V183.478C340.302 184.051 340.782 184.514 341.374 184.514Z" fill="#A5B9C4" fill-opacity="0.63"/>
<path fill-rule="evenodd" clip-rule="evenodd" d="M346.029 184.514C346.622 184.514 347.102 184.051 347.102 183.478V154.848C347.102 154.275 346.622 153.812 346.029 153.812C345.438 153.812 344.958 154.275 344.958 154.848V183.478C344.958 184.051 345.438 184.514 346.029 184.514Z" fill="#A5B9C4" fill-opacity="0.63"/>
<path fill-rule="evenodd" clip-rule="evenodd" d="M341.374 155.884H346.029C346.466 155.884 346.859 155.628 347.023 155.237L348.338 152.101C348.471 151.781 348.432 151.419 348.233 151.133C348.034 150.847 347.701 150.676 347.344 150.676H340.059C339.703 150.676 339.369 150.847 339.17 151.133C338.971 151.419 338.932 151.781 339.065 152.101L340.381 155.237C340.544 155.628 340.937 155.884 341.374 155.884V155.884ZM345.307 153.812H342.096L341.65 152.748H345.753L345.307 153.812Z" fill="#A5B9C4" fill-opacity="0.63"/>
<path fill-rule="evenodd" clip-rule="evenodd" d="M340.059 187.655H347.344C347.701 187.655 348.034 187.483 348.233 187.198C348.432 186.912 348.472 186.549 348.338 186.23L347.023 183.09C346.859 182.699 346.466 182.443 346.029 182.443H341.374C340.937 182.443 340.544 182.699 340.38 183.09L339.065 186.23C338.932 186.549 338.971 186.912 339.171 187.198C339.369 187.483 339.703 187.655 340.059 187.655ZM345.754 185.583H341.649L342.097 184.514H345.307L345.754 185.583Z" fill="#A5B9C4" fill-opacity="0.63"/>
<path fill-rule="evenodd" clip-rule="evenodd" d="M327.624 184.514C328.216 184.514 328.696 184.051 328.696 183.478V154.848C328.696 154.275 328.216 153.812 327.624 153.812C327.032 153.812 326.552 154.275 326.552 154.848V183.478C326.552 184.051 327.032 184.514 327.624 184.514Z" fill="#A5B9C4" fill-opacity="0.63"/>
<path fill-rule="evenodd" clip-rule="evenodd" d="M332.28 184.514C332.872 184.514 333.352 184.051 333.352 183.478V154.848C333.352 154.275 332.872 153.812 332.28 153.812C331.687 153.812 331.208 154.275 331.208 154.848V183.478C331.208 184.051 331.687 184.514 332.28 184.514Z" fill="#A5B9C4" fill-opacity="0.63"/>
<path fill-rule="evenodd" clip-rule="evenodd" d="M327.624 155.884H332.28C332.717 155.884 333.11 155.628 333.274 155.237L334.588 152.101C334.722 151.781 334.683 151.419 334.484 151.133C334.284 150.847 333.951 150.676 333.594 150.676H326.31C325.953 150.676 325.62 150.847 325.42 151.133C325.222 151.419 325.182 151.781 325.317 152.101L326.63 155.237C326.794 155.628 327.187 155.884 327.624 155.884V155.884ZM331.558 153.812H328.346L327.9 152.748H332.004L331.558 153.812Z" fill="#A5B9C4" fill-opacity="0.63"/>
<path fill-rule="evenodd" clip-rule="evenodd" d="M326.31 187.655H333.594C333.951 187.655 334.284 187.483 334.484 187.198C334.683 186.912 334.722 186.549 334.588 186.23L333.274 183.09C333.11 182.699 332.717 182.443 332.28 182.443H327.624C327.187 182.443 326.794 182.699 326.63 183.09L325.316 186.23C325.182 186.549 325.222 186.912 325.421 187.198C325.62 187.483 325.953 187.655 326.31 187.655V187.655ZM332.005 185.583H327.899L328.347 184.514H331.557L332.005 185.583Z" fill="#A5B9C4" fill-opacity="0.63"/>
<path fill-rule="evenodd" clip-rule="evenodd" d="M313.875 184.514C314.467 184.514 314.947 184.051 314.947 183.478V154.848C314.947 154.275 314.467 153.812 313.875 153.812C313.283 153.812 312.803 154.275 312.803 154.848V183.478C312.803 184.051 313.283 184.514 313.875 184.514Z" fill="#A5B9C4" fill-opacity="0.63"/>
<path fill-rule="evenodd" clip-rule="evenodd" d="M318.531 184.514C319.122 184.514 319.603 184.051 319.603 183.478V154.848C319.603 154.275 319.122 153.812 318.531 153.812C317.939 153.812 317.459 154.275 317.459 154.848V183.478C317.459 184.051 317.939 184.514 318.531 184.514Z" fill="#A5B9C4" fill-opacity="0.63"/>
<path fill-rule="evenodd" clip-rule="evenodd" d="M313.875 155.884H318.531C318.967 155.884 319.36 155.628 319.524 155.237L320.839 152.101C320.972 151.781 320.933 151.419 320.734 151.133C320.535 150.847 320.202 150.676 319.845 150.676H312.561C312.204 150.676 311.871 150.847 311.672 151.133C311.472 151.419 311.433 151.781 311.567 152.101L312.881 155.237C313.045 155.628 313.439 155.884 313.875 155.884V155.884ZM317.808 153.812H314.597L314.151 152.748H318.255L317.808 153.812Z" fill="#A5B9C4" fill-opacity="0.63"/>
<path fill-rule="evenodd" clip-rule="evenodd" d="M312.561 187.655H319.845C320.202 187.655 320.535 187.483 320.734 187.198C320.933 186.912 320.972 186.549 320.839 186.23L319.524 183.09C319.36 182.699 318.967 182.443 318.531 182.443H313.875C313.438 182.443 313.045 182.699 312.881 183.09L311.567 186.23C311.433 186.549 311.472 186.912 311.672 187.198C311.871 187.483 312.204 187.655 312.561 187.655ZM318.255 185.583H314.15L314.597 184.514H317.808L318.255 185.583Z" fill="#A5B9C4" fill-opacity="0.63"/>
<path fill-rule="evenodd" clip-rule="evenodd" d="M342.78 223.908H344.622C345.053 223.908 345.442 223.659 345.61 223.276L347.804 218.258C347.944 217.938 347.908 217.572 347.709 217.283C347.511 216.994 347.176 216.819 346.817 216.819H340.586C340.227 216.819 339.892 216.994 339.693 217.283C339.494 217.572 339.459 217.938 339.599 218.258L341.793 223.276C341.961 223.659 342.35 223.908 342.78 223.908V223.908ZM343.912 221.837H343.491L342.203 218.891H345.2L343.912 221.837Z" fill="#A5B9C4" fill-opacity="0.63"/>
<path fill-rule="evenodd" clip-rule="evenodd" d="M306.949 219.603H318.999C319.591 219.603 320.071 219.14 320.071 218.567V214.416C320.071 213.844 319.591 213.38 318.999 213.38H306.949C306.357 213.38 305.877 213.844 305.877 214.416V218.567C305.877 219.14 306.357 219.603 306.949 219.603ZM317.927 217.532H308.021V215.452H317.927V217.532Z" fill="#A5B9C4" fill-opacity="0.63"/>
<path fill-rule="evenodd" clip-rule="evenodd" d="M257.042 253.539C258.226 253.539 259.186 252.611 259.186 251.467V206.663H297.169V242.209C297.169 243.353 298.129 244.281 299.312 244.281C300.497 244.281 301.456 243.353 301.456 242.209V204.592C301.456 203.447 300.497 202.52 299.312 202.52H257.042C255.858 202.52 254.899 203.447 254.899 204.592V251.467C254.899 252.611 255.858 253.539 257.042 253.539Z" fill="#A5B9C4" fill-opacity="0.63"/>
<path fill-rule="evenodd" clip-rule="evenodd" d="M257.042 210.815H299.363C299.955 210.815 300.435 210.351 300.435 209.779C300.435 209.207 299.955 208.743 299.363 208.743H257.042C256.45 208.743 255.97 209.207 255.97 209.779C255.97 210.351 256.45 210.815 257.042 210.815Z" fill="#A5B9C4" fill-opacity="0.63"/>
<path fill-rule="evenodd" clip-rule="evenodd" d="M257.042 216.006H299.363C299.955 216.006 300.435 215.542 300.435 214.97C300.435 214.398 299.955 213.934 299.363 213.934H257.042C256.45 213.934 255.97 214.398 255.97 214.97C255.97 215.542 256.45 216.006 257.042 216.006Z" fill="#A5B9C4" fill-opacity="0.63"/>
<path fill-rule="evenodd" clip-rule="evenodd" d="M257.042 250.913H276.704C277.295 250.913 277.775 250.449 277.775 249.877C277.775 249.305 277.295 248.841 276.704 248.841H257.042C256.45 248.841 255.97 249.305 255.97 249.877C255.97 250.449 256.45 250.913 257.042 250.913V250.913Z" fill="#A5B9C4" fill-opacity="0.63"/>
<path fill-rule="evenodd" clip-rule="evenodd" d="M285.981 230.961H291.676C292.268 230.961 292.748 230.498 292.748 229.925V220.182C292.748 219.61 292.268 219.146 291.676 219.146H285.981C285.389 219.146 284.91 219.61 284.91 220.182V229.925C284.91 230.498 285.389 230.961 285.981 230.961ZM290.604 228.89H287.054V221.218H290.604V228.89Z" fill="#A5B9C4" fill-opacity="0.63"/>
<path fill-rule="evenodd" clip-rule="evenodd" d="M264.679 230.961H270.365C270.957 230.961 271.437 230.498 271.437 229.925V220.182C271.437 219.61 270.957 219.146 270.365 219.146H264.679C264.087 219.146 263.607 219.61 263.607 220.182V229.925C263.607 230.498 264.087 230.961 264.679 230.961ZM269.293 228.89H265.751V221.218H269.293V228.89Z" fill="#A5B9C4" fill-opacity="0.63"/>
<path fill-rule="evenodd" clip-rule="evenodd" d="M275.331 230.961H281.025C281.617 230.961 282.097 230.498 282.097 229.925V220.182C282.097 219.61 281.617 219.146 281.025 219.146H275.331C274.739 219.146 274.259 219.61 274.259 220.182V229.925C274.259 230.498 274.739 230.961 275.331 230.961V230.961ZM279.953 228.89H276.403V221.218H279.953V228.89Z" fill="#A5B9C4" fill-opacity="0.63"/>
<path fill-rule="evenodd" clip-rule="evenodd" d="M285.981 241.234C286.573 241.234 287.054 240.77 287.054 240.199V236.905H290.604V239.13C290.604 239.703 291.084 240.166 291.676 240.166C292.268 240.166 292.748 239.703 292.748 239.13V235.869C292.748 235.297 292.268 234.833 291.676 234.833H285.981C285.389 234.833 284.91 235.297 284.91 235.869V240.199C284.91 240.77 285.389 241.234 285.981 241.234Z" fill="#A5B9C4" fill-opacity="0.63"/>
<path fill-rule="evenodd" clip-rule="evenodd" d="M264.679 246.644H270.365C270.957 246.644 271.437 246.181 271.437 245.609V235.869C271.437 235.297 270.957 234.833 270.365 234.833H264.679C264.087 234.833 263.607 235.297 263.607 235.869V245.609C263.607 246.181 264.087 246.644 264.679 246.644ZM269.293 244.573H265.751V236.905H269.293V244.573Z" fill="#A5B9C4" fill-opacity="0.63"/>
<path fill-rule="evenodd" clip-rule="evenodd" d="M275.331 246.644H281.025C281.617 246.644 282.097 246.181 282.097 245.609V235.869C282.097 235.297 281.617 234.833 281.025 234.833H275.331C274.739 234.833 274.259 235.297 274.259 235.869V245.609C274.259 246.181 274.739 246.644 275.331 246.644V246.644ZM279.953 244.573H276.403V236.905H279.953V244.573Z" fill="#A5B9C4" fill-opacity="0.63"/>
<path fill-rule="evenodd" clip-rule="evenodd" d="M388.09 271.819H416.619C417.803 271.819 418.763 270.892 418.763 269.748C418.763 268.603 417.803 267.676 416.619 267.676H390.234V206.663H416.619C417.803 206.663 418.763 205.736 418.763 204.592C418.763 203.447 417.803 202.52 416.619 202.52H388.09C386.906 202.52 385.947 203.447 385.947 204.592V269.748C385.947 270.892 386.906 271.819 388.09 271.819Z" fill="#A5B9C4" fill-opacity="0.63"/>
<path fill-rule="evenodd" clip-rule="evenodd" d="M388.09 210.815H416.619C417.211 210.815 417.691 210.351 417.691 209.779C417.691 209.207 417.211 208.743 416.619 208.743H388.09C387.498 208.743 387.019 209.207 387.019 209.779C387.019 210.351 387.498 210.815 388.09 210.815Z" fill="#A5B9C4" fill-opacity="0.63"/>
<path fill-rule="evenodd" clip-rule="evenodd" d="M388.09 216.006H416.619C417.211 216.006 417.691 215.542 417.691 214.97C417.691 214.398 417.211 213.934 416.619 213.934H388.09C387.498 213.934 387.019 214.398 387.019 214.97C387.019 215.542 387.498 216.006 388.09 216.006Z" fill="#A5B9C4" fill-opacity="0.63"/>
<path fill-rule="evenodd" clip-rule="evenodd" d="M388.09 250.913H416.042C416.633 250.913 417.113 250.449 417.113 249.877C417.113 249.305 416.633 248.841 416.042 248.841H388.09C387.498 248.841 387.019 249.305 387.019 249.877C387.019 250.449 387.498 250.913 388.09 250.913Z" fill="#A5B9C4" fill-opacity="0.63"/>
<path fill-rule="evenodd" clip-rule="evenodd" d="M395.727 230.961H401.421C402.013 230.961 402.493 230.498 402.493 229.925V220.182C402.493 219.61 402.013 219.146 401.421 219.146H395.727C395.135 219.146 394.655 219.61 394.655 220.182V229.925C394.655 230.498 395.135 230.961 395.727 230.961ZM400.349 228.89H396.799V221.218H400.349V228.89Z" fill="#A5B9C4" fill-opacity="0.63"/>
<path fill-rule="evenodd" clip-rule="evenodd" d="M406.387 230.961H412.072C412.664 230.961 413.144 230.498 413.144 229.925V220.182C413.144 219.61 412.664 219.146 412.072 219.146H406.387C405.795 219.146 405.315 219.61 405.315 220.182V229.925C405.315 230.498 405.795 230.961 406.387 230.961ZM411 228.89H407.459V221.218H411V228.89Z" fill="#A5B9C4" fill-opacity="0.63"/>
<path fill-rule="evenodd" clip-rule="evenodd" d="M395.727 246.644H401.421C402.013 246.644 402.493 246.181 402.493 245.609V235.869C402.493 235.297 402.013 234.833 401.421 234.833H395.727C395.135 234.833 394.655 235.297 394.655 235.869V245.609C394.655 246.181 395.135 246.644 395.727 246.644ZM400.349 244.573H396.799V236.905H400.349V244.573Z" fill="#A5B9C4" fill-opacity="0.63"/>
<path fill-rule="evenodd" clip-rule="evenodd" d="M406.387 246.644H412.072C412.664 246.644 413.144 246.181 413.144 245.609V235.869C413.144 235.297 412.664 234.833 412.072 234.833H406.387C405.795 234.833 405.315 235.297 405.315 235.869V245.609C405.315 246.181 405.795 246.644 406.387 246.644ZM411 244.573H407.459V236.905H411V244.573Z" fill="#A5B9C4" fill-opacity="0.63"/>
<path fill-rule="evenodd" clip-rule="evenodd" d="M368.404 219.603H380.454C381.045 219.603 381.525 219.14 381.525 218.567V214.416C381.525 213.844 381.045 213.38 380.454 213.38H368.404C367.812 213.38 367.332 213.844 367.332 214.416V218.567C367.332 219.14 367.812 219.603 368.404 219.603ZM379.381 217.532H369.476V215.452H379.381V217.532Z" fill="#A5B9C4" fill-opacity="0.63"/>
<path fill-rule="evenodd" clip-rule="evenodd" d="M331.525 121.775C331.883 121.775 332.233 121.601 332.436 121.285C333.534 119.579 335.132 118.066 337.058 116.908C337.561 116.606 337.714 115.967 337.402 115.481C337.089 114.995 336.428 114.847 335.925 115.149C333.722 116.474 331.886 118.217 330.616 120.192C330.304 120.678 330.457 121.316 330.96 121.618C331.136 121.724 331.332 121.775 331.525 121.775V121.775Z" fill="#A5B9C4" fill-opacity="0.63"/>
<path fill-rule="evenodd" clip-rule="evenodd" d="M329.886 125.61C330.378 125.61 330.821 125.281 330.932 124.797C331.037 124.336 331.188 123.852 331.393 123.314C331.598 122.778 331.314 122.182 330.759 121.984C330.204 121.786 329.587 122.06 329.382 122.597C329.143 123.223 328.965 123.797 328.838 124.351C328.711 124.91 329.076 125.462 329.654 125.586C329.732 125.602 329.809 125.61 329.886 125.61V125.61Z" fill="#A5B9C4" fill-opacity="0.63"/>
<path fill-rule="evenodd" clip-rule="evenodd" d="M341.464 119.97C341.866 119.97 342.251 119.751 342.435 119.377C342.571 119.098 342.779 118.86 343.04 118.69C343.529 118.368 343.656 117.724 343.323 117.251C342.99 116.777 342.324 116.655 341.834 116.977C341.259 117.354 340.796 117.878 340.496 118.491C340.243 119.008 340.472 119.625 341.007 119.87C341.155 119.938 341.311 119.97 341.464 119.97Z" fill="#A5B9C4" fill-opacity="0.63"/>
<path fill-rule="evenodd" clip-rule="evenodd" d="M416.126 92.4638C416.623 92.4638 417.069 92.1285 417.174 91.6406C417.599 89.6859 417.222 87.7927 416.086 86.1655C415.088 84.7367 413.561 83.6175 411.789 83.0149C408.746 81.9803 404.84 82.5291 402.97 86.0876C402.701 86.5974 402.911 87.2209 403.44 87.4802C403.967 87.7389 404.612 87.5357 404.881 87.0253C406.251 84.4182 409.075 84.2878 411.077 84.969C413.479 85.7859 415.755 88.0888 415.076 91.2146C414.955 91.7751 415.326 92.3241 415.906 92.4416C415.979 92.4565 416.053 92.4638 416.126 92.4638V92.4638Z" fill="#A5B9C4" fill-opacity="0.63"/>
<path fill-rule="evenodd" clip-rule="evenodd" d="M406.344 85.2051C406.423 85.2051 406.504 85.1965 406.584 85.1788C407.161 85.0517 407.522 84.4961 407.39 83.9384C406.363 79.5929 402.478 77.7489 399.183 77.4721C397.433 77.3249 395.659 77.5912 394.188 78.2214C392.539 78.9283 391.348 80.0346 390.745 81.4208C390.516 81.9483 390.772 82.5555 391.318 82.7772C391.864 82.9988 392.492 82.7509 392.722 82.2235C393.516 80.3974 396.097 79.2928 398.997 79.5358C401.54 79.7493 404.53 81.1392 405.3 84.3997C405.414 84.8795 405.856 85.2051 406.344 85.2051Z" fill="#A5B9C4" fill-opacity="0.63"/>
<path fill-rule="evenodd" clip-rule="evenodd" d="M381.139 91.0801C381.221 91.0801 381.303 91.0715 381.387 91.0522C381.962 90.9207 382.319 90.3627 382.183 89.8058C381.479 86.9295 382.517 83.3658 386.458 82.3393C389.026 81.6713 392.11 82.5682 393.211 86.08C393.382 86.6272 393.981 86.9373 394.547 86.7708C395.114 86.605 395.434 86.0267 395.262 85.479C393.754 80.6662 389.352 79.4406 385.901 80.339C383.882 80.865 382.167 82.0672 381.072 83.7241C379.841 85.5894 379.503 87.8574 380.097 90.2826C380.213 90.7591 380.653 91.0801 381.139 91.0801V91.0801Z" fill="#A5B9C4" fill-opacity="0.63"/>
<path fill-rule="evenodd" clip-rule="evenodd" d="M227.624 262.198C228.275 262.198 228.919 261.912 229.34 261.37C232.133 257.775 235.468 255.658 238.982 255.246C241.634 254.937 244.295 255.659 246.281 257.23C247.198 257.954 248.548 257.824 249.298 256.939C250.048 256.053 249.913 254.747 248.997 254.023C246.11 251.741 242.272 250.688 238.467 251.133C235.188 251.517 230.348 253.173 225.912 258.882C225.2 259.797 225.392 261.096 226.339 261.783C226.724 262.063 227.176 262.198 227.624 262.198V262.198Z" fill="#A5B9C4" fill-opacity="0.63"/>
<path fill-rule="evenodd" clip-rule="evenodd" d="M244.702 262.586C245.808 262.586 246.746 261.764 246.836 260.68C247.051 258.105 250.876 255.351 254.176 254.49C257.051 253.739 262.555 253.425 267.116 259.756C267.792 260.695 269.128 260.926 270.099 260.272C271.071 259.619 271.31 258.327 270.634 257.389C268.27 254.106 265.391 251.873 262.078 250.751C259.223 249.785 256.103 249.695 253.057 250.49C247.42 251.962 242.909 256.2 242.563 260.348C242.468 261.489 243.348 262.487 244.528 262.579C244.586 262.584 244.644 262.586 244.702 262.586V262.586Z" fill="#A5B9C4" fill-opacity="0.63"/>
<path fill-rule="evenodd" clip-rule="evenodd" d="M290.354 259.628C290.645 259.628 290.94 259.571 291.223 259.45C292.305 258.985 292.793 257.761 292.312 256.715C290.221 252.166 285.044 248.966 279.123 248.563C273.301 248.167 268.101 250.595 265.214 255.059C264.587 256.029 264.892 257.307 265.896 257.914C266.899 258.52 268.222 258.225 268.85 257.255C270.912 254.067 274.546 252.404 278.822 252.696C283.114 252.988 286.961 255.279 288.394 258.398C288.749 259.17 289.533 259.628 290.354 259.628V259.628Z" fill="#A5B9C4" fill-opacity="0.63"/>
<path fill-rule="evenodd" clip-rule="evenodd" d="M277.91 252.426C278.846 252.426 279.705 251.831 279.972 250.918C280.697 248.44 281.995 246.408 283.83 244.879C285.418 243.555 287.406 242.626 289.579 242.193C293.722 241.367 297.291 242.506 298.545 243.998C299.292 244.885 300.642 245.02 301.561 244.299C302.479 243.577 302.618 242.272 301.872 241.384C300.602 239.875 298.622 238.773 296.147 238.198C293.805 237.654 291.234 237.633 288.713 238.135C282.331 239.408 277.641 243.656 275.847 249.791C275.524 250.892 276.187 252.037 277.326 252.348C277.521 252.401 277.718 252.426 277.91 252.426V252.426Z" fill="#A5B9C4" fill-opacity="0.63"/>
<path fill-rule="evenodd" clip-rule="evenodd" d="M322.249 248.655C322.64 248.655 323.035 248.552 323.39 248.336C324.392 247.727 324.692 246.448 324.062 245.48C322.112 242.486 319.582 240.276 316.542 238.912C313.874 237.715 310.877 237.229 307.876 237.505C302.274 238.02 297.404 241.108 295.758 245.187C295.327 246.253 295.873 247.454 296.976 247.87C298.079 248.286 299.322 247.759 299.753 246.693C300.808 244.076 304.316 241.994 308.282 241.629C313.202 241.177 317.631 243.384 320.433 247.687C320.841 248.313 321.538 248.655 322.249 248.655Z" fill="#A5B9C4" fill-opacity="0.63"/>
<path fill-rule="evenodd" clip-rule="evenodd" d="M345.043 261.635C345.99 261.635 346.858 261.023 347.112 260.096C348.198 256.152 347.781 252.347 345.908 249.092C344.248 246.21 341.482 243.884 338.119 242.543C334.698 241.178 330.93 240.924 327.511 241.826C323.675 242.838 320.561 245.194 318.507 248.64C317.916 249.632 318.268 250.898 319.294 251.469C320.32 252.041 321.63 251.7 322.222 250.709C323.7 248.23 325.919 246.54 328.64 245.823C331.149 245.161 333.934 245.356 336.484 246.373C338.954 247.358 340.97 249.04 342.161 251.107C343.485 253.405 343.764 256.145 342.97 259.031C342.665 260.136 343.346 261.271 344.49 261.565C344.674 261.613 344.86 261.635 345.043 261.635V261.635Z" fill="#A5B9C4" fill-opacity="0.63"/>
<path fill-rule="evenodd" clip-rule="evenodd" d="M351.948 271.799C351.985 271.799 352.022 271.798 352.059 271.796C353.241 271.738 354.151 270.765 354.091 269.622C353.874 265.498 352.525 262.347 350.08 260.258C347 257.626 343.065 257.475 340.994 257.618C339.813 257.7 338.924 258.692 339.01 259.834C339.094 260.975 340.121 261.832 341.302 261.751C342.701 261.653 345.335 261.733 347.241 263.362C348.789 264.685 349.653 266.862 349.809 269.832C349.867 270.939 350.814 271.799 351.948 271.799V271.799Z" fill="#A5B9C4" fill-opacity="0.63"/>
<path fill-rule="evenodd" clip-rule="evenodd" d="M311.093 251.86C311.145 251.86 311.198 251.856 311.251 251.848C311.837 251.764 312.241 251.237 312.154 250.672C311.886 248.917 310.505 247.633 308.551 247.32C306.734 247.029 305.054 247.693 304.372 248.974C304.101 249.482 304.308 250.107 304.834 250.369C305.36 250.631 306.007 250.431 306.278 249.922C306.52 249.467 307.347 249.227 308.2 249.363C308.582 249.424 309.841 249.721 310.034 250.975C310.113 251.49 310.571 251.86 311.093 251.86Z" fill="#A5B9C4" fill-opacity="0.63"/>
<path fill-rule="evenodd" clip-rule="evenodd" d="M300.819 253.454C300.873 253.454 300.928 253.449 300.984 253.442C301.568 253.354 301.97 252.825 301.879 252.259C301.732 251.345 302.12 250.325 303.314 250.108C304.036 249.977 304.897 250.23 305.149 251.331C305.277 251.889 305.85 252.242 306.427 252.118C307.006 251.994 307.37 251.441 307.242 250.883C307.001 249.832 306.417 249.011 305.551 248.506C304.782 248.058 303.847 247.904 302.918 248.072C301.045 248.412 299.359 250.068 299.76 252.576C299.842 253.088 300.299 253.454 300.819 253.454V253.454Z" fill="#A5B9C4" fill-opacity="0.63"/>
<path fill-rule="evenodd" clip-rule="evenodd" d="M281.202 265.508C281.763 265.508 282.235 265.086 282.27 264.537C282.343 263.422 283.433 263.07 283.765 262.988C284.489 262.811 285.241 262.956 285.476 263.319C285.79 263.803 286.452 263.95 286.953 263.646C287.455 263.342 287.607 262.703 287.292 262.218C286.544 261.066 284.915 260.569 283.238 260.98C281.43 261.423 280.24 262.736 280.131 264.407C280.094 264.977 280.543 265.469 281.133 265.505C281.156 265.507 281.179 265.507 281.202 265.507V265.508Z" fill="#A5B9C4" fill-opacity="0.63"/>
<path fill-rule="evenodd" clip-rule="evenodd" d="M290.756 266.191C291.314 266.191 291.784 265.774 291.824 265.229C292 262.845 290.28 261.419 288.491 261.243C287.602 261.156 286.734 261.373 286.047 261.854C285.272 262.397 284.789 263.216 284.651 264.222C284.574 264.789 284.986 265.31 285.573 265.385C286.16 265.459 286.699 265.061 286.777 264.494C286.948 263.239 288.054 263.282 288.273 263.304C288.981 263.374 289.774 263.881 289.686 265.081C289.644 265.652 290.089 266.148 290.679 266.188C290.705 266.19 290.731 266.191 290.756 266.191V266.191Z" fill="#A5B9C4" fill-opacity="0.63"/>
<path fill-rule="evenodd" clip-rule="evenodd" d="M320.08 265.706C320.589 265.706 321.04 265.355 321.134 264.854C321.319 263.87 321.103 262.925 320.508 262.124C319.997 261.435 319.235 260.906 318.361 260.635C316.509 260.063 314.744 260.747 313.968 262.339C313.716 262.856 313.946 263.473 314.481 263.717C315.017 263.961 315.655 263.739 315.907 263.222C316.367 262.278 317.402 262.514 317.708 262.609C318.294 262.79 319.231 263.389 319.025 264.485C318.919 265.048 319.306 265.587 319.888 265.689C319.953 265.7 320.017 265.706 320.08 265.706V265.706Z" fill="#A5B9C4" fill-opacity="0.63"/>
<path fill-rule="evenodd" clip-rule="evenodd" d="M315.917 262.793C316.007 262.793 316.098 262.782 316.188 262.759C316.761 262.615 317.105 262.049 316.955 261.495C316.478 259.723 314.913 258.553 312.871 258.442C310.978 258.339 309.338 259.196 308.788 260.575C308.576 261.109 308.851 261.708 309.404 261.914C309.956 262.119 310.577 261.853 310.789 261.319C310.992 260.808 311.835 260.461 312.749 260.511C313.161 260.533 314.528 260.708 314.881 262.017C315.007 262.484 315.441 262.793 315.917 262.793V262.793Z" fill="#A5B9C4" fill-opacity="0.63"/>
<path fill-rule="evenodd" clip-rule="evenodd" d="M263.458 265.924C264.02 265.924 264.491 265.502 264.527 264.954C264.623 263.485 263.645 262.068 262.094 261.427C260.514 260.774 258.832 261.103 257.704 262.285C257.302 262.705 257.331 263.36 257.765 263.748C258.201 264.136 258.878 264.109 259.28 263.689C260.004 262.93 260.9 263.186 261.252 263.332C261.83 263.57 262.432 264.139 262.388 264.823C262.35 265.394 262.799 265.886 263.39 265.922C263.413 265.923 263.436 265.924 263.458 265.924V265.924Z" fill="#A5B9C4" fill-opacity="0.63"/>
<path fill-rule="evenodd" clip-rule="evenodd" d="M259.32 263.424C259.418 263.424 259.517 263.411 259.616 263.384C260.185 263.226 260.514 262.653 260.351 262.103C259.934 260.695 258.649 259.712 256.998 259.538C255.537 259.384 254.241 259.912 253.697 260.883C253.415 261.386 253.609 262.015 254.129 262.287C254.65 262.559 255.301 262.372 255.582 261.869C255.658 261.735 256.117 261.529 256.766 261.597C257.058 261.628 258.031 261.797 258.29 262.673C258.425 263.128 258.854 263.424 259.32 263.424V263.424Z" fill="#A5B9C4" fill-opacity="0.63"/>
<path fill-rule="evenodd" clip-rule="evenodd" d="M331.742 255.072C331.824 255.072 331.906 255.064 331.989 255.045C332.565 254.914 332.922 254.356 332.787 253.799C332.406 252.235 331.109 251.15 329.401 250.967C327.72 250.787 326.143 251.558 325.478 252.885C325.22 253.4 325.442 254.019 325.975 254.269C326.508 254.518 327.149 254.303 327.407 253.788C327.718 253.169 328.536 252.959 329.165 253.026C329.545 253.067 330.456 253.27 330.7 254.273C330.816 254.751 331.256 255.072 331.742 255.072Z" fill="#A5B9C4" fill-opacity="0.63"/>
<path fill-rule="evenodd" clip-rule="evenodd" d="M335.915 255.485C336.498 255.485 336.976 255.032 336.986 254.466C337.005 253.365 336.145 252.293 334.795 251.736C333.268 251.105 331.65 251.355 330.571 252.385C330.15 252.788 330.147 253.444 330.564 253.85C330.98 254.257 331.659 254.26 332.08 253.858C332.751 253.216 333.684 253.53 333.953 253.641C334.55 253.887 334.845 254.281 334.843 254.431C334.833 255.004 335.305 255.475 335.897 255.484C335.903 255.484 335.909 255.485 335.915 255.485L335.915 255.485Z" fill="#A5B9C4" fill-opacity="0.63"/>
<path fill-rule="evenodd" clip-rule="evenodd" d="M209.53 176.616C209.538 176.616 209.546 176.616 209.553 176.616C209.903 176.608 210.228 176.437 210.421 176.156C210.93 175.42 211.125 175.401 212.204 175.293C213.148 175.199 214.575 175.058 216.72 174.227C217.27 174.015 217.536 173.412 217.317 172.881C217.097 172.35 216.473 172.091 215.923 172.305C214.057 173.027 212.908 173.141 211.984 173.233C211.1 173.321 210.303 173.4 209.525 174.023C208.029 172.701 206.354 172.598 205.075 172.519C204.557 172.487 204.069 172.457 203.732 172.348C203.17 172.167 202.563 172.46 202.376 173.003C202.189 173.546 202.492 174.132 203.053 174.313C203.655 174.507 204.307 174.547 204.938 174.586C206.293 174.67 207.573 174.749 208.665 176.192C208.867 176.459 209.189 176.616 209.53 176.616V176.616Z" fill="#A5B9C4" fill-opacity="0.63"/>
<path fill-rule="evenodd" clip-rule="evenodd" d="M386.508 87.082C386.806 87.082 387.104 86.9619 387.316 86.7272C387.864 86.1194 388.554 85.7098 389.309 85.5431C389.886 85.4157 390.248 84.86 390.115 84.3026C389.983 83.7448 389.408 83.3961 388.832 83.5232C387.632 83.7884 386.549 84.4255 385.7 85.3652C385.311 85.7967 385.358 86.4507 385.804 86.8268C386.007 86.9982 386.258 87.082 386.508 87.082V87.082Z" fill="#A5B9C4" fill-opacity="0.63"/>
<path fill-rule="evenodd" clip-rule="evenodd" d="M385.11 90.1898C385.654 90.1898 386.12 89.7913 386.176 89.2576L386.188 89.1407C386.194 89.1128 386.204 89.0734 386.217 89.0113C386.339 88.4515 385.968 87.9021 385.389 87.7844C384.809 87.6661 384.241 88.025 384.119 88.5846C384.108 88.636 384.1 88.6676 384.095 88.6896C384.07 88.8002 384.064 88.843 384.051 88.9643L384.043 89.0501C383.984 89.6191 384.413 90.1274 385.002 90.1845C385.038 90.1883 385.075 90.1902 385.11 90.1902V90.1898ZM386.182 89.1645H386.181H386.182Z" fill="#A5B9C4" fill-opacity="0.63"/>
<path fill-rule="evenodd" clip-rule="evenodd" d="M43.2045 186.529H2.57629C1.64167 186.529 0.883789 185.737 0.883789 184.76C0.883789 183.783 1.64167 182.991 2.57629 182.991H43.2045C44.1392 182.991 44.897 183.783 44.897 184.76C44.897 185.737 44.1392 186.529 43.2045 186.529Z" fill="#A5B9C4"/>
<path fill-rule="evenodd" clip-rule="evenodd" d="M131.786 271.995H2.57629C1.64167 271.995 0.883789 271.203 0.883789 270.227C0.883789 269.25 1.64167 268.458 2.57629 268.458H130.093V186.529H63.1314C62.1966 186.529 61.4387 185.737 61.4387 184.76C61.4387 183.783 62.1966 182.991 63.1314 182.991H131.786C132.721 182.991 133.478 183.783 133.478 184.76V270.227C133.478 271.203 132.721 271.995 131.786 271.995V271.995Z" fill="#A5B9C4"/>
<path fill-rule="evenodd" clip-rule="evenodd" d="M15.9056 264.689C15.4385 264.689 15.0596 264.293 15.0596 263.805V237.475C15.0596 236.986 15.4385 236.59 15.9056 236.59C16.373 236.59 16.752 236.986 16.752 237.475V263.805C16.752 264.293 16.373 264.689 15.9056 264.689Z" fill="#A5B9C4"/>
<path fill-rule="evenodd" clip-rule="evenodd" d="M11.9125 264.689C11.4457 264.689 11.0664 264.293 11.0664 263.805V237.475C11.0664 236.986 11.4457 236.59 11.9125 236.59C12.3803 236.59 12.7589 236.986 12.7589 237.475V263.805C12.7589 264.293 12.3803 264.689 11.9125 264.689Z" fill="#A5B9C4"/>
<path fill-rule="evenodd" clip-rule="evenodd" d="M15.9054 238.359H11.9123C11.5683 238.359 11.2581 238.141 11.1284 237.808L9.99773 234.899C9.89177 234.627 9.92263 234.317 10.0796 234.073C10.2371 233.828 10.5002 233.682 10.782 233.682H17.0296C17.3111 233.682 17.5742 233.828 17.7313 234.072C17.8889 234.316 17.9199 234.625 17.8145 234.898L16.6902 237.806C16.5607 238.14 16.2504 238.359 15.9054 238.359ZM12.4818 236.59H15.3346L15.7752 235.451H12.0391L12.4818 236.59Z" fill="#A5B9C4"/>
<path fill-rule="evenodd" clip-rule="evenodd" d="M17.0296 267.598H10.782C10.5002 267.598 10.2371 267.452 10.0796 267.207C9.92263 266.964 9.89177 266.653 9.99773 266.381L11.1284 263.472C11.2581 263.139 11.5683 262.921 11.9123 262.921H15.9054C16.2504 262.921 16.5607 263.139 16.6902 263.474L17.8145 266.383C17.9199 266.655 17.8889 266.964 17.7313 267.208C17.574 267.452 17.3111 267.598 17.0296 267.598ZM12.0391 265.83H15.7753L15.3346 264.689H12.4824L12.0391 265.83Z" fill="#A5B9C4"/>
<path fill-rule="evenodd" clip-rule="evenodd" d="M15.9056 230.027C15.4385 230.027 15.0596 229.631 15.0596 229.143V188.663C15.0596 188.175 15.4385 187.779 15.9056 187.779C16.373 187.779 16.752 188.175 16.752 188.663V229.143C16.752 229.631 16.373 230.027 15.9056 230.027Z" fill="#A5B9C4"/>
<path fill-rule="evenodd" clip-rule="evenodd" d="M11.9125 230.027C11.4457 230.027 11.0664 229.631 11.0664 229.143V188.663C11.0664 188.175 11.4457 187.779 11.9125 187.779C12.3803 187.779 12.7589 188.175 12.7589 188.663V229.143C12.7589 229.631 12.3803 230.027 11.9125 230.027Z" fill="#A5B9C4"/>
<path fill-rule="evenodd" clip-rule="evenodd" d="M15.9054 189.548H11.9123C11.5683 189.548 11.2581 189.33 11.1284 188.996L9.99773 186.087C9.89177 185.815 9.92263 185.505 10.0796 185.261C10.2371 185.017 10.5002 184.87 10.782 184.87H17.0296C17.3111 184.87 17.574 185.016 17.7313 185.26C17.8889 185.504 17.9199 185.813 17.8145 186.086L16.6902 188.995C16.5607 189.329 16.2504 189.548 15.9054 189.548ZM12.4824 187.779H15.3346L15.7753 186.639H12.0391L12.4824 187.779Z" fill="#A5B9C4"/>
<path fill-rule="evenodd" clip-rule="evenodd" d="M17.0296 232.936H10.782C10.5002 232.936 10.2371 232.789 10.0796 232.545C9.92263 232.301 9.89177 231.991 9.99773 231.719L11.1284 228.81C11.2581 228.477 11.5683 228.259 11.9123 228.259H15.9054C16.2504 228.259 16.5607 228.477 16.6902 228.812L17.8145 231.72C17.9199 231.993 17.8889 232.302 17.7313 232.546C17.5742 232.79 17.3111 232.936 17.0296 232.936V232.936ZM12.0391 231.167H15.7752L15.3346 230.027H12.4818L12.0391 231.167Z" fill="#A5B9C4"/>
<path fill-rule="evenodd" clip-rule="evenodd" d="M17.0295 235.451H10.7819C10.3148 235.451 9.93555 235.055 9.93555 234.567V232.052C9.93555 231.563 10.3148 231.167 10.7819 231.167H17.0295C17.4972 231.167 17.876 231.563 17.876 232.052V234.567C17.876 235.055 17.4972 235.451 17.0295 235.451ZM11.6281 233.682H16.1833V232.936H11.6281V233.682Z" fill="#A5B9C4"/>
<path fill-rule="evenodd" clip-rule="evenodd" d="M17.0295 270.116H10.7819C10.3148 270.116 9.93555 269.721 9.93555 269.232V266.714C9.93555 266.225 10.3148 265.83 10.7819 265.83H17.0295C17.4972 265.83 17.876 266.225 17.876 266.714V269.232C17.876 269.721 17.4972 270.116 17.0295 270.116ZM11.6281 268.348H16.1833V267.598H11.6281V268.348Z" fill="#A5B9C4"/>
<path fill-rule="evenodd" clip-rule="evenodd" d="M6.18193 264.689C5.71485 264.689 5.33594 264.293 5.33594 263.805V237.475C5.33594 236.986 5.71485 236.59 6.18193 236.59C6.6494 236.59 7.02832 236.986 7.02832 237.475V263.805C7.02832 264.293 6.6494 264.689 6.18193 264.689Z" fill="#A5B9C4"/>
<path fill-rule="evenodd" clip-rule="evenodd" d="M2.1889 264.689C1.72202 264.689 1.34277 264.293 1.34277 263.805V237.475C1.34277 236.986 1.72202 236.59 2.1889 236.59C2.65665 236.59 3.03528 236.986 3.03528 237.475V263.805C3.03528 264.293 2.65665 264.689 2.1889 264.689Z" fill="#A5B9C4"/>
<path fill-rule="evenodd" clip-rule="evenodd" d="M6.18174 238.359H2.18863C1.84465 238.359 1.53445 238.141 1.40478 237.808L0.274098 234.899C0.168133 234.627 0.199001 234.317 0.355955 234.073C0.513441 233.828 0.776554 233.682 1.05833 233.682H7.30592C7.58743 233.682 7.85055 233.828 8.00771 234.072C8.16526 234.316 8.19625 234.625 8.09088 234.898L6.96658 237.806C6.83704 238.14 6.52672 238.359 6.18174 238.359ZM2.75815 236.59H5.61094L6.05154 235.451H2.31549L2.75815 236.59Z" fill="#A5B9C4"/>
<path fill-rule="evenodd" clip-rule="evenodd" d="M7.30592 267.598H1.05833C0.776554 267.598 0.513441 267.452 0.355955 267.207C0.199001 266.964 0.168133 266.653 0.274098 266.381L1.40478 263.472C1.53445 263.139 1.84465 262.921 2.18863 262.921H6.18174C6.52672 262.921 6.83704 263.139 6.96658 263.474L8.09088 266.383C8.19625 266.655 8.16526 266.964 8.00771 267.208C7.85035 267.452 7.58743 267.598 7.30592 267.598ZM2.31549 265.83H6.05168L5.61094 264.689H2.75874L2.31549 265.83Z" fill="#A5B9C4"/>
<path fill-rule="evenodd" clip-rule="evenodd" d="M6.18193 230.027C5.71485 230.027 5.33594 229.631 5.33594 229.143V188.663C5.33594 188.175 5.71485 187.779 6.18193 187.779C6.6494 187.779 7.02832 188.175 7.02832 188.663V229.143C7.02832 229.631 6.6494 230.027 6.18193 230.027Z" fill="#A5B9C4"/>
<path fill-rule="evenodd" clip-rule="evenodd" d="M2.1889 230.027C1.72202 230.027 1.34277 229.631 1.34277 229.143V188.663C1.34277 188.175 1.72202 187.779 2.1889 187.779C2.65665 187.779 3.03528 188.175 3.03528 188.663V229.143C3.03528 229.631 2.65665 230.027 2.1889 230.027Z" fill="#A5B9C4"/>
<path fill-rule="evenodd" clip-rule="evenodd" d="M6.18174 189.548H2.18863C1.84465 189.548 1.53445 189.33 1.40478 188.996L0.274098 186.087C0.168133 185.815 0.199001 185.505 0.355955 185.261C0.513441 185.017 0.776554 184.87 1.05833 184.87H7.30592C7.58743 184.87 7.85035 185.016 8.00771 185.26C8.16526 185.504 8.19625 185.813 8.09088 186.086L6.96658 188.995C6.83704 189.329 6.52672 189.548 6.18174 189.548ZM2.75874 187.779H5.61094L6.05168 186.639H2.31549L2.75874 187.779Z" fill="#A5B9C4"/>
<path fill-rule="evenodd" clip-rule="evenodd" d="M7.30592 232.936H1.05833C0.776554 232.936 0.513441 232.789 0.355955 232.545C0.199001 232.301 0.168133 231.991 0.274098 231.719L1.40478 228.81C1.53445 228.477 1.84465 228.259 2.18863 228.259H6.18174C6.52672 228.259 6.83704 228.477 6.96658 228.812L8.09088 231.72C8.19625 231.993 8.16526 232.302 8.00771 232.546C7.85055 232.79 7.58743 232.936 7.30592 232.936V232.936ZM2.31549 231.167H6.05154L5.61094 230.027H2.75815L2.31549 231.167Z" fill="#A5B9C4"/>
<path fill-rule="evenodd" clip-rule="evenodd" d="M7.30588 235.451H1.05829C0.591142 235.451 0.211914 235.055 0.211914 234.567V232.052C0.211914 231.563 0.591142 231.167 1.05829 231.167H7.30588C7.77356 231.167 8.1524 231.563 8.1524 232.052V234.567C8.1524 235.055 7.77356 235.451 7.30588 235.451ZM1.90442 233.682H6.45969V232.936H1.90442V233.682Z" fill="#A5B9C4"/>
<path fill-rule="evenodd" clip-rule="evenodd" d="M7.30588 270.116H1.05829C0.591142 270.116 0.211914 269.721 0.211914 269.232V266.714C0.211914 266.225 0.591142 265.83 1.05829 265.83H7.30588C7.77356 265.83 8.1524 266.225 8.1524 266.714V269.232C8.1524 269.721 7.77356 270.116 7.30588 270.116ZM1.90442 268.348H6.45969V267.598H1.90442V268.348Z" fill="#A5B9C4"/>
<path fill-rule="evenodd" clip-rule="evenodd" d="M42.0809 264.689C41.6137 264.689 41.2349 264.293 41.2349 263.805V237.475C41.2349 236.986 41.6137 236.59 42.0809 236.59C42.5481 236.59 42.9274 236.986 42.9274 237.475V263.805C42.9274 264.293 42.5481 264.689 42.0809 264.689Z" fill="#A5B9C4"/>
<path fill-rule="evenodd" clip-rule="evenodd" d="M38.0874 264.689C37.6203 264.689 37.2412 264.293 37.2412 263.805V237.475C37.2412 236.986 37.6203 236.59 38.0874 236.59C38.5545 236.59 38.9336 236.986 38.9336 237.475V263.805C38.9336 264.293 38.5545 264.689 38.0874 264.689Z" fill="#A5B9C4"/>
<path fill-rule="evenodd" clip-rule="evenodd" d="M42.0807 238.359H38.0873C37.7431 238.359 37.433 238.141 37.3035 237.808L36.1727 234.899C36.0666 234.627 36.0972 234.317 36.2544 234.073C36.412 233.828 36.6749 233.682 36.9568 233.682H43.2048C43.4861 233.682 43.7491 233.828 43.9062 234.072C44.0635 234.316 44.0948 234.625 43.9894 234.898L42.8654 237.806C42.736 238.14 42.4258 238.359 42.0807 238.359ZM38.657 236.59H41.5096L41.9502 235.451H38.214L38.657 236.59Z" fill="#A5B9C4"/>
<path fill-rule="evenodd" clip-rule="evenodd" d="M43.2048 267.598H36.9568C36.6749 267.598 36.412 267.452 36.2544 267.207C36.0972 266.964 36.0666 266.653 36.1727 266.381L37.3035 263.472C37.433 263.139 37.7431 262.921 38.0873 262.921H42.0807C42.4258 262.921 42.736 263.139 42.8654 263.474L43.9894 266.383C44.0948 266.655 44.0635 266.965 43.9062 267.208C43.7491 267.452 43.4861 267.598 43.2048 267.598ZM38.2136 265.83H41.9504L41.5096 264.689H38.657L38.2136 265.83Z" fill="#A5B9C4"/>
<path fill-rule="evenodd" clip-rule="evenodd" d="M42.0809 230.027C41.6137 230.027 41.2349 229.631 41.2349 229.143V188.663C41.2349 188.175 41.6137 187.779 42.0809 187.779C42.5481 187.779 42.9274 188.175 42.9274 188.663V229.143C42.9274 229.631 42.5481 230.027 42.0809 230.027Z" fill="#A5B9C4"/>
<path fill-rule="evenodd" clip-rule="evenodd" d="M38.0874 230.027C37.6203 230.027 37.2412 229.631 37.2412 229.143V188.663C37.2412 188.175 37.6203 187.779 38.0874 187.779C38.5545 187.779 38.9336 188.175 38.9336 188.663V229.143C38.9336 229.631 38.5545 230.027 38.0874 230.027Z" fill="#A5B9C4"/>
<path fill-rule="evenodd" clip-rule="evenodd" d="M42.0807 189.548H38.0873C37.7431 189.548 37.433 189.33 37.3035 188.996L36.1727 186.087C36.0666 185.815 36.0972 185.505 36.2544 185.261C36.412 185.017 36.6749 184.87 36.9568 184.87H43.2048C43.4861 184.87 43.7491 185.016 43.9062 185.26C44.0635 185.504 44.0948 185.813 43.9894 186.086L42.8654 188.995C42.736 189.329 42.4258 189.548 42.0807 189.548ZM38.657 187.779H41.5096L41.9504 186.639H38.2136L38.657 187.779Z" fill="#A5B9C4"/>
<path fill-rule="evenodd" clip-rule="evenodd" d="M43.2048 232.936H36.9568C36.6749 232.936 36.412 232.789 36.2544 232.545C36.0972 232.301 36.0666 231.991 36.1727 231.719L37.3035 228.81C37.433 228.477 37.7431 228.259 38.0873 228.259H42.0807C42.4258 228.259 42.736 228.478 42.8654 228.812L43.9894 231.72C44.0948 231.993 44.0635 232.302 43.9062 232.546C43.7491 232.79 43.4861 232.936 43.2048 232.936V232.936ZM38.214 231.167H41.9502L41.5096 230.027H38.657L38.214 231.167Z" fill="#A5B9C4"/>
<path fill-rule="evenodd" clip-rule="evenodd" d="M43.2049 235.451H36.9569C36.4894 235.451 36.1104 235.055 36.1104 234.567V232.052C36.1104 231.563 36.4894 231.167 36.9569 231.167H43.2049C43.6723 231.167 44.0514 231.563 44.0514 232.052V234.567C44.0514 235.055 43.6723 235.451 43.2049 235.451ZM37.8031 233.682H42.3585V232.936H37.8031V233.682Z" fill="#A5B9C4"/>
<path fill-rule="evenodd" clip-rule="evenodd" d="M43.2049 270.116H36.9569C36.4894 270.116 36.1104 269.721 36.1104 269.232V266.714C36.1104 266.225 36.4894 265.83 36.9569 265.83H43.2049C43.6723 265.83 44.0514 266.225 44.0514 266.714V269.232C44.0514 269.721 43.6723 270.116 43.2049 270.116ZM37.8031 268.348H42.3585V267.598H37.8031V268.348Z" fill="#A5B9C4"/>
<path fill-rule="evenodd" clip-rule="evenodd" d="M127.984 264.689C127.517 264.689 127.138 264.293 127.138 263.805V237.475C127.138 236.986 127.517 236.59 127.984 236.59C128.452 236.59 128.831 236.986 128.831 237.475V263.805C128.831 264.293 128.452 264.689 127.984 264.689Z" fill="#A5B9C4"/>
<path fill-rule="evenodd" clip-rule="evenodd" d="M123.991 264.689C123.524 264.689 123.145 264.293 123.145 263.805V237.475C123.145 236.986 123.524 236.59 123.991 236.59C124.458 236.59 124.837 236.986 124.837 237.475V263.805C124.837 264.293 124.458 264.689 123.991 264.689Z" fill="#A5B9C4"/>
<path fill-rule="evenodd" clip-rule="evenodd" d="M127.985 238.359H123.991C123.647 238.359 123.337 238.141 123.208 237.808L122.077 234.899C121.971 234.627 122.002 234.317 122.159 234.073C122.316 233.828 122.579 233.682 122.861 233.682H129.109C129.39 233.682 129.653 233.828 129.81 234.072C129.968 234.316 129.999 234.625 129.893 234.898L128.77 237.806C128.64 238.14 128.33 238.359 127.985 238.359ZM124.561 236.59H127.414L127.854 235.451H124.118L124.561 236.59Z" fill="#A5B9C4"/>
<path fill-rule="evenodd" clip-rule="evenodd" d="M129.109 267.598H122.861C122.579 267.598 122.316 267.452 122.159 267.207C122.002 266.964 121.971 266.653 122.077 266.381L123.208 263.472C123.337 263.139 123.647 262.921 123.991 262.921H127.985C128.33 262.921 128.64 263.139 128.77 263.474L129.893 266.383C129.999 266.655 129.968 266.965 129.81 267.208C129.653 267.452 129.39 267.598 129.109 267.598ZM124.118 265.83H127.854L127.414 264.689H124.561L124.118 265.83Z" fill="#A5B9C4"/>
<path fill-rule="evenodd" clip-rule="evenodd" d="M127.984 230.027C127.517 230.027 127.138 229.631 127.138 229.143V188.663C127.138 188.175 127.517 187.779 127.984 187.779C128.452 187.779 128.831 188.175 128.831 188.663V229.143C128.831 229.631 128.452 230.027 127.984 230.027Z" fill="#A5B9C4"/>
<path fill-rule="evenodd" clip-rule="evenodd" d="M123.991 230.027C123.524 230.027 123.145 229.631 123.145 229.143V188.663C123.145 188.175 123.524 187.779 123.991 187.779C124.458 187.779 124.837 188.175 124.837 188.663V229.143C124.837 229.631 124.458 230.027 123.991 230.027Z" fill="#A5B9C4"/>
<path fill-rule="evenodd" clip-rule="evenodd" d="M127.985 189.548H123.991C123.647 189.548 123.337 189.33 123.208 188.996L122.077 186.087C121.971 185.815 122.002 185.505 122.159 185.261C122.316 185.017 122.579 184.87 122.861 184.87H129.109C129.39 184.87 129.653 185.016 129.81 185.26C129.968 185.504 129.999 185.813 129.893 186.086L128.77 188.995C128.64 189.329 128.33 189.548 127.985 189.548ZM124.561 187.779H127.414L127.854 186.639H124.118L124.561 187.779Z" fill="#A5B9C4"/>
<path fill-rule="evenodd" clip-rule="evenodd" d="M129.109 232.936H122.861C122.58 232.936 122.317 232.789 122.159 232.545C122.002 232.301 121.971 231.991 122.077 231.719L123.208 228.81C123.338 228.477 123.648 228.259 123.992 228.259H127.985C128.33 228.259 128.641 228.478 128.77 228.812L129.894 231.72C129.999 231.993 129.968 232.302 129.811 232.546C129.653 232.79 129.39 232.936 129.109 232.936V232.936ZM124.118 231.167H127.855L127.414 230.027H124.561L124.118 231.167Z" fill="#A5B9C4"/>
<path fill-rule="evenodd" clip-rule="evenodd" d="M129.109 235.451H122.861C122.393 235.451 122.015 235.055 122.015 234.567V232.052C122.015 231.563 122.393 231.167 122.861 231.167H129.109C129.576 231.167 129.955 231.563 129.955 232.052V234.567C129.955 235.055 129.576 235.451 129.109 235.451ZM123.707 233.682H128.263V232.936H123.707V233.682Z" fill="#A5B9C4"/>
<path fill-rule="evenodd" clip-rule="evenodd" d="M129.109 270.116H122.861C122.393 270.116 122.015 269.721 122.015 269.232V266.714C122.015 266.225 122.393 265.83 122.861 265.83H129.109C129.576 265.83 129.955 266.225 129.955 266.714V269.232C129.955 269.721 129.576 270.116 129.109 270.116ZM123.707 268.348H128.263V267.598H123.707V268.348Z" fill="#A5B9C4"/>
<path fill-rule="evenodd" clip-rule="evenodd" d="M120.606 264.689C120.138 264.689 119.759 264.293 119.759 263.805V237.475C119.759 236.986 120.138 236.59 120.606 236.59C121.073 236.59 121.452 236.986 121.452 237.475V263.805C121.452 264.293 121.073 264.689 120.606 264.689Z" fill="#A5B9C4"/>
<path fill-rule="evenodd" clip-rule="evenodd" d="M116.612 264.689C116.145 264.689 115.766 264.293 115.766 263.805V237.475C115.766 236.986 116.145 236.59 116.612 236.59C117.08 236.59 117.458 236.986 117.458 237.475V263.805C117.458 264.293 117.08 264.689 116.612 264.689V264.689Z" fill="#A5B9C4"/>
<path fill-rule="evenodd" clip-rule="evenodd" d="M120.606 238.359H116.612C116.268 238.359 115.958 238.141 115.828 237.808L114.698 234.899C114.592 234.627 114.623 234.317 114.78 234.073C114.937 233.828 115.2 233.682 115.482 233.682H121.736C122.018 233.682 122.281 233.828 122.438 234.073C122.596 234.317 122.626 234.627 122.52 234.899L121.39 237.808C121.26 238.141 120.95 238.359 120.606 238.359V238.359ZM117.182 236.59H120.036L120.479 235.451H116.739L117.182 236.59Z" fill="#A5B9C4"/>
<path fill-rule="evenodd" clip-rule="evenodd" d="M121.736 267.598H115.482C115.2 267.598 114.937 267.452 114.78 267.207C114.623 266.964 114.592 266.654 114.698 266.381L115.828 263.472C115.958 263.139 116.268 262.921 116.612 262.921H120.606C120.95 262.921 121.26 263.139 121.39 263.472L122.52 266.381C122.626 266.653 122.596 266.964 122.438 267.207C122.281 267.452 122.018 267.598 121.736 267.598ZM116.739 265.83H120.479L120.036 264.689H117.182L116.739 265.83Z" fill="#A5B9C4"/>
<path fill-rule="evenodd" clip-rule="evenodd" d="M120.606 230.027C120.138 230.027 119.759 229.631 119.759 229.143V188.663C119.759 188.175 120.138 187.779 120.606 187.779C121.073 187.779 121.452 188.175 121.452 188.663V229.143C121.452 229.631 121.073 230.027 120.606 230.027Z" fill="#A5B9C4"/>
<path fill-rule="evenodd" clip-rule="evenodd" d="M116.612 230.027C116.145 230.027 115.766 229.631 115.766 229.143V188.663C115.766 188.175 116.145 187.779 116.612 187.779C117.08 187.779 117.458 188.175 117.458 188.663V229.143C117.458 229.631 117.08 230.027 116.612 230.027V230.027Z" fill="#A5B9C4"/>
<path fill-rule="evenodd" clip-rule="evenodd" d="M120.606 189.548H116.612C116.268 189.548 115.958 189.33 115.828 188.996L114.698 186.087C114.592 185.815 114.623 185.505 114.78 185.261C114.937 185.017 115.2 184.87 115.482 184.87H121.736C122.018 184.87 122.281 185.017 122.438 185.261C122.596 185.505 122.626 185.815 122.52 186.087L121.39 188.996C121.26 189.33 120.95 189.548 120.606 189.548V189.548ZM117.182 187.779H120.036L120.479 186.639H116.739L117.182 187.779Z" fill="#A5B9C4"/>
<path fill-rule="evenodd" clip-rule="evenodd" d="M121.736 232.936H115.482C115.2 232.936 114.937 232.789 114.78 232.545C114.623 232.301 114.592 231.991 114.698 231.719L115.828 228.81C115.958 228.477 116.268 228.259 116.612 228.259H120.606C120.95 228.259 121.26 228.477 121.39 228.81L122.52 231.719C122.626 231.991 122.596 232.301 122.438 232.545C122.281 232.789 122.018 232.936 121.736 232.936ZM116.739 231.167H120.479L120.036 230.027H117.182L116.739 231.167Z" fill="#A5B9C4"/>
<path fill-rule="evenodd" clip-rule="evenodd" d="M121.736 235.451H115.482C115.014 235.451 114.636 235.055 114.636 234.567V232.052C114.636 231.563 115.014 231.167 115.482 231.167H121.736C122.204 231.167 122.582 231.563 122.582 232.052V234.567C122.582 235.055 122.204 235.451 121.736 235.451V235.451ZM116.328 233.682H120.89V232.936H116.328V233.682Z" fill="#A5B9C4"/>
<path fill-rule="evenodd" clip-rule="evenodd" d="M121.736 270.116H115.482C115.014 270.116 114.636 269.721 114.636 269.232V266.714C114.636 266.225 115.014 265.83 115.482 265.83H121.736C122.204 265.83 122.582 266.225 122.582 266.714V269.232C122.582 269.721 122.204 270.116 121.736 270.116V270.116ZM116.328 268.348H120.89V267.598H116.328V268.348Z" fill="#A5B9C4"/>
<path fill-rule="evenodd" clip-rule="evenodd" d="M94.431 264.689C93.9635 264.689 93.5845 264.293 93.5845 263.805V237.475C93.5845 236.986 93.9635 236.59 94.431 236.59C94.8981 236.59 95.2772 236.986 95.2772 237.475V263.805C95.2772 264.293 94.8981 264.689 94.431 264.689Z" fill="#A5B9C4"/>
<path fill-rule="evenodd" clip-rule="evenodd" d="M90.437 264.689C89.97 264.689 89.5908 264.293 89.5908 263.805V237.475C89.5908 236.986 89.97 236.59 90.437 236.59C90.9047 236.59 91.2831 236.986 91.2831 237.475V263.805C91.2831 264.293 90.9047 264.689 90.437 264.689Z" fill="#A5B9C4"/>
<path fill-rule="evenodd" clip-rule="evenodd" d="M94.4308 238.359H90.4372C90.0929 238.359 89.7829 238.141 89.6533 237.808L88.5226 234.899C88.4168 234.627 88.4473 234.317 88.6048 234.073C88.7619 233.828 89.0252 233.682 89.3064 233.682H95.5613C95.8431 233.682 96.1064 233.828 96.2636 234.073C96.4205 234.317 96.4515 234.627 96.3452 234.899L95.2145 237.808C95.0848 238.141 94.7752 238.359 94.4308 238.359V238.359ZM91.007 236.59H93.8609L94.3039 235.451H90.5638L91.007 236.59Z" fill="#A5B9C4"/>
<path fill-rule="evenodd" clip-rule="evenodd" d="M95.5613 267.598H89.3064C89.0252 267.598 88.7619 267.452 88.6048 267.207C88.4473 266.964 88.4168 266.653 88.5226 266.381L89.6533 263.472C89.7829 263.139 90.0929 262.921 90.4372 262.921H94.4308C94.7752 262.921 95.0848 263.139 95.2149 263.472L96.3454 266.381C96.4515 266.653 96.4205 266.964 96.2636 267.207C96.1064 267.452 95.8431 267.598 95.5613 267.598ZM90.5638 265.83H94.3039L93.8609 264.689H91.007L90.5638 265.83Z" fill="#A5B9C4"/>
<path fill-rule="evenodd" clip-rule="evenodd" d="M94.431 230.027C93.9635 230.027 93.5845 229.631 93.5845 229.143V188.663C93.5845 188.175 93.9635 187.779 94.431 187.779C94.8981 187.779 95.2772 188.175 95.2772 188.663V229.143C95.2772 229.631 94.8981 230.027 94.431 230.027Z" fill="#A5B9C4"/>
<path fill-rule="evenodd" clip-rule="evenodd" d="M90.437 230.027C89.97 230.027 89.5908 229.631 89.5908 229.143V188.663C89.5908 188.175 89.97 187.779 90.437 187.779C90.9047 187.779 91.2831 188.175 91.2831 188.663V229.143C91.2831 229.631 90.9047 230.027 90.437 230.027Z" fill="#A5B9C4"/>
<path fill-rule="evenodd" clip-rule="evenodd" d="M94.4308 189.548H90.4372C90.0929 189.548 89.7829 189.33 89.6533 188.996L88.5226 186.087C88.4168 185.815 88.4473 185.505 88.6048 185.261C88.7619 185.017 89.0252 184.87 89.3064 184.87H95.5613C95.8431 184.87 96.1064 185.017 96.2636 185.261C96.4205 185.505 96.4515 185.815 96.3454 186.087L95.2149 188.996C95.0848 189.33 94.7752 189.548 94.4308 189.548ZM91.007 187.779H93.8609L94.3039 186.639H90.5638L91.007 187.779Z" fill="#A5B9C4"/>
<path fill-rule="evenodd" clip-rule="evenodd" d="M95.5613 232.936H89.3064C89.0252 232.936 88.7619 232.789 88.6048 232.545C88.4473 232.301 88.4168 231.991 88.5226 231.719L89.6533 228.81C89.7829 228.477 90.0929 228.259 90.4372 228.259H94.4308C94.7752 228.259 95.0848 228.477 95.2145 228.81L96.3452 231.719C96.4515 231.991 96.4205 232.301 96.2636 232.545C96.1064 232.789 95.8431 232.936 95.5613 232.936V232.936ZM90.5638 231.167H94.3039L93.8609 230.027H91.007L90.5638 231.167Z" fill="#A5B9C4"/>
<path fill-rule="evenodd" clip-rule="evenodd" d="M95.5612 235.451H89.3063C88.8388 235.451 88.46 235.055 88.46 234.567V232.052C88.46 231.563 88.8388 231.167 89.3063 231.167H95.5612C96.0289 231.167 96.4074 231.563 96.4074 232.052V234.567C96.4074 235.055 96.0289 235.451 95.5612 235.451ZM90.1526 233.682H94.715V232.936H90.1526V233.682Z" fill="#A5B9C4"/>
<path fill-rule="evenodd" clip-rule="evenodd" d="M95.5612 270.116H89.3063C88.8388 270.116 88.46 269.721 88.46 269.232V266.714C88.46 266.225 88.8388 265.83 89.3063 265.83H95.5612C96.0289 265.83 96.4074 266.225 96.4074 266.714V269.232C96.4074 269.721 96.0289 270.116 95.5612 270.116ZM90.1526 268.348H94.715V267.598H90.1526V268.348Z" fill="#A5B9C4"/>
<path fill-rule="evenodd" clip-rule="evenodd" d="M68.2553 264.689C67.7884 264.689 67.4092 264.293 67.4092 263.805V237.475C67.4092 236.986 67.7884 236.59 68.2553 236.59C68.7228 236.59 69.1018 236.986 69.1018 237.475V263.805C69.1018 264.293 68.7228 264.689 68.2553 264.689Z" fill="#A5B9C4"/>
<path fill-rule="evenodd" clip-rule="evenodd" d="M64.2622 264.689C63.7951 264.689 63.416 264.293 63.416 263.805V237.475C63.416 236.986 63.7951 236.59 64.2622 236.59C64.7297 236.59 65.1085 236.986 65.1085 237.475V263.805C65.1085 264.293 64.7297 264.689 64.2622 264.689Z" fill="#A5B9C4"/>
<path fill-rule="evenodd" clip-rule="evenodd" d="M68.2553 238.359H64.2619C63.918 238.359 63.6075 238.141 63.4784 237.808L62.3471 234.899C62.2415 234.627 62.2722 234.317 62.4292 234.073C62.5867 233.828 62.85 233.682 63.1313 233.682H69.3795C69.6607 233.682 69.9234 233.828 70.0807 234.072C70.2383 234.316 70.2693 234.625 70.1641 234.898L69.0402 237.806C68.9107 238.14 68.6005 238.359 68.2553 238.359V238.359ZM64.8318 236.59H67.6843L68.1245 235.451H64.3884L64.8318 236.59Z" fill="#A5B9C4"/>
<path fill-rule="evenodd" clip-rule="evenodd" d="M69.3795 267.598H63.1313C62.85 267.598 62.5867 267.452 62.4292 267.207C62.2722 266.964 62.2415 266.653 62.3471 266.381L63.4784 263.472C63.6075 263.139 63.918 262.921 64.2619 262.921H68.2553C68.6005 262.921 68.911 263.139 69.0402 263.474L70.1641 266.383C70.2693 266.655 70.2383 266.965 70.0807 267.208C69.9234 267.452 69.6607 267.598 69.3795 267.598V267.598ZM64.3884 265.83H68.1249L67.6843 264.689H64.8318L64.3884 265.83Z" fill="#A5B9C4"/>
<path fill-rule="evenodd" clip-rule="evenodd" d="M68.2558 230.027C67.7889 230.027 67.4097 229.631 67.4097 229.143V188.663C67.4097 188.175 67.7889 187.779 68.2558 187.779C68.7233 187.779 69.1023 188.175 69.1023 188.663V229.143C69.1023 229.631 68.7233 230.027 68.2558 230.027Z" fill="#A5B9C4"/>
<path fill-rule="evenodd" clip-rule="evenodd" d="M64.2622 230.027C63.7951 230.027 63.416 229.631 63.416 229.143V188.663C63.416 188.175 63.7951 187.779 64.2622 187.779C64.7297 187.779 65.1085 188.175 65.1085 188.663V229.143C65.1085 229.631 64.7297 230.027 64.2622 230.027Z" fill="#A5B9C4"/>
<path fill-rule="evenodd" clip-rule="evenodd" d="M68.2553 189.548H64.2619C63.918 189.548 63.6075 189.33 63.4784 188.996L62.3471 186.087C62.2415 185.815 62.2722 185.505 62.4292 185.261C62.5867 185.017 62.85 184.87 63.1313 184.87H69.3795C69.6607 184.87 69.9234 185.016 70.0807 185.26C70.2383 185.504 70.2693 185.813 70.1641 186.086L69.0402 188.995C68.911 189.329 68.6005 189.548 68.2553 189.548V189.548ZM64.8318 187.779H67.6843L68.1249 186.639H64.3884L64.8318 187.779Z" fill="#A5B9C4"/>
<path fill-rule="evenodd" clip-rule="evenodd" d="M69.3795 232.936H63.1313C62.85 232.936 62.5867 232.789 62.4292 232.545C62.2722 232.301 62.2415 231.991 62.3471 231.719L63.4784 228.81C63.6075 228.477 63.918 228.259 64.2619 228.259H68.2553C68.6005 228.259 68.9107 228.478 69.0402 228.812L70.1641 231.72C70.2693 231.993 70.2383 232.302 70.0807 232.546C69.9234 232.79 69.6607 232.936 69.3795 232.936V232.936ZM64.3884 231.167H68.1245L67.6843 230.027H64.8318L64.3884 231.167Z" fill="#A5B9C4"/>
<path fill-rule="evenodd" clip-rule="evenodd" d="M69.3797 235.451H63.1315C62.6642 235.451 62.2852 235.055 62.2852 234.567V232.052C62.2852 231.563 62.6642 231.167 63.1315 231.167H69.3797C69.8467 231.167 70.2258 231.563 70.2258 232.052V234.567C70.2258 235.055 69.8467 235.451 69.3797 235.451ZM63.978 233.682H68.5333V232.936H63.978V233.682Z" fill="#A5B9C4"/>
<path fill-rule="evenodd" clip-rule="evenodd" d="M69.3797 270.116H63.1315C62.6642 270.116 62.2852 269.721 62.2852 269.232V266.714C62.2852 266.225 62.6642 265.83 63.1315 265.83H69.3797C69.8467 265.83 70.2258 266.225 70.2258 266.714V269.232C70.2258 269.721 69.8467 270.116 69.3797 270.116ZM63.978 268.348H68.5333V267.598H63.978V268.348Z" fill="#A5B9C4"/>
<path fill-rule="evenodd" clip-rule="evenodd" d="M131.786 232.936H2.57609C2.10874 232.936 1.72949 232.54 1.72949 232.051C1.72949 231.563 2.10874 231.167 2.57609 231.167H131.786C132.253 231.167 132.632 231.563 132.632 232.051C132.632 232.54 132.253 232.936 131.786 232.936V232.936Z" fill="#A5B9C4"/>
<path fill-rule="evenodd" clip-rule="evenodd" d="M131.786 235.451H2.57609C2.10874 235.451 1.72949 235.055 1.72949 234.566C1.72949 234.078 2.10874 233.682 2.57609 233.682H131.786C132.253 233.682 132.632 234.078 132.632 234.566C132.632 235.055 132.253 235.451 131.786 235.451V235.451Z" fill="#A5B9C4"/>
<path fill-rule="evenodd" clip-rule="evenodd" d="M63.1316 186.529C62.1968 186.529 61.4389 185.737 61.4389 184.76C61.4389 179.994 57.7289 176.117 53.1679 176.117C48.6074 176.117 44.8972 179.994 44.8972 184.76C44.8972 185.737 44.1393 186.529 43.2047 186.529C42.2697 186.529 41.5122 185.737 41.5122 184.76C41.5122 178.043 46.741 172.579 53.1679 172.579C59.5957 172.579 64.8241 178.043 64.8241 184.76C64.8241 185.737 64.0666 186.529 63.1316 186.529Z" fill="#A5B9C4"/>
<path fill-rule="evenodd" clip-rule="evenodd" d="M131.785 186.529C131.431 186.529 131.075 186.413 130.77 186.175L120.041 177.761H58.5301C57.5953 177.761 56.8374 176.969 56.8374 175.993C56.8374 175.016 57.5953 174.224 58.5301 174.224H120.606C120.972 174.224 121.329 174.348 121.622 174.578L132.802 183.345C133.55 183.931 133.701 185.04 133.14 185.822C132.808 186.285 132.299 186.529 131.785 186.529V186.529Z" fill="#A5B9C4"/>
<path fill-rule="evenodd" clip-rule="evenodd" d="M47.4421 177.761H2.57629C1.64167 177.761 0.883789 176.969 0.883789 175.993C0.883789 175.016 1.64167 174.224 2.57629 174.224H47.4421C48.3771 174.224 49.1348 175.016 49.1348 175.993C49.1348 176.969 48.3771 177.761 47.4421 177.761Z" fill="#A5B9C4"/>
<path fill-rule="evenodd" clip-rule="evenodd" d="M68.2557 186.639H36.0043C35.5373 186.639 35.1582 186.243 35.1582 185.755C35.1582 185.266 35.5373 184.87 36.0043 184.87H68.2557C68.7232 184.87 69.1022 185.266 69.1022 185.755C69.1022 186.243 68.7232 186.639 68.2557 186.639Z" fill="#A5B9C4"/>
<path fill-rule="evenodd" clip-rule="evenodd" d="M43.9712 181.644H2.57609C2.10874 181.644 1.72949 181.248 1.72949 180.759C1.72949 180.271 2.10874 179.875 2.57609 179.875H43.9712C44.4382 179.875 44.8174 180.271 44.8174 180.759C44.8174 181.248 44.4382 181.644 43.9712 181.644Z" fill="#A5B9C4"/>
<path fill-rule="evenodd" clip-rule="evenodd" d="M125.988 181.644H62.6621C62.1946 181.644 61.8159 181.248 61.8159 180.759C61.8159 180.271 62.1946 179.875 62.6621 179.875H125.988C126.455 179.875 126.834 180.271 126.834 180.759C126.834 181.248 126.455 181.644 125.988 181.644V181.644Z" fill="#A5B9C4"/>
<path fill-rule="evenodd" clip-rule="evenodd" d="M64.2619 261.826H42.0804C41.6132 261.826 41.2344 261.429 41.2344 260.941C41.2344 260.453 41.6132 260.057 42.0804 260.057H64.2619C64.7294 260.057 65.1082 260.453 65.1082 260.941C65.1082 261.429 64.7294 261.826 64.2619 261.826Z" fill="#A5B9C4"/>
<path fill-rule="evenodd" clip-rule="evenodd" d="M57.6635 225.944H48.6785C48.2108 225.944 47.8325 225.549 47.8325 225.06V212.202C47.8325 209.124 50.2257 206.62 53.1675 206.62C56.1133 206.62 58.5097 209.124 58.5097 212.202V225.06C58.5097 225.549 58.131 225.944 57.6635 225.944ZM49.525 224.176H56.817V212.202C56.817 210.099 55.1802 208.389 53.1675 208.389C51.159 208.389 49.525 210.099 49.525 212.202V224.176Z" fill="#A5B9C4"/>
<path fill-rule="evenodd" clip-rule="evenodd" d="M57.6635 203.317H48.6785C48.2108 203.317 47.8325 202.922 47.8325 202.433V196.025C47.8325 192.949 50.2257 190.446 53.1675 190.446C56.1133 190.446 58.5097 192.949 58.5097 196.025V202.433C58.5097 202.922 58.131 203.317 57.6635 203.317ZM49.525 201.549H56.817V196.025C56.817 193.924 55.1802 192.215 53.1675 192.215C51.159 192.215 49.525 193.924 49.525 196.025V201.549Z" fill="#A5B9C4"/>
<path fill-rule="evenodd" clip-rule="evenodd" d="M53.1678 203.317C52.7009 203.317 52.3223 202.922 52.3223 202.433V196.025C52.3223 195.537 52.7009 195.141 53.1678 195.141C53.6355 195.141 54.0144 195.537 54.0144 196.025V202.433C54.0144 202.922 53.6355 203.317 53.1678 203.317Z" fill="#A5B9C4"/>
<path fill-rule="evenodd" clip-rule="evenodd" d="M53.1678 225.944C52.7009 225.944 52.3223 225.549 52.3223 225.06V207.504C52.3223 207.016 52.7009 206.62 53.1678 206.62C53.6355 206.62 54.0144 207.016 54.0144 207.504V225.06C54.0144 225.549 53.6355 225.944 53.1678 225.944Z" fill="#A5B9C4"/>
<path fill-rule="evenodd" clip-rule="evenodd" d="M57.6635 257.639H48.6785C48.2108 257.639 47.8325 257.243 47.8325 256.754V243.897C47.8325 240.82 50.2257 238.318 53.1675 238.318C56.1133 238.318 58.5097 240.82 58.5097 243.897V256.754C58.5097 257.243 58.131 257.639 57.6635 257.639ZM49.525 255.87H56.817V243.897C56.817 241.796 55.1802 240.086 53.1675 240.086C51.159 240.086 49.525 241.796 49.525 243.897V255.87Z" fill="#A5B9C4"/>
<path fill-rule="evenodd" clip-rule="evenodd" d="M57.6635 271.111H48.6785C48.2108 271.111 47.8325 270.715 47.8325 270.227V269.401C47.8325 266.325 50.2257 263.822 53.1675 263.822C56.1133 263.822 58.5097 266.325 58.5097 269.401V270.227C58.5097 270.715 58.131 271.111 57.6635 271.111ZM49.525 269.342H56.8168C56.7866 267.268 55.1613 265.591 53.1675 265.591C51.1776 265.591 49.5554 267.268 49.525 269.342Z" fill="#A5B9C4"/>
<path fill-rule="evenodd" clip-rule="evenodd" d="M53.1678 257.639C52.7009 257.639 52.3223 257.243 52.3223 256.754V239.202C52.3223 238.714 52.7009 238.318 53.1678 238.318C53.6355 238.318 54.0144 238.714 54.0144 239.202V256.754C54.0144 257.243 53.6355 257.639 53.1678 257.639Z" fill="#A5B9C4"/>
<path fill-rule="evenodd" clip-rule="evenodd" d="M57.6635 245.521H48.6785C48.2108 245.521 47.8325 245.125 47.8325 244.636C47.8325 244.148 48.2108 243.752 48.6785 243.752H57.6635C58.131 243.752 58.5097 244.148 58.5097 244.636C58.5097 245.125 58.131 245.521 57.6635 245.521Z" fill="#A5B9C4"/>
<path fill-rule="evenodd" clip-rule="evenodd" d="M57.6635 251.103H48.6785C48.2108 251.103 47.8325 250.707 47.8325 250.219C47.8325 249.73 48.2108 249.334 48.6785 249.334H57.6635C58.131 249.334 58.5097 249.73 58.5097 250.219C58.5097 250.707 58.131 251.103 57.6635 251.103Z" fill="#A5B9C4"/>
<path fill-rule="evenodd" clip-rule="evenodd" d="M57.6635 196.909H48.6785C48.2108 196.909 47.8325 196.513 47.8325 196.025C47.8325 195.537 48.2108 195.141 48.6785 195.141H57.6635C58.131 195.141 58.5097 195.537 58.5097 196.025C58.5097 196.513 58.131 196.909 57.6635 196.909Z" fill="#A5B9C4"/>
<path fill-rule="evenodd" clip-rule="evenodd" d="M57.6635 213.961H48.6785C48.2108 213.961 47.8325 213.565 47.8325 213.076C47.8325 212.588 48.2108 212.192 48.6785 212.192H57.6635C58.131 212.192 58.5097 212.588 58.5097 213.076C58.5097 213.565 58.131 213.961 57.6635 213.961Z" fill="#A5B9C4"/>
<path fill-rule="evenodd" clip-rule="evenodd" d="M90.4369 261.826H68.2553C67.7884 261.826 67.4092 261.429 67.4092 260.941C67.4092 260.453 67.7884 260.057 68.2553 260.057H90.4369C90.9046 260.057 91.283 260.453 91.283 260.941C91.283 261.429 90.9046 261.826 90.4369 261.826Z" fill="#A5B9C4"/>
<path fill-rule="evenodd" clip-rule="evenodd" d="M83.8392 225.944H74.8538C74.3864 225.944 74.0073 225.549 74.0073 225.06V212.202C74.0073 209.124 76.4011 206.62 79.3433 206.62C82.2889 206.62 84.6856 209.124 84.6856 212.202V225.06C84.6856 225.549 84.3063 225.944 83.8392 225.944V225.944ZM75.7 224.176H82.9926V212.202C82.9926 210.099 81.3555 208.389 79.3433 208.389C77.3345 208.389 75.7 210.099 75.7 212.202V224.176Z" fill="#A5B9C4"/>
<path fill-rule="evenodd" clip-rule="evenodd" d="M83.8392 203.317H74.8538C74.3864 203.317 74.0073 202.922 74.0073 202.433V196.025C74.0073 192.949 76.4011 190.446 79.3433 190.446C82.2889 190.446 84.6856 192.949 84.6856 196.025V202.433C84.6856 202.922 84.3063 203.317 83.8392 203.317V203.317ZM75.7 201.549H82.9926V196.025C82.9926 193.924 81.3555 192.215 79.3433 192.215C77.3345 192.215 75.7 193.924 75.7 196.025V201.549Z" fill="#A5B9C4"/>
<path fill-rule="evenodd" clip-rule="evenodd" d="M79.3435 203.317C78.8759 203.317 78.4971 202.922 78.4971 202.433V196.025C78.4971 195.537 78.8759 195.141 79.3435 195.141C79.8107 195.141 80.1898 195.537 80.1898 196.025V202.433C80.1898 202.922 79.8107 203.317 79.3435 203.317Z" fill="#A5B9C4"/>
<path fill-rule="evenodd" clip-rule="evenodd" d="M79.3435 225.944C78.8759 225.944 78.4971 225.549 78.4971 225.06V207.504C78.4971 207.016 78.8759 206.62 79.3435 206.62C79.8109 206.62 80.1898 207.016 80.1898 207.504V225.06C80.1898 225.549 79.8109 225.944 79.3435 225.944Z" fill="#A5B9C4"/>
<path fill-rule="evenodd" clip-rule="evenodd" d="M83.8392 257.639H74.8538C74.3864 257.639 74.0073 257.243 74.0073 256.754V243.897C74.0073 240.82 76.4011 238.318 79.3433 238.318C82.2889 238.318 84.6856 240.82 84.6856 243.897V256.754C84.6856 257.243 84.3063 257.639 83.8392 257.639V257.639ZM75.7 255.87H82.9926V243.897C82.9926 241.796 81.3555 240.086 79.3433 240.086C77.3345 240.086 75.7 241.796 75.7 243.897V255.87Z" fill="#A5B9C4"/>
<path fill-rule="evenodd" clip-rule="evenodd" d="M83.8392 271.111H74.8538C74.3864 271.111 74.0073 270.715 74.0073 270.227V269.401C74.0073 266.325 76.4011 263.822 79.3433 263.822C82.2889 263.822 84.6856 266.325 84.6856 269.401V270.227C84.6856 270.715 84.3063 271.111 83.8392 271.111V271.111ZM75.7004 269.342H82.9923C82.9622 267.268 81.3367 265.591 79.3433 265.591C77.3532 265.591 75.7307 267.268 75.7004 269.342Z" fill="#A5B9C4"/>
<path fill-rule="evenodd" clip-rule="evenodd" d="M79.3435 257.639C78.8759 257.639 78.4971 257.243 78.4971 256.754V239.202C78.4971 238.714 78.8759 238.318 79.3435 238.318C79.8109 238.318 80.1898 238.714 80.1898 239.202V256.754C80.1898 257.243 79.8109 257.639 79.3435 257.639Z" fill="#A5B9C4"/>
<path fill-rule="evenodd" clip-rule="evenodd" d="M83.8392 245.521H74.8538C74.3864 245.521 74.0073 245.125 74.0073 244.636C74.0073 244.148 74.3864 243.752 74.8538 243.752H83.8392C84.3063 243.752 84.6856 244.148 84.6856 244.636C84.6856 245.125 84.3063 245.521 83.8392 245.521Z" fill="#A5B9C4"/>
<path fill-rule="evenodd" clip-rule="evenodd" d="M83.8392 251.103H74.8538C74.3864 251.103 74.0073 250.707 74.0073 250.219C74.0073 249.73 74.3864 249.334 74.8538 249.334H83.8392C84.3063 249.334 84.6856 249.73 84.6856 250.219C84.6856 250.707 84.3063 251.103 83.8392 251.103Z" fill="#A5B9C4"/>
<path fill-rule="evenodd" clip-rule="evenodd" d="M83.8392 196.909H74.8538C74.3864 196.909 74.0073 196.513 74.0073 196.025C74.0073 195.537 74.3864 195.141 74.8538 195.141H83.8392C84.3063 195.141 84.6856 195.537 84.6856 196.025C84.6856 196.513 84.3063 196.909 83.8392 196.909Z" fill="#A5B9C4"/>
<path fill-rule="evenodd" clip-rule="evenodd" d="M83.8392 213.961H74.8538C74.3864 213.961 74.0073 213.565 74.0073 213.076C74.0073 212.588 74.3864 212.192 74.8538 212.192H83.8392C84.3063 212.192 84.6856 212.588 84.6856 213.076C84.6856 213.565 84.3063 213.961 83.8392 213.961Z" fill="#A5B9C4"/>
<path fill-rule="evenodd" clip-rule="evenodd" d="M116.613 261.826H94.431C93.9635 261.826 93.5845 261.429 93.5845 260.941C93.5845 260.453 93.9635 260.057 94.431 260.057H116.613C117.08 260.057 117.458 260.453 117.458 260.941C117.458 261.429 117.08 261.826 116.613 261.826Z" fill="#A5B9C4"/>
<path fill-rule="evenodd" clip-rule="evenodd" d="M110.014 225.944H101.029C100.562 225.944 100.183 225.549 100.183 225.06V212.202C100.183 209.124 102.576 206.62 105.518 206.62C108.464 206.62 110.861 209.124 110.861 212.202V225.06C110.861 225.549 110.481 225.944 110.014 225.944V225.944ZM101.875 224.176H109.168V212.202C109.168 210.099 107.531 208.389 105.518 208.389C103.509 208.389 101.875 210.099 101.875 212.202V224.176Z" fill="#A5B9C4"/>
<path fill-rule="evenodd" clip-rule="evenodd" d="M110.014 203.317H101.029C100.562 203.317 100.183 202.922 100.183 202.433V196.025C100.183 192.949 102.576 190.446 105.518 190.446C108.464 190.446 110.861 192.949 110.861 196.025V202.433C110.861 202.922 110.481 203.317 110.014 203.317V203.317ZM101.875 201.549H109.168V196.025C109.168 193.924 107.531 192.215 105.518 192.215C103.509 192.215 101.875 193.924 101.875 196.025V201.549Z" fill="#A5B9C4"/>
<path fill-rule="evenodd" clip-rule="evenodd" d="M105.518 203.317C105.051 203.317 104.672 202.922 104.672 202.433V196.025C104.672 195.537 105.051 195.141 105.518 195.141C105.986 195.141 106.365 195.537 106.365 196.025V202.433C106.365 202.922 105.986 203.317 105.518 203.317Z" fill="#A5B9C4"/>
<path fill-rule="evenodd" clip-rule="evenodd" d="M105.518 225.944C105.051 225.944 104.672 225.549 104.672 225.06V207.504C104.672 207.016 105.051 206.62 105.518 206.62C105.986 206.62 106.365 207.016 106.365 207.504V225.06C106.365 225.549 105.986 225.944 105.518 225.944Z" fill="#A5B9C4"/>
<path fill-rule="evenodd" clip-rule="evenodd" d="M110.014 257.639H101.029C100.562 257.639 100.183 257.243 100.183 256.754V243.897C100.183 240.82 102.576 238.318 105.518 238.318C108.464 238.318 110.861 240.82 110.861 243.897V256.754C110.861 257.243 110.481 257.639 110.014 257.639V257.639ZM101.875 255.87H109.168V243.897C109.168 241.796 107.531 240.086 105.518 240.086C103.509 240.086 101.875 241.796 101.875 243.897V255.87Z" fill="#A5B9C4"/>
<path fill-rule="evenodd" clip-rule="evenodd" d="M110.014 271.111H101.029C100.562 271.111 100.183 270.715 100.183 270.227V269.401C100.183 266.325 102.576 263.822 105.518 263.822C108.464 263.822 110.861 266.325 110.861 269.401V270.227C110.861 270.715 110.481 271.111 110.014 271.111V271.111ZM101.876 269.342H109.167C109.137 267.268 107.511 265.591 105.518 265.591C103.528 265.591 101.906 267.268 101.876 269.342V269.342Z" fill="#A5B9C4"/>
<path fill-rule="evenodd" clip-rule="evenodd" d="M105.518 257.639C105.051 257.639 104.672 257.243 104.672 256.754V239.202C104.672 238.714 105.051 238.318 105.518 238.318C105.986 238.318 106.365 238.714 106.365 239.202V256.754C106.365 257.243 105.986 257.639 105.518 257.639Z" fill="#A5B9C4"/>
<path fill-rule="evenodd" clip-rule="evenodd" d="M110.014 245.521H101.029C100.562 245.521 100.183 245.125 100.183 244.636C100.183 244.148 100.562 243.752 101.029 243.752H110.014C110.481 243.752 110.861 244.148 110.861 244.636C110.861 245.125 110.481 245.521 110.014 245.521Z" fill="#A5B9C4"/>
<path fill-rule="evenodd" clip-rule="evenodd" d="M110.014 251.103H101.029C100.562 251.103 100.183 250.707 100.183 250.219C100.183 249.73 100.562 249.334 101.029 249.334H110.014C110.481 249.334 110.861 249.73 110.861 250.219C110.861 250.707 110.481 251.103 110.014 251.103Z" fill="#A5B9C4"/>
<path fill-rule="evenodd" clip-rule="evenodd" d="M110.014 196.909H101.029C100.562 196.909 100.183 196.513 100.183 196.025C100.183 195.537 100.562 195.141 101.029 195.141H110.014C110.481 195.141 110.861 195.537 110.861 196.025C110.861 196.513 110.481 196.909 110.014 196.909Z" fill="#A5B9C4"/>
<path fill-rule="evenodd" clip-rule="evenodd" d="M110.014 213.961H101.029C100.562 213.961 100.183 213.565 100.183 213.076C100.183 212.588 100.562 212.192 101.029 212.192H110.014C110.481 212.192 110.861 212.588 110.861 213.076C110.861 213.565 110.481 213.961 110.014 213.961Z" fill="#A5B9C4"/>
<path fill-rule="evenodd" clip-rule="evenodd" d="M38.0867 261.826H15.9046C15.4375 261.826 15.0586 261.429 15.0586 260.941C15.0586 260.453 15.4375 260.057 15.9046 260.057H38.0867C38.5539 260.057 38.9329 260.453 38.9329 260.941C38.9329 261.429 38.5539 261.826 38.0867 261.826V261.826Z" fill="#A5B9C4"/>
<path fill-rule="evenodd" clip-rule="evenodd" d="M11.9117 261.826H3.42249C2.95501 261.826 2.57617 261.429 2.57617 260.941C2.57617 260.453 2.95501 260.057 3.42249 260.057H11.9117C12.3795 260.057 12.7581 260.453 12.7581 260.941C12.7581 261.429 12.3795 261.826 11.9117 261.826Z" fill="#A5B9C4"/>
<path fill-rule="evenodd" clip-rule="evenodd" d="M31.4884 225.944H22.5036C22.0361 225.944 21.6572 225.549 21.6572 225.06V212.202C21.6572 209.124 24.0504 206.62 26.9922 206.62C29.9381 206.62 32.3347 209.124 32.3347 212.202V225.06C32.3347 225.549 31.9559 225.944 31.4884 225.944V225.944ZM23.3495 224.176H30.642V212.202C30.642 210.099 29.0048 208.389 26.9922 208.389C24.9837 208.389 23.3495 210.099 23.3495 212.202V224.176Z" fill="#A5B9C4"/>
<path fill-rule="evenodd" clip-rule="evenodd" d="M31.4884 203.317H22.5036C22.0361 203.317 21.6572 202.922 21.6572 202.433V196.025C21.6572 192.949 24.0504 190.446 26.9922 190.446C29.9381 190.446 32.3347 192.949 32.3347 196.025V202.433C32.3347 202.922 31.9559 203.317 31.4884 203.317V203.317ZM23.3495 201.549H30.642V196.025C30.642 193.924 29.0048 192.215 26.9922 192.215C24.9837 192.215 23.3495 193.924 23.3495 196.025V201.549Z" fill="#A5B9C4"/>
<path fill-rule="evenodd" clip-rule="evenodd" d="M26.9917 203.317C26.5246 203.317 26.1455 202.922 26.1455 202.433V196.025C26.1455 195.537 26.5246 195.141 26.9917 195.141C27.4596 195.141 27.8384 195.537 27.8384 196.025V202.433C27.8384 202.922 27.4596 203.317 26.9917 203.317Z" fill="#A5B9C4"/>
<path fill-rule="evenodd" clip-rule="evenodd" d="M26.9917 225.944C26.5246 225.944 26.1455 225.549 26.1455 225.06V207.504C26.1455 207.016 26.5246 206.62 26.9917 206.62C27.4596 206.62 27.8384 207.016 27.8384 207.504V225.06C27.8384 225.549 27.4596 225.944 26.9917 225.944Z" fill="#A5B9C4"/>
<path fill-rule="evenodd" clip-rule="evenodd" d="M31.4884 257.639H22.5036C22.0361 257.639 21.6572 257.243 21.6572 256.754V243.897C21.6572 240.82 24.0504 238.318 26.9922 238.318C29.9381 238.318 32.3347 240.82 32.3347 243.897V256.754C32.3347 257.243 31.9559 257.639 31.4884 257.639V257.639ZM23.3495 255.87H30.642V243.897C30.642 241.796 29.0048 240.086 26.9922 240.086C24.9837 240.086 23.3495 241.796 23.3495 243.897V255.87Z" fill="#A5B9C4"/>
<path fill-rule="evenodd" clip-rule="evenodd" d="M31.4884 271.111H22.5036C22.0361 271.111 21.6572 270.715 21.6572 270.227V269.401C21.6572 266.325 24.0504 263.822 26.9922 263.822C29.9381 263.822 32.3347 266.325 32.3347 269.401V270.227C32.3347 270.715 31.9559 271.111 31.4884 271.111V271.111ZM23.3503 269.342H30.6416C30.6116 267.268 28.986 265.591 26.9922 265.591C25.0019 265.591 23.3802 267.268 23.3503 269.342Z" fill="#A5B9C4"/>
<path fill-rule="evenodd" clip-rule="evenodd" d="M26.9917 257.639C26.5246 257.639 26.1455 257.243 26.1455 256.754V239.202C26.1455 238.714 26.5246 238.318 26.9917 238.318C27.4596 238.318 27.8384 238.714 27.8384 239.202V256.754C27.8384 257.243 27.4596 257.639 26.9917 257.639Z" fill="#A5B9C4"/>
<path fill-rule="evenodd" clip-rule="evenodd" d="M31.4884 245.521H22.5036C22.0361 245.521 21.6572 245.125 21.6572 244.636C21.6572 244.148 22.0361 243.752 22.5036 243.752H31.4884C31.9559 243.752 32.3347 244.148 32.3347 244.636C32.3347 245.125 31.9559 245.521 31.4884 245.521Z" fill="#A5B9C4"/>
<path fill-rule="evenodd" clip-rule="evenodd" d="M31.4884 251.103H22.5036C22.0361 251.103 21.6572 250.707 21.6572 250.219C21.6572 249.73 22.0361 249.334 22.5036 249.334H31.4884C31.9559 249.334 32.3347 249.73 32.3347 250.219C32.3347 250.707 31.9559 251.103 31.4884 251.103Z" fill="#A5B9C4"/>
<path fill-rule="evenodd" clip-rule="evenodd" d="M31.4884 196.909H22.5036C22.0361 196.909 21.6572 196.513 21.6572 196.025C21.6572 195.537 22.0361 195.141 22.5036 195.141H31.4884C31.9559 195.141 32.3347 195.537 32.3347 196.025C32.3347 196.513 31.9559 196.909 31.4884 196.909Z" fill="#A5B9C4"/>
<path fill-rule="evenodd" clip-rule="evenodd" d="M31.4884 213.961H22.5036C22.0361 213.961 21.6572 213.565 21.6572 213.076C21.6572 212.588 22.0361 212.192 22.5036 212.192H31.4884C31.9559 212.192 32.3347 212.588 32.3347 213.076C32.3347 213.565 31.9559 213.961 31.4884 213.961Z" fill="#A5B9C4"/>
<path fill-rule="evenodd" clip-rule="evenodd" d="M53.1681 184.193C51.5825 184.193 50.292 182.844 50.292 181.185C50.292 179.526 51.5825 178.176 53.1681 178.176C54.7578 178.176 56.0508 179.526 56.0508 181.185C56.0508 182.844 54.7578 184.193 53.1681 184.193ZM53.1681 179.945C52.516 179.945 51.9845 180.501 51.9845 181.185C51.9845 181.868 52.516 182.425 53.1681 182.425C53.8247 182.425 54.3581 181.868 54.3581 181.185C54.3581 180.501 53.8247 179.945 53.1681 179.945Z" fill="#A5B9C4"/>
<path fill-rule="evenodd" clip-rule="evenodd" d="M97.5049 206.129C97.0375 206.129 96.6587 205.733 96.6587 205.245V188.601C96.6587 188.113 97.0375 187.717 97.5049 187.717C97.9727 187.717 98.3516 188.113 98.3516 188.601V205.245C98.3516 205.733 97.9727 206.129 97.5049 206.129Z" fill="#A5B9C4"/>
<path fill-rule="evenodd" clip-rule="evenodd" d="M97.5049 210.737C97.0375 210.737 96.6587 210.341 96.6587 209.853V207.788C96.6587 207.299 97.0375 206.903 97.5049 206.903C97.9727 206.903 98.3516 207.299 98.3516 207.788V209.853C98.3516 210.341 97.9727 210.737 97.5049 210.737Z" fill="#A5B9C4"/>
<path fill-rule="evenodd" clip-rule="evenodd" d="M71.3764 206.129C70.9091 206.129 70.5303 205.733 70.5303 205.245V188.601C70.5303 188.113 70.9091 187.717 71.3764 187.717C71.8439 187.717 72.2228 188.113 72.2228 188.601V205.245C72.2228 205.733 71.8439 206.129 71.3764 206.129Z" fill="#A5B9C4"/>
<path fill-rule="evenodd" clip-rule="evenodd" d="M71.3764 210.737C70.9091 210.737 70.5303 210.341 70.5303 209.853V207.788C70.5303 207.299 70.9091 206.903 71.3764 206.903C71.8439 206.903 72.2228 207.299 72.2228 207.788V209.853C72.2228 210.341 71.8439 210.737 71.3764 210.737Z" fill="#A5B9C4"/>
<path fill-rule="evenodd" clip-rule="evenodd" d="M45.1942 206.129C44.7269 206.129 44.3477 205.733 44.3477 205.245V188.601C44.3477 188.113 44.7269 187.717 45.1942 187.717C45.6615 187.717 46.0404 188.113 46.0404 188.601V205.245C46.0404 205.733 45.6615 206.129 45.1942 206.129Z" fill="#A5B9C4"/>
<path fill-rule="evenodd" clip-rule="evenodd" d="M45.1942 210.737C44.7269 210.737 44.3477 210.341 44.3477 209.853V207.788C44.3477 207.299 44.7269 206.903 45.1942 206.903C45.6615 206.903 46.0404 207.299 46.0404 207.788V209.853C46.0404 210.341 45.6615 210.737 45.1942 210.737Z" fill="#A5B9C4"/>
<path fill-rule="evenodd" clip-rule="evenodd" d="M18.9589 206.129C18.492 206.129 18.1133 205.733 18.1133 205.245V188.601C18.1133 188.113 18.492 187.717 18.9589 187.717C19.4268 187.717 19.8055 188.113 19.8055 188.601V205.245C19.8055 205.733 19.4268 206.129 18.9589 206.129Z" fill="#A5B9C4"/>
<path fill-rule="evenodd" clip-rule="evenodd" d="M18.9589 210.737C18.492 210.737 18.1133 210.341 18.1133 209.853V207.788C18.1133 207.299 18.492 206.903 18.9589 206.903C19.4268 206.903 19.8055 207.299 19.8055 207.788V209.853C19.8055 210.341 19.4268 210.737 18.9589 210.737Z" fill="#A5B9C4"/>
<path fill-rule="evenodd" clip-rule="evenodd" d="M107.713 219.736C107.48 219.736 107.29 219.538 107.29 219.294V215.166C107.29 214.922 107.48 214.724 107.713 214.724C107.947 214.724 108.137 214.922 108.137 215.166V219.294C108.137 219.538 107.947 219.736 107.713 219.736V219.736Z" fill="#A5B9C4"/>
<path fill-rule="evenodd" clip-rule="evenodd" d="M81.5844 219.736C81.3507 219.736 81.1611 219.538 81.1611 219.294V215.166C81.1611 214.922 81.3507 214.724 81.5844 214.724C81.818 214.724 82.0073 214.922 82.0073 215.166V219.294C82.0073 219.538 81.818 219.736 81.5844 219.736V219.736Z" fill="#A5B9C4"/>
<path fill-rule="evenodd" clip-rule="evenodd" d="M55.2439 219.736C55.0102 219.736 54.8208 219.538 54.8208 219.294V215.166C54.8208 214.922 55.0102 214.724 55.2439 214.724C55.4776 214.724 55.6666 214.922 55.6666 215.166V219.294C55.6666 219.538 55.4776 219.736 55.2439 219.736V219.736Z" fill="#A5B9C4"/>
<path fill-rule="evenodd" clip-rule="evenodd" d="M29.1682 219.736C28.9348 219.736 28.7451 219.538 28.7451 219.294V215.166C28.7451 214.922 28.9348 214.724 29.1682 214.724C29.4015 214.724 29.5913 214.922 29.5913 215.166V219.294C29.5913 219.538 29.4015 219.736 29.1682 219.736V219.736Z" fill="#A5B9C4"/>
<path fill-rule="evenodd" clip-rule="evenodd" d="M228.359 262.27C227.911 262.27 227.469 262.058 227.179 261.655C225.26 258.983 222.968 257.409 220.552 257.103C218.729 256.873 216.901 257.41 215.536 258.578C214.905 259.116 213.978 259.019 213.462 258.361C212.947 257.703 213.04 256.733 213.669 256.194C215.653 254.498 218.291 253.716 220.906 254.046C223.16 254.331 226.487 255.562 229.536 259.805C230.025 260.486 229.893 261.451 229.242 261.961C228.977 262.169 228.667 262.27 228.359 262.27V262.27Z" fill="#A5B9C4"/>
<path fill-rule="evenodd" clip-rule="evenodd" d="M216.621 262.558C215.861 262.558 215.216 261.948 215.154 261.142C215.006 259.229 212.377 257.182 210.109 256.541C208.133 255.983 204.35 255.75 201.216 260.455C200.751 261.153 199.833 261.325 199.165 260.839C198.497 260.353 198.333 259.393 198.797 258.696C200.423 256.256 202.401 254.597 204.678 253.763C206.641 253.045 208.785 252.978 210.878 253.569C214.753 254.663 217.854 257.812 218.091 260.895C218.156 261.743 217.552 262.485 216.74 262.553C216.7 262.557 216.66 262.558 216.621 262.558V262.558Z" fill="#A5B9C4"/>
<path fill-rule="evenodd" clip-rule="evenodd" d="M185.243 260.36C185.043 260.36 184.841 260.318 184.646 260.227C183.902 259.882 183.567 258.972 183.898 258.195C185.335 254.814 188.893 252.436 192.962 252.137C196.964 251.842 200.538 253.647 202.523 256.964C202.953 257.685 202.744 258.635 202.054 259.086C201.364 259.537 200.455 259.317 200.023 258.596C198.606 256.227 196.109 254.991 193.17 255.208C190.22 255.425 187.576 257.128 186.591 259.446C186.346 260.019 185.808 260.36 185.243 260.36V260.36Z" fill="#A5B9C4"/>
<path fill-rule="evenodd" clip-rule="evenodd" d="M193.796 255.008C193.153 255.008 192.563 254.565 192.379 253.887C191.881 252.045 190.989 250.535 189.728 249.399C188.636 248.415 187.27 247.724 185.776 247.402C182.929 246.788 180.476 247.635 179.614 248.744C179.1 249.403 178.172 249.504 177.541 248.967C176.91 248.431 176.814 247.461 177.327 246.801C178.2 245.68 179.561 244.861 181.262 244.434C182.872 244.029 184.638 244.013 186.371 244.387C190.758 245.333 193.981 248.49 195.215 253.049C195.436 253.867 194.981 254.718 194.198 254.949C194.064 254.989 193.929 255.008 193.796 255.008V255.008Z" fill="#A5B9C4"/>
<path fill-rule="evenodd" clip-rule="evenodd" d="M163.321 252.205C163.053 252.205 162.782 252.129 162.538 251.968C161.849 251.515 161.642 250.564 162.076 249.845C163.416 247.62 165.155 245.978 167.244 244.964C169.078 244.075 171.138 243.713 173.2 243.918C177.051 244.301 180.398 246.596 181.53 249.627C181.825 250.42 181.451 251.312 180.693 251.621C179.934 251.93 179.08 251.539 178.784 250.746C178.058 248.802 175.647 247.255 172.921 246.983C169.54 246.647 166.496 248.288 164.57 251.485C164.29 251.95 163.811 252.205 163.321 252.205Z" fill="#A5B9C4"/>
<path fill-rule="evenodd" clip-rule="evenodd" d="M147.655 261.852C147.004 261.852 146.408 261.397 146.233 260.708C145.486 257.777 145.773 254.949 147.061 252.53C148.201 250.388 150.103 248.659 152.414 247.663C154.765 246.648 157.355 246.459 159.705 247.13C162.341 247.882 164.482 249.633 165.894 252.194C166.3 252.931 166.058 253.872 165.353 254.297C164.648 254.721 163.747 254.468 163.34 253.731C162.325 251.889 160.799 250.634 158.929 250.1C157.205 249.608 155.29 249.753 153.538 250.509C151.84 251.241 150.454 252.491 149.636 254.027C148.726 255.735 148.534 257.771 149.08 259.916C149.289 260.738 148.822 261.581 148.035 261.8C147.909 261.835 147.781 261.852 147.655 261.852V261.852Z" fill="#A5B9C4"/>
<path fill-rule="evenodd" clip-rule="evenodd" d="M142.909 269.405C142.884 269.405 142.859 269.405 142.833 269.403C142.021 269.36 141.395 268.637 141.437 267.787C141.586 264.722 142.513 262.38 144.193 260.828C146.31 258.872 149.015 258.76 150.438 258.866C151.25 258.927 151.861 259.664 151.802 260.513C151.744 261.361 151.038 261.998 150.227 261.938C149.265 261.865 147.454 261.924 146.145 263.135C145.081 264.118 144.487 265.736 144.379 267.944C144.339 268.766 143.689 269.405 142.909 269.405V269.405Z" fill="#A5B9C4"/>
<path fill-rule="evenodd" clip-rule="evenodd" d="M170.99 254.587C170.953 254.587 170.917 254.584 170.881 254.578C170.478 254.516 170.2 254.124 170.26 253.704C170.444 252.4 171.394 251.445 172.737 251.212C173.986 250.996 175.14 251.49 175.609 252.442C175.795 252.819 175.653 253.284 175.291 253.478C174.93 253.673 174.485 253.525 174.299 253.146C174.132 252.808 173.564 252.63 172.978 252.731C172.715 252.777 171.85 252.997 171.717 253.929C171.663 254.312 171.348 254.587 170.99 254.587Z" fill="#A5B9C4"/>
<path fill-rule="evenodd" clip-rule="evenodd" d="M178.051 255.771C178.014 255.771 177.976 255.768 177.937 255.762C177.536 255.697 177.26 255.304 177.322 254.884C177.423 254.204 177.157 253.446 176.336 253.285C175.84 253.187 175.248 253.375 175.075 254.193C174.987 254.609 174.593 254.871 174.196 254.779C173.799 254.687 173.548 254.276 173.636 253.861C173.802 253.08 174.203 252.469 174.798 252.094C175.327 251.761 175.97 251.647 176.608 251.772C177.895 252.025 179.054 253.255 178.778 255.119C178.722 255.499 178.408 255.771 178.051 255.771V255.771Z" fill="#A5B9C4"/>
<path fill-rule="evenodd" clip-rule="evenodd" d="M191.534 264.729C191.149 264.73 190.825 264.416 190.8 264.008C190.75 263.18 190.001 262.918 189.773 262.857C189.275 262.725 188.759 262.833 188.597 263.103C188.381 263.463 187.926 263.572 187.581 263.346C187.237 263.12 187.132 262.645 187.349 262.285C187.862 261.429 188.982 261.059 190.135 261.365C191.378 261.694 192.196 262.67 192.271 263.911C192.296 264.335 191.988 264.701 191.582 264.728C191.566 264.729 191.55 264.729 191.534 264.729V264.729Z" fill="#A5B9C4"/>
<path fill-rule="evenodd" clip-rule="evenodd" d="M184.968 265.238C184.584 265.238 184.261 264.928 184.233 264.522C184.112 262.75 185.295 261.691 186.524 261.56C187.135 261.495 187.732 261.657 188.204 262.014C188.737 262.417 189.069 263.026 189.163 263.774C189.217 264.195 188.933 264.583 188.53 264.638C188.126 264.693 187.756 264.398 187.703 263.976C187.584 263.043 186.825 263.076 186.674 263.092C186.188 263.144 185.642 263.521 185.703 264.413C185.732 264.837 185.426 265.205 185.021 265.235C185.003 265.237 184.985 265.238 184.968 265.238V265.238Z" fill="#A5B9C4"/>
<path fill-rule="evenodd" clip-rule="evenodd" d="M164.812 264.877C164.463 264.877 164.152 264.616 164.088 264.244C163.961 263.512 164.109 262.81 164.518 262.215C164.869 261.703 165.393 261.31 165.994 261.109C167.267 260.683 168.48 261.192 169.014 262.375C169.187 262.759 169.029 263.218 168.661 263.399C168.293 263.58 167.854 263.415 167.681 263.031C167.364 262.329 166.653 262.505 166.443 262.575C166.04 262.71 165.396 263.155 165.538 263.969C165.611 264.388 165.345 264.788 164.945 264.864C164.9 264.873 164.856 264.877 164.812 264.877V264.877Z" fill="#A5B9C4"/>
<path fill-rule="evenodd" clip-rule="evenodd" d="M167.674 262.712C167.612 262.712 167.55 262.704 167.488 262.687C167.094 262.58 166.858 262.159 166.961 261.748C167.289 260.431 168.364 259.561 169.768 259.479C171.069 259.402 172.196 260.039 172.574 261.064C172.72 261.461 172.53 261.906 172.151 262.059C171.771 262.211 171.345 262.014 171.199 261.617C171.059 261.237 170.48 260.979 169.851 261.016C169.569 261.033 168.629 261.162 168.386 262.136C168.3 262.482 168.001 262.712 167.674 262.712V262.712Z" fill="#A5B9C4"/>
<path fill-rule="evenodd" clip-rule="evenodd" d="M203.73 265.039C203.344 265.039 203.02 264.726 202.996 264.318C202.93 263.226 203.602 262.173 204.668 261.697C205.754 261.212 206.91 261.456 207.685 262.334C207.961 262.647 207.942 263.134 207.643 263.422C207.344 263.71 206.878 263.69 206.602 263.378C206.104 262.814 205.489 263.004 205.247 263.113C204.849 263.29 204.436 263.713 204.466 264.221C204.491 264.645 204.183 265.011 203.777 265.038C203.761 265.039 203.745 265.039 203.73 265.039V265.039Z" fill="#A5B9C4"/>
<path fill-rule="evenodd" clip-rule="evenodd" d="M206.574 263.181C206.507 263.181 206.439 263.171 206.371 263.151C205.98 263.034 205.754 262.608 205.866 262.199C206.152 261.153 207.035 260.422 208.17 260.293C209.174 260.179 210.065 260.571 210.439 261.293C210.633 261.667 210.5 262.134 210.142 262.336C209.784 262.539 209.336 262.399 209.143 262.025C209.091 261.926 208.776 261.772 208.33 261.824C208.129 261.846 207.46 261.972 207.282 262.623C207.189 262.961 206.894 263.181 206.574 263.181V263.181Z" fill="#A5B9C4"/>
<path fill-rule="evenodd" clip-rule="evenodd" d="M156.797 256.974C156.741 256.974 156.684 256.968 156.628 256.954C156.232 256.856 155.986 256.442 156.079 256.028C156.341 254.866 157.233 254.059 158.406 253.923C159.562 253.79 160.645 254.362 161.103 255.348C161.28 255.731 161.127 256.191 160.761 256.377C160.395 256.562 159.954 256.402 159.777 256.02C159.563 255.56 159.001 255.403 158.568 255.453C158.307 255.484 157.681 255.635 157.514 256.38C157.434 256.735 157.131 256.974 156.797 256.974Z" fill="#A5B9C4"/>
<path fill-rule="evenodd" clip-rule="evenodd" d="M153.93 257.281C153.529 257.281 153.2 256.944 153.194 256.524C153.181 255.705 153.772 254.909 154.699 254.495C155.749 254.026 156.861 254.211 157.602 254.977C157.892 255.277 157.894 255.764 157.608 256.066C157.321 256.368 156.855 256.371 156.566 256.072C156.104 255.595 155.463 255.828 155.278 255.91C154.868 256.093 154.665 256.386 154.667 256.498C154.674 256.923 154.349 257.273 153.942 257.28C153.938 257.28 153.934 257.281 153.93 257.281L153.93 257.281Z" fill="#A5B9C4"/>
</svg>
