<svg width="200" height="174" viewBox="0 0 200 174" fill="none" xmlns="http://www.w3.org/2000/svg">
<g opacity="0.4">
<rect x="103.562" y="128.018" width="23.0137" height="21.6804" fill="#2CA7E0"/>
<rect x="103.562" y="98.5944" width="23.0137" height="21.6804" fill="#2CA7E0"/>
<rect x="72.3289" y="128.018" width="23.0137" height="21.6804" fill="#2CA7E0"/>
<rect x="72.3289" y="98.5944" width="23.0137" height="21.6804" fill="#2CA7E0"/>
<rect x="164.384" y="89.3027" width="11.5068" height="84.6569" fill="#D70951"/>
<rect x="24.1096" y="89.3027" width="11.5068" height="84.6569" fill="#2CA7E0"/>
<rect width="10.8402" height="35.2788" transform="matrix(-0.00128798 0.999999 -0.999999 -0.00114307 199.677 163.16)" fill="#D70951"/>
<rect width="10.8402" height="35.2788" transform="matrix(-0.00128798 0.999999 -0.999999 -0.00114307 35.293 163.16)" fill="#2CA7E0"/>
<path d="M86.8495 44.9095L95.863 51.4468L31.0528 97.6442L24.1097 88.9997L86.8495 44.9095Z" fill="#2CA7E0"/>
<path d="M86.0275 20.3899L94.7041 26.8282L6.94314 89.3851L7.6454e-05 80.7406L86.0275 20.3899Z" fill="url(#paint0_linear_1_3825)"/>
<path d="M152.285 0.145432L159.228 8.78996L111.233 42.3285L101.918 36.0479L152.285 0.145432Z" fill="#2CA7E0"/>
<path d="M107.702 53.1528L117.808 46.2L175.639 88.9853L168.596 97.5575L107.702 53.1528Z" fill="#D70951"/>
<rect x="188.493" y="173.96" width="173.96" height="11.5068" transform="rotate(-90 188.493 173.96)" fill="url(#paint1_linear_1_3825)"/>
<rect x="0.000244141" y="173.96" width="92.9161" height="11.5068" transform="rotate(-90 0.000244141 173.96)" fill="url(#paint2_linear_1_3825)"/>
<rect x="199.452" y="10.8402" width="47.1233" height="10.8402" transform="rotate(-180 199.452 10.8402)" fill="url(#paint3_linear_1_3825)"/>
</g>
<defs>
<linearGradient id="paint0_linear_1_3825" x1="91.2325" y1="22.506" x2="7.3435" y2="89.8836" gradientUnits="userSpaceOnUse">
<stop stop-color="#E50C6F"/>
<stop offset="1" stop-color="#2783BC"/>
</linearGradient>
<linearGradient id="paint1_linear_1_3825" x1="352.015" y1="179.713" x2="255.817" y2="247.917" gradientUnits="userSpaceOnUse">
<stop stop-color="#2783BC"/>
<stop offset="1" stop-color="#D50850"/>
</linearGradient>
<linearGradient id="paint2_linear_1_3825" x1="87.3414" y1="179.713" x2="19.8149" y2="205.285" gradientUnits="userSpaceOnUse">
<stop stop-color="#2783BC"/>
<stop offset="1" stop-color="#2CA7E0"/>
</linearGradient>
<linearGradient id="paint3_linear_1_3825" x1="243.748" y1="16.2603" x2="206.153" y2="23.9248" gradientUnits="userSpaceOnUse">
<stop stop-color="#2CA7E0"/>
<stop offset="1" stop-color="#2783BC"/>
</linearGradient>
</defs>
</svg>
