<svg width="453" height="197" viewBox="0 0 453 197" fill="none" xmlns="http://www.w3.org/2000/svg">
<path fill-rule="evenodd" clip-rule="evenodd" d="M200.208 73.8344C199.532 73.8344 198.983 73.3309 198.983 72.7098C198.983 72.0885 199.532 71.5852 200.208 71.5852C201.995 71.5852 203.513 70.5073 204.032 69.0221H199.304C198.627 69.0221 198.079 68.5184 198.079 67.8974C198.079 67.2762 198.627 66.7729 199.304 66.7729H205.447C206.124 66.7729 206.672 67.2762 206.672 67.8974C206.672 71.1708 203.772 73.8344 200.208 73.8344Z" fill="#A5B9C4"/>
<path fill-rule="evenodd" clip-rule="evenodd" d="M199.289 47.1098C198.613 47.1098 198.064 46.6063 198.064 45.9852C198.064 45.3643 198.613 44.8607 199.289 44.8607C201.076 44.8607 202.594 43.7838 203.113 42.2997H198.385C197.709 42.2997 197.16 41.7961 197.16 41.175C197.16 40.5539 197.709 40.0505 198.385 40.0505H204.528C205.205 40.0505 205.753 40.5539 205.753 41.175C205.753 44.4475 202.854 47.1098 199.289 47.1098Z" fill="#A5B9C4"/>
<path fill-rule="evenodd" clip-rule="evenodd" d="M184.615 60.4734C181.051 60.4734 178.151 57.8101 178.151 54.5364C178.151 53.9153 178.7 53.4117 179.376 53.4117H185.519C186.196 53.4117 186.744 53.9153 186.744 54.5364C186.744 55.1573 186.196 55.6609 185.519 55.6609H180.792C181.311 57.1461 182.829 58.2241 184.615 58.2241C185.292 58.2241 185.84 58.7275 185.84 59.3487C185.84 59.9697 185.292 60.4734 184.615 60.4734Z" fill="#A5B9C4"/>
<path fill-rule="evenodd" clip-rule="evenodd" d="M196.007 25.5712C195.331 25.5712 194.782 25.0679 194.782 24.4467V20.2692C194.782 20.1165 194.647 19.9925 194.481 19.9925H189.911C189.745 19.9925 189.615 20.114 189.615 20.2692V24.4467C189.615 25.0679 189.067 25.5712 188.39 25.5712C187.714 25.5712 187.166 25.0679 187.166 24.4467V20.2692C187.166 18.8765 188.397 17.7433 189.911 17.7433H194.481C195.998 17.7433 197.232 18.8765 197.232 20.2692V24.4467C197.232 25.0679 196.684 25.5712 196.007 25.5712Z" fill="#A5B9C4"/>
<path fill-rule="evenodd" clip-rule="evenodd" d="M186.38 31.7565C186.1 31.7567 185.817 31.6684 185.587 31.4883L178.032 25.5842C177.641 25.2786 177.499 24.7818 177.677 24.3393C177.854 23.897 178.313 23.6032 178.826 23.6032H205.567C206.08 23.6032 206.539 23.8969 206.716 24.3391C206.893 24.7815 206.752 25.2783 206.361 25.5839L198.811 31.488C198.296 31.8908 197.523 31.834 197.085 31.3611C196.646 30.8882 196.708 30.1784 197.223 29.7759L202.24 25.8523H182.155L187.175 29.7756C187.69 30.1781 187.752 30.8878 187.314 31.361C187.071 31.6221 186.727 31.7565 186.38 31.7565V31.7565Z" fill="#A5B9C4"/>
<path fill-rule="evenodd" clip-rule="evenodd" d="M199.662 79.4993C199.003 79.4993 198.459 79.019 198.438 78.4102L196.83 31.7566H187.569L186.146 75.3159C186.126 75.9251 185.581 76.4067 184.922 76.4067C184.91 76.4067 184.897 76.4065 184.885 76.4062C184.209 76.3874 183.677 75.8691 183.697 75.2485L185.156 30.5983C185.176 29.9905 185.719 29.5073 186.381 29.5073H198.017C198.678 29.5073 199.22 29.9894 199.241 30.5963L200.887 78.339C200.908 78.9599 200.377 79.4791 199.701 79.4986C199.688 79.4991 199.675 79.4991 199.662 79.4991V79.4993Z" fill="#A5B9C4"/>
<path fill-rule="evenodd" clip-rule="evenodd" d="M195.147 60.2582C194.922 60.2582 194.706 60.1442 194.598 59.9472C194.447 59.6693 194.57 59.3316 194.872 59.1927L196.25 58.5603C196.553 58.4213 196.921 58.5341 197.072 58.8118C197.223 59.0897 197.1 59.4275 196.798 59.5664L195.42 60.1987C195.332 60.2389 195.239 60.2582 195.147 60.2582Z" fill="#A5B9C4"/>
<path fill-rule="evenodd" clip-rule="evenodd" d="M192.199 56.0408C191.122 56.0408 190.247 55.2366 190.247 54.2482C190.247 53.2601 191.122 52.4563 192.199 52.4563C193.275 52.4563 194.151 53.2601 194.151 54.2482C194.151 55.2366 193.275 56.0408 192.199 56.0408V56.0408ZM192.199 53.581C191.798 53.581 191.472 53.8803 191.472 54.2482C191.472 54.6166 191.798 54.9161 192.199 54.9161C192.6 54.9161 192.926 54.6166 192.926 54.2482C192.926 53.8803 192.6 53.581 192.199 53.581Z" fill="#A5B9C4"/>
<path fill-rule="evenodd" clip-rule="evenodd" d="M192.199 63.2098C191.861 63.2098 191.586 62.9582 191.586 62.6475V55.4782C191.586 55.1677 191.861 54.916 192.199 54.916C192.537 54.916 192.811 55.1677 192.811 55.4782V62.6475C192.811 62.9582 192.537 63.2098 192.199 63.2098Z" fill="#A5B9C4"/>
<path fill-rule="evenodd" clip-rule="evenodd" d="M192.198 63.5966C189.476 63.5966 187.261 61.5629 187.261 59.0633C187.261 58.7527 187.535 58.501 187.873 58.501C188.212 58.501 188.486 58.7527 188.486 59.0633C188.486 60.943 190.152 62.4721 192.198 62.4721C194.246 62.4721 195.911 60.943 195.911 59.0633C195.911 58.7527 196.185 58.501 196.524 58.501C196.862 58.501 197.136 58.7527 197.136 59.0633C197.136 61.5629 194.921 63.5966 192.198 63.5966V63.5966Z" fill="#A5B9C4"/>
<path fill-rule="evenodd" clip-rule="evenodd" d="M189.251 60.2582C189.159 60.2582 189.066 60.2389 188.978 60.1987L187.6 59.5664C187.297 59.4275 187.174 59.0897 187.326 58.8118C187.477 58.534 187.845 58.4213 188.147 58.5603L189.525 59.1927C189.828 59.3317 189.95 59.6693 189.799 59.9472C189.692 60.1442 189.476 60.2582 189.251 60.2582V60.2582Z" fill="#A5B9C4"/>
<path fill-rule="evenodd" clip-rule="evenodd" d="M188.074 12.8558C187.946 12.8558 187.817 12.8193 187.707 12.7434C186.266 11.7515 185.504 10.3146 185.501 8.58804C185.497 6.00184 187.258 3.04251 189.882 1.22465C190.088 1.08229 190.369 1.07333 190.584 1.20185C190.801 1.33058 190.906 1.56944 190.848 1.79974C190.477 3.27878 191.067 4.63951 191.693 5.77548C191.846 6.05268 191.724 6.39072 191.422 6.53101C191.121 6.67114 190.752 6.55993 190.6 6.28304C189.839 4.90287 189.562 3.84697 189.512 3.01495C187.805 4.60235 186.723 6.71431 186.726 8.58643C186.728 9.94571 187.321 11.0721 188.442 11.8437C188.713 12.0301 188.767 12.3825 188.564 12.6309C188.444 12.7783 188.26 12.8558 188.074 12.8558V12.8558Z" fill="#A5B9C4"/>
<path fill-rule="evenodd" clip-rule="evenodd" d="M192.342 16.9112C192.222 16.9112 192.101 16.9086 191.979 16.9034C190.981 16.864 190.045 16.429 189.272 15.6452C188.328 14.6878 187.716 13.2505 187.783 12.15C187.876 10.723 188.744 9.28159 189.663 7.75544C190.995 5.54528 192.371 3.25981 191.731 0.687558C191.674 0.457255 191.779 0.218351 191.995 0.0902952C192.211 -0.0382787 192.492 -0.0286923 192.697 0.113615C196.464 2.72759 198.851 7.05132 198.502 10.6284C198.112 14.6397 195.875 16.9112 192.342 16.9112V16.9112ZM193.117 1.9151C193.149 4.29136 191.879 6.40098 190.735 8.29954C189.885 9.7111 189.082 11.0444 189.006 12.2151C188.963 12.9089 189.353 14.0519 190.18 14.8904C190.562 15.2779 191.194 15.7468 192.033 15.78C193.771 15.8536 195.105 15.31 196 14.1629C196.877 13.0393 197.181 11.5662 197.282 10.5283C197.436 8.94723 196.993 7.18383 196.002 5.42868C195.271 4.13522 194.271 2.92208 193.117 1.9151V1.9151Z" fill="#A5B9C4"/>
<path fill-rule="evenodd" clip-rule="evenodd" d="M195.49 48.14C195.161 48.14 194.89 47.9005 194.879 47.5967L194.371 33.7503C194.36 33.4397 194.625 33.1796 194.963 33.1693C195.303 33.1609 195.584 33.4021 195.596 33.7122L196.103 47.5588C196.114 47.8692 195.849 48.1292 195.511 48.1397C195.504 48.1398 195.497 48.14 195.49 48.14V48.14Z" fill="#A5B9C4"/>
<path fill-rule="evenodd" clip-rule="evenodd" d="M195.734 51.7049C195.409 51.7049 195.138 51.4699 195.123 51.1685L195.06 49.9232C195.045 49.6129 195.306 49.3498 195.644 49.3356C195.984 49.3197 196.268 49.5614 196.284 49.8715L196.346 51.1169C196.362 51.427 196.1 51.6901 195.763 51.7044C195.753 51.7048 195.744 51.7049 195.734 51.7049V51.7049Z" fill="#A5B9C4"/>
<path fill-rule="evenodd" clip-rule="evenodd" d="M192.515 14.7999C192.176 14.7999 191.902 14.5481 191.902 14.2374C191.902 13.9271 192.176 13.6753 192.515 13.6753C192.824 13.6753 193.217 13.5644 193.324 13.5149C193.593 13.3474 193.961 13.4019 194.157 13.6429C194.36 13.8915 194.305 14.2438 194.035 14.4302C193.782 14.6047 193.078 14.7999 192.515 14.7999V14.7999ZM193.316 13.5203C193.31 13.5239 193.305 13.5275 193.3 13.5306C193.305 13.5269 193.31 13.5235 193.316 13.5203Z" fill="#A5B9C4"/>
<path fill-rule="evenodd" clip-rule="evenodd" d="M194.944 13.3587C194.84 13.3587 194.734 13.3342 194.637 13.2826C194.345 13.1267 194.246 12.7827 194.415 12.514C194.615 12.1983 195.516 9.45701 193.673 6.62284C193.499 6.35621 193.594 6.01102 193.885 5.85176C194.175 5.69251 194.551 5.77952 194.725 6.0461C196.735 9.13794 195.978 12.283 195.475 13.0787C195.361 13.2585 195.156 13.3587 194.944 13.3587V13.3587Z" fill="#A5B9C4"/>
<path fill-rule="evenodd" clip-rule="evenodd" d="M36.046 85.146C35.7627 85.146 35.4781 85.0562 35.2467 84.8731C33.9395 83.838 33.8042 81.8266 34.9246 80.0901C35.6009 79.0421 36.6624 78.2506 37.9127 77.8613C39.3687 77.4083 41.0039 77.4866 42.7723 78.0942C43.4059 78.3119 43.7273 78.9599 43.49 79.5417C43.253 80.1233 42.5471 80.4183 41.9137 80.2007C40.688 79.7797 39.6063 79.7093 38.699 79.9915C37.8063 80.2693 37.2997 80.8221 37.0322 81.2368C36.4816 82.0897 36.5531 82.9375 36.8466 83.1697C37.3588 83.5755 37.416 84.2856 36.9743 84.7558C36.7316 85.0136 36.3902 85.146 36.046 85.146V85.146Z" fill="#A5B9C4"/>
<path fill-rule="evenodd" clip-rule="evenodd" d="M54.1951 79.5782C53.7255 79.5782 53.2779 79.3292 53.0749 78.9098C52.2558 77.2168 50.0564 75.973 47.602 75.8149C45.1596 75.6571 43.0842 76.5597 41.9085 78.289C41.5505 78.816 40.7948 78.9765 40.2209 78.6476C39.6474 78.3188 39.4727 77.6252 39.8306 77.0984C41.4772 74.6758 44.4468 73.3578 47.7732 73.5713C51.1589 73.7893 54.1187 75.5264 55.3136 77.997C55.5882 78.5646 55.3098 79.2291 54.6916 79.4811C54.5299 79.5471 54.3611 79.5782 54.1951 79.5782V79.5782Z" fill="#A5B9C4"/>
<path fill-rule="evenodd" clip-rule="evenodd" d="M47.085 75.6685C46.9751 75.6685 46.8634 75.6549 46.7519 75.6261C46.101 75.4576 45.722 74.8362 45.9057 74.2384C46.9284 70.9094 49.606 68.6033 53.2521 67.9114C54.6934 67.6379 56.1632 67.6494 57.5027 67.9443C58.9186 68.2565 60.0505 68.8547 60.7762 69.6744C61.2031 70.1564 61.1234 70.8646 60.5983 71.2565C60.0735 71.6482 59.3021 71.575 58.8754 71.093C58.1579 70.283 56.1175 69.6647 53.7481 70.114C52.5061 70.3498 51.3707 70.854 50.4644 71.5722C49.4167 72.4023 48.6765 73.5048 48.2633 74.8491C48.1112 75.3448 47.6199 75.6685 47.085 75.6685V75.6685Z" fill="#A5B9C4"/>
<path fill-rule="evenodd" clip-rule="evenodd" d="M72.4197 73.6212C72.0128 73.6212 71.6148 73.4354 71.3821 73.0957C69.781 70.76 67.2507 69.5624 64.4391 69.8072C62.1729 70.0054 60.1685 71.1358 59.5649 72.5561C59.3193 73.1347 58.609 73.4207 57.9787 73.1951C57.3486 72.9693 57.0369 72.3174 57.2829 71.7387C58.2238 69.5242 61.0064 67.8482 64.207 67.5683C65.9221 67.4182 67.6342 67.6826 69.1587 68.3325C70.8957 69.073 72.3413 70.2725 73.4553 71.8976C73.8157 72.4231 73.6435 73.1177 73.0711 73.4483C72.8684 73.5655 72.6427 73.6212 72.4197 73.6212V73.6212Z" fill="#A5B9C4"/>
<path fill-rule="evenodd" clip-rule="evenodd" d="M85.4462 76.7955C84.9189 76.7955 84.4316 76.4801 84.273 75.9923C83.9207 74.9086 83.1839 73.9494 82.1417 73.2186C81.1418 72.5175 79.888 72.0557 78.6105 71.9187C77.3884 71.7874 76.1903 71.9507 75.1461 72.3904C74 72.8725 73.077 73.6618 72.4035 74.7361C72.0656 75.2745 71.3167 75.4593 70.7308 75.1493C70.1446 74.8392 69.9429 74.1518 70.2807 73.6135C71.2008 72.1471 72.53 71.017 74.1252 70.3457C75.5777 69.7343 77.2264 69.5056 78.8946 69.6848C80.6275 69.8706 82.2646 70.4747 83.6287 71.4311C85.0846 72.4524 86.1192 73.8071 86.6204 75.3488C86.8136 75.9439 86.4449 76.5708 85.7968 76.7482C85.6799 76.7802 85.5621 76.7955 85.4462 76.7955V76.7955Z" fill="#A5B9C4"/>
<path fill-rule="evenodd" clip-rule="evenodd" d="M66.973 75.8616C66.6745 75.8616 66.413 75.6611 66.3681 75.3815C66.2584 74.7004 65.5393 74.5394 65.3213 74.506C64.8332 74.4318 64.3606 74.5624 64.2217 74.8102C64.067 75.0863 63.6978 75.195 63.3968 75.0527C63.0962 74.9105 62.978 74.5712 63.1327 74.2952C63.5231 73.5995 64.4829 73.2384 65.522 73.3967C66.6377 73.5667 67.4264 74.2642 67.5796 75.2173C67.6291 75.5244 67.3981 75.8102 67.0632 75.8556C67.033 75.8598 67.0028 75.8616 66.973 75.8616Z" fill="#A5B9C4"/>
<path fill-rule="evenodd" clip-rule="evenodd" d="M61.1071 76.7273C60.8107 76.7273 60.5502 76.5294 60.5028 76.2521C60.2703 74.8897 61.2326 73.9893 62.3038 73.8038C62.8355 73.7116 63.3705 73.7955 63.8104 74.0392C64.3056 74.3136 64.64 74.7607 64.7777 75.332C64.8507 75.6353 64.6417 75.9354 64.3116 76.0024C63.9812 76.0695 63.6545 75.8779 63.5817 75.5747C63.4372 74.9745 62.9441 74.8373 62.5307 74.909C61.8483 75.0272 61.628 75.5812 61.713 76.078C61.765 76.3847 61.5369 76.6725 61.2027 76.7205C61.1707 76.7252 61.1388 76.7273 61.1071 76.7273V76.7273Z" fill="#A5B9C4"/>
<path fill-rule="evenodd" clip-rule="evenodd" d="M46.224 82.6798C46.2109 82.6798 46.198 82.6794 46.1849 82.6787C45.8476 82.6592 45.5909 82.3923 45.6123 82.0823C45.6746 81.1756 46.355 80.463 47.3874 80.2223C48.3459 79.9989 49.2769 80.2688 49.7039 80.8942C49.8835 81.1572 49.7969 81.5043 49.5104 81.6694C49.2238 81.8341 48.8458 81.7546 48.6662 81.4915C48.5317 81.2946 48.1024 81.2158 47.6889 81.3121C47.4992 81.3565 46.876 81.548 46.8343 82.153C46.8143 82.4509 46.5447 82.6799 46.224 82.6799V82.6798Z" fill="#A5B9C4"/>
<path fill-rule="evenodd" clip-rule="evenodd" d="M51.6832 83.0487C51.6684 83.0487 51.6538 83.0482 51.6389 83.0471C51.3017 83.0251 51.0475 82.756 51.0716 82.4463C51.1224 81.7951 50.6693 81.5201 50.2659 81.4825C50.1402 81.471 49.508 81.4469 49.4099 82.1294C49.3654 82.4373 49.0572 82.6534 48.7222 82.6132C48.3868 82.5726 48.1509 82.29 48.1953 81.9819C48.2741 81.4352 48.5497 80.9905 48.9929 80.6957C49.3857 80.4342 49.8819 80.3161 50.3895 80.3637C51.4118 80.459 52.3938 81.2323 52.2934 82.5262C52.2704 82.8225 52.0014 83.0486 51.6832 83.0486V83.0487Z" fill="#A5B9C4"/>
<path fill-rule="evenodd" clip-rule="evenodd" d="M67.7877 83.3344C67.752 83.3344 67.7159 83.3313 67.6794 83.3254C67.3464 83.2707 67.1249 82.9787 67.1842 82.673C67.3005 82.0753 66.7619 81.75 66.4253 81.652C66.2514 81.6013 65.6632 81.4753 65.4037 81.9843C65.2606 82.2657 64.8959 82.3868 64.5894 82.2555C64.2832 82.1237 64.151 81.7889 64.2946 81.5078C64.7342 80.645 65.7393 80.2721 66.7956 80.5799C67.7551 80.8595 68.611 81.7362 68.3899 82.8709C68.337 83.1431 68.0787 83.3344 67.7877 83.3344V83.3344Z" fill="#A5B9C4"/>
<path fill-rule="evenodd" clip-rule="evenodd" d="M65.4038 81.7528C65.1318 81.7528 64.8831 81.585 64.8115 81.332C64.6101 80.6211 63.8304 80.5262 63.5963 80.514C63.0748 80.4874 62.5948 80.6757 62.4787 80.9529C62.357 81.2427 62.0026 81.3874 61.6868 81.2758C61.3714 81.1641 61.2141 80.8388 61.3354 80.5489C61.6492 79.8005 62.5854 79.334 63.6654 79.391C64.8307 79.4516 65.7241 80.0866 65.997 81.0487C66.0823 81.3492 65.8858 81.6561 65.5585 81.7344C65.5068 81.7468 65.4549 81.7528 65.4038 81.7528Z" fill="#A5B9C4"/>
<path fill-rule="evenodd" clip-rule="evenodd" d="M77.8432 77.1049C77.5655 77.1049 77.3142 76.9304 77.2475 76.6711C77.1086 76.1265 76.5885 76.0164 76.3711 75.9942C76.0119 75.9574 75.544 76.0718 75.3666 76.408C75.2191 76.6874 74.8525 76.804 74.5479 76.6688C74.2443 76.5331 74.1167 76.1969 74.2643 75.9175C74.6446 75.1971 75.545 74.7787 76.5058 74.8766C77.4816 74.9757 78.2228 75.5649 78.4402 76.414C78.5178 76.7162 78.3134 77.0189 77.9839 77.09C77.9369 77.1002 77.89 77.1049 77.8432 77.1049V77.1049Z" fill="#A5B9C4"/>
<path fill-rule="evenodd" clip-rule="evenodd" d="M80.2273 77.3289C80.2234 77.3289 80.2202 77.3289 80.2167 77.3288C79.8785 77.3236 79.6088 77.0679 79.6146 76.7574C79.6155 76.6754 79.4474 76.4618 79.106 76.328C78.9519 76.2677 78.419 76.0975 78.0358 76.4458C77.7955 76.6644 77.4076 76.6623 77.1698 76.4417C76.9316 76.2209 76.9335 75.8649 77.1742 75.6463C77.7899 75.0868 78.7145 74.9516 79.587 75.2936C80.3586 75.596 80.8499 76.1778 80.8393 76.7757C80.8337 77.083 80.5608 77.3288 80.2274 77.3288L80.2273 77.3289Z" fill="#A5B9C4"/>
<path fill-rule="evenodd" clip-rule="evenodd" d="M90.3651 55.5444C89.6886 55.5444 89.1404 55.041 89.1404 54.4197C89.1404 53.7987 89.6886 53.2954 90.3651 53.2954C92.1517 53.2954 93.669 52.2182 94.1882 50.7342H89.4607C88.7843 50.7342 88.2358 50.2306 88.2358 49.6096C88.2358 48.9884 88.7843 48.485 89.4607 48.485H95.604C96.2805 48.485 96.8286 48.9884 96.8286 49.6096C96.8286 52.8821 93.929 55.5444 90.3651 55.5444Z" fill="#A5B9C4"/>
<path fill-rule="evenodd" clip-rule="evenodd" d="M75.6908 68.9078C72.1265 68.9078 69.2271 66.2436 69.2271 62.9686C69.2271 62.3475 69.7755 61.8441 70.452 61.8441H76.5953C77.2717 61.8441 77.82 62.3475 77.82 62.9686C77.82 63.5897 77.2717 64.0933 76.5953 64.0933H71.8675C72.3857 65.5799 73.9039 66.6586 75.6908 66.6586C76.3671 66.6586 76.9158 67.162 76.9158 67.7831C76.9158 68.4044 76.3671 68.9078 75.6908 68.9078V68.9078Z" fill="#A5B9C4"/>
<path fill-rule="evenodd" clip-rule="evenodd" d="M87.083 34.0059C86.4067 34.0059 85.8582 33.5023 85.8582 32.8812V28.7013C85.8582 28.5499 85.723 28.427 85.5567 28.427H80.9873C80.8212 28.427 80.6908 28.5475 80.6908 28.7013V32.8812C80.6908 33.5023 80.1424 34.0059 79.466 34.0059C78.7897 34.0059 78.2412 33.5023 78.2412 32.8812V28.7013C78.2412 27.3098 79.4731 26.1776 80.9873 26.1776H85.5567C87.0737 26.1776 88.3078 27.3098 88.3078 28.7013V32.8812C88.3078 33.5023 87.7593 34.0059 87.083 34.0059V34.0059Z" fill="#A5B9C4"/>
<path fill-rule="evenodd" clip-rule="evenodd" d="M77.4559 40.1911C77.1753 40.1912 76.8931 40.1029 76.6625 39.9228L69.1078 34.0185C68.7168 33.7133 68.575 33.2163 68.7521 32.7738C68.9296 32.3315 69.3885 32.0377 69.9018 32.0377H96.6426C97.1557 32.0377 97.6147 32.3314 97.7918 32.7737C97.9692 33.2159 97.8274 33.7128 97.4369 34.0183L89.8868 39.9225C89.3717 40.3255 88.5986 40.2686 88.1598 39.7956C87.7214 39.3229 87.7834 38.6129 88.2982 38.2102L93.3154 34.2868H73.2304L78.2504 38.2099C78.7655 38.6126 78.8277 39.3224 78.3893 39.7953C78.1469 40.0566 77.8026 40.1911 77.4559 40.1911V40.1911Z" fill="#A5B9C4"/>
<path fill-rule="evenodd" clip-rule="evenodd" d="M90.3117 75.5543C89.6533 75.5543 89.109 75.0738 89.088 74.4652L87.9056 40.191H78.6446L77.6376 70.8962C77.617 71.517 77.0529 72.0038 76.3763 71.9866C75.7002 71.9679 75.1685 71.4494 75.1891 70.8287L76.232 39.0325C76.2518 38.4249 76.794 37.9416 77.456 37.9416H89.0921C89.7535 37.9416 90.2955 38.4238 90.3162 39.0308L91.5365 74.394C91.5581 75.0148 91.0273 75.5341 90.3512 75.5536C90.3377 75.554 90.3249 75.5541 90.3117 75.5541V75.5543Z" fill="#A5B9C4"/>
<path fill-rule="evenodd" clip-rule="evenodd" d="M86.2223 68.6925C85.9977 68.6925 85.7815 68.5787 85.6742 68.3818C85.5229 68.104 85.6457 67.766 85.948 67.6272L87.3259 66.9948C87.6285 66.8558 87.9965 66.9686 88.1474 67.2463C88.2989 67.5241 88.176 67.8618 87.8734 68.0006L86.4958 68.633C86.4078 68.6736 86.3143 68.6925 86.2223 68.6925Z" fill="#A5B9C4"/>
<path fill-rule="evenodd" clip-rule="evenodd" d="M83.2745 64.4754C82.198 64.4754 81.3225 63.6714 81.3225 62.683C81.3225 61.6949 82.198 60.8907 83.2745 60.8907C84.3508 60.8907 85.2265 61.6949 85.2265 62.683C85.2265 63.6714 84.3508 64.4754 83.2745 64.4754ZM83.2745 62.0154C82.8737 62.0154 82.547 62.3149 82.547 62.683C82.547 63.0513 82.8737 63.3509 83.2745 63.3509C83.6755 63.3509 84.0016 63.0513 84.0016 62.683C84.0016 62.3149 83.6755 62.0154 83.2745 62.0154Z" fill="#A5B9C4"/>
<path fill-rule="evenodd" clip-rule="evenodd" d="M83.2746 71.6448C82.9364 71.6448 82.6621 71.393 82.6621 71.0824V63.9131C82.6621 63.6023 82.9364 63.3509 83.2746 63.3509C83.6128 63.3509 83.8871 63.6023 83.8871 63.9131V71.0824C83.8871 71.393 83.6128 71.6448 83.2746 71.6448Z" fill="#A5B9C4"/>
<path fill-rule="evenodd" clip-rule="evenodd" d="M83.2745 72.0313C80.552 72.0313 78.3369 69.9974 78.3369 67.4978C78.3369 67.187 78.6111 66.9353 78.9494 66.9353C79.2876 66.9353 79.5617 67.187 79.5617 67.4978C79.5617 69.3773 81.2272 70.9066 83.2745 70.9066C85.3218 70.9066 86.9874 69.3773 86.9874 67.4978C86.9874 67.187 87.2615 66.9353 87.5999 66.9353C87.9381 66.9353 88.2122 67.187 88.2122 67.4978C88.2122 69.9974 85.9972 72.0313 83.2745 72.0313V72.0313Z" fill="#A5B9C4"/>
<path fill-rule="evenodd" clip-rule="evenodd" d="M80.3268 68.6926C80.2347 68.6926 80.1416 68.6737 80.0536 68.6331L78.6756 68.0007C78.3731 67.8619 78.2505 67.5242 78.4016 67.2464C78.5527 66.9686 78.9207 66.8557 79.2231 66.9949L80.6012 67.6273C80.9037 67.7661 81.0264 68.1041 80.8752 68.3819C80.7678 68.5788 80.5515 68.6926 80.3268 68.6926V68.6926Z" fill="#A5B9C4"/>
<path fill-rule="evenodd" clip-rule="evenodd" d="M79.1496 21.2883C79.0216 21.2883 78.8927 21.2517 78.7826 21.176C77.3417 20.1835 76.5788 18.7466 76.5767 17.0196C76.5733 14.4334 78.3341 11.4754 80.9583 9.65929C81.164 9.51709 81.4447 9.50781 81.6607 9.63664C81.8764 9.76522 81.9818 10.0043 81.9239 10.2345C81.5528 11.7118 82.1423 13.0722 82.7682 14.2081C82.9207 14.485 82.7997 14.8234 82.4979 14.9634C82.1962 15.1037 81.8279 14.9926 81.6753 14.7154C80.9151 13.3357 80.638 12.2804 80.5876 11.4491C78.8809 13.0354 77.7992 15.1465 77.8015 17.0184C77.8034 18.3779 78.3968 19.5043 79.5175 20.2761C79.7881 20.4627 79.8429 20.815 79.6402 21.0635C79.5197 21.2107 79.3357 21.2883 79.1496 21.2883V21.2883Z" fill="#A5B9C4"/>
<path fill-rule="evenodd" clip-rule="evenodd" d="M83.4141 25.3456C83.2957 25.3456 83.1761 25.343 83.0551 25.3379C82.0561 25.2977 81.1189 24.8614 80.3456 24.0767C79.4029 23.1192 78.7915 21.683 78.8594 20.5844C78.9518 19.1562 79.8206 17.7137 80.74 16.1865C82.0706 13.977 83.4471 11.6925 82.8065 9.12214C82.7492 8.89184 82.855 8.65309 83.071 8.52472C83.2872 8.3963 83.5676 8.40573 83.7728 8.54835C87.5392 11.162 89.9263 15.4859 89.5779 19.063C89.1884 23.0741 86.9494 25.3456 83.4141 25.3456ZM84.1927 10.3497C84.2249 12.7244 82.9548 14.8326 81.8121 16.7307C80.9613 18.1432 80.158 19.4775 80.0821 20.6495C80.0395 21.342 80.4283 22.4834 81.2545 23.3222C81.6367 23.7104 82.2695 24.1805 83.1096 24.2145C84.8474 24.2878 86.181 23.7432 87.076 22.5965C87.9528 21.4734 88.2572 20.0006 88.3577 18.9628C88.5116 17.3817 88.069 15.6184 87.0773 13.8634C86.3463 12.5695 85.3467 11.3567 84.1927 10.3497Z" fill="#A5B9C4"/>
<path fill-rule="evenodd" clip-rule="evenodd" d="M86.3503 56.2234C86.0218 56.2234 85.7498 55.9839 85.7384 55.68L85.2315 41.8333C85.2203 41.5229 85.485 41.2628 85.8229 41.2524C85.8301 41.2523 85.8371 41.2521 85.8443 41.2521C86.1728 41.2521 86.4445 41.4916 86.4559 41.7954L86.9629 55.6421C86.974 55.9525 86.7095 56.2126 86.3713 56.2231C86.3643 56.2233 86.3575 56.2234 86.3503 56.2234Z" fill="#A5B9C4"/>
<path fill-rule="evenodd" clip-rule="evenodd" d="M86.5944 59.7883C86.2692 59.7883 85.9982 59.553 85.9832 59.2515L85.9208 58.0062C85.9053 57.696 86.1665 57.433 86.5047 57.4186C86.8431 57.4045 87.1289 57.6444 87.1446 57.9546L87.2066 59.2001C87.2222 59.5102 86.9609 59.7733 86.6229 59.7875C86.6135 59.788 86.6039 59.7881 86.5944 59.7881V59.7883Z" fill="#A5B9C4"/>
<path fill-rule="evenodd" clip-rule="evenodd" d="M83.8773 22.8039C83.5391 22.8039 83.2651 22.5521 83.2651 22.2416C83.2651 21.9311 83.5391 21.6792 83.8773 21.6792C84.1885 21.6792 84.5848 21.5662 84.6911 21.5166C84.9636 21.3497 85.3332 21.4094 85.5269 21.6551C85.7249 21.9069 85.6635 22.2583 85.3894 22.4403C85.1299 22.6123 84.4452 22.8039 83.8773 22.8039V22.8039ZM84.6835 21.5213C84.6791 21.5239 84.6752 21.5265 84.6715 21.5286C84.6758 21.526 84.6798 21.5234 84.6835 21.5213Z" fill="#A5B9C4"/>
<path fill-rule="evenodd" clip-rule="evenodd" d="M86.3071 21.363C86.2028 21.363 86.097 21.3385 86.0002 21.2868C85.7075 21.131 85.6082 20.7868 85.7781 20.5181C85.9774 20.2029 86.8758 17.4636 85.0307 14.627C84.8575 14.3602 84.9521 14.0151 85.2425 13.8559C85.5332 13.6968 85.9092 13.7836 86.0826 14.0505C88.0949 17.1445 87.3398 20.2879 86.8375 21.0828C86.7238 21.2626 86.5183 21.363 86.3071 21.363Z" fill="#A5B9C4"/>
<path fill-rule="evenodd" clip-rule="evenodd" d="M257.929 82.26C257.605 82.26 257.281 82.1428 257.041 81.9104C250.235 75.3367 243.746 73.935 239.501 73.9167C237.074 73.9088 234.736 74.334 232.55 75.1876C230.471 75.9994 228.636 77.1508 227.096 78.6101C226.626 79.056 225.851 79.0675 225.364 78.6353C224.878 78.2031 224.866 77.4915 225.337 77.0452C227.105 75.369 229.209 74.0478 231.591 73.1179C234.086 72.1436 236.753 71.6562 239.513 71.6675C244.234 71.6878 251.415 73.2125 258.816 80.3607C259.282 80.811 259.263 81.5225 258.772 81.9506C258.535 82.1574 258.232 82.26 257.929 82.26V82.26Z" fill="#A5B9C4"/>
<path fill-rule="evenodd" clip-rule="evenodd" d="M231.646 85.634C231.072 85.634 230.56 85.2627 230.445 84.7269C230.043 82.8535 228.506 80.8766 226.116 79.1608C223.595 77.3504 220.378 76.0339 217.058 75.4538C213.311 74.7992 209.567 75.0998 206.23 76.323C202.308 77.7607 198.968 80.4232 196.301 84.2361C195.935 84.7586 195.178 84.9104 194.609 84.5749C194.039 84.2392 193.874 83.5433 194.24 83.0208C197.188 78.8056 200.917 75.8494 205.322 74.2342C209.093 72.8517 213.31 72.5093 217.516 73.2444C225.192 74.5855 231.784 79.3348 232.849 84.2917C232.979 84.9012 232.548 85.4925 231.884 85.6126C231.804 85.6271 231.724 85.634 231.646 85.634V85.634Z" fill="#A5B9C4"/>
<path fill-rule="evenodd" clip-rule="evenodd" d="M160.664 88.7971C160.544 88.7971 160.421 88.7805 160.3 88.746C159.654 88.5612 159.293 87.9307 159.494 87.3378C160.58 84.1384 162.845 81.2302 166.046 78.9273C169.087 76.7399 172.772 75.2248 176.705 74.5454C180.5 73.8899 184.325 74.0666 187.765 75.056C191.6 76.1589 194.824 78.1891 197.347 81.0903C197.769 81.5756 197.683 82.2831 197.154 82.6709C196.626 83.0584 195.855 82.9791 195.433 82.494C193.219 79.9491 190.394 78.169 187.033 77.2025C183.974 76.3226 180.56 76.1682 177.158 76.7558C173.61 77.3688 170.29 78.7319 167.557 80.6977C164.749 82.7178 162.77 85.2452 161.833 88.0065C161.67 88.4883 161.186 88.7971 160.664 88.7971V88.7971Z" fill="#A5B9C4"/>
<path fill-rule="evenodd" clip-rule="evenodd" d="M178.525 76.1957C178.043 76.1957 177.587 75.9334 177.392 75.499C175.659 71.6324 173.026 68.5781 169.569 66.4207C166.582 64.5566 163.001 63.4077 159.213 63.0976C152.631 62.5597 146.12 64.6625 143.731 68.0984C143.367 68.6218 142.609 68.7754 142.039 68.4411C141.469 68.1069 141.302 67.4114 141.666 66.8879C144.565 62.7191 151.87 60.2394 159.431 60.8574C163.633 61.2013 167.615 62.4817 170.946 64.5604C174.807 66.9696 177.738 70.3619 179.657 74.6429C179.915 75.2171 179.616 75.8745 178.991 76.1108C178.838 76.1686 178.68 76.1957 178.525 76.1957V76.1957Z" fill="#A5B9C4"/>
<path fill-rule="evenodd" clip-rule="evenodd" d="M109.422 77.9484C109.244 77.9484 109.064 77.9132 108.893 77.8382C108.283 77.5703 108.025 76.8987 108.317 76.3385C110.593 71.9703 113.819 68.5885 117.905 66.2871C121.482 64.2725 125.651 63.1651 129.96 63.0847C133.809 63.0127 137.575 63.747 140.847 65.2081C144.187 66.6996 146.719 68.8171 148.168 71.3313C148.485 71.8804 148.257 72.5609 147.659 72.8515C147.061 73.1418 146.32 72.9328 146.003 72.3838C144.798 70.294 142.645 68.5123 139.776 67.231C136.851 65.9247 133.474 65.2689 130.01 65.3335C126.135 65.4059 122.392 66.3986 119.186 68.2042C115.509 70.2752 112.596 73.3385 110.527 77.309C110.317 77.7127 109.878 77.9484 109.422 77.9484Z" fill="#A5B9C4"/>
<path fill-rule="evenodd" clip-rule="evenodd" d="M76.6531 100.722C76.1647 100.722 75.7028 100.451 75.5133 100.009C73.3137 94.879 73.2495 89.7319 75.3277 85.1236C77.1758 81.0265 80.6865 77.4995 85.2132 75.1929C89.8329 72.8389 95.1207 71.9263 100.102 72.6229C105.643 73.3979 110.406 76.0771 113.874 80.3708C114.277 80.8697 114.164 81.5743 113.621 81.9443C113.077 82.3144 112.31 82.2098 111.907 81.711C108.832 77.9038 104.621 75.5302 99.7328 74.8465C95.2848 74.2244 90.5503 75.0457 86.4019 77.1596C82.357 79.2205 79.2278 82.3546 77.5908 85.9842C75.7605 90.0433 75.8302 94.6079 77.7925 99.1848C78.0402 99.7629 77.7309 100.416 77.1014 100.643C76.9542 100.697 76.8024 100.722 76.6531 100.722V100.722Z" fill="#A5B9C4"/>
<path fill-rule="evenodd" clip-rule="evenodd" d="M67.877 116.747C67.2368 116.747 66.6983 116.29 66.656 115.696C66.2619 110.154 67.5793 105.791 70.5715 102.728C74.3246 98.8868 79.7333 98.1203 82.6235 98.0054C83.2997 97.9796 83.8708 98.4598 83.9004 99.0803C83.9298 99.7008 83.4054 100.226 82.7295 100.252C80.224 100.352 75.5495 101.001 72.395 104.23C69.8595 106.825 68.7511 110.634 69.1004 115.549C69.1446 116.169 68.6332 116.704 67.9579 116.744C67.9308 116.746 67.9037 116.747 67.877 116.747V116.747Z" fill="#A5B9C4"/>
<path fill-rule="evenodd" clip-rule="evenodd" d="M125.943 77.6717C125.937 77.6717 125.93 77.6715 125.923 77.6713C125.585 77.6613 125.32 77.4015 125.331 77.0911C125.423 74.4781 127.555 72.9952 129.519 72.479C130.562 72.2044 131.67 72.1652 132.638 72.3687C133.718 72.5958 134.571 73.1008 135.102 73.829C135.29 74.087 135.215 74.4362 134.934 74.6092C134.653 74.7818 134.273 74.7131 134.085 74.4549C133.361 73.4637 131.623 73.0957 129.856 73.56C128.307 73.9674 126.626 75.1185 126.555 77.1277C126.544 77.4318 126.272 77.6717 125.943 77.6717V77.6717Z" fill="#A5B9C4"/>
<path fill-rule="evenodd" clip-rule="evenodd" d="M142.091 78.3219C142.083 78.3219 142.075 78.3219 142.067 78.3215C141.729 78.3092 141.466 78.0479 141.479 77.7375C141.555 75.9651 140.463 73.9816 137.886 73.8153C136.207 73.7056 134.402 74.5801 134.159 76.7751C134.126 77.084 133.825 77.3091 133.489 77.2777C133.152 77.2465 132.907 76.9708 132.941 76.6617C133.265 73.7333 135.776 72.5505 137.972 72.6936C139.259 72.7766 140.444 73.2813 141.31 74.1149C142.283 75.0534 142.765 76.3215 142.703 77.7817C142.689 78.0845 142.418 78.3219 142.091 78.3219V78.3219Z" fill="#A5B9C4"/>
<path fill-rule="evenodd" clip-rule="evenodd" d="M265.069 94.4933C265.011 94.4933 264.953 94.4857 264.894 94.4699C264.57 94.3818 264.385 94.0686 264.482 93.771C265.29 91.2645 267.761 90.325 269.804 90.2817C270.889 90.2595 271.971 90.4779 272.852 90.8993C273.835 91.3701 274.52 92.0567 274.833 92.8846C274.944 93.178 274.775 93.4983 274.456 93.6004C274.136 93.7022 273.787 93.5471 273.676 93.2537C273.25 92.1267 271.668 91.3684 269.832 91.406C268.221 91.4401 266.278 92.1634 265.656 94.0906C265.577 94.3351 265.333 94.4933 265.069 94.4933Z" fill="#A5B9C4"/>
<path fill-rule="evenodd" clip-rule="evenodd" d="M280.512 98.8729C280.453 98.8729 280.393 98.8649 280.334 98.8484C280.01 98.7583 279.828 98.4441 279.926 98.147C280.488 96.4499 279.978 94.2774 277.531 93.5181C275.935 93.023 273.949 93.4486 273.11 95.5161C272.992 95.8071 272.64 95.955 272.322 95.8466C272.005 95.738 271.844 95.4142 271.962 95.1232C273.082 92.365 275.837 91.8052 277.923 92.4526C279.145 92.8319 280.153 93.5955 280.76 94.6029C281.444 95.7371 281.561 97.0758 281.098 98.474C281.017 98.7166 280.775 98.8729 280.512 98.8729V98.8729Z" fill="#A5B9C4"/>
<path fill-rule="evenodd" clip-rule="evenodd" d="M174.184 102.576C173.894 102.576 173.636 102.385 173.583 102.112C173.232 100.315 171.555 99.4824 170.103 99.3029C168.446 99.0978 166.934 99.6365 166.428 100.612C166.281 100.893 165.916 101.011 165.611 100.878C165.306 100.744 165.176 100.408 165.322 100.128C165.706 99.3884 166.419 98.8158 167.383 98.4723C168.243 98.1656 169.267 98.065 170.266 98.1884C172.146 98.4209 174.321 99.5218 174.788 101.914C174.848 102.22 174.626 102.512 174.293 102.567C174.256 102.573 174.22 102.576 174.184 102.576V102.576Z" fill="#A5B9C4"/>
<path fill-rule="evenodd" clip-rule="evenodd" d="M159.568 105.145C159.278 105.145 159.022 104.956 158.967 104.686C158.696 103.351 158.954 102.124 159.713 101.14C160.388 100.265 161.405 99.6542 162.577 99.4187C164.579 99.0167 167.065 99.794 167.794 102.451C167.876 102.753 167.678 103.058 167.349 103.134C167.021 103.21 166.688 103.027 166.606 102.726C166.074 100.784 164.33 100.218 162.839 100.517C161.232 100.84 159.712 102.218 160.171 104.48C160.233 104.785 160.013 105.079 159.681 105.136C159.643 105.142 159.605 105.145 159.568 105.145V105.145Z" fill="#A5B9C4"/>
<path fill-rule="evenodd" clip-rule="evenodd" d="M105.384 108.743C105.12 108.743 104.877 108.586 104.797 108.343C104.418 107.185 104.55 106.024 105.181 104.986C105.735 104.072 106.643 103.319 107.738 102.865C109.609 102.091 112.115 102.226 113.497 104.273C113.676 104.537 113.587 104.884 113.299 105.048C113.012 105.211 112.635 105.13 112.456 104.866C111.397 103.297 109.524 103.36 108.242 103.89C106.704 104.527 105.338 106.091 105.97 108.018C106.068 108.316 105.884 108.629 105.56 108.719C105.501 108.735 105.442 108.743 105.384 108.743V108.743Z" fill="#A5B9C4"/>
<path fill-rule="evenodd" clip-rule="evenodd" d="M111.284 103.788C111.256 103.788 111.227 103.786 111.199 103.782C110.863 103.74 110.63 103.456 110.676 103.148C111.082 100.471 113.452 99.1616 115.535 98.8281C116.643 98.6506 117.789 98.722 118.762 99.029C119.847 99.3716 120.663 99.9767 121.121 100.779C121.279 101.053 121.163 101.393 120.864 101.538C120.564 101.682 120.194 101.576 120.037 101.301C119.404 100.194 117.639 99.6325 115.745 99.9359C114.088 100.201 112.204 101.225 111.89 103.303C111.847 103.584 111.584 103.788 111.284 103.788V103.788Z" fill="#A5B9C4"/>
<path fill-rule="evenodd" clip-rule="evenodd" d="M205.748 99.9925C205.457 99.9925 205.199 99.8017 205.146 99.5296C204.806 97.794 205.848 95.9617 207.739 94.9698C209.66 93.9619 211.855 94.1275 213.468 95.4017C213.725 95.6041 213.754 95.9592 213.533 96.1948C213.313 96.4303 212.926 96.4568 212.669 96.254C211.443 95.2851 209.827 95.1699 208.347 95.9463C207.147 96.5756 206.065 97.8662 206.351 99.3306C206.411 99.6361 206.19 99.9285 205.857 99.9834C205.82 99.9893 205.784 99.9925 205.748 99.9925Z" fill="#A5B9C4"/>
<path fill-rule="evenodd" clip-rule="evenodd" d="M211.672 95.6477C211.639 95.6477 211.606 95.6451 211.572 95.6402C211.238 95.5895 211.012 95.3003 211.067 94.9939C211.441 92.9149 213.326 91.8081 214.964 91.4657C216.741 91.0948 218.444 91.512 219.202 92.5047C219.396 92.7592 219.328 93.1097 219.052 93.2879C218.774 93.4661 218.393 93.4044 218.198 93.1502C217.731 92.5374 216.513 92.2958 215.236 92.5624C212.836 93.064 212.363 94.6903 212.276 95.1769C212.226 95.4523 211.967 95.6477 211.672 95.6477V95.6477Z" fill="#A5B9C4"/>
<path fill-rule="evenodd" clip-rule="evenodd" d="M96.1457 89.8711C96.1217 89.8711 96.0976 89.87 96.0731 89.8674C95.7372 89.831 95.497 89.5515 95.5368 89.243C95.7856 87.3048 97.2789 85.8195 99.4338 85.3668C101.557 84.9206 103.677 85.621 104.709 87.1091C104.891 87.371 104.807 87.7186 104.522 87.8854C104.236 88.0522 103.858 87.9754 103.676 87.7135C103.048 86.8079 101.577 86.0701 99.7071 86.4629C98.047 86.8116 96.9424 87.9003 96.7531 89.3748C96.7162 89.6608 96.4519 89.8711 96.1457 89.8713V89.8711Z" fill="#A5B9C4"/>
<path fill-rule="evenodd" clip-rule="evenodd" d="M89.7856 91.1624C89.483 91.1624 89.2198 90.9566 89.1791 90.6736C89.0064 89.4703 89.9547 88.1036 91.5392 87.2731C92.9969 86.5089 95.1971 86.1544 97.001 87.4514C97.2672 87.6428 97.3139 87.9961 97.1056 88.2406C96.8968 88.4853 96.5122 88.5283 96.246 88.3368C95.8238 88.0334 94.2811 87.1308 92.1464 88.2497C91.0075 88.8465 90.2868 89.783 90.3934 90.5268C90.4374 90.8344 90.2018 91.117 89.8663 91.1574C89.8391 91.1606 89.8121 91.1626 89.7856 91.1626V91.1624Z" fill="#A5B9C4"/>
<path fill-rule="evenodd" clip-rule="evenodd" d="M169.941 70.8448C169.788 70.8448 169.635 70.7927 169.517 70.6878C167.009 68.4715 163.159 66.9877 158.955 66.6163C158.618 66.5866 158.371 66.3118 158.404 66.0028C158.436 65.6937 158.735 65.4667 159.072 65.4969C161.337 65.6967 163.479 66.1871 165.439 66.9539C167.367 67.7081 169.024 68.6917 170.366 69.8775C170.61 70.0928 170.617 70.4488 170.383 70.6725C170.262 70.7871 170.102 70.8448 169.941 70.8448Z" fill="#A5B9C4"/>
<path fill-rule="evenodd" clip-rule="evenodd" d="M172.401 74.0344C172.163 74.0344 171.937 73.9066 171.837 73.6933C171.63 73.2481 171.377 72.8165 171.086 72.4111C170.899 72.152 170.977 71.8031 171.259 71.632C171.541 71.4609 171.922 71.5324 172.108 71.7915C172.44 72.2531 172.727 72.7442 172.963 73.2508C173.097 73.5364 172.952 73.8668 172.641 73.989C172.563 74.0199 172.481 74.0344 172.401 74.0344V74.0344Z" fill="#A5B9C4"/>
<path fill-rule="evenodd" clip-rule="evenodd" d="M104.618 80.9402C104.51 80.9402 104.401 80.9142 104.302 80.8595C101.318 79.2088 97.2045 78.5448 93.0172 79.0379C92.6813 79.077 92.3749 78.8597 92.3317 78.5515C92.2885 78.2435 92.5257 77.9619 92.8613 77.9224C95.1159 77.6568 97.3229 77.6994 99.4208 78.0486C101.484 78.392 103.338 79.0135 104.934 79.8961C105.224 80.0564 105.317 80.4019 105.143 80.6679C105.028 80.8432 104.825 80.9402 104.618 80.9402V80.9402Z" fill="#A5B9C4"/>
<path fill-rule="evenodd" clip-rule="evenodd" d="M107.786 83.5495C107.598 83.5495 107.411 83.4694 107.291 83.3186C106.981 82.9284 106.629 82.5584 106.246 82.2189C106.003 82.0032 105.995 81.6473 106.23 81.4237C106.465 81.2003 106.853 81.1938 107.096 81.4094C107.53 81.7939 107.929 82.2133 108.28 82.6556C108.48 82.9062 108.42 83.2582 108.147 83.4412C108.038 83.5142 107.912 83.5495 107.786 83.5495Z" fill="#A5B9C4"/>
<path fill-rule="evenodd" clip-rule="evenodd" d="M64.9191 107.891C64.8636 107.891 64.8071 107.884 64.7509 107.869C64.4257 107.784 64.2373 107.473 64.3301 107.174C65.3597 103.861 68.0442 100.581 71.6954 98.1737C71.9702 97.9925 72.3526 98.0503 72.5501 98.3025C72.7472 98.5547 72.6847 98.9061 72.4098 99.0871C68.9789 101.349 66.4631 104.409 65.5081 107.483C65.4313 107.73 65.1858 107.891 64.9191 107.891V107.891Z" fill="#A5B9C4"/>
<path fill-rule="evenodd" clip-rule="evenodd" d="M64.5329 111.781C64.2259 111.781 63.9613 111.569 63.9254 111.283C63.857 110.738 63.8371 110.183 63.8671 109.635C63.8842 109.325 64.1728 109.086 64.5095 109.102C64.8476 109.117 65.1075 109.381 65.0904 109.691C65.0637 110.178 65.081 110.67 65.1421 111.154C65.181 111.462 64.9403 111.741 64.6039 111.777C64.5802 111.779 64.5562 111.781 64.5329 111.781V111.781Z" fill="#A5B9C4"/>
<path fill-rule="evenodd" clip-rule="evenodd" d="M225.485 83.1457C225.324 83.1457 225.164 83.0879 225.044 82.9737C222.566 80.6162 218.641 79.0203 214.277 78.5956C213.94 78.5628 213.696 78.286 213.732 77.9773C213.768 77.6682 214.071 77.4449 214.406 77.4772C219.052 77.9292 223.251 79.6481 225.925 82.1926C226.16 82.4162 226.153 82.7723 225.91 82.9878C225.791 83.0931 225.638 83.1457 225.485 83.1457Z" fill="#A5B9C4"/>
<path fill-rule="evenodd" clip-rule="evenodd" d="M227.695 86.2009C227.453 86.2009 227.224 86.0684 227.128 85.8497C226.914 85.3659 226.65 84.9004 226.344 84.4662C226.16 84.2055 226.241 83.8574 226.524 83.6883C226.808 83.5197 227.187 83.5939 227.371 83.8544C227.72 84.3483 228.02 84.8776 228.262 85.4272C228.389 85.7153 228.238 86.0431 227.925 86.1596C227.85 86.1877 227.772 86.2009 227.695 86.2009V86.2009Z" fill="#A5B9C4"/>
<path fill-rule="evenodd" clip-rule="evenodd" d="M283.604 87.3698C283.443 87.3698 283.283 87.3125 283.163 87.1981C280.684 84.8404 276.76 83.2448 272.396 82.82C272.059 82.7872 271.815 82.5101 271.851 82.2014C271.887 81.8926 272.19 81.6694 272.525 81.7016C277.171 82.1538 281.369 83.8725 284.044 86.4171C284.279 86.6405 284.272 86.9964 284.029 87.212C283.91 87.3176 283.757 87.3698 283.604 87.3698V87.3698Z" fill="#A5B9C4"/>
<path fill-rule="evenodd" clip-rule="evenodd" d="M285.814 90.4253C285.572 90.4253 285.342 90.2925 285.246 90.0741C285.033 89.5902 284.769 89.1248 284.463 88.6904C284.279 88.4298 284.36 88.0817 284.644 87.9129C284.927 87.7441 285.307 87.8181 285.491 88.0787C285.839 88.5729 286.139 89.102 286.381 89.6518C286.508 89.9395 286.357 90.2673 286.044 90.3839C285.968 90.412 285.891 90.4253 285.814 90.4253V90.4253Z" fill="#A5B9C4"/>
<path fill-rule="evenodd" clip-rule="evenodd" d="M224.24 109.264C224.119 109.264 223.996 109.23 223.889 109.161C223.612 108.983 223.545 108.632 223.74 108.378C224.291 107.657 223.946 107.029 223.483 106.71C222.913 106.317 222.039 106.264 221.37 107.032C221.159 107.274 220.773 107.313 220.509 107.119C220.245 106.925 220.202 106.571 220.413 106.329C221.536 105.041 223.177 105.093 224.218 105.81C224.733 106.165 225.082 106.662 225.202 107.21C225.338 107.827 225.178 108.454 224.742 109.025C224.623 109.18 224.433 109.264 224.24 109.264V109.264Z" fill="#A5B9C4"/>
<path fill-rule="evenodd" clip-rule="evenodd" d="M92.6329 110.962C92.5547 110.962 92.4752 110.948 92.3984 110.918C92.0859 110.799 91.9377 110.47 92.0675 110.184C92.5967 109.013 92.372 107.516 90.6765 106.813C89.3573 106.266 87.4949 106.508 86.5235 108.331C86.3745 108.61 86.0079 108.726 85.7043 108.589C85.4003 108.453 85.2744 108.116 85.4229 107.837C86.0148 106.727 86.9288 105.959 88.0674 105.618C89.0785 105.315 90.1841 105.375 91.1804 105.788C92.8838 106.495 94.2419 108.306 93.1987 110.615C93.1009 110.831 92.873 110.962 92.6329 110.962V110.962Z" fill="#A5B9C4"/>
<path fill-rule="evenodd" clip-rule="evenodd" d="M114.541 92.0651C114.229 92.0651 113.962 91.8471 113.932 91.5563C113.786 90.1503 114.83 89.2837 115.937 89.1543C116.486 89.0901 117.026 89.2051 117.459 89.4782C117.947 89.786 118.259 90.2609 118.361 90.8519C118.415 91.1586 118.187 91.4468 117.853 91.4958C117.519 91.5445 117.205 91.3356 117.152 91.029C117.009 90.2051 116.243 90.2519 116.091 90.2699C115.366 90.3548 115.096 90.9234 115.151 91.4495C115.183 91.7584 114.936 92.033 114.6 92.0627C114.58 92.0642 114.56 92.0652 114.541 92.0652V92.0651Z" fill="#A5B9C4"/>
<path fill-rule="evenodd" clip-rule="evenodd" d="M149.645 97.2424C149.332 97.2424 149.065 97.0238 149.036 96.7324C148.892 95.3243 149.94 94.4584 151.049 94.3311C151.597 94.2676 152.137 94.3838 152.568 94.6574C153.054 94.9651 153.364 95.44 153.466 96.0306C153.518 96.3373 153.29 96.625 152.956 96.6733C152.622 96.7212 152.308 96.5122 152.256 96.2051C152.147 95.5692 151.639 95.3964 151.201 95.4467C150.677 95.5072 150.181 95.8956 150.255 96.6278C150.287 96.9371 150.039 97.2111 149.702 97.24C149.683 97.2416 149.664 97.2426 149.645 97.2426V97.2424Z" fill="#A5B9C4"/>
<path fill-rule="evenodd" clip-rule="evenodd" d="M155.842 78.0693C155.637 78.0693 155.438 77.9755 155.322 77.8044C154.766 76.9863 154.592 76.112 154.817 75.276C155.017 74.5323 155.519 73.8827 156.231 73.4465C157.453 72.6978 159.333 72.6199 160.574 74.2176C160.771 74.4704 160.706 74.8216 160.431 75.002C160.156 75.1821 159.774 75.1234 159.577 74.8706C158.753 73.8092 157.626 73.9439 156.911 74.3818C155.713 75.116 155.786 76.3624 156.361 77.2095C156.54 77.473 156.452 77.82 156.165 77.9841C156.065 78.0418 155.953 78.0693 155.842 78.0693V78.0693Z" fill="#A5B9C4"/>
<path fill-rule="evenodd" clip-rule="evenodd" d="M174.491 91.5666C174.197 91.5666 173.937 91.3714 173.887 91.0961C173.737 90.2639 172.877 89.7606 172.091 89.6311C171.124 89.4715 170.273 89.8176 169.813 90.5564C169.645 90.8258 169.271 90.9197 168.977 90.7654C168.683 90.6112 168.581 90.2679 168.749 89.9983C169.467 88.8454 170.83 88.2806 172.308 88.5242C173.761 88.7637 174.882 89.7236 175.096 90.9125C175.151 91.2188 174.925 91.5081 174.592 91.5588C174.558 91.5641 174.524 91.5666 174.491 91.5666V91.5666Z" fill="#A5B9C4"/>
<path fill-rule="evenodd" clip-rule="evenodd" d="M165.224 90.1457C165.17 90.1457 165.115 90.1391 165.061 90.1253C164.734 90.0421 164.543 89.7323 164.634 89.433C164.886 88.5983 165.862 87.971 167.12 87.8359C168.563 87.6807 169.851 88.2388 170.483 89.2922C170.646 89.5643 170.538 89.9061 170.242 90.056C169.945 90.2057 169.573 90.1067 169.41 89.8347C169.263 89.5896 168.674 88.801 167.263 88.9528C166.548 89.0297 165.925 89.3654 165.814 89.7334C165.739 89.9824 165.493 90.1457 165.224 90.1457Z" fill="#A5B9C4"/>
<path fill-rule="evenodd" clip-rule="evenodd" d="M279.987 110.652C279.693 110.652 279.433 110.457 279.384 110.182C279.234 109.35 278.373 108.846 277.588 108.717C276.622 108.558 275.769 108.903 275.309 109.642C275.141 109.912 274.767 110.005 274.474 109.851C274.18 109.697 274.078 109.353 274.246 109.084C274.964 107.931 276.327 107.366 277.804 107.61C279.257 107.849 280.378 108.809 280.592 109.998C280.647 110.305 280.421 110.594 280.088 110.645C280.054 110.65 280.02 110.652 279.987 110.652V110.652Z" fill="#A5B9C4"/>
<path fill-rule="evenodd" clip-rule="evenodd" d="M270.721 109.231C270.667 109.231 270.612 109.225 270.557 109.211C270.231 109.128 270.04 108.818 270.13 108.519C270.382 107.684 271.358 107.057 272.617 106.921C274.059 106.767 275.347 107.324 275.979 108.378C276.142 108.65 276.034 108.992 275.738 109.142C275.441 109.291 275.069 109.192 274.906 108.92C274.759 108.675 274.17 107.886 272.759 108.038C272.044 108.115 271.422 108.451 271.311 108.819C271.235 109.068 270.989 109.231 270.721 109.231V109.231Z" fill="#A5B9C4"/>
<path fill-rule="evenodd" clip-rule="evenodd" d="M291.321 105.219C291.171 105.219 291.019 105.194 290.872 105.141C290.243 104.913 289.933 104.26 290.181 103.682C292.144 99.1055 292.213 94.5408 290.383 90.4818C288.746 86.852 285.617 83.7182 281.571 81.657C277.423 79.5434 272.689 78.7221 268.241 79.3442C263.352 80.0278 259.142 82.4015 256.067 86.2086C255.663 86.7073 254.896 86.8118 254.353 86.4417C253.81 86.0718 253.696 85.3673 254.099 84.8684C257.568 80.5747 262.331 77.8955 267.872 77.1204C272.853 76.4238 278.141 77.3365 282.761 79.6904C287.287 81.9971 290.798 85.5239 292.646 89.6211C294.724 94.2292 294.66 99.3765 292.46 104.506C292.271 104.949 291.809 105.219 291.321 105.219Z" fill="#A5B9C4"/>
<path fill-rule="evenodd" clip-rule="evenodd" d="M299.738 115.317C299.167 115.317 298.657 114.95 298.539 114.416C297.748 110.841 295.766 108.203 292.648 106.575C290.027 105.206 287.175 104.827 285.244 104.75C284.568 104.723 284.044 104.198 284.073 103.578C284.103 102.957 284.674 102.476 285.35 102.503C287.551 102.591 290.813 103.029 293.859 104.62C295.58 105.519 297.034 106.689 298.18 108.098C299.511 109.734 300.439 111.709 300.939 113.969C301.074 114.577 300.646 115.171 299.983 115.294C299.9 115.31 299.818 115.317 299.738 115.317V115.317Z" fill="#A5B9C4"/>
<path fill-rule="evenodd" clip-rule="evenodd" d="M220.774 149.393H167.685C167.347 149.393 167.073 149.142 167.073 148.831C167.073 148.521 167.347 148.269 167.685 148.269H220.774C221.113 148.269 221.387 148.521 221.387 148.831C221.387 149.142 221.113 149.393 220.774 149.393Z" fill="#A5B9C4"/>
<path fill-rule="evenodd" clip-rule="evenodd" d="M83.8368 163.264H30.7481C30.4098 163.264 30.1357 163.013 30.1357 162.702C30.1357 162.391 30.4098 162.14 30.7481 162.14H83.8368C84.1753 162.14 84.4491 162.391 84.4491 162.702C84.4491 163.013 84.1753 163.264 83.8368 163.264Z" fill="#A5B9C4"/>
<path fill-rule="evenodd" clip-rule="evenodd" d="M207.255 193.167H189.969C189.631 193.167 189.356 192.915 189.356 192.605C189.356 192.294 189.631 192.042 189.969 192.042H207.255C207.594 192.042 207.868 192.294 207.868 192.605C207.868 192.915 207.594 193.167 207.255 193.167V193.167Z" fill="#A5B9C4"/>
<path fill-rule="evenodd" clip-rule="evenodd" d="M288.557 171.796H271.27C270.932 171.796 270.658 171.544 270.658 171.233C270.658 170.923 270.932 170.671 271.27 170.671H288.557C288.895 170.671 289.169 170.923 289.169 171.233C289.169 171.544 288.895 171.796 288.557 171.796Z" fill="#A5B9C4"/>
<path fill-rule="evenodd" clip-rule="evenodd" d="M259.816 138.985H256.988C256.65 138.985 256.376 138.733 256.376 138.422C256.376 138.112 256.65 137.86 256.988 137.86H259.816C260.154 137.86 260.429 138.112 260.429 138.422C260.429 138.733 260.154 138.985 259.816 138.985Z" fill="#A5B9C4"/>
<path fill-rule="evenodd" clip-rule="evenodd" d="M235.932 159.86H233.104C232.766 159.86 232.492 159.608 232.492 159.297C232.492 158.987 232.766 158.735 233.104 158.735H235.932C236.27 158.735 236.544 158.987 236.544 159.297C236.544 159.608 236.27 159.86 235.932 159.86Z" fill="#A5B9C4"/>
<path fill-rule="evenodd" clip-rule="evenodd" d="M310.336 155.221H307.508C307.17 155.221 306.896 154.969 306.896 154.659C306.896 154.348 307.17 154.096 307.508 154.096H310.336C310.674 154.096 310.948 154.348 310.948 154.659C310.948 154.969 310.674 155.221 310.336 155.221Z" fill="#A5B9C4"/>
<path fill-rule="evenodd" clip-rule="evenodd" d="M220.813 125.074H217.985C217.647 125.074 217.373 124.823 217.373 124.512C217.373 124.201 217.647 123.95 217.985 123.95H220.813C221.151 123.95 221.425 124.201 221.425 124.512C221.425 124.823 221.151 125.074 220.813 125.074Z" fill="#A5B9C4"/>
<path fill-rule="evenodd" clip-rule="evenodd" d="M314.249 128.367H311.422C311.083 128.367 310.809 128.115 310.809 127.804C310.809 127.494 311.083 127.242 311.422 127.242H314.249C314.588 127.242 314.862 127.494 314.862 127.804C314.862 128.115 314.588 128.367 314.249 128.367Z" fill="#A5B9C4"/>
<path fill-rule="evenodd" clip-rule="evenodd" d="M224.119 183.059H221.291C220.953 183.059 220.679 182.808 220.679 182.497C220.679 182.186 220.953 181.935 221.291 181.935H224.119C224.457 181.935 224.732 182.186 224.732 182.497C224.732 182.808 224.457 183.059 224.119 183.059Z" fill="#A5B9C4"/>
<path fill-rule="evenodd" clip-rule="evenodd" d="M238.927 193.152H236.099C235.761 193.152 235.487 192.9 235.487 192.59C235.487 192.279 235.761 192.028 236.099 192.028H238.927C239.265 192.028 239.54 192.279 239.54 192.59C239.54 192.9 239.265 193.152 238.927 193.152Z" fill="#A5B9C4"/>
<path fill-rule="evenodd" clip-rule="evenodd" d="M192.804 160.721H189.977C189.639 160.721 189.364 160.469 189.364 160.159C189.364 159.848 189.639 159.596 189.977 159.596H192.804C193.143 159.596 193.417 159.848 193.417 160.159C193.417 160.469 193.143 160.721 192.804 160.721Z" fill="#A5B9C4"/>
<path fill-rule="evenodd" clip-rule="evenodd" d="M154.5 142.459H151.672C151.334 142.459 151.06 142.208 151.06 141.897C151.06 141.586 151.334 141.335 151.672 141.335H154.5C154.838 141.335 155.112 141.586 155.112 141.897C155.112 142.208 154.838 142.459 154.5 142.459Z" fill="#A5B9C4"/>
<path fill-rule="evenodd" clip-rule="evenodd" d="M110.985 155.599H108.157C107.819 155.599 107.544 155.347 107.544 155.036C107.544 154.726 107.819 154.474 108.157 154.474H110.985C111.323 154.474 111.597 154.726 111.597 155.036C111.597 155.347 111.323 155.599 110.985 155.599V155.599Z" fill="#A5B9C4"/>
<path fill-rule="evenodd" clip-rule="evenodd" d="M95.3006 173.667H92.4732C92.135 173.667 91.8606 173.415 91.8606 173.104C91.8606 172.794 92.135 172.542 92.4732 172.542H95.3006C95.6391 172.542 95.9132 172.794 95.9132 173.104C95.9132 173.415 95.6391 173.667 95.3006 173.667V173.667Z" fill="#A5B9C4"/>
<path fill-rule="evenodd" clip-rule="evenodd" d="M37.2215 146.413H34.394C34.0558 146.413 33.7815 146.161 33.7815 145.851C33.7815 145.54 34.0558 145.288 34.394 145.288H37.2215C37.56 145.288 37.8342 145.54 37.8342 145.851C37.8342 146.161 37.56 146.413 37.2215 146.413Z" fill="#A5B9C4"/>
<path fill-rule="evenodd" clip-rule="evenodd" d="M33.9681 194.397H31.1402C30.8021 194.397 30.5278 194.145 30.5278 193.835C30.5278 193.524 30.8021 193.273 31.1402 193.273H33.9681C34.3064 193.273 34.5803 193.524 34.5803 193.835C34.5803 194.145 34.3064 194.397 33.9681 194.397Z" fill="#A5B9C4"/>
<path fill-rule="evenodd" clip-rule="evenodd" d="M244.018 129.245H232.741C232.402 129.245 232.128 128.994 232.128 128.683C232.128 128.373 232.402 128.121 232.741 128.121H244.018C244.356 128.121 244.63 128.373 244.63 128.683C244.63 128.994 244.356 129.245 244.018 129.245Z" fill="#A5B9C4"/>
<path fill-rule="evenodd" clip-rule="evenodd" d="M186.6 189.341H175.323C174.985 189.341 174.711 189.089 174.711 188.779C174.711 188.468 174.985 188.216 175.323 188.216H186.6C186.939 188.216 187.213 188.468 187.213 188.779C187.213 189.089 186.939 189.341 186.6 189.341Z" fill="#A5B9C4"/>
<path fill-rule="evenodd" clip-rule="evenodd" d="M282.347 125.074H271.069C270.731 125.074 270.457 124.823 270.457 124.512C270.457 124.201 270.731 123.95 271.069 123.95H282.347C282.685 123.95 282.959 124.201 282.959 124.512C282.959 124.823 282.685 125.074 282.347 125.074Z" fill="#A5B9C4"/>
<path fill-rule="evenodd" clip-rule="evenodd" d="M159.829 159.374H148.552C148.214 159.374 147.94 159.123 147.94 158.812C147.94 158.501 148.214 158.25 148.552 158.25H159.829C160.168 158.25 160.442 158.501 160.442 158.812C160.442 159.123 160.168 159.374 159.829 159.374Z" fill="#A5B9C4"/>
<path fill-rule="evenodd" clip-rule="evenodd" d="M60.3069 179.969H49.03C48.6918 179.969 48.4175 179.717 48.4175 179.406C48.4175 179.096 48.6918 178.844 49.03 178.844H60.3069C60.6452 178.844 60.9195 179.096 60.9195 179.406C60.9195 179.717 60.6452 179.969 60.3069 179.969V179.969Z" fill="#A5B9C4"/>
<path fill-rule="evenodd" clip-rule="evenodd" d="M312.838 134.961H276.706C276.367 134.961 276.093 134.709 276.093 134.398C276.093 134.088 276.367 133.836 276.706 133.836H312.838C313.177 133.836 313.451 134.088 313.451 134.398C313.451 134.709 313.177 134.961 312.838 134.961Z" fill="#A5B9C4"/>
<path fill-rule="evenodd" clip-rule="evenodd" d="M286.299 150.947H250.166C249.828 150.947 249.553 150.695 249.553 150.384C249.553 150.074 249.828 149.822 250.166 149.822H286.299C286.637 149.822 286.911 150.074 286.911 150.384C286.911 150.695 286.637 150.947 286.299 150.947V150.947Z" fill="#A5B9C4"/>
<path fill-rule="evenodd" clip-rule="evenodd" d="M291.073 150.947H289.987C289.649 150.947 289.375 150.695 289.375 150.384C289.375 150.074 289.649 149.822 289.987 149.822H291.073C291.412 149.822 291.686 150.074 291.686 150.384C291.686 150.695 291.412 150.947 291.073 150.947V150.947Z" fill="#A5B9C4"/>
<path fill-rule="evenodd" clip-rule="evenodd" d="M224.119 172.782H195.752C195.413 172.782 195.139 172.53 195.139 172.219C195.139 171.909 195.413 171.657 195.752 171.657H224.119C224.457 171.657 224.731 171.909 224.731 172.219C224.731 172.53 224.457 172.782 224.119 172.782V172.782Z" fill="#A5B9C4"/>
<path fill-rule="evenodd" clip-rule="evenodd" d="M152.38 196.971H124.017C123.679 196.971 123.405 196.72 123.405 196.409C123.405 196.098 123.679 195.847 124.017 195.847H152.38C152.718 195.847 152.992 196.098 152.992 196.409C152.992 196.72 152.718 196.971 152.38 196.971Z" fill="#A5B9C4"/>
<path fill-rule="evenodd" clip-rule="evenodd" d="M97.1858 191.353H68.8186C68.4805 191.353 68.2063 191.101 68.2063 190.79C68.2063 190.48 68.4805 190.228 68.8186 190.228H97.1858C97.524 190.228 97.7983 190.48 97.7983 190.79C97.7983 191.101 97.524 191.353 97.1858 191.353V191.353Z" fill="#A5B9C4"/>
<path fill-rule="evenodd" clip-rule="evenodd" d="M452.388 166.943H435.101C434.763 166.943 434.489 166.691 434.489 166.38C434.489 166.07 434.763 165.818 435.101 165.818H452.388C452.726 165.818 453 166.07 453 166.38C453 166.691 452.726 166.943 452.388 166.943V166.943Z" fill="#A5B9C4"/>
<path fill-rule="evenodd" clip-rule="evenodd" d="M279.1 168.173H276.273C275.934 168.173 275.66 167.921 275.66 167.61C275.66 167.299 275.934 167.048 276.273 167.048H279.1C279.439 167.048 279.713 167.299 279.713 167.61C279.713 167.921 279.439 168.173 279.1 168.173Z" fill="#A5B9C4"/>
<path fill-rule="evenodd" clip-rule="evenodd" d="M431.732 163.116H420.455C420.117 163.116 419.843 162.865 419.843 162.554C419.843 162.244 420.117 161.992 420.455 161.992H431.732C432.071 161.992 432.345 162.244 432.345 162.554C432.345 162.865 432.071 163.116 431.732 163.116Z" fill="#A5B9C4"/>
<path fill-rule="evenodd" clip-rule="evenodd" d="M397.512 170.747H369.15C368.812 170.747 368.537 170.495 368.537 170.185C368.537 169.874 368.812 169.622 369.15 169.622H397.512C397.851 169.622 398.125 169.874 398.125 170.185C398.125 170.495 397.851 170.747 397.512 170.747Z" fill="#A5B9C4"/>
<path fill-rule="evenodd" clip-rule="evenodd" d="M342.318 165.128H313.951C313.613 165.128 313.339 164.877 313.339 164.566C313.339 164.256 313.613 164.004 313.951 164.004H342.318C342.656 164.004 342.931 164.256 342.931 164.566C342.931 164.877 342.656 165.128 342.318 165.128V165.128Z" fill="#A5B9C4"/>
<path fill-rule="evenodd" clip-rule="evenodd" d="M90.4204 150.604H62.0534C61.7152 150.604 61.4409 150.352 61.4409 150.042C61.4409 149.731 61.7152 149.479 62.0534 149.479H90.4204C90.7587 149.479 91.0329 149.731 91.0329 150.042C91.0329 150.352 90.7587 150.604 90.4204 150.604Z" fill="#A5B9C4"/>
<path fill-rule="evenodd" clip-rule="evenodd" d="M149.734 182.71H104.224C103.997 182.71 103.788 182.594 103.683 182.41C103.577 182.226 103.59 182.003 103.718 181.831L107.79 176.348C107.904 176.195 108.093 176.103 108.295 176.103H156.064C156.315 176.103 156.54 176.244 156.633 176.458C156.726 176.672 156.667 176.916 156.484 177.074L150.154 182.556C150.041 182.655 149.89 182.71 149.734 182.71ZM105.383 181.585H149.491L154.522 177.227H108.619L105.383 181.585Z" fill="#A5B9C4"/>
<path fill-rule="evenodd" clip-rule="evenodd" d="M138.199 177.227C137.861 177.227 137.586 176.975 137.586 176.665V140.959C137.586 140.649 137.861 140.397 138.199 140.397C138.537 140.397 138.812 140.649 138.812 140.959V176.665C138.812 176.975 138.537 177.227 138.199 177.227Z" fill="#A5B9C4"/>
<path fill-rule="evenodd" clip-rule="evenodd" d="M119.726 177.227C119.387 177.227 119.113 176.975 119.113 176.665V161.764C119.113 161.453 119.387 161.202 119.726 161.202C120.064 161.202 120.338 161.453 120.338 161.764V176.665C120.338 176.975 120.064 177.227 119.726 177.227Z" fill="#A5B9C4"/>
<path fill-rule="evenodd" clip-rule="evenodd" d="M123.4 173.667C123.083 173.667 122.816 173.444 122.79 173.15C122.27 167.302 123.432 160.894 126.061 155.106C127.398 152.161 129.059 149.508 130.996 147.219C133.052 144.791 135.367 142.839 137.877 141.418C138.066 141.312 138.304 141.307 138.498 141.406C138.691 141.505 138.811 141.693 138.811 141.897V173.104C138.811 173.415 138.537 173.667 138.199 173.667C138.082 173.667 137.972 173.637 137.88 173.584C136.805 173.389 128.996 173.313 123.442 173.666C123.428 173.667 123.414 173.667 123.4 173.667V173.667ZM137.586 173.106C137.586 173.106 137.586 173.106 137.586 173.106C137.586 173.106 137.586 173.106 137.586 173.106ZM137.586 142.936C135.557 144.224 133.67 145.893 131.963 147.909C130.092 150.119 128.487 152.686 127.192 155.538C124.719 160.982 123.581 166.985 123.967 172.507C126.5 172.365 129.768 172.286 132.858 172.295C134.332 172.3 135.623 172.324 136.592 172.365C137.01 172.382 137.333 172.401 137.586 172.421V142.936Z" fill="#A5B9C4"/>
<path fill-rule="evenodd" clip-rule="evenodd" d="M128.434 159.1C128.367 159.1 128.298 159.09 128.231 159.068C127.912 158.966 127.744 158.645 127.855 158.352C129.509 154.009 131.902 150.107 134.775 147.068C134.997 146.834 135.383 146.808 135.639 147.012C135.894 147.216 135.921 147.571 135.7 147.805C132.927 150.738 130.615 154.513 129.012 158.723C128.923 158.955 128.687 159.1 128.434 159.1V159.1Z" fill="#A5B9C4"/>
<path fill-rule="evenodd" clip-rule="evenodd" d="M127.333 162.461C127.283 162.461 127.232 162.455 127.181 162.443C126.853 162.366 126.656 162.059 126.74 161.758C126.895 161.202 127.07 160.626 127.272 159.999C127.368 159.701 127.709 159.531 128.034 159.62C128.358 159.708 128.543 160.021 128.446 160.319C128.248 160.933 128.078 161.495 127.926 162.038C127.855 162.292 127.606 162.461 127.333 162.461V162.461Z" fill="#A5B9C4"/>
<path fill-rule="evenodd" clip-rule="evenodd" d="M123.4 170.339C123.08 170.339 122.811 170.112 122.789 169.816C122.766 169.506 123.02 169.237 123.358 169.216C125.962 169.05 129.514 168.957 132.858 168.968C134.332 168.972 135.623 168.996 136.592 169.037C138.25 169.107 138.424 169.193 138.608 169.35C138.737 169.461 138.811 169.616 138.811 169.777C138.811 170.087 138.537 170.339 138.199 170.339C138.082 170.339 137.972 170.309 137.88 170.257C136.805 170.062 128.996 169.985 123.442 170.338C123.428 170.339 123.414 170.339 123.4 170.339V170.339ZM137.586 169.78C137.586 169.78 137.586 169.78 137.586 169.78C137.586 169.78 137.586 169.78 137.586 169.78ZM137.586 169.779V169.78V169.779ZM137.586 169.778C137.586 169.778 137.586 169.779 137.586 169.779C137.586 169.778 137.586 169.778 137.586 169.778ZM137.586 169.777C137.586 169.777 137.586 169.777 137.586 169.777C137.586 169.777 137.586 169.777 137.586 169.777Z" fill="#A5B9C4"/>
<path fill-rule="evenodd" clip-rule="evenodd" d="M113.195 174.978C113.076 174.978 112.958 174.947 112.857 174.885C112.693 174.785 112.591 174.62 112.583 174.44C112.524 173.177 112.792 170.883 113.743 168.571C114.934 165.677 116.901 163.477 119.432 162.208C119.622 162.113 119.852 162.117 120.038 162.219C120.224 162.32 120.338 162.503 120.338 162.702V174.416C120.338 174.726 120.064 174.978 119.726 174.978C119.448 174.978 119.214 174.809 119.139 174.577C118.923 174.49 118.201 174.345 116.652 174.436C115.397 174.509 114.064 174.717 113.41 174.942C113.34 174.966 113.267 174.978 113.195 174.978ZM119.113 163.71C115.014 166.33 113.928 171.284 113.811 173.672C115.272 173.366 117.703 173.125 119.113 173.405V163.71Z" fill="#A5B9C4"/>
<path fill-rule="evenodd" clip-rule="evenodd" d="M119.726 173.353C119.448 173.353 119.214 173.184 119.139 172.952C118.936 172.868 118.293 172.736 116.898 172.798C115.736 172.849 114.474 173.019 113.682 173.231C113.357 173.319 113.018 173.147 112.923 172.849C112.828 172.551 113.014 172.239 113.339 172.152C114.737 171.777 118.778 171.288 119.931 172.081C120.193 172.262 120.338 172.514 120.338 172.791C120.338 173.101 120.064 173.353 119.726 173.353V173.353Z" fill="#A5B9C4"/>
<path fill-rule="evenodd" clip-rule="evenodd" d="M150.347 173.667C150.324 173.667 150.302 173.666 150.279 173.664C144.546 173.078 139.938 173.404 138.302 173.659C138.124 173.687 137.942 173.641 137.804 173.534C137.666 173.427 137.586 173.27 137.586 173.105V142.271C137.586 142.008 137.785 141.78 138.064 141.722C138.343 141.664 138.629 141.792 138.752 142.029C139.735 143.927 140.244 146.732 140.833 149.98C141.46 153.44 142.172 157.363 143.627 161.334C145.305 165.915 147.649 169.64 150.793 172.72C150.969 172.892 151.009 173.146 150.894 173.357C150.79 173.548 150.576 173.667 150.347 173.667ZM138.812 146.024V172.459C140.27 172.296 143.859 172.012 148.848 172.404C146.105 169.425 144.01 165.906 142.466 161.692C140.98 157.636 140.26 153.667 139.625 150.164C139.353 148.669 139.1 147.269 138.812 146.024Z" fill="#A5B9C4"/>
<path fill-rule="evenodd" clip-rule="evenodd" d="M138.198 170.339C137.905 170.339 137.646 170.145 137.595 169.871C137.539 169.565 137.763 169.275 138.096 169.223C138.239 169.2 141.658 168.679 147.171 168.967C147.509 168.985 147.767 169.251 147.748 169.561C147.728 169.871 147.439 170.107 147.102 170.09C141.74 169.81 138.335 170.326 138.301 170.331C138.267 170.337 138.232 170.339 138.198 170.339V170.339Z" fill="#A5B9C4"/>
<path fill-rule="evenodd" clip-rule="evenodd" d="M268.237 185.817H238.736C238.514 185.817 238.309 185.707 238.201 185.529L235.751 181.5C235.646 181.326 235.648 181.114 235.758 180.942C235.868 180.77 236.069 180.664 236.286 180.664H265.07C265.266 180.664 265.451 180.751 265.566 180.897L268.734 184.925C268.868 185.097 268.887 185.323 268.782 185.51C268.678 185.699 268.467 185.817 268.237 185.817ZM239.095 184.692H267.039L264.756 181.789H237.329L239.095 184.692Z" fill="#A5B9C4"/>
<path fill-rule="evenodd" clip-rule="evenodd" d="M252.261 181.789C251.923 181.789 251.649 181.537 251.649 181.226V158.453C251.649 158.143 251.923 157.891 252.261 157.891C252.6 157.891 252.874 158.143 252.874 158.453V181.226C252.874 181.537 252.6 181.789 252.261 181.789Z" fill="#A5B9C4"/>
<path fill-rule="evenodd" clip-rule="evenodd" d="M259.816 178.696C259.775 178.696 259.734 178.692 259.693 178.684C255.898 177.968 252.432 178.675 252.397 178.682C252.216 178.72 252.025 178.68 251.88 178.573C251.734 178.466 251.649 178.304 251.649 178.133V159.578C251.649 159.287 251.89 159.044 252.205 159.018C252.52 158.991 252.806 159.189 252.863 159.475C254.498 167.547 257.862 175.895 260.209 177.703C260.424 177.868 260.489 178.147 260.367 178.378C260.264 178.575 260.047 178.696 259.816 178.696V178.696ZM252.874 164.696V177.459C253.914 177.309 255.927 177.109 258.26 177.342C257.414 176.234 256.351 174.392 255.118 171.334C254.289 169.278 253.526 167.015 252.874 164.696Z" fill="#A5B9C4"/>
<path fill-rule="evenodd" clip-rule="evenodd" d="M240.726 178.696C240.569 178.696 240.416 178.641 240.301 178.538C240.149 178.404 240.083 178.206 240.127 178.016C240.46 176.582 241.631 172.815 243.683 168.826C246.167 163.997 248.948 160.722 251.95 159.094C252.139 158.991 252.374 158.989 252.565 159.089C252.756 159.189 252.874 159.376 252.874 159.577V178.133C252.874 178.335 252.757 178.521 252.567 178.621C252.376 178.721 252.142 178.72 251.953 178.619C249.859 177.497 244.074 177.942 240.875 178.679C240.826 178.69 240.776 178.696 240.726 178.696V178.696ZM251.649 160.627C246.119 164.394 242.587 173.792 241.553 177.389C244.236 176.899 248.918 176.443 251.649 177.275V160.627Z" fill="#A5B9C4"/>
<path fill-rule="evenodd" clip-rule="evenodd" d="M245.864 171.843C245.783 171.843 245.701 171.828 245.622 171.797C245.311 171.674 245.168 171.343 245.302 171.058C246.646 168.201 248.125 165.775 249.7 163.848C249.903 163.6 250.287 163.55 250.558 163.736C250.828 163.923 250.883 164.275 250.68 164.524C249.163 166.379 247.732 168.728 246.427 171.504C246.327 171.716 246.101 171.843 245.864 171.843V171.843Z" fill="#A5B9C4"/>
<path fill-rule="evenodd" clip-rule="evenodd" d="M244.362 175.406C244.296 175.406 244.229 175.396 244.163 175.375C243.843 175.274 243.673 174.955 243.783 174.661C243.975 174.147 244.18 173.628 244.393 173.119C244.515 172.829 244.869 172.685 245.185 172.796C245.501 172.908 245.658 173.233 245.536 173.523C245.328 174.019 245.129 174.524 244.941 175.026C244.854 175.259 244.616 175.406 244.362 175.406V175.406Z" fill="#A5B9C4"/>
<path fill-rule="evenodd" clip-rule="evenodd" d="M154.193 179.018H106.966C106.628 179.018 106.353 178.766 106.353 178.455C106.353 178.145 106.628 177.893 106.966 177.893H154.193C154.532 177.893 154.806 178.145 154.806 178.455C154.806 178.766 154.532 179.018 154.193 179.018V179.018Z" fill="#A5B9C4"/>
<path fill-rule="evenodd" clip-rule="evenodd" d="M266.653 183.8H237.511C237.172 183.8 236.898 183.549 236.898 183.238C236.898 182.928 237.172 182.676 237.511 182.676H266.653C266.992 182.676 267.266 182.928 267.266 183.238C267.266 183.549 266.992 183.8 266.653 183.8V183.8Z" fill="#A5B9C4"/>
<path fill-rule="evenodd" clip-rule="evenodd" d="M429.901 152.954H425.227C424.888 152.954 424.614 152.702 424.614 152.392C424.614 152.081 424.888 151.83 425.227 151.83H429.901C430.239 151.83 430.514 152.081 430.514 152.392C430.514 152.702 430.239 152.954 429.901 152.954Z" fill="#A5B9C4"/>
<path fill-rule="evenodd" clip-rule="evenodd" d="M57.0604 125.089H25.8124C25.1362 125.089 24.5879 124.586 24.5879 123.965V85.0717C24.5879 84.4503 25.1362 83.947 25.8124 83.947H76.361C77.0375 83.947 77.5861 84.4503 77.5861 85.0717C77.5861 85.6927 77.0375 86.1961 76.361 86.1961H27.0372V122.84H57.0604C57.7366 122.84 58.2851 123.343 58.2851 123.965C58.2851 124.586 57.7366 125.089 57.0604 125.089V125.089Z" fill="#A5B9C4"/>
<path fill-rule="evenodd" clip-rule="evenodd" d="M179.285 116.747H144.105C143.428 116.747 142.88 116.243 142.88 115.622C142.88 115.001 143.428 114.498 144.105 114.498H179.285C179.962 114.498 180.51 115.001 180.51 115.622C180.51 116.243 179.962 116.747 179.285 116.747Z" fill="#A5B9C4"/>
<path fill-rule="evenodd" clip-rule="evenodd" d="M57.0602 130.804C56.3837 130.804 55.8352 130.301 55.8352 129.68V115.622C55.8352 115.001 56.3837 114.498 57.0602 114.498H125.512C126.188 114.498 126.737 115.001 126.737 115.622C126.737 116.243 126.188 116.747 125.512 116.747H58.2848V129.68C58.2848 130.301 57.7364 130.804 57.0602 130.804V130.804Z" fill="#A5B9C4"/>
<path fill-rule="evenodd" clip-rule="evenodd" d="M178.534 136.427H148.306C147.629 136.427 147.081 135.924 147.081 135.303C147.081 134.682 147.629 134.178 148.306 134.178H178.534C179.21 134.178 179.759 134.682 179.759 135.303C179.759 135.924 179.21 136.427 178.534 136.427Z" fill="#A5B9C4"/>
<path fill-rule="evenodd" clip-rule="evenodd" d="M125.512 136.427H94.2933C93.6169 136.427 93.0684 135.924 93.0684 135.303C93.0684 134.682 93.6169 134.178 94.2933 134.178H125.512C126.189 134.178 126.737 134.682 126.737 135.303C126.737 135.924 126.189 136.427 125.512 136.427Z" fill="#A5B9C4"/>
<path fill-rule="evenodd" clip-rule="evenodd" d="M43.4626 136.427H1.2248C0.548448 136.427 0 135.924 0 135.303V129.68C0 129.059 0.548448 128.555 1.2248 128.555H125.254C125.93 128.555 126.478 129.059 126.478 129.68C126.478 130.301 125.93 130.804 125.254 130.804H2.44974V134.178H43.4626C44.1391 134.178 448.392 134.451 448.392 135.072C448.392 135.693 44.1391 136.427 43.4626 136.427Z" fill="#A5B9C4"/>
<path fill-rule="evenodd" clip-rule="evenodd" d="M178.95 130.804H148.219C147.543 130.804 146.994 130.301 146.994 129.68C146.994 129.059 147.543 128.555 148.219 128.555H178.95C179.627 128.555 180.175 129.059 180.175 129.68C180.175 130.301 179.627 130.804 178.95 130.804Z" fill="#A5B9C4"/>
<path fill-rule="evenodd" clip-rule="evenodd" d="M57.0604 130.804H4.28705C3.61042 130.804 3.06226 130.301 3.06226 129.68V123.965C3.06226 123.344 3.61042 122.84 4.28705 122.84H57.0604C57.7366 122.84 58.285 123.344 58.285 123.965V129.68C58.285 130.301 57.7366 130.804 57.0604 130.804ZM5.51186 128.555H55.8354V125.089H5.51186V128.555Z" fill="#A5B9C4"/>
<path fill-rule="evenodd" clip-rule="evenodd" d="M10.9233 124.057C7.15327 124.057 4.08618 121.241 4.08618 117.779C4.08618 114.317 7.15327 111.5 10.9233 111.5C14.6935 111.5 17.7603 114.317 17.7603 117.779C17.7603 121.241 14.6935 124.057 10.9233 124.057ZM10.9233 112.624C7.82852 112.624 5.31113 114.937 5.31113 117.779C5.31113 120.621 7.82852 122.932 10.9233 122.932C14.0178 122.932 16.5352 120.621 16.5352 117.779C16.5352 114.937 14.0178 112.624 10.9233 112.624Z" fill="#A5B9C4"/>
<path fill-rule="evenodd" clip-rule="evenodd" d="M12.6606 121.008C12.4568 121.008 12.2577 120.915 12.1415 120.745C11.9613 120.482 12.0475 120.135 12.3339 119.97C12.3575 119.956 12.3802 119.944 12.4039 119.931C12.4191 119.923 12.4338 119.915 12.4485 119.906C12.735 119.741 13.1131 119.82 13.2932 120.083C13.4732 120.346 13.3869 120.693 13.1006 120.858C13.077 120.871 13.0539 120.884 13.0308 120.897C13.0157 120.905 13.0009 120.913 12.9859 120.922C12.8847 120.981 12.7718 121.008 12.6606 121.008V121.008Z" fill="#A5B9C4"/>
<path fill-rule="evenodd" clip-rule="evenodd" d="M14.0903 119.44C14.0192 119.44 13.9474 119.429 13.877 119.405C13.5598 119.296 13.3986 118.973 13.5165 118.682C13.6337 118.392 13.6933 118.089 13.6933 117.779C13.6933 116.759 13.0352 115.841 12.0167 115.441C11.7059 115.319 11.5618 114.988 11.6953 114.702C11.8284 114.417 12.1883 114.285 12.4994 114.407C13.9687 114.985 14.9181 116.309 14.9181 117.779C14.9181 118.223 14.8327 118.658 14.6643 119.074C14.5727 119.3 14.339 119.44 14.0903 119.44V119.44Z" fill="#A5B9C4"/>
<path fill-rule="evenodd" clip-rule="evenodd" d="M30.2048 108.198C29.8665 108.198 29.592 107.947 29.592 107.636V93.4468C29.592 93.1362 29.8665 92.8846 30.2048 92.8846C30.5427 92.8846 30.817 93.1362 30.817 93.4468V107.636C30.817 107.947 30.5427 108.198 30.2048 108.198Z" fill="#A5B9C4"/>
<path fill-rule="evenodd" clip-rule="evenodd" d="M30.2048 111.172C29.8665 111.172 29.592 110.92 29.592 110.61V110.188C29.592 109.878 29.8665 109.626 30.2048 109.626C30.5427 109.626 30.817 109.878 30.817 110.188V110.61C30.817 110.92 30.5427 111.172 30.2048 111.172Z" fill="#A5B9C4"/>
<path fill-rule="evenodd" clip-rule="evenodd" d="M74.6958 91.6785H25.8123C25.4742 91.6785 25.2 91.4266 25.2 91.1163C25.2 90.8056 25.4742 90.554 25.8123 90.554H74.6958C75.0341 90.554 75.3084 90.8056 75.3084 91.1163C75.3084 91.4266 75.0341 91.6785 74.6958 91.6785Z" fill="#A5B9C4"/>
<path fill-rule="evenodd" clip-rule="evenodd" d="M249.957 114.498L393.13 115.622L249.957 116.747C249.281 116.752 248.728 116.253 248.722 115.632C248.716 115.011 249.26 114.503 249.936 114.498C249.941 114.498 249.953 114.498 249.957 114.498V114.498Z" fill="#A5B9C4"/>
<path fill-rule="evenodd" clip-rule="evenodd" d="M232.182 116.747H196.931C196.254 116.747 195.706 116.243 195.706 115.622C195.706 115.001 196.254 114.498 196.931 114.498H232.182C232.859 114.498 233.408 115.001 233.408 115.622C233.408 116.243 232.859 116.747 232.182 116.747Z" fill="#A5B9C4"/>
<path fill-rule="evenodd" clip-rule="evenodd" d="M254.565 134.178L452.953 135.303L254.565 136.427C253.888 136.431 253.337 135.931 253.332 135.31C253.328 134.688 253.873 134.182 254.55 134.178C254.552 134.178 254.562 134.178 254.565 134.178V134.178Z" fill="#A5B9C4"/>
<path fill-rule="evenodd" clip-rule="evenodd" d="M231.704 136.427H201.978C201.302 136.427 200.753 135.924 200.753 135.303C200.753 134.682 201.302 134.178 201.978 134.178H231.704C232.381 134.178 232.929 134.682 232.929 135.303C232.929 135.924 232.381 136.427 231.704 136.427Z" fill="#A5B9C4"/>
<path fill-rule="evenodd" clip-rule="evenodd" d="M231.704 130.804H201.5C200.823 130.804 200.275 130.301 200.275 129.68C200.275 129.059 200.823 128.555 201.5 128.555H231.704C232.381 128.555 232.929 129.059 232.929 129.68C232.929 130.301 232.381 130.804 231.704 130.804Z" fill="#A5B9C4"/>
<path fill-rule="evenodd" clip-rule="evenodd" d="M254.565 128.555L430.519 129.68L254.565 130.804C253.888 130.809 253.336 130.309 253.332 129.688C253.327 129.066 253.871 128.559 254.548 128.555C254.551 128.555 254.561 128.555 254.565 128.555V128.555Z" fill="#A5B9C4"/>
</svg>
