<svg width="350" height="264" viewBox="0 0 350 264" fill="none" xmlns="http://www.w3.org/2000/svg">
<path fill-rule="evenodd" clip-rule="evenodd" d="M241.601 263.248H157.476C156.81 263.248 1.53223 262.778 1.53223 262.199C1.53223 261.619 156.81 261.149 157.476 261.149H240.395V226.956H48.5219C47.8561 226.956 5.95745 227.536 5.95745 226.956C5.95745 226.376 47.8561 224.858 48.5219 224.858H241.601C242.267 224.858 242.807 225.327 242.807 225.907V262.199C242.807 262.778 242.267 263.248 241.601 263.248Z" fill="#A5B9C4"/>
<path fill-rule="evenodd" clip-rule="evenodd" d="M239.279 257.648H3.42678C1.53515 257.648 0 257.177 0 256.595C0 256.014 1.53515 255.542 3.42678 255.542H239.279C241.171 255.542 242.706 256.014 242.706 256.595C242.706 257.177 241.171 257.648 239.279 257.648V257.648Z" fill="#A5B9C4"/>
<path fill-rule="evenodd" clip-rule="evenodd" d="M241.63 232.078H6.1817C5.77573 232.078 5.44629 231.808 5.44629 231.476C5.44629 231.144 5.77573 230.874 6.1817 230.874H241.63C242.037 230.874 242.366 231.144 242.366 231.476C242.366 231.808 242.037 232.078 241.63 232.078V232.078Z" fill="#A5B9C4"/>
<path fill-rule="evenodd" clip-rule="evenodd" d="M237.579 247.835C237.246 247.835 236.976 247.6 236.976 247.31V234.312C236.976 234.022 237.246 233.788 237.579 233.788C237.911 233.788 238.181 234.022 238.181 234.312V247.31C238.181 247.6 237.911 247.835 237.579 247.835Z" fill="#A5B9C4"/>
<path fill-rule="evenodd" clip-rule="evenodd" d="M237.579 251.742C237.246 251.742 236.976 251.507 236.976 251.217V249.709C236.976 249.419 237.246 249.184 237.579 249.184C237.911 249.184 238.181 249.419 238.181 249.709V251.217C238.181 251.507 237.911 251.742 237.579 251.742Z" fill="#A5B9C4"/>
<path fill-rule="evenodd" clip-rule="evenodd" d="M219.314 253.189C218.031 253.189 216.987 252.282 216.987 251.168C216.987 250.051 218.031 249.143 219.314 249.143C220.597 249.143 221.64 250.051 221.64 251.168C221.64 252.282 220.597 253.189 219.314 253.189ZM219.314 250.192C218.696 250.192 218.193 250.63 218.193 251.168C218.193 251.704 218.696 252.14 219.314 252.14C219.932 252.14 220.435 251.704 220.435 251.168C220.435 250.63 219.932 250.192 219.314 250.192Z" fill="#A5B9C4"/>
<path fill-rule="evenodd" clip-rule="evenodd" d="M219.314 250.795C218.981 250.795 218.711 250.56 218.711 250.27V248.545C218.711 248.255 218.981 248.02 219.314 248.02C219.647 248.02 219.917 248.255 219.917 248.545V250.27C219.917 250.56 219.647 250.795 219.314 250.795Z" fill="#A5B9C4"/>
<path fill-rule="evenodd" clip-rule="evenodd" d="M167.879 253.189C166.599 253.189 165.558 252.282 165.558 251.168C165.558 250.051 166.599 249.143 167.879 249.143C169.162 249.143 170.206 250.051 170.206 251.168C170.206 252.282 169.162 253.189 167.879 253.189ZM167.879 250.192C167.264 250.192 166.763 250.63 166.763 251.168C166.763 251.704 167.264 252.139 167.879 252.139C168.497 252.139 169 251.704 169 251.168C169 250.63 168.497 250.192 167.879 250.192Z" fill="#A5B9C4"/>
<path fill-rule="evenodd" clip-rule="evenodd" d="M167.879 250.795C167.546 250.795 167.276 250.56 167.276 250.27V248.544C167.276 248.255 167.546 248.02 167.879 248.02C168.212 248.02 168.482 248.255 168.482 248.544V250.27C168.482 250.56 168.212 250.795 167.879 250.795Z" fill="#A5B9C4"/>
<path fill-rule="evenodd" clip-rule="evenodd" d="M65.0151 253.189C63.7323 253.189 62.6885 252.282 62.6885 251.168C62.6885 250.051 63.7323 249.143 65.0151 249.143C66.298 249.143 67.3418 250.051 67.3418 251.168C67.3418 252.282 66.298 253.189 65.0151 253.189ZM65.0151 250.192C64.397 250.192 63.8941 250.63 63.8941 251.168C63.8941 251.704 64.397 252.14 65.0151 252.14C65.6331 252.14 66.1357 251.704 66.1357 251.168C66.1357 250.63 65.6331 250.192 65.0151 250.192Z" fill="#A5B9C4"/>
<path fill-rule="evenodd" clip-rule="evenodd" d="M65.015 250.795C64.682 250.795 64.4121 250.56 64.4121 250.27V248.545C64.4121 248.255 64.682 248.02 65.015 248.02C65.348 248.02 65.618 248.255 65.618 248.545V250.27C65.618 250.56 65.348 250.795 65.015 250.795Z" fill="#A5B9C4"/>
<path fill-rule="evenodd" clip-rule="evenodd" d="M283.913 247.792H260.033C259.881 247.792 259.758 247.569 259.758 247.293C259.758 247.018 259.881 246.795 260.033 246.795H283.913C284.065 246.795 284.188 247.018 284.188 247.293C284.188 247.569 284.065 247.792 283.913 247.792Z" fill="#A5B9C4"/>
<path fill-rule="evenodd" clip-rule="evenodd" d="M305.85 257.265H281.971C281.819 257.265 281.695 257.042 281.695 256.766C281.695 256.491 281.819 256.268 281.971 256.268H305.85C306.002 256.268 306.126 256.491 306.126 256.766C306.126 257.042 306.002 257.265 305.85 257.265Z" fill="#A5B9C4"/>
<path fill-rule="evenodd" clip-rule="evenodd" d="M336.263 250.783H312.384C312.232 250.783 312.108 250.56 312.108 250.285C312.108 250.009 312.232 249.786 312.384 249.786H336.263C336.415 249.786 336.539 250.009 336.539 250.285C336.539 250.56 336.415 250.783 336.263 250.783Z" fill="#A5B9C4"/>
<path fill-rule="evenodd" clip-rule="evenodd" d="M349.512 240.313H242.298C242.028 240.313 241.81 240.09 241.81 239.815C241.81 239.539 242.028 239.316 242.298 239.316H349.512C349.782 239.316 350 239.539 350 239.815C350 240.09 349.782 240.313 349.512 240.313Z" fill="#A5B9C4"/>
<path fill-rule="evenodd" clip-rule="evenodd" d="M349.331 233.997H341.237C340.926 233.997 340.674 233.749 340.674 233.443V230.347H338.391C338.08 230.347 337.828 230.099 337.828 229.793V226.465H331.255V229.678C331.255 229.984 331.003 230.232 330.692 230.232H326.144C325.833 230.232 325.58 229.984 325.58 229.678V227.932H320.812V232.264C320.812 232.571 320.56 232.819 320.249 232.819H306.207C305.896 232.819 305.643 232.571 305.643 232.264V231.283H302.358V233.443C302.358 233.749 302.105 233.997 301.794 233.997H298.416C298.105 233.997 297.853 233.749 297.853 233.443V229.292H290.251V232.264C290.251 232.571 289.999 232.819 289.688 232.819H282.79C282.48 232.819 282.227 232.571 282.227 232.264V227.834H278.849V232.073C278.849 232.38 278.597 232.628 278.286 232.628H274.115C273.804 232.628 273.552 232.38 273.552 232.073V231.041H268.291V233.443C268.291 233.749 268.039 233.997 267.728 233.997H260.584C260.273 233.997 260.02 233.749 260.02 233.443V230.232H254.983C254.673 230.232 254.42 229.984 254.42 229.678V227.932H250.18V231.318C250.18 231.624 249.928 231.872 249.617 231.872H242.939C242.628 231.872 242.376 231.624 242.376 231.318C242.376 231.011 242.628 230.763 242.939 230.763H249.054V227.377C249.054 227.071 249.306 226.823 249.617 226.823H254.983C255.294 226.823 255.547 227.071 255.547 227.377V229.123H260.584C260.895 229.123 261.147 229.372 261.147 229.678V232.888H267.165V230.486C267.165 230.18 267.417 229.931 267.728 229.931H274.115C274.426 229.931 274.678 230.18 274.678 230.486V231.519H277.723V227.28C277.723 226.973 277.975 226.725 278.286 226.725H282.79C283.101 226.725 283.353 226.973 283.353 227.28V231.71H289.125V228.738C289.125 228.431 289.377 228.183 289.688 228.183H298.416C298.727 228.183 298.979 228.431 298.979 228.738V232.888H301.231V230.728C301.231 230.422 301.484 230.174 301.794 230.174H306.207C306.518 230.174 306.77 230.422 306.77 230.728V231.71H319.686V227.377C319.686 227.071 319.938 226.823 320.249 226.823H326.144C326.454 226.823 326.707 227.071 326.707 227.377V229.123H330.129V225.911C330.129 225.604 330.381 225.356 330.692 225.356H338.391C338.702 225.356 338.954 225.604 338.954 225.911V229.238H341.237C341.548 229.238 341.8 229.486 341.8 229.793V232.888H349.331C349.642 232.888 349.895 233.136 349.895 233.443C349.895 233.749 349.642 233.997 349.331 233.997V233.997Z" fill="#A5B9C4"/>
<path fill-rule="evenodd" clip-rule="evenodd" d="M258.416 239.289C258.105 239.289 257.853 239.041 257.853 238.735V233.796C257.853 233.489 258.105 233.241 258.416 233.241C258.727 233.241 258.979 233.489 258.979 233.796V238.735C258.979 239.041 258.727 239.289 258.416 239.289Z" fill="#A5B9C4"/>
<path fill-rule="evenodd" clip-rule="evenodd" d="M272.083 237.195C271.772 237.195 271.52 236.946 271.52 236.64V233.421C271.52 233.115 271.772 232.867 272.083 232.867C272.394 232.867 272.646 233.115 272.646 233.421V236.64C272.646 236.946 272.394 237.195 272.083 237.195Z" fill="#A5B9C4"/>
<path fill-rule="evenodd" clip-rule="evenodd" d="M281.045 239.853C280.734 239.853 280.481 239.604 280.481 239.298V232.821C280.481 232.515 280.734 232.267 281.045 232.267C281.355 232.267 281.607 232.515 281.607 232.821V239.298C281.607 239.604 281.355 239.853 281.045 239.853Z" fill="#A5B9C4"/>
<path fill-rule="evenodd" clip-rule="evenodd" d="M296.626 237.383C296.315 237.383 296.062 237.135 296.062 236.829V233.046C296.062 232.74 296.315 232.492 296.626 232.492C296.937 232.492 297.189 232.74 297.189 233.046V236.829C297.189 237.135 296.937 237.383 296.626 237.383Z" fill="#A5B9C4"/>
<path fill-rule="evenodd" clip-rule="evenodd" d="M293.199 240.191C292.888 240.191 292.636 239.942 292.636 239.636V235.819C292.636 235.513 292.888 235.265 293.199 235.265C293.51 235.265 293.762 235.513 293.762 235.819V239.636C293.762 239.942 293.51 240.191 293.199 240.191Z" fill="#A5B9C4"/>
<path fill-rule="evenodd" clip-rule="evenodd" d="M304.47 236.374C304.159 236.374 303.906 236.126 303.906 235.819V234.056C303.906 233.749 304.159 233.501 304.47 233.501C304.78 233.501 305.033 233.749 305.033 234.056V235.819C305.033 236.126 304.78 236.374 304.47 236.374Z" fill="#A5B9C4"/>
<path fill-rule="evenodd" clip-rule="evenodd" d="M324.023 239.59C323.712 239.59 323.46 239.342 323.46 239.036V232.26C323.46 231.954 323.712 231.705 324.023 231.705C324.334 231.705 324.586 231.954 324.586 232.26V239.036C324.586 239.342 324.334 239.59 324.023 239.59Z" fill="#A5B9C4"/>
<path fill-rule="evenodd" clip-rule="evenodd" d="M336.059 236.374C335.748 236.374 335.496 236.125 335.496 235.819V231.326C335.496 231.02 335.748 230.772 336.059 230.772C336.37 230.772 336.622 231.02 336.622 231.326V235.819C336.622 236.125 336.37 236.374 336.059 236.374V236.374Z" fill="#A5B9C4"/>
<path fill-rule="evenodd" clip-rule="evenodd" d="M339.134 239.439C338.824 239.439 338.571 239.191 338.571 238.884V234.056C338.571 233.749 338.824 233.501 339.134 233.501C339.445 233.501 339.698 233.749 339.698 234.056V238.884C339.698 239.191 339.445 239.439 339.134 239.439Z" fill="#A5B9C4"/>
<path fill-rule="evenodd" clip-rule="evenodd" d="M316.497 239.439C316.186 239.439 315.934 239.191 315.934 238.884V236.162C315.934 235.855 316.186 235.607 316.497 235.607C316.807 235.607 317.06 235.855 317.06 236.162V238.884C317.06 239.191 316.807 239.439 316.497 239.439Z" fill="#A5B9C4"/>
<path fill-rule="evenodd" clip-rule="evenodd" d="M330.851 238.956C330.54 238.956 330.288 238.708 330.288 238.401V234.727C330.288 234.421 330.54 234.173 330.851 234.173C331.162 234.173 331.414 234.421 331.414 234.727V238.401C331.414 238.708 331.162 238.956 330.851 238.956Z" fill="#A5B9C4"/>
<path fill-rule="evenodd" clip-rule="evenodd" d="M287.638 239.075C287.328 239.075 287.075 238.827 287.075 238.52V235.819C287.075 235.513 287.328 235.265 287.638 235.265C287.949 235.265 288.201 235.513 288.201 235.819V238.52C288.201 238.827 287.949 239.075 287.638 239.075Z" fill="#A5B9C4"/>
<path fill-rule="evenodd" clip-rule="evenodd" d="M266.347 239.439C266.036 239.439 265.784 239.191 265.784 238.884V237.169C265.784 236.862 266.036 236.614 266.347 236.614C266.658 236.614 266.91 236.862 266.91 237.169V238.884C266.91 239.191 266.658 239.439 266.347 239.439Z" fill="#A5B9C4"/>
<path fill-rule="evenodd" clip-rule="evenodd" d="M253.114 237.723C252.803 237.723 252.551 237.475 252.551 237.169V232.373C252.551 232.066 252.803 231.818 253.114 231.818C253.425 231.818 253.677 232.066 253.677 232.373V237.169C253.677 237.475 253.425 237.723 253.114 237.723Z" fill="#A5B9C4"/>
<path fill-rule="evenodd" clip-rule="evenodd" d="M247.646 239.749C247.335 239.749 247.083 239.5 247.083 239.194V235.6C247.083 235.294 247.335 235.046 247.646 235.046C247.957 235.046 248.209 235.294 248.209 235.6V239.194C248.209 239.5 247.957 239.749 247.646 239.749V239.749Z" fill="#A5B9C4"/>
<path fill-rule="evenodd" clip-rule="evenodd" d="M307.791 240.191C307.48 240.191 307.228 239.942 307.228 239.636V236.829C307.228 236.522 307.48 236.274 307.791 236.274C308.102 236.274 308.354 236.522 308.354 236.829V239.636C308.354 239.942 308.102 240.191 307.791 240.191V240.191Z" fill="#A5B9C4"/>
<path fill-rule="evenodd" clip-rule="evenodd" d="M1.74491 227.35C0.781347 227.35 0 226.497 0 225.444V172.419C0 171.366 0.781347 170.513 1.74491 170.513C2.70827 170.513 3.49003 171.366 3.49003 172.419V198.932V225.444C3.49003 226.497 2.70827 227.35 1.74491 227.35Z" fill="#A5B9C4"/>
<path fill-rule="evenodd" clip-rule="evenodd" d="M243.804 226.603C243.804 227.566 240.526 228.348 236.479 228.348L32.7532 228.348C28.7067 228.348 25.4277 227.566 25.4277 226.603C25.4277 225.639 28.7067 224.858 32.7532 224.858L134.616 224.858L236.479 224.858C240.526 224.858 243.804 225.639 243.804 226.603Z" fill="#A5B9C4"/>
<path fill-rule="evenodd" clip-rule="evenodd" d="M78.2205 121.848H45.8403C44.8652 121.848 44.0742 121.069 44.0742 120.109V108.492C44.0742 107.531 44.8652 106.752 45.8403 106.752H78.2205C79.1954 106.752 79.9863 107.531 79.9863 108.492V120.109C79.9863 121.069 79.1954 121.848 78.2205 121.848ZM47.6064 118.37H76.4544V110.231H47.6064V118.37Z" fill="#A5B9C4"/>
<path fill-rule="evenodd" clip-rule="evenodd" d="M78.9381 159.651H45.1232C44.1482 159.651 43.3574 158.873 43.3574 157.912V126.393C43.3574 125.432 44.1482 124.653 45.1232 124.653H78.9381C79.9132 124.653 80.7035 125.432 80.7035 126.393V157.912C80.7035 158.873 79.9132 159.651 78.9381 159.651ZM46.8896 156.173H77.172V128.132H46.8896V156.173Z" fill="#A5B9C4"/>
<path fill-rule="evenodd" clip-rule="evenodd" d="M87.6842 165.935H36.376C35.4011 165.935 34.6104 165.156 34.6104 164.196V157.912C34.6104 156.951 35.4011 156.173 36.376 156.173H87.6842C88.6597 156.173 89.4503 156.951 89.4503 157.912V164.196C89.4503 165.156 88.6597 165.935 87.6842 165.935V165.935ZM38.1421 162.457H85.9181V159.651H38.1421V162.457Z" fill="#A5B9C4"/>
<path fill-rule="evenodd" clip-rule="evenodd" d="M87.6842 128.132H36.376C35.4011 128.132 34.6104 127.353 34.6104 126.393V120.109C34.6104 119.148 35.4011 118.37 36.376 118.37H87.6842C88.6597 118.37 89.4503 119.148 89.4503 120.109V126.393C89.4503 127.353 88.6597 128.132 87.6842 128.132V128.132ZM38.1421 124.653H85.9181V121.848H38.1421V124.653Z" fill="#A5B9C4"/>
<path fill-rule="evenodd" clip-rule="evenodd" d="M25.463 228.196C24.4877 228.196 23.6973 227.417 23.6973 226.457V164.196C23.6973 163.236 24.4877 162.457 25.463 162.457H98.5971C99.572 162.457 100.363 163.236 100.363 164.196V203.338C100.363 204.298 99.572 205.077 98.5971 205.077C97.6214 205.077 96.8312 204.298 96.8312 203.338V165.935H27.2287V226.457C27.2287 227.417 26.4383 228.196 25.463 228.196V228.196Z" fill="#A5B9C4"/>
<path fill-rule="evenodd" clip-rule="evenodd" d="M78.2205 110.23C77.2452 110.23 76.4544 109.452 76.4544 108.491C76.4544 100.66 69.9839 94.2891 62.0305 94.2891C54.0767 94.2891 47.6064 100.66 47.6064 108.491C47.6064 109.452 46.8154 110.23 45.8403 110.23C44.8652 110.23 44.0742 109.452 44.0742 108.491C44.0742 98.7421 52.1294 90.8108 62.0305 90.8108C71.9312 90.8108 79.9863 98.7421 79.9863 108.491C79.9863 109.452 79.1954 110.23 78.2205 110.23V110.23Z" fill="#A5B9C4"/>
<path fill-rule="evenodd" clip-rule="evenodd" d="M62.0308 105.934C59.1967 105.934 56.8916 103.662 56.8916 100.869C56.8916 98.0762 59.1967 95.8042 62.0308 95.8042C64.8643 95.8042 67.1697 98.0762 67.1697 100.869C67.1697 103.662 64.8643 105.934 62.0308 105.934ZM62.0308 97.5435C60.1707 97.5435 58.6573 99.0354 58.6573 100.869C58.6573 102.703 60.1707 104.194 62.0308 104.194C63.8907 104.194 65.4039 102.703 65.4039 100.869C65.4039 99.0354 63.8907 97.5435 62.0308 97.5435Z" fill="#A5B9C4"/>
<path fill-rule="evenodd" clip-rule="evenodd" d="M40.6662 210.645C40.1789 210.645 39.7832 210.255 39.7832 209.775V203.562C39.7832 191.481 49.7629 181.653 62.0303 181.653C67.7024 181.653 73.1047 183.757 77.2418 187.578C81.3587 191.38 83.8392 196.518 84.2262 202.045C84.2599 202.524 83.8924 202.939 83.4062 202.973C82.919 203.006 82.4982 202.644 82.4642 202.165C82.108 197.077 79.8243 192.347 76.0334 188.846C72.2252 185.329 67.252 183.392 62.0303 183.392C50.7372 183.392 41.5493 192.44 41.5493 203.562V209.775C41.5493 210.255 41.1544 210.645 40.6662 210.645V210.645Z" fill="#A5B9C4"/>
<path fill-rule="evenodd" clip-rule="evenodd" d="M84.1463 193.538C83.8241 193.538 83.5132 193.363 83.3579 193.06C82.0203 190.452 80.2149 188.14 77.9908 186.188C75.7552 184.227 73.2033 182.723 70.4057 181.719C69.948 181.554 69.712 181.055 69.8787 180.604C70.046 180.153 70.5526 179.92 71.0107 180.084C74.0189 181.164 76.7625 182.781 79.1658 184.89C81.5559 186.988 83.4964 189.473 84.9343 192.276C85.1542 192.705 84.9795 193.228 84.5437 193.445C84.4165 193.508 84.2806 193.538 84.1463 193.538V193.538Z" fill="#A5B9C4"/>
<path fill-rule="evenodd" clip-rule="evenodd" d="M86.1597 199.068C85.7556 199.068 85.3916 198.794 85.2991 198.39C85.0434 197.272 84.6986 196.162 84.2753 195.089C84.0981 194.642 84.3238 194.138 84.7781 193.964C85.2325 193.79 85.744 194.011 85.921 194.459C86.3761 195.612 86.7467 196.805 87.0215 198.007C87.129 198.476 86.8301 198.941 86.3547 199.047C86.2891 199.061 86.224 199.068 86.1597 199.068V199.068Z" fill="#A5B9C4"/>
<path fill-rule="evenodd" clip-rule="evenodd" d="M45.1231 227.326C44.6357 227.326 44.2402 226.937 44.2402 226.457V203.756C44.2402 194.095 52.2209 186.235 62.0308 186.235C71.8401 186.235 79.8211 194.095 79.8211 203.756V206.191C79.8211 206.672 79.4258 207.061 78.938 207.061C78.4503 207.061 78.0552 206.672 78.0552 206.191V203.756C78.0552 195.054 70.8664 187.974 62.0308 187.974C53.1947 187.974 46.0063 195.054 46.0063 203.756V226.457C46.0063 226.937 45.6106 227.326 45.1231 227.326Z" fill="#A5B9C4"/>
<path fill-rule="evenodd" clip-rule="evenodd" d="M50.6616 228.196C49.6867 228.196 48.8955 227.417 48.8955 226.457V204.897C48.8955 197.764 54.7879 191.962 62.0301 191.962C65.3041 191.962 68.4413 193.156 70.8628 195.325C73.269 197.481 74.7716 200.416 75.0932 203.59C75.1898 204.546 74.4814 205.397 73.5112 205.493C72.5411 205.588 71.6755 204.891 71.5786 203.935C71.3437 201.618 70.2458 199.474 68.4867 197.899C66.7167 196.313 64.4235 195.44 62.0301 195.44C56.7352 195.44 52.4273 199.683 52.4273 204.897V226.457C52.4273 227.417 51.6367 228.196 50.6616 228.196V228.196Z" fill="#A5B9C4"/>
<path fill-rule="evenodd" clip-rule="evenodd" d="M64.9472 94.2895H59.1118C58.1366 94.2895 57.3457 93.511 57.3457 92.5504V86.8028C57.3457 85.8425 58.1366 85.0635 59.1118 85.0635H64.9472C65.9228 85.0635 66.7135 85.8425 66.7135 86.8028V92.5504C66.7135 93.511 65.9228 94.2895 64.9472 94.2895ZM60.8775 90.8111H63.1816V88.5421H60.8775V90.8111Z" fill="#A5B9C4"/>
<path fill-rule="evenodd" clip-rule="evenodd" d="M64.9471 88.5419C63.9995 88.5419 63.2154 87.8014 63.1832 86.8614L62.0308 53.2498L60.8777 86.8614C60.8447 87.8212 60.0278 88.57 59.0531 88.5407C58.0782 88.5082 57.3147 87.704 57.3477 86.7437L60.2654 1.68024C60.2981 0.743105 61.0786 0 62.0308 0C62.9825 0 63.7636 0.743105 63.7956 1.68024L66.7135 86.7437C66.7462 87.704 65.9825 88.5082 65.0078 88.5407C64.9873 88.5414 64.9673 88.5423 64.9471 88.5423V88.5419Z" fill="#A5B9C4"/>
<path fill-rule="evenodd" clip-rule="evenodd" d="M98.5974 171.901H25.4634C24.9756 171.901 24.5801 171.511 24.5801 171.031C24.5801 170.551 24.9756 170.161 25.4634 170.161H98.5974C99.0848 170.161 99.4801 170.551 99.4801 171.031C99.4801 171.511 99.0848 171.901 98.5974 171.901V171.901Z" fill="#A5B9C4"/>
<path fill-rule="evenodd" clip-rule="evenodd" d="M78.22 113.862H45.8398C45.3521 113.862 44.957 113.473 44.957 112.992C44.957 112.512 45.3521 112.123 45.8398 112.123H78.22C78.7074 112.123 79.1026 112.512 79.1026 112.992C79.1026 113.473 78.7074 113.862 78.22 113.862Z" fill="#A5B9C4"/>
<path fill-rule="evenodd" clip-rule="evenodd" d="M80.9033 109.361H43.1564C42.6691 109.361 42.2734 108.972 42.2734 108.492C42.2734 108.011 42.6691 107.622 43.1564 107.622H80.9033C81.3907 107.622 81.7864 108.011 81.7864 108.492C81.7864 108.972 81.3907 109.361 80.9033 109.361Z" fill="#A5B9C4"/>
<path fill-rule="evenodd" clip-rule="evenodd" d="M67.6037 87.6721H56.4563C55.9687 87.6721 55.5732 87.2829 55.5732 86.8027C55.5732 86.3224 55.9687 85.9332 56.4563 85.9332H67.6037C68.0917 85.9332 68.487 86.3224 68.487 86.8027C68.487 87.2829 68.0917 87.6721 67.6037 87.6721Z" fill="#A5B9C4"/>
<path fill-rule="evenodd" clip-rule="evenodd" d="M98.5974 176.982H25.4634C24.9756 176.982 24.5801 176.592 24.5801 176.112C24.5801 175.632 24.9756 175.242 25.4634 175.242H98.5974C99.0848 175.242 99.4801 175.632 99.4801 176.112C99.4801 176.592 99.0848 176.982 98.5974 176.982V176.982Z" fill="#A5B9C4"/>
<path fill-rule="evenodd" clip-rule="evenodd" d="M45.0812 210.645H25.4634C24.9756 210.645 24.5801 210.255 24.5801 209.775C24.5801 209.295 24.9756 208.905 25.4634 208.905H45.0812C45.5687 208.905 45.9642 209.295 45.9642 209.775C45.9642 210.255 45.5687 210.645 45.0812 210.645Z" fill="#A5B9C4"/>
<path fill-rule="evenodd" clip-rule="evenodd" d="M52.6213 154.902C52.1338 154.902 51.7383 154.513 51.7383 154.033V129.997C51.7383 129.516 52.1338 129.127 52.6213 129.127C53.1089 129.127 53.5042 129.516 53.5042 129.997V154.033C53.5042 154.513 53.1089 154.902 52.6213 154.902Z" fill="#A5B9C4"/>
<path fill-rule="evenodd" clip-rule="evenodd" d="M48.786 154.902C48.2984 154.902 47.9033 154.513 47.9033 154.032V129.997C47.9033 129.516 48.2984 129.127 48.786 129.127C49.2739 129.127 49.6692 129.516 49.6692 129.997V154.032C49.6692 154.513 49.2739 154.902 48.786 154.902Z" fill="#A5B9C4"/>
<path fill-rule="evenodd" clip-rule="evenodd" d="M52.6208 130.866H48.7853C48.4261 130.866 48.1024 130.652 47.9673 130.323L46.8841 127.691C46.7736 127.423 46.806 127.118 46.9698 126.878C47.1339 126.638 47.4086 126.495 47.7024 126.495H53.7042C53.9977 126.495 54.272 126.638 54.4362 126.878C54.6005 127.118 54.6327 127.423 54.5226 127.691L53.4393 130.323C53.304 130.652 52.9803 130.866 52.6208 130.866V130.866ZM49.3805 129.127H52.0256L52.3938 128.234H49.0127L49.3805 129.127Z" fill="#A5B9C4"/>
<path fill-rule="evenodd" clip-rule="evenodd" d="M53.7042 157.538H47.7024C47.4086 157.538 47.1341 157.395 46.9698 157.155C46.8061 156.915 46.7736 156.611 46.884 156.343L47.9673 153.706C48.102 153.378 48.4258 153.163 48.7854 153.163H52.6209C52.9804 153.163 53.3042 153.378 53.4395 153.706L54.5227 156.343C54.6328 156.611 54.6002 156.915 54.4362 157.155C54.2721 157.395 53.9978 157.538 53.7042 157.538V157.538ZM49.0122 155.799H52.3943L52.0255 154.902H49.3808L49.0122 155.799Z" fill="#A5B9C4"/>
<path fill-rule="evenodd" clip-rule="evenodd" d="M41.2941 154.902C40.8062 154.902 40.4111 154.513 40.4111 154.033V129.997C40.4111 129.516 40.8062 129.127 41.2941 129.127C41.7817 129.127 42.1772 129.516 42.1772 129.997V154.033C42.1772 154.513 41.7817 154.902 41.2941 154.902Z" fill="#A5B9C4"/>
<path fill-rule="evenodd" clip-rule="evenodd" d="M37.4586 154.902C36.9707 154.902 36.5752 154.513 36.5752 154.032V129.997C36.5752 129.516 36.9707 129.127 37.4586 129.127C37.9458 129.127 38.3415 129.516 38.3415 129.997V154.032C38.3415 154.513 37.9458 154.902 37.4586 154.902Z" fill="#A5B9C4"/>
<path fill-rule="evenodd" clip-rule="evenodd" d="M41.2947 130.866H37.4594C37.0994 130.866 36.7756 130.652 36.6405 130.323L35.5572 127.691C35.4474 127.422 35.4803 127.118 35.6442 126.878C35.808 126.638 36.0823 126.495 36.376 126.495H42.3707C42.6641 126.495 42.9384 126.638 43.1024 126.877C43.2666 127.117 43.2995 127.421 43.1899 127.689L42.1137 130.322C41.9788 130.651 41.655 130.866 41.2947 130.866V130.866ZM38.0541 129.127H40.6983L41.0632 128.234H37.6866L38.0541 129.127Z" fill="#A5B9C4"/>
<path fill-rule="evenodd" clip-rule="evenodd" d="M42.3707 157.538H36.376C36.0823 157.538 35.8083 157.395 35.6442 157.155C35.4803 156.915 35.4474 156.611 35.5572 156.343L36.6404 153.706C36.7752 153.378 37.0992 153.163 37.4594 153.163H41.2947C41.6552 153.163 41.9794 153.379 42.1137 153.708L43.1902 156.345C43.2995 156.612 43.2666 156.916 43.1024 157.156C42.9382 157.395 42.6641 157.538 42.3707 157.538V157.538ZM37.6857 155.799H41.064L40.6983 154.902H38.0543L37.6857 155.799Z" fill="#A5B9C4"/>
<path fill-rule="evenodd" clip-rule="evenodd" d="M63.9477 154.902C63.4601 154.902 63.0645 154.513 63.0645 154.033V129.997C63.0645 129.516 63.4601 129.127 63.9477 129.127C64.4354 129.127 64.8309 129.516 64.8309 129.997V154.033C64.8309 154.513 64.4354 154.902 63.9477 154.902Z" fill="#A5B9C4"/>
<path fill-rule="evenodd" clip-rule="evenodd" d="M60.1128 154.902C59.6248 154.902 59.2295 154.513 59.2295 154.032V129.997C59.2295 129.516 59.6248 129.127 60.1128 129.127C60.5999 129.127 60.9952 129.516 60.9952 129.997V154.032C60.9952 154.513 60.5999 154.902 60.1128 154.902Z" fill="#A5B9C4"/>
<path fill-rule="evenodd" clip-rule="evenodd" d="M63.9476 130.866H60.1128C59.7532 130.866 59.4292 130.652 59.2941 130.323L58.211 127.691C58.1008 127.422 58.1332 127.118 58.2973 126.878C58.4615 126.638 58.7356 126.495 59.0294 126.495H65.031C65.3246 126.495 65.5991 126.638 65.7632 126.878C65.9272 127.118 65.9594 127.423 65.8494 127.691L64.7659 130.323C64.6312 130.652 64.3076 130.866 63.9476 130.866V130.866ZM60.7077 129.127H63.3527L63.7204 128.234H60.3399L60.7077 129.127Z" fill="#A5B9C4"/>
<path fill-rule="evenodd" clip-rule="evenodd" d="M65.0309 157.538H59.0294C58.7356 157.538 58.4615 157.395 58.2973 157.155C58.1333 156.915 58.1008 156.611 58.2109 156.343L59.294 153.706C59.4289 153.378 59.7526 153.163 60.1127 153.163H63.9476C64.3075 153.163 64.6313 153.378 64.7662 153.706L65.8496 156.343C65.9593 156.611 65.9271 156.915 65.7628 157.155C65.599 157.395 65.3245 157.538 65.0309 157.538ZM60.3391 155.799H63.7208L63.3524 154.902H60.7078L60.3391 155.799Z" fill="#A5B9C4"/>
<path fill-rule="evenodd" clip-rule="evenodd" d="M75.2757 154.902C74.7877 154.902 74.3926 154.513 74.3926 154.033V129.997C74.3926 129.516 74.7877 129.127 75.2757 129.127C75.7634 129.127 76.1585 129.516 76.1585 129.997V154.033C76.1585 154.513 75.7634 154.902 75.2757 154.902Z" fill="#A5B9C4"/>
<path fill-rule="evenodd" clip-rule="evenodd" d="M71.4393 154.902C70.9519 154.902 70.5566 154.513 70.5566 154.032V129.997C70.5566 129.516 70.9519 129.127 71.4393 129.127C71.9277 129.127 72.3227 129.516 72.3227 129.997V154.032C72.3227 154.513 71.9277 154.902 71.4393 154.902Z" fill="#A5B9C4"/>
<path fill-rule="evenodd" clip-rule="evenodd" d="M75.2753 130.866H71.4394C71.0797 130.866 70.7562 130.652 70.6211 130.323L69.5382 127.691C69.4279 127.422 69.4604 127.118 69.6244 126.878C69.7884 126.638 70.0631 126.495 70.357 126.495H76.358C76.6519 126.495 76.9261 126.638 77.0906 126.878C77.2542 127.118 77.2868 127.422 77.1761 127.691L76.0937 130.323C75.9586 130.652 75.6352 130.866 75.2753 130.866V130.866ZM72.0346 129.127H74.6801L75.0477 128.234H71.6669L72.0346 129.127Z" fill="#A5B9C4"/>
<path fill-rule="evenodd" clip-rule="evenodd" d="M76.358 157.538H70.357C70.0631 157.538 69.7886 157.395 69.6244 157.155C69.4604 156.915 69.4279 156.611 69.5382 156.343L70.6209 153.706C70.756 153.378 71.0797 153.163 71.4394 153.163H75.2753C75.6352 153.163 75.9588 153.378 76.0939 153.706L77.1763 156.343C77.2868 156.611 77.2542 156.915 77.0902 157.155C76.9261 157.395 76.6518 157.538 76.358 157.538V157.538ZM71.6664 155.799H75.0487L74.6799 154.902H72.0349L71.6664 155.799Z" fill="#A5B9C4"/>
<path fill-rule="evenodd" clip-rule="evenodd" d="M86.6018 154.902C86.1144 154.902 85.7188 154.513 85.7188 154.033V129.997C85.7188 129.516 86.1144 129.127 86.6018 129.127C87.0898 129.127 87.4848 129.516 87.4848 129.997V154.033C87.4848 154.513 87.0898 154.902 86.6018 154.902Z" fill="#A5B9C4"/>
<path fill-rule="evenodd" clip-rule="evenodd" d="M82.766 154.902C82.2787 154.902 81.8828 154.513 81.8828 154.032V129.997C81.8828 129.516 82.2787 129.127 82.766 129.127C83.2536 129.127 83.6491 129.516 83.6491 129.997V154.032C83.6491 154.513 83.2536 154.902 82.766 154.902Z" fill="#A5B9C4"/>
<path fill-rule="evenodd" clip-rule="evenodd" d="M86.601 130.866H82.7656C82.4061 130.866 82.0821 130.652 81.9474 130.323L80.8643 127.691C80.7543 127.423 80.7863 127.118 80.9505 126.878C81.1144 126.638 81.389 126.495 81.6825 126.495H87.6837C87.9778 126.495 88.2521 126.638 88.4159 126.878C88.5803 127.118 88.6127 127.422 88.5025 127.691L87.4194 130.323C87.2843 130.652 86.9605 130.866 86.601 130.866V130.866ZM83.3608 129.127H86.006L86.3738 128.234H82.993L83.3608 129.127Z" fill="#A5B9C4"/>
<path fill-rule="evenodd" clip-rule="evenodd" d="M87.6837 157.538H81.6826C81.3892 157.538 81.1147 157.395 80.9505 157.155C80.7863 156.915 80.7543 156.611 80.8641 156.343L81.9474 153.706C82.0821 153.378 82.4059 153.163 82.7656 153.163H86.601C86.9605 153.163 87.2847 153.378 87.4196 153.706L88.5025 156.343C88.6127 156.611 88.5803 156.915 88.4159 157.155C88.252 157.395 87.9779 157.538 87.6837 157.538ZM82.9924 155.799H86.3746L86.0058 154.902H83.361L82.9924 155.799Z" fill="#A5B9C4"/>
<path fill-rule="evenodd" clip-rule="evenodd" d="M62.7894 187.974H61.2715C60.9168 187.974 60.5958 187.765 60.4577 187.443L58.6507 183.231C58.5354 182.962 58.5646 182.655 58.7286 182.412C58.8918 182.169 59.168 182.023 59.4638 182.023H64.5962C64.8922 182.023 65.1682 182.169 65.3318 182.412C65.4957 182.655 65.5248 182.962 65.4094 183.231L63.6021 187.443C63.464 187.765 63.1435 187.974 62.7894 187.974V187.974ZM61.8564 186.235H62.2036L63.2645 183.762H60.7955L61.8564 186.235Z" fill="#A5B9C4"/>
<path fill-rule="evenodd" clip-rule="evenodd" d="M92.306 184.36H82.3795C81.8917 184.36 81.4961 183.971 81.4961 183.49V180.005C81.4961 179.525 81.8917 179.135 82.3795 179.135H92.306C92.7935 179.135 93.189 179.525 93.189 180.005V183.49C93.189 183.971 92.7935 184.36 92.306 184.36ZM83.2623 182.621H91.4227V180.875H83.2623V182.621Z" fill="#A5B9C4"/>
<path fill-rule="evenodd" clip-rule="evenodd" d="M133.419 212.849C132.443 212.849 131.653 212.07 131.653 211.11V173.496H100.363V203.338C100.363 204.298 99.5719 205.077 98.5969 205.077C97.6212 205.077 96.8311 204.298 96.8311 203.338V171.757C96.8311 170.797 97.6212 170.018 98.5969 170.018H133.419C134.394 170.018 135.185 170.797 135.185 171.757V211.11C135.185 212.07 134.394 212.849 133.419 212.849Z" fill="#A5B9C4"/>
<path fill-rule="evenodd" clip-rule="evenodd" d="M133.419 176.982H98.5559C98.0683 176.982 97.6729 176.593 97.6729 176.112C97.6729 175.632 98.0683 175.243 98.5559 175.243H133.419C133.907 175.243 134.302 175.632 134.302 176.112C134.302 176.593 133.907 176.982 133.419 176.982Z" fill="#A5B9C4"/>
<path fill-rule="evenodd" clip-rule="evenodd" d="M133.419 181.34H98.5559C98.0683 181.34 97.6729 180.951 97.6729 180.47C97.6729 179.99 98.0683 179.601 98.5559 179.601H133.419C133.907 179.601 134.302 179.99 134.302 180.47C134.302 180.951 133.907 181.34 133.419 181.34Z" fill="#A5B9C4"/>
<path fill-rule="evenodd" clip-rule="evenodd" d="M133.419 210.645H117.222C116.734 210.645 116.339 210.255 116.339 209.775C116.339 209.295 116.734 208.905 117.222 208.905H133.419C133.906 208.905 134.302 209.295 134.302 209.775C134.302 210.255 133.906 210.645 133.419 210.645V210.645Z" fill="#A5B9C4"/>
<path fill-rule="evenodd" clip-rule="evenodd" d="M109.579 193.895H104.888C104.4 193.895 104.005 193.506 104.005 193.025V184.845C104.005 184.365 104.4 183.976 104.888 183.976H109.579C110.067 183.976 110.462 184.365 110.462 184.845V193.025C110.462 193.506 110.067 193.895 109.579 193.895ZM105.771 192.156H108.696V185.715H105.771V192.156Z" fill="#A5B9C4"/>
<path fill-rule="evenodd" clip-rule="evenodd" d="M127.128 193.895H122.444C121.957 193.895 121.562 193.506 121.562 193.025V184.845C121.562 184.365 121.957 183.976 122.444 183.976H127.128C127.616 183.976 128.011 184.365 128.011 184.845V193.025C128.011 193.506 127.616 193.895 127.128 193.895ZM123.327 192.156H126.245V185.715H123.327V192.156Z" fill="#A5B9C4"/>
<path fill-rule="evenodd" clip-rule="evenodd" d="M118.354 193.895H113.663C113.175 193.895 112.78 193.506 112.78 193.025V184.845C112.78 184.365 113.175 183.976 113.663 183.976H118.354C118.842 183.976 119.237 184.365 119.237 184.845V193.025C119.237 193.506 118.842 193.895 118.354 193.895V193.895ZM114.546 192.156H117.471V185.715H114.546V192.156Z" fill="#A5B9C4"/>
<path fill-rule="evenodd" clip-rule="evenodd" d="M109.579 202.519C109.091 202.519 108.696 202.13 108.696 201.65V198.885H105.771V200.753C105.771 201.233 105.376 201.623 104.888 201.623C104.4 201.623 104.005 201.233 104.005 200.753V198.015C104.005 197.535 104.4 197.146 104.888 197.146H109.579C110.067 197.146 110.462 197.535 110.462 198.015V201.65C110.462 202.13 110.067 202.519 109.579 202.519Z" fill="#A5B9C4"/>
<path fill-rule="evenodd" clip-rule="evenodd" d="M127.128 207.061H122.444C121.957 207.061 121.562 206.672 121.562 206.192V198.015C121.562 197.535 121.957 197.146 122.444 197.146H127.128C127.616 197.146 128.011 197.535 128.011 198.015V206.192C128.011 206.672 127.616 207.061 127.128 207.061ZM123.327 205.322H126.245V198.885H123.327V205.322Z" fill="#A5B9C4"/>
<path fill-rule="evenodd" clip-rule="evenodd" d="M118.354 207.061H113.663C113.175 207.061 112.78 206.672 112.78 206.192V198.015C112.78 197.535 113.175 197.146 113.663 197.146H118.354C118.842 197.146 119.237 197.535 119.237 198.015V206.192C119.237 206.672 118.842 207.061 118.354 207.061V207.061ZM114.546 205.322H117.471V198.885H114.546V205.322Z" fill="#A5B9C4"/>
<path fill-rule="evenodd" clip-rule="evenodd" d="M25.4635 228.196H1.9614C0.98605 228.196 0.195312 227.417 0.195312 226.457C0.195312 225.496 0.98605 224.718 1.9614 224.718H23.6977V173.496H1.9614C0.98605 173.496 0.195312 172.718 0.195312 171.757C0.195312 170.797 0.98605 170.018 1.9614 170.018H25.4635C26.4387 170.018 27.2291 170.797 27.2291 171.757V226.457C27.2291 227.417 26.4387 228.196 25.4635 228.196Z" fill="#A5B9C4"/>
<path fill-rule="evenodd" clip-rule="evenodd" d="M25.4633 176.982H1.9612C1.47359 176.982 1.07812 176.593 1.07812 176.112C1.07812 175.632 1.47359 175.243 1.9612 175.243H25.4633C25.951 175.243 26.3458 175.632 26.3458 176.112C26.3458 176.593 25.951 176.982 25.4633 176.982Z" fill="#A5B9C4"/>
<path fill-rule="evenodd" clip-rule="evenodd" d="M25.4633 181.34H1.9612C1.47359 181.34 1.07812 180.951 1.07812 180.47C1.07812 179.99 1.47359 179.601 1.9612 179.601H25.4633C25.951 179.601 26.3458 179.99 26.3458 180.47C26.3458 180.951 25.951 181.34 25.4633 181.34Z" fill="#A5B9C4"/>
<path fill-rule="evenodd" clip-rule="evenodd" d="M25.4629 210.645H2.43658C1.94898 210.645 1.55371 210.255 1.55371 209.775C1.55371 209.295 1.94898 208.905 2.43658 208.905H25.4629C25.9506 208.905 26.3455 209.295 26.3455 209.775C26.3455 210.255 25.9506 210.645 25.4629 210.645Z" fill="#A5B9C4"/>
<path fill-rule="evenodd" clip-rule="evenodd" d="M19.1718 193.895H14.4809C13.9931 193.895 13.5977 193.506 13.5977 193.025V184.845C13.5977 184.365 13.9931 183.976 14.4809 183.976H19.1718C19.6592 183.976 20.0546 184.365 20.0546 184.845V193.025C20.0546 193.506 19.6592 193.895 19.1718 193.895ZM15.364 192.156H18.2887V185.715H15.364V192.156Z" fill="#A5B9C4"/>
<path fill-rule="evenodd" clip-rule="evenodd" d="M10.3908 193.895H5.70702C5.21928 193.895 4.82422 193.506 4.82422 193.025V184.845C4.82422 184.365 5.21928 183.976 5.70702 183.976H10.3908C10.8784 183.976 11.2737 184.365 11.2737 184.845V193.025C11.2737 193.506 10.8784 193.895 10.3908 193.895ZM6.5901 192.156H9.50782V185.715H6.5901V192.156Z" fill="#A5B9C4"/>
<path fill-rule="evenodd" clip-rule="evenodd" d="M19.1718 207.061H14.4809C13.9931 207.061 13.5977 206.672 13.5977 206.192V198.015C13.5977 197.535 13.9931 197.146 14.4809 197.146H19.1718C19.6592 197.146 20.0546 197.535 20.0546 198.015V206.192C20.0546 206.672 19.6592 207.061 19.1718 207.061ZM15.364 205.322H18.2887V198.885H15.364V205.322Z" fill="#A5B9C4"/>
<path fill-rule="evenodd" clip-rule="evenodd" d="M10.3908 207.061H5.70702C5.21928 207.061 4.82422 206.672 4.82422 206.192V198.015C4.82422 197.535 5.21928 197.146 5.70702 197.146H10.3908C10.8784 197.146 11.2737 197.535 11.2737 198.015V206.192C11.2737 206.672 10.8784 207.061 10.3908 207.061ZM6.5901 205.322H9.50782V198.885H6.5901V205.322Z" fill="#A5B9C4"/>
<path fill-rule="evenodd" clip-rule="evenodd" d="M41.6805 184.36H31.7541C31.2666 184.36 30.8711 183.971 30.8711 183.49V180.005C30.8711 179.525 31.2666 179.135 31.7541 179.135H41.6805C42.1683 179.135 42.5636 179.525 42.5636 180.005V183.49C42.5636 183.971 42.1683 184.36 41.6805 184.36ZM32.6373 182.621H40.7975V180.875H32.6373V182.621Z" fill="#A5B9C4"/>
<path fill-rule="evenodd" clip-rule="evenodd" d="M72.0602 102.231C71.7653 102.231 71.477 102.086 71.3097 101.821C70.4057 100.388 69.0891 99.118 67.5023 98.1456C67.0884 97.8919 66.9619 97.356 67.2192 96.9482C67.4768 96.5402 68.0211 96.4152 68.4354 96.669C70.2508 97.7813 71.7631 99.245 72.8095 100.903C73.0666 101.311 72.9398 101.846 72.5258 102.1C72.3809 102.189 72.2197 102.231 72.0602 102.231V102.231Z" fill="#A5B9C4"/>
<path fill-rule="evenodd" clip-rule="evenodd" d="M73.4114 105.451C73.0061 105.451 72.6411 105.175 72.5501 104.769C72.4633 104.382 72.3393 103.975 72.1702 103.524C72.0013 103.074 72.2348 102.574 72.6925 102.407C73.1498 102.241 73.6574 102.471 73.8265 102.922C74.0235 103.448 74.1699 103.929 74.2744 104.394C74.3795 104.863 74.0786 105.327 73.6026 105.431C73.5382 105.445 73.4746 105.451 73.4114 105.451V105.451Z" fill="#A5B9C4"/>
<path fill-rule="evenodd" clip-rule="evenodd" d="M63.8726 100.716C63.542 100.716 63.2249 100.532 63.0734 100.218C62.9609 99.984 62.7893 99.7846 62.5749 99.6417C62.1722 99.3716 62.0669 98.8309 62.3414 98.4338C62.6156 98.0362 63.1645 97.9335 63.5679 98.2034C64.0419 98.5206 64.4231 98.9602 64.6702 99.4747C64.8786 99.9089 64.6903 100.427 64.2495 100.632C64.1277 100.689 63.9989 100.716 63.8726 100.716Z" fill="#A5B9C4"/>
<path fill-rule="evenodd" clip-rule="evenodd" d="M2.36735 77.6246C1.95837 77.6246 1.59096 77.3431 1.50381 76.9335C1.15427 75.2925 1.46432 73.7032 2.40053 72.3371C3.22293 71.1376 4.48021 70.198 5.94039 69.6921C8.44671 68.8236 11.6649 69.2842 13.2056 72.2717C13.4267 72.6997 13.2534 73.2231 12.8183 73.4408C12.3838 73.658 11.8524 73.4873 11.6313 73.0589C10.5022 70.8702 8.17572 70.7607 6.52671 71.3326C4.54775 72.0184 2.67291 73.9517 3.23235 76.5759C3.33231 77.0464 3.02675 77.5073 2.54898 77.6059C2.48837 77.6184 2.42727 77.6246 2.36735 77.6246V77.6246Z" fill="#A5B9C4"/>
<path fill-rule="evenodd" clip-rule="evenodd" d="M10.426 71.5309C10.3612 71.5309 10.2949 71.5237 10.2285 71.5089C9.7531 71.4021 9.45566 70.9357 9.56441 70.4675C10.4107 66.8194 13.6114 65.2714 16.3253 65.039C17.7674 64.9154 19.2285 65.139 20.4406 65.668C21.7987 66.2615 22.7797 67.1902 23.2763 68.354C23.4652 68.7968 23.2541 69.3066 22.8047 69.4927C22.3552 69.6787 21.8374 69.4706 21.648 69.0278C20.9938 67.4948 18.8676 66.5675 16.4783 66.7715C14.3841 66.9507 11.921 68.1176 11.2863 70.8548C11.1922 71.2576 10.8286 71.5309 10.426 71.5309Z" fill="#A5B9C4"/>
<path fill-rule="evenodd" clip-rule="evenodd" d="M31.1891 76.4629C31.1219 76.4629 31.054 76.4557 30.9854 76.4395C30.511 76.3292 30.2172 75.8607 30.3296 75.3932C30.9091 72.9785 30.0545 69.9867 26.8073 69.125C24.6921 68.5641 22.1515 69.3171 21.2449 72.2653C21.1034 72.7247 20.6105 72.985 20.1439 72.8453C19.677 72.7061 19.4133 72.2206 19.5549 71.7608C20.7976 67.7203 24.4236 66.6914 27.2663 67.4457C28.9301 67.8873 30.3429 68.8965 31.2444 70.2875C32.2586 71.8534 32.5369 73.7575 32.048 75.7935C31.9519 76.1935 31.5894 76.4629 31.1891 76.4629V76.4629Z" fill="#A5B9C4"/>
<path fill-rule="evenodd" clip-rule="evenodd" d="M157.653 220.119C157.117 220.119 156.587 219.879 156.24 219.424C153.939 216.406 151.192 214.628 148.297 214.283C146.112 214.023 143.92 214.629 142.284 215.948C141.529 216.556 140.417 216.446 139.799 215.703C139.181 214.96 139.292 213.864 140.047 213.256C142.425 211.34 145.586 210.456 148.721 210.829C151.422 211.152 155.41 212.542 159.064 217.335C159.65 218.103 159.492 219.193 158.712 219.77C158.395 220.005 158.022 220.119 157.653 220.119V220.119Z" fill="#A5B9C4"/>
<path fill-rule="evenodd" clip-rule="evenodd" d="M143.585 220.444C142.675 220.444 141.902 219.755 141.827 218.844C141.65 216.683 138.499 214.371 135.781 213.647C133.413 213.017 128.879 212.753 125.121 218.068C124.565 218.857 123.464 219.051 122.664 218.502C121.863 217.953 121.666 216.869 122.223 216.081C124.171 213.325 126.542 211.451 129.272 210.509C131.624 209.698 134.193 209.622 136.703 210.289C141.347 211.525 145.063 215.083 145.348 218.565C145.426 219.523 144.701 220.361 143.729 220.439C143.681 220.443 143.633 220.444 143.585 220.444V220.444Z" fill="#A5B9C4"/>
<path fill-rule="evenodd" clip-rule="evenodd" d="M105.977 217.962C105.737 217.962 105.494 217.913 105.261 217.811C104.37 217.422 103.968 216.394 104.365 215.516C106.087 211.697 110.352 209.01 115.229 208.672C120.025 208.339 124.309 210.378 126.687 214.125C127.204 214.94 126.953 216.013 126.126 216.522C125.299 217.031 124.209 216.784 123.692 215.969C121.994 213.293 119 211.896 115.477 212.142C111.942 212.387 108.773 214.31 107.592 216.928C107.299 217.576 106.654 217.962 105.977 217.962V217.962Z" fill="#A5B9C4"/>
<path fill-rule="evenodd" clip-rule="evenodd" d="M116.229 211.915C115.458 211.915 114.75 211.415 114.53 210.649C113.933 208.569 112.863 206.863 111.352 205.579C110.044 204.468 108.406 203.688 106.616 203.324C103.203 202.631 100.263 203.587 99.2299 204.839C98.6145 205.585 97.5021 205.698 96.7457 205.092C95.9889 204.486 95.8744 203.391 96.4892 202.645C97.5351 201.378 99.1662 200.453 101.205 199.971C103.135 199.514 105.252 199.496 107.33 199.918C112.587 200.986 116.45 204.553 117.929 209.703C118.194 210.627 117.649 211.588 116.71 211.849C116.549 211.894 116.387 211.915 116.229 211.915V211.915Z" fill="#A5B9C4"/>
<path fill-rule="evenodd" clip-rule="evenodd" d="M79.7022 208.749C79.3805 208.749 79.0552 208.663 78.7628 208.482C77.9375 207.97 77.6897 206.896 78.2091 206.084C79.8153 203.57 81.8997 201.715 84.4038 200.57C86.6016 199.565 89.0704 199.157 91.5428 199.388C96.1575 199.821 100.169 202.413 101.526 205.838C101.88 206.733 101.431 207.741 100.523 208.09C99.6134 208.439 98.5898 207.997 98.2349 207.102C97.3653 204.905 94.4756 203.157 91.2082 202.851C87.1551 202.471 83.5065 204.324 81.1983 207.936C80.8625 208.462 80.2885 208.749 79.7022 208.749Z" fill="#A5B9C4"/>
<path fill-rule="evenodd" clip-rule="evenodd" d="M60.9251 219.646C60.1446 219.646 59.4297 219.133 59.2201 218.354C58.3254 215.043 58.6689 211.849 60.2123 209.116C61.5797 206.697 63.8583 204.744 66.6285 203.618C69.4471 202.472 72.551 202.259 75.3673 203.016C78.5274 203.865 81.0925 205.844 82.7852 208.737C83.2721 209.569 82.9815 210.632 82.1368 211.112C81.2914 211.592 80.2118 211.306 79.7249 210.473C78.5072 208.392 76.6791 206.974 74.4375 206.371C72.3708 205.816 70.0761 205.98 67.9756 206.834C65.9405 207.661 64.2799 209.072 63.2986 210.808C62.2087 212.737 61.9785 215.037 62.6326 217.46C62.8838 218.388 62.3232 219.341 61.3802 219.588C61.2287 219.628 61.0755 219.646 60.9251 219.646V219.646Z" fill="#A5B9C4"/>
<path fill-rule="evenodd" clip-rule="evenodd" d="M55.2373 228.179C55.2071 228.179 55.1767 228.178 55.1462 228.176C54.1722 228.128 53.4226 227.31 53.472 226.351C53.6507 222.889 54.7623 220.243 56.7758 218.49C59.3134 216.28 62.5551 216.154 64.2613 216.274C65.2341 216.343 65.9661 217.175 65.8958 218.134C65.8261 219.092 64.9804 219.811 64.0076 219.743C62.8546 219.661 60.685 219.728 59.1151 221.096C57.8399 222.207 57.1279 224.034 56.9993 226.528C56.9514 227.457 56.1714 228.179 55.2373 228.179V228.179Z" fill="#A5B9C4"/>
<path fill-rule="evenodd" clip-rule="evenodd" d="M88.8928 211.439C88.8495 211.439 88.8058 211.436 88.7625 211.429C88.2798 211.359 87.9468 210.917 88.0185 210.442C88.2395 208.969 89.3773 207.891 90.9869 207.628C92.4837 207.384 93.8675 207.941 94.4297 209.017C94.6527 209.443 94.4825 209.968 94.0487 210.188C93.6152 210.408 93.0828 210.24 92.8594 209.813C92.6596 209.431 91.9788 209.229 91.2761 209.344C90.9613 209.395 89.9237 209.644 89.7651 210.697C89.6999 211.129 89.3229 211.439 88.8928 211.439Z" fill="#A5B9C4"/>
<path fill-rule="evenodd" clip-rule="evenodd" d="M97.3564 212.778C97.3118 212.778 97.2664 212.774 97.2201 212.768C96.7388 212.694 96.4083 212.25 96.4828 211.775C96.6037 211.007 96.2848 210.151 95.3013 209.969C94.7064 209.859 93.9968 210.071 93.7891 210.995C93.6834 211.464 93.2118 211.76 92.736 211.657C92.2598 211.553 91.9596 211.088 92.065 210.619C92.2634 209.738 92.7446 209.048 93.458 208.624C94.0914 208.248 94.8616 208.119 95.627 208.26C97.1698 208.546 98.5589 209.936 98.2282 212.041C98.1607 212.471 97.7844 212.778 97.3564 212.778V212.778Z" fill="#A5B9C4"/>
<path fill-rule="evenodd" clip-rule="evenodd" d="M113.516 222.897C113.054 222.897 112.666 222.543 112.636 222.082C112.576 221.146 111.679 220.85 111.405 220.782C110.809 220.633 110.189 220.755 109.996 221.059C109.737 221.467 109.192 221.59 108.778 221.334C108.365 221.079 108.24 220.542 108.499 220.136C109.115 219.169 110.457 218.751 111.839 219.096C113.328 219.469 114.309 220.571 114.399 221.973C114.429 222.452 114.06 222.865 113.573 222.895C113.554 222.897 113.535 222.897 113.516 222.897V222.897Z" fill="#A5B9C4"/>
<path fill-rule="evenodd" clip-rule="evenodd" d="M105.646 223.471C105.187 223.471 104.799 223.121 104.766 222.663C104.621 220.662 106.039 219.465 107.512 219.317C108.244 219.243 108.959 219.426 109.526 219.83C110.164 220.285 110.562 220.973 110.675 221.818C110.739 222.294 110.399 222.731 109.916 222.794C109.432 222.856 108.989 222.522 108.924 222.046C108.783 220.992 107.873 221.029 107.692 221.047C107.109 221.106 106.455 221.531 106.528 222.539C106.562 223.019 106.196 223.434 105.71 223.469C105.689 223.47 105.667 223.471 105.646 223.471V223.471Z" fill="#A5B9C4"/>
<path fill-rule="evenodd" clip-rule="evenodd" d="M81.4893 223.063C81.0704 223.063 80.6984 222.769 80.6214 222.349C80.4688 221.522 80.6469 220.729 81.1367 220.056C81.5576 219.478 82.1856 219.034 82.9054 218.807C84.431 218.326 85.8854 218.901 86.5248 220.237C86.7324 220.671 86.543 221.189 86.1022 221.394C85.6608 221.599 85.135 221.413 84.9274 220.978C84.5482 220.186 83.696 220.384 83.4437 220.464C82.9612 220.616 82.1891 221.119 82.3586 222.038C82.4462 222.511 82.1272 222.963 81.6477 223.05C81.5945 223.059 81.5413 223.063 81.4893 223.063V223.063Z" fill="#A5B9C4"/>
<path fill-rule="evenodd" clip-rule="evenodd" d="M84.919 220.618C84.8452 220.618 84.7704 220.609 84.6957 220.589C84.2237 220.468 83.9409 219.994 84.0639 219.529C84.457 218.041 85.7465 217.059 87.4289 216.966C88.9882 216.879 90.3394 217.599 90.7918 218.756C90.9668 219.204 90.7398 219.708 90.2848 219.88C89.83 220.053 89.3187 219.829 89.1437 219.381C88.9762 218.952 88.2819 218.66 87.5287 218.702C87.1899 218.721 86.0632 218.868 85.7726 219.967C85.6691 220.358 85.3111 220.618 84.919 220.618V220.618Z" fill="#A5B9C4"/>
<path fill-rule="evenodd" clip-rule="evenodd" d="M128.135 223.247C127.672 223.247 127.283 222.893 127.254 222.432C127.175 221.199 127.981 220.009 129.259 219.471C130.56 218.923 131.946 219.199 132.875 220.191C133.206 220.544 133.183 221.095 132.824 221.42C132.466 221.746 131.907 221.723 131.577 221.37C130.98 220.733 130.242 220.948 129.952 221.071C129.476 221.271 128.98 221.748 129.016 222.323C129.047 222.802 128.678 223.215 128.191 223.245C128.172 223.246 128.153 223.247 128.135 223.247V223.247Z" fill="#A5B9C4"/>
<path fill-rule="evenodd" clip-rule="evenodd" d="M131.543 221.148C131.462 221.148 131.38 221.137 131.299 221.114C130.831 220.982 130.559 220.501 130.694 220.039C131.037 218.857 132.095 218.031 133.456 217.885C134.659 217.757 135.727 218.2 136.175 219.015C136.407 219.437 136.248 219.965 135.819 220.194C135.39 220.422 134.854 220.265 134.622 219.843C134.56 219.73 134.181 219.557 133.647 219.614C133.406 219.64 132.605 219.782 132.391 220.518C132.28 220.899 131.927 221.148 131.543 221.148V221.148Z" fill="#A5B9C4"/>
<path fill-rule="evenodd" clip-rule="evenodd" d="M71.882 214.137C71.8151 214.137 71.7469 214.129 71.6792 214.114C71.2044 214.003 70.9103 213.535 71.0216 213.068C71.3352 211.755 72.404 210.844 73.8107 210.69C75.196 210.539 76.4945 211.186 77.0426 212.3C77.2554 212.732 77.0719 213.252 76.6332 213.462C76.1939 213.671 75.6661 213.491 75.4535 213.059C75.1974 212.539 74.5231 212.362 74.0051 212.419C73.6919 212.453 72.9418 212.623 72.7407 213.466C72.6449 213.867 72.2826 214.137 71.882 214.137Z" fill="#A5B9C4"/>
<path fill-rule="evenodd" clip-rule="evenodd" d="M68.4454 214.483C67.9647 214.483 67.5708 214.103 67.5627 213.628C67.5472 212.703 68.2555 211.804 69.3675 211.336C70.6254 210.806 71.9587 211.015 72.847 211.881C73.1938 212.219 73.1968 212.769 72.8532 213.111C72.5102 213.452 71.9508 213.455 71.6044 213.117C71.0516 212.578 70.2833 212.842 70.061 212.935C69.5693 213.142 69.3262 213.472 69.3283 213.598C69.3368 214.079 68.9478 214.474 68.4602 214.483C68.4547 214.483 68.4503 214.483 68.4451 214.483L68.4454 214.483Z" fill="#A5B9C4"/>
<path fill-rule="evenodd" clip-rule="evenodd" d="M244.878 188.96C244.56 188.96 244.302 188.706 244.302 188.393C244.302 181.008 250.407 175 257.911 175C258.665 175 259.44 175.071 260.279 175.217C260.592 175.271 260.801 175.565 260.746 175.874C260.691 176.182 260.392 176.388 260.078 176.333C259.307 176.199 258.597 176.134 257.911 176.134C251.042 176.134 245.454 181.633 245.454 188.393C245.454 188.706 245.196 188.96 244.878 188.96V188.96Z" fill="#A5B9C4"/>
<path fill-rule="evenodd" clip-rule="evenodd" d="M267.689 180.484C267.533 180.484 267.378 180.421 267.265 180.297C265.426 178.274 262.928 176.901 260.231 176.43C260.071 176.403 259.93 176.308 259.844 176.172C259.759 176.035 259.735 175.868 259.78 175.713C260.577 172.975 262.277 170.51 264.566 168.772C266.934 166.975 269.764 166.026 272.752 166.026C275.08 166.026 277.383 166.631 279.411 167.777C279.686 167.932 279.782 168.279 279.626 168.552C279.47 168.825 279.12 168.92 278.846 168.765C276.989 167.716 274.882 167.162 272.752 167.162C270.018 167.162 267.427 168.031 265.261 169.675C263.331 171.14 261.858 173.17 261.067 175.439C263.769 176.048 266.251 177.487 268.114 179.536C268.325 179.768 268.307 180.128 268.073 180.338C267.963 180.436 267.826 180.484 267.689 180.484V180.484Z" fill="#A5B9C4"/>
<path fill-rule="evenodd" clip-rule="evenodd" d="M300.562 172.008C300.343 172.008 300.135 171.888 300.037 171.684C299.045 169.614 297.479 167.86 295.506 166.613C293.481 165.331 291.126 164.654 288.695 164.654C285.279 164.654 282.083 165.972 279.699 168.367C279.477 168.589 279.111 168.596 278.881 168.381C278.651 168.166 278.644 167.811 278.866 167.588C281.471 164.973 284.962 163.533 288.695 163.533C291.351 163.533 293.925 164.273 296.139 165.674C298.292 167.036 300.003 168.951 301.086 171.212C301.221 171.492 301.095 171.826 300.805 171.956C300.726 171.992 300.643 172.008 300.562 172.008V172.008Z" fill="#A5B9C4"/>
<path fill-rule="evenodd" clip-rule="evenodd" d="M283.643 173.006C283.461 173.006 283.284 172.912 283.18 172.741C282.136 171.021 280.684 169.582 278.981 168.58C278.718 168.425 278.626 168.08 278.776 167.808C278.924 167.536 279.258 167.441 279.52 167.595C281.38 168.69 282.965 170.261 284.105 172.138C284.265 172.403 284.188 172.752 283.933 172.919C283.843 172.978 283.742 173.006 283.643 173.006V173.006Z" fill="#A5B9C4"/>
<path fill-rule="evenodd" clip-rule="evenodd" d="M319.999 183.476C319.676 183.476 319.415 183.222 319.415 182.909C319.415 176.149 313.745 170.65 306.776 170.65C304.589 170.65 302.425 171.209 300.518 172.266C300.238 172.422 299.881 172.328 299.721 172.056C299.56 171.784 299.658 171.438 299.938 171.282C302.021 170.126 304.385 169.516 306.776 169.516C314.39 169.516 320.584 175.524 320.584 182.909C320.584 183.222 320.322 183.476 319.999 183.476V183.476Z" fill="#A5B9C4"/>
<path fill-rule="evenodd" clip-rule="evenodd" d="M295.74 176.496C295.638 176.496 295.536 176.471 295.443 176.42C295.166 176.267 295.075 175.935 295.239 175.678C296.455 173.775 298.194 172.186 300.268 171.083C300.547 170.935 300.903 171.025 301.063 171.284C301.223 171.544 301.126 171.875 300.847 172.023C298.947 173.034 297.355 174.488 296.241 176.231C296.132 176.401 295.938 176.496 295.74 176.496V176.496Z" fill="#A5B9C4"/>
<path fill-rule="evenodd" clip-rule="evenodd" d="M316.028 179.487C315.809 179.487 315.6 179.359 315.508 179.145C314.257 176.261 311.669 174.2 308.584 173.634C308.276 173.578 308.072 173.281 308.129 172.973C308.185 172.664 308.481 172.46 308.789 172.517C312.246 173.151 315.146 175.46 316.548 178.693C316.673 178.98 316.541 179.315 316.253 179.44C316.18 179.472 316.103 179.487 316.028 179.487Z" fill="#A5B9C4"/>
<path fill-rule="evenodd" clip-rule="evenodd" d="M316.925 183.476C316.557 183.476 316.258 183.204 316.258 182.869C316.258 182.317 316.207 181.752 316.106 181.189C316.046 180.859 316.292 180.547 316.656 180.492C317.019 180.439 317.363 180.662 317.422 180.993C317.535 181.621 317.592 182.252 317.592 182.869C317.592 183.204 317.294 183.476 316.925 183.476V183.476Z" fill="#A5B9C4"/>
<path fill-rule="evenodd" clip-rule="evenodd" d="M172.559 148.272C172.552 148.272 172.546 148.271 172.54 148.271C172.252 148.265 171.984 148.122 171.825 147.885C171.406 147.268 171.245 147.251 170.356 147.161C169.579 147.082 168.403 146.963 166.636 146.266C166.183 146.088 165.963 145.582 166.144 145.136C166.326 144.69 166.84 144.473 167.292 144.652C168.83 145.258 169.777 145.354 170.537 145.431C171.266 145.505 171.922 145.571 172.563 146.095C173.796 144.985 175.175 144.898 176.229 144.832C176.655 144.805 177.058 144.78 177.336 144.688C177.799 144.537 178.298 144.783 178.452 145.238C178.607 145.694 178.357 146.186 177.894 146.338C177.399 146.501 176.861 146.534 176.342 146.568C175.226 146.638 174.171 146.704 173.272 147.915C173.105 148.14 172.84 148.272 172.559 148.272V148.272Z" fill="#A5B9C4"/>
<path fill-rule="evenodd" clip-rule="evenodd" d="M26.7667 73.1065C26.5209 73.1065 26.2758 73.0057 26.101 72.8087C25.6492 72.2984 25.0811 71.9545 24.4588 71.8146C23.9836 71.7076 23.686 71.2412 23.7949 70.7732C23.9036 70.3049 24.3774 70.0121 24.8524 70.1189C25.8407 70.3415 26.7329 70.8763 27.4321 71.6653C27.7526 72.0275 27.7143 72.5765 27.3469 72.8923C27.1796 73.0362 26.9726 73.1065 26.7667 73.1065V73.1065Z" fill="#A5B9C4"/>
<path fill-rule="evenodd" clip-rule="evenodd" d="M27.918 75.7156C27.4701 75.7156 27.086 75.381 27.0402 74.933L27.0306 74.8348C27.0251 74.8114 27.0175 74.7783 27.0064 74.7262C26.9059 74.2562 27.2113 73.795 27.6886 73.6962C28.1663 73.5969 28.6345 73.8981 28.7346 74.3679C28.7436 74.4111 28.7501 74.4377 28.7542 74.4561C28.7754 74.549 28.7803 74.5849 28.7904 74.6867L28.7977 74.7587C28.8464 75.2365 28.4925 75.6632 28.0077 75.7111C27.9774 75.7143 27.9474 75.7159 27.918 75.7159V75.7156ZM27.0349 74.8548H27.0363H27.0349Z" fill="#A5B9C4"/>
<path fill-rule="evenodd" clip-rule="evenodd" d="M156.532 219.725C156.98 219.725 157.422 219.485 157.712 219.03C159.634 216.012 161.929 214.234 164.347 213.889C166.172 213.629 168.002 214.236 169.369 215.555C170 216.163 170.929 216.053 171.445 215.31C171.961 214.566 171.868 213.47 171.237 212.862C169.251 210.947 166.611 210.063 163.992 210.436C161.736 210.758 158.406 212.148 155.353 216.942C154.864 217.71 154.995 218.8 155.647 219.376C155.912 219.612 156.223 219.725 156.532 219.725V219.725Z" fill="#A5B9C4"/>
<path fill-rule="evenodd" clip-rule="evenodd" d="M168.282 220.051C169.043 220.051 169.688 219.361 169.75 218.451C169.898 216.29 172.53 213.977 174.801 213.254C176.779 212.624 180.566 212.36 183.704 217.675C184.169 218.464 185.089 218.657 185.757 218.109C186.426 217.56 186.59 216.476 186.125 215.688C184.498 212.932 182.517 211.057 180.238 210.116C178.273 209.304 176.127 209.229 174.031 209.896C170.152 211.132 167.048 214.69 166.81 218.172C166.745 219.13 167.35 219.968 168.162 220.045C168.202 220.049 168.242 220.051 168.282 220.051V220.051Z" fill="#A5B9C4"/>
<path fill-rule="evenodd" clip-rule="evenodd" d="M199.695 217.568C199.895 217.568 200.098 217.52 200.292 217.418C201.037 217.028 201.372 216 201.041 215.122C199.603 211.303 196.04 208.617 191.967 208.279C187.96 207.946 184.383 209.984 182.396 213.732C181.965 214.546 182.174 215.619 182.865 216.128C183.556 216.638 184.466 216.39 184.898 215.575C186.317 212.899 188.817 211.503 191.759 211.748C194.713 211.994 197.359 213.917 198.346 216.535C198.59 217.183 199.129 217.568 199.695 217.568V217.568Z" fill="#A5B9C4"/>
<path fill-rule="evenodd" clip-rule="evenodd" d="M191.132 211.522C191.776 211.522 192.367 211.022 192.551 210.256C193.05 208.176 193.943 206.47 195.206 205.186C196.298 204.074 197.666 203.295 199.162 202.931C202.012 202.237 204.468 203.194 205.331 204.446C205.845 205.191 206.774 205.304 207.406 204.699C208.038 204.093 208.133 202.997 207.62 202.252C206.746 200.985 205.384 200.06 203.681 199.577C202.069 199.121 200.3 199.102 198.565 199.524C194.174 200.593 190.947 204.159 189.712 209.309C189.49 210.234 189.946 211.195 190.73 211.456C190.865 211.5 191 211.522 191.132 211.522V211.522Z" fill="#A5B9C4"/>
<path fill-rule="evenodd" clip-rule="evenodd" d="M221.641 208.356C221.91 208.356 222.182 208.269 222.426 208.088C223.115 207.577 223.322 206.503 222.888 205.69C221.547 203.177 219.806 201.322 217.714 200.177C215.878 199.172 213.816 198.763 211.751 198.995C207.897 199.428 204.546 202.02 203.413 205.444C203.117 206.339 203.492 207.347 204.251 207.697C205.01 208.046 205.865 207.603 206.162 206.708C206.888 204.512 209.302 202.764 212.031 202.457C215.416 202.078 218.464 203.931 220.392 207.543C220.672 208.068 221.151 208.356 221.641 208.356Z" fill="#A5B9C4"/>
<path fill-rule="evenodd" clip-rule="evenodd" d="M237.325 219.253C237.977 219.253 238.574 218.739 238.749 217.96C239.496 214.65 239.209 211.455 237.92 208.723C236.778 206.303 234.875 204.351 232.561 203.225C230.206 202.079 227.614 201.865 225.262 202.623C222.622 203.472 220.48 205.45 219.066 208.343C218.659 209.176 218.902 210.239 219.607 210.718C220.313 211.198 221.215 210.912 221.622 210.08C222.639 207.999 224.166 206.581 226.038 205.978C227.764 205.422 229.681 205.586 231.436 206.44C233.135 207.267 234.522 208.679 235.342 210.414C236.253 212.343 236.445 214.643 235.898 217.066C235.689 217.994 236.157 218.947 236.944 219.194C237.071 219.234 237.199 219.253 237.325 219.253V219.253Z" fill="#A5B9C4"/>
<path fill-rule="evenodd" clip-rule="evenodd" d="M242.076 227.785C242.102 227.785 242.127 227.785 242.152 227.783C242.966 227.735 243.592 226.917 243.551 225.958C243.402 222.495 242.473 219.85 240.791 218.097C238.672 215.887 235.964 215.76 234.539 215.88C233.726 215.949 233.115 216.782 233.174 217.74C233.232 218.698 233.938 219.418 234.751 219.35C235.714 219.267 237.526 219.335 238.837 220.702C239.902 221.813 240.497 223.641 240.605 226.134C240.645 227.064 241.296 227.785 242.076 227.785V227.785Z" fill="#A5B9C4"/>
<path fill-rule="evenodd" clip-rule="evenodd" d="M213.965 211.046C214.001 211.046 214.037 211.043 214.074 211.036C214.477 210.966 214.755 210.524 214.695 210.049C214.51 208.576 213.56 207.497 212.216 207.235C210.965 206.991 209.81 207.548 209.34 208.623C209.154 209.05 209.296 209.575 209.658 209.794C210.02 210.014 210.465 209.847 210.652 209.419C210.818 209.037 211.387 208.836 211.974 208.95C212.237 209.002 213.104 209.251 213.236 210.304C213.291 210.736 213.606 211.046 213.965 211.046Z" fill="#A5B9C4"/>
<path fill-rule="evenodd" clip-rule="evenodd" d="M206.896 212.384C206.933 212.384 206.971 212.38 207.01 212.374C207.412 212.3 207.688 211.856 207.625 211.382C207.524 210.614 207.791 209.758 208.612 209.576C209.109 209.466 209.702 209.678 209.875 210.602C209.964 211.071 210.358 211.367 210.755 211.263C211.153 211.159 211.403 210.695 211.315 210.226C211.15 209.344 210.748 208.654 210.152 208.23C209.623 207.854 208.98 207.725 208.34 207.866C207.052 208.152 205.891 209.542 206.168 211.647C206.224 212.077 206.538 212.384 206.896 212.384V212.384Z" fill="#A5B9C4"/>
<path fill-rule="evenodd" clip-rule="evenodd" d="M193.396 222.504C193.782 222.504 194.106 222.149 194.131 221.689C194.181 220.753 194.931 220.457 195.16 220.389C195.658 220.239 196.175 220.361 196.337 220.666C196.553 221.073 197.008 221.196 197.353 220.941C197.699 220.685 197.803 220.149 197.586 219.742C197.072 218.775 195.951 218.357 194.797 218.703C193.553 219.075 192.734 220.177 192.659 221.579C192.633 222.058 192.942 222.472 193.348 222.502C193.364 222.503 193.38 222.503 193.396 222.503V222.504Z" fill="#A5B9C4"/>
<path fill-rule="evenodd" clip-rule="evenodd" d="M199.97 223.077C200.354 223.077 200.677 222.727 200.705 222.27C200.826 220.268 199.642 219.071 198.411 218.924C197.8 218.85 197.203 219.032 196.73 219.436C196.197 219.892 195.864 220.58 195.77 221.424C195.716 221.9 196 222.338 196.404 222.401C196.808 222.463 197.178 222.129 197.232 221.653C197.35 220.599 198.111 220.635 198.262 220.654C198.748 220.712 199.294 221.138 199.234 222.146C199.205 222.625 199.511 223.041 199.917 223.075C199.935 223.077 199.953 223.077 199.97 223.077V223.077Z" fill="#A5B9C4"/>
<path fill-rule="evenodd" clip-rule="evenodd" d="M220.149 222.67C220.499 222.67 220.809 222.375 220.874 221.955C221.001 221.129 220.852 220.336 220.443 219.663C220.092 219.084 219.567 218.64 218.966 218.413C217.692 217.933 216.477 218.507 215.943 219.843C215.769 220.278 215.928 220.796 216.296 221.001C216.664 221.205 217.104 221.019 217.277 220.585C217.594 219.792 218.306 219.99 218.516 220.07C218.919 220.222 219.564 220.725 219.423 221.645C219.35 222.118 219.616 222.57 220.016 222.656C220.061 222.665 220.105 222.67 220.149 222.67V222.67Z" fill="#A5B9C4"/>
<path fill-rule="evenodd" clip-rule="evenodd" d="M217.284 220.224C217.346 220.224 217.408 220.215 217.471 220.196C217.865 220.075 218.101 219.6 217.998 219.135C217.67 217.648 216.593 216.665 215.188 216.572C213.885 216.486 212.757 217.205 212.379 218.363C212.233 218.811 212.422 219.314 212.802 219.487C213.182 219.659 213.609 219.436 213.755 218.987C213.895 218.559 214.475 218.267 215.104 218.309C215.387 218.327 216.328 218.474 216.571 219.574C216.658 219.965 216.957 220.224 217.284 220.224V220.224Z" fill="#A5B9C4"/>
<path fill-rule="evenodd" clip-rule="evenodd" d="M181.187 222.853C181.573 222.853 181.898 222.499 181.922 222.039C181.988 220.805 181.316 219.616 180.248 219.078C179.161 218.53 178.004 218.806 177.228 219.798C176.951 220.151 176.971 220.701 177.27 221.027C177.569 221.352 178.036 221.33 178.312 220.977C178.81 220.34 179.427 220.555 179.669 220.677C180.067 220.877 180.481 221.355 180.451 221.929C180.425 222.409 180.733 222.822 181.14 222.852C181.156 222.853 181.172 222.853 181.187 222.853V222.853Z" fill="#A5B9C4"/>
<path fill-rule="evenodd" clip-rule="evenodd" d="M178.34 220.754C178.407 220.754 178.476 220.743 178.543 220.721C178.935 220.588 179.162 220.107 179.049 219.645C178.763 218.463 177.879 217.638 176.742 217.492C175.737 217.363 174.845 217.806 174.471 218.621C174.277 219.044 174.41 219.571 174.769 219.8C175.127 220.029 175.575 219.871 175.768 219.449C175.82 219.336 176.136 219.163 176.583 219.221C176.784 219.247 177.453 219.388 177.631 220.124C177.724 220.506 178.019 220.754 178.34 220.754V220.754Z" fill="#A5B9C4"/>
<path fill-rule="evenodd" clip-rule="evenodd" d="M228.174 213.743C228.23 213.743 228.287 213.736 228.343 213.72C228.74 213.61 228.985 213.142 228.892 212.674C228.631 211.361 227.738 210.45 226.563 210.297C225.406 210.146 224.321 210.793 223.863 211.907C223.686 212.339 223.839 212.859 224.205 213.069C224.572 213.278 225.013 213.097 225.191 212.665C225.405 212.145 225.968 211.969 226.4 212.025C226.662 212.06 227.289 212.23 227.457 213.072C227.537 213.473 227.839 213.743 228.174 213.743Z" fill="#A5B9C4"/>
<path fill-rule="evenodd" clip-rule="evenodd" d="M231.044 214.089C231.445 214.089 231.774 213.71 231.781 213.234C231.794 212.31 231.202 211.41 230.274 210.942C229.223 210.413 228.109 210.622 227.367 211.487C227.078 211.826 227.075 212.376 227.362 212.717C227.649 213.059 228.116 213.061 228.405 212.724C228.867 212.185 229.509 212.448 229.694 212.541C230.105 212.748 230.308 213.079 230.306 213.205C230.299 213.685 230.624 214.081 231.031 214.089C231.036 214.089 231.04 214.089 231.044 214.089L231.044 214.089Z" fill="#A5B9C4"/>
</svg>
