<svg width="350" height="175" viewBox="0 0 350 175" fill="none" xmlns="http://www.w3.org/2000/svg">
<path fill-rule="evenodd" clip-rule="evenodd" d="M34.7616 86.3213C34.4693 86.3213 34.1757 86.222 33.9369 86.0193C32.5883 84.8738 32.4487 82.6479 33.6046 80.7261C34.3024 79.5664 35.3976 78.6905 36.6875 78.2596C38.1898 77.7583 39.8768 77.8449 41.7013 78.5173C42.3549 78.7582 42.6866 79.4754 42.4418 80.1193C42.1973 80.7629 41.4689 81.0893 40.8155 80.8486C39.5508 80.3827 38.4348 80.3048 37.4987 80.6171C36.5778 80.9245 36.0551 81.5362 35.7791 81.9952C35.211 82.939 35.2848 83.8772 35.5876 84.1343C36.1161 84.5833 36.1751 85.3692 35.7194 85.8895C35.469 86.1749 35.1167 86.3213 34.7616 86.3213V86.3213Z" fill="#A5B9C4"/>
<path fill-rule="evenodd" clip-rule="evenodd" d="M53.4865 80.1596C53.002 80.1596 52.5402 79.8841 52.3307 79.4199C51.4856 77.5463 49.2165 76.1698 46.6842 75.9949C44.1644 75.8203 42.0231 76.8191 40.8102 78.7329C40.4408 79.316 39.6612 79.4937 39.069 79.1297C38.4773 78.7659 38.297 77.9982 38.6663 77.4152C40.3652 74.7343 43.4289 73.2757 46.8609 73.5119C50.354 73.7532 53.4077 75.6756 54.6405 78.4097C54.9238 79.0378 54.6365 79.7732 53.9988 80.0521C53.832 80.1252 53.6577 80.1596 53.4865 80.1596V80.1596Z" fill="#A5B9C4"/>
<path fill-rule="evenodd" clip-rule="evenodd" d="M46.1503 75.8329C46.0368 75.8329 45.9216 75.8178 45.8065 75.786C45.135 75.5995 44.744 74.9118 44.9336 74.2503C45.9887 70.5661 48.7512 68.0141 52.513 67.2484C54 66.9457 55.5164 66.9584 56.8984 67.2848C58.3592 67.6303 59.5271 68.2923 60.2757 69.1994C60.7162 69.7328 60.634 70.5166 60.0922 70.9503C59.5508 71.3837 58.7549 71.3028 58.3146 70.7694C57.5744 69.8729 55.4692 69.1887 53.0247 69.686C51.7433 69.9469 50.5719 70.5049 49.6369 71.2996C48.5559 72.2184 47.7922 73.4385 47.366 74.9261C47.209 75.4747 46.7021 75.8329 46.1503 75.8329V75.8329Z" fill="#A5B9C4"/>
<path fill-rule="evenodd" clip-rule="evenodd" d="M72.2887 73.5672C71.869 73.5672 71.4583 73.3615 71.2183 72.9856C69.5664 70.4008 66.9558 69.0754 64.055 69.3464C61.7169 69.5657 59.649 70.8166 59.0262 72.3884C58.7729 73.0287 58.0399 73.3453 57.3896 73.0956C56.7396 72.8457 56.418 72.1242 56.6718 71.4839C57.6426 69.0331 60.5134 67.1783 63.8155 66.8686C65.585 66.7025 67.3515 66.9951 68.9244 67.7143C70.7164 68.5338 72.2078 69.8612 73.3572 71.6598C73.729 72.2412 73.5514 73.0099 72.9608 73.3758C72.7517 73.5056 72.5189 73.5672 72.2887 73.5672V73.5672Z" fill="#A5B9C4"/>
<path fill-rule="evenodd" clip-rule="evenodd" d="M85.7287 77.0801C85.1846 77.0801 84.6818 76.731 84.5183 76.1911C84.1548 74.9919 83.3945 73.9304 82.3193 73.1216C81.2877 72.3457 79.9941 71.8347 78.6761 71.683C77.4152 71.5377 76.1791 71.7185 75.1018 72.2051C73.9194 72.7387 72.9671 73.6121 72.2722 74.801C71.9236 75.3968 71.1509 75.6013 70.5464 75.2583C69.9416 74.9151 69.7335 74.1543 70.082 73.5587C71.0313 71.9358 72.4027 70.6852 74.0485 69.9423C75.5471 69.2656 77.2481 69.0125 78.9692 69.2109C80.7571 69.4165 82.4461 70.085 83.8535 71.1435C85.3556 72.2737 86.423 73.7729 86.94 75.4791C87.1394 76.1376 86.759 76.8314 86.0903 77.0277C85.9698 77.0632 85.8482 77.0801 85.7287 77.0801V77.0801Z" fill="#A5B9C4"/>
<path fill-rule="evenodd" clip-rule="evenodd" d="M66.669 76.0466C66.361 76.0466 66.0912 75.8247 66.0449 75.5153C65.9317 74.7614 65.1898 74.5833 64.9649 74.5464C64.4614 74.4643 63.9738 74.6088 63.8304 74.883C63.6708 75.1885 63.2899 75.3088 62.9793 75.1513C62.6692 74.994 62.5472 74.6185 62.7069 74.3131C63.1096 73.5431 64.0999 73.1436 65.172 73.3187C66.323 73.5069 67.1368 74.2788 67.2949 75.3335C67.3459 75.6733 67.1075 75.9897 66.762 76.0399C66.731 76.0445 66.6998 76.0466 66.669 76.0466Z" fill="#A5B9C4"/>
<path fill-rule="evenodd" clip-rule="evenodd" d="M60.6176 77.0045C60.3118 77.0045 60.043 76.7855 59.9941 76.4786C59.7543 74.9709 60.7471 73.9743 61.8523 73.7691C62.4009 73.6671 62.9528 73.7599 63.4067 74.0296C63.9176 74.3333 64.2625 74.8281 64.4046 75.4604C64.48 75.7959 64.2644 76.1281 63.9238 76.2022C63.5829 76.2765 63.2458 76.0645 63.1707 75.7289C63.0217 75.0647 62.5128 74.9128 62.0864 74.9921C61.3823 75.123 61.155 75.7361 61.2427 76.2859C61.2964 76.6253 61.0611 76.9438 60.7162 76.997C60.6832 77.0021 60.6503 77.0045 60.6176 77.0045V77.0045Z" fill="#A5B9C4"/>
<path fill-rule="evenodd" clip-rule="evenodd" d="M45.2623 83.5918C45.2487 83.5918 45.2354 83.5915 45.2219 83.5907C44.8739 83.569 44.6091 83.2736 44.6312 82.9306C44.6954 81.9273 45.3974 81.1386 46.4625 80.8722C47.4514 80.625 48.412 80.9237 48.8526 81.6158C49.0378 81.9069 48.9485 82.2909 48.6529 82.4736C48.3572 82.6559 47.9673 82.5679 47.7819 82.2768C47.6431 82.0589 47.2002 81.9716 46.7736 82.0783C46.5779 82.1274 45.9349 82.3394 45.8919 83.0088C45.8712 83.3385 45.5931 83.592 45.2623 83.592V83.5918Z" fill="#A5B9C4"/>
<path fill-rule="evenodd" clip-rule="evenodd" d="M50.8942 84.0002C50.8789 84.0002 50.8638 83.9996 50.8484 83.9984C50.5005 83.974 50.2382 83.6762 50.2631 83.3335C50.3155 82.6128 49.8481 82.3085 49.4318 82.2669C49.3022 82.2542 48.6499 82.2275 48.5487 82.9829C48.5028 83.3236 48.1848 83.5627 47.8392 83.5182C47.4932 83.4733 47.2498 83.1605 47.2956 82.8196C47.3768 82.2145 47.6612 81.7224 48.1185 81.3962C48.5237 81.1068 49.0357 80.9761 49.5594 81.0287C50.6141 81.1342 51.6273 81.99 51.5237 83.4219C51.5 83.7499 51.2224 84 50.8942 84V84.0002Z" fill="#A5B9C4"/>
<path fill-rule="evenodd" clip-rule="evenodd" d="M67.5105 84.3164C67.4736 84.3164 67.4364 84.313 67.3987 84.3065C67.0551 84.246 66.8267 83.9228 66.8878 83.5845C67.0078 82.923 66.4521 82.5631 66.1049 82.4546C65.9254 82.3985 65.3185 82.2591 65.0508 82.8224C64.9032 83.1337 64.5269 83.2678 64.2107 83.1225C63.8948 82.9766 63.7584 82.6061 63.9065 82.295C64.3601 81.3402 65.3971 80.9275 66.4869 81.2682C67.4768 81.5775 68.3598 82.5478 68.1318 83.8035C68.0771 84.1047 67.8107 84.3164 67.5105 84.3164V84.3164Z" fill="#A5B9C4"/>
<path fill-rule="evenodd" clip-rule="evenodd" d="M65.0513 82.5662C64.7706 82.5662 64.5141 82.3805 64.4402 82.1005C64.2324 81.3137 63.4279 81.2087 63.1864 81.1952C62.6483 81.1657 62.1531 81.3742 62.0333 81.6809C61.9078 82.0017 61.5422 82.1618 61.2163 82.0383C60.8909 81.9147 60.7286 81.5547 60.8538 81.2339C61.1776 80.4056 62.1435 79.8894 63.2578 79.9525C64.46 80.0195 65.3818 80.7223 65.6632 81.7869C65.7513 82.1196 65.5486 82.4592 65.2109 82.5458C65.1575 82.5595 65.104 82.5662 65.0513 82.5662Z" fill="#A5B9C4"/>
<path fill-rule="evenodd" clip-rule="evenodd" d="M77.8848 77.4225C77.5982 77.4225 77.3389 77.2293 77.2701 76.9424C77.1268 76.3397 76.5902 76.2178 76.366 76.1932C75.9953 76.1526 75.5126 76.2791 75.3295 76.6512C75.1773 76.9604 74.7992 77.0895 74.4849 76.9398C74.1717 76.7897 74.04 76.4176 74.1923 76.1084C74.5846 75.3111 75.5136 74.8481 76.5049 74.9564C77.5117 75.0661 78.2764 75.7182 78.5006 76.6579C78.5807 76.9923 78.3698 77.3273 78.0299 77.406C77.9814 77.4172 77.933 77.4225 77.8848 77.4225V77.4225Z" fill="#A5B9C4"/>
<path fill-rule="evenodd" clip-rule="evenodd" d="M80.3443 77.6703C80.3403 77.6703 80.337 77.6703 80.3333 77.6702C79.9844 77.6645 79.7062 77.3814 79.7121 77.0378C79.7131 76.9471 79.5397 76.7107 79.1874 76.5626C79.0285 76.4959 78.4787 76.3075 78.0833 76.693C77.8354 76.9349 77.4352 76.9326 77.1899 76.6884C76.9441 76.4441 76.9461 76.0501 77.1943 75.8082C77.8296 75.189 78.7836 75.0394 79.6837 75.4179C80.4797 75.7525 80.9867 76.3964 80.9757 77.0581C80.97 77.3982 80.6884 77.6701 80.3444 77.6701L80.3443 77.6703Z" fill="#A5B9C4"/>
<path fill-rule="evenodd" clip-rule="evenodd" d="M120.647 84.7885C120.863 84.7885 121.08 84.6892 121.256 84.4865C122.253 83.341 122.356 81.1151 121.502 79.1933C120.986 78.0336 120.177 77.1576 119.224 76.7268C118.114 76.2254 116.868 76.3121 115.52 76.9845C115.037 77.2254 114.792 77.9425 114.973 78.5865C115.154 79.2301 115.692 79.5565 116.175 79.3158C117.109 78.8498 117.933 78.772 118.625 79.0842C119.305 79.3917 119.692 80.0034 119.895 80.4624C120.315 81.4062 120.261 82.3444 120.037 82.6015C119.646 83.0505 119.603 83.8364 119.94 84.3567C120.124 84.642 120.385 84.7885 120.647 84.7885V84.7885Z" fill="#A5B9C4"/>
<path fill-rule="evenodd" clip-rule="evenodd" d="M106.814 78.6269C107.172 78.6269 107.513 78.3513 107.668 77.8871C108.292 76.0135 109.968 74.637 111.839 74.4621C113.701 74.2875 115.283 75.2863 116.179 77.2001C116.452 77.7833 117.028 77.9609 117.465 77.5969C117.902 77.2331 118.035 76.4654 117.763 75.8825C116.508 73.2015 114.244 71.7429 111.709 71.9791C109.128 72.2204 106.872 74.1428 105.961 76.8769C105.752 77.5051 105.964 78.2404 106.435 78.5194C106.559 78.5924 106.687 78.6269 106.814 78.6269V78.6269Z" fill="#A5B9C4"/>
<path fill-rule="evenodd" clip-rule="evenodd" d="M112.233 74.3001C112.317 74.3001 112.402 74.285 112.487 74.2532C112.983 74.0667 113.272 73.379 113.132 72.7175C112.352 69.0333 110.311 66.4813 107.532 65.7156C106.434 65.4129 105.313 65.4256 104.292 65.752C103.213 66.0975 102.35 66.7595 101.797 67.6666C101.472 68.2 101.533 68.9838 101.933 69.4175C102.333 69.8509 102.921 69.7699 103.246 69.2366C103.793 68.3401 105.348 67.6559 107.154 68.1532C108.101 68.4141 108.966 68.9721 109.657 69.7668C110.456 70.6856 111.02 71.9056 111.335 73.3933C111.451 73.9418 111.825 74.3001 112.233 74.3001V74.3001Z" fill="#A5B9C4"/>
<path fill-rule="evenodd" clip-rule="evenodd" d="M92.9228 72.0344C93.2329 72.0344 93.5363 71.8288 93.7136 71.4529C94.934 68.868 96.8627 67.5426 99.0057 67.8136C100.733 68.0329 102.261 69.2839 102.721 70.8556C102.908 71.496 103.45 71.8125 103.93 71.5628C104.41 71.3129 104.648 70.5915 104.46 69.9511C103.743 67.5003 101.622 65.6455 99.1826 65.3358C97.8754 65.1697 96.5704 65.4623 95.4083 66.1816C94.0844 67.001 92.9826 68.3284 92.1334 70.127C91.8588 70.7085 91.99 71.4771 92.4263 71.8431C92.5808 71.9728 92.7528 72.0344 92.9228 72.0344V72.0344Z" fill="#A5B9C4"/>
<path fill-rule="evenodd" clip-rule="evenodd" d="M82.9935 75.5473C83.3955 75.5473 83.7669 75.1982 83.8878 74.6583C84.1563 73.459 84.718 72.3976 85.5123 71.5888C86.2744 70.8129 87.2301 70.3019 88.2039 70.1502C89.1353 70.0049 90.0486 70.1857 90.8445 70.6722C91.718 71.2058 92.4215 72.0793 92.9349 73.2682C93.1924 73.864 93.7633 74.0685 94.2098 73.7255C94.6567 73.3823 94.8104 72.6215 94.5529 72.0258C93.8516 70.403 92.8384 69.1524 91.6226 68.4094C90.5155 67.7328 89.2588 67.4797 87.9873 67.678C86.6664 67.8837 85.4187 68.5522 84.3789 69.6107C83.2692 70.7409 82.4806 72.2401 82.0986 73.9462C81.9513 74.6048 82.2323 75.2985 82.7264 75.4949C82.8154 75.5303 82.9052 75.5473 82.9935 75.5473V75.5473Z" fill="#A5B9C4"/>
<path fill-rule="evenodd" clip-rule="evenodd" d="M97.0738 74.5137C97.3013 74.5137 97.5006 74.2918 97.5348 73.9824C97.6185 73.2286 98.1666 73.0504 98.3327 73.0135C98.7047 72.9314 99.0649 73.0759 99.1709 73.3502C99.2888 73.6557 99.5702 73.776 99.7996 73.6185C100.029 73.4611 100.119 73.0857 100.001 72.7802C99.7034 72.0103 98.9717 71.6107 98.1798 71.7858C97.3294 71.974 96.7282 72.7459 96.6114 73.8007C96.5737 74.1405 96.7498 74.4568 97.005 74.5071C97.028 74.5117 97.051 74.5137 97.0738 74.5137Z" fill="#A5B9C4"/>
<path fill-rule="evenodd" clip-rule="evenodd" d="M101.545 75.4716C101.771 75.4716 101.969 75.2526 102.006 74.9457C102.183 73.438 101.449 72.4415 100.633 72.2363C100.228 72.1342 99.8197 72.2271 99.4844 72.4968C99.107 72.8004 98.8521 73.2953 98.7472 73.9275C98.6915 74.2631 98.8508 74.5952 99.1024 74.6694C99.3543 74.7436 99.6033 74.5316 99.6587 74.1961C99.7689 73.5318 100.145 73.38 100.46 73.4593C100.98 73.5902 101.148 74.2033 101.083 74.7531C101.043 75.0925 101.217 75.411 101.472 75.4641C101.496 75.4693 101.521 75.4716 101.545 75.4716V75.4716Z" fill="#A5B9C4"/>
<path fill-rule="evenodd" clip-rule="evenodd" d="M112.889 82.059C112.899 82.059 112.909 82.0586 112.919 82.0578C113.176 82.0362 113.372 81.7408 113.355 81.3978C113.308 80.3944 112.789 79.6058 112.003 79.3393C111.272 79.0922 110.562 79.3909 110.237 80.083C110.1 80.3741 110.166 80.7581 110.384 80.9408C110.603 81.1231 110.891 81.0351 111.028 80.7439C111.13 80.5261 111.458 80.4388 111.773 80.5454C111.917 80.5945 112.392 80.8066 112.424 81.476C112.439 81.8057 112.645 82.0592 112.889 82.0592V82.059Z" fill="#A5B9C4"/>
<path fill-rule="evenodd" clip-rule="evenodd" d="M108.729 82.4674C108.74 82.4674 108.751 82.4668 108.763 82.4657C109.02 82.4413 109.214 82.1435 109.195 81.8008C109.156 81.0801 109.502 80.7758 109.809 80.7341C109.905 80.7215 110.387 80.6948 110.462 81.4501C110.496 81.7908 110.731 82.03 110.986 81.9854C111.242 81.9406 111.421 81.6278 111.388 81.2869C111.327 80.6818 111.117 80.1897 110.78 79.8634C110.48 79.574 110.102 79.4433 109.715 79.496C108.936 79.6015 108.187 80.4573 108.264 81.8892C108.281 82.2171 108.486 82.4673 108.729 82.4673V82.4674Z" fill="#A5B9C4"/>
<path fill-rule="evenodd" clip-rule="evenodd" d="M96.4534 82.7836C96.4807 82.7836 96.5082 82.7802 96.536 82.7737C96.7898 82.7132 96.9586 82.39 96.9134 82.0517C96.8248 81.3902 97.2354 81.0303 97.4919 80.9218C97.6244 80.8657 98.0728 80.7263 98.2705 81.2896C98.3796 81.6009 98.6576 81.735 98.8912 81.5897C99.1246 81.4438 99.2254 81.0734 99.116 80.7622C98.7809 79.8074 98.0147 79.3947 97.2096 79.7354C96.4783 80.0448 95.8259 81.015 95.9944 82.2707C96.0348 82.5719 96.2316 82.7836 96.4534 82.7836V82.7836Z" fill="#A5B9C4"/>
<path fill-rule="evenodd" clip-rule="evenodd" d="M98.2701 81.0333C98.4774 81.0333 98.667 80.8477 98.7216 80.5677C98.8751 79.7809 99.4694 79.6759 99.6479 79.6623C100.045 79.6329 100.411 79.8413 100.5 80.1481C100.592 80.4689 100.863 80.629 101.103 80.5055C101.344 80.3819 101.464 80.0218 101.371 79.7011C101.132 78.8727 100.418 78.3566 99.5951 78.4197C98.7069 78.4866 98.026 79.1894 97.818 80.2541C97.7529 80.5867 97.9027 80.9264 98.1522 81.013C98.1916 81.0267 98.2312 81.0333 98.2701 81.0333Z" fill="#A5B9C4"/>
<path fill-rule="evenodd" clip-rule="evenodd" d="M88.7887 75.8896C89.0004 75.8896 89.192 75.6965 89.2428 75.4095C89.3487 74.8069 89.7451 74.685 89.9108 74.6604C90.1847 74.6198 90.5412 74.7463 90.6765 75.1184C90.7889 75.4276 91.0683 75.5566 91.3005 75.407C91.5319 75.2569 91.6291 74.8848 91.5166 74.5756C91.2268 73.7783 90.5405 73.3153 89.8081 73.4236C89.0644 73.5333 88.4994 74.1854 88.3338 75.125C88.2746 75.4594 88.4304 75.7945 88.6815 75.8732C88.7173 75.8844 88.7531 75.8896 88.7887 75.8896V75.8896Z" fill="#A5B9C4"/>
<path fill-rule="evenodd" clip-rule="evenodd" d="M86.9718 76.1375C86.9748 76.1375 86.9773 76.1375 86.98 76.1374C87.2377 76.1317 87.4432 75.8487 87.4389 75.505C87.4382 75.4143 87.5663 75.1779 87.8265 75.0298C87.9439 74.9631 88.3501 74.7747 88.6422 75.1602C88.8254 75.4021 89.121 75.3998 89.3023 75.1556C89.4838 74.9113 89.4824 74.5173 89.299 74.2754C88.8297 73.6562 88.1249 73.5066 87.4599 73.8851C86.8718 74.2197 86.4973 74.8636 86.5054 75.5253C86.5096 75.8654 86.7177 76.1374 86.9718 76.1374L86.9718 76.1375Z" fill="#A5B9C4"/>
<path fill-rule="evenodd" clip-rule="evenodd" d="M90.8042 53.5621C90.1063 53.5621 89.5407 53.005 89.5407 52.3175C89.5407 51.6302 90.1063 51.0732 90.8042 51.0732C92.6475 51.0732 94.213 49.8811 94.7486 48.2388H89.8712C89.1733 48.2388 88.6074 47.6815 88.6074 46.9943C88.6074 46.3068 89.1733 45.7497 89.8712 45.7497H96.2093C96.9072 45.7497 97.4728 46.3068 97.4728 46.9943C97.4728 50.6159 94.4812 53.5621 90.8042 53.5621Z" fill="#A5B9C4"/>
<path fill-rule="evenodd" clip-rule="evenodd" d="M75.664 68.3509C71.9866 68.3509 68.9951 65.4024 68.9951 61.7781C68.9951 61.0908 69.561 60.5337 70.2589 60.5337H76.5971C77.2949 60.5337 77.8606 61.0908 77.8606 61.7781C77.8606 62.4655 77.2949 63.0228 76.5971 63.0228H71.7193C72.2539 64.6679 73.8203 65.8617 75.664 65.8617C76.3616 65.8617 76.9278 66.4189 76.9278 67.1062C76.9278 67.7937 76.3616 68.3509 75.664 68.3509V68.3509Z" fill="#A5B9C4"/>
<path fill-rule="evenodd" clip-rule="evenodd" d="M87.4172 29.7261C86.7194 29.7261 86.1535 29.1688 86.1535 28.4815V23.8557C86.1535 23.6882 86.014 23.5521 85.8425 23.5521H81.1281C80.9567 23.5521 80.8222 23.6855 80.8222 23.8557V28.4815C80.8222 29.1688 80.2564 29.7261 79.5586 29.7261C78.8608 29.7261 78.2949 29.1688 78.2949 28.4815V23.8557C78.2949 22.3158 79.5659 21.0629 81.1281 21.0629H85.8425C87.4076 21.0629 88.6808 22.3158 88.6808 23.8557V28.4815C88.6808 29.1688 88.115 29.7261 87.4172 29.7261V29.7261Z" fill="#A5B9C4"/>
<path fill-rule="evenodd" clip-rule="evenodd" d="M77.4853 36.5711C77.1958 36.5713 76.9047 36.4736 76.6668 36.2742L68.8724 29.7402C68.469 29.4024 68.3228 28.8524 68.5054 28.3627C68.6886 27.8733 69.162 27.5481 69.6917 27.5481H97.2807C97.8101 27.5481 98.2837 27.8731 98.4664 28.3626C98.6494 28.852 98.5031 29.4019 98.1002 29.7399L90.3106 36.274C89.7792 36.7199 88.9816 36.6569 88.5288 36.1335C88.0765 35.6103 88.1405 34.8246 88.6716 34.379L93.848 30.0371H73.1259L78.3051 34.3787C78.8365 34.8243 78.9007 35.6098 78.4484 36.1332C78.1983 36.4224 77.8431 36.5711 77.4853 36.5711V36.5711Z" fill="#A5B9C4"/>
<path fill-rule="evenodd" clip-rule="evenodd" d="M90.7495 75.7065C90.0701 75.7065 89.5086 75.1748 89.487 74.5012L88.267 36.5711H78.7123L77.6733 70.5516C77.6521 71.2386 77.0701 71.7772 76.372 71.7582C75.6745 71.7375 75.1259 71.1637 75.1471 70.4768L76.2232 35.289C76.2435 34.6166 76.8029 34.0818 77.486 34.0818H89.4912C90.1735 34.0818 90.7328 34.6154 90.7541 35.2871L92.0131 74.4224C92.0353 75.1094 91.4878 75.6841 90.7902 75.7057C90.7763 75.7062 90.7631 75.7063 90.7495 75.7063V75.7065Z" fill="#A5B9C4"/>
<path fill-rule="evenodd" clip-rule="evenodd" d="M86.5298 68.1127C86.2982 68.1127 86.075 67.9867 85.9643 67.7689C85.8082 67.4614 85.9349 67.0874 86.2469 66.9337L87.6684 66.2339C87.9807 66.0801 88.3603 66.2049 88.516 66.5122C88.6723 66.8196 88.5455 67.1934 88.2333 67.347L86.812 68.0469C86.7212 68.0917 86.6247 68.1127 86.5298 68.1127Z" fill="#A5B9C4"/>
<path fill-rule="evenodd" clip-rule="evenodd" d="M83.4885 63.4456C82.3778 63.4456 81.4746 62.5559 81.4746 61.4621C81.4746 60.3685 82.3778 59.4786 83.4885 59.4786C84.599 59.4786 85.5025 60.3685 85.5025 61.4621C85.5025 62.5559 84.599 63.4456 83.4885 63.4456ZM83.4885 60.7232C83.075 60.7232 82.738 61.0547 82.738 61.4621C82.738 61.8697 83.075 62.2012 83.4885 62.2012C83.9023 62.2012 84.2387 61.8697 84.2387 61.4621C84.2387 61.0547 83.9023 60.7232 83.4885 60.7232Z" fill="#A5B9C4"/>
<path fill-rule="evenodd" clip-rule="evenodd" d="M83.4893 71.3797C83.1404 71.3797 82.8574 71.1011 82.8574 70.7574V62.8234C82.8574 62.4795 83.1404 62.2012 83.4893 62.2012C83.8382 62.2012 84.1212 62.4795 84.1212 62.8234V70.7574C84.1212 71.1011 83.8382 71.3797 83.4893 71.3797Z" fill="#A5B9C4"/>
<path fill-rule="evenodd" clip-rule="evenodd" d="M83.4888 71.8077C80.6799 71.8077 78.3945 69.5569 78.3945 66.7906C78.3945 66.4467 78.6774 66.1681 79.0264 66.1681C79.3753 66.1681 79.6582 66.4467 79.6582 66.7906C79.6582 68.8706 81.3766 70.563 83.4888 70.563C85.601 70.563 87.3195 68.8706 87.3195 66.7906C87.3195 66.4467 87.6022 66.1681 87.9514 66.1681C88.3003 66.1681 88.5831 66.4467 88.5831 66.7906C88.5831 69.5569 86.2978 71.8077 83.4888 71.8077V71.8077Z" fill="#A5B9C4"/>
<path fill-rule="evenodd" clip-rule="evenodd" d="M80.4475 68.1127C80.3525 68.1127 80.2564 68.0917 80.1657 68.0469L78.7439 67.347C78.4318 67.1934 78.3054 66.8196 78.4613 66.5122C78.6172 66.2047 78.9968 66.0799 79.3088 66.2339L80.7307 66.9337C81.0428 67.0874 81.1694 67.4614 81.0134 67.7689C80.9025 67.9867 80.6794 68.1127 80.4475 68.1127V68.1127Z" fill="#A5B9C4"/>
<path fill-rule="evenodd" clip-rule="evenodd" d="M79.2327 15.6519C79.1006 15.6519 78.9676 15.6114 78.8541 15.5277C77.3674 14.4293 76.5804 12.8391 76.5781 10.9279C76.5747 8.06587 78.3913 4.79232 81.0988 2.78251C81.3109 2.62513 81.6006 2.61487 81.8234 2.75744C82.046 2.89973 82.1547 3.16435 82.095 3.41911C81.7121 5.0539 82.3203 6.55949 82.9661 7.81651C83.1234 8.12294 82.9985 8.4975 82.6872 8.65241C82.3759 8.80766 81.996 8.68475 81.8385 8.37798C81.0542 6.85112 80.7683 5.68322 80.7163 4.76325C78.9555 6.51871 77.8394 8.85498 77.8418 10.9266C77.8438 12.4311 78.456 13.6776 79.6122 14.5318C79.8915 14.7382 79.9479 15.1281 79.7388 15.4032C79.6145 15.566 79.4247 15.6519 79.2327 15.6519V15.6519Z" fill="#A5B9C4"/>
<path fill-rule="evenodd" clip-rule="evenodd" d="M83.6323 20.142C83.5101 20.142 83.3867 20.1392 83.2618 20.1336C82.2311 20.0891 81.2643 19.6062 80.4664 18.7377C79.4938 17.6781 78.863 16.0888 78.933 14.873C79.0284 13.2925 79.9247 11.696 80.8734 10.006C82.2461 7.56073 83.6663 5.03257 83.0054 2.18806C82.9463 1.93319 83.0554 1.66898 83.2783 1.52692C83.5013 1.3848 83.7906 1.39524 84.0024 1.55307C87.8882 4.44552 90.351 9.23063 89.9915 13.1892C89.5897 17.6282 87.2797 20.142 83.6323 20.142ZM84.4356 3.54654C84.4687 6.17461 83.1584 8.50765 81.9794 10.6083C81.1017 12.1714 80.2728 13.648 80.1945 14.945C80.1506 15.7113 80.5517 16.9745 81.4041 17.9028C81.7985 18.3324 82.4513 18.8527 83.318 18.8902C85.111 18.9714 86.4869 18.3687 87.4103 17.0997C88.3149 15.8568 88.629 14.2269 88.7327 13.0784C88.8915 11.3286 88.4348 9.37727 87.4117 7.43501C86.6574 6.00312 85.6261 4.66093 84.4356 3.54654Z" fill="#A5B9C4"/>
<path fill-rule="evenodd" clip-rule="evenodd" d="M86.6614 54.3134C86.3225 54.3134 86.0419 54.0484 86.0302 53.7121L85.5072 38.3883C85.4955 38.0449 85.7687 37.7571 86.1173 37.7455C86.1247 37.7454 86.1319 37.7452 86.1394 37.7452C86.4783 37.7452 86.7586 38.0102 86.7704 38.3464L87.2934 53.6701C87.3049 54.0136 87.032 54.3015 86.6832 54.3131C86.6759 54.3133 86.6688 54.3134 86.6614 54.3134Z" fill="#A5B9C4"/>
<path fill-rule="evenodd" clip-rule="evenodd" d="M86.9134 58.2585C86.5779 58.2585 86.2983 57.9982 86.2828 57.6645L86.2185 56.2864C86.2024 55.943 86.472 55.652 86.8208 55.6361C87.17 55.6205 87.4649 55.8859 87.481 56.2293L87.5451 57.6076C87.5611 57.9508 87.2916 58.2419 86.9428 58.2577C86.9331 58.2582 86.9232 58.2583 86.9134 58.2583V58.2585Z" fill="#A5B9C4"/>
<path fill-rule="evenodd" clip-rule="evenodd" d="M84.1101 17.3292C83.7612 17.3292 83.4785 17.0506 83.4785 16.7069C83.4785 16.3634 83.7612 16.0846 84.1101 16.0846C84.4312 16.0846 84.8401 15.9596 84.9497 15.9047C85.2308 15.72 85.6122 15.786 85.812 16.0579C86.0163 16.3365 85.953 16.7255 85.6701 16.9269C85.4025 17.1172 84.6961 17.3292 84.1101 17.3292V17.3292ZM84.9418 15.9099C84.9374 15.9127 84.9333 15.9156 84.9294 15.918C84.9339 15.9151 84.938 15.9122 84.9418 15.9099Z" fill="#A5B9C4"/>
<path fill-rule="evenodd" clip-rule="evenodd" d="M86.6172 15.7346C86.5096 15.7346 86.4004 15.7076 86.3005 15.6503C85.9985 15.4779 85.8961 15.0969 86.0714 14.7996C86.277 14.4508 87.2039 11.4193 85.3003 8.28006C85.1216 7.98482 85.2192 7.60297 85.5189 7.42673C85.8187 7.25066 86.2066 7.34672 86.3855 7.64214C88.4617 11.0662 87.6826 14.5449 87.1644 15.4245C87.0471 15.6235 86.835 15.7346 86.6172 15.7346Z" fill="#A5B9C4"/>
<path fill-rule="evenodd" clip-rule="evenodd" d="M262.03 84.8942C261.738 84.8942 261.444 84.7948 261.205 84.5922C259.857 83.4467 259.717 81.2208 260.873 79.299C261.571 78.1392 262.666 77.2633 263.956 76.8325C265.458 76.3311 267.145 76.4178 268.97 77.0901C269.623 77.3311 269.955 78.0482 269.71 78.6921C269.466 79.3357 268.738 79.6622 268.084 79.4214C266.819 78.9555 265.703 78.8776 264.767 79.1899C263.846 79.4974 263.324 80.1091 263.048 80.568C262.48 81.5119 262.553 82.4501 262.856 82.7071C263.385 83.1561 263.444 83.942 262.988 84.4624C262.738 84.7477 262.385 84.8942 262.03 84.8942V84.8942Z" fill="#A5B9C4"/>
<path fill-rule="evenodd" clip-rule="evenodd" d="M280.755 78.7325C280.271 78.7325 279.809 78.4569 279.599 77.9928C278.754 76.1192 276.485 74.7427 273.953 74.5678C271.433 74.3931 269.292 75.392 268.079 77.3058C267.709 77.8889 266.93 78.0666 266.338 77.7026C265.746 77.3387 265.566 76.5711 265.935 75.9881C267.634 73.3072 270.697 71.8486 274.129 72.0848C277.623 72.3261 280.676 74.2484 281.909 76.9825C282.192 77.6107 281.905 78.3461 281.267 78.625C281.101 78.698 280.926 78.7325 280.755 78.7325V78.7325Z" fill="#A5B9C4"/>
<path fill-rule="evenodd" clip-rule="evenodd" d="M273.42 74.4058C273.306 74.4058 273.191 74.3907 273.076 74.3588C272.405 74.1724 272.014 73.4846 272.203 72.8232C273.258 69.139 276.021 66.587 279.782 65.8213C281.27 65.5186 282.786 65.5312 284.168 65.8577C285.629 66.2031 286.797 66.8651 287.545 67.7722C287.986 68.3057 287.904 69.0894 287.362 69.5232C286.82 69.9566 286.024 69.8756 285.584 69.3422C284.844 68.4458 282.739 67.7615 280.294 68.2588C279.013 68.5198 277.841 69.0777 276.906 69.8725C275.825 70.7912 275.062 72.0113 274.636 73.499C274.479 74.0475 273.972 74.4058 273.42 74.4058V74.4058Z" fill="#A5B9C4"/>
<path fill-rule="evenodd" clip-rule="evenodd" d="M299.557 72.1401C299.138 72.1401 298.727 71.9344 298.487 71.5585C296.835 68.9736 294.224 67.6483 291.324 67.9193C288.985 68.1386 286.918 69.3895 286.295 70.9613C286.041 71.6016 285.308 71.9182 284.658 71.6685C284.008 71.4186 283.687 70.6971 283.94 70.0567C284.911 67.606 287.782 65.7512 291.084 65.4415C292.854 65.2754 294.62 65.568 296.193 66.2872C297.985 67.1067 299.476 68.4341 300.626 70.2326C300.998 70.8141 300.82 71.5828 300.229 71.9487C300.02 72.0784 299.787 72.1401 299.557 72.1401V72.1401Z" fill="#A5B9C4"/>
<path fill-rule="evenodd" clip-rule="evenodd" d="M312.997 75.6529C312.453 75.6529 311.95 75.3038 311.787 74.7639C311.423 73.5646 310.663 72.5032 309.588 71.6944C308.556 70.9185 307.263 70.4075 305.945 70.2558C304.684 70.1105 303.448 70.2913 302.37 70.7778C301.188 71.3114 300.236 72.1849 299.541 73.3738C299.192 73.9696 298.419 74.1741 297.815 73.8311C297.21 73.4879 297.002 72.7271 297.351 72.1314C298.3 70.5086 299.671 69.258 301.317 68.515C302.816 67.8384 304.517 67.5853 306.238 67.7836C308.026 67.9893 309.715 68.6578 311.122 69.7162C312.624 70.8465 313.692 72.3457 314.209 74.0518C314.408 74.7104 314.028 75.4041 313.359 75.6005C313.238 75.6359 313.117 75.6529 312.997 75.6529V75.6529Z" fill="#A5B9C4"/>
<path fill-rule="evenodd" clip-rule="evenodd" d="M293.938 74.6194C293.63 74.6194 293.36 74.3975 293.314 74.0881C293.2 73.3343 292.458 73.1561 292.234 73.1192C291.73 73.0371 291.242 73.1816 291.099 73.4559C290.939 73.7614 290.558 73.8816 290.248 73.7242C289.938 73.5668 289.816 73.1914 289.975 72.8859C290.378 72.116 291.368 71.7164 292.441 71.8915C293.592 72.0797 294.405 72.8516 294.563 73.9064C294.614 74.2462 294.376 74.5625 294.031 74.6127C294 74.6173 293.968 74.6194 293.938 74.6194Z" fill="#A5B9C4"/>
<path fill-rule="evenodd" clip-rule="evenodd" d="M287.886 75.5773C287.58 75.5773 287.312 75.3582 287.263 75.0513C287.023 73.5436 288.016 72.5471 289.121 72.3419C289.669 72.2398 290.221 72.3327 290.675 72.6024C291.186 72.9061 291.531 73.4009 291.673 74.0331C291.749 74.3687 291.533 74.7008 291.192 74.775C290.851 74.8492 290.514 74.6373 290.439 74.3017C290.29 73.6375 289.781 73.4856 289.355 73.5649C288.651 73.6958 288.424 74.3089 288.511 74.8587C288.565 75.1981 288.33 75.5166 287.985 75.5697C287.952 75.5749 287.919 75.5773 287.886 75.5773V75.5773Z" fill="#A5B9C4"/>
<path fill-rule="evenodd" clip-rule="evenodd" d="M272.531 82.1647C272.517 82.1647 272.504 82.1643 272.49 82.1635C272.142 82.1419 271.878 81.8465 271.9 81.5035C271.964 80.5001 272.666 79.7115 273.731 79.445C274.72 79.1979 275.681 79.4966 276.121 80.1886C276.306 80.4797 276.217 80.8637 275.921 81.0465C275.626 81.2287 275.236 81.1408 275.05 80.8496C274.912 80.6318 274.469 80.5445 274.042 80.6511C273.846 80.7002 273.203 80.9122 273.16 81.5817C273.14 81.9113 272.862 82.1648 272.531 82.1648V82.1647Z" fill="#A5B9C4"/>
<path fill-rule="evenodd" clip-rule="evenodd" d="M278.163 82.573C278.147 82.573 278.132 82.5724 278.117 82.5713C277.769 82.5469 277.507 82.2491 277.532 81.9063C277.584 81.1857 277.117 80.8814 276.7 80.8397C276.571 80.827 275.918 80.8004 275.817 81.5557C275.771 81.8964 275.453 82.1356 275.108 82.091C274.762 82.0462 274.518 81.7334 274.564 81.3925C274.645 80.7874 274.93 80.2953 275.387 79.969C275.792 79.6796 276.304 79.5489 276.828 79.6016C277.883 79.7071 278.896 80.5629 278.792 81.9948C278.769 82.3227 278.491 82.5729 278.163 82.5729V82.573Z" fill="#A5B9C4"/>
<path fill-rule="evenodd" clip-rule="evenodd" d="M294.78 82.8892C294.743 82.8892 294.706 82.8858 294.668 82.8793C294.325 82.8188 294.096 82.4956 294.157 82.1573C294.277 81.4958 293.722 81.1359 293.374 81.0274C293.195 80.9713 292.588 80.8319 292.32 81.3952C292.173 81.7065 291.796 81.8406 291.48 81.6953C291.164 81.5494 291.028 81.1789 291.176 80.8678C291.63 79.913 292.667 79.5003 293.756 79.841C294.746 80.1503 295.629 81.1206 295.401 82.3763C295.347 82.6775 295.08 82.8892 294.78 82.8892V82.8892Z" fill="#A5B9C4"/>
<path fill-rule="evenodd" clip-rule="evenodd" d="M292.32 81.139C292.039 81.139 291.783 80.9533 291.709 80.6733C291.501 79.8865 290.696 79.7815 290.455 79.768C289.917 79.7386 289.422 79.947 289.302 80.2538C289.176 80.5745 288.811 80.7347 288.485 80.6111C288.159 80.4875 287.997 80.1275 288.122 79.8067C288.446 78.9784 289.412 78.4622 290.526 78.5253C291.729 78.5923 292.65 79.2951 292.932 80.3598C293.02 80.6924 292.817 81.032 292.479 81.1186C292.426 81.1323 292.373 81.139 292.32 81.139Z" fill="#A5B9C4"/>
<path fill-rule="evenodd" clip-rule="evenodd" d="M305.153 75.9952C304.867 75.9952 304.607 75.8021 304.539 75.5151C304.395 74.9125 303.859 74.7906 303.635 74.766C303.264 74.7253 302.781 74.8519 302.598 75.224C302.446 75.5332 302.068 75.6622 301.753 75.5125C301.44 75.3625 301.309 74.9904 301.461 74.6811C301.853 73.8839 302.782 73.4209 303.773 73.5292C304.78 73.6389 305.545 74.291 305.769 75.2306C305.849 75.565 305.638 75.9001 305.298 75.9788C305.25 75.99 305.202 75.9952 305.153 75.9952V75.9952Z" fill="#A5B9C4"/>
<path fill-rule="evenodd" clip-rule="evenodd" d="M307.613 76.2431C307.609 76.2431 307.606 76.2432 307.602 76.243C307.253 76.2373 306.975 75.9543 306.981 75.6106C306.982 75.5199 306.808 75.2835 306.456 75.1354C306.297 75.0688 305.747 74.8804 305.352 75.2658C305.104 75.5077 304.704 75.5054 304.458 75.2612C304.213 75.0169 304.215 74.623 304.463 74.3811C305.098 73.7618 306.052 73.6123 306.952 73.9907C307.748 74.3253 308.255 74.9693 308.244 75.6309C308.239 75.971 307.957 76.243 307.613 76.243L307.613 76.2431Z" fill="#A5B9C4"/>
<path fill-rule="evenodd" clip-rule="evenodd" d="M347.915 83.3614C348.131 83.3614 348.348 83.2621 348.524 83.0594C349.52 81.9139 349.623 79.688 348.769 77.7662C348.254 76.6064 347.445 75.7305 346.492 75.2997C345.382 74.7983 344.136 74.885 342.788 75.5574C342.305 75.7983 342.06 76.5154 342.241 77.1594C342.421 77.803 342.959 78.1294 343.442 77.8886C344.377 77.4227 345.201 77.3449 345.893 77.6571C346.573 77.9646 346.959 78.5763 347.163 79.0353C347.583 79.9791 347.528 80.9173 347.304 81.1744C346.914 81.6234 346.87 82.4093 347.207 82.9296C347.392 83.2149 347.652 83.3614 347.915 83.3614V83.3614Z" fill="#A5B9C4"/>
<path fill-rule="evenodd" clip-rule="evenodd" d="M334.081 77.1997C334.439 77.1997 334.781 76.9242 334.935 76.46C335.56 74.5864 337.236 73.2099 339.107 73.035C340.968 72.8604 342.55 73.8592 343.446 75.773C343.719 76.3561 344.295 76.5338 344.733 76.1698C345.17 75.806 345.303 75.0383 345.03 74.4553C343.775 71.7744 341.512 70.3158 338.976 70.552C336.396 70.7933 334.14 72.7157 333.229 75.4498C333.02 76.0779 333.232 76.8133 333.703 77.0922C333.826 77.1653 333.955 77.1997 334.081 77.1997V77.1997Z" fill="#A5B9C4"/>
<path fill-rule="evenodd" clip-rule="evenodd" d="M339.5 72.8731C339.584 72.8731 339.669 72.858 339.754 72.8261C340.25 72.6396 340.539 71.9519 340.399 71.2904C339.62 67.6063 337.579 65.0542 334.8 64.2885C333.701 63.9858 332.581 63.9985 331.56 64.325C330.481 64.6704 329.618 65.3324 329.065 66.2395C328.739 66.7729 328.8 67.5567 329.2 67.9905C329.6 68.4239 330.188 68.3429 330.514 67.8095C331.06 66.9131 332.616 66.2288 334.422 66.7261C335.368 66.987 336.234 67.545 336.925 68.3398C337.723 69.2585 338.287 70.4786 338.602 71.9663C338.718 72.5148 339.093 72.8731 339.5 72.8731V72.8731Z" fill="#A5B9C4"/>
<path fill-rule="evenodd" clip-rule="evenodd" d="M320.19 70.6073C320.5 70.6073 320.804 70.4016 320.981 70.0257C322.202 67.4409 324.13 66.1155 326.273 66.3865C328.001 66.6058 329.528 67.8567 329.988 69.4285C330.176 70.0688 330.717 70.3854 331.198 70.1357C331.678 69.8858 331.915 69.1643 331.728 68.524C331.011 66.0732 328.89 64.2184 326.45 63.9087C325.143 63.7426 323.838 64.0352 322.676 64.7544C321.352 65.5739 320.25 66.9013 319.401 68.6999C319.126 69.2813 319.258 70.05 319.694 70.4159C319.848 70.5457 320.02 70.6073 320.19 70.6073V70.6073Z" fill="#A5B9C4"/>
<path fill-rule="evenodd" clip-rule="evenodd" d="M310.261 74.1201C310.663 74.1201 311.034 73.7711 311.155 73.2312C311.424 72.0319 311.986 70.9705 312.78 70.1617C313.542 69.3857 314.498 68.8748 315.471 68.7231C316.403 68.5778 317.316 68.7585 318.112 69.2451C318.986 69.7787 319.689 70.6522 320.202 71.8411C320.46 72.4369 321.031 72.6414 321.477 72.2984C321.924 71.9552 322.078 71.1944 321.821 70.5987C321.119 68.9759 320.106 67.7252 318.89 66.9823C317.783 66.3057 316.526 66.0526 315.255 66.2509C313.934 66.4566 312.686 67.1251 311.646 68.1835C310.537 69.3138 309.748 70.813 309.366 72.5191C309.219 73.1777 309.5 73.8714 309.994 74.0678C310.083 74.1032 310.173 74.1201 310.261 74.1201V74.1201Z" fill="#A5B9C4"/>
<path fill-rule="evenodd" clip-rule="evenodd" d="M324.341 73.0866C324.569 73.0866 324.768 72.8647 324.802 72.5553C324.886 71.8015 325.434 71.6233 325.6 71.5864C325.972 71.5043 326.333 71.6488 326.438 71.9231C326.556 72.2286 326.838 72.3489 327.067 72.1914C327.296 72.034 327.386 71.6586 327.268 71.3531C326.971 70.5832 326.239 70.1836 325.447 70.3587C324.597 70.547 323.996 71.3188 323.879 72.3736C323.841 72.7134 324.017 73.0297 324.273 73.08C324.296 73.0846 324.319 73.0866 324.341 73.0866Z" fill="#A5B9C4"/>
<path fill-rule="evenodd" clip-rule="evenodd" d="M328.813 74.0445C329.038 74.0445 329.237 73.8255 329.273 73.5186C329.45 72.0109 328.717 71.0144 327.9 70.8092C327.495 70.7071 327.087 70.8 326.752 71.0697C326.375 71.3734 326.12 71.8682 326.015 72.5004C325.959 72.836 326.118 73.1681 326.37 73.2423C326.622 73.3165 326.871 73.1045 326.926 72.769C327.036 72.1047 327.412 71.9529 327.727 72.0322C328.248 72.1631 328.415 72.7762 328.351 73.326C328.311 73.6654 328.485 73.9839 328.74 74.037C328.764 74.0422 328.788 74.0445 328.813 74.0445V74.0445Z" fill="#A5B9C4"/>
<path fill-rule="evenodd" clip-rule="evenodd" d="M340.157 80.6319C340.167 80.6319 340.177 80.6316 340.187 80.6308C340.444 80.6092 340.639 80.3138 340.623 79.9707C340.576 78.9674 340.057 78.1787 339.27 77.9123C338.54 77.6652 337.83 77.9638 337.504 78.6559C337.368 78.947 337.434 79.331 337.652 79.5138C337.87 79.696 338.158 79.608 338.295 79.3169C338.398 79.0991 338.725 79.0118 339.04 79.1184C339.185 79.1675 339.66 79.3795 339.692 80.049C339.707 80.3786 339.912 80.6321 340.157 80.6321V80.6319Z" fill="#A5B9C4"/>
<path fill-rule="evenodd" clip-rule="evenodd" d="M335.996 81.0403C336.007 81.0403 336.018 81.0397 336.029 81.0385C336.286 81.0141 336.48 80.7163 336.462 80.3736C336.423 79.6529 336.768 79.3486 337.076 79.307C337.172 79.2943 337.654 79.2676 337.728 80.023C337.762 80.3637 337.997 80.6028 338.252 80.5583C338.508 80.5134 338.688 80.2006 338.654 79.8597C338.594 79.2546 338.384 78.7625 338.046 78.4363C337.747 78.1469 337.369 78.0162 336.982 78.0688C336.202 78.1743 335.454 79.0301 335.53 80.462C335.548 80.79 335.753 81.0401 335.996 81.0401V81.0403Z" fill="#A5B9C4"/>
<path fill-rule="evenodd" clip-rule="evenodd" d="M323.721 81.3564C323.748 81.3564 323.776 81.353 323.804 81.3465C324.057 81.286 324.226 80.9628 324.181 80.6245C324.092 79.963 324.503 79.6031 324.759 79.4946C324.892 79.4385 325.34 79.299 325.538 79.8623C325.647 80.1737 325.925 80.3078 326.159 80.1625C326.392 80.0166 326.493 79.6461 326.384 79.335C326.048 78.3802 325.282 77.9675 324.477 78.3082C323.746 78.6175 323.094 79.5877 323.262 80.8435C323.302 81.1447 323.499 81.3564 323.721 81.3564V81.3564Z" fill="#A5B9C4"/>
<path fill-rule="evenodd" clip-rule="evenodd" d="M325.538 79.6063C325.745 79.6063 325.935 79.4206 325.989 79.1406C326.143 78.3538 326.737 78.2488 326.915 78.2353C327.313 78.2059 327.679 78.4143 327.767 78.721C327.86 79.0418 328.13 79.2019 328.371 79.0784C328.611 78.9548 328.731 78.5948 328.639 78.274C328.399 77.4457 327.686 76.9295 326.863 76.9926C325.975 77.0596 325.294 77.7624 325.086 78.827C325.021 79.1597 325.17 79.4993 325.42 79.5859C325.459 79.5996 325.499 79.6063 325.538 79.6063Z" fill="#A5B9C4"/>
<path fill-rule="evenodd" clip-rule="evenodd" d="M316.056 74.4625C316.268 74.4625 316.46 74.2694 316.51 73.9824C316.616 73.3798 317.013 73.2578 317.178 73.2333C317.452 73.1926 317.809 73.3192 317.944 73.6913C318.057 74.0005 318.336 74.1295 318.568 73.9798C318.799 73.8297 318.897 73.4577 318.784 73.1484C318.494 72.3512 317.808 71.8882 317.076 71.9965C316.332 72.1062 315.767 72.7583 315.601 73.6979C315.542 74.0323 315.698 74.3674 315.949 74.4461C315.985 74.4573 316.021 74.4625 316.056 74.4625V74.4625Z" fill="#A5B9C4"/>
<path fill-rule="evenodd" clip-rule="evenodd" d="M314.239 74.7104C314.242 74.7104 314.245 74.7104 314.248 74.7103C314.505 74.7046 314.711 74.4215 314.706 74.0779C314.706 73.9872 314.834 73.7508 315.094 73.6027C315.212 73.536 315.618 73.3476 315.91 73.7331C316.093 73.975 316.389 73.9727 316.57 73.7285C316.751 73.4842 316.75 73.0902 316.567 72.8483C316.097 72.2291 315.392 72.0795 314.727 72.458C314.139 72.7926 313.765 73.4365 313.773 74.0982C313.777 74.4383 313.985 74.7102 314.239 74.7102L314.239 74.7104Z" fill="#A5B9C4"/>
<path fill-rule="evenodd" clip-rule="evenodd" d="M318.073 52.135C317.375 52.135 316.809 51.5779 316.809 50.8904C316.809 50.2031 317.375 49.6461 318.073 49.6461C319.916 49.6461 321.482 48.454 322.017 46.8117H317.14C316.442 46.8117 315.876 46.2544 315.876 45.5672C315.876 44.8797 316.442 44.3226 317.14 44.3226H323.478C324.176 44.3226 324.741 44.8797 324.741 45.5672C324.741 49.1888 321.75 52.135 318.073 52.135Z" fill="#A5B9C4"/>
<path fill-rule="evenodd" clip-rule="evenodd" d="M302.933 66.9238C299.255 66.9238 296.264 63.9753 296.264 60.351C296.264 59.6637 296.83 59.1066 297.527 59.1066H303.866C304.563 59.1066 305.129 59.6637 305.129 60.351C305.129 61.0384 304.563 61.5957 303.866 61.5957H298.988C299.523 63.2408 301.089 64.4346 302.933 64.4346C303.63 64.4346 304.196 64.9918 304.196 65.6791C304.196 66.3666 303.63 66.9238 302.933 66.9238V66.9238Z" fill="#A5B9C4"/>
<path fill-rule="evenodd" clip-rule="evenodd" d="M314.686 28.2989C313.988 28.2989 313.422 27.7416 313.422 27.0543V22.4285C313.422 22.261 313.283 22.125 313.111 22.125H308.397C308.225 22.125 308.091 22.2583 308.091 22.4285V27.0543C308.091 27.7416 307.525 28.2989 306.827 28.2989C306.129 28.2989 305.563 27.7416 305.563 27.0543V22.4285C305.563 20.8886 306.834 19.6357 308.397 19.6357H313.111C314.676 19.6357 315.949 20.8886 315.949 22.4285V27.0543C315.949 27.7416 315.384 28.2989 314.686 28.2989V28.2989Z" fill="#A5B9C4"/>
<path fill-rule="evenodd" clip-rule="evenodd" d="M304.754 35.144C304.464 35.1441 304.173 35.0464 303.935 34.8471L296.141 28.3131C295.738 27.9753 295.591 27.4253 295.774 26.9356C295.957 26.4461 296.431 26.121 296.96 26.121H324.549C325.079 26.121 325.552 26.4459 325.735 26.9355C325.918 27.4248 325.772 27.9747 325.369 28.3128L317.579 34.8468C317.048 35.2927 316.25 35.2298 315.797 34.7064C315.345 34.1832 315.409 33.3975 315.94 32.9519L321.117 28.6099H300.394L305.574 32.9515C306.105 33.3971 306.169 34.1827 305.717 34.706C305.467 34.9952 305.112 35.144 304.754 35.144V35.144Z" fill="#A5B9C4"/>
<path fill-rule="evenodd" clip-rule="evenodd" d="M318.017 74.2794C317.338 74.2794 316.776 73.7477 316.755 73.0741L315.535 35.144H305.98L304.941 69.1245C304.92 69.8115 304.338 70.3501 303.64 70.3311C302.942 70.3104 302.393 69.7366 302.415 69.0497L303.491 33.8619C303.511 33.1895 304.071 32.6547 304.754 32.6547H316.759C317.441 32.6547 318 33.1883 318.022 33.86L319.281 72.9953C319.303 73.6823 318.755 74.257 318.058 74.2786C318.044 74.2791 318.031 74.2792 318.017 74.2792V74.2794Z" fill="#A5B9C4"/>
<path fill-rule="evenodd" clip-rule="evenodd" d="M313.797 66.6856C313.566 66.6856 313.343 66.5596 313.232 66.3418C313.076 66.0343 313.202 65.6603 313.514 65.5066L314.936 64.8068C315.248 64.6529 315.628 64.7778 315.784 65.0851C315.94 65.3925 315.813 65.7663 315.501 65.9199L314.08 66.6198C313.989 66.6646 313.892 66.6856 313.797 66.6856Z" fill="#A5B9C4"/>
<path fill-rule="evenodd" clip-rule="evenodd" d="M310.756 62.0185C309.645 62.0185 308.742 61.1288 308.742 60.035C308.742 58.9414 309.645 58.0515 310.756 58.0515C311.867 58.0515 312.77 58.9414 312.77 60.035C312.77 61.1288 311.867 62.0185 310.756 62.0185ZM310.756 59.2961C310.343 59.2961 310.006 59.6276 310.006 60.035C310.006 60.4426 310.343 60.7741 310.756 60.7741C311.17 60.7741 311.506 60.4426 311.506 60.035C311.506 59.6276 311.17 59.2961 310.756 59.2961Z" fill="#A5B9C4"/>
<path fill-rule="evenodd" clip-rule="evenodd" d="M310.756 69.9526C310.407 69.9526 310.124 69.674 310.124 69.3303V61.3962C310.124 61.0524 310.407 60.7741 310.756 60.7741C311.105 60.7741 311.388 61.0524 311.388 61.3962V69.3303C311.388 69.674 311.105 69.9526 310.756 69.9526Z" fill="#A5B9C4"/>
<path fill-rule="evenodd" clip-rule="evenodd" d="M310.756 70.3805C307.947 70.3805 305.662 68.1297 305.662 65.3635C305.662 65.0196 305.945 64.741 306.294 64.741C306.643 64.741 306.926 65.0196 306.926 65.3635C306.926 67.4435 308.644 69.1359 310.756 69.1359C312.869 69.1359 314.587 67.4435 314.587 65.3635C314.587 65.0196 314.87 64.741 315.219 64.741C315.568 64.741 315.851 65.0196 315.851 65.3635C315.851 68.1297 313.565 70.3805 310.756 70.3805V70.3805Z" fill="#A5B9C4"/>
<path fill-rule="evenodd" clip-rule="evenodd" d="M307.715 66.6856C307.62 66.6856 307.524 66.6647 307.433 66.6198L306.011 65.9199C305.699 65.7663 305.573 65.3925 305.729 65.0851C305.885 64.7777 306.264 64.6528 306.576 64.8068L307.998 65.5067C308.31 65.6603 308.437 66.0344 308.281 66.3418C308.17 66.5596 307.947 66.6856 307.715 66.6856V66.6856Z" fill="#A5B9C4"/>
<path fill-rule="evenodd" clip-rule="evenodd" d="M306.501 14.2247C306.369 14.2247 306.236 14.1842 306.123 14.1005C304.636 13.0021 303.849 11.4119 303.847 9.50072C303.843 6.63866 305.66 3.36511 308.367 1.35529C308.579 1.19792 308.869 1.18765 309.092 1.33023C309.315 1.47252 309.423 1.73714 309.364 1.99189C308.981 3.62669 309.589 5.13227 310.235 6.38929C310.392 6.69572 310.267 7.07029 309.956 7.22519C309.644 7.38044 309.265 7.25754 309.107 6.95077C308.323 5.4239 308.037 4.256 307.985 3.33603C306.224 5.0915 305.108 7.42776 305.11 9.4994C305.112 11.0038 305.725 12.2504 306.881 13.1046C307.16 13.311 307.216 13.7009 307.007 13.976C306.883 14.1388 306.693 14.2247 306.501 14.2247V14.2247Z" fill="#A5B9C4"/>
<path fill-rule="evenodd" clip-rule="evenodd" d="M310.901 18.715C310.779 18.715 310.655 18.7121 310.53 18.7065C309.5 18.662 308.533 18.1791 307.735 17.3106C306.762 16.251 306.132 14.6617 306.202 13.4459C306.297 11.8654 307.193 10.2689 308.142 8.57886C309.515 6.13363 310.935 3.60548 310.274 0.76097C310.215 0.506101 310.324 0.241883 310.547 0.0998241C310.77 -0.0422923 311.059 -0.0318582 311.271 0.125972C315.157 3.01843 317.62 7.80353 317.26 11.7621C316.858 16.2011 314.548 18.715 310.901 18.715ZM311.704 2.11945C311.737 4.74751 310.427 7.08056 309.248 9.18116C308.37 10.7443 307.541 12.2209 307.463 13.5179C307.419 14.2842 307.82 15.5474 308.673 16.4757C309.067 16.9053 309.72 17.4256 310.587 17.4631C312.38 17.5443 313.755 16.9416 314.679 15.6726C315.583 14.4297 315.898 12.7998 316.001 11.6513C316.16 9.9015 315.703 7.95017 314.68 6.00792C313.926 4.57603 312.895 3.23384 311.704 2.11945Z" fill="#A5B9C4"/>
<path fill-rule="evenodd" clip-rule="evenodd" d="M313.93 52.8862C313.591 52.8862 313.31 52.6212 313.299 52.2849L312.776 36.9611C312.764 36.6177 313.037 36.3299 313.386 36.3183C313.393 36.3182 313.4 36.318 313.408 36.318C313.747 36.318 314.027 36.583 314.039 36.9192L314.562 52.243C314.573 52.5864 314.301 52.8743 313.952 52.8859C313.944 52.8861 313.937 52.8862 313.93 52.8862Z" fill="#A5B9C4"/>
<path fill-rule="evenodd" clip-rule="evenodd" d="M314.182 56.8314C313.846 56.8314 313.567 56.5711 313.551 56.2373L313.487 54.8592C313.471 54.5159 313.741 54.2249 314.089 54.2089C314.439 54.1933 314.733 54.4588 314.75 54.8022L314.814 56.1804C314.83 56.5236 314.56 56.8148 314.211 56.8306C314.202 56.831 314.192 56.8312 314.182 56.8312V56.8314Z" fill="#A5B9C4"/>
<path fill-rule="evenodd" clip-rule="evenodd" d="M311.379 15.9022C311.03 15.9022 310.747 15.6235 310.747 15.2799C310.747 14.9363 311.03 14.6575 311.379 14.6575C311.7 14.6575 312.109 14.5325 312.218 14.4776C312.499 14.2929 312.881 14.3589 313.081 14.6309C313.285 14.9095 313.222 15.2984 312.939 15.4998C312.671 15.6902 311.965 15.9022 311.379 15.9022V15.9022ZM312.21 14.4828C312.206 14.4857 312.202 14.4885 312.198 14.4909C312.202 14.488 312.207 14.4852 312.21 14.4828Z" fill="#A5B9C4"/>
<path fill-rule="evenodd" clip-rule="evenodd" d="M313.886 14.3075C313.778 14.3075 313.669 14.2805 313.569 14.2233C313.267 14.0508 313.165 13.6699 313.34 13.3726C313.546 13.0237 314.472 9.99223 312.569 6.853C312.39 6.55775 312.488 6.17591 312.787 5.99967C313.087 5.8236 313.475 5.91966 313.654 6.21508C315.73 9.63912 314.951 13.1178 314.433 13.9975C314.316 14.1965 314.104 14.3075 313.886 14.3075Z" fill="#A5B9C4"/>
<path fill-rule="evenodd" clip-rule="evenodd" d="M275.435 129.373H243.196C242.498 129.373 241.933 128.816 241.933 128.129V85.0876C241.933 84.4 242.498 83.843 243.196 83.843H295.348C296.046 83.843 350 84.4 350 85.0876C350 85.7748 296.046 86.3319 295.348 86.3319H244.46V126.885H275.435C276.133 126.885 276.699 127.442 276.699 128.129C276.699 128.816 276.133 129.373 275.435 129.373Z" fill="#A5B9C4"/>
<path fill-rule="evenodd" clip-rule="evenodd" d="M275.436 135.698C274.738 135.698 274.172 135.141 274.172 134.454V118.897C274.172 118.21 274.738 117.652 275.436 117.652H346.059C346.757 117.652 347.322 118.21 347.322 118.897C347.322 119.584 346.757 120.142 346.059 120.142H276.699V134.454C276.699 135.141 276.133 135.698 275.436 135.698V135.698Z" fill="#A5B9C4"/>
<path fill-rule="evenodd" clip-rule="evenodd" d="M346.058 141.921H313.849C313.151 141.921 312.585 141.364 312.585 140.677C312.585 139.989 313.151 139.432 313.849 139.432H346.058C346.756 139.432 347.321 139.989 347.321 140.677C347.321 141.364 346.756 141.921 346.058 141.921Z" fill="#A5B9C4"/>
<path fill-rule="evenodd" clip-rule="evenodd" d="M261.406 141.921H217.828C217.13 141.921 216.564 141.364 216.564 140.677V134.454C216.564 133.767 217.13 133.209 217.828 133.209H345.792C346.489 133.209 347.055 133.767 347.055 134.454C347.055 135.141 346.489 135.699 345.792 135.699H219.092V139.432H261.406C262.104 139.432 262.669 139.989 262.669 140.677C262.669 141.364 262.104 141.921 261.406 141.921Z" fill="#A5B9C4"/>
<path fill-rule="evenodd" clip-rule="evenodd" d="M275.436 135.698H220.988C220.29 135.698 219.725 135.141 219.725 134.454V128.129C219.725 127.442 220.29 126.885 220.988 126.885H275.436C276.133 126.885 276.699 127.442 276.699 128.129V134.454C276.699 135.141 276.133 135.698 275.436 135.698ZM222.252 133.209H274.172V129.373H222.252V133.209Z" fill="#A5B9C4"/>
<path fill-rule="evenodd" clip-rule="evenodd" d="M227.834 128.231C223.945 128.231 220.78 125.115 220.78 121.284C220.78 117.452 223.945 114.334 227.834 114.334C231.724 114.334 234.888 117.452 234.888 121.284C234.888 125.115 231.724 128.231 227.834 128.231ZM227.834 115.579C224.641 115.579 222.044 118.138 222.044 121.284C222.044 124.428 224.641 126.987 227.834 126.987C231.027 126.987 233.624 124.428 233.624 121.284C233.624 118.138 231.027 115.579 227.834 115.579Z" fill="#A5B9C4"/>
<path fill-rule="evenodd" clip-rule="evenodd" d="M229.627 124.857C229.417 124.857 229.211 124.754 229.091 124.566C228.905 124.275 228.994 123.891 229.29 123.708C229.314 123.693 229.338 123.679 229.362 123.665C229.378 123.656 229.393 123.647 229.408 123.637C229.704 123.455 230.094 123.542 230.279 123.833C230.465 124.124 230.376 124.508 230.081 124.691C230.056 124.706 230.033 124.72 230.009 124.734C229.993 124.743 229.978 124.752 229.962 124.762C229.858 124.827 229.742 124.857 229.627 124.857V124.857Z" fill="#A5B9C4"/>
<path fill-rule="evenodd" clip-rule="evenodd" d="M231.102 123.122C231.029 123.122 230.955 123.109 230.882 123.083C230.555 122.963 230.389 122.605 230.51 122.282C230.631 121.962 230.693 121.626 230.693 121.284C230.693 120.155 230.014 119.139 228.963 118.696C228.642 118.561 228.494 118.195 228.631 117.879C228.769 117.563 229.14 117.417 229.461 117.552C230.977 118.192 231.956 119.657 231.956 121.284C231.956 121.775 231.868 122.257 231.695 122.716C231.6 122.967 231.359 123.122 231.102 123.122V123.122Z" fill="#A5B9C4"/>
<path fill-rule="evenodd" clip-rule="evenodd" d="M247.728 110.681C247.379 110.681 247.096 110.403 247.096 110.059V94.3561C247.096 94.0124 247.379 93.734 247.728 93.734C248.077 93.734 248.36 94.0124 248.36 94.3561V110.059C248.36 110.403 248.077 110.681 247.728 110.681Z" fill="#A5B9C4"/>
<path fill-rule="evenodd" clip-rule="evenodd" d="M247.728 113.972C247.379 113.972 247.096 113.694 247.096 113.35V112.883C247.096 112.54 247.379 112.261 247.728 112.261C248.077 112.261 248.36 112.54 248.36 112.883V113.35C248.36 113.694 248.077 113.972 247.728 113.972Z" fill="#A5B9C4"/>
<path fill-rule="evenodd" clip-rule="evenodd" d="M293.63 92.3992H243.196C242.847 92.3992 242.564 92.1205 242.564 91.7771C242.564 91.4333 242.847 91.1548 243.196 91.1548H293.63C293.979 91.1548 294.262 91.4333 294.262 91.7771C294.262 92.1205 293.979 92.3992 293.63 92.3992Z" fill="#A5B9C4"/>
<path fill-rule="evenodd" clip-rule="evenodd" d="M242.421 107.034H122.92C122.619 107.034 122.375 106.794 122.375 106.498C122.375 106.203 122.619 105.963 122.92 105.963H242.421C242.722 105.963 242.966 106.203 242.966 106.498C242.966 106.794 242.722 107.034 242.421 107.034Z" fill="#A5B9C4"/>
<path fill-rule="evenodd" clip-rule="evenodd" d="M242.394 98.5343H233.311C232.962 98.5343 232.679 98.2557 232.679 97.9121V94.4383H230.117C229.768 94.4383 229.485 94.1599 229.485 93.8162V90.0826H222.11V93.6874C222.11 94.0311 221.827 94.3095 221.479 94.3095H216.375C216.026 94.3095 215.743 94.0311 215.743 93.6874V91.7283H210.392V96.5898C210.392 96.9335 210.109 97.2119 209.76 97.2119H194.003C193.654 97.2119 193.371 96.9335 193.371 96.5898V95.4887H189.684V97.9121C189.684 98.2557 189.401 98.5343 189.052 98.5343H185.261C184.912 98.5343 184.629 98.2557 184.629 97.9121V93.2546H176.099V96.5898C176.099 96.9335 175.817 97.2119 175.467 97.2119H167.727C167.379 97.2119 167.096 96.9335 167.096 96.5898V91.6187H163.304V96.3755C163.304 96.7193 163.022 96.9978 162.673 96.9978H157.993C157.644 96.9978 157.361 96.7193 157.361 96.3755V95.2164H151.458V97.9121C151.458 98.2557 151.174 98.5343 150.826 98.5343H142.809C142.46 98.5343 142.177 98.2557 142.177 97.9121V94.3095H136.525C136.176 94.3095 135.893 94.0311 135.893 93.6874V91.7283H131.135V95.5274C131.135 95.8712 130.852 96.1496 130.503 96.1496H123.01C122.661 96.1496 122.378 95.8712 122.378 95.5274C122.378 95.1836 122.661 94.9051 123.01 94.9051H129.871V91.106C129.871 90.7623 130.154 90.4838 130.503 90.4838H136.525C136.874 90.4838 137.157 90.7623 137.157 91.106V93.0651H142.809C143.158 93.0651 143.441 93.3436 143.441 93.6874V97.2896H150.194V94.5941C150.194 94.2502 150.476 93.9718 150.826 93.9718H157.993C158.342 93.9718 158.625 94.2502 158.625 94.5941V95.7534H162.041V90.9965C162.041 90.6527 162.324 90.3741 162.673 90.3741H167.727C168.076 90.3741 168.359 90.6527 168.359 90.9965V95.9675H174.836V92.6322C174.836 92.2887 175.118 92.01 175.467 92.01H185.261C185.61 92.01 185.893 92.2887 185.893 92.6322V97.2896H188.42V94.8662C188.42 94.5226 188.703 94.2439 189.052 94.2439H194.003C194.352 94.2439 194.635 94.5226 194.635 94.8662V95.9675H209.128V91.106C209.128 90.7623 209.411 90.4838 209.76 90.4838H216.375C216.723 90.4838 217.006 90.7623 217.006 91.106V93.0651H220.847V89.4601C220.847 89.1166 221.13 88.838 221.479 88.838H230.117C230.466 88.838 230.749 89.1166 230.749 89.4601V93.194H233.311C233.66 93.194 233.943 93.4725 233.943 93.8162V97.2896H242.394C242.743 97.2896 243.026 97.5683 243.026 97.9121C243.026 98.2557 242.743 98.5343 242.394 98.5343V98.5343Z" fill="#A5B9C4"/>
<path fill-rule="evenodd" clip-rule="evenodd" d="M140.376 104.473C140.027 104.473 139.744 104.194 139.744 103.85V98.3081C139.744 97.9645 140.027 97.6858 140.376 97.6858C140.725 97.6858 141.008 97.9645 141.008 98.3081V103.85C141.008 104.194 140.725 104.473 140.376 104.473Z" fill="#A5B9C4"/>
<path fill-rule="evenodd" clip-rule="evenodd" d="M155.713 102.122C155.364 102.122 155.081 101.843 155.081 101.5V97.8879C155.081 97.5441 155.364 97.2656 155.713 97.2656C156.062 97.2656 156.345 97.5441 156.345 97.8879V101.5C156.345 101.843 156.062 102.122 155.713 102.122Z" fill="#A5B9C4"/>
<path fill-rule="evenodd" clip-rule="evenodd" d="M165.768 105.105C165.419 105.105 165.136 104.826 165.136 104.482V97.2146C165.136 96.8709 165.419 96.5924 165.768 96.5924C166.116 96.5924 166.399 96.8709 166.399 97.2146V104.482C166.399 104.826 166.116 105.105 165.768 105.105Z" fill="#A5B9C4"/>
<path fill-rule="evenodd" clip-rule="evenodd" d="M183.252 102.334C182.903 102.334 182.62 102.055 182.62 101.711V97.4672C182.62 97.1235 182.903 96.8449 183.252 96.8449C183.601 96.8449 183.884 97.1235 183.884 97.4672V101.711C183.884 102.055 183.601 102.334 183.252 102.334Z" fill="#A5B9C4"/>
<path fill-rule="evenodd" clip-rule="evenodd" d="M179.408 105.484C179.058 105.484 178.775 105.205 178.775 104.862V100.578C178.775 100.235 179.058 99.9563 179.408 99.9563C179.756 99.9563 180.039 100.235 180.039 100.578V104.862C180.039 105.205 179.756 105.484 179.408 105.484Z" fill="#A5B9C4"/>
<path fill-rule="evenodd" clip-rule="evenodd" d="M192.054 101.201C191.705 101.201 191.422 100.922 191.422 100.578V98.6C191.422 98.2561 191.705 97.9778 192.054 97.9778C192.403 97.9778 192.686 98.2561 192.686 98.6V100.578C192.686 100.922 192.403 101.201 192.054 101.201Z" fill="#A5B9C4"/>
<path fill-rule="evenodd" clip-rule="evenodd" d="M213.996 104.811C213.647 104.811 213.364 104.532 213.364 104.188V96.5848C213.364 96.2413 213.647 95.9626 213.996 95.9626C214.345 95.9626 214.628 96.2413 214.628 96.5848V104.188C214.628 104.532 214.345 104.811 213.996 104.811Z" fill="#A5B9C4"/>
<path fill-rule="evenodd" clip-rule="evenodd" d="M227.501 101.201C227.152 101.201 226.869 100.922 226.869 100.578V95.5371C226.869 95.1934 227.152 94.915 227.501 94.915C227.85 94.915 228.133 95.1934 228.133 95.5371V100.578C228.133 100.922 227.85 101.201 227.501 101.201V101.201Z" fill="#A5B9C4"/>
<path fill-rule="evenodd" clip-rule="evenodd" d="M230.952 104.64C230.603 104.64 230.32 104.362 230.32 104.018V98.6C230.32 98.2561 230.603 97.9778 230.952 97.9778C231.301 97.9778 231.584 98.2561 231.584 98.6V104.018C231.584 104.362 231.301 104.64 230.952 104.64Z" fill="#A5B9C4"/>
<path fill-rule="evenodd" clip-rule="evenodd" d="M205.55 104.64C205.201 104.64 204.918 104.362 204.918 104.018V100.963C204.918 100.619 205.201 100.34 205.55 100.34C205.898 100.34 206.181 100.619 206.181 100.963V104.018C206.181 104.362 205.898 104.64 205.55 104.64Z" fill="#A5B9C4"/>
<path fill-rule="evenodd" clip-rule="evenodd" d="M221.656 104.098C221.307 104.098 221.024 103.82 221.024 103.476V99.3533C221.024 99.0098 221.307 98.7312 221.656 98.7312C222.005 98.7312 222.288 99.0098 222.288 99.3533V103.476C222.288 103.82 222.005 104.098 221.656 104.098Z" fill="#A5B9C4"/>
<path fill-rule="evenodd" clip-rule="evenodd" d="M173.167 104.232C172.818 104.232 172.535 103.953 172.535 103.61V100.578C172.535 100.235 172.818 99.9563 173.167 99.9563C173.516 99.9563 173.799 100.235 173.799 100.578V103.61C173.799 103.953 173.516 104.232 173.167 104.232Z" fill="#A5B9C4"/>
<path fill-rule="evenodd" clip-rule="evenodd" d="M149.276 104.64C148.928 104.64 148.645 104.362 148.645 104.018V102.093C148.645 101.749 148.928 101.471 149.276 101.471C149.625 101.471 149.908 101.749 149.908 102.093V104.018C149.908 104.362 149.625 104.64 149.276 104.64Z" fill="#A5B9C4"/>
<path fill-rule="evenodd" clip-rule="evenodd" d="M134.428 102.715C134.079 102.715 133.796 102.437 133.796 102.093V96.7112C133.796 96.3673 134.079 96.0889 134.428 96.0889C134.777 96.0889 135.06 96.3673 135.06 96.7112V102.093C135.06 102.437 134.777 102.715 134.428 102.715Z" fill="#A5B9C4"/>
<path fill-rule="evenodd" clip-rule="evenodd" d="M128.292 104.988C127.943 104.988 127.66 104.71 127.66 104.366V100.333C127.66 99.9893 127.943 99.7109 128.292 99.7109C128.641 99.7109 128.924 99.9893 128.924 100.333V104.366C128.924 104.71 128.641 104.988 128.292 104.988V104.988Z" fill="#A5B9C4"/>
<path fill-rule="evenodd" clip-rule="evenodd" d="M195.78 105.484C195.431 105.484 195.148 105.205 195.148 104.862V101.711C195.148 101.368 195.431 101.089 195.78 101.089C196.129 101.089 196.412 101.368 196.412 101.711V104.862C196.412 105.205 196.129 105.484 195.78 105.484V105.484Z" fill="#A5B9C4"/>
<path fill-rule="evenodd" clip-rule="evenodd" d="M119.175 124.018L119.492 87.6041C119.498 86.9063 120.06 86.3453 120.748 86.3513C121.435 86.3573 121.987 86.928 121.981 87.6258L121.664 124.039C121.657 124.737 121.095 125.298 120.408 125.292C119.721 125.286 119.169 124.716 119.175 124.018Z" fill="#A5B9C4"/>
<path fill-rule="evenodd" clip-rule="evenodd" d="M121.822 129.511H83.286C82.9808 129.511 82.7336 128.952 82.7336 128.263C82.7336 127.573 82.9808 127.014 83.286 127.014H121.27V86.3394H33.3755C33.0706 86.3394 32.8232 85.7806 32.8232 85.0914C32.8232 84.4017 33.0706 83.843 33.3755 83.843H121.822C122.127 83.843 122.375 84.4017 122.375 85.0914V128.263C122.375 128.952 122.127 129.511 121.822 129.511Z" fill="#A5B9C4"/>
<path fill-rule="evenodd" clip-rule="evenodd" d="M121.216 122.713H34.2432C33.5456 122.713 32.9795 122.156 32.9795 121.469C32.9795 120.781 33.5456 120.224 34.2432 120.224H121.216C121.914 120.224 122.48 120.781 122.48 121.469C122.48 122.156 121.914 122.713 121.216 122.713V122.713Z" fill="#A5B9C4"/>
<path fill-rule="evenodd" clip-rule="evenodd" d="M121.741 92.4057H33.1001C32.9473 92.4057 32.8232 92.086 32.8232 91.6922C32.8232 91.298 32.9473 90.9786 33.1001 90.9786H121.741C121.894 90.9786 122.018 91.298 122.018 91.6922C122.018 92.086 121.894 92.4057 121.741 92.4057V92.4057Z" fill="#A5B9C4"/>
<path fill-rule="evenodd" clip-rule="evenodd" d="M117 111.094C116.651 111.094 116.368 110.816 116.368 110.472V95.0562C116.368 94.7125 116.651 94.4339 117 94.4339C117.349 94.4339 117.632 94.7125 117.632 95.0562V110.472C117.632 110.816 117.349 111.094 117 111.094Z" fill="#A5B9C4"/>
<path fill-rule="evenodd" clip-rule="evenodd" d="M117 115.727C116.651 115.727 116.368 115.449 116.368 115.105V113.316C116.368 112.972 116.651 112.694 117 112.694C117.349 112.694 117.632 112.972 117.632 113.316V115.105C117.632 115.449 117.349 115.727 117 115.727Z" fill="#A5B9C4"/>
<path fill-rule="evenodd" clip-rule="evenodd" d="M97.8576 117.444C96.5129 117.444 95.4189 116.368 95.4189 115.047C95.4189 113.722 96.5129 112.645 97.8576 112.645C99.2022 112.645 100.296 113.722 100.296 115.047C100.296 116.368 99.2022 117.444 97.8576 117.444ZM97.8576 113.89C97.2097 113.89 96.6827 114.409 96.6827 115.047C96.6827 115.682 97.2097 116.199 97.8576 116.199C98.5055 116.199 99.0326 115.682 99.0326 115.047C99.0326 114.409 98.5055 113.89 97.8576 113.89Z" fill="#A5B9C4"/>
<path fill-rule="evenodd" clip-rule="evenodd" d="M97.8576 114.604C97.5086 114.604 97.2256 114.326 97.2256 113.982V111.935C97.2256 111.592 97.5086 111.313 97.8576 111.313C98.2067 111.313 98.4895 111.592 98.4895 111.935V113.982C98.4895 114.326 98.2067 114.604 97.8576 114.604Z" fill="#A5B9C4"/>
<path fill-rule="evenodd" clip-rule="evenodd" d="M43.9481 117.444C42.6063 117.444 41.5146 116.368 41.5146 115.047C41.5146 113.722 42.6063 112.645 43.9481 112.645C45.2925 112.645 46.3866 113.722 46.3866 115.047C46.3866 116.368 45.2925 117.444 43.9481 117.444ZM43.9481 113.89C43.303 113.89 42.7783 114.409 42.7783 115.047C42.7783 115.682 43.303 116.199 43.9481 116.199C44.5957 116.199 45.1229 115.682 45.1229 115.047C45.1229 114.409 44.5957 113.89 43.9481 113.89Z" fill="#A5B9C4"/>
<path fill-rule="evenodd" clip-rule="evenodd" d="M43.948 114.604C43.5992 114.604 43.3164 114.326 43.3164 113.982V111.935C43.3164 111.592 43.5992 111.313 43.948 111.313C44.2971 111.313 44.58 111.592 44.58 111.935V113.982C44.58 114.326 44.2971 114.604 43.948 114.604Z" fill="#A5B9C4"/>
<path fill-rule="evenodd" clip-rule="evenodd" d="M187.251 135.576H151.331C151.103 135.576 150.917 135.416 150.917 135.219C150.917 135.022 151.103 134.862 151.331 134.862H187.251C187.48 134.862 187.665 135.022 187.665 135.219C187.665 135.416 187.48 135.576 187.251 135.576Z" fill="#A5B9C4"/>
<path fill-rule="evenodd" clip-rule="evenodd" d="M291.592 153.946H236.819C236.47 153.946 236.188 153.667 236.188 153.323C236.188 152.98 236.47 152.701 236.819 152.701H291.592C291.941 152.701 292.224 152.98 292.224 153.323C292.224 153.667 291.941 153.946 291.592 153.946Z" fill="#A5B9C4"/>
<path fill-rule="evenodd" clip-rule="evenodd" d="M177.976 168.756H166.316C166.087 168.756 165.902 168.597 165.902 168.4C165.902 168.203 166.087 168.043 166.316 168.043H177.976C178.205 168.043 178.39 168.203 178.39 168.4C178.39 168.597 178.205 168.756 177.976 168.756V168.756Z" fill="#A5B9C4"/>
<path fill-rule="evenodd" clip-rule="evenodd" d="M213.4 129.567H195.565C195.216 129.567 194.933 129.289 194.933 128.945C194.933 128.601 195.216 128.323 195.565 128.323H213.4C213.749 128.323 214.032 128.601 214.032 128.945C214.032 129.289 213.749 129.567 213.4 129.567Z" fill="#A5B9C4"/>
<path fill-rule="evenodd" clip-rule="evenodd" d="M159.105 116.358H156.187C155.839 116.358 155.556 116.08 155.556 115.736C155.556 115.392 155.839 115.114 156.187 115.114H159.105C159.454 115.114 159.737 115.392 159.737 115.736C159.737 116.08 159.454 116.358 159.105 116.358Z" fill="#A5B9C4"/>
<path fill-rule="evenodd" clip-rule="evenodd" d="M162.195 153.202H159.277C158.929 153.202 158.646 152.923 158.646 152.579C158.646 152.236 158.929 151.957 159.277 151.957H162.195C162.544 151.957 162.827 152.236 162.827 152.579C162.827 152.923 162.544 153.202 162.195 153.202Z" fill="#A5B9C4"/>
<path fill-rule="evenodd" clip-rule="evenodd" d="M168.325 144.139H166.334C166.096 144.139 165.902 143.979 165.902 143.782C165.902 143.585 166.096 143.425 166.334 143.425H168.325C168.563 143.425 168.757 143.585 168.757 143.782C168.757 143.979 168.563 144.139 168.325 144.139Z" fill="#A5B9C4"/>
<path fill-rule="evenodd" clip-rule="evenodd" d="M142.637 130.224H140.645C140.407 130.224 140.214 130.065 140.214 129.867C140.214 129.671 140.407 129.511 140.645 129.511H142.637C142.875 129.511 143.068 129.671 143.068 129.867C143.068 130.065 142.875 130.224 142.637 130.224Z" fill="#A5B9C4"/>
<path fill-rule="evenodd" clip-rule="evenodd" d="M113.025 140.214H111.033C110.795 140.214 110.602 140.054 110.602 139.857C110.602 139.66 110.795 139.501 111.033 139.501H113.025C113.263 139.501 113.456 139.66 113.456 139.857C113.456 140.054 113.263 140.214 113.025 140.214V140.214Z" fill="#A5B9C4"/>
<path fill-rule="evenodd" clip-rule="evenodd" d="M303.419 165.458H300.502C300.153 165.458 299.87 165.179 299.87 164.835C299.87 164.492 300.153 164.213 300.502 164.213H303.419C303.768 164.213 304.051 164.492 304.051 164.835C304.051 165.179 303.768 165.458 303.419 165.458V165.458Z" fill="#A5B9C4"/>
<path fill-rule="evenodd" clip-rule="evenodd" d="M113.025 174.108H111.033C110.795 174.108 110.602 173.948 110.602 173.751C110.602 173.554 110.795 173.395 111.033 173.395H113.025C113.263 173.395 113.456 173.554 113.456 173.751C113.456 173.948 113.263 174.108 113.025 174.108V174.108Z" fill="#A5B9C4"/>
<path fill-rule="evenodd" clip-rule="evenodd" d="M3.54941 139.833H0.631781C0.283002 139.833 0 139.554 0 139.21C0 138.867 0.283002 138.588 0.631781 138.588H3.54941C3.89844 138.588 4.18104 138.867 4.18104 139.21C4.18104 139.554 3.89844 139.833 3.54941 139.833Z" fill="#A5B9C4"/>
<path fill-rule="evenodd" clip-rule="evenodd" d="M164.074 165.902H156.671C156.449 165.902 156.27 165.742 156.27 165.545C156.27 165.348 156.449 165.189 156.671 165.189H164.074C164.295 165.189 164.475 165.348 164.475 165.545C164.475 165.742 164.295 165.902 164.074 165.902Z" fill="#A5B9C4"/>
<path fill-rule="evenodd" clip-rule="evenodd" d="M146.216 143.068H138.493C138.261 143.068 138.073 142.909 138.073 142.712C138.073 142.515 138.261 142.355 138.493 142.355H146.216C146.448 142.355 146.636 142.515 146.636 142.712C146.636 142.909 146.448 143.068 146.216 143.068Z" fill="#A5B9C4"/>
<path fill-rule="evenodd" clip-rule="evenodd" d="M267.315 172.432H255.681C255.332 172.432 255.049 172.153 255.049 171.81C255.049 171.466 255.332 171.187 255.681 171.187H267.315C267.664 171.187 267.947 171.466 267.947 171.81C267.947 172.153 267.664 172.432 267.315 172.432V172.432Z" fill="#A5B9C4"/>
<path fill-rule="evenodd" clip-rule="evenodd" d="M215.996 106.494H214.875C214.526 106.494 214.243 106.216 214.243 105.872C214.243 105.528 214.526 105.25 214.875 105.25H215.996C216.345 105.25 216.628 105.528 216.628 105.872C216.628 106.216 216.345 106.494 215.996 106.494V106.494Z" fill="#A5B9C4"/>
<path fill-rule="evenodd" clip-rule="evenodd" d="M140.871 171.611H121.718C121.49 171.611 121.305 171.451 121.305 171.254C121.305 171.057 121.49 170.897 121.718 170.897H140.871C141.099 170.897 141.284 171.057 141.284 171.254C141.284 171.451 141.099 171.611 140.871 171.611Z" fill="#A5B9C4"/>
<path fill-rule="evenodd" clip-rule="evenodd" d="M68.7729 136.464H39.5058C39.1569 136.464 38.874 136.185 38.874 135.841C38.874 135.498 39.1569 135.219 39.5058 135.219H68.7729C69.1217 135.219 69.4047 135.498 69.4047 135.841C69.4047 136.185 69.1217 136.464 68.7729 136.464V136.464Z" fill="#A5B9C4"/>
<path fill-rule="evenodd" clip-rule="evenodd" d="M63.9107 150.078H26.6319C26.2828 150.078 26 149.8 26 149.456C26 149.112 26.2828 148.834 26.6319 148.834H63.9107C64.2596 148.834 64.5423 149.112 64.5423 149.456C64.5423 149.8 64.2596 150.078 63.9107 150.078Z" fill="#A5B9C4"/>
<path fill-rule="evenodd" clip-rule="evenodd" d="M139.114 160.907H108.515C108.363 160.907 108.222 160.82 108.151 160.681C108.08 160.541 108.089 160.373 108.175 160.243L110.913 156.098C110.989 155.982 111.117 155.912 111.253 155.912H143.37C143.538 155.912 143.69 156.019 143.752 156.181C143.815 156.342 143.775 156.527 143.652 156.647L139.396 160.791C139.32 160.866 139.219 160.907 139.114 160.907ZM109.294 160.057H138.95L142.333 156.763H111.47L109.294 160.057Z" fill="#A5B9C4"/>
<path fill-rule="evenodd" clip-rule="evenodd" d="M131.473 156.626C131.177 156.626 130.938 156.435 130.938 156.201V129.222C130.938 128.987 131.177 128.797 131.473 128.797C131.768 128.797 132.008 128.987 132.008 129.222V156.201C132.008 156.435 131.768 156.626 131.473 156.626Z" fill="#A5B9C4"/>
<path fill-rule="evenodd" clip-rule="evenodd" d="M118.985 156.626C118.69 156.626 118.45 156.435 118.45 156.2V144.921C118.45 144.686 118.69 144.495 118.985 144.495C119.281 144.495 119.521 144.686 119.521 144.921V156.2C119.521 156.435 119.281 156.626 118.985 156.626Z" fill="#A5B9C4"/>
<path fill-rule="evenodd" clip-rule="evenodd" d="M121.449 154.128C121.232 154.129 121.049 153.959 121.031 153.735C120.675 149.282 121.471 144.403 123.273 139.996C124.189 137.754 125.326 135.734 126.654 133.991C128.062 132.142 129.648 130.656 131.368 129.574C131.498 129.493 131.661 129.489 131.793 129.565C131.926 129.641 132.008 129.784 132.008 129.939V153.7C132.008 153.937 131.821 154.128 131.589 154.128C131.509 154.128 131.434 154.105 131.37 154.066C130.634 153.917 125.283 153.859 121.478 154.127C121.468 154.128 121.459 154.128 121.449 154.128V154.128ZM131.169 153.701C131.169 153.702 131.169 153.702 131.169 153.702C131.169 153.702 131.169 153.702 131.169 153.701ZM131.169 130.73C129.779 131.711 128.485 132.982 127.316 134.517C126.034 136.199 124.935 138.154 124.047 140.326C122.353 144.471 121.573 149.041 121.838 153.246C123.573 153.137 125.812 153.077 127.93 153.084C128.939 153.088 129.824 153.106 130.488 153.137C130.774 153.15 130.996 153.165 131.169 153.18V130.73Z" fill="#A5B9C4"/>
<path fill-rule="evenodd" clip-rule="evenodd" d="M124.924 143.068C124.879 143.068 124.834 143.06 124.789 143.044C124.576 142.966 124.464 142.723 124.539 142.501C125.641 139.206 127.236 136.245 129.151 133.939C129.299 133.761 129.556 133.742 129.727 133.896C129.897 134.051 129.915 134.32 129.767 134.498C127.919 136.724 126.378 139.588 125.309 142.782C125.25 142.958 125.093 143.068 124.924 143.068V143.068Z" fill="#A5B9C4"/>
<path fill-rule="evenodd" clip-rule="evenodd" d="M124.177 145.566C124.146 145.566 124.115 145.561 124.084 145.553C123.884 145.495 123.763 145.266 123.815 145.041C123.91 144.625 124.016 144.195 124.14 143.726C124.199 143.503 124.407 143.376 124.605 143.443C124.803 143.509 124.916 143.743 124.858 143.965C124.736 144.424 124.632 144.844 124.54 145.25C124.496 145.44 124.344 145.566 124.177 145.566V145.566Z" fill="#A5B9C4"/>
<path fill-rule="evenodd" clip-rule="evenodd" d="M121.371 151.631C121.15 151.631 120.965 151.454 120.949 151.223C120.933 150.981 121.109 150.772 121.342 150.755C123.139 150.626 125.591 150.553 127.899 150.561C128.917 150.565 129.808 150.583 130.476 150.615C131.621 150.67 131.741 150.737 131.868 150.86C131.957 150.946 132.008 151.067 132.008 151.192C132.008 151.435 131.819 151.631 131.586 151.631C131.505 151.631 131.429 151.608 131.365 151.567C130.623 151.415 125.234 151.355 121.4 151.63C121.39 151.631 121.38 151.631 121.371 151.631V151.631ZM131.163 151.195C131.163 151.195 131.163 151.195 131.163 151.195C131.163 151.195 131.163 151.195 131.163 151.195ZM131.163 151.194V151.195V151.194ZM131.163 151.194C131.163 151.194 131.163 151.194 131.163 151.194C131.163 151.194 131.163 151.194 131.163 151.194ZM131.163 151.192C131.163 151.193 131.163 151.193 131.163 151.193C131.163 151.193 131.163 151.193 131.163 151.192Z" fill="#A5B9C4"/>
<path fill-rule="evenodd" clip-rule="evenodd" d="M114.596 155.199C114.514 155.199 114.433 155.174 114.363 155.126C114.25 155.049 114.18 154.92 114.174 154.78C114.134 153.798 114.319 152.012 114.974 150.213C115.795 147.961 117.151 146.249 118.896 145.262C119.027 145.188 119.186 145.192 119.314 145.27C119.442 145.349 119.521 145.492 119.521 145.646V154.761C119.521 155.003 119.332 155.199 119.099 155.199C118.907 155.199 118.746 155.067 118.694 154.886C118.545 154.819 118.047 154.706 116.98 154.777C116.114 154.833 115.195 154.996 114.744 155.171C114.696 155.19 114.646 155.199 114.596 155.199ZM118.676 146.431C115.851 148.47 115.101 152.324 115.021 154.183C116.028 153.944 117.704 153.757 118.676 153.974V146.431Z" fill="#A5B9C4"/>
<path fill-rule="evenodd" clip-rule="evenodd" d="M119.11 153.772C118.924 153.772 118.767 153.665 118.716 153.519C118.58 153.466 118.148 153.383 117.212 153.422C116.432 153.454 115.584 153.561 115.053 153.695C114.835 153.75 114.607 153.642 114.543 153.454C114.479 153.266 114.604 153.069 114.822 153.014C115.761 152.778 118.474 152.47 119.248 152.97C119.424 153.084 119.521 153.243 119.521 153.417C119.521 153.613 119.337 153.772 119.11 153.772V153.772Z" fill="#A5B9C4"/>
<path fill-rule="evenodd" clip-rule="evenodd" d="M139.789 154.128C139.773 154.128 139.758 154.127 139.742 154.126C135.765 153.681 132.569 153.929 131.434 154.122C131.31 154.144 131.184 154.109 131.088 154.028C130.993 153.947 130.938 153.827 130.938 153.701V130.294C130.938 130.095 131.075 129.922 131.269 129.878C131.462 129.834 131.661 129.931 131.746 130.111C132.428 131.552 132.781 133.681 133.19 136.147C133.625 138.774 134.118 141.751 135.127 144.766C136.292 148.244 137.918 151.071 140.099 153.41C140.221 153.54 140.248 153.733 140.169 153.893C140.096 154.038 139.948 154.128 139.789 154.128ZM131.787 133.144V153.211C132.799 153.087 135.288 152.872 138.749 153.17C136.846 150.908 135.393 148.237 134.322 145.038C133.291 141.959 132.792 138.945 132.351 136.287C132.163 135.151 131.987 134.089 131.787 133.144Z" fill="#A5B9C4"/>
<path fill-rule="evenodd" clip-rule="evenodd" d="M131.367 151.631C131.161 151.631 130.979 151.489 130.944 151.287C130.904 151.063 131.061 150.85 131.296 150.812C131.396 150.795 133.797 150.413 137.668 150.624C137.905 150.637 138.086 150.832 138.072 151.06C138.059 151.287 137.856 151.461 137.619 151.448C133.854 151.242 131.463 151.621 131.44 151.625C131.415 151.629 131.391 151.631 131.367 151.631V151.631Z" fill="#A5B9C4"/>
<path fill-rule="evenodd" clip-rule="evenodd" d="M192.435 145.084H161.998C161.769 145.084 161.558 144.962 161.446 144.765L158.919 140.307C158.81 140.114 158.812 139.879 158.926 139.689C159.039 139.499 159.247 139.382 159.47 139.382H189.167C189.37 139.382 189.561 139.478 189.68 139.64L192.947 144.098C193.086 144.287 193.106 144.537 192.998 144.745C192.89 144.953 192.672 145.084 192.435 145.084ZM162.369 143.839H191.2L188.844 140.626H160.547L162.369 143.839Z" fill="#A5B9C4"/>
<path fill-rule="evenodd" clip-rule="evenodd" d="M175.952 140.626C175.603 140.626 175.32 140.347 175.32 140.004V114.802C175.32 114.458 175.603 114.179 175.952 114.179C176.301 114.179 176.584 114.458 176.584 114.802V140.004C176.584 140.347 176.301 140.626 175.952 140.626Z" fill="#A5B9C4"/>
<path fill-rule="evenodd" clip-rule="evenodd" d="M183.747 137.204C183.704 137.204 183.662 137.2 183.619 137.191C179.705 136.399 176.129 137.18 176.093 137.188C175.905 137.23 175.709 137.186 175.558 137.067C175.408 136.95 175.32 136.77 175.32 136.581V116.046C175.32 115.725 175.569 115.456 175.894 115.426C176.219 115.397 176.514 115.616 176.573 115.932C178.26 124.866 181.731 134.103 184.152 136.104C184.374 136.288 184.441 136.596 184.315 136.852C184.208 137.07 183.985 137.203 183.747 137.204V137.204ZM176.584 121.711V135.834C177.657 135.669 179.734 135.447 182.141 135.706C181.269 134.479 180.172 132.441 178.899 129.057C178.044 126.781 177.257 124.277 176.584 121.711Z" fill="#A5B9C4"/>
<path fill-rule="evenodd" clip-rule="evenodd" d="M164.051 137.204C163.889 137.204 163.731 137.142 163.612 137.029C163.455 136.88 163.387 136.662 163.433 136.452C163.776 134.864 164.985 130.696 167.101 126.282C169.664 120.936 172.534 117.313 175.631 115.511C175.826 115.397 176.068 115.395 176.265 115.505C176.462 115.616 176.584 115.823 176.584 116.046V136.581C176.584 136.804 176.463 137.01 176.267 137.121C176.07 137.232 175.829 137.231 175.634 137.118C173.474 135.876 167.505 136.37 164.205 137.185C164.153 137.198 164.102 137.204 164.051 137.204V137.204ZM175.32 117.207C169.615 121.376 165.971 131.777 164.904 135.758C167.672 135.215 172.502 134.711 175.32 135.632V117.207Z" fill="#A5B9C4"/>
<path fill-rule="evenodd" clip-rule="evenodd" d="M169.353 129.62C169.269 129.62 169.184 129.603 169.102 129.569C168.782 129.433 168.634 129.066 168.773 128.751C170.159 125.589 171.685 122.905 173.31 120.772C173.519 120.498 173.916 120.442 174.195 120.648C174.474 120.855 174.53 121.245 174.321 121.519C172.756 123.573 171.279 126.172 169.933 129.244C169.83 129.479 169.597 129.62 169.353 129.62V129.62Z" fill="#A5B9C4"/>
<path fill-rule="evenodd" clip-rule="evenodd" d="M167.803 133.563C167.735 133.563 167.666 133.552 167.598 133.529C167.268 133.417 167.092 133.063 167.205 132.738C167.403 132.169 167.615 131.595 167.835 131.032C167.96 130.711 168.326 130.551 168.652 130.675C168.978 130.798 169.14 131.158 169.014 131.479C168.8 132.028 168.594 132.587 168.4 133.142C168.311 133.4 168.065 133.563 167.803 133.563V133.563Z" fill="#A5B9C4"/>
<path fill-rule="evenodd" clip-rule="evenodd" d="M142.296 158.053H110.303C110.074 158.053 109.888 157.893 109.888 157.696C109.888 157.499 110.074 157.339 110.303 157.339H142.296C142.526 157.339 142.711 157.499 142.711 157.696C142.711 157.893 142.526 158.053 142.296 158.053V158.053Z" fill="#A5B9C4"/>
<path fill-rule="evenodd" clip-rule="evenodd" d="M190.801 142.853H160.733C160.384 142.853 160.102 142.574 160.102 142.23C160.102 141.887 160.384 141.608 160.733 141.608H190.801C191.15 141.608 191.433 141.887 191.433 142.23C191.433 142.574 191.15 142.853 190.801 142.853V142.853Z" fill="#A5B9C4"/>
</svg>
