<svg width="388" height="120" viewBox="0 0 388 120" fill="none" xmlns="http://www.w3.org/2000/svg">
<path d="M194.854 94.6464C185.153 94.6464 179.216 89.1485 176.306 86.2173V119.679H166.482V39.4479H175.336L176.06 48.2416C182.003 39.4479 189.279 38.1061 194.854 38.1061C211.462 38.1061 220.678 51.7853 220.678 66.4347C220.678 81.0841 211.223 94.6464 194.854 94.6464ZM193.761 47.1407C182.967 47.1407 176.299 56.5469 176.299 66.9232V74.4922C177.146 75.9579 183.575 85.6049 193.761 85.6049C204.186 85.6049 210.615 77.6643 210.615 66.4347C210.615 55.3221 204.193 47.1407 193.761 47.1407Z" fill="#DBD9D5"/>
<path d="M274.027 57.5171V93.2977H265.542L264.695 86.2173C260.691 92.0798 254.386 94.6464 248.087 94.6464C234.266 94.6464 229.17 87.8067 229.17 77.4304C229.17 68.0242 237.054 60.4552 250.997 60.4552C257.542 60.4552 263.362 62.4094 264.216 62.6502V58.0056C264.216 50.8013 256.818 46.893 250.396 46.893C244.09 46.893 239.486 48.5994 235.728 50.6775V41.402C240.579 39.324 245.429 38.1061 250.642 38.1061C263.718 38.0992 274.027 45.4273 274.027 57.5171ZM264.203 70.0953C262.508 69.6068 257.535 68.0173 251.106 68.0173C242.983 68.0173 238.98 71.1894 238.98 77.1758C238.98 82.9144 242.013 85.8457 249.528 85.8457C258.136 85.8457 264.196 79.6185 264.196 72.1665V70.0953H264.203Z" fill="#DBD9D5"/>
<path d="M298.641 0V55.4462C298.641 57.7651 298.518 61.9211 298.156 64.24H298.764C299.734 62.8982 301.189 60.3316 303.252 58.1366L320.229 39.455H332.232C324.834 48.0011 317.196 56.4302 309.804 64.9762L333.086 93.3049H320.837L303.375 71.4443L298.648 76.6944V93.3049H288.824V0H298.641Z" fill="#DBD9D5"/>
<path d="M360.96 38.0996C376.721 38.0996 388 50.8017 388 66.4282C388 81.8139 376.721 94.6399 360.96 94.6399C345.199 94.6399 333.92 81.8139 333.92 66.6759C333.92 49.9485 345.924 38.0996 360.96 38.0996ZM360.96 85.6053C370.415 85.6053 377.937 77.6647 377.937 66.3113C377.937 54.8339 369.691 47.1411 360.96 47.1411C351.867 47.1411 343.983 54.9578 343.983 66.559C343.983 77.0592 351.259 85.6053 360.96 85.6053Z" fill="#DBD9D5"/>
<path d="M98.9981 43.4735L87.4321 51.0768L87.4047 51.0424L85.485 52.3016C81.4748 54.937 76.679 55.8453 71.9924 54.8545C67.3059 53.8636 63.282 51.0906 60.6586 47.0515L30.1551 0L24.4711 3.73632L47.5554 39.338L17.1817 11.9383L13.8957 18.1587L39.6102 41.3541L11.2313 28.4112L10.8146 35.7256L45.5128 51.5516L11.6344 44.6845L13.2672 51.992L46.2711 58.6802L16.2868 60.3454L19.6685 67.0061L51.4973 65.2446L24.3687 74.1141L29.062 79.7702L58.4042 70.1782L0 108.587L3.70961 114.312L70.8789 70.1369L24.0066 114.704L28.6658 119.679L103.186 48.8268L100.856 46.3428L98.9981 43.4735Z" fill="#DBD9D5"/>
<path d="M110.277 35.464C107.852 34.9479 105.475 36.5167 104.962 38.9594C104.45 41.4022 106.007 43.7967 108.433 44.3128C110.858 44.8288 113.235 43.26 113.748 40.8173C114.26 38.3677 112.702 35.9731 110.277 35.464Z" fill="#DBD9D5"/>
<path d="M121.365 29.7945C120.716 29.7189 120.047 29.6844 119.391 29.6844C118.749 29.9253 118.113 30.2074 117.492 30.5377C116.972 30.8129 116.467 31.1226 115.982 31.4528L119.384 36.5034C119.384 36.5034 119.391 36.4965 119.398 36.4965V36.5172C119.808 36.5172 120.217 36.5378 120.62 36.586C126.168 37.2053 130.349 41.9187 130.349 47.5472C130.349 53.6299 125.437 58.5773 119.398 58.5773V65.4169C129.181 65.4169 137.14 57.4007 137.14 47.5472C137.133 38.4301 130.349 30.7992 121.365 29.7945Z" fill="#DBD9D5"/>
</svg>
