<svg width="300" height="92" viewBox="0 0 300 92" fill="none" xmlns="http://www.w3.org/2000/svg">
<path d="M45.6297 0H275.556V72.2963L8.29639 85.9259L45.6297 0Z" fill="#FDB301"/>
<path d="M0.779962 91.3113L37.6612 6.42578H266.759V77.7469L0.779962 91.3113Z" stroke="black"/>
<path d="M79.0649 59.074V22.574H84.5649V59.074H79.0649ZM92.9321 28.074V22.574H98.4321V28.074H92.9321ZM92.9321 59.074V33.074H98.4321V59.074H92.9321ZM120.446 59.574C118.679 59.574 117.046 59.2573 115.546 58.624C114.046 57.9906 112.812 57.1073 111.846 55.974H111.746L111.696 59.074H106.546V22.574H111.946V36.174H112.046C112.979 35.0073 114.179 34.124 115.646 33.524C117.112 32.8906 118.712 32.574 120.446 32.574C123.912 32.574 126.629 33.774 128.596 36.174C130.562 38.5406 131.546 41.8406 131.546 46.074C131.546 50.3073 130.562 53.624 128.596 56.024C126.629 58.3906 123.912 59.574 120.446 59.574ZM119.196 55.074C121.462 55.074 123.196 54.2906 124.396 52.724C125.629 51.1573 126.246 48.9406 126.246 46.074C126.246 43.2073 125.629 40.9906 124.396 39.424C123.196 37.8573 121.462 37.074 119.196 37.074C117.829 37.074 116.596 37.3573 115.496 37.924C114.396 38.4906 113.529 39.274 112.896 40.274C112.262 41.2406 111.946 42.3573 111.946 43.624V48.524C111.946 49.7573 112.262 50.874 112.896 51.874C113.529 52.874 114.396 53.6573 115.496 54.224C116.596 54.7906 117.829 55.074 119.196 55.074ZM147.156 59.574C143.456 59.574 140.606 58.774 138.606 57.174C136.64 55.574 135.656 53.2906 135.656 50.324C135.656 48.724 135.99 47.2906 136.656 46.024C137.356 44.7573 138.506 43.4906 140.106 42.224C141.74 40.9573 143.956 39.574 146.756 38.074C149.023 36.874 150.773 35.8573 152.006 35.024C153.24 34.1573 154.09 33.374 154.556 32.674C155.056 31.9406 155.306 31.1573 155.306 30.324C155.306 28.9573 154.79 27.924 153.756 27.224C152.756 26.524 151.273 26.174 149.306 26.174C147.373 26.174 145.873 26.5406 144.806 27.274C143.74 27.974 143.206 28.9906 143.206 30.324C143.206 31.024 143.39 31.7406 143.756 32.474C144.123 33.174 144.773 33.974 145.706 34.874C146.64 35.774 147.923 36.8906 149.556 38.224L162.856 48.924L160.306 52.774L144.206 39.724C142.673 38.4573 141.44 37.3073 140.506 36.274C139.606 35.2406 138.956 34.2406 138.556 33.274C138.156 32.274 137.956 31.2406 137.956 30.174C137.956 27.6073 138.94 25.624 140.906 24.224C142.906 22.7906 145.673 22.074 149.206 22.074C152.773 22.074 155.556 22.7906 157.556 24.224C159.556 25.624 160.556 27.6073 160.556 30.174C160.556 31.574 160.19 32.8906 159.456 34.124C158.756 35.3573 157.59 36.5906 155.956 37.824C154.356 39.0573 152.206 40.374 149.506 41.774C147.473 42.8406 145.856 43.8073 144.656 44.674C143.456 45.5406 142.59 46.3906 142.056 47.224C141.556 48.0573 141.306 48.9573 141.306 49.924C141.306 51.5573 141.94 52.824 143.206 53.724C144.506 54.624 146.323 55.074 148.656 55.074C151.023 55.074 153.206 54.5906 155.206 53.624C157.206 52.6573 159.073 51.1573 160.806 49.124V38.824H165.806V59.074H160.856L160.806 55.174H160.706C159.04 56.574 157.023 57.6573 154.656 58.424C152.29 59.1906 149.79 59.574 147.156 59.574ZM173.303 59.074V22.574H178.803V59.074H173.303ZM193.017 59.574C190.417 59.574 188.367 58.874 186.867 57.474C185.367 56.0406 184.617 54.1073 184.617 51.674C184.617 48.6406 185.817 46.3073 188.217 44.674C190.617 43.0073 194.034 42.174 198.467 42.174H202.217C202.217 40.8406 202.05 39.8073 201.717 39.074C201.384 38.3406 200.8 37.824 199.967 37.524C199.167 37.224 198.05 37.074 196.617 37.074C194.917 37.074 193.184 37.2406 191.417 37.574C189.684 37.9073 188.034 38.4073 186.467 39.074L185.717 34.624C187.384 33.9906 189.217 33.4906 191.217 33.124C193.25 32.7573 195.284 32.574 197.317 32.574C199.917 32.574 201.95 32.8906 203.417 33.524C204.917 34.1573 205.984 35.224 206.617 36.724C207.284 38.224 207.617 40.2073 207.617 42.674V59.074H202.467L202.417 56.074H202.317C201.417 57.1073 200.084 57.9573 198.317 58.624C196.584 59.2573 194.817 59.574 193.017 59.574ZM194.917 55.174C196.25 55.174 197.467 54.924 198.567 54.424C199.7 53.924 200.584 53.2573 201.217 52.424C201.884 51.5906 202.217 50.6573 202.217 49.624V46.274H199.217C196.15 46.274 193.85 46.674 192.317 47.474C190.784 48.274 190.017 49.4906 190.017 51.124C190.017 52.3906 190.434 53.3906 191.267 54.124C192.134 54.824 193.35 55.174 194.917 55.174ZM228.454 59.574C226.687 59.574 225.054 59.2573 223.554 58.624C222.054 57.9906 220.82 57.1073 219.854 55.974H219.754L219.704 59.074H214.554V22.574H219.954V36.174H220.054C220.987 35.0073 222.187 34.124 223.654 33.524C225.12 32.8906 226.72 32.574 228.454 32.574C231.92 32.574 234.637 33.774 236.604 36.174C238.57 38.5406 239.554 41.8406 239.554 46.074C239.554 50.3073 238.57 53.624 236.604 56.024C234.637 58.3906 231.92 59.574 228.454 59.574ZM227.204 55.074C229.47 55.074 231.204 54.2906 232.404 52.724C233.637 51.1573 234.254 48.9406 234.254 46.074C234.254 43.2073 233.637 40.9906 232.404 39.424C231.204 37.8573 229.47 37.074 227.204 37.074C225.837 37.074 224.604 37.3573 223.504 37.924C222.404 38.4906 221.537 39.274 220.904 40.274C220.27 41.2406 219.954 42.3573 219.954 43.624V48.524C219.954 49.7573 220.27 50.874 220.904 51.874C221.537 52.874 222.404 53.6573 223.504 54.224C224.604 54.7906 225.837 55.074 227.204 55.074Z" fill="#505D79"/>
<path d="M79.0649 59.074H78.0649V60.074H79.0649V59.074ZM79.0649 22.574V21.574H78.0649V22.574H79.0649ZM84.5649 22.574H85.5649V21.574H84.5649V22.574ZM84.5649 59.074V60.074H85.5649V59.074H84.5649ZM80.0649 59.074V22.574H78.0649V59.074H80.0649ZM79.0649 23.574H84.5649V21.574H79.0649V23.574ZM83.5649 22.574V59.074H85.5649V22.574H83.5649ZM84.5649 58.074H79.0649V60.074H84.5649V58.074ZM92.9321 28.074H91.9321V29.074H92.9321V28.074ZM92.9321 22.574V21.574H91.9321V22.574H92.9321ZM98.4321 22.574H99.4321V21.574H98.4321V22.574ZM98.4321 28.074V29.074H99.4321V28.074H98.4321ZM92.9321 59.074H91.9321V60.074H92.9321V59.074ZM92.9321 33.074V32.074H91.9321V33.074H92.9321ZM98.4321 33.074H99.4321V32.074H98.4321V33.074ZM98.4321 59.074V60.074H99.4321V59.074H98.4321ZM93.9321 28.074V22.574H91.9321V28.074H93.9321ZM92.9321 23.574H98.4321V21.574H92.9321V23.574ZM97.4321 22.574V28.074H99.4321V22.574H97.4321ZM98.4321 27.074H92.9321V29.074H98.4321V27.074ZM93.9321 59.074V33.074H91.9321V59.074H93.9321ZM92.9321 34.074H98.4321V32.074H92.9321V34.074ZM97.4321 33.074V59.074H99.4321V33.074H97.4321ZM98.4321 58.074H92.9321V60.074H98.4321V58.074ZM115.546 58.624L115.157 59.5452L115.157 59.5452L115.546 58.624ZM111.846 55.974L112.607 55.325L112.307 54.974H111.846V55.974ZM111.746 55.974V54.974H110.762L110.746 55.9578L111.746 55.974ZM111.696 59.074V60.074H112.68L112.696 59.0901L111.696 59.074ZM106.546 59.074H105.546V60.074H106.546V59.074ZM106.546 22.574V21.574H105.546V22.574H106.546ZM111.946 22.574H112.946V21.574H111.946V22.574ZM111.946 36.174H110.946V37.174H111.946V36.174ZM112.046 36.174V37.174H112.526L112.827 36.7987L112.046 36.174ZM115.646 33.524L116.024 34.4495L116.033 34.4459L116.042 34.442L115.646 33.524ZM128.596 36.174L127.822 36.8078L127.827 36.8131L128.596 36.174ZM128.596 56.024L129.365 56.6631L129.369 56.6578L128.596 56.024ZM124.396 52.724L123.61 52.1054L123.602 52.1159L124.396 52.724ZM124.396 39.424L123.602 40.0321L123.61 40.0425L124.396 39.424ZM115.496 37.924L115.954 38.8129L115.954 38.8129L115.496 37.924ZM112.896 40.274L113.732 40.822L113.736 40.8155L113.741 40.809L112.896 40.274ZM112.896 51.874L113.741 51.3389L113.741 51.3389L112.896 51.874ZM115.496 54.224L115.954 53.335L115.496 54.224ZM120.446 58.574C118.801 58.574 117.302 58.2798 115.935 57.7027L115.157 59.5452C116.79 60.2348 118.557 60.574 120.446 60.574V58.574ZM115.935 57.7027C114.565 57.1242 113.463 56.3291 112.607 55.325L111.085 56.6229C112.162 57.8855 113.527 58.8571 115.157 59.5452L115.935 57.7027ZM111.846 54.974H111.746V56.974H111.846V54.974ZM110.746 55.9578L110.696 59.0578L112.696 59.0901L112.746 55.9901L110.746 55.9578ZM111.696 58.074H106.546V60.074H111.696V58.074ZM107.546 59.074V22.574H105.546V59.074H107.546ZM106.546 23.574H111.946V21.574H106.546V23.574ZM110.946 22.574V36.174H112.946V22.574H110.946ZM111.946 37.174H112.046V35.174H111.946V37.174ZM112.827 36.7987C113.647 35.773 114.705 34.9891 116.024 34.4495L115.267 32.5984C113.653 33.2588 112.311 34.2416 111.265 35.5493L112.827 36.7987ZM116.042 34.442C117.373 33.8672 118.837 33.574 120.446 33.574V31.574C118.588 31.574 116.852 31.9141 115.249 32.6059L116.042 34.442ZM120.446 33.574C123.653 33.574 126.069 34.6687 127.822 36.8078L129.369 35.5402C127.189 32.8793 124.172 31.574 120.446 31.574V33.574ZM127.827 36.8131C129.597 38.9429 130.546 41.9868 130.546 46.074H132.546C132.546 41.6944 131.528 38.1384 129.365 35.5349L127.827 36.8131ZM130.546 46.074C130.546 50.1601 129.597 53.2245 127.822 55.3902L129.369 56.6578C131.528 54.0235 132.546 50.4546 132.546 46.074H130.546ZM127.827 55.3849C126.076 57.4922 123.658 58.574 120.446 58.574V60.574C124.167 60.574 127.183 59.2891 129.365 56.6631L127.827 55.3849ZM119.196 56.074C121.721 56.074 123.771 55.1847 125.19 53.3321L123.602 52.1159C122.621 53.3966 121.204 54.074 119.196 54.074V56.074ZM125.182 53.3425C126.603 51.5369 127.246 49.0696 127.246 46.074H125.246C125.246 48.8117 124.655 50.7777 123.61 52.1054L125.182 53.3425ZM127.246 46.074C127.246 43.0784 126.603 40.611 125.182 38.8054L123.61 40.0425C124.655 41.3702 125.246 43.3362 125.246 46.074H127.246ZM125.19 38.8159C123.771 36.9633 121.721 36.074 119.196 36.074V38.074C121.204 38.074 122.621 38.7513 123.602 40.0321L125.19 38.8159ZM119.196 36.074C117.687 36.074 116.294 36.388 115.038 37.035L115.954 38.8129C116.898 38.3266 117.972 38.074 119.196 38.074V36.074ZM115.038 37.035C113.787 37.6793 112.784 38.5817 112.051 39.7389L113.741 40.809C114.274 39.9663 115.004 39.302 115.954 38.8129L115.038 37.035ZM112.059 39.7259C111.309 40.871 110.946 42.1821 110.946 43.624H112.946C112.946 42.5325 113.216 41.6103 113.732 40.822L112.059 39.7259ZM110.946 43.624V48.524H112.946V43.624H110.946ZM110.946 48.524C110.946 49.9384 111.312 51.2421 112.051 52.409L113.741 51.3389C113.213 50.5059 112.946 49.5762 112.946 48.524H110.946ZM112.051 52.409C112.784 53.5663 113.787 54.4687 115.038 55.1129L115.954 53.335C115.004 52.8459 114.274 52.1817 113.741 51.3389L112.051 52.409ZM115.038 55.1129C116.294 55.76 117.687 56.074 119.196 56.074V54.074C117.972 54.074 116.898 53.8213 115.954 53.335L115.038 55.1129ZM138.606 57.174L137.975 57.9497L137.982 57.9548L138.606 57.174ZM136.656 46.024L135.781 45.5403L135.776 45.5492L135.771 45.5582L136.656 46.024ZM140.106 42.224L139.493 41.4337L139.486 41.4399L140.106 42.224ZM146.756 38.074L146.288 37.1902L146.284 37.1925L146.756 38.074ZM152.006 35.024L152.566 35.8526L152.574 35.8474L152.581 35.8422L152.006 35.024ZM154.556 32.674L153.73 32.1106L153.724 32.1193L154.556 32.674ZM153.756 27.224L153.183 28.0432L153.189 28.0476L153.196 28.0519L153.756 27.224ZM144.806 27.274L145.355 28.11L145.364 28.1041L145.373 28.098L144.806 27.274ZM143.756 32.474L142.862 32.9212L142.866 32.9296L142.871 32.938L143.756 32.474ZM145.706 34.874L146.4 34.1541L146.4 34.1541L145.706 34.874ZM149.556 38.224L148.924 38.9987L148.93 39.0031L149.556 38.224ZM162.856 48.924L163.69 49.4762L164.193 48.7162L163.483 48.1448L162.856 48.924ZM160.306 52.774L159.677 53.5508L160.532 54.2442L161.14 53.3262L160.306 52.774ZM144.206 39.724L143.569 40.495L143.577 40.5008L144.206 39.724ZM140.506 36.274L139.752 36.9308L139.758 36.9376L139.764 36.9443L140.506 36.274ZM138.556 33.274L137.628 33.6454L137.632 33.6563L138.556 33.274ZM140.906 24.224L141.486 25.0386L141.489 25.0368L140.906 24.224ZM157.556 24.224L156.974 25.0368L156.983 25.0432L157.556 24.224ZM159.456 34.124L158.597 33.6129L158.592 33.6216L158.587 33.6304L159.456 34.124ZM155.956 37.824L155.354 37.0259L155.346 37.032L155.956 37.824ZM149.506 41.774L149.046 40.8862L149.042 40.8884L149.506 41.774ZM142.056 47.224L141.214 46.6849L141.206 46.6971L141.199 46.7095L142.056 47.224ZM143.206 53.724L142.627 54.5392L142.637 54.5462L143.206 53.724ZM155.206 53.624L155.642 54.5243L155.642 54.5243L155.206 53.624ZM160.806 49.124L161.567 49.7727L161.806 49.4924V49.124H160.806ZM160.806 38.824V37.824H159.806V38.824H160.806ZM165.806 38.824H166.806V37.824H165.806V38.824ZM165.806 59.074V60.074H166.806V59.074H165.806ZM160.856 59.074L159.856 59.0868L159.869 60.074H160.856V59.074ZM160.806 55.174L161.806 55.1612L161.794 54.174H160.806V55.174ZM160.706 55.174V54.174H160.342L160.063 54.4083L160.706 55.174ZM154.656 58.424L154.348 57.4726L154.348 57.4726L154.656 58.424ZM147.156 58.574C143.585 58.574 140.99 57.8002 139.231 56.3931L137.982 57.9548C140.223 59.7478 143.327 60.574 147.156 60.574V58.574ZM139.237 56.3983C137.545 55.0215 136.656 53.0469 136.656 50.324H134.656C134.656 53.5344 135.734 56.1264 137.975 57.9497L139.237 56.3983ZM136.656 50.324C136.656 48.8669 136.959 47.5965 137.541 46.4897L135.771 45.5582C135.021 46.9847 134.656 48.5811 134.656 50.324H136.656ZM137.532 46.5077C138.147 45.3942 139.191 44.2237 140.727 43.008L139.486 41.4399C137.821 42.7576 136.566 44.1204 135.781 45.5403L137.532 46.5077ZM140.719 43.0142C142.291 41.7949 144.455 40.4415 147.229 38.9555L146.284 37.1925C143.458 38.7065 141.188 40.1197 139.494 41.4338L140.719 43.0142ZM147.224 38.9578C149.503 37.7511 151.29 36.7152 152.566 35.8526L151.446 34.1954C150.256 34.9994 148.543 35.9968 146.288 37.1902L147.224 38.9578ZM152.581 35.8422C153.849 34.9516 154.819 34.083 155.388 33.2287L153.724 32.1193C153.361 32.6649 152.631 33.3631 151.431 34.2058L152.581 35.8422ZM155.383 33.2373C155.988 32.3493 156.306 31.3716 156.306 30.324H154.306C154.306 30.943 154.125 31.532 153.73 32.1106L155.383 33.2373ZM156.306 30.324C156.306 28.6627 155.655 27.302 154.317 26.3961L153.196 28.0519C153.925 28.546 154.306 29.2519 154.306 30.324H156.306ZM154.33 26.4047C153.087 25.535 151.363 25.174 149.306 25.174V27.174C151.183 27.174 152.425 27.513 153.183 28.0432L154.33 26.4047ZM149.306 25.174C147.265 25.174 145.537 25.5583 144.24 26.4499L145.373 28.098C146.209 27.523 147.481 27.174 149.306 27.174V25.174ZM144.258 26.4379C142.894 27.3326 142.206 28.6719 142.206 30.324H144.206C144.206 29.3093 144.585 28.6154 145.355 28.11L144.258 26.4379ZM142.206 30.324C142.206 31.2037 142.438 32.0727 142.862 32.9212L144.651 32.0268C144.342 31.4086 144.206 30.8442 144.206 30.324H142.206ZM142.871 32.938C143.309 33.7743 144.044 34.6606 145.012 35.5938L146.4 34.1541C145.502 33.2873 144.937 32.5737 144.642 32.01L142.871 32.938ZM145.012 35.5938C145.974 36.521 147.281 37.6572 148.924 38.9986L150.189 37.4493C148.565 36.1241 147.306 35.027 146.4 34.1541L145.012 35.5938ZM148.93 39.0031L162.23 49.7031L163.483 48.1448L150.183 37.4448L148.93 39.0031ZM162.023 48.3718L159.473 52.2218L161.14 53.3262L163.69 49.4762L162.023 48.3718ZM160.936 51.9971L144.836 38.9471L143.577 40.5008L159.677 53.5508L160.936 51.9971ZM144.843 38.953C143.333 37.7054 142.139 36.5893 141.248 35.6037L139.764 36.9443C140.741 38.0253 142.013 39.2092 143.569 40.4949L144.843 38.953ZM141.26 35.6172C140.411 34.6417 139.828 33.7327 139.48 32.8916L137.632 33.6563C138.084 34.7486 138.802 35.8396 139.752 36.9308L141.26 35.6172ZM139.485 32.9026C139.132 32.0195 138.956 31.1122 138.956 30.174H136.956C136.956 31.3691 137.181 32.5284 137.628 33.6454L139.485 32.9026ZM138.956 30.174C138.956 27.9068 139.802 26.2375 141.486 25.0386L140.326 23.4093C138.077 25.0105 136.956 27.3078 136.956 30.174H138.956ZM141.489 25.0368C143.26 23.7678 145.794 23.074 149.206 23.074V21.074C145.552 21.074 142.553 21.8134 140.324 23.4112L141.489 25.0368ZM149.206 23.074C152.654 23.074 155.205 23.7688 156.974 25.0368L158.139 23.4112C155.908 21.8125 152.892 21.074 149.206 21.074V23.074ZM156.983 25.0432C158.7 26.245 159.556 27.9138 159.556 30.174H161.556C161.556 27.3008 160.413 25.003 158.13 23.4047L156.983 25.0432ZM159.556 30.174C159.556 31.3894 159.241 32.5301 158.597 33.6129L160.316 34.635C161.139 33.2511 161.556 31.7585 161.556 30.174H159.556ZM158.587 33.6304C157.977 34.7047 156.923 35.8413 155.354 37.0259L156.559 38.622C158.257 37.34 159.536 36.0099 160.326 34.6176L158.587 33.6304ZM155.346 37.032C153.81 38.2157 151.717 39.5014 149.046 40.8862L149.967 42.6617C152.696 41.2466 154.903 39.8989 156.567 38.616L155.346 37.032ZM149.042 40.8884C146.987 41.9665 145.324 42.9581 144.071 43.8633L145.242 45.4847C146.388 44.6565 147.959 43.7147 149.971 42.6595L149.042 40.8884ZM144.071 43.8633C142.815 44.7705 141.84 45.7068 141.214 46.6849L142.899 47.763C143.339 47.0745 144.098 46.3107 145.242 45.4847L144.071 43.8633ZM141.199 46.7095C140.606 47.6974 140.306 48.775 140.306 49.924H142.306C142.306 49.1396 142.507 48.4173 142.914 47.7385L141.199 46.7095ZM140.306 49.924C140.306 51.8616 141.081 53.4405 142.627 54.5392L143.786 52.9088C142.798 52.2074 142.306 51.253 142.306 49.924H140.306ZM142.637 54.5462C144.167 55.605 146.211 56.074 148.656 56.074V54.074C146.435 54.074 144.846 53.6429 143.776 52.9018L142.637 54.5462ZM148.656 56.074C151.164 56.074 153.497 55.5608 155.642 54.5243L154.771 52.7236C152.916 53.6205 150.882 54.074 148.656 54.074V56.074ZM155.642 54.5243C157.789 53.4863 159.762 51.8906 161.567 49.7727L160.045 48.4752C158.384 50.424 156.624 51.8283 154.771 52.7236L155.642 54.5243ZM161.806 49.124V38.824H159.806V49.124H161.806ZM160.806 39.824H165.806V37.824H160.806V39.824ZM164.806 38.824V59.074H166.806V38.824H164.806ZM165.806 58.074H160.856V60.074H165.806V58.074ZM161.856 59.0612L161.806 55.1612L159.806 55.1868L159.856 59.0868L161.856 59.0612ZM160.806 54.174H160.706V56.174H160.806V54.174ZM160.063 54.4083C158.508 55.7144 156.61 56.7401 154.348 57.4726L154.965 59.3753C157.436 58.5746 159.571 57.4336 161.35 55.9397L160.063 54.4083ZM154.348 57.4726C152.087 58.2052 149.691 58.574 147.156 58.574V60.574C149.888 60.574 152.493 60.1761 154.965 59.3753L154.348 57.4726ZM173.303 59.074H172.303V60.074H173.303V59.074ZM173.303 22.574V21.574H172.303V22.574H173.303ZM178.803 22.574H179.803V21.574H178.803V22.574ZM178.803 59.074V60.074H179.803V59.074H178.803ZM174.303 59.074V22.574H172.303V59.074H174.303ZM173.303 23.574H178.803V21.574H173.303V23.574ZM177.803 22.574V59.074H179.803V22.574H177.803ZM178.803 58.074H173.303V60.074H178.803V58.074ZM186.867 57.474L186.176 58.197L186.185 58.205L186.867 57.474ZM188.217 44.674L188.78 45.5007L188.787 45.4953L188.217 44.674ZM202.217 42.174V43.174H203.217V42.174H202.217ZM201.717 39.074L202.627 38.6602L202.627 38.6602L201.717 39.074ZM199.967 37.524L199.616 38.4604L199.628 38.4649L199.967 37.524ZM191.417 37.574L191.231 36.5913L191.228 36.592L191.417 37.574ZM186.467 39.074L185.481 39.2402L185.692 40.4907L186.858 39.9941L186.467 39.074ZM185.717 34.624L185.362 33.6892L184.594 33.9808L184.731 34.7902L185.717 34.624ZM191.217 33.124L191.039 32.1398L191.037 32.1404L191.217 33.124ZM203.417 33.524L203.02 34.4421L203.028 34.4452L203.417 33.524ZM206.617 36.724L205.696 37.1129L205.699 37.1216L205.703 37.1301L206.617 36.724ZM207.617 59.074V60.074H208.617V59.074H207.617ZM202.467 59.074L201.467 59.0906L201.483 60.074H202.467V59.074ZM202.417 56.074L203.417 56.0573L203.4 55.074H202.417V56.074ZM202.317 56.074V55.074H201.862L201.563 55.4172L202.317 56.074ZM198.317 58.624L198.66 59.5633L198.67 59.5596L198.317 58.624ZM198.567 54.424L198.163 53.509L198.153 53.5136L198.567 54.424ZM201.217 52.424L200.436 51.7993L200.428 51.809L200.421 51.8189L201.217 52.424ZM202.217 46.274H203.217V45.274H202.217V46.274ZM192.317 47.474L191.854 46.5874L191.854 46.5874L192.317 47.474ZM191.267 54.124L190.606 54.8747L190.622 54.8886L190.639 54.9019L191.267 54.124ZM193.017 58.574C190.6 58.574 188.818 57.9274 187.549 56.7429L186.185 58.205C187.915 59.8206 190.234 60.574 193.017 60.574V58.574ZM187.558 56.751C186.289 55.539 185.617 53.8855 185.617 51.674H183.617C183.617 54.3292 184.444 56.5423 186.176 58.197L187.558 56.751ZM185.617 51.674C185.617 48.9539 186.667 46.9381 188.78 45.5007L187.654 43.8473C184.966 45.6766 183.617 48.3274 183.617 51.674H185.617ZM188.787 45.4953C190.954 43.9909 194.139 43.174 198.467 43.174V41.174C193.929 41.174 190.28 42.0237 187.646 43.8526L188.787 45.4953ZM198.467 43.174H202.217V41.174H198.467V43.174ZM203.217 42.174C203.217 40.7797 203.046 39.5816 202.627 38.6602L200.807 39.4878C201.054 40.033 201.217 40.9016 201.217 42.174H203.217ZM202.627 38.6602C202.171 37.6555 201.365 36.9644 200.306 36.5831L199.628 38.4649C200.236 38.6835 200.597 39.0258 200.807 39.4878L202.627 38.6602ZM200.318 36.5876C199.355 36.2265 198.1 36.074 196.617 36.074V38.074C198 38.074 198.979 38.2215 199.616 38.4603L200.318 36.5876ZM196.617 36.074C194.851 36.074 193.056 36.2471 191.231 36.5913L191.602 38.5566C193.311 38.2342 194.983 38.074 196.617 38.074V36.074ZM191.228 36.592C189.428 36.9382 187.71 37.4584 186.075 38.1538L186.858 39.9941C188.358 39.3562 189.939 38.8764 191.606 38.556L191.228 36.592ZM187.453 38.9078L186.703 34.4578L184.731 34.7902L185.481 39.2402L187.453 38.9078ZM186.072 35.5588C187.675 34.9497 189.449 34.4648 191.397 34.1076L191.037 32.1404C188.985 32.5165 187.092 33.0316 185.362 33.6892L186.072 35.5588ZM191.394 34.1081C193.37 33.7518 195.344 33.574 197.317 33.574V31.574C195.223 31.574 193.13 31.7628 191.039 32.1398L191.394 34.1081ZM197.317 33.574C199.856 33.574 201.733 33.8862 203.02 34.442L203.813 32.6059C202.167 31.8951 199.978 31.574 197.317 31.574V33.574ZM203.028 34.4452C204.288 34.9772 205.164 35.8529 205.696 37.1129L207.538 36.335C206.803 34.595 205.546 33.3374 203.806 32.6027L203.028 34.4452ZM205.703 37.1301C206.292 38.4545 206.617 40.2833 206.617 42.674H208.617C208.617 40.1313 208.275 37.9934 207.531 36.3178L205.703 37.1301ZM206.617 42.674V59.074H208.617V42.674H206.617ZM207.617 58.074H202.467V60.074H207.617V58.074ZM203.467 59.0573L203.417 56.0573L201.417 56.0906L201.467 59.0906L203.467 59.0573ZM202.417 55.074H202.317V57.074H202.417V55.074ZM201.563 55.4172C200.805 56.2877 199.631 57.0591 197.964 57.6884L198.67 59.5596C200.536 58.8555 202.029 57.9269 203.071 56.7308L201.563 55.4172ZM197.974 57.6847C196.348 58.2789 194.697 58.574 193.017 58.574V60.574C194.937 60.574 196.82 60.2357 198.66 59.5632L197.974 57.6847ZM194.917 56.174C196.378 56.174 197.738 55.8993 198.981 55.3343L198.153 53.5136C197.196 53.9487 196.122 54.174 194.917 54.174V56.174ZM198.971 55.3389C200.23 54.7831 201.26 54.02 202.013 53.0291L200.421 51.8189C199.907 52.4946 199.17 53.0649 198.163 53.5091L198.971 55.3389ZM201.998 53.0487C202.801 52.0443 203.217 50.8923 203.217 49.624H201.217C201.217 50.4223 200.966 51.137 200.436 51.7993L201.998 53.0487ZM203.217 49.624V46.274H201.217V49.624H203.217ZM202.217 45.274H199.217V47.274H202.217V45.274ZM199.217 45.274C196.096 45.274 193.602 45.6756 191.854 46.5874L192.779 48.3606C194.099 47.6723 196.205 47.274 199.217 47.274V45.274ZM191.854 46.5874C190.963 47.0526 190.241 47.6677 189.746 48.4534C189.249 49.2422 189.017 50.1449 189.017 51.124H191.017C191.017 50.4697 191.168 49.9474 191.438 49.5196C191.71 49.0886 192.138 48.6953 192.779 48.3606L191.854 46.5874ZM189.017 51.124C189.017 52.633 189.526 53.9237 190.606 54.8747L191.928 53.3733C191.342 52.8576 191.017 52.1483 191.017 51.124H189.017ZM190.639 54.9019C191.743 55.7941 193.213 56.174 194.917 56.174V54.174C193.488 54.174 192.524 53.8539 191.895 53.346L190.639 54.9019ZM223.554 58.624L223.165 59.5452L223.165 59.5452L223.554 58.624ZM219.854 55.974L220.614 55.325L220.315 54.974H219.854V55.974ZM219.754 55.974V54.974H218.77L218.754 55.9578L219.754 55.974ZM219.704 59.074V60.074H220.688L220.703 59.0901L219.704 59.074ZM214.554 59.074H213.554V60.074H214.554V59.074ZM214.554 22.574V21.574H213.554V22.574H214.554ZM219.954 22.574H220.954V21.574H219.954V22.574ZM219.954 36.174H218.954V37.174H219.954V36.174ZM220.054 36.174V37.174H220.534L220.834 36.7987L220.054 36.174ZM223.654 33.524L224.032 34.4495L224.041 34.4459L224.05 34.442L223.654 33.524ZM236.604 36.174L235.83 36.8078L235.835 36.8131L236.604 36.174ZM236.604 56.024L237.373 56.6631L237.377 56.6578L236.604 56.024ZM232.404 52.724L231.618 52.1054L231.61 52.1159L232.404 52.724ZM232.404 39.424L231.61 40.0321L231.618 40.0425L232.404 39.424ZM223.504 37.924L223.962 38.8129L223.962 38.8129L223.504 37.924ZM220.904 40.274L221.74 40.822L221.744 40.8155L221.748 40.809L220.904 40.274ZM220.904 51.874L221.748 51.3389L221.748 51.3389L220.904 51.874ZM223.504 54.224L223.962 53.335L223.504 54.224ZM228.454 58.574C226.809 58.574 225.309 58.2798 223.943 57.7027L223.165 59.5452C224.798 60.2348 226.565 60.574 228.454 60.574V58.574ZM223.943 57.7027C222.572 57.1242 221.471 56.3291 220.614 55.325L219.093 56.6229C220.17 57.8855 221.535 58.8571 223.165 59.5452L223.943 57.7027ZM219.854 54.974H219.754V56.974H219.854V54.974ZM218.754 55.9578L218.704 59.0578L220.703 59.0901L220.753 55.9901L218.754 55.9578ZM219.704 58.074H214.554V60.074H219.704V58.074ZM215.554 59.074V22.574H213.554V59.074H215.554ZM214.554 23.574H219.954V21.574H214.554V23.574ZM218.954 22.574V36.174H220.954V22.574H218.954ZM219.954 37.174H220.054V35.174H219.954V37.174ZM220.834 36.7987C221.655 35.773 222.713 34.9891 224.032 34.4495L223.275 32.5984C221.661 33.2588 220.319 34.2416 219.273 35.5493L220.834 36.7987ZM224.05 34.442C225.381 33.8672 226.845 33.574 228.454 33.574V31.574C226.596 31.574 224.859 31.9141 223.257 32.6059L224.05 34.442ZM228.454 33.574C231.66 33.574 234.077 34.6687 235.83 36.8078L237.377 35.5402C235.197 32.8793 232.18 31.574 228.454 31.574V33.574ZM235.835 36.8131C237.604 38.9429 238.554 41.9868 238.554 46.074H240.554C240.554 41.6944 239.536 38.1384 237.373 35.5349L235.835 36.8131ZM238.554 46.074C238.554 50.1601 237.605 53.2245 235.83 55.3902L237.377 56.6578C239.536 54.0235 240.554 50.4546 240.554 46.074H238.554ZM235.835 55.3849C234.083 57.4922 231.665 58.574 228.454 58.574V60.574C232.175 60.574 235.191 59.2891 237.373 56.6631L235.835 55.3849ZM227.204 56.074C229.729 56.074 231.778 55.1847 233.197 53.3321L231.61 52.1159C230.629 53.3966 229.212 54.074 227.204 54.074V56.074ZM233.189 53.3425C234.611 51.5369 235.254 49.0696 235.254 46.074H233.254C233.254 48.8117 232.663 50.7777 231.618 52.1054L233.189 53.3425ZM235.254 46.074C235.254 43.0784 234.611 40.611 233.189 38.8054L231.618 40.0425C232.663 41.3702 233.254 43.3362 233.254 46.074H235.254ZM233.197 38.8159C231.778 36.9633 229.729 36.074 227.204 36.074V38.074C229.212 38.074 230.629 38.7513 231.61 40.0321L233.197 38.8159ZM227.204 36.074C225.695 36.074 224.302 36.388 223.046 37.035L223.962 38.8129C224.906 38.3266 225.979 38.074 227.204 38.074V36.074ZM223.046 37.035C221.795 37.6793 220.792 38.5817 220.059 39.7389L221.748 40.809C222.282 39.9663 223.012 39.302 223.962 38.8129L223.046 37.035ZM220.067 39.7259C219.317 40.871 218.954 42.1821 218.954 43.624H220.954C220.954 42.5325 221.224 41.6103 221.74 40.822L220.067 39.7259ZM218.954 43.624V48.524H220.954V43.624H218.954ZM218.954 48.524C218.954 49.9384 219.32 51.2421 220.059 52.409L221.748 51.3389C221.221 50.5059 220.954 49.5762 220.954 48.524H218.954ZM220.059 52.409C220.792 53.5663 221.795 54.4687 223.046 55.1129L223.962 53.335C223.012 52.8459 222.282 52.1817 221.748 51.3389L220.059 52.409ZM223.046 55.1129C224.302 55.76 225.695 56.074 227.204 56.074V54.074C225.979 54.074 224.906 53.8213 223.962 53.335L223.046 55.1129Z" fill="#505D79"/>
</svg>
