<svg id="Слой_1" data-name="Слой 1" xmlns="http://www.w3.org/2000/svg" width="1105.08097" height="1137.36371" viewBox="0 0 1105.08097 1137.36371">
  <defs>
    <style>
      .cls-1 {
        fill: #1d1d1b;
        stroke: #1d1d1b;
        stroke-miterlimit: 10;
      }
    </style>
  </defs>
  <g>
    <path class="cls-1" d="M1541.209,985.666c10.68824,0,19.6941,2.01879,26.90625,5.9345q-.28967-20.00235-1.94775-39.65423h-83.40576c-8.99219-46.64551-38.77832-68.56348-98.34961-68.56348-69.125,0-109.58887,43.27393-109.58887,124.76367,0,82.05079,32.03321,125.3252,105.65528,125.3252,62.38183,0,118.58105-26.97559,118.58105-80.36523h-114.085V985.666Z" transform="translate(-463.54659 -431.31818)"/>
    <path class="cls-1" d="M1499.05957,1206.53125V1171.125l16.85938-61.81934h-22.4795c-.56152,23.042-10.11621,102.84571-127.57324,102.84571-115.77148,0-180.96289-82.61426-180.96289-204.00489,0-120.82959,84.86133-203.44336,199.50879-203.44336,82.39966,0,149.37329,41.64838,176.645,105.139C1517.85669,638.89111,1283.11548,431.81818,1000,431.81818c-247.28345,0-457.66626,157.97351-535.746,378.50506h92.88513c105.65527,0,215.80664,27.5376,215.80664,197.82324,0,170.84668-110.15137,198.38477-215.80664,198.38477H470.52954c82.632,211.68066,288.53418,361.65063,529.47046,361.65063s446.83838-149.97,529.47046-361.65063ZM1134.31738,889.00293H941.55225v114.085l179.83935-11.23975v79.8042L941.55225,1082.8916v123.63965H851.63281v-396.208h282.68457Z" transform="translate(-463.54659 -431.31818)"/>
    <path class="cls-1" d="M683.02637,1008.14648c0-113.52392-55.6377-119.14355-125.88721-119.14355H500.93945v238.84863h56.19971C627.38867,1127.85156,683.02637,1122.23145,683.02637,1008.14648Z" transform="translate(-463.54659 -431.31818)"/>
  </g>
</svg>
