<svg width="1304" height="737" viewBox="0 0 1304 737" fill="none" xmlns="http://www.w3.org/2000/svg">
<mask id="mask0_270_3" style="mask-type:alpha" maskUnits="userSpaceOnUse" x="662" y="89" width="642" height="645">
<path d="M662 89.9771H1304V733.977H662V89.9771Z" fill="#D9D9D9"/>
</mask>
<g mask="url(#mask0_270_3)">
<path d="M662 726.215V740.973H715.158V726.215H662ZM670.078 91.4771V284.885L716.005 386.652H662V416.201H729.339L765.283 495.797C726.799 512.058 699.814 549.294 699.814 592.439C699.814 647.678 743.907 693.045 799.817 697.349H799.888L837.827 757.404H872.327L834.068 694.855C881.83 683.718 917.457 642.042 917.457 592.439C917.457 579.253 914.988 566.648 910.367 555.033L1123.57 456.819H1303.61V427.27H1218.21L1039.33 238.973H1303.61V224.181H1025.29L895.587 91.4771H670.078ZM808.671 668.243C765.53 668.243 730.432 634.219 730.432 592.439C730.432 550.66 765.53 516.636 808.671 516.636C851.811 516.636 886.945 550.66 886.945 592.439C886.945 634.219 851.811 668.243 808.671 668.243ZM1176.72 427.236H1116.69L895.587 529.07C875.657 503.586 844.122 487.052 808.671 487.052C804.12 487.052 799.535 487.359 795.09 487.906L700.59 278.634V91.4771L858.327 91.4771L1176.72 427.236ZM1278.33 757.404H1303.64V736.464L1278.33 757.404Z" fill="#DBD9D5"/>
<path d="M1188.12 208.808V125.762H1156.9V91.0884H1102.01V208.808H1188.12Z" fill="#DBD9D5"/>
<path d="M738.157 481.347L715 495.977L700.5 516.977L683.5 543.977L676 584.477H662V429.559H716.605L738.157 481.347Z" fill="#DBD9D5"/>
<path d="M717.451 680.952V705.821H662V595.207H677.133C681.471 627.933 695.969 657.449 717.451 680.952Z" fill="#DBD9D5"/>
<path d="M982.891 466.077L936.435 368.888H879.855L783.238 412.307L808.459 465.735H808.671C844.404 465.735 876.856 479.571 900.455 502.049L982.891 466.077Z" fill="#DBD9D5"/>
<path d="M1303.64 345.043V409.574H1230.98L1169.63 345.043H1303.64Z" fill="#DBD9D5"/>
<path d="M814.827 759.977H749.762L749.763 737.625L783.838 709.886L814.827 759.977Z" fill="#DBD9D5"/>
<path d="M1062.4 696.256L970.721 603.713L935.553 630.325C925.111 663.188 901.407 690.448 870.542 706.163L901.827 758.477H1007.33L1062.4 696.256Z" fill="#DBD9D5"/>
<path d="M962.573 562.856L1123.6 485.754H1203.92V621.374L1078.7 681.259L962.573 562.856Z" fill="#DBD9D5"/>
<path d="M726.764 104.855V275.286L775.901 391.64L865.498 348.631H1074.46L840.1 104.855H726.764Z" fill="#F3B53F"/>
<path d="M692.9 372.646H662V303.401L692.9 372.646Z" fill="#DBD9D5"/>
<path d="M1303.64 485.754H1226.18V574.437H1303.64V485.754Z" fill="#DBD9D5"/>
<path d="M1303.64 588.272H1226.18V619.393H1303.64V588.272Z" fill="#DBD9D5"/>
<path d="M1139.33 758.477H1035.83L1080.07 709.92L1139.33 758.477Z" fill="#DBD9D5"/>
<path d="M1170.83 757.977H1252.83L1270.31 744.082L1206.88 690.585V642.486L1095.06 697.656L1170.83 757.977Z" fill="#DBD9D5"/>
<path d="M1303.64 633.16V708.588L1282.9 727.445L1226.18 681.259V633.16H1303.64Z" fill="#DBD9D5"/>
<path d="M1084.34 256.873L1156.9 330.696H1226.18V256.873H1084.34Z" fill="#DBD9D5"/>
<path d="M1303.64 296.74H1240.57V330.696H1303.64V296.74Z" fill="#DBD9D5"/>
<path d="M1277.64 256.873H1240.57V287.721H1277.64V256.873Z" fill="#DBD9D5"/>
<path d="M1303.61 256.839H1286.85V287.687H1303.61V256.839Z" fill="#DBD9D5"/>
<path d="M958.128 368.888H1074.46V422.761L1000.1 455.453L958.128 368.888Z" fill="#DBD9D5"/>
<path d="M808.671 643.408C837.504 643.408 860.877 620.772 860.877 592.85C860.877 564.927 837.504 542.291 808.671 542.291C779.838 542.291 756.465 564.927 756.465 592.85C756.465 620.772 779.838 643.408 808.671 643.408Z" fill="#F3B53F"/>
<path d="M1290.77 125.762H1201.1V208.808H1290.77V125.762Z" fill="#DBD9D5"/>
<path d="M927.827 91.4771L967.229 134.917H1084.62V91.4771H927.827Z" fill="#DBD9D5"/>
<path d="M980.563 146.293L1039.89 208.808H1084.34V146.293H980.563Z" fill="#DBD9D5"/>
<path d="M1261.42 91.4771H1171.79V106.359H1261.42V91.4771Z" fill="#F3B53F"/>
<path d="M894 551.977L887.5 544.977L1128.72 438.406H1202.16L873.327 90.9771H881.827L1218.17 445.239H1130.2L894 551.977Z" fill="#F3B53F"/>
<path d="M855.827 762.467L806.237 682.346L811.81 681.833C812.233 681.799 855.268 677.529 884.158 640.635C912.73 604.185 887.438 552.328 887.156 551.781L885.604 548.638L889.766 548.638L892 552.02H894.987C900.384 564.455 917.033 609.958 889.766 644.768C864.827 676.572 830.929 685.523 817.842 687.88L863.827 762.467H855.827Z" fill="#525D77"/>
</g>
<mask id="mask1_270_3" style="mask-type:alpha" maskUnits="userSpaceOnUse" x="0" y="92" width="642" height="645">
<path d="M642 736.977H0V92.9771H642V736.977Z" fill="#D9D9D9"/>
</mask>
<g mask="url(#mask1_270_3)">
<path d="M642 100.739V85.9813H588.842V100.739H642ZM633.922 735.477V542.069L587.995 440.302H642V410.753H574.661L538.717 331.157C577.201 314.896 604.186 277.66 604.186 234.515C604.186 179.276 560.093 133.91 504.183 129.605H504.112L466.173 69.5498H431.673L469.932 132.099C422.17 143.236 386.543 184.912 386.543 234.515C386.543 247.701 389.012 260.306 393.633 271.921L180.435 370.135L0.394226 370.135V399.684H85.7936L264.67 587.981H0.394226V602.773H278.709L408.413 735.477H633.922ZM495.329 158.711C538.47 158.711 573.568 192.735 573.568 234.515C573.568 276.294 538.47 310.318 495.329 310.318C452.189 310.318 417.055 276.294 417.055 234.515C417.055 192.735 452.189 158.711 495.329 158.711ZM127.276 399.719H187.313L408.413 297.884C428.343 323.368 459.878 339.902 495.329 339.902C499.88 339.902 504.465 339.595 508.91 339.048L603.41 548.32V735.477L445.673 735.477L127.276 399.719ZM25.6729 69.5498H0.359009V90.4905L25.6729 69.5498Z" fill="#DBD9D5"/>
<path d="M115.883 618.146V701.192H147.1V735.866H201.987V618.146H115.883Z" fill="#DBD9D5"/>
<path d="M565.843 345.607H642V397.396H587.395L565.843 345.607Z" fill="#DBD9D5"/>
<path d="M586.549 146.002V121.133H642V231.747H626.867C622.529 199.021 608.031 169.505 586.549 146.002Z" fill="#DBD9D5"/>
<path d="M321.109 360.877L367.565 458.066H424.145L520.762 414.647L495.541 361.219H495.329C459.596 361.219 427.144 347.383 403.545 324.905L321.109 360.877Z" fill="#DBD9D5"/>
<path d="M0.35881 481.911V417.38H73.0241L134.366 481.911H0.35881Z" fill="#DBD9D5"/>
<path d="M489.173 66.9771H554.238L554.237 89.3289L520.162 117.068L489.173 66.9771Z" fill="#DBD9D5"/>
<path d="M241.601 130.698L333.279 223.241L368.447 196.63C378.889 163.766 402.593 136.506 433.458 120.792L402.173 68.4771H296.673L241.601 130.698Z" fill="#DBD9D5"/>
<path d="M341.427 264.098L180.399 341.2H100.079V205.58L225.303 145.695L341.427 264.098Z" fill="#DBD9D5"/>
<path d="M577.236 722.099V551.668L528.099 435.315L438.502 478.324H229.537L463.9 722.099H577.236Z" fill="#DBD9D5"/>
<path d="M611.1 454.308H642V523.553L611.1 454.308Z" fill="#DBD9D5"/>
<path d="M0.358719 341.2H77.8213V252.517H0.358719V341.2Z" fill="#DBD9D5"/>
<path d="M0.358719 238.682H77.8213V207.561H0.358719V238.682Z" fill="#DBD9D5"/>
<path d="M164.673 68.4771H268.173L223.928 117.034L164.673 68.4771Z" fill="#DBD9D5"/>
<path d="M133.173 68.9771L51.1729 68.9771L33.6934 82.8726L97.1167 136.369V184.468L208.937 129.298L133.173 68.9771Z" fill="#F3B53F"/>
<path d="M0.358719 193.794V118.366L21.1001 99.509L77.8213 145.695V193.794H0.358719Z" fill="#DBD9D5"/>
<path d="M219.66 570.081L147.1 496.258H77.8214V570.081H219.66Z" fill="#DBD9D5"/>
<path d="M0.359077 530.215H63.4297V496.258H0.359077V530.215Z" fill="#DBD9D5"/>
<path d="M26.3563 570.081H63.4297V539.233H26.3563V570.081Z" fill="#DBD9D5"/>
<path d="M0.394083 570.115H17.1494V539.267H0.394083V570.115Z" fill="#DBD9D5"/>
<path d="M345.872 458.066H229.537V404.194L303.895 371.501L345.872 458.066Z" fill="#DBD9D5"/>
<path d="M495.329 183.546C466.496 183.546 443.123 206.182 443.123 234.105C443.123 262.027 466.496 284.663 495.329 284.663C524.162 284.663 547.535 262.027 547.535 234.105C547.535 206.182 524.162 183.546 495.329 183.546Z" fill="#F3B53F"/>
<path d="M13.2339 701.192H102.901V618.146H13.2339V701.192Z" fill="#DBD9D5"/>
<path d="M376.173 735.477L336.771 692.037H219.378V735.477H376.173Z" fill="#DBD9D5"/>
<path d="M323.437 680.661L264.106 618.146H219.66V680.661H323.437Z" fill="#DBD9D5"/>
<path d="M0 735.977H132V720.977H0V735.977Z" fill="#F3B53F"/>
</g>
<path fill-rule="evenodd" clip-rule="evenodd" d="M1214.49 241.641C1215.28 242.518 1216.15 243.615 1217.08 244.902L1213.85 247.256C1212.96 246.038 1212.18 245.057 1211.51 244.313L1214.49 241.641ZM1221.63 251.784C1222.93 253.909 1224.32 256.278 1225.76 258.867L1222.27 260.816C1220.85 258.269 1219.49 255.948 1218.22 253.876L1221.63 251.784ZM1229.61 266.024C1230.81 268.336 1232.04 270.772 1233.28 273.318L1229.69 275.073C1228.46 272.556 1227.25 270.15 1226.06 267.868L1229.61 266.024ZM1236.77 280.668C1237.87 283.062 1238.98 285.533 1240.09 288.073L1236.42 289.671C1235.33 287.157 1234.23 284.712 1233.14 282.343L1236.77 280.668ZM1243.26 295.551C1244.27 298.016 1245.28 300.533 1246.28 303.096L1242.55 304.545C1241.56 302.007 1240.56 299.515 1239.56 297.075L1243.26 295.551ZM1249.14 310.703C1250.06 313.223 1250.97 315.781 1251.85 318.369L1248.06 319.661C1247.19 317.1 1246.3 314.569 1245.39 312.074L1249.14 310.703ZM1254.39 326.094C1255.21 328.664 1256 331.26 1256.76 333.875L1252.92 334.995C1252.17 332.41 1251.38 329.844 1250.58 327.302L1254.39 326.094ZM1258.94 341.714C1259.64 344.331 1260.3 346.964 1260.93 349.607L1257.04 350.53C1256.42 347.923 1255.76 345.324 1255.08 342.739L1258.94 341.714ZM1262.7 357.555C1263.25 360.217 1263.76 362.886 1264.23 365.555L1260.29 366.246C1259.83 363.619 1259.32 360.991 1258.78 358.367L1262.7 357.555ZM1265.5 373.605C1265.89 376.31 1266.22 379.01 1266.49 381.702L1262.51 382.112C1262.24 379.472 1261.92 376.82 1261.54 374.163L1265.5 373.605ZM1267.16 389.842C1267.33 392.582 1267.44 395.308 1267.47 398.014L1263.47 398.071C1263.44 395.43 1263.33 392.767 1263.17 390.086L1267.16 389.842ZM1267.38 406.202C1267.28 408.958 1267.09 411.688 1266.83 414.386L1262.85 413.995C1263.1 411.38 1263.28 408.73 1263.38 406.049L1267.38 406.202ZM1265.75 422.537C1265.3 425.271 1264.74 427.964 1264.09 430.608L1260.21 429.647C1260.84 427.108 1261.37 424.516 1261.81 421.878L1265.75 422.537ZM1261.77 438.533C1260.87 441.159 1259.85 443.726 1258.71 446.226L1255.07 444.567C1256.15 442.192 1257.12 439.746 1257.98 437.237L1261.77 438.533ZM1254.88 453.578C1254.17 454.77 1253.43 455.941 1252.66 457.092C1251.89 458.235 1251.1 459.357 1250.28 460.457L1247.07 458.073C1247.85 457.022 1248.61 455.952 1249.34 454.862C1250.07 453.774 1250.77 452.667 1251.44 451.539L1254.88 453.578ZM1245.1 466.813C1243.28 468.85 1241.37 470.808 1239.37 472.691L1236.63 469.782C1238.54 467.974 1240.37 466.098 1242.12 464.148L1245.1 466.813ZM1233.21 478.061C1231.11 479.757 1228.93 481.385 1226.68 482.951L1224.39 479.669C1226.57 478.154 1228.67 476.581 1230.7 474.947L1233.21 478.061ZM1219.84 487.398C1217.54 488.8 1215.17 490.146 1212.75 491.442L1210.86 487.915C1213.22 486.652 1215.53 485.341 1217.76 483.98L1219.84 487.398ZM1205.51 495.091C1203.09 496.24 1200.63 497.346 1198.12 498.414L1196.55 494.733C1199.01 493.686 1201.43 492.602 1203.79 491.478L1205.51 495.091ZM1190.59 501.454C1188.09 502.413 1185.55 503.339 1182.98 504.235L1181.67 500.458C1184.2 499.575 1186.7 498.663 1189.16 497.72L1190.59 501.454ZM1175.33 506.785C1172.78 507.599 1170.2 508.387 1167.59 509.152L1166.47 505.315C1169.04 504.557 1171.6 503.778 1174.11 502.974L1175.33 506.785ZM1159.82 511.353C1157.25 512.056 1154.65 512.74 1152.04 513.407L1151.05 509.532C1153.64 508.869 1156.22 508.191 1158.77 507.494L1159.82 511.353ZM1144.2 515.351C1141.6 515.977 1138.99 516.591 1136.36 517.193L1135.47 513.295C1138.08 512.695 1140.68 512.085 1143.26 511.462L1144.2 515.351ZM1128.51 518.957C1125.9 519.534 1123.27 520.102 1120.64 520.665L1119.8 516.753C1122.43 516.192 1125.04 515.626 1127.65 515.051L1128.51 518.957ZM483.644 520.96C483.934 519.634 484.238 518.316 484.557 517.005L488.444 517.949C488.132 519.231 487.835 520.519 487.551 521.815L483.644 520.96ZM1112.78 522.325C1110.16 522.873 1107.53 523.417 1104.9 523.96L1104.09 520.043C1106.72 519.5 1109.34 518.957 1111.96 518.41L1112.78 522.325ZM1097.04 525.584C1094.41 526.125 1091.79 526.667 1089.17 527.213L1088.36 523.296C1090.98 522.751 1093.6 522.208 1096.23 521.667L1097.04 525.584ZM1081.32 528.861C1078.69 529.416 1076.08 529.977 1073.47 530.544L1072.62 526.636C1075.24 526.066 1077.86 525.504 1080.49 524.948L1081.32 528.861ZM1065.64 532.282C1063.03 532.872 1060.43 533.472 1057.84 534.084L1056.92 530.191C1059.52 529.576 1062.13 528.973 1064.76 528.38L1065.64 532.282ZM480.947 536.999C481.262 534.292 481.648 531.607 482.096 528.946L486.041 529.611C485.603 532.207 485.227 534.825 484.921 537.462L480.947 536.999ZM1050.05 535.977C1047.45 536.628 1044.86 537.293 1042.3 537.975L1041.27 534.109C1043.86 533.422 1046.46 532.752 1049.08 532.097L1050.05 535.977ZM1034.61 540.09C1032.02 540.828 1029.46 541.585 1026.92 542.366L1025.75 538.543C1028.31 537.754 1030.9 536.988 1033.51 536.243L1034.61 540.09ZM1019.32 544.806C1016.79 545.654 1014.29 546.529 1011.82 547.432L1010.44 543.677C1012.95 542.759 1015.48 541.872 1018.05 541.013L1019.32 544.806ZM479.951 553.256C479.963 550.527 480.056 547.811 480.223 545.113L484.215 545.359C484.053 547.984 483.963 550.624 483.951 553.275L479.951 553.256ZM1004.36 550.303C1001.87 551.306 999.43 552.344 997.032 553.419L995.396 549.769C997.843 548.672 1000.33 547.615 1002.86 546.594L1004.36 550.303ZM989.87 556.811C987.479 558.008 985.139 559.248 982.856 560.535L980.892 557.05C983.236 555.729 985.633 554.459 988.079 553.234L989.87 556.811ZM480.864 569.54C480.541 566.821 480.307 564.109 480.157 561.407L484.151 561.185C484.296 563.806 484.523 566.434 484.836 569.068L480.864 569.54ZM976.054 564.615C973.815 566.046 971.64 567.529 969.532 569.07L967.172 565.841C969.35 564.249 971.595 562.718 973.9 561.244L976.054 564.615ZM963.336 573.932C961.316 575.636 959.372 577.403 957.507 579.238L954.701 576.387C956.642 574.478 958.662 572.642 960.757 570.875L963.336 573.932ZM483.839 585.582C483.161 582.924 482.579 580.265 482.087 577.609L486.021 576.881C486.497 579.451 487.06 582.023 487.715 584.594L483.839 585.582ZM952.133 584.975C950.429 586.955 948.808 589.006 947.276 591.135L944.03 588.798C945.631 586.573 947.324 584.43 949.102 582.365L952.133 584.975ZM488.934 601.106C487.9 598.552 486.965 595.992 486.123 593.428L489.924 592.181C490.737 594.66 491.642 597.135 492.642 599.605L488.934 601.106ZM942.977 597.705C941.655 599.938 940.421 602.248 939.279 604.64L935.669 602.917C936.862 600.417 938.152 598.002 939.535 595.667L942.977 597.705ZM496.047 615.781C494.684 613.384 493.419 610.976 492.247 608.56L495.846 606.815C496.98 609.152 498.204 611.482 499.524 613.804L496.047 615.781ZM936.222 611.837C935.759 613.07 935.318 614.325 934.901 615.6C934.478 616.891 934.033 618.167 933.566 619.429L929.814 618.041C930.264 616.827 930.692 615.598 931.099 614.355C931.535 613.026 931.994 611.719 932.477 610.432L936.222 611.837ZM504.984 629.425C503.331 627.211 501.773 624.982 500.304 622.742L503.649 620.549C505.073 622.721 506.585 624.883 508.19 627.033L504.984 629.425ZM930.5 626.837C929.372 629.292 928.158 631.686 926.861 634.021L923.364 632.078C924.612 629.832 925.78 627.529 926.865 625.168L930.5 626.837ZM515.46 641.907C513.57 639.892 511.767 637.861 510.049 635.816L513.112 633.243C514.782 635.231 516.537 637.208 518.378 639.171L515.46 641.907ZM922.692 640.894C921.216 643.132 919.66 645.311 918.027 647.43L914.858 644.988C916.432 642.946 917.932 640.847 919.353 638.692L922.692 640.894ZM527.166 653.193C525.091 651.377 523.095 649.545 521.178 647.698L523.952 644.817C525.823 646.619 527.772 648.408 529.8 650.183L527.166 653.193ZM912.898 653.616C911.126 655.607 909.281 657.542 907.37 659.42L904.567 656.566C906.416 654.749 908.199 652.88 909.91 650.956L912.898 653.616ZM539.829 663.329C537.612 661.701 535.467 660.058 533.393 658.399L535.891 655.275C537.921 656.899 540.022 658.509 542.196 660.105L539.829 663.329ZM901.48 664.848C899.468 666.589 897.396 668.277 895.265 669.912L892.829 666.739C894.9 665.15 896.912 663.512 898.862 661.824L901.48 664.848ZM553.243 672.416C550.914 670.958 548.651 669.484 546.452 667.996L548.694 664.684C550.852 666.144 553.076 667.592 555.365 669.025L553.243 672.416ZM888.787 674.606C886.605 676.099 884.371 677.544 882.09 678.942L880 675.531C882.226 674.167 884.403 672.759 886.528 671.305L888.787 674.606ZM567.275 680.575C564.853 679.266 562.49 677.941 560.187 676.603L562.196 673.145C564.463 674.462 566.79 675.766 569.177 677.056L567.275 680.575ZM875.179 682.955C872.86 684.231 870.498 685.463 868.097 686.652L866.322 683.067C868.673 681.903 870.983 680.697 873.25 679.45L875.179 682.955ZM581.682 687.845C579.212 686.681 576.797 685.503 574.435 684.312L576.236 680.74C578.566 681.915 580.949 683.077 583.387 684.226L581.682 687.845ZM860.901 690.037C858.488 691.115 856.041 692.153 853.562 693.152L852.067 689.442C854.501 688.461 856.903 687.442 859.269 686.385L860.901 690.037ZM596.523 694.398C593.98 693.346 591.487 692.281 589.044 691.203L590.659 687.543C593.073 688.608 595.537 689.662 598.052 690.702L596.523 694.398ZM846.119 696.004C843.644 696.904 841.142 697.769 838.615 698.598L837.367 694.797C839.855 693.981 842.318 693.13 844.752 692.245L846.119 696.004ZM607.795 698.849C606.507 698.364 605.232 697.875 603.968 697.384L605.418 693.656C606.668 694.142 607.931 694.625 609.205 695.105C610.357 695.54 611.549 695.969 612.779 696.392L611.476 700.174C610.212 699.739 608.985 699.297 607.795 698.849ZM831.014 700.967C828.484 701.715 825.932 702.43 823.361 703.112L822.334 699.246C824.87 698.573 827.387 697.868 829.881 697.131L831.014 700.967ZM626.786 704.678C624.122 704.006 621.555 703.309 619.093 702.589L620.216 698.75C622.627 699.455 625.146 700.139 627.765 700.8L626.786 704.678ZM815.663 705.048C813.092 705.66 810.504 706.241 807.904 706.792L807.074 702.879C809.644 702.335 812.199 701.761 814.737 701.157L815.663 705.048ZM642.357 708.108C639.683 707.596 637.077 707.061 634.543 706.505L635.401 702.598C637.899 703.146 640.47 703.674 643.109 704.18L642.357 708.108ZM800.125 708.345C797.53 708.833 794.923 709.292 792.308 709.723L791.657 705.776C794.244 705.35 796.821 704.896 799.387 704.414L800.125 708.345ZM657.987 710.726C655.336 710.342 652.732 709.936 650.18 709.509L650.839 705.564C653.362 705.986 655.938 706.387 658.561 706.768L657.987 710.726ZM784.461 710.932C781.846 711.307 779.225 711.655 776.6 711.977L776.113 708.007C778.712 707.688 781.306 707.343 783.894 706.972L784.461 710.932ZM673.759 712.693C671.086 712.411 668.448 712.108 665.849 711.785L666.344 707.815C668.917 708.136 671.53 708.436 674.178 708.715L673.759 712.693ZM768.717 712.868C766.087 713.14 763.454 713.386 760.823 713.608L760.486 709.622C763.093 709.402 765.701 709.158 768.306 708.889L768.717 712.868ZM689.529 714.068C686.872 713.883 684.24 713.677 681.638 713.45L681.985 709.466C684.564 709.69 687.173 709.895 689.807 710.078L689.529 714.068ZM752.912 714.204C750.272 714.378 747.636 714.529 745.005 714.657L744.811 710.662C747.419 710.535 750.032 710.385 752.647 710.212L752.912 714.204ZM705.375 714.9C702.718 714.806 700.08 714.689 697.463 714.552L697.673 710.557C700.267 710.694 702.883 710.809 705.517 710.903L705.375 714.9ZM737.075 714.973C734.424 715.056 731.781 715.116 729.148 715.154L729.091 711.154C731.701 711.117 734.322 711.057 736.949 710.975L737.075 714.973ZM721.235 715.201C718.573 715.195 715.924 715.167 713.291 715.117L713.367 711.117C715.978 711.167 718.605 711.195 721.244 711.201L721.235 715.201Z" fill="#9D9E99"/>
<path fill-rule="evenodd" clip-rule="evenodd" d="M249.966 212.343C249.964 212.351 249.907 212.922 251.056 213.82L248.593 216.972C246.914 215.66 245.636 213.748 246.033 211.611L249.966 212.343ZM257.687 216.162C259.814 216.453 262.372 216.521 265.365 216.239L265.741 220.221C262.48 220.529 259.612 220.463 257.145 220.126L257.687 216.162ZM273.134 214.884C275.488 214.303 278.017 213.538 280.721 212.557L282.085 216.318C279.256 217.344 276.591 218.151 274.092 218.767L273.134 214.884ZM288.114 209.513C290.398 208.466 292.783 207.278 295.267 205.935L297.169 209.454C294.611 210.837 292.148 212.064 289.781 213.149L288.114 209.513ZM302.264 201.896C304.453 200.554 306.709 199.099 309.033 197.524L311.278 200.834C308.906 202.443 306.598 203.931 304.354 205.306L302.264 201.896ZM315.612 192.866C317.704 191.324 319.845 189.688 322.035 187.955L324.517 191.091C322.293 192.852 320.116 194.516 317.985 196.086L315.612 192.866ZM328.305 182.831C330.31 181.143 332.352 179.375 334.432 177.525L337.09 180.514C334.985 182.387 332.915 184.178 330.882 185.891L328.305 182.831ZM340.427 172.058C342.356 170.256 344.315 168.385 346.304 166.443L349.098 169.306C347.089 171.267 345.108 173.158 343.157 174.981L340.427 172.058ZM352.079 160.69C353.933 158.805 355.812 156.86 357.716 154.853L360.618 157.606C358.698 159.63 356.802 161.593 354.93 163.495L352.079 160.69ZM363.233 148.937C364.155 147.931 365.082 146.912 366.015 145.878C366.923 144.872 367.849 143.879 368.794 142.899L371.674 145.675C370.759 146.623 369.863 147.584 368.985 148.557C368.045 149.599 367.11 150.627 366.181 151.64L363.233 148.937ZM597.417 288.464C596.578 289.544 595.747 290.566 594.928 291.526L591.884 288.93C592.662 288.019 593.455 287.045 594.257 286.011L597.417 288.464ZM606.127 275.317C604.776 277.696 603.395 279.94 602.009 282.039L598.671 279.836C600.008 277.811 601.342 275.642 602.65 273.341L606.127 275.317ZM374.639 137.208C376.635 135.383 378.697 133.611 380.818 131.892L383.336 135C381.275 136.67 379.274 138.39 377.338 140.16L374.639 137.208ZM613.034 261.185C612.005 263.665 610.922 266.059 609.799 268.356L606.205 266.601C607.292 264.375 608.342 262.056 609.339 259.652L613.034 261.185ZM387.292 126.948C389.485 125.37 391.731 123.844 394.027 122.374L396.184 125.742C393.949 127.174 391.762 128.659 389.63 130.194L387.292 126.948ZM618.154 246.297C617.446 248.871 616.665 251.382 615.824 253.824L612.042 252.523C612.856 250.158 613.612 247.727 614.297 245.236L618.154 246.297ZM400.99 118.165C403.337 116.829 405.727 115.546 408.156 114.319L409.959 117.889C407.589 119.087 405.258 120.338 402.97 121.641L400.99 118.165ZM621.331 230.883C620.969 233.519 620.52 236.109 619.995 238.649L616.078 237.839C616.585 235.385 617.018 232.883 617.368 230.338L621.331 230.883ZM415.499 110.831C417.966 109.732 420.467 108.687 422.998 107.7L424.452 111.426C421.979 112.391 419.536 113.411 417.127 114.485L415.499 110.831ZM430.633 104.922C433.193 104.057 435.779 103.249 438.387 102.499L439.492 106.343C436.943 107.076 434.415 107.866 431.913 108.712L430.633 104.922ZM622.384 215.159C622.396 217.819 622.309 220.446 622.135 223.037L618.144 222.768C618.312 220.27 618.395 217.738 618.384 215.176L622.384 215.159ZM446.241 100.431C448.872 99.8013 451.52 99.2305 454.182 98.7195L454.936 102.648C452.333 103.147 449.744 103.706 447.172 104.321L446.241 100.431ZM621.164 199.435C621.566 202.068 621.863 204.681 622.063 207.268L618.075 207.577C617.882 205.087 617.596 202.572 617.21 200.038L621.164 199.435ZM462.192 97.3695C464.87 96.9803 467.56 96.6519 470.255 96.3855L470.649 100.366C468.014 100.626 465.385 100.947 462.767 101.328L462.192 97.3695ZM617.633 184.059C618.422 186.611 619.103 189.152 619.683 191.679L615.785 192.575C615.226 190.143 614.57 187.697 613.811 185.239L617.633 184.059ZM478.357 95.7738C481.063 95.6327 483.772 95.555 486.481 95.5421L486.5 99.542C483.855 99.5547 481.209 99.6306 478.566 99.7684L478.357 95.7738ZM611.912 169.371C613.057 171.792 614.096 174.208 615.036 176.618L611.309 178.071C610.404 175.748 609.401 173.418 608.296 171.081L611.912 169.371ZM494.608 95.699C497.318 95.8172 500.023 96.0018 502.72 96.2541L502.348 100.237C499.717 99.9906 497.078 99.8105 494.434 99.6952L494.608 95.699ZM604.258 155.626C605.703 157.87 607.05 160.116 608.303 162.362L604.809 164.31C603.598 162.139 602.295 159.966 600.895 157.792L604.258 155.626ZM510.797 97.2175C513.483 97.6083 516.158 98.0686 518.816 98.5999L518.032 102.522C515.444 102.005 512.839 101.557 510.221 101.176L510.797 97.2175ZM597.42 145.99C598.238 147.043 599.033 148.097 599.806 149.152L596.578 151.515C595.829 150.491 595.057 149.468 594.262 148.445C593.445 147.394 592.616 146.361 591.774 145.347L594.852 142.792C595.721 143.839 596.577 144.905 597.42 145.99ZM526.752 100.411C529.382 101.088 531.993 101.838 534.579 102.661L533.366 106.473C530.852 105.672 528.314 104.943 525.756 104.285L526.752 100.411ZM583.645 130.946C585.625 132.783 587.559 134.696 589.442 136.687L586.536 139.436C584.713 137.509 582.842 135.657 580.925 133.879L583.645 130.946ZM542.268 105.358C544.803 106.331 547.31 107.38 549.786 108.506L548.13 112.147C545.729 111.055 543.295 110.037 540.834 109.092L542.268 105.358ZM570.984 120.664C573.193 122.23 575.361 123.874 577.483 125.597L574.961 128.702C572.908 127.035 570.809 125.443 568.67 123.927L570.984 120.664ZM557.101 112.108C559.497 113.382 561.857 114.733 564.179 116.163L562.081 119.569C559.832 118.184 557.545 116.875 555.223 115.64L557.101 112.108Z" fill="#9D9E99"/>
<path fill-rule="evenodd" clip-rule="evenodd" d="M668.215 286.923C668.565 286.89 669.017 286.815 669.579 286.686L670.474 290.584C669.197 290.878 667.927 291.053 666.903 290.865C666.377 290.769 665.639 290.527 665.089 289.869C664.48 289.14 664.409 288.281 664.534 287.611L668.466 288.343C668.497 288.178 668.51 287.725 668.158 287.303C667.865 286.953 667.555 286.918 667.625 286.931C667.672 286.94 667.85 286.958 668.215 286.923ZM677.102 284.082C679.3 283.171 681.804 282.045 684.589 280.706L686.323 284.31C683.485 285.676 680.913 286.832 678.634 287.777L677.102 284.082ZM1117.5 547.622C1116.73 548.774 1115.95 549.935 1115.15 551.103L1111.85 548.851C1112.64 547.695 1113.41 546.547 1114.16 545.408L1117.5 547.622ZM691.962 276.992C694.272 275.782 696.711 274.463 699.271 273.036L701.219 276.53C698.63 277.973 696.16 279.308 693.819 280.535L691.962 276.992ZM1126.11 533.943C1124.77 536.198 1123.37 538.486 1121.91 540.809L1118.52 538.677C1119.97 536.384 1121.35 534.127 1122.67 531.904L1126.11 533.943ZM706.427 268.945C708.723 267.6 711.096 266.182 713.539 264.69L715.624 268.103C713.16 269.608 710.766 271.04 708.448 272.397L706.427 268.945ZM1133.94 519.723C1132.75 522.069 1131.49 524.452 1130.15 526.873L1126.65 524.942C1127.96 522.56 1129.2 520.218 1130.37 517.916L1133.94 519.723ZM720.595 260.298C722.869 258.856 725.194 257.356 727.566 255.8L729.76 259.144C727.371 260.712 725.028 262.222 722.737 263.676L720.595 260.298ZM1140.69 504.911C1139.7 507.374 1138.62 509.878 1137.46 512.426L1133.82 510.763C1134.96 508.268 1136.01 505.82 1136.98 503.416L1140.69 504.911ZM734.455 251.206C736.696 249.687 738.974 248.122 741.285 246.509L743.574 249.788C741.248 251.412 738.955 252.989 736.698 254.517L734.455 251.206ZM1145.96 489.523C1145.24 492.099 1144.43 494.719 1143.51 497.389L1139.72 496.086C1140.62 493.489 1141.41 490.944 1142.11 488.448L1145.96 489.523ZM748.053 241.715C750.263 240.127 752.499 238.498 754.759 236.829L757.135 240.046C754.861 241.726 752.611 243.365 750.387 244.963L748.053 241.715ZM1149.27 473.544C1148.92 476.173 1148.47 478.848 1147.9 481.573L1143.98 480.758C1144.53 478.127 1144.97 475.55 1145.3 473.02L1149.27 473.544ZM761.402 231.854C763.578 230.203 765.773 228.515 767.984 226.792L770.443 229.947C768.218 231.681 766.01 233.379 763.821 235.04L761.402 231.854ZM1150.08 457.161C1150.17 459.862 1150.16 462.608 1150.01 465.404L1146.02 465.202C1146.16 462.52 1146.17 459.889 1146.08 457.303L1150.08 457.161ZM774.502 221.647C776.635 219.941 778.781 218.203 780.939 216.432L783.476 219.525C781.305 221.306 779.146 223.055 777 224.771L774.502 221.647ZM1148.08 440.881C1148.64 443.539 1149.1 446.233 1149.43 448.971L1145.46 449.46C1145.14 446.837 1144.71 444.255 1144.17 441.705L1148.08 440.881ZM1143.48 425.18C1144.44 427.741 1145.31 430.325 1146.08 432.94L1142.24 434.07C1141.5 431.551 1140.66 429.056 1139.74 426.578L1143.48 425.18ZM787.314 211.136C789.409 209.373 791.514 207.581 793.626 205.758L796.239 208.787C794.114 210.62 791.997 212.423 789.889 214.197L787.314 211.136ZM1136.9 410.258C1138.13 412.701 1139.3 415.151 1140.39 417.617L1136.74 419.239C1135.67 416.84 1134.53 414.449 1133.33 412.06L1136.9 410.258ZM1129.07 396.075C1130.46 398.418 1131.8 400.755 1133.1 403.093L1129.6 405.033C1128.33 402.733 1127 400.43 1125.63 398.116L1129.07 396.075ZM799.875 200.299C801.931 198.48 803.993 196.633 806.06 194.758L808.747 197.721C806.668 199.607 804.594 201.465 802.525 203.295L799.875 200.299ZM1120.55 382.328C1122.02 384.621 1123.46 386.899 1124.86 389.166L1121.47 391.277C1120.07 389.028 1118.64 386.765 1117.18 384.481L1120.55 382.328ZM1114.58 373.055C1115.11 373.887 1115.65 374.717 1116.19 375.544L1112.83 377.716C1112.29 376.89 1111.76 376.061 1111.22 375.228C1110.31 373.821 1109.39 372.404 1108.47 370.977L1111.83 368.808C1112.75 370.234 1113.67 371.649 1114.58 373.055ZM812.18 189.137C814.189 187.269 816.2 185.375 818.213 183.456L820.973 186.35C818.948 188.282 816.925 190.187 814.905 192.066L812.18 189.137ZM1103.21 355.242C1104.64 357.542 1106.07 359.809 1107.49 362.05L1104.12 364.198C1102.69 361.948 1101.25 359.668 1099.81 357.353L1103.21 355.242ZM1094.98 341.521C1096.32 343.852 1097.67 346.146 1099.03 348.407L1095.6 350.466C1094.23 348.186 1092.87 345.87 1091.51 343.516L1094.98 341.521ZM824.174 177.698C825.165 176.729 826.155 175.755 827.146 174.774C828.149 173.78 829.152 172.798 830.153 171.83L832.933 174.706C831.944 175.663 830.953 176.633 829.96 177.615C828.964 178.602 827.968 179.583 826.971 180.558L824.174 177.698ZM1087.31 327.459C1088.54 329.856 1089.79 332.211 1091.06 334.529L1087.55 336.447C1086.27 334.101 1085 331.717 1083.75 329.289L1087.31 327.459ZM1080.39 313.059C1081.49 315.526 1082.61 317.948 1083.76 320.33L1080.15 322.064C1078.99 319.649 1077.85 317.191 1076.74 314.688L1080.39 313.059ZM836.149 166.176C838.205 164.285 840.256 162.449 842.302 160.665L844.931 163.68C842.912 165.44 840.887 167.253 838.856 169.12L836.149 166.176ZM1074.34 298.315C1075.28 300.832 1076.25 303.303 1077.25 305.731L1073.55 307.25C1072.54 304.784 1071.55 302.274 1070.59 299.719L1074.34 298.315ZM848.573 155.348C850.74 153.562 852.9 151.836 855.053 150.167L857.503 153.328C855.382 154.973 853.253 156.674 851.117 158.435L848.573 155.348ZM1069.22 283.209C1070 285.765 1070.81 288.277 1071.64 290.746L1067.85 292.029C1067 289.52 1066.18 286.968 1065.4 284.37L1069.22 283.209ZM1065.08 267.796C1065.69 270.404 1066.34 272.969 1067.02 275.49L1063.15 276.528C1062.46 273.966 1061.81 271.361 1061.18 268.711L1065.08 267.796ZM861.591 145.258C863.877 143.597 866.154 142.001 868.423 140.467L870.663 143.781C868.433 145.289 866.192 146.86 863.942 148.495L861.591 145.258ZM1061.91 252.148C1062.36 254.8 1062.85 257.408 1063.37 259.974L1059.45 260.767C1058.92 258.161 1058.43 255.512 1057.97 252.82L1061.91 252.148ZM875.323 135.974C877.697 134.488 880.06 133.071 882.411 131.719L884.405 135.187C882.098 136.513 879.778 137.905 877.446 139.365L875.323 135.974ZM1059.69 236.338C1059.99 239.016 1060.32 241.651 1060.69 244.245L1056.72 244.799C1056.36 242.167 1056.02 239.494 1055.72 236.779L1059.69 236.338ZM889.695 127.722C892.172 126.428 894.635 125.206 897.082 124.056L898.784 127.676C896.388 128.802 893.976 129.998 891.548 131.267L889.695 127.722ZM1058.38 220.431C1058.53 223.115 1058.71 225.758 1058.93 228.363L1054.94 228.692C1054.72 226.052 1054.54 223.372 1054.38 220.653L1058.38 220.431ZM904.65 120.701C907.255 119.616 909.841 118.611 912.407 117.683L913.768 121.444C911.262 122.35 908.735 123.333 906.188 124.394L904.65 120.701ZM1057.9 204.471C1057.91 207.143 1057.96 209.778 1058.04 212.377L1054.04 212.495C1053.96 209.864 1053.91 207.196 1053.9 204.491L1057.9 204.471ZM920.272 115.057C922.954 114.236 925.612 113.499 928.245 112.843L929.213 116.724C926.649 117.363 924.058 118.081 921.442 118.882L920.272 115.057ZM1058.19 188.48C1058.08 191.135 1058 193.755 1057.96 196.341L1053.96 196.266C1054.01 193.65 1054.08 191 1054.19 188.316L1058.19 188.48ZM936.345 111.057C939.12 110.525 941.863 110.083 944.574 109.726L945.097 113.692C942.463 114.039 939.796 114.469 937.097 114.985L936.345 111.057ZM1058.89 176.342C1058.79 177.717 1058.69 179.083 1058.61 180.441L1054.62 180.19C1054.7 178.818 1054.8 177.438 1054.9 176.048C1054.99 174.823 1054.98 173.557 1054.88 172.255L1058.87 171.939C1058.99 173.431 1058.99 174.901 1058.89 176.342ZM952.857 108.886C955.67 108.687 958.443 108.579 961.174 108.557L961.206 112.557C958.558 112.578 955.869 112.683 953.14 112.876L952.857 108.886ZM1053.75 155.652C1055.15 158.268 1056.27 160.889 1057.12 163.48L1053.32 164.722C1052.55 162.37 1051.52 159.962 1050.22 157.53L1053.75 155.652ZM969.495 108.758C972.311 108.918 975.076 109.169 977.789 109.506L977.297 113.475C974.672 113.15 971.995 112.906 969.269 112.752L969.495 108.758ZM986.018 110.812C988.789 111.351 991.498 111.978 994.141 112.687L993.105 116.55C990.552 115.866 987.934 115.259 985.255 114.739L986.018 110.812ZM1043.96 141.935C1045.9 144.071 1047.66 146.248 1049.25 148.446L1046 150.785C1044.51 148.714 1042.84 146.653 1040.99 144.623L1043.96 141.935ZM1002.12 115.134C1004.79 116.061 1007.38 117.072 1009.89 118.157L1008.31 121.829C1005.89 120.783 1003.38 119.808 1000.8 118.913L1002.12 115.134ZM1031.53 130.659C1033.82 132.384 1035.98 134.17 1038.01 136.004L1035.32 138.971C1033.39 137.218 1031.32 135.508 1029.12 133.854L1031.53 130.659ZM1017.43 121.753C1019.94 123.072 1022.35 124.465 1024.66 125.922L1022.52 129.305C1020.3 127.905 1017.98 126.564 1015.57 125.294L1017.43 121.753Z" fill="#9D9E99"/>
<path fill-rule="evenodd" clip-rule="evenodd" d="M334.165 599.239C334.339 599.103 334.621 598.792 334.901 598.191L338.527 599.879C337.642 601.779 335.947 603.56 333.655 603.286L334.13 599.314C334.084 599.309 334.055 599.313 334.043 599.316C334.058 599.31 334.098 599.291 334.165 599.239ZM334.036 599.318C334.036 599.318 334.038 599.317 334.043 599.316C334.038 599.318 334.036 599.318 334.036 599.318ZM335.565 591.636C335.355 589.648 334.848 587.295 333.916 584.584L337.699 583.284C338.716 586.242 339.297 588.89 339.543 591.215L335.565 591.636ZM330.978 577.743C329.941 575.704 328.701 573.529 327.228 571.222L330.599 569.069C332.137 571.479 333.443 573.767 334.544 575.93L330.978 577.743ZM322.907 564.996C321.475 563.08 319.895 561.09 318.155 559.026L321.213 556.448C323.001 558.568 324.629 560.619 326.111 562.601L322.907 564.996ZM313.108 553.329C311.443 551.535 309.663 549.692 307.763 547.802L310.584 544.966C312.52 546.892 314.337 548.773 316.04 550.608L313.108 553.329ZM302.264 542.521C300.461 540.846 298.566 539.136 296.576 537.394L299.21 534.384C301.229 536.152 303.154 537.887 304.987 539.591L302.264 542.521ZM290.735 532.416C288.823 530.829 286.835 529.217 284.768 527.579L287.251 524.443C289.342 526.1 291.354 527.732 293.29 529.339L290.735 532.416ZM278.693 522.871C277.671 522.095 276.631 521.314 275.573 520.528C274.522 519.746 273.485 518.942 272.462 518.116L274.975 515.004C275.958 515.797 276.953 516.569 277.96 517.318C279.028 518.112 280.078 518.901 281.111 519.685L278.693 522.871ZM361.573 347.885C362.817 348.654 363.979 349.421 365.054 350.177L362.753 353.449C361.746 352.741 360.65 352.017 359.47 351.288L361.573 347.885ZM346.718 340.514C349.402 341.571 351.935 342.701 354.292 343.865L352.521 347.451C350.262 346.336 347.831 345.252 345.252 344.236L346.718 340.514ZM266.53 512.935C264.631 511.146 262.789 509.28 261.007 507.342L263.951 504.634C265.67 506.503 267.445 508.302 269.272 510.024L266.53 512.935ZM255.888 501.379C254.257 499.344 252.687 497.247 251.18 495.095L254.456 492.801C255.915 494.883 257.433 496.911 259.009 498.877L255.888 501.379ZM330.868 335.722C333.633 336.313 336.313 337.012 338.892 337.793L337.733 341.622C335.255 340.872 332.683 340.201 330.031 339.633L330.868 335.722ZM246.884 488.531C245.524 486.305 244.229 484.031 243.001 481.715L246.535 479.841C247.725 482.086 248.981 484.289 250.298 486.446L246.884 488.531ZM314.409 333.691C317.219 333.779 319.982 334.001 322.685 334.337L322.191 338.306C319.606 337.985 316.966 337.773 314.284 337.689L314.409 333.691ZM239.537 474.68C238.454 472.303 237.44 469.892 236.499 467.452L240.231 466.012C241.144 468.379 242.127 470.717 243.177 473.021L239.537 474.68ZM297.829 334.811C300.608 334.336 303.367 334.016 306.096 333.834L306.362 337.825C303.766 337.998 301.142 338.302 298.503 338.754L297.829 334.811ZM233.897 460.055C233.103 457.562 232.384 455.047 231.744 452.514L235.622 451.533C236.242 453.987 236.938 456.425 237.708 458.841L233.897 460.055ZM281.818 339.334C284.447 338.278 287.078 337.386 289.703 336.645L290.79 340.495C288.3 341.198 285.803 342.044 283.308 343.045L281.818 339.334ZM230.056 444.851C229.573 442.274 229.171 439.686 228.855 437.093L232.826 436.609C233.131 439.116 233.519 441.619 233.988 444.113L230.056 444.851ZM267.12 347.095C269.487 345.52 271.871 344.105 274.266 342.838L276.137 346.374C273.86 347.578 271.591 348.925 269.336 350.425L267.12 347.095ZM228.165 429.271C228.022 426.647 227.969 424.024 228.01 421.409L232.01 421.472C231.97 423.991 232.021 426.521 232.159 429.054L228.165 429.271ZM257.251 354.713C258.304 353.781 259.362 352.884 260.425 352.023L262.943 355.131C261.926 355.955 260.913 356.813 259.904 357.707C258.953 358.55 258.028 359.409 257.129 360.282L254.342 357.412C255.284 356.497 256.254 355.597 257.251 354.713ZM228.422 413.552C228.657 410.932 228.991 408.326 229.427 405.742L233.372 406.408C232.953 408.888 232.632 411.39 232.406 413.909L228.422 413.552ZM244.089 369.418C245.592 367.279 247.208 365.193 248.939 363.168L251.98 365.767C250.331 367.696 248.793 369.682 247.361 371.718L244.089 369.418ZM231.056 398.027C231.705 395.477 232.462 392.955 233.329 390.469L237.106 391.787C236.278 394.162 235.554 396.573 234.932 399.014L231.056 398.027ZM236.261 383.134C237.345 380.744 238.54 378.395 239.852 376.096L243.326 378.077C242.077 380.268 240.938 382.506 239.905 384.786L236.261 383.134Z" fill="#9D9E99"/>
<path fill-rule="evenodd" clip-rule="evenodd" d="M335.595 454.318C333.188 454.041 330.762 453.919 328.326 453.976L328.232 449.977C330.863 449.916 333.474 450.047 336.052 450.344L335.595 454.318ZM321.109 454.686C318.771 455.097 316.431 455.693 314.097 456.495L312.798 452.712C315.334 451.841 317.876 451.194 320.415 450.746L321.109 454.686ZM349.836 457.705C347.528 456.886 345.177 456.177 342.794 455.604L343.73 451.715C346.259 452.324 348.744 453.073 351.174 453.936L349.836 457.705ZM307.453 459.36C305.373 460.449 303.301 461.721 301.243 463.195L298.914 459.942C301.12 458.363 303.35 456.993 305.598 455.816L307.453 459.36ZM363.264 463.861C361.134 462.667 358.931 461.536 356.669 460.494L358.343 456.861C360.707 457.95 363.004 459.13 365.22 460.371L363.264 463.861ZM375.68 472C373.767 470.557 371.736 469.118 369.605 467.718L371.801 464.374C374.009 465.825 376.11 467.314 378.089 468.806L375.68 472ZM295.595 467.792C294.703 468.611 293.814 469.471 292.93 470.375C292.168 471.154 291.356 472.096 290.494 473.198L287.343 470.735C288.272 469.547 289.181 468.488 290.07 467.579C291.004 466.624 291.944 465.713 292.891 464.844L295.595 467.792ZM386.925 481.686C385.339 480.114 383.512 478.418 381.475 476.667L384.083 473.634C386.19 475.446 388.087 477.206 389.741 478.845L386.925 481.686ZM286.134 479.466C284.841 481.495 283.486 483.748 282.071 486.204L278.605 484.206C280.043 481.712 281.428 479.407 282.76 477.317L286.134 479.466ZM393.634 489.698C393.498 489.344 392.968 488.47 391.867 487.091L394.992 484.594C396.102 485.984 396.987 487.276 397.366 488.256L393.634 489.698ZM278.214 493.103C277.008 495.316 275.767 497.642 274.49 500.067L270.95 498.203C272.234 495.765 273.485 493.423 274.701 491.19L278.214 493.103ZM270.844 507.067C269.669 509.344 268.468 511.689 267.241 514.093L263.678 512.275C264.907 509.867 266.111 507.516 267.29 505.232L270.844 507.067ZM262.643 523.128C261.794 524.8 260.933 526.495 260.061 528.208L256.496 526.394C257.366 524.683 258.226 522.992 259.075 521.321C259.414 520.654 259.751 519.99 260.087 519.329L263.653 521.142C263.318 521.8 262.982 522.462 262.643 523.128ZM256.453 535.283C255.261 537.615 254.049 539.974 252.82 542.357L249.265 540.523C250.492 538.145 251.701 535.79 252.892 533.462L256.453 535.283ZM249.177 549.375C247.963 551.7 246.732 554.041 245.484 556.394L241.95 554.52C243.194 552.175 244.421 549.841 245.632 547.523L249.177 549.375ZM40.7357 557.964C41.2152 556.725 41.7123 555.476 42.2274 554.219L45.9289 555.735C45.4236 556.969 44.936 558.193 44.4662 559.407L40.7357 557.964ZM241.737 563.4C240.485 565.721 239.217 568.048 237.934 570.377L234.43 568.446C235.707 566.128 236.97 563.811 238.217 561.501L241.737 563.4ZM35.627 573.101C36.3396 570.6 37.1333 568.058 38.0085 565.473L41.7972 566.756C40.9418 569.282 40.1677 571.762 39.4738 574.197L35.627 573.101ZM234.072 577.308C232.772 579.612 231.458 581.913 230.13 584.209L226.668 582.205C227.989 579.923 229.295 577.635 230.587 575.343L234.072 577.308ZM32.1277 588.793C32.5318 586.209 33.0355 583.573 33.6393 580.885L37.5421 581.762C36.9566 584.368 36.4696 586.918 36.0797 589.411L32.1277 588.793ZM226.106 591.063C224.749 593.342 223.377 595.61 221.99 597.863L218.583 595.767C219.959 593.531 221.321 591.279 222.67 589.015L226.106 591.063ZM30.8976 604.878C30.8695 602.242 30.9642 599.541 31.1823 596.777L35.1699 597.091C34.9608 599.743 34.8706 602.324 34.8974 604.836L30.8976 604.878ZM217.766 604.61C216.334 606.856 214.889 609.082 213.429 611.283L210.095 609.072C211.541 606.892 212.974 604.686 214.393 602.46L217.766 604.61ZM32.7743 620.991C32.1655 618.392 31.7038 615.715 31.3901 612.959L35.3644 612.507C35.6611 615.113 36.0968 617.637 36.6689 620.079L32.7743 620.991ZM208.971 617.862C207.446 620.063 205.907 622.234 204.353 624.37L201.118 622.017C202.653 619.907 204.175 617.761 205.683 615.584L208.971 617.862ZM38.5036 636.246C37.22 633.855 36.0959 631.374 35.1336 628.802L38.8798 627.4C39.7796 629.805 40.8297 632.122 42.0277 634.353L38.5036 636.246ZM199.573 630.767C197.937 632.896 196.286 634.982 194.619 637.021L191.522 634.49C193.161 632.484 194.788 630.429 196.401 628.329L199.573 630.767ZM189.472 643.108C187.692 645.139 185.895 647.111 184.083 649.02L181.183 646.264C182.956 644.398 184.717 642.465 186.463 640.472L189.472 643.108ZM48.0531 649.45C46.1685 647.448 44.4326 645.355 42.8487 643.17L46.087 640.822C47.5682 642.865 49.1948 644.827 50.9658 646.709L48.0531 649.45ZM178.417 654.715C176.451 656.598 174.466 658.402 172.462 660.118L169.86 657.079C171.804 655.415 173.734 653.662 175.65 651.826L178.417 654.715ZM60.4538 659.931C58.1676 658.379 56.0058 656.747 53.9711 655.035L56.5461 651.974C58.471 653.594 60.523 655.143 62.7012 656.623L60.4538 659.931ZM74.5402 667.808C72.0358 666.656 69.6315 665.439 67.3291 664.158L69.2744 660.663C71.4828 661.892 73.7957 663.063 76.2121 664.174L74.5402 667.808ZM166.178 665.156C163.984 666.796 161.767 668.326 159.528 669.737L157.396 666.352C159.539 665.002 161.668 663.533 163.784 661.952L166.178 665.156ZM89.5115 673.567C86.9053 672.734 84.3794 671.851 81.9351 670.915L83.3656 667.179C85.7359 668.087 88.1903 668.946 90.7283 669.756L89.5115 673.567ZM152.479 673.734C150.019 674.974 147.532 676.062 145.02 676.988L143.638 673.234C145.998 672.365 148.345 671.338 150.679 670.162L152.479 673.734ZM104.972 677.697C102.321 677.113 99.7369 676.485 97.2187 675.816L98.2467 671.95C100.707 672.604 103.237 673.218 105.834 673.791L104.972 677.697ZM116.755 679.951C115.421 679.732 114.101 679.504 112.795 679.267L113.51 675.332C114.792 675.564 116.089 675.788 117.401 676.003C118.674 676.212 119.941 676.368 121.204 676.475L120.868 680.461C119.501 680.345 118.13 680.176 116.755 679.951ZM137.185 679.308C134.507 679.908 131.804 680.313 129.076 680.509L128.789 676.52C131.312 676.338 133.819 675.963 136.312 675.405L137.185 679.308Z" fill="#9D9E99"/>
<path d="M342.569 382.995C342.569 455.467 403.211 514.195 477.998 514.195C518.562 514.195 554.975 496.917 579.797 469.519H843.035L879.858 535.494L916.681 469.519H950.31V296.472H579.797V296.428C554.975 269.074 518.562 251.84 477.998 251.84C403.256 251.84 342.569 310.568 342.569 382.995Z" fill="#F3F2F2"/>
<path fill-rule="evenodd" clip-rule="evenodd" d="M577.71 297.849C578.158 298.525 578.925 298.972 579.797 298.972H947.81V467.019H916.681C915.775 467.019 914.94 467.509 914.498 468.301L879.858 530.365L845.218 468.301C844.776 467.509 843.941 467.019 843.035 467.019H579.797C579.092 467.019 578.419 467.317 577.945 467.84C553.586 494.726 517.842 511.695 477.998 511.695C404.516 511.695 345.069 454.012 345.069 382.995C345.069 312.025 404.56 254.34 477.998 254.34C517.716 254.34 553.358 271.157 577.71 297.849ZM580.939 293.972C555.671 266.557 518.897 249.34 477.998 249.34C401.952 249.34 340.069 309.112 340.069 382.995C340.069 456.922 401.906 516.695 477.998 516.695C518.877 516.695 555.633 499.452 580.9 472.019H841.567L877.675 536.713C878.117 537.504 878.952 537.994 879.858 537.994C880.764 537.994 881.599 537.504 882.041 536.713L918.149 472.019H950.31C951.691 472.019 952.81 470.9 952.81 469.519V296.472C952.81 295.091 951.691 293.972 950.31 293.972H580.939Z" fill="#525D77"/>
<path d="M422.023 483.765C364.573 453.772 343.107 384.355 374.077 328.717C405.047 273.08 476.726 252.291 534.176 282.284C591.626 312.277 613.093 381.694 582.122 437.332C551.152 492.969 479.473 513.758 422.023 483.765Z" fill="#F3B53F"/>
<path d="M918 369.617C918 391.195 880 430.554 880 430.554C880 430.554 842 391.171 842 369.617C842 348.064 859.009 330.554 880 330.554C900.991 330.554 918 348.039 918 369.617Z" fill="#F2B43F"/>
<path d="M630.081 350.339H816.798V355.774H630.081V350.339Z" fill="#DBD9D5"/>
<path d="M659.421 365.452H816.798V370.887H659.421V365.452Z" fill="#DBD9D5"/>
<path d="M639.299 380.565H816.798V386H639.299V380.565Z" fill="#DBD9D5"/>
<path d="M710.8 395.678H816.798V401.113H710.8V395.678Z" fill="#DBD9D5"/>
<path d="M513.593 367.716L501.022 375.716L500.993 375.68L498.906 377.004C494.548 379.777 489.336 380.733 484.242 379.69C479.149 378.648 474.776 375.73 471.925 371.481L438.773 321.977L432.596 325.908L457.684 363.365L424.673 334.538L421.102 341.082L449.049 365.486L418.206 351.869L417.753 359.564L455.464 376.215L418.644 368.99L420.419 376.679L456.288 383.715L423.701 385.467L427.376 392.475L461.968 390.622L432.484 399.954L437.585 405.904L469.475 395.813L406 436.223L410.032 442.247L483.032 395.769L432.091 442.659L437.154 447.893L518.144 373.348L515.612 370.735L513.593 367.716Z" fill="#525D77"/>
<path d="M525.851 359.289C523.215 358.746 520.631 360.397 520.075 362.967C519.518 365.537 521.21 368.056 523.846 368.599C526.482 369.142 529.066 367.492 529.623 364.922C530.18 362.344 528.487 359.825 525.851 359.289Z" fill="#525D77"/>
<path d="M537.901 353.324C537.196 353.244 536.468 353.208 535.756 353.208C535.058 353.462 534.367 353.758 533.691 354.106C533.127 354.396 532.578 354.721 532.051 355.069L535.748 360.383C535.748 360.383 535.756 360.375 535.763 360.375V360.397C536.208 360.397 536.654 360.419 537.092 360.469C543.121 361.121 547.665 366.08 547.665 372.002C547.665 378.402 542.326 383.607 535.763 383.607V390.803C546.395 390.803 555.045 382.369 555.045 372.002C555.038 362.41 547.665 354.381 537.901 353.324Z" fill="#525D77"/>
<path d="M1046 609.977C1046 577.391 1072.18 550.977 1104.5 550.977C1136.8 550.977 1163 577.391 1163 609.977C1163 642.563 1136.8 668.977 1104.5 668.977C1072.18 668.977 1046 642.563 1046 609.977Z" fill="#FC3F1D"/>
<path d="M1111.99 584.407H1106.58C1096.67 584.407 1091.46 589.469 1091.46 596.932C1091.46 605.369 1095.06 609.322 1102.46 614.39L1108.58 618.544L1091.01 645.017H1077.88L1093.65 621.335C1084.58 614.78 1079.49 608.414 1079.49 597.646C1079.49 584.147 1088.82 574.931 1106.52 574.931H1124.09V644.952H1111.99V584.407Z" fill="white"/>
<path d="M1202.49 210.342C1186.32 210.42 1183.71 219.99 1182.84 228.082L1182.44 231.661H1179.19L1178.8 228.082C1177.92 219.99 1175.23 210.419 1159.62 210.342C1157 205.05 1155.89 200.771 1155.89 195.947C1155.89 183.887 1165.96 172.605 1180.86 172.605C1195.76 172.605 1205.66 183.809 1205.66 196.025C1205.66 200.771 1205.19 205.05 1202.49 210.342ZM1180.7 157.977C1156.13 157.977 1136 177.74 1136 201.938C1136 226.214 1156.13 245.977 1180.7 245.977C1205.5 245.977 1225.55 226.214 1225.55 201.938C1225.55 177.74 1205.5 157.977 1180.7 157.977Z" fill="#29B24A"/>
<path d="M382 650.678C382 647.8 381.756 645.067 381.337 642.408H341.89V658.838H364.476C363.464 664.23 360.496 668.784 356.098 671.881V682.81H369.573C377.462 675.196 382 663.975 382 650.678Z" fill="#4285F4"/>
<path d="M341.89 693.411C353.201 693.411 362.661 689.477 369.573 682.81L356.098 671.881C352.328 674.504 347.545 676.107 341.89 676.107C330.964 676.107 321.713 668.42 318.397 658.037H304.503V669.294C311.38 683.575 325.518 693.411 341.89 693.411Z" fill="#34A853"/>
<path d="M318.397 658.037C317.524 655.414 317.07 652.609 317.07 649.694C317.07 646.78 317.559 643.974 318.397 641.351V630.094H304.503C301.641 635.996 300 642.626 300 649.694C300 656.762 301.641 663.392 304.503 669.294L318.397 658.037Z" fill="#FBBC05"/>
<path d="M341.89 623.282C348.069 623.282 353.585 625.504 357.948 629.839L369.887 617.38C362.661 610.312 353.201 605.977 341.89 605.977C325.518 605.977 311.38 615.813 304.503 630.094L318.397 641.351C321.713 630.969 330.964 623.282 341.89 623.282Z" fill="#EA4335"/>
<path d="M904 550.977C904 559.261 897.284 565.977 889 565.977C880.716 565.977 874 559.261 874 550.977C874 542.693 880.716 535.977 889 535.977C897.284 535.977 904 542.693 904 550.977Z" fill="#F2B43F"/>
<path d="M97.5 580.777C130.361 580.777 157 553.511 157 519.877C157 486.243 130.361 458.977 97.5 458.977C64.6391 458.977 38 486.243 38 519.877C38 553.511 64.6391 580.777 97.5 580.777Z" fill="url(#paint0_linear_270_3)"/>
<path fill-rule="evenodd" clip-rule="evenodd" d="M64.901 519.218C82.2407 511.51 93.784 506.389 99.5804 503.904C116.078 496.856 119.546 495.639 121.775 495.588C122.271 495.588 123.361 495.689 124.104 496.298C124.698 496.805 124.847 497.464 124.946 497.971C125.045 498.478 125.144 499.543 125.045 500.354C124.153 509.989 120.289 533.365 118.307 544.115C117.465 548.679 115.83 550.2 114.245 550.352C110.777 550.657 108.151 548.02 104.832 545.789C99.5804 542.29 96.6574 540.109 91.5546 536.661C85.6591 532.706 89.4738 530.526 92.8427 526.976C93.7344 526.063 108.944 511.865 109.241 510.597C109.291 510.445 109.291 509.837 108.944 509.533C108.597 509.228 108.102 509.33 107.705 509.431C107.16 509.533 98.8373 515.212 82.637 526.418C80.259 528.092 78.1287 528.903 76.1966 528.852C74.0663 528.801 70.0038 527.635 66.9322 526.621C63.2165 525.404 60.244 524.745 60.4917 522.615C60.6404 521.5 62.1266 520.384 64.901 519.218Z" fill="white"/>
<path d="M249 188.5C249 210.315 231.315 228 209.5 228C187.685 228 170 210.315 170 188.5C170 166.685 187.685 149 209.5 149C231.315 149 249 166.685 249 188.5Z" fill="#4C75A3"/>
<path fill-rule="evenodd" clip-rule="evenodd" d="M207.173 201.904C207.85 201.955 208.529 201.93 209.209 201.93H209.61C210.584 201.93 211.725 202.068 212.388 201.355C212.73 200.987 212.777 200.351 212.784 200.15C212.785 200.109 212.784 200.07 212.784 200.028C212.786 199.535 212.861 196.177 214.524 195.649C216.294 195.088 218.567 199.389 220.977 201.043C222.854 202.332 225.329 202.004 227.606 201.972L229.287 201.949C230.179 201.936 231.11 201.983 231.915 201.599C232.654 201.247 233.276 200.528 232.398 199.072C232.267 198.856 231.467 197.112 227.607 193.53C223.567 189.78 224.109 190.387 228.975 183.901C231.938 179.951 233.123 177.54 232.753 176.507C232.124 174.753 229.286 175.789 227.423 175.801L223.933 175.822C223.289 175.826 222.582 175.663 222.03 175.993C221.446 176.343 221.272 177.091 221.011 177.719C220.552 178.826 219.713 180.725 218.711 182.428C215.48 187.912 214.189 188.203 213.661 187.861C212.432 187.068 212.739 184.673 212.739 182.971C212.739 177.656 213.546 175.44 211.169 174.866C210.381 174.676 209.8 174.55 207.783 174.529C205.195 174.503 203.005 174.537 201.764 175.145C200.939 175.549 200.302 176.449 200.69 176.501C201.17 176.565 202.255 176.794 202.831 177.577C204.175 179.406 203.69 181.997 203.576 184.263C203.495 185.87 203.238 187.519 202.551 187.894C201.573 188.427 200.232 187.339 197.352 182.363C196.247 180.453 195.344 178.392 194.961 177.479C194.826 177.158 194.709 176.826 194.505 176.543C194.414 176.417 194.3 176.287 194.165 176.188C193.516 175.711 192.646 175.741 191.84 175.746L186.919 175.778C186.411 175.782 185.896 175.763 185.406 175.899C185.152 175.969 184.895 176.082 184.743 176.262C184.193 176.913 184.881 177.88 185.235 178.655C186.725 181.924 191.236 191.286 196.223 196.479C200.471 200.901 205.155 201.751 207.173 201.904Z" fill="white"/>
<defs>
<linearGradient id="paint0_linear_270_3" x1="97.4505" y1="458.977" x2="97.4505" y2="579.814" gradientUnits="userSpaceOnUse">
<stop stop-color="#2AABEE"/>
<stop offset="1" stop-color="#229ED9"/>
</linearGradient>
</defs>
</svg>
