<svg width="1304" height="734" viewBox="0 0 1304 734" fill="none" xmlns="http://www.w3.org/2000/svg">
<mask id="mask0_433_157" style="mask-type:alpha" maskUnits="userSpaceOnUse" x="662" y="86" width="642" height="645">
<rect x="662" y="86.9775" width="642" height="644" fill="#D9D9D9"/>
</mask>
<g mask="url(#mask0_433_157)">
<path d="M662 723.216V737.973H715.158V723.216H662ZM670.078 88.4775V281.886L716.005 383.652H662V413.202H729.339L765.283 492.798C726.799 509.059 699.814 546.294 699.814 589.44C699.814 644.679 743.907 690.045 799.817 694.349H799.888L837.827 754.405H872.327L834.068 691.855C881.83 680.719 917.457 639.042 917.457 589.44C917.457 576.254 914.988 563.648 910.367 552.033L1123.57 453.82H1303.61V424.27H1218.21L1039.33 235.973H1303.61V221.181H1025.29L895.587 88.4775H670.078ZM808.671 665.244C765.53 665.244 730.432 631.219 730.432 589.44C730.432 547.661 765.53 513.636 808.671 513.636C851.811 513.636 886.945 547.661 886.945 589.44C886.945 631.219 851.811 665.244 808.671 665.244ZM1176.72 424.236H1116.69L895.587 526.071C875.657 500.586 844.122 484.052 808.671 484.052C804.12 484.052 799.535 484.36 795.09 484.906L700.59 275.634V88.4776L858.327 88.4775L1176.72 424.236ZM1278.33 754.405H1303.64V733.464L1278.33 754.405Z" fill="#DBD9D5"/>
<path d="M1188.12 205.809V122.763H1156.9V88.0889H1102.01V205.809H1188.12Z" fill="#DBD9D5"/>
<path d="M738.157 478.347L715 492.977L700.5 513.977L683.5 540.977L676 581.477H662V426.559H716.605L738.157 478.347Z" fill="#DBD9D5"/>
<path d="M717.451 677.952V702.821H662V592.207H677.133C681.471 624.934 695.969 654.449 717.451 677.952Z" fill="#DBD9D5"/>
<path d="M982.891 463.078L936.435 365.889H879.855L783.238 409.308L808.459 462.736H808.671C844.404 462.736 876.856 476.571 900.455 499.049L982.891 463.078Z" fill="#DBD9D5"/>
<path d="M1303.64 342.044V406.575H1230.98L1169.63 342.044H1303.64Z" fill="#DBD9D5"/>
<path d="M814.827 756.978H749.762L749.762 734.626L783.837 706.887L814.827 756.978Z" fill="#DBD9D5"/>
<path d="M1062.4 693.256L970.721 600.713L935.553 627.325C925.111 660.188 901.407 687.448 870.542 703.163L901.827 755.477H1007.33L1062.4 693.256Z" fill="#DBD9D5"/>
<path d="M962.573 559.856L1123.6 482.754H1203.92V618.374L1078.7 678.259L962.573 559.856Z" fill="#DBD9D5"/>
<path d="M726.764 101.855V272.286L775.901 388.64L865.498 345.631H1074.46L840.1 101.855H726.764Z" fill="#F3B53F"/>
<path d="M692.9 369.646H662V300.401L692.9 369.646Z" fill="#DBD9D5"/>
<path d="M1303.64 482.754H1226.18V571.437H1303.64V482.754Z" fill="#DBD9D5"/>
<path d="M1303.64 585.272H1226.18V616.393H1303.64V585.272Z" fill="#DBD9D5"/>
<path d="M1139.33 755.478H1035.83L1080.07 706.921L1139.33 755.478Z" fill="#DBD9D5"/>
<path d="M1170.83 754.978H1252.83L1270.31 741.082L1206.88 687.585V639.486L1095.06 694.657L1170.83 754.978Z" fill="#DBD9D5"/>
<path d="M1303.64 630.16V705.588L1282.9 724.445L1226.18 678.259V630.16H1303.64Z" fill="#DBD9D5"/>
<path d="M1084.34 253.874L1156.9 327.697H1226.18V253.874H1084.34Z" fill="#DBD9D5"/>
<path d="M1303.64 293.74H1240.57V327.697H1303.64V293.74Z" fill="#DBD9D5"/>
<path d="M1277.64 253.874H1240.57V284.722H1277.64V253.874Z" fill="#DBD9D5"/>
<path d="M1303.61 253.84H1286.85V284.687H1303.61V253.84Z" fill="#DBD9D5"/>
<path d="M958.129 365.889H1074.46V419.761L1000.11 452.453L958.129 365.889Z" fill="#DBD9D5"/>
<path d="M808.671 640.408C837.504 640.408 860.877 617.773 860.877 589.85C860.877 561.927 837.504 539.291 808.671 539.291C779.838 539.291 756.465 561.927 756.465 589.85C756.465 617.773 779.838 640.408 808.671 640.408Z" fill="#F3B53F"/>
<path d="M1290.77 122.763H1201.1V205.809H1290.77V122.763Z" fill="#DBD9D5"/>
<path d="M927.827 88.4775L967.229 131.918H1084.62V88.4775H927.827Z" fill="#DBD9D5"/>
<path d="M980.562 143.294L1039.89 205.809H1084.34V143.294H980.562Z" fill="#DBD9D5"/>
<path d="M1261.42 88.4775H1171.79V103.359H1261.42V88.4775Z" fill="#F3B53F"/>
<path d="M894 548.978L887.5 541.978L1128.72 435.407H1202.16L873.327 87.9775H881.827L1218.17 442.239H1130.2L894 548.978Z" fill="#F3B53F"/>
<path d="M855.827 759.468L806.236 679.346L811.81 678.833C812.233 678.799 855.268 674.529 884.157 637.635C912.73 601.185 887.438 549.328 887.156 548.782L885.604 545.639L889.766 545.639L892 549.021H894.987C900.384 561.455 917.033 606.958 889.766 641.768C864.827 673.573 830.928 682.523 817.842 684.88L863.827 759.468H855.827Z" fill="#525D77"/>
</g>
<mask id="mask1_433_157" style="mask-type:alpha" maskUnits="userSpaceOnUse" x="0" y="89" width="642" height="645">
<rect x="642" y="733.978" width="642" height="644" transform="rotate(-180 642 733.978)" fill="#D9D9D9"/>
</mask>
<g mask="url(#mask1_433_157)">
<path d="M642 97.7394V82.9818H588.842V97.7394H642ZM633.922 732.478V539.069L587.995 437.303H642V407.753H574.661L538.717 328.157C577.201 311.897 604.186 274.661 604.186 231.515C604.186 176.276 560.093 130.91 504.183 126.606H504.112L466.173 66.5503H431.673L469.932 129.1C422.17 140.236 386.543 181.913 386.543 231.515C386.543 244.701 389.012 257.307 393.633 268.922L180.435 367.135L0.394226 367.135V396.685H85.7936L264.67 584.982H0.394226V599.774H278.709L408.413 732.478H633.922ZM495.329 155.711C538.47 155.711 573.568 189.736 573.568 231.515C573.568 273.294 538.47 307.319 495.329 307.319C452.189 307.319 417.055 273.294 417.055 231.515C417.055 189.736 452.189 155.711 495.329 155.711ZM127.276 396.719H187.313L408.413 294.884C428.343 320.369 459.878 336.903 495.329 336.903C499.88 336.903 504.465 336.595 508.91 336.049L603.41 545.321V732.478L445.673 732.478L127.276 396.719ZM25.6729 66.5503H0.359009V87.491L25.6729 66.5503Z" fill="#DBD9D5"/>
<path d="M115.883 615.146V698.193H147.1V732.866H201.987V615.146H115.883Z" fill="#DBD9D5"/>
<path d="M565.843 342.608H642V394.396H587.395L565.843 342.608Z" fill="#DBD9D5"/>
<path d="M586.549 143.003V118.134H642V228.748H626.867C622.529 196.022 608.031 166.506 586.549 143.003Z" fill="#DBD9D5"/>
<path d="M321.109 357.878L367.565 455.066H424.145L520.762 411.647L495.541 358.219H495.329C459.596 358.219 427.144 344.384 403.545 321.906L321.109 357.878Z" fill="#DBD9D5"/>
<path d="M0.358807 478.911V414.38H73.0241L134.366 478.911H0.358807Z" fill="#DBD9D5"/>
<path d="M489.173 63.9775H554.238L554.238 86.3294L520.163 114.068L489.173 63.9775Z" fill="#DBD9D5"/>
<path d="M241.601 127.699L333.279 220.242L368.447 193.631C378.889 160.767 402.593 133.507 433.458 117.792L402.173 65.478H296.673L241.601 127.699Z" fill="#DBD9D5"/>
<path d="M341.427 261.099L180.399 338.201H100.079V202.581L225.303 142.696L341.427 261.099Z" fill="#DBD9D5"/>
<path d="M577.236 719.1V548.669L528.099 432.315L438.502 475.325H229.537L463.9 719.1H577.236Z" fill="#DBD9D5"/>
<path d="M611.1 451.309H642V520.554L611.1 451.309Z" fill="#DBD9D5"/>
<path d="M0.358719 338.201H77.8213V249.518H0.358719V338.201Z" fill="#DBD9D5"/>
<path d="M0.358719 235.683H77.8213V204.562H0.358719V235.683Z" fill="#DBD9D5"/>
<path d="M164.673 65.4775H268.173L223.928 114.034L164.673 65.4775Z" fill="#DBD9D5"/>
<path d="M133.173 65.9775L51.1729 65.9775L33.6934 79.8731L97.1167 133.37V181.469L208.937 126.298L133.173 65.9775Z" fill="#F3B53F"/>
<path d="M0.358718 190.795V115.367L21.1001 96.5097L77.8213 142.696V190.795H0.358718Z" fill="#DBD9D5"/>
<path d="M219.66 567.081L147.101 493.258H77.8219V567.081H219.66Z" fill="#DBD9D5"/>
<path d="M0.359077 527.215H63.4297V493.259H0.359077V527.215Z" fill="#DBD9D5"/>
<path d="M26.3563 567.081H63.4297V536.233H26.3563V567.081Z" fill="#DBD9D5"/>
<path d="M0.394083 567.115H17.1494V536.268H0.394083V567.115Z" fill="#DBD9D5"/>
<path d="M345.871 455.066H229.536V401.194L303.895 368.502L345.871 455.066Z" fill="#DBD9D5"/>
<path d="M495.329 180.547C466.496 180.547 443.123 203.182 443.123 231.105C443.123 259.028 466.496 281.664 495.329 281.664C524.162 281.664 547.535 259.028 547.535 231.105C547.535 203.182 524.162 180.547 495.329 180.547Z" fill="#F3B53F"/>
<path d="M13.2339 698.192H102.901V615.146H13.2339V698.192Z" fill="#DBD9D5"/>
<path d="M376.173 732.478L336.771 689.037H219.378V732.478H376.173Z" fill="#DBD9D5"/>
<path d="M323.438 677.661L264.106 615.146H219.66V677.661H323.438Z" fill="#DBD9D5"/>
<path d="M1.67127e-06 732.978H132V717.978H1.67127e-06V732.978Z" fill="#F3B53F"/>
</g>
<path d="M535.5 504.5C736 518.5 612.9 578.5 705.999 675.523C788.499 761.5 916.499 705.5 953.999 591C991.499 476.5 1190.34 543.256 1251 452.978C1294 388.978 1229.17 257.978 1213 239.978" stroke="#9D9E99" stroke-width="4" stroke-dasharray="8 8"/>
<path d="M593.406 287.229C613.214 264.002 641.432 202.883 595.841 144.218C538.853 70.8858 420.5 85.4775 367.5 144.218C287.202 233.213 246.562 216.706 248 208.977" stroke="#9D9E99" stroke-width="4" stroke-dasharray="8 8"/>
<path d="M1113.5 546.978C1221.5 388.5 1041 389.5 1056.89 173.195C1060.05 130.193 952.992 49.9309 828.553 173.195C747 253.978 665.062 292.706 666.5 284.977" stroke="#9D9E99" stroke-width="4" stroke-dasharray="8 8"/>
<path d="M363.904 348.814C345.251 335.695 298.073 318.208 258.578 353.211C185.5 417.976 231.614 508.021 276.001 547C374.5 633.5 451.296 642.693 445.5 642" stroke="#9D9E99" stroke-width="4" stroke-dasharray="8 8"/>
<path d="M60.4999 583C31.4217 654 92.1948 712.338 157 676.001C214.921 643.524 233.174 601.211 289 466.5C312 411 322.5 420.5 342 411" stroke="#9D9E99" stroke-width="4" stroke-dasharray="8 8"/>
<path d="M342.569 379.996C342.569 452.467 403.21 511.196 477.997 511.196C518.562 511.196 554.974 493.917 579.797 466.52H843.034L879.857 532.495L916.681 466.52H950.31V293.473H579.797V293.428C554.974 266.075 518.562 248.841 477.997 248.841C403.256 248.841 342.569 307.569 342.569 379.996Z" fill="#F3F2F2" stroke="#525D77" stroke-width="5" stroke-linejoin="round"/>
<path d="M422.022 480.765C364.572 450.772 343.106 381.355 374.076 325.717C405.046 270.08 476.725 249.291 534.176 279.285C591.626 309.278 613.092 378.695 582.122 434.332C551.151 489.969 479.472 510.758 422.022 480.765Z" fill="#F3B53F"/>
<path d="M918 366.618C918 388.196 880 427.555 880 427.555C880 427.555 842 388.171 842 366.618C842 345.064 859.009 327.555 880 327.555C900.991 327.555 918 345.039 918 366.618Z" fill="#F2B43F"/>
<path d="M630.08 347.34H816.797V352.775H630.08V347.34Z" fill="#DBD9D5"/>
<path d="M659.42 362.453H816.797V367.888H659.42V362.453Z" fill="#DBD9D5"/>
<path d="M639.298 377.565H816.797V383.001H639.298V377.565Z" fill="#DBD9D5"/>
<path d="M710.799 392.679H816.797V398.114H710.799V392.679Z" fill="#DBD9D5"/>
<path d="M513.593 364.717L501.022 372.716L500.993 372.68L498.906 374.005C494.548 376.778 489.336 377.733 484.242 376.691C479.149 375.648 474.776 372.731 471.925 368.481L438.773 318.978L432.596 322.909L457.684 360.366L424.673 331.538L421.102 338.083L449.049 362.487L418.206 348.869L417.753 356.565L455.464 373.216L418.644 365.991L420.419 373.679L456.288 380.716L423.701 382.468L427.376 389.476L461.968 387.622L432.484 396.954L437.585 402.905L469.475 392.813L406 433.224L410.032 439.247L483.032 392.77L432.091 439.66L437.154 444.894L518.144 370.349L515.612 367.735L513.593 364.717Z" fill="#525D77"/>
<path d="M525.851 356.29C523.215 355.747 520.632 357.398 520.075 359.968C519.518 362.538 521.211 365.057 523.847 365.6C526.482 366.143 529.066 364.492 529.623 361.922C530.18 359.345 528.487 356.826 525.851 356.29Z" fill="#525D77"/>
<path d="M537.902 350.325C537.196 350.245 536.469 350.209 535.756 350.209C535.058 350.462 534.367 350.759 533.692 351.107C533.127 351.396 532.578 351.722 532.051 352.07L535.748 357.383C535.748 357.383 535.756 357.376 535.763 357.376V357.398C536.209 357.398 536.654 357.42 537.092 357.47C543.121 358.122 547.665 363.081 547.665 369.003C547.665 375.402 542.327 380.608 535.763 380.608V387.804C546.395 387.804 555.045 379.37 555.045 369.003C555.038 359.41 547.665 351.382 537.902 350.325Z" fill="#525D77"/>
<path d="M1046 617.567C1046 579.133 1076.88 547.978 1115 547.978C1153.1 547.978 1184 579.133 1184 617.567C1184 656.002 1153.1 687.157 1115 687.157C1076.88 687.157 1046 656.002 1046 617.567V617.567Z" fill="#FC3F1D"/>
<path d="M1123.83 587.407H1117.46C1105.77 587.407 1099.62 593.377 1099.62 602.18C1099.62 612.132 1103.87 616.794 1112.6 622.772L1119.81 627.671L1099.09 658.896H1083.6L1102.2 630.963C1091.5 623.231 1085.5 615.723 1085.5 603.023C1085.5 587.1 1096.51 576.23 1117.38 576.23H1138.1V658.82H1123.83V587.407Z" fill="white"/>
<path d="M1202.49 207.342C1186.32 207.42 1183.71 216.99 1182.84 225.082L1182.44 228.661H1179.19L1178.8 225.082C1177.92 216.99 1175.23 207.42 1159.62 207.342C1157 202.051 1155.89 197.772 1155.89 192.948C1155.89 180.888 1165.96 169.605 1180.86 169.605C1195.76 169.605 1205.66 180.809 1205.66 193.026C1205.66 197.772 1205.19 202.051 1202.49 207.342ZM1180.7 154.978C1156.13 154.978 1136 174.741 1136 198.938C1136 223.215 1156.13 242.978 1180.7 242.978C1205.5 242.978 1225.55 223.215 1225.55 198.938C1225.55 174.741 1205.5 154.978 1180.7 154.978Z" fill="#29B24A"/>
<path d="M578.001 633.416C578.001 629.204 577.619 625.205 576.965 621.313H515.39V645.358H550.646C549.066 653.248 544.434 659.913 537.568 664.444V680.439H558.602C570.917 669.296 578.001 652.875 578.001 633.416Z" fill="#4285F4"/>
<path d="M515.39 695.953C533.045 695.953 547.812 690.195 558.602 680.439L537.568 664.445C531.683 668.283 524.218 670.629 515.39 670.629C498.334 670.629 483.894 659.38 478.717 644.186H457.029V660.66C467.764 681.559 489.833 695.953 515.39 695.953Z" fill="#34A853"/>
<path d="M478.717 644.186C477.355 640.347 476.646 636.242 476.646 631.977C476.646 627.712 477.409 623.607 478.717 619.768V603.294H457.029C452.561 611.931 450 621.634 450 631.977C450 642.32 452.561 652.023 457.029 660.66L478.717 644.186Z" fill="#FBBC05"/>
<path d="M515.39 593.324C525.035 593.324 533.645 596.576 540.456 602.921L559.092 584.687C547.812 574.344 533.045 568 515.39 568C489.833 568 467.764 582.395 457.029 603.294L478.717 619.768C483.894 604.573 498.334 593.324 515.39 593.324Z" fill="#EA4335"/>
<path d="M904 547.978C904 556.262 897.284 562.978 889 562.978C880.716 562.978 874 556.262 874 547.978C874 539.693 880.716 532.978 889 532.978C897.284 532.978 904 539.693 904 547.978Z" fill="#F2B43F"/>
<path d="M107 597.225C145.108 597.225 176 565.605 176 526.601C176 487.597 145.108 455.978 107 455.978C68.8924 455.978 38 487.597 38 526.601C38 565.605 68.8924 597.225 107 597.225Z" fill="url(#paint0_linear_433_157)"/>
<path fill-rule="evenodd" clip-rule="evenodd" d="M69.1964 525.836C89.3046 516.898 102.691 510.959 109.413 508.077C128.544 499.904 132.566 498.492 135.151 498.434C135.726 498.434 136.99 498.551 137.852 499.257C138.541 499.845 138.713 500.609 138.828 501.197C138.943 501.785 139.058 503.02 138.943 503.961C137.909 515.134 133.428 542.243 131.13 554.709C130.153 560.001 128.257 561.765 126.419 561.942C122.397 562.295 119.352 559.237 115.503 556.65C109.413 552.592 106.023 550.063 100.106 546.065C93.2688 541.478 97.6926 538.95 101.599 534.833C102.634 533.775 120.271 517.31 120.616 515.84C120.673 515.663 120.673 514.958 120.271 514.605C119.869 514.252 119.295 514.369 118.835 514.487C118.203 514.605 108.551 521.191 89.7642 534.186C87.0065 536.127 84.5361 537.068 82.2955 537.009C79.825 536.95 75.114 535.598 71.5519 534.422C67.243 533.01 63.7959 532.246 64.0831 529.776C64.2555 528.482 65.9791 527.189 69.1964 525.836Z" fill="white"/>
<path d="M341.8 255H300.2C294.014 255 289 260.014 289 266.2V307.8C289 313.986 294.014 319 300.2 319H341.8C347.986 319 353 313.986 353 307.8V266.2C353 260.014 347.986 255 341.8 255Z" fill="url(#paint1_linear_433_157)"/>
<path d="M316.42 276.38L318.42 281.81C318.469 281.932 318.485 282.064 318.467 282.193C318.45 282.323 318.399 282.446 318.32 282.55C317.891 283.173 317.395 283.746 316.84 284.26C316.679 284.387 316.573 284.571 316.543 284.773C316.513 284.976 316.562 285.183 316.68 285.35C317.91 287 321.1 291 325.25 292.43C325.41 292.483 325.583 292.484 325.743 292.431C325.903 292.379 326.042 292.277 326.14 292.14L327.8 289.93C327.914 289.781 328.076 289.676 328.259 289.634C328.441 289.592 328.633 289.615 328.8 289.7L334 292.3C334.181 292.386 334.323 292.536 334.397 292.722C334.471 292.907 334.473 293.114 334.4 293.3C333.83 294.92 332.04 298.87 328.21 298.23C323.202 297.462 318.647 294.891 315.4 291C312.26 287.08 306.06 277 315.59 275.86C315.767 275.843 315.944 275.884 316.094 275.979C316.244 276.073 316.359 276.214 316.42 276.38Z" fill="white"/>
<path d="M322.6 309.8C318.417 309.806 314.303 308.728 310.66 306.67L298.66 309.75L303.07 299.84C300.404 296.091 298.981 291.6 299 287C299 274.43 309.59 264.2 322.6 264.2C335.61 264.2 346.2 274.43 346.2 287C346.2 299.57 335.61 309.8 322.6 309.8ZM311.29 302.37L312.02 302.82C315.2 304.783 318.863 305.822 322.6 305.82C333.41 305.82 342.2 297.39 342.2 287.02C342.2 276.65 333.41 268.2 322.6 268.2C311.79 268.2 303 276.63 303 287C303.005 291.125 304.416 295.125 307 298.34L307.75 299.29L304.14 305.41L311.29 302.37Z" fill="white"/>
<path d="M191.098 243.196C222.08 243.196 247.196 218.08 247.196 187.098C247.196 156.116 222.08 131 191.098 131C160.116 131 135 156.116 135 187.098C135 218.08 160.116 243.196 191.098 243.196Z" fill="#4D76A1"/>
<path fill-rule="evenodd" clip-rule="evenodd" d="M188.979 211.702H193.382C193.382 211.702 194.712 211.556 195.391 210.824C196.016 210.152 195.996 208.89 195.996 208.89C195.996 208.89 195.91 202.982 198.652 202.112C201.355 201.255 204.826 207.822 208.505 210.347C211.287 212.258 213.401 211.839 213.401 211.839L223.238 211.702C223.238 211.702 228.384 211.385 225.944 207.339C225.744 207.008 224.523 204.346 218.63 198.876C212.462 193.151 213.288 194.077 220.718 184.174C225.243 178.143 227.052 174.461 226.487 172.884C225.948 171.382 222.62 171.779 222.62 171.779L211.544 171.848C211.544 171.848 210.723 171.736 210.114 172.1C209.519 172.457 209.136 173.289 209.136 173.289C209.136 173.289 207.383 177.956 205.045 181.925C200.113 190.3 198.141 190.742 197.335 190.222C195.46 189.01 195.928 185.353 195.928 182.755C195.928 174.639 197.159 171.255 193.531 170.379C192.327 170.088 191.441 169.896 188.362 169.865C184.41 169.824 181.065 169.877 179.171 170.805C177.911 171.422 176.939 172.797 177.531 172.876C178.263 172.974 179.921 173.323 180.8 174.52C181.935 176.064 181.895 179.532 181.895 179.532C181.895 179.532 182.547 189.086 180.372 190.273C178.879 191.087 176.831 189.425 172.434 181.827C170.181 177.935 168.48 173.633 168.48 173.633C168.48 173.633 168.152 172.829 167.567 172.399C166.857 171.878 165.865 171.712 165.865 171.712L155.34 171.781C155.34 171.781 153.76 171.825 153.18 172.512C152.664 173.123 153.139 174.387 153.139 174.387C153.139 174.387 161.379 193.665 170.709 203.38C179.264 212.287 188.979 211.702 188.979 211.702Z" fill="white"/>
<defs>
<linearGradient id="paint0_linear_433_157" x1="106.943" y1="455.978" x2="106.943" y2="596.107" gradientUnits="userSpaceOnUse">
<stop stop-color="#2AABEE"/>
<stop offset="1" stop-color="#229ED9"/>
</linearGradient>
<linearGradient id="paint1_linear_433_157" x1="321" y1="259" x2="321" y2="319.81" gradientUnits="userSpaceOnUse">
<stop stop-color="#1DF47C"/>
<stop offset="0.31" stop-color="#12DF63"/>
<stop offset="0.75" stop-color="#05C443"/>
<stop offset="1" stop-color="#00BA37"/>
</linearGradient>
</defs>
</svg>
