<svg width="1304" height="648" viewBox="0 0 1304 648" fill="none" xmlns="http://www.w3.org/2000/svg">
<mask id="mask0_260_98" style="mask-type:alpha" maskUnits="userSpaceOnUse" x="662" y="0" width="642" height="645">
<path d="M662 0.977051H1304V644.977H662V0.977051Z" fill="#D9D9D9"/>
</mask>
<g mask="url(#mask0_260_98)">
<path d="M662 637.215V651.973H715.158V637.215H662ZM670.078 2.47705V195.885L716.005 297.652H662V327.201H729.339L765.283 406.797C726.799 423.058 699.814 460.294 699.814 503.439C699.814 558.678 743.907 604.045 799.817 608.349H799.888L837.827 668.404H872.327L834.068 605.855C881.83 594.718 917.457 553.042 917.457 503.439C917.457 490.253 914.988 477.648 910.367 466.033L1123.57 367.819H1303.61V338.27H1218.21L1039.33 149.973H1303.61V135.181H1025.29L895.587 2.47705H670.078ZM808.671 579.243C765.53 579.243 730.432 545.219 730.432 503.439C730.432 461.66 765.53 427.636 808.671 427.636C851.811 427.636 886.945 461.66 886.945 503.439C886.945 545.219 851.811 579.243 808.671 579.243ZM1176.72 338.236H1116.69L895.587 440.07C875.657 414.586 844.122 398.052 808.671 398.052C804.12 398.052 799.535 398.359 795.09 398.906L700.59 189.634V2.47707L858.327 2.47705L1176.72 338.236ZM1278.33 668.404H1303.64V647.464L1278.33 668.404Z" fill="#DBD9D5"/>
<path d="M1188.12 119.808V36.7621H1156.9V2.08838H1102.01V119.808H1188.12Z" fill="#DBD9D5"/>
<path d="M738.157 392.347L715 406.977L700.5 427.977L683.5 454.977L676 495.477H662V340.559H716.605L738.157 392.347Z" fill="#DBD9D5"/>
<path d="M717.451 591.952V616.821H662V506.207H677.133C681.471 538.933 695.969 568.449 717.451 591.952Z" fill="#DBD9D5"/>
<path d="M982.891 377.077L936.435 279.888H879.855L783.238 323.307L808.459 376.735H808.671C844.404 376.735 876.856 390.571 900.455 413.049L982.891 377.077Z" fill="#DBD9D5"/>
<path d="M1303.64 256.043V320.574H1230.98L1169.63 256.043H1303.64Z" fill="#DBD9D5"/>
<path d="M814.827 670.977H749.762L749.763 648.625L783.838 620.886L814.827 670.977Z" fill="#DBD9D5"/>
<path d="M1062.4 607.256L970.721 514.713L935.553 541.325C925.111 574.188 901.407 601.448 870.542 617.163L901.827 669.477H1007.33L1062.4 607.256Z" fill="#DBD9D5"/>
<path d="M962.573 473.856L1123.6 396.754H1203.92V532.374L1078.7 592.259L962.573 473.856Z" fill="#DBD9D5"/>
<path d="M726.764 15.8555V186.286L775.901 302.64L865.498 259.631H1074.46L840.1 15.8555H726.764Z" fill="#F3B53F"/>
<path d="M692.9 283.646H662V214.401L692.9 283.646Z" fill="#DBD9D5"/>
<path d="M1303.64 396.754H1226.18V485.437H1303.64V396.754Z" fill="#DBD9D5"/>
<path d="M1303.64 499.272H1226.18V530.393H1303.64V499.272Z" fill="#DBD9D5"/>
<path d="M1139.33 669.477H1035.83L1080.07 620.92L1139.33 669.477Z" fill="#DBD9D5"/>
<path d="M1170.83 668.977H1252.83L1270.31 655.082L1206.88 601.585V553.486L1095.06 608.656L1170.83 668.977Z" fill="#DBD9D5"/>
<path d="M1303.64 544.16V619.588L1282.9 638.445L1226.18 592.259V544.16H1303.64Z" fill="#DBD9D5"/>
<path d="M1084.34 167.873L1156.9 241.696H1226.18V167.873H1084.34Z" fill="#DBD9D5"/>
<path d="M1303.64 207.74H1240.57V241.696H1303.64V207.74Z" fill="#DBD9D5"/>
<path d="M1277.64 167.873H1240.57V198.721H1277.64V167.873Z" fill="#DBD9D5"/>
<path d="M1303.61 167.839H1286.85V198.687H1303.61V167.839Z" fill="#DBD9D5"/>
<path d="M958.128 279.888H1074.46V333.761L1000.1 366.453L958.128 279.888Z" fill="#DBD9D5"/>
<path d="M808.671 554.408C837.504 554.408 860.877 531.772 860.877 503.85C860.877 475.927 837.504 453.291 808.671 453.291C779.838 453.291 756.465 475.927 756.465 503.85C756.465 531.772 779.838 554.408 808.671 554.408Z" fill="#F3B53F"/>
<path d="M1290.77 36.7622H1201.1V119.808H1290.77V36.7622Z" fill="#DBD9D5"/>
<path d="M927.827 2.47705L967.229 45.9174H1084.62V2.47705H927.827Z" fill="#DBD9D5"/>
<path d="M980.563 57.293L1039.89 119.808H1084.34V57.293H980.563Z" fill="#DBD9D5"/>
<path d="M1261.42 2.47705H1171.79V17.3585H1261.42V2.47705Z" fill="#F3B53F"/>
<path d="M894 462.977L887.5 455.977L1128.72 349.406H1202.16L873.327 1.97705H881.827L1218.17 356.239H1130.2L894 462.977Z" fill="#F3B53F"/>
<path d="M855.827 673.467L806.237 593.346L811.81 592.833C812.233 592.799 855.268 588.529 884.158 551.635C912.73 515.185 887.438 463.328 887.156 462.781L885.604 459.638L889.766 459.638L892 463.02H894.987C900.384 475.455 917.033 520.958 889.766 555.768C864.827 587.572 830.929 596.523 817.842 598.88L863.827 673.467H855.827Z" fill="#525D77"/>
</g>
<mask id="mask1_260_98" style="mask-type:alpha" maskUnits="userSpaceOnUse" x="0" y="3" width="642" height="645">
<path d="M642 647.977H0V3.97705H642V647.977Z" fill="#D9D9D9"/>
</mask>
<g mask="url(#mask1_260_98)">
<path d="M642 11.7389V-3.01868H588.842V11.7389H642ZM633.922 646.477V453.069L587.995 351.302H642V321.753H574.661L538.717 242.157C577.201 225.896 604.186 188.66 604.186 145.515C604.186 90.2758 560.093 44.9095 504.183 40.6052H504.112L466.173 -19.4502H431.673L469.932 43.0991C422.17 54.2357 386.543 95.9125 386.543 145.515C386.543 158.701 389.012 171.306 393.633 182.921L180.435 281.135L0.394226 281.135V310.684H85.7936L264.67 498.981H0.394226V513.773H278.709L408.413 646.477H633.922ZM495.329 69.7107C538.47 69.7107 573.568 103.735 573.568 145.515C573.568 187.294 538.47 221.318 495.329 221.318C452.189 221.318 417.055 187.294 417.055 145.515C417.055 103.735 452.189 69.7107 495.329 69.7107ZM127.276 310.719H187.313L408.413 208.884C428.343 234.368 459.878 250.902 495.329 250.902C499.88 250.902 504.465 250.595 508.91 250.048L603.41 459.32V646.477L445.673 646.477L127.276 310.719ZM25.6729 -19.4502H0.359009V1.49048L25.6729 -19.4502Z" fill="#DBD9D5"/>
<path d="M115.883 529.146V612.192H147.1V646.866H201.987V529.146H115.883Z" fill="#DBD9D5"/>
<path d="M565.843 256.607H642V308.396H587.395L565.843 256.607Z" fill="#DBD9D5"/>
<path d="M586.549 57.0024V32.133H642V142.747H626.867C622.529 110.021 608.031 80.5054 586.549 57.0024Z" fill="#DBD9D5"/>
<path d="M321.109 271.877L367.565 369.066H424.145L520.762 325.647L495.541 272.219H495.329C459.596 272.219 427.144 258.383 403.545 235.905L321.109 271.877Z" fill="#DBD9D5"/>
<path d="M0.35881 392.911V328.38H73.0241L134.366 392.911H0.35881Z" fill="#DBD9D5"/>
<path d="M489.173 -22.0229H554.238L554.237 0.328913L520.162 28.0679L489.173 -22.0229Z" fill="#DBD9D5"/>
<path d="M241.601 41.6983L333.279 134.241L368.447 107.63C378.889 74.7664 402.593 47.5057 433.458 31.7915L402.173 -20.5229H296.673L241.601 41.6983Z" fill="#DBD9D5"/>
<path d="M341.427 175.098L180.399 252.2H100.079V116.58L225.303 56.6951L341.427 175.098Z" fill="#DBD9D5"/>
<path d="M577.236 633.099V462.668L528.099 346.315L438.502 389.324H229.537L463.9 633.099H577.236Z" fill="#DBD9D5"/>
<path d="M611.1 365.308H642V434.553L611.1 365.308Z" fill="#DBD9D5"/>
<path d="M0.358719 252.2H77.8213V163.517H0.358719V252.2Z" fill="#DBD9D5"/>
<path d="M0.358719 149.682H77.8213V118.561H0.358719V149.682Z" fill="#DBD9D5"/>
<path d="M164.673 -20.5229L268.173 -20.5229L223.928 28.0337L164.673 -20.5229Z" fill="#DBD9D5"/>
<path d="M133.173 -20.0229L51.1729 -20.0229L33.6934 -6.1274L97.1167 47.3692V95.4683L208.937 40.2978L133.173 -20.0229Z" fill="#F3B53F"/>
<path d="M0.358719 104.794V29.366L21.1001 10.509L77.8213 56.695V104.794H0.358719Z" fill="#DBD9D5"/>
<path d="M219.66 481.081L147.1 407.258H77.8214V481.081H219.66Z" fill="#DBD9D5"/>
<path d="M0.359077 441.215H63.4297V407.258H0.359077V441.215Z" fill="#DBD9D5"/>
<path d="M26.3563 481.081H63.4297V450.233H26.3563V481.081Z" fill="#DBD9D5"/>
<path d="M0.394083 481.115H17.1494V450.267H0.394083V481.115Z" fill="#DBD9D5"/>
<path d="M345.872 369.066H229.537V315.194L303.895 282.501L345.872 369.066Z" fill="#DBD9D5"/>
<path d="M495.329 94.5459C466.496 94.5459 443.123 117.182 443.123 145.105C443.123 173.027 466.496 195.663 495.329 195.663C524.162 195.663 547.535 173.027 547.535 145.105C547.535 117.182 524.162 94.5459 495.329 94.5459Z" fill="#F3B53F"/>
<path d="M13.2339 612.192H102.901V529.146H13.2339V612.192Z" fill="#DBD9D5"/>
<path d="M376.173 646.477L336.771 603.037H219.378V646.477H376.173Z" fill="#DBD9D5"/>
<path d="M323.437 591.661L264.106 529.146H219.66V591.661H323.437Z" fill="#DBD9D5"/>
<path d="M0 646.977H132V631.977H0V646.977Z" fill="#F3B53F"/>
<path fill-rule="evenodd" clip-rule="evenodd" d="M1214.49 152.641C1215.28 153.518 1216.15 154.615 1217.08 155.902L1213.85 158.256C1212.96 157.038 1212.18 156.057 1211.51 155.313L1214.49 152.641ZM1221.63 162.784C1222.93 164.909 1224.32 167.278 1225.76 169.867L1222.27 171.816C1220.85 169.269 1219.49 166.948 1218.22 164.876L1221.63 162.784ZM1229.61 177.024C1230.81 179.336 1232.04 181.772 1233.28 184.318L1229.69 186.073C1228.46 183.556 1227.25 181.15 1226.06 178.868L1229.61 177.024ZM1236.77 191.668C1237.87 194.062 1238.98 196.533 1240.09 199.073L1236.42 200.671C1235.33 198.157 1234.23 195.712 1233.14 193.343L1236.77 191.668ZM1243.26 206.551C1244.27 209.016 1245.28 211.533 1246.28 214.096L1242.55 215.545C1241.56 213.007 1240.56 210.515 1239.56 208.075L1243.26 206.551ZM1249.14 221.703C1250.06 224.223 1250.97 226.781 1251.85 229.369L1248.06 230.661C1247.19 228.1 1246.3 225.569 1245.39 223.074L1249.14 221.703ZM1254.39 237.094C1255.21 239.664 1256 242.26 1256.76 244.875L1252.92 245.995C1252.17 243.41 1251.38 240.844 1250.58 238.302L1254.39 237.094ZM1258.94 252.714C1259.64 255.331 1260.3 257.964 1260.93 260.607L1257.04 261.53C1256.42 258.923 1255.76 256.324 1255.08 253.739L1258.94 252.714ZM1262.7 268.555C1263.25 271.217 1263.76 273.886 1264.23 276.555L1260.29 277.246C1259.83 274.619 1259.32 271.991 1258.78 269.367L1262.7 268.555ZM1265.5 284.605C1265.89 287.31 1266.22 290.01 1266.49 292.702L1262.51 293.112C1262.24 290.472 1261.92 287.82 1261.54 285.163L1265.5 284.605ZM1267.16 300.842C1267.33 303.582 1267.44 306.308 1267.47 309.014L1263.47 309.071C1263.44 306.43 1263.33 303.767 1263.17 301.086L1267.16 300.842ZM1267.38 317.202C1267.28 319.958 1267.09 322.688 1266.83 325.386L1262.85 324.995C1263.1 322.38 1263.28 319.73 1263.38 317.049L1267.38 317.202ZM1265.75 333.537C1265.3 336.271 1264.74 338.964 1264.09 341.608L1260.21 340.647C1260.84 338.108 1261.37 335.516 1261.81 332.878L1265.75 333.537ZM1261.77 349.533C1260.87 352.159 1259.85 354.726 1258.71 357.226L1255.07 355.567C1256.15 353.192 1257.12 350.746 1257.98 348.237L1261.77 349.533ZM1254.88 364.578C1254.17 365.77 1253.43 366.941 1252.66 368.092C1251.89 369.235 1251.1 370.357 1250.28 371.457L1247.07 369.073C1247.85 368.022 1248.61 366.952 1249.34 365.862C1250.07 364.774 1250.77 363.667 1251.44 362.539L1254.88 364.578ZM1245.1 377.813C1243.28 379.85 1241.37 381.808 1239.37 383.691L1236.63 380.782C1238.54 378.974 1240.37 377.098 1242.12 375.148L1245.1 377.813ZM1233.21 389.061C1231.11 390.757 1228.93 392.385 1226.68 393.951L1224.39 390.669C1226.57 389.154 1228.67 387.581 1230.7 385.947L1233.21 389.061ZM1219.84 398.398C1217.54 399.8 1215.17 401.146 1212.75 402.442L1210.86 398.915C1213.22 397.652 1215.53 396.341 1217.76 394.98L1219.84 398.398ZM1205.51 406.091C1203.09 407.24 1200.63 408.346 1198.12 409.414L1196.55 405.733C1199.01 404.686 1201.43 403.602 1203.79 402.478L1205.51 406.091ZM1190.59 412.454C1188.09 413.413 1185.55 414.339 1182.98 415.235L1181.67 411.458C1184.2 410.575 1186.7 409.663 1189.16 408.72L1190.59 412.454ZM1175.33 417.785C1172.78 418.599 1170.2 419.387 1167.59 420.152L1166.47 416.315C1169.04 415.557 1171.6 414.778 1174.11 413.974L1175.33 417.785ZM1159.82 422.353C1157.25 423.056 1154.65 423.74 1152.04 424.407L1151.05 420.532C1153.64 419.869 1156.22 419.191 1158.77 418.494L1159.82 422.353ZM1144.2 426.351C1141.6 426.977 1138.99 427.591 1136.36 428.193L1135.47 424.295C1138.08 423.695 1140.68 423.085 1143.26 422.462L1144.2 426.351ZM1128.51 429.957C1125.9 430.534 1123.27 431.102 1120.64 431.665L1119.8 427.753C1122.43 427.192 1125.04 426.626 1127.65 426.051L1128.51 429.957ZM483.644 431.96C483.934 430.634 484.238 429.316 484.557 428.005L488.444 428.949C488.132 430.231 487.835 431.519 487.551 432.815L483.644 431.96ZM1112.78 433.325C1110.16 433.873 1107.53 434.417 1104.9 434.96L1104.09 431.043C1106.72 430.5 1109.34 429.957 1111.96 429.41L1112.78 433.325ZM1097.04 436.584C1094.41 437.125 1091.79 437.667 1089.17 438.213L1088.36 434.296C1090.98 433.751 1093.6 433.208 1096.23 432.667L1097.04 436.584ZM1081.32 439.861C1078.69 440.416 1076.08 440.977 1073.47 441.544L1072.62 437.636C1075.24 437.066 1077.86 436.504 1080.49 435.948L1081.32 439.861ZM1065.64 443.282C1063.03 443.872 1060.43 444.472 1057.84 445.084L1056.92 441.191C1059.52 440.576 1062.13 439.973 1064.76 439.38L1065.64 443.282ZM480.947 447.999C481.262 445.292 481.648 442.607 482.096 439.946L486.041 440.611C485.603 443.207 485.227 445.825 484.921 448.462L480.947 447.999ZM1050.05 446.977C1047.45 447.628 1044.86 448.293 1042.3 448.975L1041.27 445.109C1043.86 444.422 1046.46 443.752 1049.08 443.097L1050.05 446.977ZM1034.61 451.09C1032.02 451.828 1029.46 452.585 1026.92 453.366L1025.75 449.543C1028.31 448.754 1030.9 447.988 1033.51 447.243L1034.61 451.09ZM1019.32 455.806C1016.79 456.654 1014.29 457.529 1011.82 458.432L1010.44 454.677C1012.95 453.759 1015.48 452.872 1018.05 452.013L1019.32 455.806ZM479.951 464.256C479.963 461.527 480.056 458.811 480.223 456.113L484.215 456.359C484.053 458.984 483.963 461.624 483.951 464.275L479.951 464.256ZM1004.36 461.303C1001.87 462.306 999.43 463.344 997.032 464.419L995.396 460.769C997.843 459.672 1000.33 458.615 1002.86 457.594L1004.36 461.303ZM989.87 467.811C987.479 469.008 985.139 470.248 982.856 471.535L980.892 468.05C983.236 466.729 985.633 465.459 988.079 464.234L989.87 467.811ZM480.864 480.54C480.541 477.821 480.307 475.109 480.157 472.407L484.151 472.185C484.296 474.806 484.523 477.434 484.836 480.068L480.864 480.54ZM976.054 475.615C973.815 477.046 971.64 478.529 969.532 480.07L967.172 476.841C969.35 475.249 971.595 473.718 973.9 472.244L976.054 475.615ZM963.336 484.932C961.316 486.636 959.372 488.403 957.507 490.238L954.701 487.387C956.642 485.478 958.662 483.642 960.757 481.875L963.336 484.932ZM483.839 496.582C483.161 493.924 482.579 491.265 482.087 488.609L486.021 487.881C486.497 490.451 487.06 493.023 487.715 495.594L483.839 496.582ZM952.133 495.975C950.429 497.955 948.808 500.006 947.276 502.135L944.03 499.798C945.631 497.573 947.324 495.43 949.102 493.365L952.133 495.975ZM488.934 512.106C487.9 509.552 486.965 506.992 486.123 504.428L489.924 503.181C490.737 505.66 491.642 508.135 492.642 510.605L488.934 512.106ZM942.977 508.705C941.655 510.938 940.421 513.248 939.279 515.64L935.669 513.917C936.862 511.417 938.152 509.002 939.535 506.667L942.977 508.705ZM496.047 526.781C494.684 524.384 493.419 521.976 492.247 519.56L495.846 517.815C496.98 520.152 498.204 522.482 499.524 524.804L496.047 526.781ZM936.222 522.837C935.759 524.07 935.318 525.325 934.901 526.6C934.478 527.891 934.033 529.167 933.566 530.429L929.814 529.041C930.264 527.827 930.692 526.598 931.099 525.355C931.535 524.026 931.994 522.719 932.477 521.432L936.222 522.837ZM504.984 540.425C503.331 538.211 501.773 535.982 500.304 533.742L503.649 531.549C505.073 533.721 506.585 535.883 508.19 538.033L504.984 540.425ZM930.5 537.837C929.372 540.292 928.158 542.686 926.861 545.021L923.364 543.078C924.612 540.832 925.78 538.529 926.865 536.168L930.5 537.837ZM515.46 552.907C513.57 550.892 511.767 548.861 510.049 546.816L513.112 544.243C514.782 546.231 516.537 548.208 518.378 550.171L515.46 552.907ZM922.692 551.894C921.216 554.132 919.66 556.311 918.027 558.43L914.858 555.988C916.432 553.946 917.932 551.847 919.353 549.692L922.692 551.894ZM527.166 564.193C525.091 562.377 523.095 560.545 521.178 558.698L523.952 555.817C525.823 557.619 527.772 559.408 529.8 561.183L527.166 564.193ZM912.898 564.616C911.126 566.607 909.281 568.542 907.37 570.42L904.567 567.566C906.416 565.749 908.199 563.88 909.91 561.956L912.898 564.616ZM539.829 574.329C537.612 572.701 535.467 571.058 533.393 569.399L535.891 566.275C537.921 567.899 540.022 569.509 542.196 571.105L539.829 574.329ZM901.48 575.848C899.468 577.589 897.396 579.277 895.265 580.912L892.829 577.739C894.9 576.15 896.912 574.512 898.862 572.824L901.48 575.848ZM553.243 583.416C550.914 581.958 548.651 580.484 546.452 578.996L548.694 575.684C550.852 577.144 553.076 578.592 555.365 580.025L553.243 583.416ZM888.787 585.606C886.605 587.099 884.371 588.544 882.09 589.942L880 586.531C882.226 585.167 884.403 583.759 886.528 582.305L888.787 585.606ZM567.275 591.575C564.853 590.266 562.49 588.941 560.187 587.603L562.196 584.145C564.463 585.462 566.79 586.766 569.177 588.056L567.275 591.575ZM875.179 593.955C872.86 595.231 870.498 596.463 868.097 597.652L866.322 594.067C868.673 592.903 870.983 591.697 873.25 590.45L875.179 593.955ZM581.682 598.845C579.212 597.681 576.797 596.503 574.435 595.312L576.236 591.74C578.566 592.915 580.949 594.077 583.387 595.226L581.682 598.845ZM860.901 601.037C858.488 602.115 856.041 603.153 853.562 604.152L852.067 600.442C854.501 599.461 856.903 598.442 859.269 597.385L860.901 601.037ZM596.523 605.398C593.98 604.346 591.487 603.281 589.044 602.203L590.659 598.543C593.073 599.608 595.537 600.662 598.052 601.702L596.523 605.398ZM846.119 607.004C843.644 607.904 841.142 608.769 838.615 609.598L837.367 605.797C839.855 604.981 842.318 604.13 844.752 603.245L846.119 607.004ZM607.795 609.849C606.507 609.364 605.232 608.875 603.968 608.384L605.418 604.656C606.668 605.142 607.931 605.625 609.205 606.105C610.357 606.54 611.549 606.969 612.779 607.392L611.476 611.174C610.212 610.739 608.985 610.297 607.795 609.849ZM831.014 611.967C828.484 612.715 825.932 613.43 823.361 614.112L822.334 610.246C824.87 609.573 827.387 608.868 829.881 608.131L831.014 611.967ZM626.786 615.678C624.122 615.006 621.555 614.309 619.093 613.589L620.216 609.75C622.627 610.455 625.146 611.139 627.765 611.8L626.786 615.678ZM815.663 616.048C813.092 616.66 810.504 617.241 807.904 617.792L807.074 613.879C809.644 613.335 812.199 612.761 814.737 612.157L815.663 616.048ZM642.357 619.108C639.683 618.596 637.077 618.061 634.543 617.505L635.401 613.598C637.899 614.146 640.47 614.674 643.109 615.18L642.357 619.108ZM800.125 619.345C797.53 619.833 794.923 620.292 792.308 620.723L791.657 616.776C794.244 616.35 796.821 615.896 799.387 615.414L800.125 619.345ZM657.987 621.726C655.336 621.342 652.732 620.936 650.18 620.509L650.839 616.564C653.362 616.986 655.938 617.387 658.561 617.768L657.987 621.726ZM784.461 621.932C781.846 622.307 779.225 622.655 776.6 622.977L776.113 619.007C778.712 618.688 781.306 618.343 783.894 617.972L784.461 621.932ZM673.759 623.693C671.086 623.411 668.448 623.108 665.849 622.785L666.344 618.815C668.917 619.136 671.53 619.436 674.178 619.715L673.759 623.693ZM768.717 623.868C766.087 624.14 763.454 624.386 760.823 624.608L760.486 620.622C763.093 620.402 765.701 620.158 768.306 619.889L768.717 623.868ZM689.529 625.068C686.872 624.883 684.24 624.677 681.638 624.45L681.985 620.466C684.564 620.69 687.173 620.895 689.807 621.078L689.529 625.068ZM752.912 625.204C750.272 625.378 747.636 625.529 745.005 625.657L744.811 621.662C747.419 621.535 750.032 621.385 752.647 621.212L752.912 625.204ZM705.375 625.9C702.718 625.806 700.08 625.689 697.463 625.552L697.673 621.557C700.267 621.694 702.883 621.809 705.517 621.903L705.375 625.9ZM737.075 625.973C734.424 626.056 731.781 626.116 729.148 626.154L729.091 622.154C731.701 622.117 734.322 622.057 736.949 621.975L737.075 625.973ZM721.235 626.201C718.573 626.195 715.924 626.167 713.291 626.117L713.367 622.117C715.978 622.167 718.605 622.195 721.244 622.201L721.235 626.201Z" fill="#9D9E99"/>
<path fill-rule="evenodd" clip-rule="evenodd" d="M249.966 123.343C249.964 123.351 249.907 123.922 251.056 124.82L248.593 127.972C246.914 126.66 245.636 124.748 246.033 122.611L249.966 123.343ZM257.687 127.162C259.814 127.453 262.372 127.521 265.365 127.239L265.741 131.221C262.48 131.529 259.612 131.463 257.145 131.126L257.687 127.162ZM273.134 125.884C275.488 125.303 278.017 124.538 280.721 123.557L282.085 127.318C279.256 128.344 276.591 129.151 274.092 129.767L273.134 125.884ZM288.114 120.513C290.398 119.466 292.783 118.278 295.267 116.935L297.169 120.454C294.611 121.837 292.148 123.064 289.781 124.149L288.114 120.513ZM302.264 112.896C304.453 111.554 306.709 110.099 309.033 108.524L311.278 111.834C308.906 113.443 306.598 114.931 304.354 116.306L302.264 112.896ZM315.612 103.866C317.704 102.324 319.845 100.688 322.035 98.9551L324.517 102.091C322.293 103.852 320.116 105.516 317.985 107.086L315.612 103.866ZM328.305 93.8313C330.31 92.1427 332.352 90.3751 334.432 88.5252L337.09 91.5138C334.985 93.387 332.915 95.1783 330.882 96.8907L328.305 93.8313ZM340.427 83.0579C342.356 81.2558 344.315 79.3851 346.304 77.4434L349.098 80.3056C347.089 82.2674 345.108 84.1584 343.157 85.981L340.427 83.0579ZM352.079 71.6897C353.933 69.8048 355.812 67.8599 357.716 65.853L360.618 68.6058C358.698 70.63 356.802 72.5926 354.93 74.4952L352.079 71.6897ZM363.233 59.9368C364.155 58.9314 365.082 57.9118 366.015 56.8778C366.923 55.8717 367.849 54.8787 368.794 53.8988L371.674 56.6745C370.759 57.6233 369.863 58.5842 368.985 59.5573C368.045 60.5993 367.11 61.6269 366.181 62.6404L363.233 59.9368ZM597.417 199.464C596.578 200.544 595.747 201.566 594.928 202.526L591.884 199.93C592.662 199.019 593.455 198.045 594.257 197.011L597.417 199.464ZM606.127 186.317C604.776 188.696 603.395 190.94 602.009 193.039L598.671 190.836C600.008 188.811 601.342 186.642 602.65 184.341L606.127 186.317ZM374.639 48.2084C376.635 46.3832 378.697 44.6106 380.818 42.8919L383.336 46.0002C381.275 47.6696 379.274 49.3903 377.338 51.1605L374.639 48.2084ZM613.034 172.185C612.005 174.665 610.922 177.059 609.799 179.356L606.205 177.601C607.292 175.375 608.342 173.056 609.339 170.652L613.034 172.185ZM387.292 37.9481C389.485 36.3696 391.731 34.8444 394.027 33.3739L396.184 36.742C393.949 38.1742 391.762 39.6588 389.63 41.1944L387.292 37.9481ZM618.154 157.297C617.446 159.871 616.665 162.382 615.824 164.824L612.042 163.523C612.856 161.158 613.612 158.727 614.297 156.236L618.154 157.297ZM400.99 29.1655C403.337 27.8288 405.727 26.5462 408.156 25.3191L409.959 28.8894C407.589 30.0868 405.258 31.3379 402.97 32.6411L400.99 29.1655ZM621.331 141.883C620.969 144.519 620.52 147.109 619.995 149.649L616.078 148.839C616.585 146.385 617.018 143.883 617.368 141.338L621.331 141.883ZM415.499 21.8314C417.966 20.7317 420.467 19.6874 422.998 18.6996L424.452 22.4258C421.979 23.391 419.536 24.4111 417.127 25.4848L415.499 21.8314ZM430.633 15.9222C433.193 15.0573 435.779 14.2491 438.387 13.4989L439.492 17.3429C436.943 18.0764 434.415 18.8665 431.913 19.7118L430.633 15.9222ZM622.384 126.159C622.396 128.819 622.309 131.446 622.135 134.037L618.144 133.768C618.312 131.27 618.395 128.738 618.384 126.176L622.384 126.159ZM446.241 11.4306C448.872 10.8013 451.52 10.2305 454.182 9.71953L454.936 13.6478C452.333 14.1474 449.744 14.7055 447.172 15.3208L446.241 11.4306ZM621.164 110.435C621.566 113.068 621.863 115.681 622.063 118.268L618.075 118.577C617.882 116.087 617.596 113.572 617.21 111.038L621.164 110.435ZM462.192 8.36948C464.87 7.98031 467.56 7.65185 470.255 7.38545L470.649 11.3661C468.014 11.6264 465.385 11.9475 462.767 12.3279L462.192 8.36948ZM617.633 95.0586C618.422 97.6112 619.103 100.152 619.683 102.679L615.785 103.575C615.226 101.143 614.57 98.697 613.811 96.2391L617.633 95.0586ZM478.357 6.77377C481.063 6.63273 483.772 6.55504 486.481 6.54207L486.5 10.542C483.855 10.5547 481.209 10.6306 478.566 10.7684L478.357 6.77377ZM611.912 80.3713C613.057 82.7918 614.096 85.2084 615.036 87.6183L611.309 89.0713C610.404 86.7485 609.401 84.4176 608.296 82.0814L611.912 80.3713ZM494.608 6.69897C497.318 6.81718 500.023 7.00175 502.72 7.25406L502.348 11.2367C499.717 10.9906 497.078 10.8105 494.434 10.6952L494.608 6.69897ZM604.258 66.6259C605.703 68.8704 607.05 71.1163 608.303 73.3616L604.809 75.31C603.598 73.1393 602.295 70.9659 600.895 68.7918L604.258 66.6259ZM510.797 8.21755C513.483 8.60827 516.158 9.06857 518.816 9.59987L518.032 13.5223C515.444 13.005 512.839 12.5566 510.221 12.1759L510.797 8.21755ZM597.42 56.9903C598.238 58.0431 599.033 59.097 599.806 60.1517L596.578 62.5146C595.829 61.491 595.057 60.4676 594.262 59.4447C593.445 58.3937 592.616 57.3612 591.774 56.3469L594.852 53.7922C595.721 54.8395 596.577 55.9054 597.42 56.9903ZM526.752 11.4113C529.382 12.088 531.993 12.8375 534.579 13.6612L533.366 17.4726C530.852 16.6721 528.314 15.9434 525.756 15.2851L526.752 11.4113ZM583.645 41.9461C585.625 43.783 587.559 45.6963 589.442 47.6871L586.536 50.4357C584.713 48.5085 582.842 46.6567 580.925 44.879L583.645 41.9461ZM542.268 16.3575C544.803 17.3309 547.31 18.3799 549.786 19.5058L548.13 23.147C545.729 22.0548 543.295 21.0368 540.834 20.0917L542.268 16.3575ZM570.984 31.6635C573.193 33.2298 575.361 34.8739 577.483 36.5972L574.961 39.7023C572.908 38.0345 570.809 36.4431 568.67 34.9268L570.984 31.6635ZM557.101 23.1083C559.497 24.382 561.857 25.7332 564.179 27.1631L562.081 30.5689C559.832 29.1838 557.545 27.8746 555.223 26.6401L557.101 23.1083Z" fill="#9D9E99"/>
<path fill-rule="evenodd" clip-rule="evenodd" d="M334.165 510.239C334.339 510.103 334.621 509.792 334.901 509.191L338.527 510.879C337.642 512.779 335.947 514.56 333.655 514.286L334.13 510.314C334.084 510.309 334.055 510.313 334.043 510.316C334.058 510.31 334.098 510.291 334.165 510.239ZM334.036 510.318C334.036 510.318 334.038 510.317 334.043 510.316C334.038 510.318 334.036 510.318 334.036 510.318ZM335.565 502.636C335.355 500.648 334.848 498.295 333.916 495.584L337.699 494.284C338.716 497.242 339.297 499.89 339.543 502.215L335.565 502.636ZM330.978 488.743C329.941 486.704 328.701 484.529 327.228 482.222L330.599 480.069C332.137 482.479 333.443 484.767 334.544 486.93L330.978 488.743ZM322.907 475.996C321.475 474.08 319.895 472.09 318.155 470.026L321.213 467.448C323.001 469.568 324.629 471.619 326.111 473.601L322.907 475.996ZM313.108 464.329C311.443 462.535 309.663 460.692 307.763 458.802L310.584 455.966C312.52 457.892 314.337 459.773 316.04 461.608L313.108 464.329ZM302.264 453.521C300.461 451.846 298.566 450.136 296.576 448.394L299.21 445.384C301.229 447.152 303.154 448.887 304.987 450.591L302.264 453.521ZM290.735 443.416C288.823 441.829 286.835 440.217 284.768 438.579L287.251 435.443C289.342 437.1 291.354 438.732 293.29 440.339L290.735 443.416ZM278.693 433.871C277.671 433.095 276.631 432.314 275.573 431.528C274.522 430.746 273.485 429.942 272.462 429.116L274.975 426.004C275.958 426.797 276.953 427.569 277.96 428.318C279.028 429.112 280.078 429.901 281.111 430.685L278.693 433.871ZM361.573 258.885C362.817 259.654 363.979 260.421 365.054 261.177L362.753 264.449C361.746 263.741 360.65 263.017 359.47 262.288L361.573 258.885ZM346.718 251.514C349.402 252.571 351.935 253.701 354.292 254.865L352.521 258.451C350.262 257.336 347.831 256.252 345.252 255.236L346.718 251.514ZM266.53 423.935C264.631 422.146 262.789 420.28 261.007 418.342L263.951 415.634C265.67 417.503 267.445 419.302 269.272 421.024L266.53 423.935ZM255.888 412.379C254.257 410.344 252.687 408.247 251.18 406.095L254.456 403.801C255.915 405.883 257.433 407.911 259.009 409.877L255.888 412.379ZM330.868 246.722C333.633 247.313 336.313 248.012 338.892 248.793L337.733 252.622C335.255 251.872 332.683 251.201 330.031 250.633L330.868 246.722ZM246.884 399.531C245.524 397.305 244.229 395.031 243.001 392.715L246.535 390.841C247.725 393.086 248.981 395.289 250.298 397.446L246.884 399.531ZM314.409 244.691C317.219 244.779 319.982 245.001 322.685 245.337L322.191 249.306C319.606 248.985 316.966 248.773 314.284 248.689L314.409 244.691ZM239.537 385.68C238.454 383.303 237.44 380.892 236.499 378.452L240.231 377.012C241.144 379.379 242.127 381.717 243.177 384.021L239.537 385.68ZM297.829 245.811C300.608 245.336 303.367 245.016 306.096 244.834L306.362 248.825C303.766 248.998 301.142 249.302 298.503 249.754L297.829 245.811ZM233.897 371.055C233.103 368.562 232.384 366.047 231.744 363.514L235.622 362.533C236.242 364.987 236.938 367.425 237.708 369.841L233.897 371.055ZM281.818 250.334C284.447 249.278 287.078 248.386 289.703 247.645L290.79 251.495C288.3 252.198 285.803 253.044 283.308 254.045L281.818 250.334ZM230.056 355.851C229.573 353.274 229.171 350.686 228.855 348.093L232.826 347.609C233.131 350.116 233.519 352.619 233.988 355.113L230.056 355.851ZM267.12 258.095C269.487 256.52 271.871 255.105 274.266 253.838L276.137 257.374C273.86 258.578 271.591 259.925 269.336 261.425L267.12 258.095ZM228.165 340.271C228.022 337.647 227.969 335.024 228.01 332.409L232.01 332.472C231.97 334.991 232.021 337.521 232.159 340.054L228.165 340.271ZM257.251 265.713C258.304 264.781 259.362 263.884 260.425 263.023L262.943 266.131C261.926 266.955 260.913 267.813 259.904 268.707C258.953 269.55 258.028 270.409 257.129 271.282L254.342 268.412C255.284 267.497 256.254 266.597 257.251 265.713ZM228.422 324.552C228.657 321.932 228.991 319.326 229.427 316.742L233.372 317.408C232.953 319.888 232.632 322.39 232.406 324.909L228.422 324.552ZM244.089 280.418C245.592 278.279 247.208 276.193 248.939 274.168L251.98 276.767C250.331 278.696 248.793 280.682 247.361 282.718L244.089 280.418ZM231.056 309.027C231.705 306.477 232.462 303.955 233.329 301.469L237.106 302.787C236.278 305.162 235.554 307.573 234.932 310.014L231.056 309.027ZM236.261 294.134C237.345 291.744 238.54 289.395 239.852 287.096L243.326 289.077C242.077 291.268 240.938 293.506 239.905 295.786L236.261 294.134Z" fill="#9D9E99"/>
<path fill-rule="evenodd" clip-rule="evenodd" d="M335.595 365.318C333.188 365.041 330.762 364.919 328.326 364.976L328.232 360.977C330.863 360.916 333.474 361.047 336.052 361.344L335.595 365.318ZM321.109 365.686C318.771 366.097 316.431 366.693 314.097 367.495L312.798 363.712C315.334 362.841 317.876 362.194 320.415 361.746L321.109 365.686ZM349.836 368.705C347.528 367.886 345.177 367.177 342.794 366.604L343.73 362.715C346.259 363.324 348.744 364.073 351.174 364.936L349.836 368.705ZM307.453 370.36C305.373 371.449 303.301 372.721 301.243 374.195L298.914 370.942C301.12 369.363 303.35 367.993 305.598 366.816L307.453 370.36ZM363.264 374.861C361.134 373.667 358.931 372.536 356.669 371.494L358.343 367.861C360.707 368.95 363.004 370.13 365.22 371.371L363.264 374.861ZM375.68 383C373.767 381.557 371.736 380.118 369.605 378.718L371.801 375.374C374.009 376.825 376.11 378.314 378.089 379.806L375.68 383ZM295.595 378.792C294.703 379.611 293.814 380.471 292.93 381.375C292.168 382.154 291.356 383.096 290.494 384.198L287.343 381.735C288.272 380.547 289.181 379.488 290.07 378.579C291.004 377.624 291.944 376.713 292.891 375.844L295.595 378.792ZM386.925 392.686C385.339 391.114 383.512 389.418 381.475 387.667L384.083 384.634C386.19 386.446 388.087 388.206 389.741 389.845L386.925 392.686ZM286.134 390.466C284.841 392.495 283.486 394.748 282.071 397.204L278.605 395.206C280.043 392.712 281.428 390.407 282.76 388.317L286.134 390.466ZM393.634 400.698C393.498 400.344 392.968 399.47 391.867 398.091L394.992 395.594C396.102 396.984 396.987 398.276 397.366 399.256L393.634 400.698ZM278.214 404.103C277.008 406.316 275.767 408.642 274.49 411.067L270.95 409.203C272.234 406.765 273.485 404.423 274.701 402.19L278.214 404.103ZM270.844 418.067C269.669 420.344 268.468 422.689 267.241 425.093L263.678 423.275C264.907 420.867 266.111 418.516 267.29 416.232L270.844 418.067ZM262.643 434.128C261.794 435.8 260.933 437.495 260.061 439.208L256.496 437.394C257.366 435.683 258.226 433.992 259.075 432.321C259.414 431.654 259.751 430.99 260.087 430.329L263.653 432.142C263.318 432.8 262.982 433.462 262.643 434.128ZM256.453 446.283C255.261 448.615 254.049 450.974 252.82 453.357L249.265 451.523C250.492 449.145 251.701 446.79 252.892 444.462L256.453 446.283ZM249.177 460.375C247.963 462.7 246.732 465.041 245.484 467.394L241.95 465.52C243.194 463.175 244.421 460.841 245.632 458.523L249.177 460.375ZM40.7357 468.964C41.2152 467.725 41.7123 466.476 42.2274 465.219L45.9289 466.735C45.4236 467.969 44.936 469.193 44.4662 470.407L40.7357 468.964ZM241.737 474.4C240.485 476.721 239.217 479.048 237.934 481.377L234.43 479.446C235.707 477.128 236.97 474.811 238.217 472.501L241.737 474.4ZM35.627 484.101C36.3396 481.6 37.1333 479.058 38.0085 476.473L41.7972 477.756C40.9418 480.282 40.1677 482.762 39.4738 485.197L35.627 484.101ZM234.072 488.308C232.772 490.612 231.458 492.913 230.13 495.209L226.668 493.205C227.989 490.923 229.295 488.635 230.587 486.343L234.072 488.308ZM32.1277 499.793C32.5318 497.209 33.0355 494.573 33.6393 491.885L37.5421 492.762C36.9566 495.368 36.4696 497.918 36.0797 500.411L32.1277 499.793ZM226.106 502.063C224.749 504.342 223.377 506.61 221.99 508.863L218.583 506.767C219.959 504.531 221.321 502.279 222.67 500.015L226.106 502.063ZM30.8976 515.878C30.8695 513.242 30.9642 510.541 31.1823 507.777L35.1699 508.091C34.9608 510.743 34.8706 513.324 34.8974 515.836L30.8976 515.878ZM217.766 515.61C216.334 517.856 214.889 520.082 213.429 522.283L210.095 520.072C211.541 517.892 212.974 515.686 214.393 513.46L217.766 515.61ZM32.7743 531.991C32.1655 529.392 31.7038 526.715 31.3901 523.959L35.3644 523.507C35.6611 526.113 36.0968 528.637 36.6689 531.079L32.7743 531.991ZM208.971 528.862C207.446 531.063 205.907 533.234 204.353 535.37L201.118 533.017C202.653 530.907 204.175 528.761 205.683 526.584L208.971 528.862ZM38.5036 547.246C37.22 544.855 36.0959 542.374 35.1336 539.802L38.8798 538.4C39.7796 540.805 40.8297 543.122 42.0277 545.353L38.5036 547.246ZM199.573 541.767C197.937 543.896 196.286 545.982 194.619 548.021L191.522 545.49C193.161 543.484 194.788 541.429 196.401 539.329L199.573 541.767ZM189.472 554.108C187.692 556.139 185.895 558.111 184.083 560.02L181.183 557.264C182.956 555.398 184.717 553.465 186.463 551.472L189.472 554.108ZM48.0531 560.45C46.1685 558.448 44.4326 556.355 42.8487 554.17L46.087 551.822C47.5682 553.865 49.1948 555.827 50.9658 557.709L48.0531 560.45ZM178.417 565.715C176.451 567.598 174.466 569.402 172.462 571.118L169.86 568.079C171.804 566.415 173.734 564.662 175.65 562.826L178.417 565.715ZM60.4538 570.931C58.1676 569.379 56.0058 567.747 53.9711 566.035L56.5461 562.974C58.471 564.594 60.523 566.143 62.7012 567.623L60.4538 570.931ZM74.5402 578.808C72.0358 577.656 69.6315 576.439 67.3291 575.158L69.2744 571.663C71.4828 572.892 73.7957 574.063 76.2121 575.174L74.5402 578.808ZM166.178 576.156C163.984 577.796 161.767 579.326 159.528 580.737L157.396 577.352C159.539 576.002 161.668 574.533 163.784 572.952L166.178 576.156ZM89.5115 584.567C86.9053 583.734 84.3794 582.851 81.9351 581.915L83.3656 578.179C85.7359 579.087 88.1903 579.946 90.7283 580.756L89.5115 584.567ZM152.479 584.734C150.019 585.974 147.532 587.062 145.02 587.988L143.638 584.234C145.998 583.365 148.345 582.338 150.679 581.162L152.479 584.734ZM104.972 588.697C102.321 588.113 99.7369 587.485 97.2187 586.816L98.2467 582.95C100.707 583.604 103.237 584.218 105.834 584.791L104.972 588.697ZM116.755 590.951C115.421 590.732 114.101 590.504 112.795 590.267L113.51 586.332C114.792 586.564 116.089 586.788 117.401 587.003C118.674 587.212 119.941 587.368 121.204 587.475L120.868 591.461C119.501 591.345 118.13 591.176 116.755 590.951ZM137.185 590.308C134.507 590.908 131.804 591.313 129.076 591.509L128.789 587.52C131.312 587.338 133.819 586.963 136.312 586.405L137.185 590.308Z" fill="#9D9E99"/>
<path d="M342.569 293.995C342.569 366.467 403.211 425.195 477.998 425.195C518.562 425.195 554.975 407.917 579.797 380.519H843.035L879.858 446.494L916.681 380.519H950.31V207.472H579.797V207.428C554.975 180.074 518.562 162.84 477.998 162.84C403.256 162.84 342.569 221.568 342.569 293.995Z" fill="#F3F2F2"/>
<path fill-rule="evenodd" clip-rule="evenodd" d="M577.71 208.849C578.158 209.525 578.925 209.972 579.797 209.972H947.81V378.019H916.681C915.775 378.019 914.94 378.509 914.498 379.301L879.858 441.365L845.218 379.301C844.776 378.509 843.941 378.019 843.035 378.019H579.797C579.092 378.019 578.419 378.317 577.945 378.84C553.586 405.726 517.842 422.695 477.998 422.695C404.516 422.695 345.069 365.012 345.069 293.995C345.069 223.025 404.56 165.34 477.998 165.34C517.716 165.34 553.358 182.157 577.71 208.849ZM580.939 204.972C555.671 177.557 518.897 160.34 477.998 160.34C401.952 160.34 340.069 220.112 340.069 293.995C340.069 367.922 401.906 427.695 477.998 427.695C518.877 427.695 555.633 410.452 580.9 383.019H841.567L877.675 447.713C878.117 448.504 878.952 448.994 879.858 448.994C880.764 448.994 881.599 448.504 882.041 447.713L918.149 383.019H950.31C951.691 383.019 952.81 381.9 952.81 380.519V207.472C952.81 206.091 951.691 204.972 950.31 204.972H580.939Z" fill="#525D77"/>
<path d="M422.023 394.765C364.573 364.772 343.107 295.355 374.077 239.717C405.047 184.08 476.726 163.291 534.176 193.284C591.626 223.277 613.093 292.694 582.122 348.332C551.152 403.969 479.473 424.758 422.023 394.765Z" fill="#F3B53F"/>
<path d="M630.081 261.339H816.798V266.774H630.081V261.339Z" fill="#DBD9D5"/>
<path d="M639.299 291.565H816.798V297H639.299V291.565Z" fill="#DBD9D5"/>
<path d="M513.593 278.716L501.022 286.716L500.993 286.68L498.906 288.004C494.548 290.777 489.336 291.733 484.242 290.69C479.149 289.648 474.776 286.73 471.925 282.481L438.773 232.977L432.596 236.908L457.684 274.365L424.673 245.538L421.102 252.082L449.049 276.486L418.206 262.869L417.753 270.564L455.464 287.215L418.644 279.99L420.419 287.679L456.288 294.715L423.701 296.467L427.376 303.475L461.968 301.622L432.484 310.954L437.585 316.904L469.475 306.813L406 347.223L410.032 353.247L483.032 306.769L432.091 353.659L437.154 358.893L518.144 284.348L515.612 281.735L513.593 278.716Z" fill="#525D77"/>
<path d="M525.851 270.289C523.215 269.746 520.631 271.397 520.075 273.967C519.518 276.537 521.21 279.056 523.846 279.599C526.482 280.142 529.066 278.492 529.623 275.922C530.18 273.344 528.487 270.825 525.851 270.289Z" fill="#525D77"/>
<path d="M537.901 264.324C537.196 264.244 536.468 264.208 535.756 264.208C535.058 264.462 534.367 264.758 533.691 265.106C533.127 265.396 532.578 265.721 532.051 266.069L535.748 271.383C535.748 271.383 535.756 271.375 535.763 271.375V271.397C536.208 271.397 536.654 271.419 537.092 271.469C543.121 272.121 547.665 277.08 547.665 283.002C547.665 289.402 542.326 294.607 535.763 294.607V301.803C546.395 301.803 555.045 293.369 555.045 283.002C555.038 273.41 547.665 265.381 537.901 264.324Z" fill="#525D77"/>
<path d="M382 561.678C382 558.8 381.756 556.067 381.337 553.408H341.89V569.838H364.476C363.464 575.23 360.496 579.784 356.098 582.881V593.81H369.573C377.462 586.196 382 574.975 382 561.678Z" fill="#4285F4"/>
<path d="M341.89 604.411C353.201 604.411 362.661 600.477 369.573 593.81L356.098 582.881C352.328 585.504 347.545 587.107 341.89 587.107C330.964 587.107 321.713 579.42 318.397 569.037H304.503V580.294C311.38 594.575 325.518 604.411 341.89 604.411Z" fill="#34A853"/>
<path d="M318.397 569.037C317.524 566.414 317.07 563.609 317.07 560.694C317.07 557.78 317.559 554.974 318.397 552.351V541.094H304.503C301.641 546.996 300 553.626 300 560.694C300 567.762 301.641 574.392 304.503 580.294L318.397 569.037Z" fill="#FBBC05"/>
<path d="M341.89 534.282C348.069 534.282 353.585 536.504 357.948 540.839L369.887 528.38C362.661 521.312 353.201 516.977 341.89 516.977C325.518 516.977 311.38 526.813 304.503 541.094L318.397 552.351C321.713 541.969 330.964 534.282 341.89 534.282Z" fill="#EA4335"/>
<path d="M97.5 491.777C130.361 491.777 157 464.511 157 430.877C157 397.243 130.361 369.977 97.5 369.977C64.6391 369.977 38 397.243 38 430.877C38 464.511 64.6391 491.777 97.5 491.777Z" fill="url(#paint0_linear_260_98)"/>
<path fill-rule="evenodd" clip-rule="evenodd" d="M64.901 430.218C82.2407 422.51 93.784 417.389 99.5804 414.904C116.078 407.856 119.546 406.639 121.775 406.588C122.271 406.588 123.361 406.689 124.104 407.298C124.698 407.805 124.847 408.464 124.946 408.971C125.045 409.478 125.144 410.543 125.045 411.354C124.153 420.989 120.289 444.365 118.307 455.115C117.465 459.679 115.83 461.2 114.245 461.352C110.777 461.657 108.151 459.02 104.832 456.789C99.5804 453.29 96.6574 451.109 91.5546 447.661C85.6591 443.706 89.4738 441.526 92.8427 437.976C93.7344 437.063 108.944 422.865 109.241 421.597C109.291 421.445 109.291 420.837 108.944 420.533C108.597 420.228 108.102 420.33 107.705 420.431C107.16 420.533 98.8373 426.212 82.637 437.418C80.259 439.092 78.1287 439.903 76.1966 439.852C74.0663 439.801 70.0038 438.635 66.9322 437.621C63.2165 436.404 60.244 435.745 60.4917 433.615C60.6404 432.5 62.1266 431.384 64.901 430.218Z" fill="white"/>
<path d="M249 99.5C249 121.315 231.315 139 209.5 139C187.685 139 170 121.315 170 99.5C170 77.6848 187.685 60 209.5 60C231.315 60 249 77.6848 249 99.5Z" fill="#4C75A3"/>
<path fill-rule="evenodd" clip-rule="evenodd" d="M207.173 112.904C207.85 112.955 208.529 112.93 209.209 112.93H209.61C210.584 112.93 211.725 113.068 212.388 112.355V112.355C212.73 111.987 212.777 111.351 212.784 111.15C212.785 111.109 212.784 111.07 212.784 111.028C212.786 110.535 212.861 107.177 214.524 106.649C216.294 106.088 218.567 110.389 220.977 112.043V112.043C222.854 113.332 225.329 113.004 227.606 112.972L229.287 112.949C230.179 112.936 231.11 112.983 231.915 112.599C232.654 112.247 233.276 111.528 232.398 110.072C232.267 109.856 231.467 108.112 227.607 104.53C223.567 100.78 224.109 101.387 228.975 94.9011C231.938 90.9513 233.123 88.54 232.753 87.5073V87.5073C232.124 85.7533 229.286 86.7891 227.423 86.8006L223.933 86.8222C223.289 86.8262 222.582 86.6629 222.03 86.9935V86.9935V86.9935C221.446 87.3426 221.272 88.0907 221.011 88.7188C220.552 89.8262 219.713 91.7249 218.711 93.4276C215.48 98.9123 214.189 99.2026 213.661 98.8615C212.432 98.0676 212.739 95.673 212.739 93.9714C212.739 88.6559 213.546 86.4397 211.169 85.866C210.381 85.6757 209.8 85.5498 207.783 85.5293C205.195 85.503 203.005 85.5373 201.764 86.1449C200.939 86.5491 200.302 87.4494 200.69 87.5012C201.17 87.5651 202.255 87.7943 202.831 88.5774V88.5774C204.175 90.4055 203.69 92.9967 203.576 95.2626C203.495 96.87 203.238 98.5193 202.551 98.8941C201.573 99.4272 200.232 98.3389 197.352 93.3629C196.247 91.453 195.344 89.3922 194.961 88.4789C194.826 88.158 194.709 87.8256 194.505 87.5434C194.414 87.4171 194.3 87.2873 194.165 87.188V87.188C193.516 86.711 192.646 86.7409 191.84 86.7462L186.919 86.7783C186.411 86.7817 185.896 86.7633 185.406 86.8989C185.152 86.9693 184.895 87.0819 184.743 87.2622V87.2622C184.193 87.913 184.881 88.8796 185.235 89.6546C186.725 92.9237 191.236 102.286 196.223 107.479C200.471 111.901 205.155 112.751 207.173 112.904Z" fill="white"/>
</g>
<defs>
<linearGradient id="paint0_linear_260_98" x1="97.4505" y1="369.977" x2="97.4505" y2="490.814" gradientUnits="userSpaceOnUse">
<stop stop-color="#2AABEE"/>
<stop offset="1" stop-color="#229ED9"/>
</linearGradient>
</defs>
</svg>
