<svg width="533" height="296" viewBox="0 0 533 296" fill="none" xmlns="http://www.w3.org/2000/svg">
<ellipse cx="275" cy="148" rx="147" ry="148" fill="#D33939"/>
<path d="M76.6268 148.48C74.4828 148.48 72.4988 148.064 70.6748 147.232C68.8828 146.368 67.4108 145.168 66.2588 143.632L69.8108 139.36C71.6668 141.92 73.8908 143.2 76.4828 143.2C79.9708 143.2 81.7148 141.136 81.7148 137.008V119.632H69.7628V114.4H87.9548V136.672C87.9548 140.608 86.9948 143.568 85.0748 145.552C83.1548 147.504 80.3388 148.48 76.6268 148.48ZM117.796 140.224H100.996L97.6842 148H91.2522L106.372 114.4H112.516L127.684 148H121.156L117.796 140.224ZM115.732 135.328L109.396 120.64L103.108 135.328H115.732ZM145.781 114.4C148.693 114.4 151.221 114.88 153.365 115.84C155.541 116.8 157.205 118.176 158.357 119.968C159.509 121.76 160.085 123.888 160.085 126.352C160.085 128.784 159.509 130.912 158.357 132.736C157.205 134.528 155.541 135.904 153.365 136.864C151.221 137.824 148.693 138.304 145.781 138.304H138.197V148H131.957V114.4H145.781ZM145.493 133.024C148.213 133.024 150.277 132.448 151.685 131.296C153.093 130.144 153.797 128.496 153.797 126.352C153.797 124.208 153.093 122.56 151.685 121.408C150.277 120.256 148.213 119.68 145.493 119.68H138.197V133.024H145.493ZM186.421 140.224H169.621L166.309 148H159.877L174.997 114.4H181.141L196.309 148H189.781L186.421 140.224ZM184.357 135.328L178.021 120.64L171.733 135.328H184.357ZM230.438 114.4V148H225.302L206.774 125.248V148H200.582V114.4H205.718L224.246 137.152V114.4H230.438ZM268.259 148.48C264.867 148.48 261.795 147.744 259.043 146.272C256.323 144.768 254.179 142.704 252.611 140.08C251.075 137.456 250.307 134.496 250.307 131.2C250.307 127.904 251.091 124.944 252.659 122.32C254.227 119.696 256.371 117.648 259.091 116.176C261.843 114.672 264.915 113.92 268.307 113.92C271.059 113.92 273.571 114.4 275.843 115.36C278.115 116.32 280.035 117.712 281.603 119.536L277.571 123.328C275.139 120.704 272.147 119.392 268.595 119.392C266.291 119.392 264.227 119.904 262.403 120.928C260.579 121.92 259.155 123.312 258.131 125.104C257.107 126.896 256.595 128.928 256.595 131.2C256.595 133.472 257.107 135.504 258.131 137.296C259.155 139.088 260.579 140.496 262.403 141.52C264.227 142.512 266.291 143.008 268.595 143.008C272.147 143.008 275.139 141.68 277.571 139.024L281.603 142.864C280.035 144.688 278.099 146.08 275.795 147.04C273.523 148 271.011 148.48 268.259 148.48ZM308.671 140.224H291.871L288.559 148H282.127L297.247 114.4H303.391L318.559 148H312.031L308.671 140.224ZM306.607 135.328L300.271 120.64L293.983 135.328H306.607ZM344.816 148L337.952 138.16C337.664 138.192 337.232 138.208 336.656 138.208H329.072V148H322.832V114.4H336.656C339.568 114.4 342.096 114.88 344.24 115.84C346.416 116.8 348.08 118.176 349.232 119.968C350.384 121.76 350.96 123.888 350.96 126.352C350.96 128.88 350.336 131.056 349.088 132.88C347.872 134.704 346.112 136.064 343.808 136.96L351.536 148H344.816ZM344.672 126.352C344.672 124.208 343.968 122.56 342.56 121.408C341.152 120.256 339.088 119.68 336.368 119.68H329.072V133.072H336.368C339.088 133.072 341.152 132.496 342.56 131.344C343.968 130.16 344.672 128.496 344.672 126.352ZM383.142 142.768V148H357.942V114.4H382.47V119.632H364.182V128.368H380.406V133.504H364.182V142.768H383.142ZM415.298 142.768V148H390.098V114.4H414.626V119.632H396.338V128.368H412.562V133.504H396.338V142.768H415.298ZM444.238 148L437.374 138.16C437.086 138.192 436.654 138.208 436.078 138.208H428.494V148H422.254V114.4H436.078C438.99 114.4 441.518 114.88 443.662 115.84C445.838 116.8 447.502 118.176 448.654 119.968C449.806 121.76 450.382 123.888 450.382 126.352C450.382 128.88 449.758 131.056 448.51 132.88C447.294 134.704 445.534 136.064 443.23 136.96L450.958 148H444.238ZM444.094 126.352C444.094 124.208 443.39 122.56 441.982 121.408C440.574 120.256 438.51 119.68 435.79 119.68H428.494V133.072H435.79C438.51 133.072 440.574 132.496 441.982 131.344C443.39 130.16 444.094 128.496 444.094 126.352ZM23.9298 174.4C26.8418 174.4 29.3698 174.88 31.5138 175.84C33.6898 176.8 35.3538 178.176 36.5058 179.968C37.6578 181.76 38.2338 183.888 38.2338 186.352C38.2338 188.784 37.6578 190.912 36.5058 192.736C35.3538 194.528 33.6898 195.904 31.5138 196.864C29.3698 197.824 26.8418 198.304 23.9298 198.304H16.3458V208H10.1058V174.4H23.9298ZM23.6418 193.024C26.3618 193.024 28.4258 192.448 29.8337 191.296C31.2418 190.144 31.9458 188.496 31.9458 186.352C31.9458 184.208 31.2418 182.56 29.8337 181.408C28.4258 180.256 26.3618 179.68 23.6418 179.68H16.3458V193.024H23.6418ZM66.4491 208L59.5851 198.16C59.2971 198.192 58.8651 198.208 58.2891 198.208H50.7051V208H44.4651V174.4H58.2891C61.2011 174.4 63.7291 174.88 65.8731 175.84C68.0491 176.8 69.7131 178.176 70.8651 179.968C72.0171 181.76 72.5931 183.888 72.5931 186.352C72.5931 188.88 71.9691 191.056 70.7211 192.88C69.5051 194.704 67.7451 196.064 65.4411 196.96L73.1691 208H66.4491ZM66.3051 186.352C66.3051 184.208 65.6011 182.56 64.1931 181.408C62.7851 180.256 60.7211 179.68 58.0011 179.68H50.7051V193.072H58.0011C60.7211 193.072 62.7851 192.496 64.1931 191.344C65.6011 190.16 66.3051 188.496 66.3051 186.352ZM95.2705 208.48C91.8465 208.48 88.7585 207.744 86.0065 206.272C83.2545 204.768 81.0945 202.704 79.5265 200.08C77.9585 197.424 77.1745 194.464 77.1745 191.2C77.1745 187.936 77.9585 184.992 79.5265 182.368C81.0945 179.712 83.2545 177.648 86.0065 176.176C88.7585 174.672 91.8465 173.92 95.2705 173.92C98.6945 173.92 101.783 174.672 104.535 176.176C107.287 177.648 109.447 179.696 111.015 182.32C112.583 184.944 113.367 187.904 113.367 191.2C113.367 194.496 112.583 197.456 111.015 200.08C109.447 202.704 107.287 204.768 104.535 206.272C101.783 207.744 98.6945 208.48 95.2705 208.48ZM95.2705 203.008C97.5105 203.008 99.5265 202.512 101.319 201.52C103.111 200.496 104.519 199.088 105.543 197.296C106.567 195.472 107.079 193.44 107.079 191.2C107.079 188.96 106.567 186.944 105.543 185.152C104.519 183.328 103.111 181.92 101.319 180.928C99.5265 179.904 97.5105 179.392 95.2705 179.392C93.0305 179.392 91.0145 179.904 89.2225 180.928C87.4305 181.92 86.0225 183.328 84.9985 185.152C83.9745 186.944 83.4625 188.96 83.4625 191.2C83.4625 193.44 83.9745 195.472 84.9985 197.296C86.0225 199.088 87.4305 200.496 89.2225 201.52C91.0145 202.512 93.0305 203.008 95.2705 203.008ZM150.845 208L150.797 185.728L139.757 204.16H136.973L125.933 186.016V208H119.981V174.4H125.117L138.461 196.672L151.565 174.4H156.701L156.749 208H150.845ZM181.521 208.48C178.097 208.48 175.009 207.744 172.257 206.272C169.505 204.768 167.345 202.704 165.777 200.08C164.209 197.424 163.425 194.464 163.425 191.2C163.425 187.936 164.209 184.992 165.777 182.368C167.345 179.712 169.505 177.648 172.257 176.176C175.009 174.672 178.097 173.92 181.521 173.92C184.945 173.92 188.033 174.672 190.785 176.176C193.537 177.648 195.697 179.696 197.265 182.32C198.833 184.944 199.617 187.904 199.617 191.2C199.617 194.496 198.833 197.456 197.265 200.08C195.697 202.704 193.537 204.768 190.785 206.272C188.033 207.744 184.945 208.48 181.521 208.48ZM181.521 203.008C183.761 203.008 185.777 202.512 187.569 201.52C189.361 200.496 190.769 199.088 191.793 197.296C192.817 195.472 193.329 193.44 193.329 191.2C193.329 188.96 192.817 186.944 191.793 185.152C190.769 183.328 189.361 181.92 187.569 180.928C185.777 179.904 183.761 179.392 181.521 179.392C179.281 179.392 177.265 179.904 175.473 180.928C173.681 181.92 172.273 183.328 171.249 185.152C170.225 186.944 169.713 188.96 169.713 191.2C169.713 193.44 170.225 195.472 171.249 197.296C172.273 199.088 173.681 200.496 175.473 201.52C177.265 202.512 179.281 203.008 181.521 203.008ZM212.578 179.68H201.442V174.4H229.954V179.68H218.818V208H212.578V179.68ZM234.637 174.4H240.877V208H234.637V174.4ZM265.661 208.48C262.237 208.48 259.149 207.744 256.397 206.272C253.645 204.768 251.485 202.704 249.917 200.08C248.349 197.424 247.565 194.464 247.565 191.2C247.565 187.936 248.349 184.992 249.917 182.368C251.485 179.712 253.645 177.648 256.397 176.176C259.149 174.672 262.237 173.92 265.661 173.92C269.085 173.92 272.173 174.672 274.925 176.176C277.677 177.648 279.837 179.696 281.405 182.32C282.973 184.944 283.757 187.904 283.757 191.2C283.757 194.496 282.973 197.456 281.405 200.08C279.837 202.704 277.677 204.768 274.925 206.272C272.173 207.744 269.085 208.48 265.661 208.48ZM265.661 203.008C267.901 203.008 269.917 202.512 271.709 201.52C273.501 200.496 274.909 199.088 275.933 197.296C276.957 195.472 277.469 193.44 277.469 191.2C277.469 188.96 276.957 186.944 275.933 185.152C274.909 183.328 273.501 181.92 271.709 180.928C269.917 179.904 267.901 179.392 265.661 179.392C263.421 179.392 261.405 179.904 259.613 180.928C257.821 181.92 256.413 183.328 255.389 185.152C254.365 186.944 253.853 188.96 253.853 191.2C253.853 193.44 254.365 195.472 255.389 197.296C256.413 199.088 257.821 200.496 259.613 201.52C261.405 202.512 263.421 203.008 265.661 203.008ZM320.227 174.4V208H315.091L296.563 185.248V208H290.371V174.4H295.507L314.035 197.152V174.4H320.227ZM348.736 179.632V189.856H364.96V195.136H348.736V208H342.496V174.4H367.024V179.632H348.736ZM388.38 208.48C384.956 208.48 381.868 207.744 379.116 206.272C376.364 204.768 374.204 202.704 372.636 200.08C371.068 197.424 370.284 194.464 370.284 191.2C370.284 187.936 371.068 184.992 372.636 182.368C374.204 179.712 376.364 177.648 379.116 176.176C381.868 174.672 384.956 173.92 388.38 173.92C391.804 173.92 394.892 174.672 397.644 176.176C400.396 177.648 402.556 179.696 404.124 182.32C405.692 184.944 406.476 187.904 406.476 191.2C406.476 194.496 405.692 197.456 404.124 200.08C402.556 202.704 400.396 204.768 397.644 206.272C394.892 207.744 391.804 208.48 388.38 208.48ZM388.38 203.008C390.62 203.008 392.636 202.512 394.428 201.52C396.22 200.496 397.628 199.088 398.652 197.296C399.676 195.472 400.188 193.44 400.188 191.2C400.188 188.96 399.676 186.944 398.652 185.152C397.628 183.328 396.22 181.92 394.428 180.928C392.636 179.904 390.62 179.392 388.38 179.392C386.14 179.392 384.124 179.904 382.332 180.928C380.54 181.92 379.132 183.328 378.108 185.152C377.084 186.944 376.572 188.96 376.572 191.2C376.572 193.44 377.084 195.472 378.108 197.296C379.132 199.088 380.54 200.496 382.332 201.52C384.124 202.512 386.14 203.008 388.38 203.008ZM435.074 208L428.21 198.16C427.922 198.192 427.49 198.208 426.914 198.208H419.33V208H413.09V174.4H426.914C429.826 174.4 432.354 174.88 434.498 175.84C436.674 176.8 438.338 178.176 439.49 179.968C440.642 181.76 441.218 183.888 441.218 186.352C441.218 188.88 440.594 191.056 439.346 192.88C438.13 194.704 436.37 196.064 434.066 196.96L441.794 208H435.074ZM434.93 186.352C434.93 184.208 434.226 182.56 432.818 181.408C431.41 180.256 429.346 179.68 426.626 179.68H419.33V193.072H426.626C429.346 193.072 431.41 192.496 432.818 191.344C434.226 190.16 434.93 188.496 434.93 186.352ZM462.648 208.48C458.008 208.48 454.392 207.184 451.8 204.592C449.208 201.968 447.912 198.224 447.912 193.36V174.4H454.152V193.12C454.152 199.712 457 203.008 462.696 203.008C468.36 203.008 471.192 199.712 471.192 193.12V174.4H477.336V193.36C477.336 198.224 476.04 201.968 473.448 204.592C470.888 207.184 467.288 208.48 462.648 208.48ZM516.939 208L516.891 185.728L505.851 204.16H503.067L492.027 186.016V208H486.075V174.4H491.211L504.555 196.672L517.659 174.4H522.795L522.843 208H516.939Z" fill="white"/>
</svg>
