<svg width="804" height="449" viewBox="0 0 804 449" fill="none" xmlns="http://www.w3.org/2000/svg">
<path d="M291.956 185.043C293.283 176.977 295.822 169.255 299.455 162.239C301.357 158.857 303.506 155.736 306.666 154.772C309.898 153.823 313.273 153.766 316.527 154.606C319.916 155.262 323.317 156.34 326.846 157.122C328.647 157.559 330.475 157.823 332.312 157.912C334.328 158.059 336.341 157.574 338.146 156.508C339.973 155.364 341.466 153.601 342.432 151.448C343.31 149.441 343.913 147.284 344.216 145.055C344.38 144.019 344.497 142.879 344.646 142.072C344.84 141.241 345.138 140.448 345.532 139.721C346.399 138.073 347.428 136.55 348.598 135.185L347.751 132.636C347.758 132.629 347.766 132.623 347.774 132.62C347.783 132.616 347.792 132.615 347.801 132.616C347.81 132.616 347.819 132.619 347.827 132.624C347.835 132.629 347.843 132.636 347.848 132.645C347.833 132.645 347.743 132.573 347.692 132.547C347.533 132.445 347.382 132.327 347.242 132.192C346.894 131.872 346.562 131.528 346.248 131.162C345.585 130.411 344.938 129.586 344.309 128.741C343.05 127.053 341.833 125.269 340.669 123.479L339.31 125.042C339.523 125.186 339.749 125.303 339.982 125.394L340.455 125.5C340.774 125.569 341.03 125.568 341.32 125.605C341.87 125.636 342.408 125.65 342.938 125.641C344.002 125.629 345.05 125.577 346.096 125.502C348.188 125.363 350.26 125.134 352.342 124.907L352.353 124.906C352.475 124.893 352.591 124.84 352.688 124.752C352.784 124.665 352.859 124.548 352.902 124.414C353.218 123.419 353.582 122.446 353.992 121.5C354.4 120.608 354.886 119.568 355.432 119.316C357.052 118.585 358.937 118.108 360.709 117.524C362.557 116.996 364.376 116.342 366.159 115.567C366.428 115.402 366.663 115.17 366.846 114.886C367.029 114.602 367.157 114.274 367.22 113.925C367.327 113.309 367.329 112.673 367.226 112.055C367.043 110.927 366.74 109.83 366.325 108.791C364.662 104.828 362.718 101.037 360.513 97.4584C359.466 95.7441 358.645 93.8536 358.078 91.8507C357.515 89.9627 357.373 87.9362 357.667 85.9653L357.64 86.0592C358.785 82.5008 359.589 78.8032 360.038 75.035C360.526 71.318 360.828 67.5705 360.944 63.8118C361.085 60.0639 361.091 56.3182 361.014 52.5772C360.938 48.8275 360.789 45.1143 360.486 41.3415C360.453 40.9344 360.305 40.5521 360.065 40.2564C359.825 39.9606 359.507 39.7686 359.163 39.7113C358.819 39.654 358.469 39.7347 358.169 39.9405C357.869 40.1463 357.636 40.4651 357.508 40.8455L357.485 40.9166C355.622 46.4468 353.411 51.8062 350.872 56.9502C348.371 62.0802 345.448 66.9088 342.145 71.3665C338.986 75.7736 335.068 79.3416 330.651 81.8348C328.498 82.9988 326.176 83.6655 323.811 83.7987C321.442 83.886 319.077 83.5127 316.811 82.6939L317.893 84.2216C317.444 81.2167 316.643 78.2998 315.513 75.5539C314.924 74.1175 314.17 72.7835 313.272 71.5896C312.278 70.2814 310.994 69.325 309.563 68.8275C308.823 68.622 308.062 68.5432 307.303 68.5936C306.581 68.6808 305.872 68.8741 305.191 69.1689C303.888 69.7098 302.683 70.5377 301.643 71.6084C299.677 73.7282 298.284 76.4807 297.635 79.5242C296.885 82.3039 296.297 85.1403 295.874 88.014C295.406 90.9217 295.308 93.895 295.582 96.8366C295.669 98.3675 296.05 99.8555 296.694 101.189C297.339 102.522 298.232 103.667 299.306 104.537C301.566 105.896 304.163 106.266 306.633 105.582C306.677 105.574 306.716 105.546 306.743 105.503C306.769 105.461 306.78 105.408 306.773 105.356C306.765 105.307 306.742 105.263 306.708 105.232C306.675 105.201 306.633 105.186 306.59 105.19C304.244 105.588 301.852 105.04 299.804 103.635C298.918 102.799 298.205 101.736 297.719 100.527C297.233 99.3186 296.987 97.9958 297 96.6588C296.981 91.0674 297.904 85.5272 299.716 80.3583C300.35 77.8418 301.593 75.5972 303.293 73.8985C304.109 73.1111 305.045 72.5142 306.05 72.1397C306.514 71.9553 306.994 71.8385 307.482 71.7919C307.71 71.7736 307.939 71.7922 308.162 71.8472C308.379 71.9063 308.622 71.8312 308.82 71.9814C309.745 72.4696 310.575 73.1748 311.259 74.0536C311.944 74.9325 312.469 75.9666 312.802 77.0926C313.724 79.5414 314.359 82.1262 314.689 84.7762L314.691 84.7866C314.737 85.1316 314.861 85.4554 315.052 85.723C315.243 85.9905 315.492 86.1915 315.773 86.3044C318.4 87.3846 321.171 87.8967 323.953 87.8158C326.742 87.7048 329.488 86.9693 332.043 85.6486C336.978 82.9924 341.343 79.0688 344.82 74.1661C348.271 69.4765 351.282 64.3634 353.803 58.9151C356.355 53.5322 358.561 47.9315 360.402 42.1603L357.402 41.7354C357.731 45.3466 357.967 49.0443 358.146 52.709C358.318 56.3823 358.408 60.0618 358.365 63.7321C358.316 67.3999 358.241 71.0745 357.883 74.6996C357.605 78.3094 356.978 81.87 356.013 85.312L355.991 85.3825L355.986 85.4069C355.661 87.7736 355.886 90.1998 356.638 92.4278C357.32 94.553 358.269 96.5452 359.455 98.3374C361.681 101.788 363.643 105.464 365.316 109.323C365.705 110.257 365.995 111.244 366.177 112.261C366.349 113.251 366.248 114.186 365.657 114.519C364.836 114.917 363.99 115.24 363.127 115.486L360.442 116.321C358.631 116.884 356.87 117.329 354.99 118.074C354.706 118.2 354.447 118.393 354.23 118.641C354.036 118.858 353.859 119.094 353.703 119.349C353.41 119.816 353.146 120.305 352.91 120.814C352.45 121.8 352.037 122.817 351.676 123.859L352.235 123.366C350.176 123.511 348.101 123.585 346.041 123.609C345.011 123.622 343.982 123.611 342.969 123.563C342.461 123.541 341.961 123.498 341.476 123.442C341.251 123.398 340.985 123.379 340.796 123.319L340.506 123.24C340.473 123.211 340.491 123.211 340.463 123.231L339.231 124.105C339.184 124.138 339.144 124.181 339.112 124.233C339.08 124.284 339.056 124.342 339.043 124.404C339.03 124.465 339.028 124.53 339.036 124.592C339.044 124.655 339.062 124.716 339.09 124.77L339.104 124.795C340.227 126.716 341.374 128.58 342.613 130.411C343.23 131.327 343.868 132.228 344.573 133.11C344.934 133.57 345.317 134.006 345.72 134.415C345.95 134.653 346.197 134.867 346.46 135.054C346.615 135.17 346.777 135.272 346.944 135.361C347.206 135.465 347.476 135.537 347.751 135.575L346.904 133.027C345.505 134.503 344.262 136.172 343.201 137.997C342.622 139.001 342.183 140.107 341.9 141.274C341.653 142.485 341.554 143.408 341.37 144.402C341.066 146.263 340.541 148.064 339.812 149.753C339.124 151.291 338.057 152.547 336.752 153.358C334.188 154.988 330.735 154.486 327.345 153.825C323.939 153.154 320.51 152.146 316.936 151.533C313.271 150.65 309.476 150.87 305.903 152.173C304.996 152.564 304.126 153.062 303.305 153.659L302.162 154.703C301.771 155.03 301.419 155.417 301.114 155.854L300.16 157.104C299.868 157.53 299.626 157.976 299.358 158.411C298.812 159.27 298.357 160.192 297.888 161.101C296.091 164.757 294.691 168.663 293.719 172.728C292.695 176.73 291.993 180.836 291.623 184.992C291.62 185.018 291.623 185.044 291.629 185.069C291.635 185.094 291.646 185.117 291.66 185.137C291.674 185.157 291.691 185.174 291.711 185.186C291.73 185.198 291.751 185.206 291.773 185.208C291.815 185.211 291.857 185.196 291.89 185.166C291.924 185.135 291.947 185.092 291.956 185.043Z" fill="black"/>
<path d="M303.99 107.285C306.719 113.238 307.508 120.158 306.208 126.748C303.99 137.666 307.644 152.987 307.644 152.987C307.644 152.987 316.896 191.782 289.672 185.018C262.447 178.253 219.492 160.808 211.93 125.561C211.93 125.561 220.223 100.523 224.937 92.4501C235.551 74.2736 253.372 26.5848 262.144 19.4642C264.106 15.8765 266.662 12.7903 269.658 10.3898C278.74 2.60783 289.948 -0.941826 301.121 0.425064C317.569 2.22643 344.054 10.2279 358.944 41.538C358.944 41.538 344.531 94.3328 316.291 84.4988C316.291 84.4988 314.066 65.8262 304.36 71.4399C301.83 72.9848 299.888 75.5957 298.921 78.7517C296.352 86.6487 292.277 103.824 303.99 107.285Z" fill="black"/>
<path d="M355.314 84.6175C354.696 83.4516 353.92 82.4127 353.017 81.5423C352.128 80.6505 351.149 79.8923 350.101 79.2853C349.033 78.6751 347.892 78.2633 346.717 78.0646C345.532 77.8636 344.323 78.0362 343.214 78.5648C345.356 79.049 347.429 79.8908 349.369 81.0646C351.322 82.1593 353.196 83.4546 355.314 84.6175ZM347.751 95.0609C347.098 95.0343 346.479 94.7101 346.024 94.1566C345.57 93.6031 345.316 92.8636 345.316 92.094C345.316 91.3245 345.57 90.585 346.024 90.0315C346.479 89.478 347.098 89.1538 347.751 89.1271C348.405 89.1538 349.024 89.478 349.478 90.0315C349.932 90.585 350.186 91.3245 350.186 92.094C350.186 92.8636 349.932 93.6031 349.478 94.1566C349.024 94.7101 348.405 95.0343 347.751 95.0609ZM211.925 125.279C206.107 125.418 200.315 126.25 194.64 127.762C188.943 129.212 183.345 131.16 177.894 133.589C172.42 135.983 167.078 138.779 161.902 141.962C159.359 143.651 156.754 145.225 154.298 147.093L150.566 149.803L146.951 152.723C137.35 160.596 128.55 169.742 120.726 179.982C113.01 190.263 106.127 201.369 100.164 213.155C88.5122 236.746 78.9972 261.711 71.7762 287.641C70.7765 290.843 69.9419 294.105 69.1198 297.373L66.5976 307.162C65.048 313.738 63.6086 320.379 62.1828 327.015C60.2094 340.415 58.1966 353.814 56.3251 367.244C56.2477 367.8 56.3229 368.37 56.5396 368.872C56.7564 369.374 57.1033 369.781 57.5302 370.035L57.5608 370.052C68.2177 376.391 79.1498 382.068 90.312 387.058C95.9066 389.514 101.552 391.801 107.248 393.92C112.966 395.944 118.702 397.903 124.498 399.587C136.082 402.964 147.811 405.604 159.636 407.498C171.442 409.366 183.328 410.466 195.237 410.792L195.302 410.794C195.56 410.802 195.811 410.689 195.999 410.48C201.36 404.491 206.775 398.574 212.088 392.521C212.133 392.47 212.159 392.402 212.161 392.329C212.164 392.257 212.142 392.186 212.102 392.131C212.061 392.077 212.004 392.043 211.942 392.036C211.881 392.03 211.82 392.052 211.772 392.097C205.993 397.527 200.317 403.096 194.586 408.591L195.347 408.279C183.554 407.232 171.846 405.321 160.218 403.04C148.589 400.728 137.087 397.652 125.723 394.04C114.357 390.43 103.148 386.226 92.0939 381.428C81.0515 376.642 70.1713 371.306 59.5664 365.269L60.8017 368.076C62.5307 354.67 64.1182 341.232 65.7449 327.796C66.9293 321.204 68.0548 314.594 69.3365 308.004L71.4757 298.169C72.1794 294.886 72.8959 291.605 73.7777 288.383L76.3012 278.666C77.1354 275.422 78.2422 272.292 79.1994 269.098C81.102 262.701 83.3274 256.453 85.6467 250.252C90.3584 237.901 95.9616 226.048 102.395 214.824C108.798 203.659 115.953 193.118 123.791 183.302C131.55 173.47 140.096 164.54 149.311 156.638C158.531 148.718 168.471 142.032 178.949 136.703C189.458 131.282 200.562 127.627 211.935 125.843L211.952 125.841C212.013 125.832 212.069 125.797 212.108 125.742C212.148 125.687 212.168 125.616 212.164 125.544C212.16 125.472 212.134 125.405 212.089 125.356C212.045 125.306 211.986 125.279 211.925 125.279L211.925 125.279Z" fill="black"/>
<path d="M66.6818 370.009C65.2451 373.011 64.0755 376.18 63.1915 379.465C62.3052 382.665 61.5856 385.926 61.0369 389.229C60.4803 392.531 60.0983 395.869 59.8932 399.227C59.6563 402.662 59.725 406.117 60.0983 409.535C61.5405 406.536 62.7125 403.367 63.595 400.081C64.4819 396.881 65.1993 393.619 65.743 390.315C66.2945 387.012 66.6742 383.673 66.8801 380.316C67.1152 376.882 67.0488 373.428 66.6818 370.009ZM204.497 221.54C202.741 215.729 200.327 210.223 197.32 205.173C194.347 200.022 190.815 195.35 186.814 191.276C184.775 189.249 182.602 187.415 180.316 185.792C178 184.196 175.553 182.88 173.012 181.865C170.464 180.9 167.825 180.302 165.154 180.085C162.517 179.941 159.875 180.233 157.307 180.952C159.865 181.105 162.407 181.504 164.91 182.145C167.34 182.836 169.714 183.774 172.006 184.95C176.528 187.423 180.729 190.638 184.484 194.499C186.414 196.394 188.25 198.418 189.982 200.561C191.768 202.66 193.424 204.916 195.098 207.171C198.38 211.747 201.49 216.538 204.497 221.54ZM143.046 190.43C140.031 192.877 137.372 195.881 135.17 199.326C132.914 202.752 131.04 206.503 129.592 210.488C128.113 214.484 127.154 218.719 126.747 223.051C126.293 227.35 126.53 231.712 127.447 235.908C127.943 231.782 128.631 227.692 129.508 223.655C130.392 219.724 131.527 215.877 132.902 212.147C134.267 208.388 135.801 204.717 137.498 201.15C139.226 197.561 141.07 194.027 143.046 190.43ZM339.167 248.039C340.845 255.666 342.646 263.355 344.818 270.858C346.972 278.36 349.303 285.758 351.333 293.261C352.287 296.793 353.205 300.347 354.017 303.922C354.423 303.527 354.829 303.111 355.235 302.716C354.477 299.37 353.646 296.045 352.816 292.72C350.927 285.135 349.055 277.57 347.378 269.964C345.648 262.379 344.358 254.731 343.07 247C340.385 231.58 337.49 216.201 334.506 200.844C331.54 185.465 328.414 170.149 324.972 154.874C324.951 154.804 324.909 154.745 324.853 154.71C324.797 154.675 324.732 154.667 324.671 154.687C324.612 154.701 324.561 154.741 324.528 154.8C324.494 154.858 324.482 154.93 324.494 154.999C326.26 170.647 328.432 186.213 330.869 201.716C333.323 217.24 335.937 232.702 339.167 248.039ZM274.101 352.219C275.434 352.684 276.833 352.832 278.215 352.655C279.239 348 280.151 343.31 280.952 338.586C281.994 332.559 282.824 326.511 283.512 320.402C284.113 314.957 284.571 309.471 284.713 303.901C290.897 302.778 297.161 302.388 303.411 302.737C310.441 303.052 317.382 304.701 323.965 307.621C329.463 310.121 334.616 313.566 339.256 317.846C340.333 316.91 341.428 315.913 342.54 314.895C337.542 309.715 331.842 305.556 325.678 302.592C318.676 299.242 311.257 297.262 303.712 296.731C297.433 296.32 291.135 296.703 284.925 297.874C285.86 292.159 286.726 286.444 287.485 280.708C288.438 273.58 289.339 266.431 290.116 259.262C290.805 252.071 291.423 244.901 291.811 237.669C292.235 230.455 292.306 223.218 292.023 215.994C292.022 215.957 292.015 215.921 292.002 215.887C291.989 215.853 291.97 215.823 291.947 215.798C291.924 215.773 291.897 215.753 291.868 215.741C291.838 215.728 291.807 215.722 291.776 215.723C291.717 215.732 291.663 215.763 291.621 215.812C291.58 215.861 291.553 215.925 291.546 215.994C291.14 223.164 290.399 230.292 289.533 237.399C288.704 244.506 287.662 251.572 286.549 258.638C285.525 265.704 284.378 272.749 283.159 279.794L279.38 300.825C279.31 301.201 279.304 301.589 279.362 301.967C279.42 302.345 279.541 302.706 279.719 303.029C279.896 303.352 280.126 303.63 280.395 303.847C280.665 304.065 280.968 304.217 281.288 304.296C281.589 304.371 281.9 304.385 282.206 304.337L282.241 304.317C282.859 304.213 283.477 304.129 284.077 304.004C282.448 309.099 281.04 314.287 279.857 319.55C278.48 325.472 277.279 331.458 276.255 337.463C275.408 342.368 274.69 347.286 274.101 352.219ZM336.714 405.399C334.4 408.163 332.052 410.948 329.686 413.691L376.195 413.546C401.233 413.317 426.288 413.234 451.325 412.839C476.364 412.548 501.401 412.139 526.439 411.613L564.014 410.657L582.783 410.179L601.571 409.535L582.783 408.89L564.014 408.412L526.439 407.456C501.402 406.958 476.364 406.549 451.325 406.23C426.288 405.835 401.233 405.752 376.195 405.524L336.714 405.399Z" fill="black"/>
<path d="M0.574402 409.535L19.3615 410.179L38.1312 410.657L75.7055 411.592C100.743 412.091 125.781 412.5 150.819 412.819C175.874 413.213 200.912 413.297 225.95 413.525L229.552 413.546C227.221 411.011 224.891 408.35 222.595 405.566C198.67 405.774 174.762 405.877 150.819 406.252C125.781 406.522 100.743 406.93 75.7055 407.478L38.1311 408.413L19.3613 408.891L0.574402 409.535ZM551.662 166.503C552.664 165.858 554.061 165.399 554.768 166.143C555.074 166.624 555.29 167.177 555.4 167.764C555.511 168.352 555.514 168.96 555.409 169.549C555.15 172.256 554.638 174.921 553.884 177.497C552.491 182.772 550.705 187.947 548.936 193.12C547.079 198.286 545.36 203.544 543.541 208.737L538.279 224.406L527.936 255.773C526.164 260.965 524.436 266.185 522.472 271.241C521.557 273.771 520.474 276.211 519.232 278.54C518.648 279.572 517.734 280.855 517.181 280.511C516.766 280.139 516.468 279.615 516.334 279.022C516.133 278.362 515.974 277.685 515.858 276.996C515.831 277.712 515.85 278.43 515.914 279.142C515.939 279.955 516.208 280.731 516.672 281.333C516.839 281.502 517.036 281.623 517.249 281.686C517.463 281.749 517.685 281.752 517.9 281.695C518.266 281.606 518.615 281.439 518.93 281.2C519.478 280.776 519.987 280.286 520.448 279.737C522.122 277.603 523.624 275.291 524.935 272.83C527.512 268.008 529.874 263.03 532.01 257.918C534.219 252.871 536.14 247.681 538.115 242.525C540.018 237.332 541.815 232.093 543.603 226.853C545.296 221.569 546.999 216.292 548.597 210.97C550.136 205.618 551.743 200.317 553.122 194.885C554.609 189.437 555.773 183.874 556.606 178.236C557.04 175.349 557.167 172.41 556.985 169.486C556.914 168.717 556.765 167.96 556.542 167.232C556.327 166.407 555.854 165.709 555.217 165.281C554.899 165.114 554.553 165.031 554.205 165.037C553.856 165.044 553.513 165.14 553.199 165.32C552.634 165.609 552.114 166.009 551.662 166.503Z" fill="black"/>
<path d="M556.208 169.803C550.569 170.681 544.872 170.941 539.192 170.58C533.522 170.345 527.863 169.819 522.238 168.954C510.98 167.272 499.813 164.834 488.791 161.65C477.714 158.705 466.835 154.824 455.922 151.048L439.692 144.809C434.303 142.641 428.945 140.362 423.51 138.283C428.701 141.069 433.968 143.658 439.204 146.356L455.229 153.506C457.933 154.592 460.644 155.663 463.365 156.693C466.092 157.702 468.781 158.86 471.545 159.733C477.056 161.537 482.543 163.46 488.135 164.924C493.694 166.537 499.328 167.767 504.959 169C510.626 170 516.291 171.036 522.014 171.518C533.397 172.552 545.047 172.929 556.208 169.803ZM404.913 197.466C410.401 199.004 415.769 201.081 420.96 203.677C423.567 204.921 426.161 206.209 428.726 207.564C431.261 209.007 433.845 210.311 436.333 211.864C446.388 217.812 456.173 224.376 465.646 231.528C475.231 238.484 484.402 246.198 493.636 253.82L507.224 265.703C511.714 269.734 516.145 273.857 520.702 277.819C516.566 273.276 512.306 268.894 508.104 264.419L494.959 251.751C492.713 249.719 490.454 247.706 488.181 245.713C485.9 243.734 483.671 241.669 481.319 239.803C476.646 236.022 472.004 232.184 467.169 228.682C462.399 225.064 457.45 221.78 452.524 218.461C447.493 215.36 442.48 212.214 437.27 209.535C426.919 204.136 416.181 199.22 404.913 197.466Z" fill="black"/>
<path d="M427.769 135.169L403.4 201.536L381.036 171.828L394.06 136.358L427.769 135.169Z" fill="black"/>
<path d="M195.092 363.857C206.056 388.336 221.313 409.796 239.852 426.814C249.139 435.545 259.773 442.081 271.167 446.063C276.937 448.042 282.968 448.756 288.957 448.17C290.456 447.951 291.942 447.632 293.41 447.214C294.872 446.75 296.304 446.162 297.695 445.456C300.376 443.954 302.932 442.159 305.328 440.094C310.035 436.023 314.552 431.654 318.857 427.006C323.172 422.405 327.412 417.718 331.579 412.944L356.779 384.648C365.288 375.185 373.167 364.966 380.346 354.083C387.595 343.407 394.945 332.824 402.097 322.057L400.161 323.205C405.336 322.967 410.462 321.936 415.41 320.138C420.299 318.409 425.05 316.181 429.609 313.478C434.209 310.774 438.537 307.474 442.514 303.639C443.592 302.579 444.57 301.388 445.433 300.084C446.389 298.533 446.963 296.702 447.092 294.791C447.163 292.883 446.758 290.991 445.928 289.349C445.176 287.822 444.185 286.477 443.005 285.386L443.225 288.597L444.867 286.25C445.363 285.403 445.834 284.526 446.288 283.642C447.178 281.754 447.75 279.681 447.97 277.538C448.147 275.315 447.792 273.078 446.947 271.079C446.113 269.125 444.878 267.446 443.354 266.195L442.585 269.009C443.91 268.906 445.199 268.459 446.36 267.701C447.521 266.943 448.525 265.892 449.301 264.623C450.061 263.423 450.6 262.048 450.881 260.588C451.162 259.127 451.179 257.613 450.933 256.144C450.515 253.282 449.207 250.705 447.264 248.915C446.33 248.049 445.259 247.409 444.114 247.032C442.968 246.655 441.771 246.548 440.59 246.717L440.554 246.723C440.493 246.732 440.438 246.769 440.399 246.824C440.361 246.88 440.342 246.951 440.347 247.023C440.351 247.095 440.379 247.161 440.425 247.21C440.47 247.258 440.529 247.284 440.59 247.282C442.789 247.218 444.923 248.167 446.536 249.927C448.103 251.616 449.079 253.932 449.272 256.423C449.392 257.598 449.303 258.79 449.01 259.922C448.717 261.054 448.227 262.102 447.57 262.999C446.973 263.868 446.227 264.578 445.38 265.083C444.533 265.589 443.605 265.878 442.657 265.931C442.385 265.905 442.113 265.982 441.88 266.151C441.648 266.32 441.467 266.571 441.365 266.869C441.262 267.167 441.243 267.496 441.31 267.807C441.377 268.119 441.527 268.397 441.738 268.601L441.888 268.745C442.944 269.762 443.778 271.061 444.323 272.533C444.842 273.971 445.01 275.55 444.807 277.094C444.546 278.69 444.032 280.214 443.29 281.586C442.876 282.284 442.446 282.973 442.011 283.658L440.534 285.62C440.368 285.84 440.242 286.095 440.16 286.372C440.079 286.649 440.045 286.942 440.06 287.235C440.075 287.527 440.138 287.814 440.247 288.077C440.356 288.341 440.508 288.576 440.695 288.771L440.705 288.781L440.753 288.832C441.494 289.598 442.113 290.513 442.58 291.535C443.008 292.426 443.202 293.447 443.139 294.468C443.019 295.472 442.673 296.421 442.139 297.216C441.433 298.172 440.649 299.044 439.797 299.819C435.981 303.216 431.858 306.107 427.503 308.438C423.16 310.887 418.648 312.898 414.016 314.447C409.452 315.988 404.752 316.906 400.009 317.181L399.998 317.182C399.626 317.2 399.261 317.311 398.929 317.509C398.597 317.708 398.305 317.988 398.073 318.33C390.864 329.045 383.854 339.943 376.744 350.749C369.843 361.619 362.351 371.952 354.315 381.681L330.323 411.453C326.285 416.355 322.155 421.14 317.874 425.728C313.643 430.351 309.128 434.602 304.367 438.446C302.028 440.348 299.523 441.948 296.893 443.217C295.586 443.774 294.248 444.221 292.888 444.556C291.517 444.846 290.134 445.046 288.744 445.154C283.113 445.309 277.505 444.257 272.194 442.049C266.835 439.861 261.657 437.099 256.726 433.798C251.743 430.527 246.95 426.868 242.38 422.848C224.045 406.688 208.563 386.115 195.503 363.565C195.468 363.504 195.416 363.462 195.355 363.446C195.295 363.431 195.232 363.443 195.179 363.48C195.126 363.518 195.088 363.578 195.072 363.648C195.055 363.718 195.063 363.793 195.092 363.857L195.092 363.857Z" fill="black"/>
<path d="M440.573 247.283L440.608 247.286H440.61L440.675 247.275C443.411 246.901 446.074 245.981 448.548 244.554C449.917 243.772 451.068 242.546 451.865 241.02C452.247 240.156 452.459 239.201 452.486 238.228C452.512 237.254 452.352 236.286 452.017 235.395C450.904 232.037 448.719 229.324 445.929 227.838C444.585 227.098 443.165 226.567 441.704 226.257C440.141 225.834 438.515 225.836 436.953 226.264C431.778 227.969 426.595 229.638 421.442 231.424C416.286 233.2 411.125 234.952 405.999 236.845L408.575 240.248C409.584 237.536 410.508 234.782 411.47 232.047L411.506 231.944C411.707 231.373 411.707 230.731 411.506 230.16C411.305 229.589 410.919 229.135 410.434 228.899C410.127 228.751 409.793 228.695 409.463 228.735C405.632 229.224 401.835 230.029 398.101 231.145C396.176 231.696 394.297 232.451 392.488 233.4C392.007 233.661 391.541 233.961 391.096 234.299L390.407 234.846C390.171 235.078 389.946 235.326 389.733 235.588C389.505 235.824 389.315 236.106 389.172 236.42C389.019 236.696 388.879 236.981 388.752 237.275L388.108 238.824C385.031 247.029 382.174 255.188 379.267 263.392C377.809 267.522 376.345 271.494 375.118 275.915L374.937 276.795C374.905 277.018 374.855 277.237 374.787 277.449C374.65 277.915 374.474 278.363 374.263 278.789C373.822 279.703 373.311 280.569 372.736 281.375C371.562 283.048 370.306 284.64 368.976 286.144C363.523 292.17 357.807 297.858 351.852 303.187C345.934 308.662 340.059 314.053 333.949 319.107C327.866 324.165 321.5 328.688 315.017 333.052L310.138 336.303C308.527 337.355 306.917 338.328 305.261 339.282C301.967 341.201 298.582 342.961 295.139 344.526C291.69 346.061 288.219 347.555 284.703 348.694C282.972 349.259 281.217 349.712 279.444 350.052C277.907 350.415 276.324 350.422 274.785 350.073L274.573 349.995C274.593 349.975 274.77 350.083 274.642 350.019L274.357 349.876L273.787 349.59L272.648 349.017L270.414 347.849C268.944 347.049 267.465 346.282 266.049 345.401C263.193 343.725 260.509 341.67 258.049 339.277C253.283 334.029 248.918 328.298 245.004 322.151C244.965 322.095 244.91 322.059 244.85 322.049C244.79 322.039 244.729 322.057 244.679 322.098C244.629 322.139 244.594 322.201 244.582 322.271C244.569 322.342 244.58 322.415 244.611 322.476C246.322 325.803 248.09 329.083 249.974 332.305C251.833 335.605 253.964 338.681 256.336 341.489C258.785 344.278 261.497 346.729 264.418 348.795C265.857 349.845 267.319 350.835 268.814 351.721C269.559 352.167 270.308 352.632 271.045 353.042L272.154 353.674L272.709 353.991L272.986 354.149C273.194 354.263 273.409 354.361 273.628 354.442L273.417 354.365C274.524 354.825 275.688 355.064 276.862 355.07C277.892 355.094 278.923 355.042 279.948 354.917C281.905 354.657 283.849 354.27 285.77 353.758C289.529 352.75 293.23 351.462 296.851 349.901C300.46 348.366 304.007 346.636 307.492 344.711C309.231 343.753 310.954 342.666 312.636 341.569L317.574 338.255C330.673 329.175 342.952 318.552 354.224 306.548C359.956 300.699 365.421 294.495 370.594 287.963C371.895 286.298 373.114 284.546 374.244 282.715C374.825 281.772 375.348 280.782 375.81 279.752C376.056 279.209 376.257 278.639 376.409 278.05C376.495 277.739 376.557 277.419 376.594 277.094C376.641 276.76 376.685 276.607 376.727 276.354C377.834 272.174 379.126 268.065 380.599 264.045C383.467 255.881 386.691 247.898 390.258 240.126L390.947 238.747C391.046 238.554 391.153 238.368 391.269 238.189C391.349 238.013 391.468 237.866 391.612 237.761C391.746 237.647 391.837 237.518 391.991 237.402L392.5 237.071C392.863 236.841 393.239 236.643 393.625 236.476C395.31 235.775 397.044 235.249 398.807 234.903C402.438 234.188 406.1 233.709 409.776 233.469L407.769 230.158C406.73 232.853 405.653 235.53 404.66 238.249C404.501 238.687 404.45 239.17 404.514 239.641C404.578 240.112 404.755 240.551 405.023 240.908C405.292 241.266 405.641 241.526 406.03 241.658C406.419 241.791 406.832 241.79 407.221 241.657L407.237 241.652C412.394 239.878 417.515 237.963 422.642 236.072C427.771 234.192 432.871 232.194 437.979 230.231C439.032 229.896 440.136 229.84 441.21 230.066C442.408 230.23 443.583 230.576 444.706 231.094C446.945 232.04 448.782 233.975 449.828 236.489C450.091 237.013 450.253 237.599 450.301 238.205C450.349 238.812 450.282 239.423 450.105 239.995C449.582 241.246 448.771 242.297 447.763 243.029C445.515 244.654 443.084 245.899 440.542 246.726L440.608 246.715L440.573 246.718C440.512 246.723 440.455 246.755 440.414 246.807C440.373 246.86 440.35 246.929 440.35 247C440.35 247.072 440.373 247.141 440.414 247.193C440.455 247.245 440.512 247.277 440.573 247.283L440.573 247.283Z" fill="black"/>
<path d="M441.935 245.766L432.49 247.464L442.018 248.286L441.935 245.766Z" fill="black"/>
<path d="M442.536 266.211L428.431 268.844L442.71 268.725L442.536 266.211Z" fill="black"/>
<path d="M441.591 285.889L431.261 290.526L442.158 288.325L441.591 285.889Z" fill="black"/>
<path d="M451.939 219.893C449.88 219.606 447.799 219.625 445.744 219.949C443.72 220.216 441.72 220.687 439.765 221.357L439.146 221.569L439.013 222.056C438.431 224.018 438.041 226.05 437.849 228.116C439.025 226.566 440.048 224.865 440.897 223.044L440.147 223.742C442.175 223.529 444.184 223.112 446.151 222.494C448.165 221.916 450.11 221.042 451.939 219.893ZM416.962 201.144C415.831 203.293 414.804 205.495 413.811 207.715C412.812 209.931 411.87 212.177 410.949 214.433L410.756 214.905L410.968 215.455C411.579 217.036 412.15 218.64 412.795 220.202L412.773 219.065C410.279 225.569 407.987 232.177 406.015 238.947L406.408 238.519C404.525 239.481 402.65 240.474 400.813 241.597C402.849 241.159 404.848 240.593 406.837 239.995L407.071 239.925L407.231 239.566C410.069 233.236 412.587 226.744 414.903 220.148L415.109 219.561L414.882 219.01C414.237 217.447 413.519 215.927 412.841 214.384L412.86 215.405C413.624 213.069 414.369 210.723 415.055 208.348C415.749 205.976 416.407 203.587 416.962 201.144Z" fill="black"/>
<path d="M439.956 222.55C437.849 221.76 435.696 221.149 433.515 220.722C431.355 220.271 429.188 219.916 427.011 219.673C424.835 219.42 422.65 219.287 420.457 219.245C418.246 219.177 416.034 219.298 413.838 219.606C415.945 220.399 418.097 221.012 420.279 221.439C422.439 221.888 424.606 222.245 426.783 222.483C428.959 222.73 431.144 222.866 433.338 222.906C435.548 222.974 437.76 222.854 439.956 222.55ZM610.328 193.826C626.349 196.41 642.393 198.674 658.461 200.617C674.523 202.631 690.607 204.35 706.695 206.011C722.79 207.579 738.889 209.084 755.009 210.296C771.125 211.579 787.264 212.537 803.426 213.169C787.405 210.579 771.361 208.313 755.293 206.37C739.231 204.358 723.147 202.639 707.059 200.984C690.964 199.422 674.864 197.917 658.744 196.707C642.629 195.426 626.49 194.466 610.328 193.826ZM575.379 289.01C584.87 299.48 594.627 309.564 604.48 319.512C614.316 329.484 624.309 339.228 634.334 348.928C644.41 358.554 654.52 368.132 664.787 377.482C675.037 386.856 685.385 396.091 696.001 404.938C686.514 394.463 676.757 384.377 666.904 374.43C657.068 364.458 647.074 354.714 637.046 345.02C626.967 335.398 616.858 325.821 606.589 316.472C596.338 307.099 585.992 297.861 575.379 289.01ZM649.148 253.048C656.01 256.163 662.976 258.795 669.978 261.257C676.973 263.749 684.03 265.955 691.099 268.106C698.187 270.164 705.289 272.162 712.451 273.875C719.608 275.618 726.801 277.187 734.099 278.27C727.238 275.149 720.273 272.515 713.27 270.054C706.274 267.563 699.218 265.357 692.147 263.213C685.058 261.16 677.956 259.162 670.793 257.451C663.637 255.709 656.444 254.137 649.148 253.048ZM669.456 305.413C677.656 312.661 686.08 319.485 694.583 326.161C703.072 332.864 711.694 339.316 720.341 345.72C729.03 352.043 737.748 358.313 746.599 364.333C755.435 370.381 764.351 376.275 773.494 381.745C765.296 374.492 756.873 367.665 748.37 360.99C739.88 354.288 731.259 347.836 722.609 341.438C713.916 335.12 705.198 328.85 696.347 322.831C687.511 316.785 678.595 310.888 669.456 305.413ZM211.777 235.891C214.246 243.06 216.755 250.206 219.396 257.281C222.009 264.37 224.607 271.468 227.354 278.484C230.082 285.511 232.732 292.58 235.524 299.571C238.282 306.582 241.207 313.5 244.149 320.409L244.514 318.726C239.39 323.422 234.338 328.234 229.166 332.854C224.013 337.503 218.73 341.946 213.458 346.405C208.159 350.822 202.809 355.156 197.462 359.496C192.107 363.822 186.819 368.257 181.524 372.68L183.521 372.854C177.136 364.894 171.165 356.487 165.641 347.68C160.043 338.933 154.861 329.828 150.117 320.407C147.756 315.695 145.54 310.888 143.47 305.986C141.439 301.066 139.615 296.037 137.895 290.952C136.246 285.831 134.832 280.61 133.66 275.31C132.525 269.979 131.681 264.568 131.132 259.109C131.13 259.084 131.123 259.059 131.112 259.036C131.102 259.013 131.088 258.993 131.071 258.976C131.053 258.96 131.034 258.948 131.013 258.94C130.991 258.933 130.969 258.93 130.947 258.933C130.906 258.939 130.867 258.963 130.84 259C130.812 259.037 130.796 259.084 130.796 259.134C130.923 264.683 131.402 270.214 132.228 275.68C133.149 281.14 134.33 286.534 135.766 291.837C138.789 302.397 142.63 312.608 147.241 322.34C151.86 332.05 157.054 341.365 162.786 350.215C168.514 359.074 174.715 367.494 181.351 375.426L181.36 375.437C181.618 375.744 181.962 375.929 182.328 375.959C182.694 375.989 183.057 375.862 183.349 375.6C188.515 370.971 193.689 366.355 198.795 361.629C203.909 356.918 209.02 352.2 214.183 347.565C219.372 342.973 224.551 338.364 229.858 333.962C235.148 329.53 240.557 325.29 245.894 320.935C246.108 320.76 246.263 320.505 246.335 320.211C246.406 319.917 246.389 319.603 246.286 319.322L246.26 319.251C243.656 312.156 241.036 305.071 238.247 298.077C235.494 291.065 232.598 284.131 229.78 277.153C226.981 270.166 224.033 263.26 221.101 256.345C218.196 249.416 215.16 242.558 212.082 235.724C212.062 235.679 212.028 235.645 211.987 235.629C211.946 235.613 211.901 235.615 211.862 235.637C211.823 235.658 211.792 235.697 211.777 235.744C211.761 235.791 211.761 235.844 211.777 235.891L211.777 235.891ZM304.24 99.0106C303.54 98.9821 302.877 98.635 302.391 98.0425C301.905 97.45 301.633 96.6585 301.633 95.8347C301.633 95.0109 301.905 94.2193 302.391 93.6268C302.877 93.0343 303.54 92.6872 304.24 92.6587C304.939 92.6872 305.602 93.0343 306.088 93.6268C306.575 94.2193 306.846 95.0109 306.846 95.8347C306.846 96.6585 306.575 97.45 306.088 98.0425C305.602 98.635 304.939 98.9821 304.24 99.0106Z" fill="black"/>
</svg>
