<svg width="552" height="437" viewBox="0 0 552 437" fill="none" xmlns="http://www.w3.org/2000/svg">
<path d="M171.263 346.529C171.202 346.529 171.143 346.518 171.087 346.496C171.032 346.474 170.981 346.442 170.939 346.402C170.896 346.362 170.863 346.314 170.84 346.261C170.817 346.208 170.805 346.152 170.805 346.095V304.978C170.807 304.864 170.856 304.755 170.941 304.675C171.027 304.595 171.142 304.55 171.262 304.55C171.383 304.55 171.498 304.595 171.584 304.675C171.669 304.755 171.718 304.864 171.72 304.978V346.095C171.72 346.152 171.708 346.209 171.685 346.261C171.662 346.314 171.628 346.362 171.586 346.402C171.544 346.442 171.493 346.474 171.438 346.496C171.382 346.518 171.323 346.529 171.263 346.529V346.529Z" fill="black"/>
<path d="M216.813 272.371C215.829 273.961 214.671 275.446 213.358 276.803C212.097 278.202 210.715 279.486 209.357 280.796C206.556 283.328 203.681 285.793 200.656 288.084C194.622 292.698 188.229 296.869 181.53 300.562C174.839 304.305 167.766 307.396 160.42 309.788C156.734 310.98 152.96 311.914 149.13 312.582C147.191 312.804 145.258 313.165 143.31 313.267C141.361 313.32 139.409 313.405 137.459 313.429C129.685 313.18 121.962 312.14 114.421 310.327C106.893 308.596 99.4833 306.432 92.2317 303.847C84.9738 301.31 77.8469 298.46 70.7557 295.581C68.9822 294.871 67.2042 294.145 65.4179 293.525C64.5436 293.234 63.6015 292.93 62.6657 292.562C62.2325 292.321 61.7783 292.111 61.3653 291.843C60.959 291.564 60.5708 291.263 60.2028 290.94C58.7947 289.6 57.7374 287.965 57.1162 286.166C56.4844 284.394 56.1351 282.541 56.0798 280.671L56.0848 280.725C51.4383 256.516 45.4726 232.552 38.2118 208.931C34.678 197.099 30.731 185.383 26.6755 173.708C22.6126 162.035 18.2815 150.45 13.6821 138.956C11.3614 133.219 9.03637 127.484 6.59903 121.793C5.41947 118.938 4.03625 116.164 3.01555 113.143C2.00391 110.148 1.3429 107.057 1.0445 103.924C0.877418 102.337 0.83015 100.741 0.903054 99.1473C1.08815 97.4223 1.83744 95.7957 3.04555 94.4964C4.25367 93.1972 5.85983 92.2905 7.63822 91.9038C9.25292 91.5192 10.8982 91.2615 12.5573 91.1331C15.9101 90.9197 19.2735 91.3577 22.4424 92.4205L31.6696 95.2984L68.5796 106.811C70.1593 107.241 71.7008 107.79 73.1894 108.452C74.6787 109.165 76.0439 110.091 77.2374 111.198C79.65 113.409 81.2246 116.317 81.7155 119.468L84.4542 137.749C84.4573 137.771 84.4511 137.794 84.4368 137.812C84.4225 137.831 84.4012 137.843 84.3776 137.846C84.354 137.85 84.3299 137.844 84.3104 137.831C84.291 137.818 84.2778 137.798 84.2737 137.775L81.0495 119.572C80.495 116.596 78.9447 113.87 76.629 111.799C75.4868 110.768 74.1846 109.909 72.768 109.254C71.3138 108.632 69.8103 108.121 68.2714 107.724L31.2008 96.6887L21.9331 93.9301C18.9637 92.9708 15.8191 92.5994 12.6931 92.8388C11.1266 92.9847 9.57354 93.2402 8.0466 93.6032C6.646 93.9112 5.38203 94.6283 4.43214 95.6539C3.48226 96.6795 2.89416 97.9622 2.75042 99.3217C2.69607 100.803 2.74748 102.286 2.90431 103.761C3.19751 106.763 3.83826 109.725 4.81493 112.593C5.77736 115.435 7.17442 118.238 8.36963 121.106C10.8237 126.81 13.1877 132.547 15.4616 138.317C24.5556 161.394 32.5222 184.83 39.3616 208.624C42.778 220.503 45.9652 232.442 48.791 244.459C51.7742 256.442 54.2236 268.534 56.7132 280.616L56.7171 280.647L56.7182 280.671C56.7059 284.287 58.1256 287.776 60.6951 290.444C61.0377 290.74 61.3984 291.016 61.7755 291.272C62.1569 291.519 62.5826 291.7 62.9824 291.918C63.8329 292.234 64.7243 292.511 65.6753 292.808C67.5226 293.415 69.305 294.11 71.0976 294.793C78.2468 297.558 85.3982 300.281 92.6671 302.694C99.9197 305.12 107.3 307.187 114.778 308.886C122.224 310.608 129.832 311.62 137.49 311.907C139.395 311.894 141.3 311.822 143.206 311.784C145.107 311.696 146.978 311.354 148.868 311.153C152.63 310.52 156.339 309.626 159.964 308.479C167.232 306.137 174.253 303.154 180.935 299.568C187.645 295.992 194.069 291.952 200.155 287.482C203.229 285.28 206.157 282.903 209.016 280.455C210.402 279.188 211.815 277.944 213.106 276.588C214.443 275.279 215.631 273.839 216.65 272.292L216.656 272.283C216.668 272.263 216.689 272.249 216.712 272.243C216.735 272.238 216.76 272.241 216.781 272.253C216.802 272.265 216.817 272.284 216.823 272.306C216.829 272.328 216.825 272.352 216.813 272.372L216.813 272.371Z" fill="black"/>
<path d="M8.39687 99.8427L22.3971 104.513L36.3625 109.271L50.3112 114.074L64.235 118.938C64.3531 118.979 64.4588 119.048 64.5425 119.137C64.6262 119.226 64.6854 119.334 64.7148 119.45L64.7176 119.463C67.5022 130.785 70.178 142.13 72.745 153.499C75.3355 164.863 77.8194 176.249 80.5113 187.591C85.8117 210.293 91.6015 232.889 97.1955 255.527C98.5305 261.115 100.968 266.41 104.38 271.134C107.785 275.834 112.24 279.762 117.426 282.637C122.628 285.449 128.494 286.967 134.478 287.048C137.5 287.029 140.518 286.861 143.521 286.544C146.544 286.236 149.567 285.914 152.561 285.441C158.558 284.571 164.456 283.172 170.18 281.263C175.89 279.275 181.436 276.885 186.772 274.112C192.153 271.392 197.408 268.424 202.614 265.381C207.846 262.375 213.029 259.286 218.217 256.206C218.237 256.194 218.262 256.19 218.285 256.195C218.309 256.2 218.329 256.213 218.342 256.232C218.355 256.251 218.36 256.275 218.355 256.297C218.351 256.32 218.337 256.339 218.317 256.352C208.173 262.851 198.08 269.44 187.389 275.182C182.05 278.096 176.478 280.606 170.725 282.687C164.936 284.726 158.951 286.226 152.856 287.164C149.817 287.653 146.761 287.988 143.705 288.31C140.63 288.643 137.538 288.823 134.443 288.85C128.133 288.802 121.943 287.202 116.475 284.207C111.138 281.102 106.535 276.979 102.958 272.099C99.3806 267.218 96.9063 261.686 95.6909 255.852C90.4591 233.135 85.4231 210.377 79.8977 187.723C77.1768 176.388 74.248 165.097 71.4254 153.783C68.5921 142.472 65.855 131.14 63.2139 119.787L63.6965 120.312L49.8199 115.326L35.9679 110.278L22.1333 105.186L8.33281 100.006C8.31052 99.9972 8.29256 99.9809 8.28281 99.9601C8.27306 99.9393 8.27229 99.9156 8.28068 99.8943C8.28906 99.873 8.30592 99.8556 8.32764 99.8459C8.34935 99.8363 8.37418 99.8352 8.39678 99.8427L8.39687 99.8427ZM170.104 32.799C166.269 30.5857 165.302 23.917 168.259 19.4534C171.988 13.8246 176.155 24.0398 176.155 24.0398C182.954 33.6296 196.772 7.98739 196.772 7.98739C196.772 7.98739 185.806 -5.14644 160.801 3.60944C135.797 12.3653 152.905 42.177 152.905 42.177C152.905 42.177 126.805 53.8515 135.578 84.914C135.578 84.914 158.902 79.7554 157.511 42.7568C157.511 42.7568 167.272 39.102 170.104 32.799" fill="black"/>
<path d="M172.838 33.4606C171.443 33.788 169.969 33.5873 168.728 32.9009C168.676 32.871 168.631 32.8317 168.595 32.7853C168.56 32.7389 168.534 32.6863 168.519 32.6304C168.505 32.5745 168.503 32.5165 168.512 32.4597C168.521 32.4029 168.542 32.3483 168.573 32.2992C168.605 32.25 168.646 32.2073 168.695 32.1733C168.744 32.1393 168.799 32.1148 168.858 32.1012C168.917 32.0876 168.978 32.0851 169.038 32.0939C169.097 32.1027 169.155 32.1226 169.206 32.1525C169.24 32.1725 169.27 32.1959 169.298 32.2222C170.267 33.0512 171.534 33.4945 172.838 33.4606V33.4606ZM196.061 9.32888C197.551 11.5944 198.716 14.0385 199.526 16.5967C200.394 19.1888 200.721 21.9169 200.489 24.6281L200.314 24.1355C201.148 24.9687 201.962 25.8207 202.765 26.6819L205.172 29.3133C205.383 29.5791 205.534 29.883 205.617 30.2064C205.7 30.5298 205.713 30.8659 205.655 31.1942C205.596 31.5224 205.468 31.8359 205.278 32.1154C205.088 32.395 204.84 32.6347 204.549 32.8199C204.054 33.1798 203.526 33.4952 202.97 33.7622C202.683 33.9325 202.36 34.0398 202.024 34.076C201.688 34.1123 201.348 34.0767 201.029 33.9718L201.347 33.7895C201.311 37.5409 200.896 41.2803 200.109 44.9564C199.697 46.8749 198.841 48.682 197.602 50.2467C196.877 51.1025 195.854 51.6839 194.718 51.8861C194.146 51.9488 193.568 51.9267 193.003 51.8204L191.596 51.5902C189.763 51.2777 187.887 51.2783 186.054 51.5919C184.253 51.9472 182.586 52.7589 181.23 53.9409C178.587 56.606 176.547 59.7583 175.237 63.2026C175.23 63.2198 175.216 63.2335 175.199 63.241C175.181 63.2484 175.161 63.2489 175.143 63.2423C175.126 63.2357 175.113 63.2237 175.105 63.2085C175.097 63.1933 175.095 63.1759 175.099 63.1594C175.572 61.337 176.223 59.5607 177.044 57.8539C177.85 56.0921 178.975 54.4786 180.368 53.0872C181.823 51.6528 183.684 50.6488 185.726 50.196C187.74 49.7908 189.82 49.7717 191.842 50.1398L193.317 50.4248C193.71 50.5107 194.115 50.5409 194.518 50.5143C195.324 50.3823 196.054 49.9819 196.578 49.3849C197.729 47.9911 198.57 46.389 199.048 44.6762C200.172 41.1393 200.798 37.4764 200.909 33.7831C200.911 33.7272 200.937 33.6743 200.98 33.6362C201.023 33.5981 201.08 33.5779 201.139 33.5799C201.17 33.5814 201.2 33.5885 201.227 33.6007C201.486 33.6673 201.756 33.6804 202.021 33.6392C202.285 33.598 202.537 33.5034 202.759 33.3619C203.276 33.0934 203.76 32.773 204.205 32.4062C204.412 32.2617 204.586 32.0778 204.714 31.8663C204.843 31.6547 204.924 31.4201 204.953 31.1772C204.981 30.9343 204.956 30.6884 204.88 30.4551C204.803 30.2218 204.677 30.0061 204.508 29.8217L201.925 27.4407C201.061 26.6352 200.206 25.8206 199.372 24.9871C199.31 24.9249 199.262 24.8511 199.231 24.7704C199.201 24.6896 199.188 24.6036 199.195 24.518L199.197 24.4942C199.313 23.2229 199.309 21.9444 199.187 20.6737C199.046 19.3875 198.823 18.1107 198.518 16.8506C197.88 14.3007 197.015 11.8068 195.934 9.39562C195.93 9.3874 195.927 9.37848 195.927 9.36937C195.926 9.36026 195.928 9.35115 195.931 9.34256C195.934 9.33396 195.939 9.32606 195.945 9.31928C195.952 9.31251 195.96 9.307 195.968 9.30308C195.984 9.29658 196.003 9.29559 196.019 9.30029C196.036 9.30499 196.051 9.31509 196.061 9.32888V9.32888Z" fill="black"/>
<path d="M192.112 19.5581C192.937 18.7672 194.041 18.2953 195.211 18.2337C196.366 18.1275 197.527 18.3722 198.527 18.9326C197.373 19.0166 196.335 19.0093 195.29 19.0986C194.221 19.188 193.16 19.3414 192.112 19.5581ZM194.908 24.9262C195.263 24.9145 195.6 24.7721 195.847 24.5291C196.094 24.286 196.232 23.9612 196.232 23.6233C196.232 23.2853 196.094 22.9605 195.847 22.7175C195.6 22.4744 195.263 22.332 194.908 22.3203C194.553 22.332 194.216 22.4744 193.969 22.7175C193.722 22.9605 193.584 23.2853 193.584 23.6233C193.584 23.9612 193.722 24.286 193.969 24.5291C194.216 24.7721 194.553 24.9145 194.908 24.9262V24.9262ZM177.142 39.8843C178.42 41.361 179.584 42.8544 180.827 44.287C182.049 45.7443 183.403 47.0963 184.874 48.3273C182.995 47.5802 181.356 46.3768 180.121 44.8377C178.835 43.3625 177.827 41.6866 177.142 39.8843V39.8843ZM83.3042 132.11C84.2119 128.102 85.3147 124.211 86.5053 120.304C87.7105 116.41 88.9693 112.526 90.4264 108.705C93.2589 101.017 96.6446 93.5239 100.56 86.278C102.555 82.6539 104.761 79.1378 107.167 75.746C109.555 72.3098 112.259 69.0815 115.247 66.0987C118.236 63.0411 121.686 60.4219 125.484 58.3266C129.359 56.2006 133.698 54.9548 138.163 54.6866L138.175 54.6861C138.251 54.6828 138.327 54.6861 138.402 54.6961C142.722 55.2947 147.001 56.0013 151.274 56.8023C155.546 57.5942 159.807 58.4511 164.042 59.4457C168.333 60.3528 172.526 61.6412 176.564 63.294C178.564 64.2373 180.379 65.235 182.35 66.128L188.224 68.7993C190.207 69.6907 192.125 70.7044 193.969 71.8339C195.863 72.9637 197.501 74.4407 198.789 76.1789C201.317 79.4639 204.286 82.5168 207.126 85.6154C212.874 91.7872 218.733 97.8667 224.703 103.854C224.803 103.955 224.867 104.084 224.885 104.222C224.902 104.36 224.873 104.5 224.801 104.621L224.795 104.631C222.581 108.337 220.192 111.908 217.683 115.424C215.169 118.933 212.501 122.349 209.637 125.631C206.767 128.936 203.619 132.013 200.223 134.833C196.787 137.793 192.75 140.053 188.36 141.476L188.945 141.145C185.773 144.211 182.527 147.155 179.106 149.977C177.392 151.383 175.637 152.753 173.761 154.03C172.81 154.688 171.818 155.291 170.79 155.835C169.603 156.539 168.243 156.936 166.846 156.984L168.382 155.286C169.109 158.319 169.865 161.357 170.657 164.374L171.881 168.879C172.087 169.625 172.306 170.367 172.533 171.092C172.732 171.765 172.971 172.426 173.249 173.072L173.283 173.142C173.364 173.316 173.409 173.503 173.414 173.693C173.42 173.883 173.386 174.072 173.314 174.25C173.243 174.428 173.135 174.59 172.998 174.728C172.86 174.866 172.695 174.977 172.512 175.054C172.361 175.118 172.199 175.158 172.034 175.174C161.844 176.083 151.671 176.704 141.456 177.043C131.222 177.439 120.973 177.216 110.769 176.373C108.211 176.12 105.654 175.814 103.108 175.348C100.521 174.927 97.9881 174.243 95.5546 173.307C94.2782 172.812 93.0863 172.139 92.0177 171.311C91.4521 170.85 90.9693 170.305 90.5883 169.697C90.2233 169.084 90.0221 168.549 89.7321 167.972C88.7048 165.71 87.8646 163.375 87.2194 160.99C85.9501 156.27 85.0298 151.473 84.4654 146.631C83.8707 141.801 83.4776 136.994 83.3042 132.11ZM83.5939 132.136C84.3499 141.751 86.0776 151.275 88.7532 160.576C89.4528 162.859 90.3387 165.086 91.4027 167.238C91.6767 167.743 91.9415 168.342 92.2216 168.771C92.5102 169.193 92.8686 169.569 93.2828 169.884C94.2186 170.553 95.252 171.089 96.3506 171.474C101.088 172.952 106.011 173.828 110.99 174.078C121.099 174.681 131.235 174.739 141.351 174.253C151.486 173.877 161.641 173.215 171.722 172.274L170.507 174.376C170.142 173.584 169.835 172.77 169.588 171.938C169.342 171.167 169.114 170.405 168.9 169.641C168.457 168.117 168.076 166.589 167.689 165.062C166.925 162.007 166.203 158.956 165.505 155.888C165.464 155.708 165.46 155.522 165.495 155.34C165.53 155.159 165.601 154.986 165.707 154.831C165.812 154.676 165.948 154.542 166.107 154.437C166.266 154.332 166.446 154.258 166.636 154.219C166.769 154.193 166.905 154.183 167.041 154.19C167.881 154.091 168.689 153.822 169.411 153.4C170.342 152.919 171.242 152.384 172.106 151.8C173.88 150.62 175.602 149.309 177.288 147.956C180.654 145.241 183.919 142.345 187.053 139.383L187.063 139.373C187.224 139.222 187.422 139.112 187.638 139.052C191.698 137.775 195.449 135.742 198.674 133.074C202.024 130.39 205.145 127.458 208.007 124.304C210.915 121.163 213.654 117.865 216.247 114.464C218.838 111.066 221.314 107.56 223.583 103.974L223.676 104.751C217.912 98.5767 212.126 92.428 206.407 86.2162C203.568 83.0829 200.712 80.0044 198.035 76.6865C195.603 73.3716 191.598 71.5061 187.751 69.7301C183.856 67.9975 179.818 66.2962 175.968 64.4828C171.976 62.9973 167.848 61.8682 163.636 61.1102C155.196 59.376 146.602 58.2092 138.06 57.0109L138.299 57.0203C134.222 57.3069 130.27 58.4862 126.752 60.4659C123.189 62.4736 119.926 64.9271 117.051 67.7604C114.122 70.6157 111.465 73.7122 109.112 77.0137C106.711 80.3134 104.504 83.7374 102.502 87.2696C98.4455 94.352 94.8786 101.678 91.8238 109.201C88.7176 116.709 85.9462 124.398 83.5938 132.136L83.5939 132.136Z" fill="black"/>
<path d="M187.999 140.264C186.96 138.015 185.984 135.748 184.996 133.487C184.005 131.228 183.072 128.948 182.044 126.706C181.089 124.436 180.065 122.194 179.001 119.975C178.486 118.857 177.925 117.761 177.318 116.689C177.035 116.143 176.716 115.615 176.364 115.107C176.197 114.848 176.016 114.598 175.821 114.357L175.168 113.684C177.056 115.385 178.573 117.423 179.633 119.681C180.838 121.862 181.862 124.119 182.887 126.373C183.848 128.652 184.797 130.934 185.65 133.25C186.503 135.565 187.315 137.895 187.999 140.264ZM173.523 183.541C173.437 183.541 173.352 183.517 173.278 183.473C173.205 183.429 173.147 183.366 173.11 183.291L168.588 174.168C168.562 174.116 168.547 174.06 168.544 174.003C168.541 173.946 168.549 173.888 168.57 173.835C168.59 173.781 168.621 173.731 168.662 173.689C168.702 173.646 168.751 173.612 168.806 173.588C168.86 173.563 168.919 173.549 168.979 173.547C169.039 173.544 169.099 173.553 169.156 173.572C169.213 173.592 169.265 173.622 169.309 173.66C169.354 173.699 169.389 173.746 169.415 173.797L173.937 182.921C173.97 182.987 173.984 183.06 173.979 183.133C173.974 183.206 173.95 183.277 173.909 183.339C173.868 183.4 173.811 183.451 173.743 183.487C173.676 183.522 173.6 183.541 173.523 183.541V183.541ZM91.4468 169.659L96.9667 188.969C94.0787 179.283 92.0316 171.804 91.4468 169.659Z" fill="black"/>
<path d="M286.369 290.996C283.283 296.157 284.71 306.769 284.069 310.38C283.199 315.486 281.157 320.347 278.086 324.618C277.256 318.544 276.281 312.483 275.277 306.423C274.272 300.377 273.137 294.344 272.089 288.297C270.909 282.279 269.803 276.232 268.566 270.227L266.688 261.206C266.004 258.203 265.378 255.201 264.65 252.212C265.057 255.256 265.538 258.286 265.989 261.33L267.459 270.407C268.464 276.467 269.585 282.5 270.648 288.533C271.827 294.565 272.933 300.598 274.17 306.617C275.408 312.622 276.66 318.641 278.086 324.618C271.186 334.234 259.569 340.308 246.614 344.944C236.906 348.396 226.908 351.062 216.728 352.913C209.275 290.677 220.906 246.899 220.906 246.899C220.906 246.899 219.581 245.336 214.981 245.336C210.366 245.336 197.542 252.53 197.542 252.53C148.848 280.674 133.708 265.039 122.194 253.153C114.638 245.35 103.648 211.45 97.01 189.146C141.759 204.781 166.608 183.1 171.266 183.1C172.736 183.1 179.942 182.38 189.986 181.467C191.169 182.615 192.09 183.984 192.691 185.486C193.293 186.988 193.561 188.592 193.48 190.198C197.644 195.815 202.695 186.434 200.497 183.1C200.004 182.336 199.622 181.512 199.361 180.651C201.356 180.484 203.423 180.305 205.534 180.139C209.042 184.705 213.103 191.457 216.728 194.778C223.089 200.617 224.196 191.235 224.196 191.235C232.086 196.659 232.086 187.071 232.086 187.071C239.102 191.028 236.686 181.467 236.686 181.467C237.167 181.069 237.523 180.551 237.713 179.972C237.903 179.393 237.92 178.776 237.763 178.188C246.724 177.764 255.705 177.885 264.65 178.548C291.959 181.176 317.958 256.903 317.958 256.903C318.948 270.352 297.549 272.233 286.369 290.996ZM130.156 312.214C131.174 318.25 131.802 324.315 132.464 330.377C133.08 336.443 133.372 342.532 133.77 348.614L134.985 366.858L136.108 385.109C136.11 385.131 136.102 385.154 136.086 385.171C136.07 385.188 136.048 385.199 136.024 385.201C136 385.202 135.977 385.195 135.958 385.18C135.94 385.166 135.928 385.145 135.926 385.122L134.074 366.925L132.312 348.722C131.718 342.654 131.019 336.595 130.642 330.511C130.312 324.425 129.948 318.34 129.974 312.227C129.974 312.205 129.983 312.184 129.998 312.168C130.014 312.152 130.035 312.142 130.058 312.14C130.081 312.139 130.104 312.145 130.122 312.159C130.141 312.172 130.153 312.192 130.156 312.214H130.156ZM150.146 311.731C150.788 317.837 151.039 323.95 151.325 330.063C151.563 336.176 151.478 342.294 151.498 348.412L151.581 366.762L151.571 385.114C151.571 385.137 151.562 385.159 151.545 385.175C151.528 385.192 151.506 385.201 151.482 385.201C151.458 385.202 151.434 385.193 151.417 385.177C151.4 385.162 151.389 385.14 151.389 385.117L150.667 366.778L150.036 348.437C149.819 342.324 149.496 336.212 149.497 330.095C149.545 323.976 149.558 317.859 149.963 311.734C149.965 311.713 149.975 311.692 149.992 311.677C150.008 311.662 150.03 311.654 150.053 311.653C150.076 311.653 150.098 311.661 150.115 311.675C150.133 311.69 150.143 311.71 150.146 311.731V311.731Z" fill="black"/>
<path d="M143.519 399.752C168.412 399.752 188.592 391.982 188.592 382.397C188.592 372.813 168.412 365.042 143.519 365.042C118.626 365.042 98.4458 372.813 98.4458 382.397C98.4458 391.982 118.626 399.752 143.519 399.752Z" fill="black"/>
<path d="M166.943 155.587C165.988 156.232 164.88 156.641 163.718 156.779C163.12 156.859 162.513 156.837 161.923 156.716C161.607 156.674 161.312 156.545 161.073 156.344C160.835 156.143 160.664 155.879 160.582 155.587C160.776 155.753 161.004 155.879 161.252 155.958C161.499 156.037 161.761 156.066 162.021 156.045C162.55 156.032 163.078 155.99 163.602 155.918C164.709 155.752 165.824 155.641 166.943 155.587V155.587ZM187.01 141.183C191.822 144.148 196.619 147.135 201.471 150.006C202.688 150.716 203.909 151.424 205.148 152.077C205.762 152.419 206.392 152.709 207.005 153.017C207.298 153.133 207.642 153.303 207.89 153.377C208 153.401 208.108 153.432 208.214 153.469C208.458 153.512 208.705 153.566 208.946 153.63C210.313 154.178 211.636 154.82 212.903 155.553C214.153 156.247 215.383 156.964 216.595 157.704C221.487 160.621 226.117 163.916 230.438 167.556C232.656 169.377 234.613 171.468 236.258 173.774L236.814 174.714L237.26 175.636C237.593 176.269 237.878 176.924 238.113 177.595C238.347 178.322 238.381 179.095 238.209 179.838C238.015 180.586 237.578 181.256 236.959 181.753L237.079 181.384C237.264 182.267 237.379 183.163 237.425 184.063C237.498 184.985 237.381 185.912 237.084 186.792C237.006 187.028 236.884 187.248 236.725 187.442L236.486 187.745L236.152 187.975C235.932 188.128 235.675 188.226 235.405 188.259C235.152 188.318 234.889 188.326 234.632 188.281C234.142 188.228 233.661 188.108 233.206 187.926L231.939 187.3L232.371 187.066C232.339 188.085 232.173 189.095 231.877 190.075C231.612 191.107 230.985 192.023 230.099 192.671C229.611 192.95 229.063 193.118 228.497 193.164C227.93 193.211 227.36 193.133 226.83 192.937C226.322 192.756 225.826 192.548 225.343 192.314L223.988 191.5L224.53 191.272C224.39 192.911 223.815 194.489 222.86 195.86C222.582 196.23 222.219 196.535 221.8 196.753C221.381 196.972 220.915 197.097 220.438 197.121L219.716 197.068C219.491 197.016 219.279 196.932 219.059 196.863C218.638 196.717 218.238 196.52 217.869 196.278C216.483 195.335 215.241 194.213 214.178 192.946C213.106 191.724 212.103 190.462 211.146 189.175C209.23 186.605 207.433 183.973 205.521 181.456C204.601 180.201 203.596 179.005 202.512 177.875C202.019 177.354 201.45 176.904 200.821 176.537C200.598 176.398 200.34 176.318 200.073 176.304C199.885 176.307 199.705 176.378 199.571 176.504L199.849 176.012C199.66 177.679 199.864 179.365 200.445 180.948C200.593 181.336 200.77 181.713 200.973 182.077C201.075 182.258 201.183 182.436 201.297 182.608C201.43 182.853 201.567 183.136 201.689 183.403C202.012 184.424 202.076 185.503 201.875 186.551C201.535 188.573 200.503 190.432 198.94 191.841C198.477 192.252 197.916 192.549 197.305 192.708C196.694 192.867 196.052 192.881 195.434 192.751C194.306 192.387 193.341 191.671 192.697 190.719C192.574 190.58 192.511 190.403 192.52 190.222L192.525 190.116C192.618 188.045 192.109 185.989 191.055 184.174C190.785 183.73 190.481 183.305 190.144 182.903C189.795 182.483 189.462 182.186 189.001 181.703C188.139 180.818 187.424 179.814 186.881 178.724C185.88 176.588 185.285 174.3 185.124 171.966C184.938 169.693 184.958 167.408 185.185 165.138L185.226 165.39C184.497 164.069 183.412 162.956 182.083 162.163C180.714 161.305 179.214 160.653 177.636 160.228C176.045 159.768 174.413 159.447 172.76 159.27C171.928 159.21 171.095 159.128 170.259 159.085L167.742 159.026C167.718 159.027 167.694 159.019 167.676 159.003C167.658 158.987 167.648 158.966 167.647 158.943C167.647 158.92 167.657 158.899 167.673 158.882C167.689 158.865 167.71 158.855 167.734 158.853L170.265 158.738C171.11 158.732 171.956 158.77 172.804 158.784C174.507 158.871 176.197 159.107 177.854 159.489C179.541 159.866 181.156 160.491 182.639 161.341C183.393 161.775 184.095 162.288 184.73 162.869C185.411 163.465 185.972 164.174 186.385 164.962C186.416 165.022 186.43 165.088 186.428 165.155L186.426 165.215C186.311 167.42 186.367 169.63 186.594 171.828C186.798 173.977 187.4 176.075 188.372 178.025C188.866 178.954 189.506 179.805 190.27 180.551C190.606 180.894 191.143 181.361 191.534 181.814C191.948 182.278 192.319 182.775 192.644 183.299C193.919 185.416 194.542 187.832 194.439 190.27L194.268 189.668C194.784 190.246 195.344 190.871 195.928 190.952C196.243 191.006 196.567 190.986 196.872 190.894C197.177 190.802 197.454 190.64 197.678 190.423C198.887 189.295 199.686 187.829 199.959 186.24C200.102 185.498 200.076 184.736 199.882 184.005L199.679 183.563C199.541 183.349 199.413 183.132 199.294 182.911C199.056 182.47 198.851 182.014 198.68 181.546C198.019 179.68 197.814 177.696 198.082 175.744C198.105 175.563 198.195 175.396 198.336 175.273L198.36 175.252C198.835 174.839 199.457 174.613 200.1 174.62C200.661 174.642 201.205 174.802 201.681 175.084C202.458 175.541 203.159 176.104 203.763 176.756C204.884 177.956 205.92 179.225 206.866 180.555C208.744 183.165 210.465 185.835 212.293 188.423C213.209 189.714 214.127 191 215.123 192.219C216.067 193.441 217.182 194.534 218.437 195.468C218.736 195.685 219.064 195.862 219.413 195.995C219.581 196.053 219.75 196.131 219.92 196.178L220.429 196.23C220.774 196.22 221.112 196.136 221.418 195.984C221.723 195.832 221.989 195.616 222.194 195.353C223.097 194.119 223.665 192.692 223.847 191.2C223.862 191.111 223.913 191.032 223.989 190.98C224.066 190.928 224.16 190.906 224.253 190.92C224.302 190.929 224.348 190.946 224.39 190.971L225.669 191.762C226.111 191.982 226.566 192.179 227.031 192.353C227.469 192.526 227.943 192.602 228.417 192.574C228.89 192.545 229.35 192.414 229.762 192.19C230.541 191.621 231.095 190.82 231.334 189.915C231.635 188.992 231.791 188.032 231.799 187.066C231.799 187.02 231.812 186.975 231.836 186.934C231.86 186.894 231.894 186.86 231.936 186.836C231.977 186.812 232.025 186.798 232.073 186.796C232.122 186.794 232.17 186.803 232.214 186.824L232.231 186.832L233.435 187.403C233.834 187.555 234.253 187.653 234.681 187.695C235.072 187.751 235.471 187.667 235.8 187.459C236.129 187.251 236.365 186.934 236.461 186.57C236.71 185.768 236.796 184.929 236.715 184.097C236.66 183.242 236.522 182.393 236.303 181.561C236.286 181.495 236.288 181.425 236.309 181.36C236.33 181.295 236.37 181.237 236.423 181.191C236.886 180.773 237.206 180.233 237.341 179.639C237.476 179.046 237.419 178.428 237.177 177.866C236.93 177.255 236.638 176.661 236.303 176.088L235.81 175.173L235.274 174.354C233.599 172.213 231.639 170.289 229.442 168.628C225.077 165.153 220.506 161.917 215.754 158.936C213.446 157.419 211.021 156.07 208.5 154.9C208.395 154.876 208.292 154.842 208.193 154.799C207.991 154.757 207.71 154.704 207.477 154.639C207.046 154.5 206.758 154.337 206.392 154.186C205.742 153.854 205.102 153.511 204.491 153.145C203.251 152.429 202.054 151.673 200.859 150.913C196.084 147.868 191.456 144.647 186.904 141.325C186.885 141.311 186.873 141.291 186.869 141.269C186.866 141.247 186.872 141.224 186.885 141.205C186.899 141.187 186.92 141.175 186.943 141.17C186.966 141.166 186.99 141.171 187.01 141.183L187.01 141.183Z" fill="black"/>
<path d="M207.52 172.265C210.705 175.078 213.725 178.056 216.567 181.184C219.433 184.305 222.106 187.582 224.571 190.998C224.638 191.093 224.662 191.209 224.639 191.321C224.616 191.433 224.548 191.532 224.449 191.596C224.35 191.661 224.229 191.686 224.11 191.666C223.992 191.646 223.887 191.583 223.818 191.49L223.807 191.473C221.483 188 218.949 184.657 216.217 181.463C213.497 178.248 210.594 175.177 207.52 172.265ZM216.732 170.388C222.257 175.604 227.501 181.082 232.446 186.8C232.521 186.89 232.556 187.004 232.543 187.118C232.53 187.232 232.471 187.336 232.377 187.408C232.284 187.48 232.164 187.515 232.044 187.504C231.924 187.492 231.814 187.437 231.737 187.348L231.724 187.332C227.029 181.448 222.025 175.793 216.732 170.388V170.388ZM223.312 169.033C225.66 170.988 227.989 172.964 230.299 174.962L233.734 177.996C234.864 179.03 235.991 180.047 237.049 181.202C237.128 181.289 237.168 181.402 237.16 181.517C237.152 181.632 237.096 181.739 237.004 181.815C236.913 181.891 236.793 181.929 236.672 181.921C236.551 181.913 236.439 181.86 236.359 181.773L236.346 181.757L236.333 181.742C235.397 180.614 234.314 179.53 233.25 178.457L229.983 175.276C227.782 173.175 225.559 171.094 223.312 169.033ZM196.188 136.359C197.366 137.751 198.676 139.036 200.101 140.2C201.503 141.408 202.923 142.597 204.363 143.766L213.075 150.706C218.896 155.32 224.846 159.796 230.727 164.333L230.809 164.403L230.828 164.421C233.392 166.967 236.304 169.174 239.486 170.984C242.668 172.749 246.124 174.027 249.725 174.771C256.972 176.274 264.527 175.669 271.408 173.036C274.778 171.727 278.182 169.857 281.654 168.363C285.102 166.778 288.635 165.359 292.183 163.988C295.753 162.664 299.367 161.449 303.035 160.391C306.709 159.278 310.486 158.504 314.316 158.079C314.362 158.075 314.409 158.08 314.453 158.093L314.469 158.098C317.819 159.156 321.32 159.719 324.85 159.767C328.353 159.835 331.823 159.109 334.973 157.65C336.532 156.855 338.03 155.956 339.457 154.961C341.201 154.159 343.162 153.887 345.075 154.181C346.895 154.365 348.694 154.704 350.451 155.194C350.833 155.319 351.225 155.411 351.624 155.471C351.968 155.51 352.316 155.49 352.652 155.409C353.292 155.238 353.85 154.862 354.232 154.345L354.598 154.02C354.529 154.052 354.466 154.093 354.41 154.144C354.271 154.264 354.178 154.425 354.146 154.601C354.122 154.732 354.131 154.866 354.171 154.994C354.212 155.121 354.284 155.237 354.382 155.333L354.252 154.315C354.479 153.887 354.568 153.406 354.509 152.93C354.48 152.663 354.426 152.4 354.348 152.143C354.273 151.89 354.175 151.644 354.055 151.407C353.998 151.3 353.964 151.182 353.955 151.061C353.947 150.941 353.965 150.82 354.007 150.706L354.028 150.65C354.276 149.568 354.2 148.442 353.809 147.399C353.447 146.215 352.973 145.065 352.393 143.963C352.328 143.836 352.29 143.698 352.281 143.557C352.273 143.416 352.294 143.275 352.345 143.142L352.369 143.076C352.543 142.643 352.622 142.181 352.602 141.717C352.55 141.22 352.414 140.735 352.201 140.278C351.963 139.785 351.669 139.318 351.322 138.886C350.978 138.449 350.593 138.042 350.171 137.671C349.989 137.516 349.861 137.31 349.805 137.083C349.749 136.856 349.768 136.618 349.859 136.401L349.888 136.335C350.263 135.483 350.283 134.527 349.943 133.662C349.475 132.83 348.691 132.199 347.75 131.898C345.465 131.217 343.04 131.068 340.682 131.466C335.609 132.138 330.612 133.255 325.756 134.802L325.744 134.805C325.582 134.854 325.412 134.876 325.241 134.87C320.71 134.689 316.128 136.593 311.4 137.997C309.011 138.704 306.755 139.498 304.123 140.025C301.599 140.526 299.122 140.779 296.633 141.053C286.696 141.933 276.796 142.237 266.886 142.348L263.171 142.381L261.314 142.392L260.385 142.395C260.062 142.396 259.685 142.386 259.338 142.356C257.204 142.166 255.201 141.298 253.651 139.891C253.129 139.401 252.775 139.02 252.329 138.579L242.198 128.278C235.449 121.406 228.75 114.489 222.101 107.526C222.076 107.499 222.062 107.464 222.063 107.428C222.064 107.392 222.08 107.358 222.108 107.333C222.135 107.308 222.171 107.294 222.209 107.294C222.247 107.294 222.283 107.308 222.31 107.333C229.424 113.87 236.479 120.459 243.477 127.102L253.978 137.062C254.398 137.459 254.882 137.942 255.25 138.269C256.434 139.291 257.946 139.906 259.542 140.012C260.033 140.048 260.639 140.01 261.272 139.998L263.122 139.945L266.822 139.827C276.678 139.439 286.56 139.072 296.308 138.104C298.728 137.843 301.175 137.591 303.494 137.132C305.709 136.706 308.116 135.889 310.443 135.199C312.791 134.483 315.131 133.738 317.584 133.09C320.103 132.362 322.73 132.03 325.362 132.107L324.848 132.175C327.403 131.418 329.934 130.774 332.521 130.211C335.116 129.629 337.746 129.197 340.397 128.917C341.759 128.778 343.13 128.731 344.5 128.775C345.963 128.821 347.406 129.118 348.758 129.651C350.291 130.219 351.533 131.328 352.225 132.745C352.538 133.486 352.671 134.283 352.614 135.079C352.568 135.851 352.374 136.608 352.04 137.313L351.756 135.977C352.294 136.464 352.781 136.999 353.21 137.575C353.648 138.15 354.016 138.769 354.308 139.423C354.613 140.118 354.794 140.857 354.844 141.61C354.866 142.4 354.709 143.186 354.383 143.914L354.36 143.028C354.975 144.273 355.46 145.573 355.807 146.908C355.992 147.598 356.106 148.304 356.148 149.015C356.216 149.809 356.096 150.607 355.795 151.35L355.768 150.593C356.099 151.294 356.295 152.045 356.346 152.811C356.407 153.635 356.207 154.458 355.772 155.173L355.643 154.155C355.743 154.253 355.817 154.372 355.859 154.502C355.901 154.632 355.91 154.77 355.885 154.904C355.851 155.086 355.755 155.253 355.61 155.377C355.545 155.435 355.47 155.483 355.39 155.521L355.755 155.196C355.455 155.667 355.035 156.058 354.534 156.335C354.071 156.613 353.566 156.822 353.037 156.955C352.501 157.064 351.948 157.079 351.406 156.999C350.926 156.914 350.454 156.791 349.995 156.63C348.343 156.114 346.644 155.74 344.921 155.513C343.3 155.207 341.619 155.368 340.095 155.976C338.609 156.94 337.057 157.809 335.449 158.576C332.138 160.067 328.502 160.788 324.84 160.681C321.224 160.572 317.642 159.976 314.201 158.912L314.353 158.932C310.606 159.366 306.917 160.177 303.35 161.353C299.74 162.458 296.214 163.806 292.737 165.248C289.278 166.735 285.843 168.27 282.488 169.961C279.072 171.577 275.932 173.48 272.303 175.054C265.028 178.103 256.915 178.851 249.159 177.188C245.304 176.355 241.612 174.95 238.217 173.026C234.869 171.075 231.825 168.687 229.175 165.932L229.275 166.02C223.437 161.395 217.74 156.623 212.059 151.829C209.213 149.439 206.42 146.989 203.682 144.48C202.306 143.234 200.951 141.965 199.618 140.672C198.966 140.01 198.293 139.373 197.676 138.676L196.75 137.635C196.461 137.266 196.202 136.868 195.931 136.49C195.91 136.46 195.902 136.423 195.909 136.388C195.916 136.352 195.938 136.321 195.969 136.301C196 136.28 196.039 136.272 196.076 136.278C196.113 136.284 196.147 136.304 196.169 136.333L196.188 136.359Z" fill="black"/>
<path d="M332.321 137.033C335.373 136.105 338.512 135.459 341.695 135.104C343.301 134.918 344.923 134.89 346.536 135.02C348.215 135.096 349.842 135.601 351.245 136.482C351.343 136.55 351.409 136.652 351.427 136.766C351.446 136.88 351.416 136.996 351.344 137.089C351.272 137.182 351.165 137.244 351.045 137.262C350.925 137.28 350.803 137.251 350.705 137.183L350.682 137.166C349.438 136.317 347.978 135.8 346.454 135.667C344.889 135.469 343.307 135.426 341.733 135.537C338.552 135.747 335.4 136.248 332.321 137.033V137.033ZM336.488 142.132C339.35 141.541 342.261 141.189 345.187 141.079C346.667 141.032 348.148 141.118 349.611 141.336C351.173 141.498 352.629 142.165 353.735 143.226C353.816 143.312 353.857 143.426 353.849 143.541C353.842 143.656 353.787 143.763 353.696 143.84C353.651 143.878 353.599 143.907 353.542 143.925C353.485 143.944 353.425 143.952 353.365 143.948C353.244 143.941 353.131 143.889 353.05 143.803L353.033 143.783L353.018 143.764C352.081 142.806 350.832 142.175 349.472 141.974C348.063 141.693 346.628 141.539 345.188 141.514C342.275 141.479 339.364 141.686 336.488 142.132V142.132ZM338.023 147.665C340.992 147.154 344.018 147.014 347.025 147.248C348.551 147.353 350.053 147.666 351.485 148.176C352.982 148.679 354.3 149.572 355.288 150.753C355.324 150.799 355.35 150.851 355.366 150.906C355.381 150.962 355.384 151.019 355.376 151.076C355.368 151.133 355.347 151.187 355.317 151.237C355.286 151.286 355.246 151.329 355.197 151.363C355.149 151.398 355.094 151.423 355.036 151.437C354.977 151.451 354.917 151.454 354.857 151.446C354.797 151.437 354.74 151.418 354.688 151.389C354.637 151.359 354.592 151.32 354.556 151.274L354.543 151.258L354.536 151.248C353.695 150.147 352.548 149.292 351.223 148.778C349.868 148.22 348.435 147.85 346.97 147.679C344.001 147.304 340.993 147.3 338.023 147.665ZM290.796 8.56592V92.3722L413.184 102.692V8.56592H290.796ZM399.695 90.1832L303.298 82.678V19.8235L399.695 18.8852V90.1832Z" fill="black"/>
<path d="M310.568 26.6008C310.696 29.1655 310.809 31.6275 310.868 34.0493C310.933 36.4744 310.973 38.8591 310.876 41.2673L310.536 40.9438C312.711 41.0133 314.886 41.1161 317.061 41.1256C319.236 41.1462 321.411 41.0984 323.586 41.0296L323.336 41.2673C323.241 38.8177 323.172 36.3681 323.149 33.9188C323.099 31.4692 323.096 29.0196 323.121 26.5703L323.586 27.0123C321.469 27.0211 319.343 26.9211 317.192 26.8714L310.568 26.6008ZM310.503 26.5393L316.93 26.2686C319.129 26.2191 321.352 26.1191 323.586 26.1279C323.709 26.129 323.827 26.176 323.914 26.2587C324.001 26.3414 324.05 26.4533 324.051 26.5702C324.077 29.0196 324.074 31.4692 324.024 33.9187C324 36.3681 323.931 38.8177 323.836 41.2672L323.836 41.2838C323.835 41.3139 323.827 41.3435 323.814 41.371C323.801 41.3984 323.782 41.4231 323.759 41.4437C323.736 41.4642 323.709 41.4802 323.679 41.4908C323.649 41.5013 323.618 41.5061 323.586 41.505C321.411 41.4363 319.236 41.3885 317.061 41.4093C314.886 41.4186 312.711 41.5214 310.536 41.5908C310.493 41.5922 310.45 41.5855 310.409 41.571C310.369 41.5566 310.332 41.5347 310.3 41.5067C310.269 41.4787 310.243 41.445 310.226 41.4076C310.208 41.3702 310.198 41.3299 310.196 41.2888L310.195 41.2672C310.098 38.7761 310.139 36.2618 310.204 33.788C310.263 31.3106 310.375 28.8737 310.503 26.5393H310.503ZM373.161 25.3045C373.387 30.295 373.539 35.1541 373.674 39.9749C373.83 44.8075 373.899 49.5554 373.957 54.3004C374.015 59.0419 373.937 63.7306 373.773 68.4443C373.636 73.1588 373.432 77.9098 373.418 82.6819L373.087 82.3672C376.059 82.4066 379.031 82.3329 382.003 82.3213C384.975 82.3009 387.947 82.1926 390.919 82.1325L390.341 82.6819C390.177 77.8944 390.056 73.107 389.979 68.3198L389.809 53.9578C389.771 49.1703 389.784 44.3829 389.849 39.5956L390.128 25.2335L390.919 25.9859L382.197 25.6782L373.161 25.3045ZM373.012 25.1624L381.809 24.7888L390.919 24.4809C391.019 24.4775 391.119 24.493 391.213 24.5263C391.307 24.5597 391.394 24.6103 391.467 24.6753C391.54 24.7403 391.6 24.8185 391.641 24.9052C391.683 24.992 391.706 25.0857 391.71 25.181L391.71 25.1895L391.711 25.2336L391.99 39.5957C392.05 44.383 392.063 49.1704 392.029 53.9579L391.859 68.3199C391.777 73.1072 391.656 77.8945 391.497 82.682L391.496 82.7117C391.491 82.8531 391.428 82.987 391.32 83.0843C391.212 83.1816 391.068 83.2345 390.919 83.2316C387.947 83.1715 384.975 83.0632 382.003 83.0428C379.031 83.0311 376.059 82.9575 373.087 82.9966C373.044 82.9972 373.001 82.9898 372.962 82.9747C372.922 82.9596 372.885 82.9373 372.855 82.9088C372.824 82.8804 372.799 82.8465 372.782 82.8091C372.765 82.7716 372.756 82.7314 372.756 82.6906L372.756 82.682C372.741 77.8793 372.537 73.0555 372.4 68.1953C372.236 63.3342 372.159 58.448 372.216 53.6151C372.274 48.7852 372.343 43.9584 372.5 39.2163C372.634 34.4623 372.787 29.7467 373.012 25.1624ZM360.194 106.424V98.2234L346.706 97.086V105.138C338.514 105.348 332.412 107.484 332.09 110.634C331.686 114.588 340.534 118.639 351.851 119.683C363.168 120.727 372.67 118.368 373.073 114.414C373.391 111.31 368.002 108.146 360.194 106.424ZM233.996 118.989C240.69 114.934 247.462 111.001 254.256 107.105C254.335 107.061 254.429 107.044 254.52 107.057C260.806 107.976 267.07 109.028 273.331 110.097C279.59 111.18 285.87 112.136 292.16 113.035L311.028 115.74C317.311 116.684 323.601 117.581 329.874 118.582C329.998 118.601 330.109 118.666 330.182 118.763C330.255 118.86 330.285 118.981 330.265 119.099C330.245 119.214 330.179 119.316 330.082 119.387C325.424 122.711 320.734 125.993 316.011 129.233L308.951 134.125L301.846 138.96C301.836 138.966 301.824 138.969 301.812 138.967C301.801 138.966 301.79 138.96 301.783 138.95C301.776 138.941 301.773 138.93 301.774 138.919C301.776 138.908 301.782 138.897 301.791 138.89L308.676 133.776L315.606 128.718C320.218 125.337 324.854 121.986 329.514 118.666L329.722 119.471C323.438 118.538 317.171 117.501 310.897 116.512L292.095 113.416C285.828 112.381 279.552 111.405 273.253 110.554C266.958 109.689 260.664 108.808 254.394 107.793L254.658 107.745C247.827 111.583 240.973 115.385 234.042 119.063C234.032 119.069 234.02 119.07 234.008 119.067C233.997 119.064 233.987 119.057 233.981 119.048C233.975 119.038 233.973 119.026 233.976 119.015C233.978 119.004 233.985 118.995 233.996 118.989V118.989ZM242.11 126.974C245.96 127.91 249.78 128.937 253.596 129.978L265.01 133.204L276.363 136.622C280.136 137.796 283.904 138.984 287.643 140.264C283.793 139.329 279.972 138.301 276.157 137.26L264.742 134.033L253.39 130.614C249.617 129.44 245.849 128.252 242.11 126.974Z" fill="black"/>
<path d="M371.647 111.387C373.956 111.089 376.291 111.024 378.614 111.194C381.001 111.303 383.34 111.874 385.487 112.873C386.609 113.427 387.576 114.228 388.308 115.208C389.037 116.232 389.441 117.433 389.471 118.668C389.494 119.855 389.307 121.036 388.918 122.163C388.573 123.323 387.982 124.404 387.181 125.338C386.38 126.273 385.398 127.053 384.288 127.636C383.245 128.208 382.151 128.692 381.019 129.081C378.766 129.879 376.39 130.318 373.987 130.383C371.615 130.429 369.25 130.137 366.971 129.514C364.783 128.873 362.455 128.806 360.23 129.319C361.27 128.782 362.429 128.487 363.612 128.458C364.792 128.385 365.976 128.424 367.148 128.575C369.375 128.956 371.644 129.065 373.901 128.9C376.122 128.728 378.307 128.254 380.386 127.492C381.421 127.111 382.424 126.658 383.387 126.136C384.316 125.67 385.141 125.036 385.816 124.271C386.492 123.506 387.009 122.626 387.341 121.678C387.705 120.724 387.899 119.719 387.915 118.704C387.935 117.729 387.665 116.77 387.134 115.936C386.559 115.094 385.784 114.391 384.872 113.885C382.907 112.843 380.756 112.159 378.527 111.866C376.252 111.521 373.951 111.361 371.647 111.387V111.387Z" fill="black"/>
<path d="M362.232 135.208C362.232 135.208 361.839 147.413 355.012 154.744C355.286 154.151 355.419 153.508 355.402 152.861C355.384 152.214 355.217 151.579 354.912 151C356.008 148.498 353.376 143.495 353.376 143.495C354.912 140.159 350.964 136.824 350.964 136.824C350.964 136.824 353.376 132.029 347.016 130.361C347.016 130.361 364.398 122.648 362.232 135.208Z" fill="black"/>
<path d="M399.546 226.499C399.484 226.499 399.423 226.49 399.364 226.472L281.726 189.498C281.653 189.476 281.586 189.439 281.528 189.392C281.47 189.345 281.423 189.287 281.388 189.222C281.354 189.157 281.333 189.086 281.328 189.014C281.322 188.941 281.332 188.868 281.356 188.799C281.38 188.73 281.418 188.666 281.468 188.611C281.518 188.556 281.578 188.511 281.647 188.478C281.715 188.446 281.789 188.426 281.866 188.421C281.942 188.415 282.019 188.424 282.091 188.447L399.482 225.343L550.633 143.174V136.582L270.306 87.989L224.399 104.818C224.255 104.871 224.095 104.866 223.954 104.807C223.813 104.747 223.703 104.637 223.648 104.501C223.592 104.364 223.596 104.212 223.658 104.078C223.72 103.944 223.836 103.839 223.979 103.786L270.04 86.8999C270.14 86.8656 270.248 86.8559 270.354 86.8715L551.319 135.576C551.453 135.599 551.575 135.666 551.662 135.766C551.749 135.865 551.797 135.991 551.797 136.12V143.495C551.797 143.593 551.77 143.688 551.719 143.773C551.667 143.857 551.593 143.927 551.504 143.975L399.836 226.426C399.747 226.474 399.648 226.499 399.546 226.499V226.499Z" fill="black"/>
<path d="M399.217 219.5C399.17 219.5 399.124 219.493 399.079 219.48L274.059 181.885C274.002 181.868 273.949 181.84 273.903 181.804C273.857 181.767 273.82 181.722 273.792 181.672C273.736 181.57 273.725 181.451 273.762 181.341C273.799 181.231 273.88 181.14 273.987 181.087C274.094 181.034 274.22 181.024 274.335 181.059L399.164 218.595L550.987 135.743C551.04 135.715 551.097 135.696 551.157 135.689C551.216 135.682 551.277 135.686 551.335 135.701C551.393 135.716 551.447 135.741 551.494 135.776C551.542 135.811 551.582 135.854 551.612 135.904C551.641 135.953 551.661 136.008 551.668 136.065C551.676 136.121 551.672 136.179 551.656 136.234C551.641 136.289 551.614 136.34 551.577 136.386C551.54 136.431 551.494 136.469 551.442 136.497L399.445 219.444C399.375 219.481 399.297 219.501 399.217 219.5V219.5Z" fill="black"/>
<path d="M399.545 226.379C399.428 226.379 399.315 226.336 399.23 226.259C399.146 226.182 399.095 226.077 399.09 225.966L398.761 219.087C398.758 219.03 398.767 218.973 398.787 218.919C398.808 218.865 398.839 218.816 398.88 218.774C398.92 218.732 398.969 218.698 399.023 218.673C399.078 218.649 399.136 218.635 399.196 218.633C399.316 218.632 399.432 218.674 399.521 218.75C399.609 218.827 399.664 218.933 399.673 219.046L400.002 225.925C400.005 225.982 399.996 226.039 399.976 226.093C399.956 226.147 399.924 226.196 399.884 226.238C399.843 226.28 399.794 226.315 399.74 226.339C399.686 226.363 399.627 226.377 399.567 226.379H399.545Z" fill="black"/>
<path d="M399.588 223.924L400.502 277.043L401.187 330.162C401.434 347.869 401.944 365.575 401.644 383.281C401.48 392.135 401.315 400.988 400.952 409.841L400.402 423.12C400.128 427.547 399.939 431.974 399.588 436.4C399.584 436.455 399.558 436.506 399.516 436.544C399.473 436.581 399.418 436.602 399.36 436.602C399.302 436.602 399.246 436.581 399.204 436.544C399.161 436.506 399.136 436.455 399.131 436.4C398.78 431.974 398.592 427.547 398.317 423.12L397.767 409.841C397.405 400.988 397.24 392.135 397.075 383.281C396.776 365.575 397.285 347.869 397.532 330.162L398.217 277.043L399.131 223.924C399.132 223.867 399.157 223.813 399.199 223.773C399.242 223.733 399.3 223.711 399.36 223.711C399.42 223.711 399.477 223.733 399.52 223.773C399.563 223.813 399.587 223.867 399.588 223.924ZM539.6 151L540.513 204.119L541.199 257.238C541.446 274.945 541.955 292.651 541.656 310.357C541.491 319.21 541.326 328.063 540.964 336.917L540.414 350.196C540.139 354.623 539.95 359.05 539.6 363.476C539.595 363.531 539.569 363.582 539.527 363.619C539.485 363.657 539.429 363.677 539.371 363.677C539.313 363.677 539.258 363.657 539.215 363.619C539.173 363.582 539.147 363.531 539.143 363.476C538.792 359.05 538.603 354.623 538.329 350.196L537.779 336.917C537.416 328.063 537.251 319.21 537.086 310.357C536.787 292.651 537.296 274.945 537.543 257.238L538.229 204.119L539.143 151C539.144 150.943 539.168 150.889 539.211 150.849C539.254 150.809 539.311 150.786 539.371 150.786C539.431 150.786 539.489 150.809 539.532 150.849C539.574 150.889 539.599 150.943 539.6 151H539.6ZM306.768 296.932C306.768 296.932 317.22 297.76 353.125 321.191C359 325.098 366.188 326.799 373.303 325.967C375.199 325.767 377.056 325.314 378.819 324.621C378.819 324.621 406.126 331.33 381.78 335.708C381.78 335.708 346.906 336.646 320.915 318.509L321.244 328.515H308.084C308.084 328.515 302.162 302.56 306.768 296.932Z" fill="black"/>
<path d="M317.939 258.812C319.958 262.044 321.873 265.328 323.843 268.584L329.579 278.44C331.513 281.711 333.33 285.052 335.206 288.344C337.06 291.595 339.276 294.647 341.816 297.448C343.066 298.863 344.391 300.215 345.788 301.498C347.181 302.773 348.687 303.981 350.176 305.213C353.15 307.672 356.201 310.042 359.219 312.449C362.255 314.833 365.343 317.159 368.54 319.337C370.124 320.445 371.746 321.503 373.428 322.466L374.703 323.166L376.022 323.784C376.904 324.196 377.847 324.478 378.819 324.621C376.835 324.421 374.918 323.824 373.194 322.869C371.425 322.009 369.711 321.051 368.036 320.041C364.708 317.987 361.505 315.766 358.346 313.496C355.172 311.242 352.139 308.822 349.098 306.417C347.591 305.204 346.058 304.012 344.586 302.702C340.168 298.795 336.498 294.188 333.741 289.087C331.928 285.741 330.082 282.431 328.34 279.058L323.055 268.978C321.351 265.588 319.593 262.226 317.939 258.812ZM293.786 281.782C296.426 283.891 298.838 286.244 300.985 288.809C303.196 291.324 305.133 294.046 306.768 296.931C304.125 294.826 301.713 292.472 299.569 289.905C297.361 287.387 295.424 284.666 293.786 281.782ZM231.721 373.028C231.721 373.028 242.196 372.526 281.063 391.206C287.432 394.334 294.795 395.11 301.73 393.385C303.581 392.947 305.358 392.263 307.009 391.354C307.009 391.354 335.012 394.547 311.496 401.967C311.496 401.967 277.064 407.31 248.764 392.623L250.492 402.499L237.449 404.164C237.449 404.164 227.944 379.19 231.721 373.028Z" fill="black"/>
<path d="M253.772 342.155C254.636 345.213 255.384 348.292 256.194 351.36L257.313 355.98C257.623 357.491 258.118 358.962 258.788 360.363C259.462 361.736 260.322 363.019 261.346 364.181C262.399 365.345 263.547 366.479 264.722 367.555C267.069 369.722 269.613 371.688 272.324 373.431C277.831 376.899 283.446 380.296 289.105 383.562C291.939 385.192 294.811 386.766 297.757 388.192C299.212 388.937 300.707 389.61 302.236 390.208C303.738 390.869 305.356 391.258 307.009 391.354C305.329 391.447 303.648 391.204 302.074 390.641C300.478 390.159 298.909 389.599 297.374 388.962C294.315 387.676 291.346 386.222 288.406 384.721C282.53 381.7 276.895 378.346 271.296 374.866C268.509 373.049 265.903 370.993 263.511 368.723C262.322 367.576 261.193 366.404 260.112 365.145C259.025 363.858 258.146 362.425 257.504 360.892C256.875 359.381 256.433 357.806 256.186 356.198L255.321 351.529C254.807 348.404 254.232 345.29 253.772 342.155ZM230.833 349.791C231.627 353.611 232.08 357.487 232.19 361.378C232.381 365.267 232.224 369.165 231.72 373.028C230.923 369.21 230.47 365.333 230.364 361.441C230.177 357.552 230.334 353.655 230.833 349.791V349.791ZM200.566 40.5642C198.703 40.7375 196.825 40.4329 195.128 39.6821C194.242 39.3103 193.466 38.738 192.867 38.0153C192.27 37.2892 191.999 36.3688 192.111 35.4538C192.363 36.2387 192.802 36.9579 193.393 37.5555C193.985 38.1531 194.714 38.613 195.523 38.8994C197.156 39.5779 198.842 40.1345 200.566 40.5642V40.5642ZM377.294 32.2901C377.86 32.2714 378.396 32.0446 378.789 31.6574C379.183 31.2702 379.403 30.7529 379.403 30.2146C379.403 29.6763 379.183 29.159 378.789 28.7718C378.396 28.3846 377.86 28.1578 377.294 28.1392C376.728 28.1578 376.191 28.3846 375.798 28.7718C375.404 29.159 375.184 29.6763 375.184 30.2146C375.184 30.7529 375.404 31.2702 375.798 31.6574C376.191 32.0446 376.728 32.2714 377.294 32.2901V32.2901ZM377.643 43.7466C378.209 43.7279 378.745 43.5011 379.139 43.1139C379.532 42.7268 379.752 42.2094 379.752 41.6711C379.752 41.1328 379.532 40.6155 379.139 40.2283C378.745 39.8411 378.209 39.6143 377.643 39.5957C377.077 39.6143 376.541 39.8411 376.147 40.2283C375.754 40.6155 375.534 41.1328 375.534 41.6711C375.534 42.2094 375.754 42.7268 376.147 43.1139C376.541 43.5011 377.077 43.7279 377.643 43.7466ZM377.818 56.0333C378.384 56.0146 378.92 55.7878 379.314 55.4006C379.707 55.0134 379.927 54.4961 379.927 53.9578C379.927 53.4195 379.707 52.9022 379.314 52.515C378.92 52.1278 378.384 51.901 377.818 51.8824C377.252 51.901 376.715 52.1278 376.322 52.515C375.928 52.9022 375.708 53.4195 375.708 53.9578C375.708 54.4961 375.928 55.0134 376.322 55.4006C376.715 55.7878 377.252 56.0146 377.818 56.0333V56.0333ZM377.818 69.6483C378.384 69.6296 378.92 69.4028 379.314 69.0156C379.707 68.6284 379.927 68.1111 379.927 67.5728C379.927 67.0345 379.707 66.5172 379.314 66.13C378.92 65.7428 378.384 65.516 377.818 65.4973C377.252 65.516 376.715 65.7428 376.322 66.13C375.928 66.5172 375.708 67.0345 375.708 67.5728C375.708 68.1111 375.928 68.6284 376.322 69.0156C376.715 69.4028 377.252 69.6296 377.818 69.6483V69.6483ZM378.167 80.6067C378.733 80.588 379.269 80.3612 379.663 79.974C380.056 79.5868 380.276 79.0695 380.276 78.5312C380.276 77.9929 380.056 77.4756 379.663 77.0884C379.269 76.7012 378.733 76.4744 378.167 76.4557C377.601 76.4744 377.065 76.7012 376.671 77.0884C376.278 77.4756 376.058 77.9929 376.058 78.5312C376.058 79.0695 376.278 79.5868 376.671 79.974C377.065 80.3612 377.601 80.588 378.167 80.6067V80.6067ZM317.006 34.766C317.323 34.7644 317.632 34.6781 317.899 34.517C318.167 34.3559 318.381 34.1265 318.517 33.8551C318.74 33.3818 318.891 32.881 318.967 32.3676C319.036 32.0931 319.045 31.808 318.992 31.5302C318.939 31.2525 318.827 30.9881 318.661 30.7538C318.459 30.5352 318.199 30.3726 317.907 30.2831C317.616 30.1937 317.305 30.1809 317.006 30.2459C316.474 30.3482 315.994 30.6184 315.644 31.0127C315.351 31.4098 315.194 31.8839 315.197 32.3692C315.184 32.8765 315.291 33.3801 315.51 33.8432C315.643 34.1153 315.853 34.3462 316.118 34.5095C316.383 34.6727 316.691 34.7617 317.006 34.766V34.766ZM317.006 34.889C316.263 34.9327 315.524 34.7603 314.887 34.3946C314.552 34.1619 314.28 33.8568 314.094 33.5044C313.909 33.1521 313.814 32.7628 313.817 32.3687C313.811 31.9695 313.891 31.5734 314.052 31.2047C314.213 30.836 314.451 30.5026 314.753 30.225C315.048 29.9548 315.406 29.7549 315.797 29.6415C316.189 29.5282 316.603 29.5046 317.006 29.5727C317.742 29.681 318.426 29.998 318.968 30.482C319.55 30.9698 319.932 31.6382 320.044 32.3681C320.09 32.7521 320.028 33.1408 319.865 33.4945C319.701 33.8482 319.441 34.1541 319.111 34.3808C318.48 34.7479 317.746 34.925 317.006 34.889V34.889Z" fill="black"/>
<path d="M321.191 41.3105C319.84 41.5258 318.478 41.6701 317.11 41.7429C316.377 41.7734 315.636 41.8096 314.887 41.7912C314.137 41.7748 313.387 41.6814 312.66 41.6167L312.586 41.6099C312.543 41.6062 312.502 41.5945 312.464 41.5755C312.426 41.5565 312.393 41.5306 312.366 41.4993C312.338 41.468 312.318 41.4319 312.305 41.3931C312.293 41.3543 312.288 41.3134 312.292 41.273L312.293 41.2674C312.397 40.5183 312.454 39.7641 312.465 39.0086C312.414 38.2198 312.532 37.4294 312.812 36.6852C313.141 35.8834 313.714 35.1931 314.459 34.7025C315.203 34.2118 316.084 33.9431 316.989 33.9305C317.894 33.9179 318.783 34.1621 319.542 34.632C320.301 35.1018 320.895 35.7758 321.249 36.5681C321.591 37.3541 321.691 38.2161 321.539 39.0542C321.451 39.8814 321.305 40.6516 321.191 41.3105ZM321.101 41.2245L320.753 38.9633C320.716 38.2956 320.523 37.6442 320.19 37.0555C319.849 36.5044 319.371 36.041 318.798 35.7058C318.225 35.3706 317.574 35.1738 316.903 35.1326C316.199 35.1157 315.502 35.2732 314.881 35.5898C314.26 35.9063 313.736 36.371 313.362 36.9381C312.969 37.5609 312.792 38.285 312.855 39.0085C312.866 39.764 312.923 40.5183 313.027 41.2674L312.66 40.9185C313.347 40.8536 314.012 40.7602 314.677 40.7438C315.341 40.7254 316.015 40.7615 316.696 40.7921C318.064 40.8707 319.491 41.0278 321.101 41.2245V41.2245ZM329.276 26.6009C329.404 29.1657 329.517 31.6277 329.576 34.0494C329.641 36.4745 329.681 38.8592 329.584 41.2674L329.244 40.944C331.419 41.0134 333.594 41.1162 335.769 41.1257C337.944 41.1463 340.119 41.0985 342.294 41.0298L342.044 41.2674C341.949 38.8178 341.881 36.3683 341.857 33.9189C341.807 31.4693 341.804 29.0198 341.829 26.5704L342.294 27.0124C340.178 27.0212 338.051 26.9212 335.9 26.8716L329.276 26.6009ZM329.212 26.5394L335.638 26.2687C337.837 26.2192 340.061 26.1192 342.294 26.128C342.417 26.1291 342.535 26.1761 342.622 26.2588C342.709 26.3415 342.758 26.4534 342.759 26.5703C342.785 29.0197 342.782 31.4693 342.732 33.9188C342.708 36.3682 342.64 38.8178 342.544 41.2673L342.544 41.2839C342.543 41.314 342.536 41.3437 342.522 41.3711C342.509 41.3985 342.491 41.4233 342.467 41.4438C342.444 41.4644 342.417 41.4804 342.387 41.4909C342.358 41.5014 342.326 41.5063 342.294 41.5052C340.119 41.4364 337.944 41.3886 335.769 41.4094C333.594 41.4187 331.419 41.5215 329.244 41.591C329.201 41.5923 329.158 41.5856 329.118 41.5712C329.077 41.5567 329.04 41.5349 329.009 41.5068C328.977 41.4788 328.952 41.4451 328.934 41.4077C328.916 41.3704 328.906 41.33 328.905 41.289L328.904 41.2674C328.807 38.7762 328.847 36.262 328.912 33.7881C328.971 31.3107 329.084 28.8738 329.212 26.5394Z" fill="black"/>
<path d="M335.715 34.7661C336.031 34.7644 336.341 34.6781 336.608 34.517C336.875 34.3559 337.089 34.1265 337.225 33.8552C337.448 33.3818 337.599 32.8811 337.675 32.3677C337.744 32.0932 337.753 31.8081 337.7 31.5303C337.648 31.2525 337.535 30.9882 337.369 30.7538C337.167 30.5352 336.907 30.3726 336.616 30.2832C336.324 30.1938 336.013 30.1809 335.715 30.2459C335.183 30.3482 334.702 30.6185 334.352 31.0128C334.059 31.4099 333.903 31.8839 333.905 32.3692C333.893 32.8765 333.999 33.3802 334.218 33.8432C334.351 34.1153 334.562 34.3463 334.826 34.5095C335.091 34.6728 335.399 34.7617 335.715 34.7661V34.7661ZM335.715 34.889C334.972 34.9328 334.232 34.7603 333.595 34.3947C333.26 34.162 332.989 33.8568 332.803 33.5045C332.617 33.1522 332.522 32.7628 332.526 32.3687C332.519 31.9696 332.599 31.5734 332.76 31.2047C332.921 30.836 333.16 30.5026 333.462 30.225C333.756 29.9549 334.114 29.755 334.506 29.6416C334.897 29.5282 335.312 29.5046 335.715 29.5727C336.45 29.681 337.134 29.998 337.677 30.4821C338.259 30.9699 338.64 31.6383 338.752 32.3682C338.799 32.7521 338.737 33.1409 338.573 33.4945C338.409 33.8482 338.149 34.1541 337.82 34.3808C337.188 34.7479 336.454 34.925 335.715 34.889Z" fill="black"/>
<path d="M339.899 41.3105C338.549 41.5258 337.186 41.6701 335.819 41.7429C335.085 41.7734 334.345 41.8096 333.595 41.7912C332.845 41.7748 332.096 41.6814 331.368 41.6167L331.294 41.6099C331.252 41.6062 331.21 41.5945 331.172 41.5755C331.135 41.5565 331.101 41.5306 331.074 41.4993C331.047 41.468 331.026 41.4319 331.013 41.3931C331.001 41.3543 330.996 41.3134 331 41.273L331.001 41.2674C331.105 40.5183 331.162 39.7641 331.174 39.0086C331.123 38.2198 331.24 37.4294 331.52 36.6852C331.849 35.8834 332.423 35.1931 333.167 34.7025C333.911 34.2118 334.792 33.943 335.697 33.9305C336.603 33.9179 337.492 34.1621 338.25 34.6319C339.009 35.1017 339.603 35.7758 339.957 36.5681C340.299 37.3541 340.4 38.2161 340.247 39.0542C340.159 39.8814 340.013 40.6516 339.899 41.3105ZM339.809 41.2245L339.462 38.9633C339.424 38.2956 339.232 37.6442 338.898 37.0555C338.557 36.5044 338.079 36.041 337.506 35.7058C336.933 35.3706 336.283 35.1738 335.611 35.1326C334.907 35.1157 334.21 35.2732 333.589 35.5898C332.968 35.9063 332.444 36.371 332.07 36.9381C331.677 37.5609 331.5 38.285 331.563 39.0085C331.574 39.764 331.632 40.5183 331.736 41.2674L331.368 40.9185C332.056 40.8536 332.72 40.7602 333.385 40.7438C334.049 40.7254 334.723 40.7615 335.404 40.7921C336.772 40.8707 338.199 41.0278 339.809 41.2245ZM348.333 26.6009C348.46 29.1657 348.573 31.6277 348.632 34.0494C348.697 36.4745 348.738 38.8592 348.641 41.2674L348.3 40.944C350.475 41.0134 352.65 41.1162 354.825 41.1257C357 41.1463 359.175 41.0985 361.35 41.0298L361.1 41.2674C361.006 38.8178 360.937 36.3683 360.913 33.9189C360.863 31.4693 360.86 29.0198 360.885 26.5704L361.35 27.0124C359.234 27.0212 357.108 26.9212 354.957 26.8716L348.333 26.6009ZM348.268 26.5394L354.694 26.2687C356.893 26.2192 359.117 26.1192 361.35 26.128C361.473 26.1291 361.591 26.1761 361.678 26.2588C361.765 26.3415 361.815 26.4534 361.816 26.5703C361.841 29.0197 361.838 31.4693 361.788 33.9188C361.764 36.3682 361.696 38.8178 361.601 41.2673L361.6 41.2839C361.599 41.314 361.592 41.3437 361.579 41.3711C361.565 41.3985 361.547 41.4233 361.524 41.4438C361.5 41.4644 361.473 41.4804 361.443 41.4909C361.414 41.5014 361.382 41.5063 361.35 41.5052C359.175 41.4364 357 41.3886 354.825 41.4094C352.65 41.4187 350.475 41.5215 348.3 41.591C348.257 41.5923 348.214 41.5856 348.174 41.5712C348.133 41.5567 348.096 41.5349 348.065 41.5068C348.033 41.4788 348.008 41.4451 347.99 41.4077C347.972 41.3704 347.962 41.33 347.961 41.289L347.96 41.2674C347.863 38.7762 347.903 36.262 347.968 33.7881C348.027 31.3107 348.14 28.8738 348.268 26.5394Z" fill="black"/>
<path d="M354.771 34.7661C355.087 34.7645 355.397 34.6781 355.664 34.517C355.931 34.3559 356.145 34.1266 356.282 33.8552C356.504 33.3819 356.656 32.8811 356.732 32.3677C356.801 32.0932 356.809 31.8081 356.757 31.5303C356.704 31.2525 356.591 30.9882 356.426 30.7538C356.224 30.5352 355.963 30.3726 355.672 30.2832C355.381 30.1938 355.069 30.1809 354.771 30.2459C354.239 30.3483 353.759 30.6185 353.408 31.0128C353.115 31.4099 352.959 31.8839 352.962 32.3692C352.949 32.8765 353.056 33.3801 353.274 33.8432C353.407 34.1153 353.618 34.3463 353.883 34.5095C354.147 34.6728 354.455 34.7617 354.771 34.7661V34.7661ZM354.771 34.889C354.028 34.9328 353.288 34.7603 352.651 34.3947C352.316 34.1619 352.045 33.8568 351.859 33.5045C351.673 33.1522 351.578 32.7628 351.582 32.3687C351.576 31.9696 351.655 31.5734 351.816 31.2048C351.977 30.8361 352.216 30.5026 352.518 30.225C352.812 29.9549 353.17 29.755 353.562 29.6416C353.953 29.5282 354.368 29.5046 354.771 29.5727C355.506 29.681 356.19 29.998 356.733 30.4821C357.315 30.9699 357.696 31.6382 357.808 32.3682C357.855 32.7521 357.793 33.1409 357.629 33.4946C357.465 33.8483 357.205 34.1541 356.876 34.3808C356.244 34.7479 355.51 34.9251 354.771 34.889Z" fill="black"/>
<path d="M358.956 41.3107C357.605 41.526 356.242 41.6703 354.875 41.7431C354.141 41.7736 353.401 41.8098 352.651 41.7913C351.901 41.775 351.152 41.6816 350.425 41.6169L350.35 41.6101C350.308 41.6063 350.266 41.5946 350.229 41.5756C350.191 41.5566 350.157 41.5308 350.13 41.4995C350.103 41.4682 350.082 41.4321 350.07 41.3933C350.057 41.3544 350.053 41.3136 350.057 41.2732L350.057 41.2676C350.161 40.5185 350.219 39.7643 350.23 39.0088C350.179 38.22 350.297 37.4296 350.576 36.6854C350.906 35.8836 351.479 35.1933 352.223 34.7026C352.967 34.212 353.848 33.9432 354.753 33.9306C355.659 33.9181 356.548 34.1623 357.307 34.6321C358.065 35.1019 358.66 35.776 359.013 36.5683C359.355 37.3543 359.456 38.2163 359.303 39.0544C359.215 39.8816 359.069 40.6518 358.956 41.3107ZM358.865 41.2247L358.518 38.9635C358.48 38.2958 358.288 37.6444 357.954 37.0557C357.613 36.5046 357.135 36.0412 356.562 35.706C355.989 35.3708 355.339 35.174 354.667 35.1328C353.963 35.1158 353.266 35.2734 352.645 35.59C352.024 35.9065 351.501 36.3712 351.126 36.9383C350.733 37.5611 350.556 38.2852 350.619 39.0087C350.63 39.7642 350.688 40.5185 350.792 41.2676L350.425 40.9187C351.112 40.8538 351.776 40.7604 352.441 40.744C353.106 40.7256 353.78 40.7617 354.46 40.7923C355.828 40.8709 357.255 41.028 358.865 41.2247ZM339.887 44.8522C340.015 47.417 340.127 49.879 340.186 52.3007C340.251 54.7258 340.292 57.1105 340.195 59.5187L339.854 59.1952C342.029 59.2647 344.204 59.3675 346.379 59.377C348.554 59.3976 350.729 59.3498 352.905 59.281L352.655 59.5187C352.559 57.0691 352.491 54.6196 352.467 52.1702C352.417 49.7206 352.414 47.2711 352.439 44.8217L352.905 45.2637C350.788 45.2725 348.662 45.1725 346.511 45.123L339.887 44.8522ZM339.822 44.7907L346.248 44.52C348.447 44.4705 350.671 44.3705 352.905 44.3792C353.028 44.3804 353.145 44.4274 353.232 44.5101C353.319 44.5928 353.369 44.7047 353.37 44.8216C353.395 47.271 353.392 49.7206 353.342 52.1701C353.318 54.6195 353.25 57.0691 353.155 59.5186L353.154 59.5353C353.153 59.5654 353.146 59.595 353.133 59.6225C353.12 59.6499 353.101 59.6746 353.078 59.6951C353.054 59.7157 353.027 59.7316 352.998 59.7421C352.968 59.7527 352.936 59.7575 352.905 59.7564C350.729 59.6877 348.554 59.6399 346.379 59.6606C344.204 59.6699 342.029 59.7728 339.854 59.8422C339.767 59.845 339.683 59.8147 339.619 59.7581C339.555 59.7015 339.518 59.6232 339.515 59.5404L339.514 59.5186C339.417 57.0276 339.457 54.5132 339.522 52.0393C339.581 49.562 339.694 47.1251 339.822 44.7907Z" fill="black"/>
<path d="M346.325 53.017C346.641 53.0154 346.951 52.9291 347.218 52.768C347.485 52.6069 347.699 52.3775 347.835 52.1062C348.058 51.6328 348.21 51.1321 348.286 50.6187C348.355 50.3442 348.363 50.059 348.31 49.7813C348.258 49.5035 348.145 49.2391 347.98 49.0048C347.778 48.7862 347.517 48.6236 347.226 48.5342C346.934 48.4448 346.623 48.4319 346.325 48.4969C345.793 48.5992 345.313 48.8694 344.962 49.2637C344.669 49.6608 344.513 50.1349 344.516 50.6202C344.503 51.1275 344.61 51.6311 344.828 52.0941C344.961 52.3663 345.172 52.5972 345.437 52.7605C345.701 52.9238 346.009 53.0127 346.325 53.017ZM346.325 53.14C345.582 53.1837 344.842 53.0113 344.205 52.6456C343.87 52.4129 343.599 52.1078 343.413 51.7555C343.227 51.4031 343.132 51.0138 343.136 50.6197C343.129 50.2205 343.209 49.8244 343.37 49.4557C343.531 49.087 343.77 48.7536 344.072 48.476C344.366 48.2058 344.724 48.0059 345.116 47.8926C345.507 47.7792 345.922 47.7556 346.325 47.8237C347.06 47.932 347.744 48.249 348.286 48.733C348.869 49.2208 349.25 49.8892 349.362 50.6191C349.409 51.0031 349.347 51.3918 349.183 51.7455C349.019 52.0992 348.759 52.4051 348.43 52.6318C347.798 52.9989 347.064 53.176 346.325 53.14V53.14Z" fill="black"/>
<path d="M350.51 59.5615C349.159 59.7768 347.796 59.9212 346.428 59.9939C345.695 60.0246 344.955 60.0606 344.205 60.0422C343.455 60.0258 342.705 59.9324 341.979 59.8677L341.904 59.861C341.862 59.8572 341.82 59.8455 341.783 59.8265C341.745 59.8075 341.711 59.7817 341.684 59.7504C341.657 59.7191 341.636 59.683 341.624 59.6441C341.611 59.6053 341.607 59.5645 341.611 59.524L341.611 59.5185C341.715 58.7694 341.773 58.0151 341.784 57.2596C341.733 56.4709 341.851 55.6805 342.13 54.9363C342.459 54.1345 343.033 53.4442 343.777 52.9535C344.521 52.4629 345.402 52.1941 346.307 52.1815C347.213 52.1689 348.102 52.4131 348.86 52.8829C349.619 53.3527 350.214 54.0268 350.567 54.8191C350.909 55.6051 351.01 56.4671 350.857 57.3052C350.769 58.1324 350.623 58.9026 350.51 59.5615ZM350.419 59.4755L350.072 57.2143C350.034 56.5467 349.842 55.8952 349.508 55.3065C349.167 54.7554 348.689 54.292 348.116 53.9568C347.543 53.6216 346.893 53.4248 346.221 53.3836C345.517 53.3666 344.82 53.5241 344.199 53.8407C343.578 54.1573 343.054 54.622 342.68 55.1891C342.287 55.8118 342.11 56.536 342.173 57.2595C342.184 58.015 342.242 58.7693 342.346 59.5184L341.978 59.1694C342.666 59.1046 343.33 59.0112 343.995 58.9948C344.659 58.9764 345.333 59.0125 346.014 59.0432C347.382 59.1216 348.809 59.2787 350.419 59.4755V59.4755ZM319.538 44.8519C319.666 47.4167 319.779 49.8787 319.837 52.3004C319.903 54.7255 319.943 57.1102 319.846 59.5184L319.506 59.195C321.681 59.2644 323.856 59.3672 326.031 59.3767C328.206 59.3973 330.381 59.3495 332.556 59.2807L332.306 59.5184C332.211 57.0688 332.142 54.6193 332.118 52.1699C332.068 49.7203 332.065 47.2708 332.091 44.8214L332.556 45.2634C330.439 45.2722 328.313 45.1722 326.162 45.1227L319.538 44.8519ZM319.473 44.7904L325.899 44.5197C328.098 44.4702 330.322 44.3702 332.556 44.379C332.679 44.3801 332.797 44.4271 332.883 44.5098C332.97 44.5925 333.02 44.7044 333.021 44.8213C333.046 47.2707 333.043 49.7203 332.993 52.1698C332.97 54.6192 332.901 57.0688 332.806 59.5183L332.805 59.535C332.804 59.5651 332.797 59.5948 332.784 59.6222C332.771 59.6496 332.752 59.6743 332.729 59.6948C332.706 59.7154 332.678 59.7314 332.649 59.7419C332.619 59.7524 332.587 59.7572 332.556 59.7561C330.381 59.6874 328.206 59.6396 326.031 59.6604C323.856 59.6696 321.681 59.7725 319.506 59.8419C319.463 59.8433 319.42 59.8366 319.379 59.8222C319.339 59.8078 319.302 59.7859 319.27 59.7579C319.239 59.7298 319.213 59.6962 319.195 59.6588C319.177 59.6214 319.168 59.5811 319.166 59.5401L319.165 59.5183C319.068 57.0273 319.109 54.5129 319.174 52.039C319.232 49.5617 319.345 47.1248 319.473 44.7904ZM310.568 63.8646C310.696 66.4294 310.809 68.8914 310.867 71.3131C310.933 73.7382 310.973 76.1229 310.876 78.5311L310.536 78.2077C312.711 78.2771 314.886 78.38 317.061 78.3893C319.236 78.41 321.411 78.3622 323.586 78.2935L323.336 78.5311C323.241 76.0816 323.172 73.632 323.148 71.1826C323.098 68.7331 323.095 66.2835 323.121 63.8341L323.586 64.2761C321.469 64.2849 319.343 64.1849 317.192 64.1353L310.568 63.8646ZM310.503 63.8031L316.929 63.5324C319.129 63.4827 321.352 63.3829 323.586 63.3917C323.709 63.3928 323.827 63.4398 323.914 63.5225C324.001 63.6052 324.05 63.7171 324.051 63.834C324.077 66.2834 324.074 68.733 324.024 71.1825C324 73.6319 323.931 76.0815 323.836 78.531L323.836 78.5476C323.835 78.5778 323.827 78.6074 323.814 78.6348C323.801 78.6622 323.782 78.6869 323.759 78.7075C323.736 78.7281 323.709 78.744 323.679 78.7546C323.649 78.7651 323.618 78.77 323.586 78.7689C321.411 78.7002 319.236 78.6523 317.061 78.673C314.886 78.6824 312.711 78.7853 310.536 78.8547C310.493 78.8561 310.45 78.8493 310.409 78.8349C310.369 78.8205 310.332 78.7986 310.3 78.7705C310.269 78.7425 310.243 78.7088 310.225 78.6715C310.208 78.6341 310.198 78.5937 310.196 78.5527L310.195 78.5311C310.098 76.04 310.139 73.5257 310.204 71.0518C310.262 68.5744 310.375 66.1373 310.503 63.8031L310.503 63.8031Z" fill="black"/>
<path d="M317.006 72.0297C317.323 72.0281 317.632 71.9417 317.9 71.7806C318.167 71.6195 318.381 71.3901 318.517 71.1187C318.74 70.6454 318.891 70.1447 318.967 69.6313C319.036 69.3568 319.045 69.0717 318.992 68.7939C318.939 68.5161 318.827 68.2518 318.661 68.0174C318.459 67.7988 318.199 67.6362 317.907 67.5468C317.616 67.4574 317.305 67.4445 317.006 67.5095C316.474 67.6118 315.994 67.882 315.644 68.2763C315.351 68.6735 315.194 69.1475 315.197 69.6328C315.184 70.1401 315.291 70.6437 315.51 71.1068C315.643 71.3789 315.853 71.6099 316.118 71.7732C316.383 71.9365 316.691 72.0254 317.006 72.0297V72.0297ZM317.006 72.1527C316.263 72.1964 315.524 72.024 314.887 71.6583C314.552 71.4256 314.28 71.1205 314.094 70.7682C313.909 70.4158 313.814 70.0265 313.817 69.6324C313.811 69.2332 313.891 68.8371 314.052 68.4684C314.213 68.0997 314.451 67.7663 314.753 67.4887C315.048 67.2185 315.406 67.0186 315.797 66.9052C316.189 66.7919 316.603 66.7683 317.006 66.8364C317.742 66.9447 318.426 67.2616 318.968 67.7457C319.55 68.2335 319.932 68.9018 320.044 69.6316C320.09 70.0156 320.028 70.4044 319.865 70.7581C319.701 71.1118 319.441 71.4177 319.111 71.6444C318.48 72.0115 317.746 72.1887 317.006 72.1527V72.1527Z" fill="black"/>
<path d="M321.191 78.5741C319.84 78.7893 318.478 78.9337 317.11 79.0065C316.377 79.0371 315.636 79.0732 314.887 79.0548C314.137 79.0384 313.387 78.945 312.66 78.8802L312.586 78.8736C312.543 78.8698 312.502 78.8581 312.464 78.8391C312.426 78.8201 312.393 78.7943 312.366 78.763C312.338 78.7317 312.318 78.6956 312.305 78.6567C312.293 78.6179 312.288 78.5771 312.292 78.5366L312.293 78.5311C312.397 77.782 312.454 77.0277 312.465 76.2722C312.414 75.4834 312.532 74.693 312.812 73.9488C313.141 73.147 313.714 72.4567 314.458 71.9661C315.203 71.4754 316.084 71.2067 316.989 71.1941C317.894 71.1816 318.783 71.4258 319.542 71.8956C320.301 72.3654 320.895 73.0395 321.249 73.8318C321.591 74.6178 321.691 75.4797 321.539 76.3178C321.451 77.1449 321.305 77.9152 321.191 78.5741ZM321.101 78.4882L320.753 76.2267C320.716 75.5592 320.523 74.9078 320.19 74.3192C319.849 73.768 319.371 73.3046 318.798 72.9694C318.225 72.6343 317.574 72.4375 316.903 72.3962C316.199 72.3793 315.502 72.5369 314.881 72.8534C314.26 73.17 313.736 73.6347 313.362 74.2018C312.969 74.8245 312.792 75.5486 312.855 76.2722C312.866 77.0277 312.923 77.7819 313.027 78.5311L312.66 78.1819C313.347 78.1172 314.012 78.0238 314.677 78.0075C315.341 77.989 316.015 78.0252 316.696 78.0558C318.064 78.1343 319.491 78.2912 321.101 78.4882V78.4882ZM329.276 63.8646C329.404 66.4294 329.517 68.8914 329.576 71.3131C329.641 73.7382 329.681 76.1229 329.584 78.5311L329.244 78.2077C331.419 78.2771 333.594 78.3799 335.769 78.3892C337.944 78.41 340.119 78.3622 342.294 78.2934L342.044 78.5311C341.949 76.0815 341.881 73.6319 341.857 71.1826C341.807 68.733 341.804 66.2835 341.829 63.8341L342.294 64.2761C340.177 64.2849 338.051 64.1849 335.9 64.1353L329.276 63.8646ZM329.212 63.8031L335.638 63.5324C337.837 63.4827 340.061 63.3829 342.294 63.3917C342.417 63.3928 342.535 63.4398 342.622 63.5225C342.709 63.6052 342.758 63.7171 342.759 63.834C342.785 66.2834 342.782 68.733 342.732 71.1825C342.708 73.6319 342.64 76.0815 342.544 78.531L342.544 78.5476C342.543 78.5777 342.535 78.6074 342.522 78.6348C342.509 78.6622 342.491 78.6869 342.467 78.7075C342.444 78.728 342.417 78.744 342.387 78.7546C342.358 78.7651 342.326 78.77 342.294 78.7689C340.119 78.7001 337.944 78.6523 335.769 78.6729C333.594 78.6824 331.419 78.7853 329.244 78.8547C329.201 78.856 329.158 78.8493 329.118 78.8349C329.077 78.8204 329.04 78.7986 329.009 78.7705C328.977 78.7425 328.952 78.7088 328.934 78.6714C328.916 78.634 328.906 78.5937 328.905 78.5527L328.904 78.5311C328.807 76.0399 328.847 73.5257 328.912 71.0518C328.971 68.5743 329.084 66.1373 329.212 63.8031V63.8031ZM348.174 63.8646C348.302 66.4294 348.415 68.8914 348.474 71.3131C348.539 73.7382 348.58 76.1229 348.483 78.5311L348.142 78.2077C350.317 78.2771 352.492 78.3799 354.667 78.3892C356.842 78.41 359.017 78.3622 361.192 78.2934L360.942 78.5311C360.847 76.0815 360.779 73.6319 360.755 71.1826C360.705 68.733 360.702 66.2835 360.727 63.8341L361.192 64.2761C359.076 64.2849 356.95 64.1849 354.799 64.1353L348.174 63.8646ZM348.11 63.8031L354.536 63.5324C356.735 63.4827 358.959 63.3829 361.192 63.3917C361.315 63.3928 361.433 63.4397 361.52 63.5225C361.607 63.6052 361.657 63.717 361.658 63.834C361.683 66.2834 361.68 68.733 361.63 71.1825C361.606 73.6319 361.538 76.0815 361.443 78.531L361.442 78.5476C361.441 78.5777 361.434 78.6074 361.421 78.6348C361.407 78.6622 361.389 78.6869 361.366 78.7075C361.342 78.7281 361.315 78.744 361.285 78.7546C361.256 78.7651 361.224 78.77 361.192 78.7689C359.017 78.7001 356.842 78.6523 354.667 78.6729C352.492 78.6824 350.317 78.7853 348.142 78.8547C348.099 78.856 348.056 78.8493 348.016 78.8349C347.975 78.8204 347.938 78.7986 347.907 78.7705C347.875 78.7425 347.85 78.7088 347.832 78.6714C347.814 78.6341 347.804 78.5937 347.803 78.5527L347.802 78.5311C347.705 76.0399 347.745 73.5257 347.81 71.0518C347.869 68.5743 347.982 66.1373 348.11 63.8031V63.8031Z" fill="black"/>
<path d="M354.613 72.0297C354.929 72.0281 355.239 71.9418 355.506 71.7807C355.773 71.6195 355.987 71.3901 356.124 71.1187C356.346 70.6454 356.498 70.1447 356.574 69.6313C356.643 69.3568 356.651 69.0717 356.599 68.7939C356.546 68.5161 356.433 68.2518 356.268 68.0174C356.066 67.7988 355.805 67.6362 355.514 67.5468C355.223 67.4574 354.911 67.4445 354.613 67.5095C354.081 67.6118 353.601 67.882 353.251 68.2763C352.957 68.6734 352.801 69.1475 352.804 69.6328C352.791 70.1401 352.898 70.6437 353.116 71.1068C353.249 71.3789 353.46 71.6099 353.725 71.7731C353.99 71.9364 354.297 72.0254 354.613 72.0297ZM354.613 72.1527C353.87 72.1964 353.131 72.024 352.493 71.6583C352.159 71.4256 351.887 71.1205 351.701 70.7681C351.515 70.4158 351.42 70.0265 351.424 69.6324C351.418 69.2333 351.498 68.8371 351.658 68.4684C351.819 68.0998 352.058 67.7663 352.36 67.4886C352.654 67.2185 353.012 67.0186 353.404 66.9052C353.796 66.7919 354.21 66.7683 354.613 66.8364C355.348 66.9446 356.032 67.2615 356.575 67.7457C357.157 68.2335 357.538 68.9018 357.65 69.6316C357.697 70.0156 357.635 70.4043 357.471 70.758C357.307 71.1118 357.047 71.4177 356.718 71.6444C356.086 72.0115 355.353 72.1887 354.613 72.1527V72.1527Z" fill="black"/>
<path d="M358.798 78.5743C357.447 78.7895 356.084 78.9338 354.716 79.0067C353.983 79.0372 353.243 79.0734 352.493 79.055C351.743 79.0386 350.994 78.9452 350.267 78.8803L350.192 78.8737C350.15 78.87 350.108 78.8583 350.07 78.8393C350.033 78.8203 349.999 78.7944 349.972 78.7631C349.945 78.7319 349.924 78.6957 349.911 78.6569C349.899 78.6181 349.894 78.5772 349.898 78.5368L349.899 78.5312C350.003 77.7821 350.061 77.0279 350.072 76.2724C350.021 75.4836 350.138 74.6932 350.418 73.949C350.748 73.1472 351.321 72.4569 352.065 71.9663C352.809 71.4756 353.69 71.2069 354.595 71.1943C355.501 71.1817 356.39 71.426 357.148 71.8958C357.907 72.3656 358.502 73.0396 358.855 73.8319C359.197 74.6179 359.298 75.4799 359.145 76.318C359.057 77.1451 358.911 77.9154 358.798 78.5743ZM358.707 78.4883L358.36 76.2269C358.322 75.5593 358.13 74.9079 357.796 74.3194C357.455 73.7682 356.977 73.3048 356.404 72.9696C355.831 72.6344 355.181 72.4376 354.509 72.3964C353.805 72.3795 353.108 72.537 352.487 72.8536C351.866 73.1702 351.342 73.6348 350.968 74.202C350.575 74.8247 350.398 75.5488 350.461 76.2723C350.472 77.0279 350.53 77.7821 350.633 78.5312L350.266 78.1821C350.954 78.1174 351.618 78.024 352.283 78.0076C352.947 77.9892 353.621 78.0254 354.302 78.0559C355.67 78.1345 357.097 78.2914 358.707 78.4883Z" fill="black"/>
<path d="M255.054 113L254.803 114.361L256.237 114.601L256.488 113.239L255.054 113Z" fill="black"/>
<path d="M307.619 123.143L304.764 122.669L305.015 121.307L307.869 121.781L307.619 123.143ZM301.909 122.195L299.054 121.72L299.305 120.358L302.159 120.833L301.909 122.195ZM296.2 121.246L293.345 120.772L293.596 119.41L296.45 119.884L296.2 121.246ZM290.49 120.298L287.635 119.822L287.887 118.46L290.742 118.936L290.49 120.298ZM284.782 119.348L281.927 118.873L282.177 117.511L285.032 117.986L284.782 119.348ZM279.073 118.399L276.218 117.925L276.468 116.563L279.323 117.037L279.073 118.399ZM273.363 117.451L270.508 116.976L270.758 115.614L273.613 116.089L273.363 117.451ZM267.654 116.501L264.799 116.026L265.049 114.664L267.904 115.139L267.654 116.501ZM261.944 115.552L259.09 115.078L259.34 113.716L262.195 114.19L261.944 115.552Z" fill="black"/>
<path d="M310.726 122.252L310.474 123.614L311.908 123.853L312.159 122.492L310.726 122.252Z" fill="black"/>
<path d="M250.362 117.751L250.058 119.106L251.481 119.395L251.786 118.041L250.362 117.751Z" fill="black"/>
<path d="M301.41 129.505L298.637 128.942L298.941 127.588L301.714 128.151L301.41 129.505ZM295.864 128.382L293.089 127.82L293.392 126.466L296.166 127.028L295.864 128.382ZM290.316 127.257L287.542 126.697L287.845 125.343L290.619 125.904L290.316 127.257ZM284.767 126.135L281.994 125.572L282.298 124.219L285.072 124.781L284.767 126.135ZM279.22 125.01L276.447 124.45L276.75 123.096L279.523 123.656L279.22 125.01ZM273.673 123.888L270.899 123.325L271.202 121.972L273.976 122.534L273.673 123.888ZM268.125 122.765L265.351 122.203L265.656 120.849L268.429 121.411L268.125 122.765ZM262.577 121.64L259.804 121.078L260.108 119.724L262.881 120.287L262.577 121.64ZM257.029 120.518L254.256 119.955L254.56 118.602L257.334 119.164L257.029 120.518Z" fill="black"/>
<path d="M304.49 128.71L304.186 130.064L305.609 130.354L305.914 128.999L304.49 128.71Z" fill="black"/>
<path d="M254.846 125.727C257.332 125.862 259.796 126.256 262.192 126.904C264.604 127.492 266.94 128.335 269.157 129.415C266.67 129.283 264.206 128.889 261.811 128.238C259.399 127.647 257.063 126.805 254.846 125.727V125.727Z" fill="black"/>
<path d="M459.727 99.8832V56.0443L484.185 61.1661L484.197 61.1685L484.208 61.1704L499.012 63.5371L499.091 63.5498L499.17 63.537L513.771 61.1859L520.257 62.6886L523.753 64.8622L523.229 100.261L522.48 106.729L519.777 104.92L519.668 104.847L519.537 104.837L510.232 104.117L510.161 104.111L510.091 104.126L496.022 107.089L459.727 99.8832Z" fill="white" stroke="black"/>
<ellipse rx="14.9526" ry="10.6103" transform="matrix(0.981421 0.191869 -0.202173 0.97935 491.696 83.7123)" fill="#D33939"/>
<ellipse rx="29.9082" ry="9.1634" transform="matrix(0.990317 0.138824 -0.146427 0.989222 459.312 147.056)" fill="black" fill-opacity="0.72"/>
<line x1="461.227" y1="55.4287" x2="461.227" y2="147.011" stroke="black" stroke-opacity="0.72" stroke-width="4"/>
</svg>
