<svg width="34" height="192" viewBox="0 0 34 192" fill="none" xmlns="http://www.w3.org/2000/svg">
<path fill-rule="evenodd" clip-rule="evenodd" d="M5.75055 192C5.73482 192 5.7199 192 5.70363 192C4.42336 191.981 3.40733 191.218 3.43234 190.295L6.95497 62.8563C6.98025 61.9461 8.01047 61.2178 9.27247 61.2178H24.7284C25.9905 61.2178 27.0206 61.9461 27.0458 62.8563L30.5504 189.785C30.5759 190.708 29.5586 191.472 28.2794 191.49C26.9968 191.511 25.9405 190.775 25.9151 189.852L22.4558 64.5613H11.5445L8.06721 190.361C8.04194 191.273 7.00964 192 5.75055 192V192Z" fill="#09378B"/>
<path fill-rule="evenodd" clip-rule="evenodd" d="M31.6821 64.5613H2.31797C1.03797 64.5613 0 63.813 0 62.8897V57.8743C0 56.9512 1.03797 56.2024 2.31797 56.2024H31.6821C32.9626 56.2024 34 56.9512 34 57.8743V62.8897C34 63.813 32.9626 64.5613 31.6821 64.5613ZM4.63618 61.2178H29.3638V59.5462H4.63618V61.2178Z" fill="#09378B"/>
<path fill-rule="evenodd" clip-rule="evenodd" d="M24.5382 59.5463H9.46223C8.18223 59.5463 7.14429 58.7976 7.14429 57.8744V48.5817C7.14429 47.6586 8.18223 46.91 9.46223 46.91H24.5382C25.8185 46.91 26.8562 47.6586 26.8562 48.5817V57.8744C26.8562 58.7976 25.8185 59.5463 24.5382 59.5463ZM11.7804 56.2024H22.2205V50.2535H11.7804V56.2024Z" fill="#09378B"/>
<path fill-rule="evenodd" clip-rule="evenodd" d="M17.0043 16.8904C16.3646 16.8904 15.8452 16.5163 15.8452 16.0547V0.835779C15.8452 0.374325 16.3646 0 17.0043 0C17.6446 0 18.1634 0.374325 18.1634 0.835779V16.0547C18.1634 16.5163 17.6446 16.8904 17.0043 16.8904Z" fill="#09378B"/>
<path fill-rule="evenodd" clip-rule="evenodd" d="M24.5381 47.8507C23.8984 47.8507 23.3791 47.4763 23.3791 47.0148C23.3791 44.478 20.5196 42.4141 17.0041 42.4141C13.4845 42.4141 10.6212 44.478 10.6212 47.0148C10.6212 47.4763 10.1024 47.8507 9.46214 47.8507C8.82182 47.8507 8.30298 47.4763 8.30298 47.0148C8.30298 43.5562 12.2064 40.7425 17.0041 40.7425C21.7977 40.7425 25.6972 43.5562 25.6972 47.0148C25.6972 47.4763 25.1781 47.8507 24.5381 47.8507V47.8507Z" fill="#09378B"/>
<path fill-rule="evenodd" clip-rule="evenodd" d="M19.093 41.5991C18.8851 41.5991 18.6809 41.5874 18.4804 41.5638C18.095 41.5175 17.6024 41.4817 17.0795 41.4437C15.8284 41.3531 14.2711 41.2399 12.9651 40.8934C11.7425 40.5691 10.2337 39.8864 9.98782 38.4762C9.7545 37.11 10.3417 35.265 10.9095 33.4805C11.3423 32.1211 11.7889 30.7154 11.7889 29.7355C11.7889 28.6203 11.7889 27.3564 11.6675 26.2944C11.4982 24.8191 11.1742 24.4758 11.1113 24.4221C10.0318 23.8696 8.53407 21.4378 8.00623 19.7738C7.55696 18.3592 7.43839 16.6126 7.34328 15.2091C7.29845 14.5498 7.24378 13.7392 7.16385 13.4759C6.92053 13.0085 6.76388 12.5723 6.76388 12.182C6.76388 11.1598 6.62928 10.9995 6.09526 10.9037C5.47377 10.7923 5.09543 10.3387 5.24983 9.89084C5.4045 9.44271 6.03262 9.17 6.6543 9.28116C9.08153 9.71635 9.08154 11.3203 9.08154 12.182C9.08154 12.3246 9.1532 12.5264 9.26768 12.7603C9.30732 12.8207 9.34105 12.8865 9.37152 12.9605C9.60966 13.3981 9.95662 13.9135 10.2612 14.3649C10.3306 14.4686 10.4012 14.5732 10.4713 14.6783C11.0136 14.2007 11.8155 13.6661 13.0674 13.4575C14.3149 13.2505 15.3686 13.3479 16.2 13.7477C17.4875 14.3659 17.9167 15.5596 18.1468 16.5309C18.2231 16.8596 18.3845 16.8993 18.4373 16.9124C18.8348 17.0109 19.9078 16.8104 21.0468 16.056C21.1411 15.9928 21.2365 15.9286 21.3298 15.8658C22.2698 15.2298 23.2423 14.5728 24.4999 14.8156C25.777 15.0626 26.6623 16.1328 27.7666 18.764C29.7546 23.4818 30.018 25.5478 27.6598 28.4827C26.8634 29.4772 25.9727 30.4481 24.6367 30.4484C24.6262 30.4484 24.6158 30.4481 24.6053 30.4481C23.4843 30.4354 22.7232 29.8317 21.6793 28.5482C22.2497 31.2314 23.4299 35.1288 24.1787 36.3654C24.896 37.5511 24.6354 38.8527 23.4642 39.9364C22.36 40.958 20.6374 41.5991 19.093 41.5991ZM12.4769 23.071C13.9935 23.8576 14.1069 26.2245 14.1069 29.7355C14.1069 30.9045 13.6511 32.3375 13.1692 33.8543C12.6457 35.498 12.1049 37.1978 12.2879 38.2696C12.4753 39.3429 14.6742 39.589 17.3117 39.7803C17.8718 39.8212 18.4015 39.8594 18.8603 39.9144C19.699 40.0151 20.9179 39.5733 21.636 38.9088C22.0899 38.4887 22.5309 37.8221 22.0543 37.0343C21.3664 35.8988 20.422 32.959 19.8353 30.7082C19.4804 29.3459 19.2317 28.157 19.1162 27.2693C18.9414 25.9269 19.0163 25.1396 19.9078 24.8267C20.1201 24.7521 20.8699 24.5531 21.6006 25.1278C21.812 25.2945 22.0255 25.5255 22.2716 25.8548L22.3334 25.9387C23.2217 27.1312 24.1369 28.3606 24.6349 28.7146C24.8029 28.5952 25.1192 28.3122 25.6538 27.6453C27.5057 25.3403 27.4872 23.8495 25.5484 19.2493C24.6793 17.1782 24.1375 16.615 23.9308 16.4645C23.6869 16.5637 23.2469 16.8606 22.9152 17.0851C22.8183 17.1509 22.7191 17.2177 22.6172 17.2854C20.9694 18.3773 19.0796 18.8394 17.6839 18.4935C17.1171 18.3529 16.1259 17.9473 15.8619 16.8098C15.6423 15.8872 15.3332 15.3397 14.9157 15.1392C14.635 15.0043 14.1888 14.9868 13.5883 15.0864C12.7503 15.2259 12.2836 15.6994 11.8717 16.1167C11.4949 16.4995 11.025 16.976 10.1639 16.9126C10.0298 16.9028 9.90734 16.8803 9.79605 16.8482C9.88652 17.737 10.0244 18.6398 10.2661 19.401C10.7983 21.0794 12.0655 22.777 12.4769 23.071V23.071ZM12.4421 23.0533C12.4439 23.0542 12.4457 23.0553 12.4475 23.0562C12.4457 23.0553 12.443 23.0542 12.4421 23.0533Z" fill="#09378B"/>
<path fill-rule="evenodd" clip-rule="evenodd" d="M28.1778 48.4906H5.82243C5.1822 48.4906 4.66382 48.1165 4.66382 47.6547C4.66382 47.193 5.1822 46.819 5.82243 46.819H28.1778C28.818 46.819 29.3374 47.193 29.3374 47.6547C29.3374 48.1165 28.818 48.4906 28.1778 48.4906Z" fill="#09378B"/>
<path fill-rule="evenodd" clip-rule="evenodd" d="M24.8372 67.768H9.16347C8.52352 67.768 8.00439 67.3937 8.00439 66.9318C8.00439 66.4704 8.52352 66.0961 9.16347 66.0961H24.8372C25.4774 66.0961 25.9964 66.4704 25.9964 66.9318C25.9964 67.3937 25.4774 67.768 24.8372 67.768V67.768Z" fill="#09378B"/>
<path fill-rule="evenodd" clip-rule="evenodd" d="M24.8372 53.597H9.16347C8.52352 53.597 8.00439 53.223 8.00439 52.7613C8.00439 52.2995 8.52352 51.9252 9.16347 51.9252H24.8372C25.4774 51.9252 25.9964 52.2995 25.9964 52.7613C25.9964 53.223 25.4774 53.597 24.8372 53.597V53.597Z" fill="#09378B"/>
<path fill-rule="evenodd" clip-rule="evenodd" d="M19.6757 133.071C19.0462 133.071 18.5297 132.708 18.5171 132.251L16.9685 76.1367C16.9559 75.6753 17.4647 75.2938 18.1045 75.2846C18.748 75.2742 19.2735 75.6422 19.286 76.1035L20.8342 132.218C20.8471 132.68 20.3394 133.061 19.6991 133.07C19.6918 133.071 19.6832 133.071 19.6757 133.071Z" fill="#09378B"/>
<path fill-rule="evenodd" clip-rule="evenodd" d="M19.9022 141.319C19.262 141.319 18.7429 140.944 18.7429 140.483V137.456C18.7429 136.994 19.262 136.62 19.9022 136.62C20.542 136.62 21.0609 136.994 21.0609 137.456V140.483C21.0609 140.944 20.542 141.319 19.9022 141.319Z" fill="#09378B"/>
<path fill-rule="evenodd" clip-rule="evenodd" d="M21.6133 5.17852H12.3865C11.7464 5.17852 11.2273 4.80427 11.2273 4.34259C11.2273 3.88121 11.7464 3.50665 12.3865 3.50665H21.6133C22.2544 3.50665 22.7722 3.88121 22.7722 4.34259C22.7722 4.80427 22.2544 5.17852 21.6133 5.17852Z" fill="#09378B"/>
<path fill-rule="evenodd" clip-rule="evenodd" d="M24.9996 25.0208C24.3601 25.0208 23.8407 24.6465 23.8407 24.1847C23.8407 22.9888 22.7459 19.812 22.2623 18.9651C22.0187 18.5382 22.3012 18.0497 22.893 17.8741C23.4845 17.6985 24.1622 17.9021 24.4055 18.329C24.9684 19.3142 26.1582 22.7181 26.1582 24.1847C26.1582 24.6465 25.6398 25.0208 24.9996 25.0208V25.0208Z" fill="#09378B"/>
<path fill-rule="evenodd" clip-rule="evenodd" d="M19.4233 37.2454C19.0548 37.2454 18.6919 37.1185 18.4671 36.8829C17.874 36.2607 17.2856 34.3386 16.1355 29.266C16.0167 28.7404 15.9221 28.3253 15.8644 28.0962C15.7499 27.6424 16.1672 27.2068 16.7966 27.1238C17.4263 27.041 18.0302 27.3422 18.1451 27.7964C18.2062 28.0405 18.3024 28.462 18.4235 28.9961C18.7753 30.5488 19.8453 35.2689 20.3837 35.9428C20.7384 36.3226 20.6035 36.8381 20.0791 37.0982C19.8785 37.1976 19.6504 37.2454 19.4233 37.2454V37.2454Z" fill="#09378B"/>
</svg>
