<svg width="331" height="204" viewBox="0 0 331 204" fill="none" xmlns="http://www.w3.org/2000/svg">
<rect x="63" y="2" width="266" height="149" stroke="#525D77" stroke-width="4"/>
<path d="M92.4857 119.541V49.4515L85.0779 48.4977L85.107 119.541C85.107 120.341 85.0903 121.137 85.053 121.934C84.8952 119.922 84.6419 117.911 84.2889 115.903L72.2969 48L64.8475 48.4313L77.014 117.185C77.151 117.973 77.2756 118.761 77.3794 119.549C76.877 117.596 76.2749 115.659 75.5773 113.743L52.5399 50.5215L45.5224 52.8274L68.6387 116.26C68.9127 117.011 69.1702 117.766 69.4068 118.525C68.5722 116.687 67.6421 114.883 66.6248 113.121L34.9754 58.3682L29.0458 62.8514L60.2343 116.803C60.6329 117.496 61.0191 118.197 61.3845 118.902C60.2426 117.239 59.0176 115.621 57.7013 114.062L21.2767 70.8266L16.8337 76.89L52.0458 118.802C52.5607 119.416 53.059 120.038 53.5448 120.669C52.133 119.23 50.6423 117.849 49.0769 116.538L11.9464 85.4458L8.81963 92.4174L44.3348 122.182C44.9494 122.697 45.5473 123.223 46.1328 123.758C44.4926 122.589 42.7902 121.49 41.0254 120.474L6.06661 100.165L4.0361 107.377L37.3049 126.84L37.3256 126.852C38.0191 127.25 38.7001 127.665 39.3728 128.092C37.554 127.221 35.6813 126.438 33.7629 125.737L2.48727 114.39L1.27893 121.78L31.2383 132.671C31.9857 132.94 32.7207 133.231 33.4515 133.529C31.5123 132.99 29.54 132.546 27.5344 132.194L0.552265 127.537L0 134.832L26.2513 139.456C33.5221 140.737 40.3237 143.4 46.465 147.373C52.3987 151.209 57.4729 156.103 61.5464 161.913C65.6199 167.724 68.4892 174.16 70.0712 181.041C71.7073 188.162 71.8858 195.457 70.6069 202.718L77.8777 204C79.331 195.759 79.1275 187.481 77.2673 179.39C76.142 174.5 74.4478 169.814 72.2056 165.372C85.1277 153.627 92.4857 137.092 92.4857 119.541Z" fill="#F2B43F"/>
<path d="M41.3823 181.165C45.2878 181.165 48.4538 178.003 48.4538 174.102C48.4538 170.202 45.2878 167.04 41.3823 167.04C37.4768 167.04 34.3108 170.202 34.3108 174.102C34.3108 178.003 37.4768 181.165 41.3823 181.165Z" fill="#F2B43F"/>
<path d="M196 152V178.5" stroke="#525D77" stroke-width="4"/>
<path d="M128 179.5H264" stroke="#525D77" stroke-width="4"/>
<path d="M241.75 58L244.42 51.74H241.44V53.04H240.69V51.02H245.27V51.76L242.65 58H241.75ZM250.976 51.76H247.916L247.716 54.42H247.786C247.953 54.1867 248.139 54 248.346 53.86C248.559 53.72 248.849 53.65 249.216 53.65C249.516 53.65 249.793 53.7 250.046 53.8C250.299 53.9 250.519 54.0433 250.706 54.23C250.893 54.41 251.036 54.6333 251.136 54.9C251.243 55.1667 251.296 55.47 251.296 55.81C251.296 56.15 251.243 56.4633 251.136 56.75C251.029 57.03 250.873 57.2733 250.666 57.48C250.466 57.68 250.219 57.8367 249.926 57.95C249.639 58.0633 249.313 58.12 248.946 58.12C248.653 58.12 248.393 58.0867 248.166 58.02C247.946 57.9533 247.749 57.8633 247.576 57.75C247.403 57.6367 247.249 57.51 247.116 57.37C246.989 57.23 246.873 57.0833 246.766 56.93L247.396 56.45C247.483 56.59 247.573 56.7167 247.666 56.83C247.766 56.9433 247.873 57.04 247.986 57.12C248.106 57.2 248.243 57.2633 248.396 57.31C248.549 57.35 248.733 57.37 248.946 57.37C249.426 57.37 249.789 57.2433 250.036 56.99C250.283 56.7367 250.406 56.38 250.406 55.92V55.82C250.406 55.36 250.283 55.0033 250.036 54.75C249.789 54.4967 249.426 54.37 248.946 54.37C248.626 54.37 248.373 54.43 248.186 54.55C248.006 54.6633 247.843 54.8 247.696 54.96L246.986 54.86L247.236 51.02H250.976V51.76ZM253.822 58L258.662 51.02H259.432L254.592 58H253.822ZM254.222 54.86C253.716 54.86 253.326 54.6933 253.052 54.36C252.779 54.02 252.642 53.5267 252.642 52.88C252.642 52.2333 252.779 51.7433 253.052 51.41C253.326 51.07 253.716 50.9 254.222 50.9C254.729 50.9 255.119 51.07 255.392 51.41C255.666 51.7433 255.802 52.2333 255.802 52.88C255.802 53.5267 255.666 54.02 255.392 54.36C255.119 54.6933 254.729 54.86 254.222 54.86ZM254.222 54.34C254.796 54.34 255.082 53.9533 255.082 53.18V52.58C255.082 51.8067 254.796 51.42 254.222 51.42C253.649 51.42 253.362 51.8067 253.362 52.58V53.18C253.362 53.9533 253.649 54.34 254.222 54.34ZM259.032 58.12C258.526 58.12 258.136 57.9533 257.862 57.62C257.589 57.28 257.452 56.7867 257.452 56.14C257.452 55.4933 257.589 55.0033 257.862 54.67C258.136 54.33 258.526 54.16 259.032 54.16C259.539 54.16 259.929 54.33 260.202 54.67C260.476 55.0033 260.612 55.4933 260.612 56.14C260.612 56.7867 260.476 57.28 260.202 57.62C259.929 57.9533 259.539 58.12 259.032 58.12ZM259.032 57.6C259.606 57.6 259.892 57.2133 259.892 56.44V55.84C259.892 55.0667 259.606 54.68 259.032 54.68C258.459 54.68 258.172 55.0667 258.172 55.84V56.44C258.172 57.2133 258.459 57.6 259.032 57.6Z" fill="black"/>
<path d="M243.01 72.12C242.65 72.12 242.323 72.06 242.03 71.94C241.743 71.8133 241.497 71.6367 241.29 71.41C241.09 71.1767 240.937 70.8933 240.83 70.56C240.723 70.2267 240.67 69.8533 240.67 69.44C240.67 68.92 240.747 68.4333 240.9 67.98C241.053 67.52 241.25 67.1033 241.49 66.73C241.737 66.35 242.007 66.0167 242.3 65.73C242.593 65.4367 242.88 65.2 243.16 65.02H244.24C243.867 65.2933 243.533 65.56 243.24 65.82C242.947 66.08 242.69 66.3533 242.47 66.64C242.25 66.92 242.063 67.2233 241.91 67.55C241.757 67.87 241.633 68.2333 241.54 68.64L241.59 68.66C241.757 68.3733 241.97 68.1367 242.23 67.95C242.497 67.7567 242.843 67.66 243.27 67.66C243.57 67.66 243.847 67.71 244.1 67.81C244.353 67.91 244.57 68.0533 244.75 68.24C244.93 68.4267 245.07 68.6533 245.17 68.92C245.277 69.1867 245.33 69.4833 245.33 69.81C245.33 70.15 245.273 70.4633 245.16 70.75C245.053 71.03 244.897 71.2733 244.69 71.48C244.49 71.68 244.247 71.8367 243.96 71.95C243.673 72.0633 243.357 72.12 243.01 72.12ZM243 71.39C243.46 71.39 243.817 71.2633 244.07 71.01C244.33 70.7567 244.46 70.3933 244.46 69.92V69.84C244.46 69.3667 244.33 69.0033 244.07 68.75C243.817 68.4967 243.46 68.37 243 68.37C242.54 68.37 242.18 68.4967 241.92 68.75C241.667 69.0033 241.54 69.3667 241.54 69.84V69.92C241.54 70.3933 241.667 70.7567 241.92 71.01C242.18 71.2633 242.54 71.39 243 71.39ZM250.976 65.76H247.916L247.716 68.42H247.786C247.953 68.1867 248.139 68 248.346 67.86C248.559 67.72 248.849 67.65 249.216 67.65C249.516 67.65 249.793 67.7 250.046 67.8C250.299 67.9 250.519 68.0433 250.706 68.23C250.893 68.41 251.036 68.6333 251.136 68.9C251.243 69.1667 251.296 69.47 251.296 69.81C251.296 70.15 251.243 70.4633 251.136 70.75C251.029 71.03 250.873 71.2733 250.666 71.48C250.466 71.68 250.219 71.8367 249.926 71.95C249.639 72.0633 249.313 72.12 248.946 72.12C248.653 72.12 248.393 72.0867 248.166 72.02C247.946 71.9533 247.749 71.8633 247.576 71.75C247.403 71.6367 247.249 71.51 247.116 71.37C246.989 71.23 246.873 71.0833 246.766 70.93L247.396 70.45C247.483 70.59 247.573 70.7167 247.666 70.83C247.766 70.9433 247.873 71.04 247.986 71.12C248.106 71.2 248.243 71.2633 248.396 71.31C248.549 71.35 248.733 71.37 248.946 71.37C249.426 71.37 249.789 71.2433 250.036 70.99C250.283 70.7367 250.406 70.38 250.406 69.92V69.82C250.406 69.36 250.283 69.0033 250.036 68.75C249.789 68.4967 249.426 68.37 248.946 68.37C248.626 68.37 248.373 68.43 248.186 68.55C248.006 68.6633 247.843 68.8 247.696 68.96L246.986 68.86L247.236 65.02H250.976V65.76ZM253.822 72L258.662 65.02H259.432L254.592 72H253.822ZM254.222 68.86C253.716 68.86 253.326 68.6933 253.052 68.36C252.779 68.02 252.642 67.5267 252.642 66.88C252.642 66.2333 252.779 65.7433 253.052 65.41C253.326 65.07 253.716 64.9 254.222 64.9C254.729 64.9 255.119 65.07 255.392 65.41C255.666 65.7433 255.802 66.2333 255.802 66.88C255.802 67.5267 255.666 68.02 255.392 68.36C255.119 68.6933 254.729 68.86 254.222 68.86ZM254.222 68.34C254.796 68.34 255.082 67.9533 255.082 67.18V66.58C255.082 65.8067 254.796 65.42 254.222 65.42C253.649 65.42 253.362 65.8067 253.362 66.58V67.18C253.362 67.9533 253.649 68.34 254.222 68.34ZM259.032 72.12C258.526 72.12 258.136 71.9533 257.862 71.62C257.589 71.28 257.452 70.7867 257.452 70.14C257.452 69.4933 257.589 69.0033 257.862 68.67C258.136 68.33 258.526 68.16 259.032 68.16C259.539 68.16 259.929 68.33 260.202 68.67C260.476 69.0033 260.612 69.4933 260.612 70.14C260.612 70.7867 260.476 71.28 260.202 71.62C259.929 71.9533 259.539 72.12 259.032 72.12ZM259.032 71.6C259.606 71.6 259.892 71.2133 259.892 70.44V69.84C259.892 69.0667 259.606 68.68 259.032 68.68C258.459 68.68 258.172 69.0667 258.172 69.84V70.44C258.172 71.2133 258.459 71.6 259.032 71.6Z" fill="black"/>
<path d="M244.98 77.76H241.92L241.72 80.42H241.79C241.957 80.1867 242.143 80 242.35 79.86C242.563 79.72 242.853 79.65 243.22 79.65C243.52 79.65 243.797 79.7 244.05 79.8C244.303 79.9 244.523 80.0433 244.71 80.23C244.897 80.41 245.04 80.6333 245.14 80.9C245.247 81.1667 245.3 81.47 245.3 81.81C245.3 82.15 245.247 82.4633 245.14 82.75C245.033 83.03 244.877 83.2733 244.67 83.48C244.47 83.68 244.223 83.8367 243.93 83.95C243.643 84.0633 243.317 84.12 242.95 84.12C242.657 84.12 242.397 84.0867 242.17 84.02C241.95 83.9533 241.753 83.8633 241.58 83.75C241.407 83.6367 241.253 83.51 241.12 83.37C240.993 83.23 240.877 83.0833 240.77 82.93L241.4 82.45C241.487 82.59 241.577 82.7167 241.67 82.83C241.77 82.9433 241.877 83.04 241.99 83.12C242.11 83.2 242.247 83.2633 242.4 83.31C242.553 83.35 242.737 83.37 242.95 83.37C243.43 83.37 243.793 83.2433 244.04 82.99C244.287 82.7367 244.41 82.38 244.41 81.92V81.82C244.41 81.36 244.287 81.0033 244.04 80.75C243.793 80.4967 243.43 80.37 242.95 80.37C242.63 80.37 242.377 80.43 242.19 80.55C242.01 80.6633 241.847 80.8 241.7 80.96L240.99 80.86L241.24 77.02H244.98V77.76ZM248.996 84.12C248.163 84.12 247.553 83.8033 247.166 83.17C246.786 82.5367 246.596 81.65 246.596 80.51C246.596 79.37 246.786 78.4833 247.166 77.85C247.553 77.2167 248.163 76.9 248.996 76.9C249.829 76.9 250.436 77.2167 250.816 77.85C251.203 78.4833 251.396 79.37 251.396 80.51C251.396 81.65 251.203 82.5367 250.816 83.17C250.436 83.8033 249.829 84.12 248.996 84.12ZM248.996 83.39C249.269 83.39 249.503 83.3333 249.696 83.22C249.889 83.1067 250.046 82.9467 250.166 82.74C250.286 82.5333 250.373 82.29 250.426 82.01C250.486 81.73 250.516 81.42 250.516 81.08V79.94C250.516 79.6 250.486 79.29 250.426 79.01C250.373 78.73 250.286 78.4867 250.166 78.28C250.046 78.0733 249.889 77.9133 249.696 77.8C249.503 77.6867 249.269 77.63 248.996 77.63C248.723 77.63 248.489 77.6867 248.296 77.8C248.103 77.9133 247.946 78.0733 247.826 78.28C247.706 78.4867 247.616 78.73 247.556 79.01C247.503 79.29 247.476 79.6 247.476 79.94V81.08C247.476 81.42 247.503 81.73 247.556 82.01C247.616 82.29 247.706 82.5333 247.826 82.74C247.946 82.9467 248.103 83.1067 248.296 83.22C248.489 83.3333 248.723 83.39 248.996 83.39ZM253.822 84L258.662 77.02H259.432L254.592 84H253.822ZM254.222 80.86C253.716 80.86 253.326 80.6933 253.052 80.36C252.779 80.02 252.642 79.5267 252.642 78.88C252.642 78.2333 252.779 77.7433 253.052 77.41C253.326 77.07 253.716 76.9 254.222 76.9C254.729 76.9 255.119 77.07 255.392 77.41C255.666 77.7433 255.802 78.2333 255.802 78.88C255.802 79.5267 255.666 80.02 255.392 80.36C255.119 80.6933 254.729 80.86 254.222 80.86ZM254.222 80.34C254.796 80.34 255.082 79.9533 255.082 79.18V78.58C255.082 77.8067 254.796 77.42 254.222 77.42C253.649 77.42 253.362 77.8067 253.362 78.58V79.18C253.362 79.9533 253.649 80.34 254.222 80.34ZM259.032 84.12C258.526 84.12 258.136 83.9533 257.862 83.62C257.589 83.28 257.452 82.7867 257.452 82.14C257.452 81.4933 257.589 81.0033 257.862 80.67C258.136 80.33 258.526 80.16 259.032 80.16C259.539 80.16 259.929 80.33 260.202 80.67C260.476 81.0033 260.612 81.4933 260.612 82.14C260.612 82.7867 260.476 83.28 260.202 83.62C259.929 83.9533 259.539 84.12 259.032 84.12ZM259.032 83.6C259.606 83.6 259.892 83.2133 259.892 82.44V81.84C259.892 81.0667 259.606 80.68 259.032 80.68C258.459 80.68 258.172 81.0667 258.172 81.84V82.44C258.172 83.2133 258.459 83.6 259.032 83.6Z" fill="black"/>
<path d="M245.33 97H240.75V96.14L243.03 94.04C243.357 93.74 243.63 93.4233 243.85 93.09C244.07 92.75 244.18 92.41 244.18 92.07V91.95C244.18 91.5633 244.073 91.25 243.86 91.01C243.647 90.77 243.323 90.65 242.89 90.65C242.677 90.65 242.49 90.68 242.33 90.74C242.17 90.8 242.03 90.8833 241.91 90.99C241.797 91.0967 241.7 91.2233 241.62 91.37C241.547 91.51 241.487 91.6633 241.44 91.83L240.69 91.54C240.757 91.3333 240.847 91.1333 240.96 90.94C241.08 90.74 241.227 90.5633 241.4 90.41C241.58 90.2567 241.793 90.1333 242.04 90.04C242.293 89.9467 242.59 89.9 242.93 89.9C243.27 89.9 243.573 89.95 243.84 90.05C244.107 90.15 244.33 90.29 244.51 90.47C244.69 90.65 244.827 90.8633 244.92 91.11C245.02 91.3567 245.07 91.63 245.07 91.93C245.07 92.2033 245.03 92.4567 244.95 92.69C244.877 92.9233 244.773 93.1467 244.64 93.36C244.507 93.5667 244.343 93.77 244.15 93.97C243.963 94.17 243.76 94.37 243.54 94.57L241.66 96.26H245.33V97ZM250.976 90.76H247.916L247.716 93.42H247.786C247.953 93.1867 248.139 93 248.346 92.86C248.559 92.72 248.849 92.65 249.216 92.65C249.516 92.65 249.793 92.7 250.046 92.8C250.299 92.9 250.519 93.0433 250.706 93.23C250.893 93.41 251.036 93.6333 251.136 93.9C251.243 94.1667 251.296 94.47 251.296 94.81C251.296 95.15 251.243 95.4633 251.136 95.75C251.029 96.03 250.873 96.2733 250.666 96.48C250.466 96.68 250.219 96.8367 249.926 96.95C249.639 97.0633 249.313 97.12 248.946 97.12C248.653 97.12 248.393 97.0867 248.166 97.02C247.946 96.9533 247.749 96.8633 247.576 96.75C247.403 96.6367 247.249 96.51 247.116 96.37C246.989 96.23 246.873 96.0833 246.766 95.93L247.396 95.45C247.483 95.59 247.573 95.7167 247.666 95.83C247.766 95.9433 247.873 96.04 247.986 96.12C248.106 96.2 248.243 96.2633 248.396 96.31C248.549 96.35 248.733 96.37 248.946 96.37C249.426 96.37 249.789 96.2433 250.036 95.99C250.283 95.7367 250.406 95.38 250.406 94.92V94.82C250.406 94.36 250.283 94.0033 250.036 93.75C249.789 93.4967 249.426 93.37 248.946 93.37C248.626 93.37 248.373 93.43 248.186 93.55C248.006 93.6633 247.843 93.8 247.696 93.96L246.986 93.86L247.236 90.02H250.976V90.76ZM253.822 97L258.662 90.02H259.432L254.592 97H253.822ZM254.222 93.86C253.716 93.86 253.326 93.6933 253.052 93.36C252.779 93.02 252.642 92.5267 252.642 91.88C252.642 91.2333 252.779 90.7433 253.052 90.41C253.326 90.07 253.716 89.9 254.222 89.9C254.729 89.9 255.119 90.07 255.392 90.41C255.666 90.7433 255.802 91.2333 255.802 91.88C255.802 92.5267 255.666 93.02 255.392 93.36C255.119 93.6933 254.729 93.86 254.222 93.86ZM254.222 93.34C254.796 93.34 255.082 92.9533 255.082 92.18V91.58C255.082 90.8067 254.796 90.42 254.222 90.42C253.649 90.42 253.362 90.8067 253.362 91.58V92.18C253.362 92.9533 253.649 93.34 254.222 93.34ZM259.032 97.12C258.526 97.12 258.136 96.9533 257.862 96.62C257.589 96.28 257.452 95.7867 257.452 95.14C257.452 94.4933 257.589 94.0033 257.862 93.67C258.136 93.33 258.526 93.16 259.032 93.16C259.539 93.16 259.929 93.33 260.202 93.67C260.476 94.0033 260.612 94.4933 260.612 95.14C260.612 95.7867 260.476 96.28 260.202 96.62C259.929 96.9533 259.539 97.12 259.032 97.12ZM259.032 96.6C259.606 96.6 259.892 96.2133 259.892 95.44V94.84C259.892 94.0667 259.606 93.68 259.032 93.68C258.459 93.68 258.172 94.0667 258.172 94.84V95.44C258.172 96.2133 258.459 96.6 259.032 96.6Z" fill="black"/>
<path d="M173.646 97.5605C184.696 93.1086 190.044 80.5448 185.591 69.4984C181.137 58.452 168.569 53.1061 157.519 57.558C146.469 62.0099 141.121 74.5738 145.575 85.6201C150.028 96.6665 162.596 102.012 173.646 97.5605Z" stroke="#DBD9D5" stroke-width="3" stroke-miterlimit="10"/>
<path d="M166 55.828C177.6 55.828 187 65.6752 187 77.828" stroke="#F4E0A1" stroke-width="4" stroke-miterlimit="10"/>
<path d="M193.55 84.289C197.265 68.849 187.757 53.3215 172.312 49.6072C156.866 45.8929 141.334 55.3984 137.618 70.8383C133.903 86.2783 143.411 101.806 158.856 105.52C174.302 109.234 189.834 99.7289 193.55 84.289Z" stroke="#DBD9D5" stroke-width="3" stroke-miterlimit="10"/>
<path d="M166 48.828C182.015 48.828 195 61.8133 195 77.828C195 93.8427 182.015 106.828 166 106.828" stroke="#9D9E99" stroke-width="4" stroke-miterlimit="10"/>
<path d="M200.571 85.8285C205.134 66.5107 193.168 47.1528 173.844 42.5913C154.52 38.0298 135.155 49.9922 130.592 69.3099C126.029 88.6277 137.995 107.986 157.32 112.547C176.644 117.109 196.008 105.146 200.571 85.8285Z" stroke="#DBD9D5" stroke-width="3" stroke-miterlimit="10"/>
<path d="M165.279 41.828C185.009 41.828 201 57.944 201 77.828C201 97.712 185.009 113.828 165.279 113.828C153.165 113.828 142.463 107.753 136 98.4568" stroke="#F3B53F" stroke-width="4" stroke-miterlimit="10"/>
<path d="M208.151 84.5727C212.023 61.0698 196.103 38.8792 172.592 35.0085C149.081 31.1378 126.883 47.0528 123.011 70.5557C119.139 94.0586 135.059 116.249 158.57 120.12C182.081 123.991 204.279 108.076 208.151 84.5727Z" stroke="#DBD9D5" stroke-width="3" stroke-miterlimit="10"/>
<path d="M166 33.828C189.746 33.828 209 53.3059 209 77.328C209 101.35 189.746 120.828 166 120.828C142.254 120.828 123 101.357 123 77.328" stroke="#525D77" stroke-width="4" stroke-miterlimit="10"/>
<path d="M234 55.5C234 54.122 232.878 53 231.5 53C230.122 53 229 54.122 229 55.5C229 56.878 230.122 58 231.5 58C232.878 58 234 56.878 234 55.5Z" fill="#525D77"/>
<path d="M234 68.5C234 67.122 232.878 66 231.5 66C230.122 66 229 67.122 229 68.5C229 69.878 230.122 71 231.5 71C232.878 71 234 69.878 234 68.5Z" fill="#F2B43F"/>
<path d="M234 81.5C234 80.122 232.878 79 231.5 79C230.122 79 229 80.122 229 81.5C229 82.878 230.122 84 231.5 84C232.878 84 234 82.878 234 81.5Z" fill="#9D9E99"/>
<path d="M234 94.5C234 93.122 232.878 92 231.5 92C230.122 92 229 93.122 229 94.5C229 95.878 230.122 97 231.5 97C232.878 97 234 95.8855 234 94.5Z" fill="#F4E0A1"/>
</svg>
