<svg width="331" height="204" viewBox="0 0 331 204" fill="none" xmlns="http://www.w3.org/2000/svg">
<path fill-rule="evenodd" clip-rule="evenodd" d="M327 4H65V149H327V4ZM61 0V153H331V0H61Z" fill="#525D77"/>
<path d="M92.4857 119.541V49.4515L85.0779 48.4977L85.107 119.541C85.107 120.341 85.0903 121.137 85.053 121.934C84.8952 119.922 84.6419 117.911 84.2889 115.903L72.2969 48L64.8475 48.4313L77.014 117.185C77.151 117.973 77.2756 118.761 77.3794 119.549C76.877 117.596 76.2749 115.659 75.5773 113.743L52.5399 50.5215L45.5224 52.8274L68.6387 116.26C68.9127 117.011 69.1702 117.766 69.4068 118.525C68.5722 116.687 67.6421 114.883 66.6248 113.121L34.9754 58.3682L29.0458 62.8514L60.2343 116.803C60.6329 117.496 61.0191 118.197 61.3845 118.902C60.2426 117.239 59.0176 115.621 57.7013 114.062L21.2767 70.8266L16.8337 76.89L52.0458 118.802C52.5607 119.416 53.059 120.038 53.5448 120.669C52.133 119.23 50.6423 117.849 49.0769 116.538L11.9464 85.4458L8.81963 92.4174L44.3348 122.182C44.9494 122.697 45.5473 123.223 46.1328 123.758C44.4926 122.589 42.7902 121.49 41.0254 120.474L6.06661 100.165L4.0361 107.377L37.3049 126.84L37.3256 126.852C38.0191 127.25 38.7001 127.665 39.3728 128.092C37.554 127.221 35.6813 126.438 33.7629 125.737L2.48727 114.39L1.27893 121.78L31.2383 132.671C31.9857 132.94 32.7207 133.231 33.4515 133.529C31.5123 132.99 29.54 132.546 27.5344 132.194L0.552265 127.537L0 134.832L26.2513 139.456C33.5221 140.737 40.3237 143.4 46.465 147.373C52.3987 151.209 57.4729 156.103 61.5464 161.913C65.6199 167.724 68.4892 174.16 70.0712 181.041C71.7073 188.162 71.8858 195.457 70.6069 202.718L77.8777 204C79.331 195.759 79.1275 187.481 77.2673 179.39C76.142 174.5 74.4478 169.814 72.2056 165.372C85.1277 153.627 92.4857 137.092 92.4857 119.541Z" fill="#F2B43F"/>
<path d="M41.3825 181.165C45.288 181.165 48.454 178.003 48.454 174.102C48.454 170.202 45.288 167.04 41.3825 167.04C37.477 167.04 34.311 170.202 34.311 174.102C34.311 178.003 37.477 181.165 41.3825 181.165Z" fill="#F2B43F"/>
<path fill-rule="evenodd" clip-rule="evenodd" d="M194 178.5V152H198V178.5H194Z" fill="#525D77"/>
<path fill-rule="evenodd" clip-rule="evenodd" d="M264 181.5H128V177.5H264V181.5Z" fill="#525D77"/>
<path d="M241.75 58L244.42 51.74H241.44V53.04H240.69V51.02H245.27V51.76L242.65 58H241.75Z" fill="black"/>
<path d="M250.976 51.76H247.916L247.716 54.42H247.786C247.953 54.1867 248.139 54 248.346 53.86C248.559 53.72 248.849 53.65 249.216 53.65C249.516 53.65 249.793 53.7 250.046 53.8C250.299 53.9 250.519 54.0434 250.706 54.23C250.893 54.41 251.036 54.6334 251.136 54.9C251.243 55.1667 251.296 55.47 251.296 55.81C251.296 56.15 251.243 56.4634 251.136 56.75C251.029 57.03 250.873 57.2734 250.666 57.48C250.466 57.68 250.219 57.8367 249.926 57.95C249.639 58.0634 249.313 58.12 248.946 58.12C248.653 58.12 248.393 58.0867 248.166 58.02C247.946 57.9534 247.749 57.8634 247.576 57.75C247.403 57.6367 247.249 57.51 247.116 57.37C246.989 57.23 246.873 57.0834 246.766 56.93L247.396 56.45C247.483 56.59 247.573 56.7167 247.666 56.83C247.766 56.9434 247.873 57.04 247.986 57.12C248.106 57.2 248.243 57.2634 248.396 57.31C248.549 57.35 248.733 57.37 248.946 57.37C249.426 57.37 249.789 57.2434 250.036 56.99C250.283 56.7367 250.406 56.38 250.406 55.92V55.82C250.406 55.36 250.283 55.0034 250.036 54.75C249.789 54.4967 249.426 54.37 248.946 54.37C248.626 54.37 248.373 54.43 248.186 54.55C248.006 54.6634 247.843 54.8 247.696 54.96L246.986 54.86L247.236 51.02H250.976V51.76Z" fill="black"/>
<path d="M253.822 58L258.662 51.02H259.432L254.592 58H253.822ZM254.222 54.86C253.715 54.86 253.325 54.6934 253.052 54.36C252.779 54.02 252.642 53.5267 252.642 52.88C252.642 52.2334 252.779 51.7434 253.052 51.41C253.325 51.07 253.715 50.9 254.222 50.9C254.729 50.9 255.119 51.07 255.392 51.41C255.665 51.7434 255.802 52.2334 255.802 52.88C255.802 53.5267 255.665 54.02 255.392 54.36C255.119 54.6934 254.729 54.86 254.222 54.86ZM254.222 54.34C254.795 54.34 255.082 53.9534 255.082 53.18V52.58C255.082 51.8067 254.795 51.42 254.222 51.42C253.649 51.42 253.362 51.8067 253.362 52.58V53.18C253.362 53.9534 253.649 54.34 254.222 54.34ZM259.032 58.12C258.525 58.12 258.135 57.9534 257.862 57.62C257.589 57.28 257.452 56.7867 257.452 56.14C257.452 55.4934 257.589 55.0034 257.862 54.67C258.135 54.33 258.525 54.16 259.032 54.16C259.539 54.16 259.929 54.33 260.202 54.67C260.475 55.0034 260.612 55.4934 260.612 56.14C260.612 56.7867 260.475 57.28 260.202 57.62C259.929 57.9534 259.539 58.12 259.032 58.12ZM259.032 57.6C259.605 57.6 259.892 57.2134 259.892 56.44V55.84C259.892 55.0667 259.605 54.68 259.032 54.68C258.459 54.68 258.172 55.0667 258.172 55.84V56.44C258.172 57.2134 258.459 57.6 259.032 57.6Z" fill="black"/>
<path d="M243.01 72.12C242.65 72.12 242.323 72.06 242.03 71.94C241.743 71.8134 241.497 71.6367 241.29 71.41C241.09 71.1767 240.937 70.8934 240.83 70.56C240.723 70.2267 240.67 69.8534 240.67 69.44C240.67 68.92 240.747 68.4334 240.9 67.98C241.053 67.52 241.25 67.1034 241.49 66.73C241.737 66.35 242.007 66.0167 242.3 65.73C242.593 65.4367 242.88 65.2 243.16 65.02H244.24C243.867 65.2934 243.533 65.56 243.24 65.82C242.947 66.08 242.69 66.3534 242.47 66.64C242.25 66.92 242.063 67.2234 241.91 67.55C241.757 67.87 241.633 68.2334 241.54 68.64L241.59 68.66C241.757 68.3734 241.97 68.1367 242.23 67.95C242.497 67.7567 242.843 67.66 243.27 67.66C243.57 67.66 243.847 67.71 244.1 67.81C244.353 67.91 244.57 68.0534 244.75 68.24C244.93 68.4267 245.07 68.6534 245.17 68.92C245.277 69.1867 245.33 69.4834 245.33 69.81C245.33 70.15 245.273 70.4634 245.16 70.75C245.053 71.03 244.897 71.2734 244.69 71.48C244.49 71.68 244.247 71.8367 243.96 71.95C243.673 72.0634 243.357 72.12 243.01 72.12ZM243 71.39C243.46 71.39 243.817 71.2634 244.07 71.01C244.33 70.7567 244.46 70.3934 244.46 69.92V69.84C244.46 69.3667 244.33 69.0034 244.07 68.75C243.817 68.4967 243.46 68.37 243 68.37C242.54 68.37 242.18 68.4967 241.92 68.75C241.667 69.0034 241.54 69.3667 241.54 69.84V69.92C241.54 70.3934 241.667 70.7567 241.92 71.01C242.18 71.2634 242.54 71.39 243 71.39Z" fill="black"/>
<path d="M250.976 65.76H247.916L247.716 68.42H247.786C247.953 68.1867 248.139 68 248.346 67.86C248.559 67.72 248.849 67.65 249.216 67.65C249.516 67.65 249.793 67.7 250.046 67.8C250.299 67.9 250.519 68.0434 250.706 68.23C250.893 68.41 251.036 68.6334 251.136 68.9C251.243 69.1667 251.296 69.47 251.296 69.81C251.296 70.15 251.243 70.4634 251.136 70.75C251.029 71.03 250.873 71.2734 250.666 71.48C250.466 71.68 250.219 71.8367 249.926 71.95C249.639 72.0634 249.313 72.12 248.946 72.12C248.653 72.12 248.393 72.0867 248.166 72.02C247.946 71.9534 247.749 71.8634 247.576 71.75C247.403 71.6367 247.249 71.51 247.116 71.37C246.989 71.23 246.873 71.0834 246.766 70.93L247.396 70.45C247.483 70.59 247.573 70.7167 247.666 70.83C247.766 70.9434 247.873 71.04 247.986 71.12C248.106 71.2 248.243 71.2634 248.396 71.31C248.549 71.35 248.733 71.37 248.946 71.37C249.426 71.37 249.789 71.2434 250.036 70.99C250.283 70.7367 250.406 70.38 250.406 69.92V69.82C250.406 69.36 250.283 69.0034 250.036 68.75C249.789 68.4967 249.426 68.37 248.946 68.37C248.626 68.37 248.373 68.43 248.186 68.55C248.006 68.6634 247.843 68.8 247.696 68.96L246.986 68.86L247.236 65.02H250.976V65.76Z" fill="black"/>
<path d="M253.822 72L258.662 65.02H259.432L254.592 72H253.822ZM254.222 68.86C253.715 68.86 253.325 68.6934 253.052 68.36C252.779 68.02 252.642 67.5267 252.642 66.88C252.642 66.2334 252.779 65.7434 253.052 65.41C253.325 65.07 253.715 64.9 254.222 64.9C254.729 64.9 255.119 65.07 255.392 65.41C255.665 65.7434 255.802 66.2334 255.802 66.88C255.802 67.5267 255.665 68.02 255.392 68.36C255.119 68.6934 254.729 68.86 254.222 68.86ZM254.222 68.34C254.795 68.34 255.082 67.9534 255.082 67.18V66.58C255.082 65.8067 254.795 65.42 254.222 65.42C253.649 65.42 253.362 65.8067 253.362 66.58V67.18C253.362 67.9534 253.649 68.34 254.222 68.34ZM259.032 72.12C258.525 72.12 258.135 71.9534 257.862 71.62C257.589 71.28 257.452 70.7867 257.452 70.14C257.452 69.4934 257.589 69.0034 257.862 68.67C258.135 68.33 258.525 68.16 259.032 68.16C259.539 68.16 259.929 68.33 260.202 68.67C260.475 69.0034 260.612 69.4934 260.612 70.14C260.612 70.7867 260.475 71.28 260.202 71.62C259.929 71.9534 259.539 72.12 259.032 72.12ZM259.032 71.6C259.605 71.6 259.892 71.2134 259.892 70.44V69.84C259.892 69.0667 259.605 68.68 259.032 68.68C258.459 68.68 258.172 69.0667 258.172 69.84V70.44C258.172 71.2134 258.459 71.6 259.032 71.6Z" fill="black"/>
<path d="M244.98 77.76H241.92L241.72 80.42H241.79C241.957 80.1867 242.143 80 242.35 79.86C242.563 79.72 242.853 79.65 243.22 79.65C243.52 79.65 243.797 79.7 244.05 79.8C244.303 79.9 244.523 80.0434 244.71 80.23C244.897 80.41 245.04 80.6334 245.14 80.9C245.247 81.1667 245.3 81.47 245.3 81.81C245.3 82.15 245.247 82.4634 245.14 82.75C245.033 83.03 244.877 83.2734 244.67 83.48C244.47 83.68 244.223 83.8367 243.93 83.95C243.643 84.0634 243.317 84.12 242.95 84.12C242.657 84.12 242.397 84.0867 242.17 84.02C241.95 83.9534 241.753 83.8634 241.58 83.75C241.407 83.6367 241.253 83.51 241.12 83.37C240.993 83.23 240.877 83.0834 240.77 82.93L241.4 82.45C241.487 82.59 241.577 82.7167 241.67 82.83C241.77 82.9434 241.877 83.04 241.99 83.12C242.11 83.2 242.247 83.2634 242.4 83.31C242.553 83.35 242.737 83.37 242.95 83.37C243.43 83.37 243.793 83.2434 244.04 82.99C244.287 82.7367 244.41 82.38 244.41 81.92V81.82C244.41 81.36 244.287 81.0034 244.04 80.75C243.793 80.4967 243.43 80.37 242.95 80.37C242.63 80.37 242.377 80.43 242.19 80.55C242.01 80.6634 241.847 80.8 241.7 80.96L240.99 80.86L241.24 77.02H244.98V77.76Z" fill="black"/>
<path d="M248.996 84.12C248.163 84.12 247.553 83.8034 247.166 83.17C246.786 82.5367 246.596 81.65 246.596 80.51C246.596 79.37 246.786 78.4834 247.166 77.85C247.553 77.2167 248.163 76.9 248.996 76.9C249.829 76.9 250.436 77.2167 250.816 77.85C251.203 78.4834 251.396 79.37 251.396 80.51C251.396 81.65 251.203 82.5367 250.816 83.17C250.436 83.8034 249.829 84.12 248.996 84.12ZM248.996 83.39C249.269 83.39 249.503 83.3334 249.696 83.22C249.889 83.1067 250.046 82.9467 250.166 82.74C250.286 82.5334 250.373 82.29 250.426 82.01C250.486 81.73 250.516 81.42 250.516 81.08V79.94C250.516 79.6 250.486 79.29 250.426 79.01C250.373 78.73 250.286 78.4867 250.166 78.28C250.046 78.0734 249.889 77.9134 249.696 77.8C249.503 77.6867 249.269 77.63 248.996 77.63C248.723 77.63 248.489 77.6867 248.296 77.8C248.103 77.9134 247.946 78.0734 247.826 78.28C247.706 78.4867 247.616 78.73 247.556 79.01C247.503 79.29 247.476 79.6 247.476 79.94V81.08C247.476 81.42 247.503 81.73 247.556 82.01C247.616 82.29 247.706 82.5334 247.826 82.74C247.946 82.9467 248.103 83.1067 248.296 83.22C248.489 83.3334 248.723 83.39 248.996 83.39Z" fill="black"/>
<path d="M253.822 84L258.662 77.02H259.432L254.592 84H253.822ZM254.222 80.86C253.716 80.86 253.326 80.6934 253.052 80.36C252.779 80.02 252.642 79.5267 252.642 78.88C252.642 78.2334 252.779 77.7434 253.052 77.41C253.326 77.07 253.716 76.9 254.222 76.9C254.729 76.9 255.119 77.07 255.392 77.41C255.666 77.7434 255.802 78.2334 255.802 78.88C255.802 79.5267 255.666 80.02 255.392 80.36C255.119 80.6934 254.729 80.86 254.222 80.86ZM254.222 80.34C254.796 80.34 255.082 79.9534 255.082 79.18V78.58C255.082 77.8067 254.796 77.42 254.222 77.42C253.649 77.42 253.362 77.8067 253.362 78.58V79.18C253.362 79.9534 253.649 80.34 254.222 80.34ZM259.032 84.12C258.526 84.12 258.136 83.9534 257.862 83.62C257.589 83.28 257.452 82.7867 257.452 82.14C257.452 81.4934 257.589 81.0034 257.862 80.67C258.136 80.33 258.526 80.16 259.032 80.16C259.539 80.16 259.929 80.33 260.202 80.67C260.476 81.0034 260.612 81.4934 260.612 82.14C260.612 82.7867 260.476 83.28 260.202 83.62C259.929 83.9534 259.539 84.12 259.032 84.12ZM259.032 83.6C259.606 83.6 259.892 83.2134 259.892 82.44V81.84C259.892 81.0667 259.606 80.68 259.032 80.68C258.459 80.68 258.172 81.0667 258.172 81.84V82.44C258.172 83.2134 258.459 83.6 259.032 83.6Z" fill="black"/>
<path d="M245.33 97H240.75V96.14L243.03 94.04C243.357 93.74 243.63 93.4234 243.85 93.09C244.07 92.75 244.18 92.41 244.18 92.07V91.95C244.18 91.5634 244.073 91.25 243.86 91.01C243.647 90.77 243.323 90.65 242.89 90.65C242.677 90.65 242.49 90.68 242.33 90.74C242.17 90.8 242.03 90.8834 241.91 90.99C241.797 91.0967 241.7 91.2234 241.62 91.37C241.547 91.51 241.487 91.6634 241.44 91.83L240.69 91.54C240.757 91.3334 240.847 91.1334 240.96 90.94C241.08 90.74 241.227 90.5634 241.4 90.41C241.58 90.2567 241.793 90.1334 242.04 90.04C242.293 89.9467 242.59 89.9 242.93 89.9C243.27 89.9 243.573 89.95 243.84 90.05C244.107 90.15 244.33 90.29 244.51 90.47C244.69 90.65 244.827 90.8634 244.92 91.11C245.02 91.3567 245.07 91.63 245.07 91.93C245.07 92.2034 245.03 92.4567 244.95 92.69C244.877 92.9234 244.773 93.1467 244.64 93.36C244.507 93.5667 244.343 93.77 244.15 93.97C243.963 94.17 243.76 94.37 243.54 94.57L241.66 96.26H245.33V97Z" fill="black"/>
<path d="M250.976 90.76H247.916L247.716 93.42H247.786C247.953 93.1867 248.139 93 248.346 92.86C248.559 92.72 248.849 92.65 249.216 92.65C249.516 92.65 249.793 92.7 250.046 92.8C250.299 92.9 250.519 93.0434 250.706 93.23C250.893 93.41 251.036 93.6334 251.136 93.9C251.243 94.1667 251.296 94.47 251.296 94.81C251.296 95.15 251.243 95.4634 251.136 95.75C251.029 96.03 250.873 96.2734 250.666 96.48C250.466 96.68 250.219 96.8367 249.926 96.95C249.639 97.0634 249.313 97.12 248.946 97.12C248.653 97.12 248.393 97.0867 248.166 97.02C247.946 96.9534 247.749 96.8634 247.576 96.75C247.403 96.6367 247.249 96.51 247.116 96.37C246.989 96.23 246.873 96.0834 246.766 95.93L247.396 95.45C247.483 95.59 247.573 95.7167 247.666 95.83C247.766 95.9434 247.873 96.04 247.986 96.12C248.106 96.2 248.243 96.2634 248.396 96.31C248.549 96.35 248.733 96.37 248.946 96.37C249.426 96.37 249.789 96.2434 250.036 95.99C250.283 95.7367 250.406 95.38 250.406 94.92V94.82C250.406 94.36 250.283 94.0034 250.036 93.75C249.789 93.4967 249.426 93.37 248.946 93.37C248.626 93.37 248.373 93.43 248.186 93.55C248.006 93.6634 247.843 93.8 247.696 93.96L246.986 93.86L247.236 90.02H250.976V90.76Z" fill="black"/>
<path d="M253.822 97L258.662 90.02H259.432L254.592 97H253.822ZM254.222 93.86C253.715 93.86 253.325 93.6934 253.052 93.36C252.779 93.02 252.642 92.5267 252.642 91.88C252.642 91.2334 252.779 90.7434 253.052 90.41C253.325 90.07 253.715 89.9 254.222 89.9C254.729 89.9 255.119 90.07 255.392 90.41C255.665 90.7434 255.802 91.2334 255.802 91.88C255.802 92.5267 255.665 93.02 255.392 93.36C255.119 93.6934 254.729 93.86 254.222 93.86ZM254.222 93.34C254.795 93.34 255.082 92.9534 255.082 92.18V91.58C255.082 90.8067 254.795 90.42 254.222 90.42C253.649 90.42 253.362 90.8067 253.362 91.58V92.18C253.362 92.9534 253.649 93.34 254.222 93.34ZM259.032 97.12C258.525 97.12 258.135 96.9534 257.862 96.62C257.589 96.28 257.452 95.7867 257.452 95.14C257.452 94.4934 257.589 94.0034 257.862 93.67C258.135 93.33 258.525 93.16 259.032 93.16C259.539 93.16 259.929 93.33 260.202 93.67C260.475 94.0034 260.612 94.4934 260.612 95.14C260.612 95.7867 260.475 96.28 260.202 96.62C259.929 96.9534 259.539 97.12 259.032 97.12ZM259.032 96.6C259.605 96.6 259.892 96.2134 259.892 95.44V94.84C259.892 94.0667 259.605 93.68 259.032 93.68C258.459 93.68 258.172 94.0667 258.172 94.84V95.44C258.172 96.2134 258.459 96.6 259.032 96.6Z" fill="black"/>
<path fill-rule="evenodd" clip-rule="evenodd" d="M158.08 58.9492C147.798 63.0916 142.823 74.7818 146.966 85.0596C151.11 95.3373 162.804 100.312 173.086 96.1693C183.368 92.0268 188.343 80.3366 184.199 70.0589C180.056 59.7811 168.362 54.8067 158.08 58.9492ZM144.184 86.1806C139.42 74.3656 145.14 60.9281 156.958 56.1668C168.777 51.4054 182.219 57.1228 186.982 68.9378C191.745 80.7528 186.025 94.1903 174.207 98.9516C162.389 103.713 148.947 97.9957 144.184 86.1806Z" fill="#DBD9D5"/>
<path fill-rule="evenodd" clip-rule="evenodd" d="M185 77.828C185 66.6911 176.409 57.828 166 57.828V53.828C178.792 53.828 189 64.6593 189 77.828H185Z" fill="#F4E0A1"/>
<path fill-rule="evenodd" clip-rule="evenodd" d="M139.077 71.1891C135.555 85.8231 144.567 100.541 159.207 104.062C173.847 107.582 188.57 98.5722 192.091 83.9382C195.613 69.3041 186.601 54.5863 171.961 51.0656C157.32 47.5449 142.598 56.555 139.077 71.1891ZM158.505 106.979C142.255 103.071 132.25 86.7334 136.16 70.4876C140.069 54.2418 156.412 44.2409 172.662 48.1488C188.913 52.0566 198.918 68.3939 195.008 84.6397C191.099 100.885 174.756 110.886 158.505 106.979Z" fill="#DBD9D5"/>
<path fill-rule="evenodd" clip-rule="evenodd" d="M193 77.828C193 62.9179 180.91 50.828 166 50.828V46.828C183.119 46.828 197 60.7087 197 77.828C197 94.9473 183.119 108.828 166 108.828V104.828C180.91 104.828 193 92.7381 193 77.828Z" fill="#9D9E99"/>
<path fill-rule="evenodd" clip-rule="evenodd" d="M132.052 69.6546C127.679 88.1657 139.146 106.716 157.665 111.087C176.183 115.459 194.739 103.995 199.112 85.4839C203.484 66.9728 192.017 48.4224 173.499 44.0511C154.981 39.6799 136.424 51.1434 132.052 69.6546ZM156.975 114.007C136.845 109.255 124.379 89.0898 129.132 68.9654C133.886 48.841 154.059 36.3799 174.189 41.1316C194.319 45.8832 206.785 66.0487 202.031 86.1731C197.278 106.298 177.105 118.759 156.975 114.007Z" fill="#DBD9D5"/>
<path fill-rule="evenodd" clip-rule="evenodd" d="M199 77.828C199 59.0339 183.89 43.828 165.279 43.828V39.828C186.128 39.828 203 56.8542 203 77.828C203 98.8018 186.128 115.828 165.279 115.828C152.478 115.828 141.176 109.405 134.358 99.5985L137.642 97.3151C143.75 106.1 153.852 111.828 165.279 111.828C183.89 111.828 199 96.6221 199 77.828Z" fill="#F3B53F"/>
<path fill-rule="evenodd" clip-rule="evenodd" d="M124.491 70.7993C120.753 93.4844 136.12 114.904 158.814 118.64C181.507 122.376 202.933 107.014 206.671 84.329C210.408 61.644 195.042 40.2247 172.348 36.4885C149.654 32.7523 128.228 48.1143 124.491 70.7993ZM158.326 121.6C133.998 117.595 117.524 94.6327 121.531 70.312C125.537 45.9913 148.508 29.5232 172.835 33.5284C197.163 37.5336 213.638 60.4956 209.631 84.8164C205.624 109.137 182.654 125.605 158.326 121.6Z" fill="#DBD9D5"/>
<path fill-rule="evenodd" clip-rule="evenodd" d="M207 77.328C207 54.3887 188.62 35.828 166 35.828V31.828C190.872 31.828 211 52.2232 211 77.328C211 102.433 190.872 122.828 166 122.828C141.128 122.828 121 102.44 121 77.328H125C125 100.274 143.38 118.828 166 118.828C188.62 118.828 207 100.267 207 77.328Z" fill="#525D77"/>
<path d="M234 55.5C234 54.122 232.878 53 231.5 53C230.122 53 229 54.122 229 55.5C229 56.878 230.122 58 231.5 58C232.878 58 234 56.878 234 55.5Z" fill="#525D77"/>
<path d="M234 68.5C234 67.122 232.878 66 231.5 66C230.122 66 229 67.122 229 68.5C229 69.878 230.122 71 231.5 71C232.878 71 234 69.878 234 68.5Z" fill="#F2B43F"/>
<path d="M234 81.5C234 80.122 232.878 79 231.5 79C230.122 79 229 80.122 229 81.5C229 82.878 230.122 84 231.5 84C232.878 84 234 82.878 234 81.5Z" fill="#9D9E99"/>
<path d="M234 94.5C234 93.122 232.878 92 231.5 92C230.122 92 229 93.122 229 94.5C229 95.878 230.122 97 231.5 97C232.878 97 234 95.8855 234 94.5Z" fill="#F4E0A1"/>
</svg>
