<svg width="354" height="207" viewBox="0 0 354 207" fill="none" xmlns="http://www.w3.org/2000/svg">
<path fill-rule="evenodd" clip-rule="evenodd" d="M187 68.9999C108.64 68.9999 42.7765 122.306 23.9348 194.505L20.0645 193.495C39.3566 119.57 106.784 64.9999 187 64.9999C267.215 64.9999 334.643 119.57 353.935 193.495L350.064 194.505C331.223 122.306 265.359 68.9999 187 68.9999Z" fill="#F2B43F"/>
<path fill-rule="evenodd" clip-rule="evenodd" d="M324.242 137.181C322.408 130.866 316.986 122.413 305.177 111.529L302.467 114.471C314.051 125.147 318.863 133 320.401 138.296C321.922 143.534 320.219 145.979 319.107 146.742C317.649 147.742 317.239 149.521 317.11 150.949C316.97 152.499 317.102 154.382 317.358 156.397C317.712 159.185 318.347 162.517 319.008 165.991C319.301 167.526 319.599 169.09 319.88 170.645C320.813 175.812 321.583 180.986 321.55 185.368C321.516 189.862 320.636 192.926 318.896 194.503C315.608 197.483 312.525 198.728 309.163 199.142C305.679 199.571 301.859 199.12 296.972 198.532C287.243 197.363 274.347 195.828 254.978 201.069C246.114 203.468 239.385 203.391 233.962 202.036C228.529 200.678 224.239 197.996 220.291 194.911C218.673 193.646 217.137 192.335 215.591 191.015C215.238 190.714 214.885 190.412 214.53 190.11C212.639 188.503 210.713 186.906 208.688 185.501C204.607 182.67 200.038 180.561 194.241 180.561C190.363 180.561 186.821 181.828 183.595 183.523C180.808 184.988 178.14 186.841 175.657 188.564C175.289 188.82 174.926 189.072 174.566 189.32C171.709 191.292 169.131 192.973 166.629 193.922C164.192 194.847 161.974 195.02 159.742 194.128C155.079 192.264 153.547 190.009 153.192 187.681C152.791 185.049 153.77 181.741 155.554 177.553C156.137 176.183 156.81 174.713 157.514 173.176C158.848 170.261 160.292 167.108 161.44 163.949C163.225 159.031 164.473 153.68 163.804 148.15C163.06 142.005 158.806 137.361 153.685 135.408C148.531 133.442 142.33 134.147 137.802 138.871C135.545 141.226 134.678 143.569 134.887 145.939C135.08 148.126 136.187 150.048 137.056 151.538L137.143 151.686C138.063 153.262 138.736 154.416 138.953 155.585C139.135 156.565 139.01 157.688 137.721 159.205C137.258 159.75 136.146 160.48 134.68 160.838C133.254 161.187 131.766 161.118 130.514 160.448C128.165 159.191 125.284 154.896 127.268 142.191C129.446 128.241 120.21 118.519 109.655 117.718C104.379 117.317 98.871 119.162 94.4698 123.666C90.084 128.155 86.9082 135.161 85.9532 144.942C85.3169 151.459 82.8168 155.976 79.3072 159.106C75.7567 162.272 71.0244 164.149 65.7503 165.068C55.1597 166.914 42.9521 164.799 35.6328 162.358L34.3676 166.153C42.0968 168.73 54.9992 171.003 66.4372 169.009C72.1775 168.008 77.6892 165.908 81.9696 162.091C86.291 158.237 89.2086 152.763 89.9342 145.331C90.8261 136.196 93.7424 130.134 97.3308 126.462C100.904 122.805 105.253 121.395 109.352 121.706C117.547 122.329 125.139 129.896 123.315 141.574C121.298 154.496 123.796 161.39 128.626 163.975C130.963 165.225 133.514 165.241 135.63 164.724C137.705 164.216 139.636 163.129 140.77 161.795C142.764 159.447 143.307 157.125 142.886 154.855C142.536 152.97 141.519 151.238 140.71 149.861C140.642 149.746 140.576 149.633 140.512 149.522C139.585 147.934 138.974 146.753 138.872 145.588C138.785 144.607 139.047 143.352 140.689 141.639C143.959 138.228 148.399 137.673 152.26 139.145C156.153 140.63 159.287 144.122 159.833 148.631C160.395 153.271 159.366 157.939 157.68 162.583C156.579 165.613 155.273 168.462 153.986 171.266C153.262 172.846 152.544 174.41 151.874 175.986C150.105 180.138 148.648 184.408 149.238 188.283C149.875 192.462 152.762 195.645 158.258 197.842C161.672 199.208 164.964 198.832 168.047 197.662C171.064 196.518 174.014 194.561 176.838 192.612C177.212 192.354 177.584 192.096 177.955 191.839C180.457 190.103 182.904 188.405 185.456 187.064C188.362 185.537 191.248 184.561 194.241 184.561C198.959 184.561 202.74 186.243 206.408 188.788C208.259 190.072 210.058 191.559 211.939 193.158C212.279 193.447 212.623 193.74 212.969 194.036C214.519 195.36 216.135 196.739 217.828 198.063C222 201.323 226.8 204.369 232.991 205.916C239.192 207.466 246.624 207.474 256.022 204.931C274.652 199.889 286.944 201.356 296.494 202.504L296.705 202.529C301.375 203.091 305.648 203.605 309.652 203.112C313.838 202.597 317.688 200.997 321.582 197.467C324.655 194.683 325.515 190.074 325.55 185.398C325.586 180.611 324.753 175.117 323.816 169.934C323.516 168.272 323.207 166.65 322.908 165.085C322.26 161.683 321.664 158.554 321.326 155.893C321.08 153.957 320.993 152.419 321.094 151.309C321.186 150.29 321.4 150.03 321.401 150.019C324.32 147.993 326.087 143.531 324.242 137.181Z" fill="#F2B43F"/>
<path d="M116.456 30.8022L107.991 36.1894L107.971 36.165L106.566 37.0572C103.631 38.9244 100.121 39.568 96.691 38.8659C93.2609 38.1639 90.3158 36.1991 88.3958 33.3373L66.0704 0L61.9103 2.64729L78.8056 27.8721L56.5752 8.45865L54.1702 12.8659L72.9905 29.3006L52.2201 20.1301L51.9151 25.3126L77.3106 36.5258L52.5152 31.6602L53.7102 36.8378L77.8656 41.5766L55.9202 42.7564L58.3953 47.4757L81.6907 46.2276L61.8353 52.5119L65.2704 56.5194L86.7458 49.7232L44 76.9372L46.715 80.9934L95.8759 49.694L61.5703 81.2713L64.9804 84.7961L119.521 34.5951L117.816 32.8352L116.456 30.8022Z" fill="#F2B43F"/>
<path d="M124.711 25.1272C122.936 24.7616 121.196 25.8731 120.821 27.6039C120.446 29.3346 121.586 31.0312 123.361 31.3969C125.136 31.7625 126.876 30.6509 127.252 28.9202C127.627 27.1846 126.486 25.488 124.711 25.1272Z" fill="#F2B43F"/>
<path d="M132.827 21.1101C132.352 21.0565 131.862 21.0321 131.382 21.0321C130.912 21.2027 130.447 21.4026 129.992 21.6366C129.612 21.8317 129.242 22.051 128.887 22.2851L131.377 25.8635C131.377 25.8635 131.382 25.8587 131.387 25.8587V25.8733C131.687 25.8733 131.987 25.8879 132.282 25.922C136.342 26.3608 139.402 29.7004 139.402 33.6884C139.402 37.9982 135.807 41.5035 131.387 41.5035V46.3496C138.547 46.3496 144.372 40.6698 144.372 33.6884C144.367 27.2286 139.402 21.8219 132.827 21.1101Z" fill="#F2B43F"/>
<path d="M181.527 153.777C180.755 153.777 180.239 153.133 180.239 152.489V93.7675C180.239 92.995 180.883 92.4794 181.527 92.4794C182.3 92.4794 182.815 93.1234 182.815 93.7675V152.489C182.944 153.262 182.3 153.777 181.527 153.777Z" fill="#525D77"/>
<path fill-rule="evenodd" clip-rule="evenodd" d="M181.527 154.777C180.139 154.777 179.239 153.619 179.239 152.489V93.7675C179.239 92.379 180.397 91.4794 181.527 91.4794C182.916 91.4794 183.815 92.6371 183.815 93.7675V152.418C183.9 153.107 183.651 153.725 183.191 154.154C182.736 154.579 182.124 154.777 181.527 154.777ZM182.815 152.489V93.7675C182.815 93.1234 182.3 92.4794 181.527 92.4794C180.883 92.4794 180.239 92.995 180.239 93.7675V152.489C180.239 153.133 180.755 153.777 181.527 153.777C182.3 153.777 182.944 153.262 182.815 152.489Z" fill="#525D77"/>
<path d="M261.109 108.448C260.337 108.448 259.821 107.804 259.821 107.16L259.822 93.768C259.822 92.9955 260.466 92.4799 261.11 92.4799C261.883 92.4799 262.398 93.1239 262.398 93.768V107.032C262.398 107.804 261.753 108.448 261.109 108.448V108.448Z" fill="#525D77"/>
<path fill-rule="evenodd" clip-rule="evenodd" d="M261.109 108.448C261.115 108.448 261.12 108.448 261.126 108.448C261.496 108.442 261.865 108.224 262.109 107.892C262.286 107.653 262.398 107.353 262.398 107.032V93.768C262.398 93.1239 261.883 92.4799 261.11 92.4799C260.466 92.4799 259.822 92.9955 259.822 93.768L259.821 107.16C259.821 107.804 260.337 108.448 261.109 108.448ZM260.109 109.223C259.305 108.832 258.821 107.989 258.821 107.16L258.822 93.768C258.822 93.768 258.822 93.768 258.822 93.768C258.822 92.3795 259.98 91.4799 261.11 91.4799C262.499 91.4799 263.398 92.6375 263.398 93.768V107.033C263.397 108.295 262.366 109.448 261.109 109.448H260.109V109.223Z" fill="#525D77"/>
<path d="M201.874 153.777C201.101 153.777 200.585 153.133 200.585 152.489V138.452C200.585 136.135 202.517 134.203 204.835 134.203H228.143C228.916 134.203 229.431 134.847 229.431 135.491C229.431 136.135 228.787 136.779 228.143 136.779L204.835 136.778C203.933 136.778 203.161 137.551 203.161 138.453V152.489C203.29 153.262 202.646 153.777 201.873 153.777L201.874 153.777Z" fill="#525D77"/>
<path fill-rule="evenodd" clip-rule="evenodd" d="M201.873 153.777C202.545 153.777 203.12 153.387 203.173 152.777C203.181 152.686 203.177 152.589 203.16 152.489V138.453C203.16 137.551 203.933 136.778 204.835 136.778L228.143 136.779C228.787 136.779 229.431 136.135 229.431 135.491C229.431 134.847 228.915 134.203 228.143 134.203H204.835C202.516 134.203 200.585 136.135 200.585 138.452V152.489C200.585 152.791 200.698 153.093 200.899 153.329C201.125 153.595 201.463 153.777 201.873 153.777ZM200.18 154.026C199.799 153.599 199.585 153.04 199.585 152.489V138.452C199.585 135.583 201.964 133.203 204.835 133.203H228.143C229.531 133.203 230.431 134.361 230.431 135.491C230.431 136.138 230.117 136.702 229.735 137.084C229.354 137.466 228.79 137.779 228.143 137.779L204.835 137.778C204.835 137.778 204.835 137.778 204.835 137.778C204.485 137.778 204.16 138.103 204.16 138.453V152.418C204.175 152.54 204.18 152.66 204.175 152.777H204.341L204.159 152.953C204.098 153.423 203.874 153.84 203.537 154.154C203.082 154.579 202.47 154.777 201.873 154.777H199.405L200.18 154.026Z" fill="#525D77"/>
<path d="M220.674 153.777C219.902 153.777 219.386 153.133 219.386 152.489L219.387 135.491C219.387 134.718 220.031 134.203 220.675 134.203C221.448 134.203 221.963 134.847 221.963 135.491V152.49C222.091 153.262 221.448 153.777 220.674 153.777V153.777Z" fill="#525D77"/>
<path fill-rule="evenodd" clip-rule="evenodd" d="M220.674 153.777C220.677 153.777 220.68 153.777 220.683 153.777C221.076 153.775 221.434 153.64 221.674 153.406C221.904 153.182 222.026 152.866 221.963 152.49V135.491C221.963 134.847 221.448 134.203 220.675 134.203C220.031 134.203 219.387 134.718 219.387 135.491L219.386 152.489C219.386 153.133 219.902 153.777 220.674 153.777ZM219.674 154.552C218.87 154.16 218.386 153.317 218.386 152.489L218.387 135.491C218.387 135.491 218.387 135.491 218.387 135.491C218.387 134.103 219.545 133.203 220.675 133.203C222.064 133.203 222.963 134.361 222.963 135.491V152.42C223.048 153.108 222.798 153.726 222.339 154.154C221.883 154.579 221.272 154.777 220.674 154.777H219.674V154.552Z" fill="#525D77"/>
<path d="M191.572 134.718C191.443 134.718 191.314 134.718 191.057 134.59C190.413 134.332 190.027 133.559 190.284 132.915L192.087 128.151C193.246 125.06 196.079 123.129 199.298 123.129H241.923C242.695 123.129 243.211 123.773 243.211 124.417C243.211 125.189 242.567 125.705 241.923 125.705L199.427 125.704C197.238 125.704 195.306 126.992 194.663 129.052L192.86 133.946C192.602 134.46 192.087 134.718 191.572 134.718L191.572 134.718Z" fill="#525D77"/>
<path fill-rule="evenodd" clip-rule="evenodd" d="M191.636 135.718H191.571C191.569 135.718 191.566 135.718 191.562 135.718C191.492 135.718 191.345 135.718 191.167 135.683C190.992 135.648 190.821 135.587 190.645 135.501C189.58 135.05 188.877 133.757 189.352 132.554L191.151 127.8C191.151 127.799 191.151 127.799 191.151 127.798C192.457 124.317 195.663 122.129 199.298 122.129H241.922C243.311 122.129 244.211 123.286 244.211 124.417C244.211 125.805 243.053 126.705 241.922 126.705L199.427 126.704C199.427 126.704 199.427 126.704 199.427 126.704C197.627 126.704 196.116 127.752 195.617 129.35L195.609 129.374L193.779 134.344L193.754 134.393C193.316 135.267 192.461 135.693 191.645 135.717L191.636 135.718ZM199.427 125.704L241.922 125.705C242.567 125.705 243.211 125.189 243.211 124.417C243.211 123.773 242.695 123.129 241.922 123.129H199.298C196.079 123.129 193.246 125.06 192.087 128.151L190.284 132.915C190.026 133.559 190.413 134.332 191.057 134.59C191.314 134.718 191.443 134.718 191.571 134.718C192.086 134.718 192.602 134.46 192.86 133.946L194.662 129.052C195.306 126.992 197.238 125.704 199.427 125.704Z" fill="#525D77"/>
<path fill-rule="evenodd" clip-rule="evenodd" d="M203 59.2565H197.753C194.791 59.2565 192.473 56.8095 192.473 53.9765L192.474 47.28C192.474 44.3184 194.921 42 197.754 42H244.756C247.718 42 250.036 44.4469 250.036 47.28V53.9765C250.165 56.8095 247.717 59.2565 244.755 59.2565H240.12V65.3093H255.446C255.833 65.3093 256.219 65.5671 256.477 65.824L270.124 85.0117L270.128 85.0196C270.255 85.2748 270.382 85.529 270.382 85.7842C270.381 90.8064 266.132 94.9267 261.11 94.9267C257.762 94.9267 254.8 93.1239 253.126 90.4192C251.452 93.1239 248.49 94.9267 245.142 94.9267C241.794 94.9267 238.832 93.1239 237.158 90.4192C235.484 93.1239 232.522 94.9267 229.175 94.9267C225.827 94.9267 222.864 93.1239 221.191 90.4192C219.516 93.1239 216.555 94.9267 213.207 94.9267C209.859 94.9267 206.897 93.1239 205.223 90.4192C203.549 93.1239 200.587 94.9267 197.239 94.9267C193.891 94.9267 190.929 93.1239 189.256 90.4192C187.581 93.1239 184.62 94.9267 181.272 94.9267C176.121 94.9267 172 90.8055 172 85.6549C172 85.3971 172.128 85.1402 172.258 84.8824L185.522 65.824C185.779 65.4378 186.166 65.3093 186.552 65.3093H203V59.2565Z" fill="#F4E0A1"/>
<path fill-rule="evenodd" clip-rule="evenodd" d="M192.473 53.9765L192.474 47.28C192.474 44.3184 194.921 42 197.754 42H244.756C247.718 42 250.036 44.4469 250.036 47.28V53.9765C250.165 56.8095 247.717 59.2565 244.755 59.2565H240.12V65.3093H255.446C255.833 65.3093 256.219 65.5671 256.477 65.824L270.124 85.0117L270.128 85.0196C270.255 85.2748 270.382 85.529 270.382 85.7842C270.381 90.8064 266.132 94.9267 261.11 94.9267C258.142 94.9267 255.477 93.5099 253.744 91.3039C253.522 91.0215 253.316 90.7261 253.126 90.4192C252.936 90.7261 252.729 91.0214 252.507 91.3038C250.774 93.5099 248.11 94.9267 245.142 94.9267C242.174 94.9267 239.509 93.5099 237.777 91.3039C237.555 91.0215 237.348 90.7261 237.158 90.4192C236.968 90.7261 236.762 91.0214 236.54 91.3038C234.807 93.5099 232.142 94.9267 229.175 94.9267C226.207 94.9267 223.542 93.5099 221.809 91.3039C221.587 91.0215 221.381 90.7261 221.191 90.4192C221.001 90.7261 220.794 91.0214 220.572 91.3038C218.839 93.5099 216.175 94.9267 213.207 94.9267C210.239 94.9267 207.574 93.5099 205.841 91.3039C205.62 91.0215 205.413 90.7261 205.223 90.4192C205.033 90.7261 204.827 91.0214 204.605 91.3038C202.872 93.5099 200.207 94.9267 197.239 94.9267C194.271 94.9267 191.607 93.5099 189.874 91.3039C189.652 91.0215 189.446 90.7261 189.256 90.4192C189.066 90.7261 188.859 91.0214 188.637 91.3038C186.904 93.5099 184.24 94.9267 181.272 94.9267C176.121 94.9267 172 90.8055 172 85.6549C172 85.3971 172.128 85.1402 172.258 84.8824L185.522 65.824C185.779 65.4378 186.166 65.3093 186.552 65.3093H203V59.2565H197.753C194.791 59.2565 192.473 56.8095 192.473 53.9765ZM202 60.2565H197.753C194.223 60.2565 191.473 57.3459 191.473 53.9765L191.474 47.28C191.474 47.2799 191.474 47.28 191.474 47.28C191.474 43.7504 194.384 41 197.754 41H244.756C248.286 41 251.036 43.9105 251.036 47.28V53.955C251.178 57.3904 248.235 60.2565 244.755 60.2565H241.12V64.3093H255.446C256.232 64.3093 256.861 64.7954 257.182 65.1157L257.242 65.1754L270.984 84.4959L271.023 84.5736C271.03 84.5868 271.037 84.6013 271.045 84.6169C271.155 84.8353 271.382 85.2839 271.382 85.7842C271.381 91.3765 266.666 95.9267 261.11 95.9267C257.911 95.9267 255.039 94.4437 253.126 92.1299C251.212 94.4436 248.341 95.9267 245.142 95.9267C241.943 95.9267 239.072 94.4437 237.158 92.1299C235.244 94.4436 232.374 95.9267 229.175 95.9267C225.975 95.9267 223.104 94.4437 221.191 92.1299C219.277 94.4436 216.406 95.9267 213.207 95.9267C210.008 95.9267 207.137 94.4437 205.223 92.1299C203.309 94.4436 200.439 95.9267 197.239 95.9267C194.04 95.9267 191.169 94.4437 189.255 92.1299C187.342 94.4436 184.471 95.9267 181.272 95.9267C175.569 95.9267 171 91.3578 171 85.6549C171 85.1501 171.23 84.6981 171.342 84.4769C171.35 84.4615 171.357 84.4471 171.364 84.434L171.396 84.37L184.696 65.2597C185.191 64.5262 185.938 64.3093 186.552 64.3093H202V60.2565Z" fill="#525D77"/>
<path d="M261.11 94.9267C257.762 94.9267 254.8 93.1239 253.126 90.4191C251.452 93.1239 248.49 94.9267 245.142 94.9267C241.794 94.9267 238.832 93.1239 237.158 90.4191C235.484 93.1239 232.522 94.9267 229.175 94.9267C225.827 94.9267 222.864 93.1239 221.191 90.4191C219.516 93.1239 216.555 94.9267 213.207 94.9267C209.859 94.9267 206.897 93.1239 205.223 90.4191C203.549 93.1239 200.587 94.9267 197.239 94.9267C193.891 94.9267 190.929 93.1239 189.256 90.4191C187.581 93.1239 184.62 94.9267 181.272 94.9267C176.121 94.9267 172 90.8055 172 85.6549C172 85.3971 172.128 85.1402 172.258 84.8824L185.522 65.824C185.779 65.4378 186.166 65.3093 186.552 65.3093H255.446C255.833 65.3093 256.219 65.5671 256.477 65.824L270.124 85.0117C270.252 85.2695 270.382 85.5264 270.382 85.7842C270.381 90.8064 266.131 94.9267 261.109 94.9267H261.11ZM253.126 84.3677C253.898 84.3677 254.414 85.0117 254.414 85.6558C254.414 89.2615 257.376 92.3523 261.111 92.3523C264.588 92.3523 267.549 89.6476 267.678 86.1713L255.058 68.0139L187.58 68.013L174.961 86.0419C175.218 89.519 178.051 92.2228 181.528 92.2228C185.134 92.2228 188.224 89.2613 188.224 85.5263C188.224 84.7538 188.868 84.2382 189.512 84.2382C190.285 84.2382 190.801 84.8823 190.801 85.5263C190.801 89.132 193.762 92.2228 197.497 92.2228C201.231 92.2228 204.194 89.2613 204.194 85.5263C204.194 84.7538 204.838 84.2382 205.482 84.2382C206.254 84.2382 206.77 84.8823 206.77 85.5263C206.77 89.132 209.731 92.2228 213.466 92.2228C217.072 92.2228 220.163 89.2613 220.163 85.5263C220.163 84.7538 220.807 84.2382 221.451 84.2382C222.223 84.2382 222.739 84.8823 222.739 85.5263C222.739 89.132 225.701 92.2228 229.436 92.2228C233.041 92.2228 236.132 89.2613 236.132 85.5263C236.132 84.7538 236.776 84.2382 237.42 84.2382C238.064 84.2382 238.708 84.8823 238.708 85.5263C238.708 89.132 241.67 92.2228 245.405 92.2228C249.011 92.2228 252.101 89.2613 252.101 85.5263C251.838 85.0116 252.354 84.3676 253.126 84.3676L253.126 84.3677Z" fill="#525D77"/>
<path fill-rule="evenodd" clip-rule="evenodd" d="M261.109 94.9267C258.141 94.9265 255.477 93.5098 253.744 91.3039C253.522 91.0215 253.316 90.7261 253.126 90.4191C252.936 90.7261 252.729 91.0214 252.507 91.3038C250.774 93.5099 248.11 94.9267 245.142 94.9267C242.174 94.9267 239.509 93.5099 237.777 91.3039C237.555 91.0215 237.348 90.7261 237.158 90.4191C236.968 90.7261 236.762 91.0214 236.54 91.3038C234.807 93.5099 232.142 94.9267 229.175 94.9267C226.207 94.9267 223.542 93.5099 221.809 91.3039C221.587 91.0215 221.381 90.7261 221.191 90.4191C221.001 90.7261 220.794 91.0214 220.572 91.3038C218.839 93.5099 216.175 94.9267 213.207 94.9267C210.239 94.9267 207.574 93.5099 205.841 91.3039C205.62 91.0215 205.413 90.7261 205.223 90.4191C205.033 90.7261 204.827 91.0214 204.605 91.3038C202.872 93.5099 200.207 94.9267 197.239 94.9267C194.271 94.9267 191.607 93.5099 189.874 91.3039C189.652 91.0215 189.446 90.7261 189.256 90.4191C189.066 90.7261 188.859 91.0214 188.637 91.3038C186.904 93.5099 184.24 94.9267 181.272 94.9267C176.121 94.9267 172 90.8055 172 85.6549C172 85.3971 172.128 85.1402 172.258 84.8824L185.522 65.824C185.779 65.4378 186.166 65.3093 186.552 65.3093H255.446C255.833 65.3093 256.219 65.5671 256.477 65.824L270.124 85.0117L270.128 85.0196C270.255 85.2748 270.382 85.529 270.382 85.7842C270.381 90.8062 266.131 94.9264 261.109 94.9267C261.109 94.9267 261.109 94.9267 261.109 94.9267ZM261.11 95.9267C266.666 95.9264 271.381 91.3766 271.382 85.7844C271.382 85.2825 271.153 84.8304 271.042 84.6116C271.034 84.5949 271.026 84.5796 271.019 84.5657L270.984 84.4958L257.242 65.1754L257.182 65.1157C256.861 64.7954 256.232 64.3093 255.446 64.3093H186.552C185.938 64.3093 185.191 64.5262 184.696 65.2597L171.396 84.37L171.364 84.434C171.357 84.4471 171.35 84.4615 171.342 84.4769C171.23 84.6981 171 85.1501 171 85.6549C171 91.3578 175.569 95.9267 181.272 95.9267C184.471 95.9267 187.342 94.4436 189.255 92.1299C191.169 94.4437 194.04 95.9267 197.239 95.9267C200.439 95.9267 203.309 94.4436 205.223 92.1299C207.137 94.4437 210.008 95.9267 213.207 95.9267C216.406 95.9267 219.277 94.4436 221.191 92.1299C223.104 94.4437 225.975 95.9267 229.175 95.9267C232.374 95.9267 235.244 94.4436 237.158 92.1299C239.072 94.4437 241.943 95.9267 245.142 95.9267C248.341 95.9267 251.212 94.4436 253.126 92.1299C255.039 94.4435 257.911 95.9265 261.11 95.9267ZM253.126 84.3676C253.077 84.3676 253.03 84.3701 252.983 84.3751C252.292 84.4483 251.855 85.0441 252.101 85.5263C252.101 89.2613 249.011 92.2228 245.405 92.2228C241.67 92.2228 238.708 89.132 238.708 85.5263C238.708 84.8823 238.064 84.2382 237.42 84.2382C236.776 84.2382 236.132 84.7538 236.132 85.5263C236.132 89.2613 233.041 92.2228 229.436 92.2228C225.701 92.2228 222.739 89.132 222.739 85.5263C222.739 84.8823 222.223 84.2382 221.451 84.2382C220.807 84.2382 220.163 84.7538 220.163 85.5263C220.163 89.2613 217.072 92.2228 213.466 92.2228C209.731 92.2228 206.77 89.132 206.77 85.5263C206.77 84.8823 206.254 84.2382 205.482 84.2382C204.838 84.2382 204.194 84.7538 204.194 85.5263C204.194 89.2613 201.231 92.2228 197.497 92.2228C193.762 92.2228 190.801 89.132 190.801 85.5263C190.801 84.8823 190.285 84.2382 189.512 84.2382C188.868 84.2382 188.224 84.7538 188.224 85.5263C188.224 89.2613 185.134 92.2228 181.528 92.2228C178.051 92.2228 175.218 89.519 174.961 86.0419L187.58 68.013L255.058 68.0139L267.678 86.1713C267.549 89.6476 264.588 92.3523 261.111 92.3523C257.376 92.3523 254.414 89.2615 254.414 85.6558C254.414 85.053 253.962 84.4501 253.271 84.3754C253.224 84.3703 253.175 84.3676 253.126 84.3676ZM266.657 86.4546C266.386 89.2106 263.971 91.3523 261.111 91.3523C257.94 91.3523 255.414 88.7218 255.414 85.6558C255.414 84.5254 254.515 83.3679 253.126 83.3677C252.464 83.3677 251.858 83.6445 251.465 84.1043C251.124 84.5037 250.916 85.0987 251.099 85.7038C251.003 88.7903 248.413 91.2228 245.405 91.2228C242.235 91.2228 239.708 88.5923 239.708 85.5263C239.708 84.8791 239.395 84.3155 239.013 83.9337C238.631 83.5518 238.067 83.2382 237.42 83.2382C236.29 83.2382 235.132 84.1379 235.132 85.5263C235.132 88.6965 232.502 91.2228 229.436 91.2228C226.265 91.2228 223.739 88.5923 223.739 85.5263C223.739 84.3959 222.839 83.2382 221.451 83.2382C220.321 83.2382 219.163 84.1379 219.163 85.5263C219.163 88.6965 216.532 91.2228 213.466 91.2228C210.296 91.2228 207.77 88.5923 207.77 85.5263C207.77 84.3959 206.87 83.2382 205.482 83.2382C204.351 83.2382 203.194 84.1379 203.194 85.5263C203.194 88.7089 200.679 91.2228 197.497 91.2228C194.327 91.2228 191.801 88.5923 191.801 85.5263C191.801 84.3959 190.901 83.2382 189.512 83.2382C188.382 83.2382 187.224 84.1379 187.224 85.5263C187.224 88.6965 184.594 91.2228 181.528 91.2228C178.705 91.2228 176.366 89.1127 175.993 86.3104L188.101 69.013L254.535 69.0139L266.657 86.4546Z" fill="#525D77"/>
<path d="M244.755 59.2565H197.753C194.791 59.2565 192.473 56.8095 192.473 53.9765L192.474 47.28C192.474 44.3184 194.921 42 197.754 42H244.756C247.718 42 250.036 44.4469 250.036 47.28V53.9765C250.165 56.8095 247.718 59.2565 244.756 59.2565H244.755ZM197.753 44.5762C196.208 44.5762 195.048 45.7349 195.048 47.2809V53.9774C195.048 55.5224 196.207 56.6821 197.753 56.6821H244.755C246.3 56.6821 247.46 55.5234 247.46 53.9774V47.28C247.46 45.735 246.301 44.5753 244.755 44.5753L197.753 44.5762Z" fill="#525D77"/>
<path fill-rule="evenodd" clip-rule="evenodd" d="M191.473 53.9764L191.474 47.28C191.474 47.2799 191.474 47.28 191.474 47.28C191.474 43.7504 194.384 41 197.754 41H244.756C248.286 41 251.036 43.9105 251.036 47.28V53.9549C251.178 57.3901 248.236 60.2565 244.756 60.2565H197.753C194.223 60.2565 191.473 57.3458 191.473 53.9764ZM250.036 53.9765V47.28C250.036 44.4469 247.718 42 244.756 42H197.754C194.921 42 192.474 44.3184 192.474 47.28L192.473 53.9765C192.473 56.8095 194.791 59.2565 197.753 59.2565H244.755C247.717 59.2565 250.165 56.8095 250.036 53.9765ZM197.753 45.5762C196.76 45.5762 196.048 46.2875 196.048 47.2809V53.9774C196.048 54.9704 196.759 55.6821 197.753 55.6821H244.755C245.748 55.6821 246.46 54.9709 246.46 53.9774V47.28C246.46 46.287 245.749 45.5753 244.755 45.5753L197.753 45.5762ZM195.048 47.2809C195.048 45.7349 196.208 44.5762 197.753 44.5762L244.755 44.5753C246.301 44.5753 247.46 45.735 247.46 47.28V53.9774C247.46 55.5234 246.3 56.6821 244.755 56.6821H197.753C196.207 56.6821 195.048 55.5224 195.048 53.9774V47.2809Z" fill="#525D77"/>
<path d="M238.832 68.0129C238.059 68.0129 237.543 67.3688 237.543 66.7247V57.9685C237.543 57.196 238.188 56.6804 238.832 56.6804C239.604 56.6804 240.12 57.3245 240.12 57.9685V66.7247C240.12 67.3688 239.476 68.0129 238.832 68.0129Z" fill="#525D77"/>
<path fill-rule="evenodd" clip-rule="evenodd" d="M238.832 69.0129C237.443 69.0129 236.543 67.8552 236.543 66.7247V57.9685C236.543 56.5801 237.701 55.6804 238.832 55.6804C240.22 55.6804 241.12 56.8381 241.12 57.9685V66.7247C241.12 67.372 240.806 67.9356 240.424 68.3174C240.042 68.6993 239.479 69.0129 238.832 69.0129ZM237.543 66.7247C237.543 67.3688 238.059 68.0129 238.832 68.0129C239.476 68.0129 240.12 67.3688 240.12 66.7247V57.9685C240.12 57.3245 239.604 56.6804 238.832 56.6804C238.188 56.6804 237.543 57.196 237.543 57.9685V66.7247Z" fill="#525D77"/>
<path d="M203.805 68.0129C203.033 68.0129 202.517 67.3688 202.517 66.7247V57.9685C202.517 57.196 203.161 56.6804 203.805 56.6804C204.578 56.6804 205.093 57.3245 205.093 57.9685V66.7247C205.093 67.3688 204.578 68.0129 203.805 68.0129Z" fill="#525D77"/>
<path fill-rule="evenodd" clip-rule="evenodd" d="M203.805 69.0129C202.417 69.0129 201.517 67.8552 201.517 66.7247V57.9685C201.517 56.5801 202.675 55.6804 203.805 55.6804C205.194 55.6804 206.093 56.8381 206.093 57.9685V66.7247C206.093 67.8552 205.194 69.0129 203.805 69.0129ZM202.517 66.7247C202.517 67.3688 203.033 68.0129 203.805 68.0129C204.578 68.0129 205.093 67.3688 205.093 66.7247V57.9685C205.093 57.3245 204.578 56.6804 203.805 56.6804C203.161 56.6804 202.517 57.196 202.517 57.9685V66.7247Z" fill="#525D77"/>
<path d="M283.259 141.801C274.759 141.801 267.162 136.134 264.844 128.021C264.072 125.188 263.686 121.84 263.686 118.363C263.686 116.818 262.655 116.046 261.754 115.788C260.724 115.53 259.437 115.788 258.793 117.076C256.217 122.098 255.573 128.151 256.99 134.59C257.118 135.362 256.732 136.006 255.96 136.135C255.187 136.263 254.543 135.877 254.415 135.104C252.87 128.021 253.642 121.325 256.475 115.788C257.634 113.599 260.081 112.44 262.399 113.083C264.846 113.727 266.391 115.788 266.391 118.234C266.391 121.582 266.649 124.544 267.421 127.12C269.482 134.073 276.049 138.967 283.39 138.967C284.162 138.967 284.678 139.611 284.678 140.255C284.675 141.157 284.031 141.801 283.259 141.801L283.259 141.801Z" fill="#525D77"/>
<path fill-rule="evenodd" clip-rule="evenodd" d="M283.077 141.8C283.138 141.8 283.198 141.801 283.259 141.801C283.259 141.801 283.259 141.801 283.259 141.801C283.259 141.801 283.259 141.801 283.259 141.801L283.259 141.801C283.259 141.801 283.259 141.801 283.259 141.801C283.259 141.801 283.259 141.801 283.259 141.801C283.32 141.801 283.379 141.797 283.438 141.789C284.129 141.698 284.676 141.086 284.678 140.255C284.678 139.611 284.163 138.967 283.39 138.967C276.05 138.967 269.482 134.073 267.422 127.12C266.649 124.544 266.392 121.582 266.392 118.234C266.392 115.788 264.847 113.727 262.4 113.083C260.081 112.44 257.634 113.599 256.476 115.788C253.643 121.325 252.87 128.021 254.415 135.104C254.543 135.877 255.188 136.263 255.96 136.135C256.733 136.006 257.119 135.362 256.99 134.59C255.574 128.151 256.218 122.098 258.793 117.076C259.437 115.788 260.724 115.53 261.755 115.788C262.656 116.046 263.686 116.818 263.686 118.363C263.686 121.84 264.072 125.188 264.845 128.021C267.146 136.077 274.652 141.72 283.077 141.8ZM261.496 116.754C262.094 116.931 262.686 117.397 262.686 118.363C262.686 121.908 263.079 125.347 263.88 128.284L263.88 128.285L263.883 128.296C266.325 136.845 274.32 142.801 283.259 142.801L283.259 142.801C284.64 142.801 285.674 141.651 285.678 140.258V140.255C285.678 139.124 284.779 137.967 283.39 137.967C276.489 137.967 270.314 133.36 268.381 126.835L268.38 126.832C267.648 124.392 267.392 121.541 267.392 118.234C267.392 115.339 265.546 112.88 262.661 112.118C259.85 111.342 256.948 112.758 255.592 115.32L255.592 115.32L255.585 115.333C252.637 121.095 251.852 128.024 253.433 135.296C253.545 135.924 253.882 136.46 254.403 136.797C254.92 137.132 255.536 137.219 256.124 137.121C256.765 137.014 257.31 136.676 257.653 136.147C257.987 135.629 258.075 135.014 257.977 134.425L257.973 134.4L257.967 134.375C256.592 128.127 257.229 122.317 259.683 117.532L259.683 117.532L259.688 117.523C260.06 116.779 260.783 116.581 261.496 116.754Z" fill="#525D77"/>
<path d="M244.24 144.505H237.415C234.454 144.505 232.007 142.058 232.007 139.097C232.007 136.135 234.454 133.688 237.415 133.688H258.406C259.178 133.688 259.694 134.332 259.694 134.976C259.694 135.62 259.05 136.264 258.406 136.264L237.415 136.263C235.87 136.263 234.582 137.551 234.582 139.096C234.582 140.641 235.87 141.929 237.415 141.929H244.24C245.013 141.929 245.529 142.573 245.529 143.218C245.529 143.861 245.013 144.505 244.24 144.505V144.505Z" fill="#525D77"/>
<path fill-rule="evenodd" clip-rule="evenodd" d="M245.24 145.505H237.415C233.901 145.505 231.007 142.61 231.007 139.097C231.007 135.583 233.901 132.688 237.415 132.688H258.406C259.794 132.688 260.694 133.846 260.694 134.976C260.694 135.623 260.38 136.187 259.999 136.569C259.617 136.951 259.053 137.264 258.406 137.264L237.415 137.263C237.415 137.263 237.415 137.263 237.415 137.263C236.423 137.263 235.582 138.104 235.582 139.096C235.582 140.089 236.423 140.929 237.415 140.929H244.24C245.629 140.929 246.529 142.087 246.529 143.218C246.529 144.046 246.045 144.888 245.24 145.28V145.505ZM244.24 144.505C245.013 144.505 245.529 143.861 245.529 143.218C245.529 142.573 245.013 141.929 244.24 141.929H237.415C235.87 141.929 234.582 140.641 234.582 139.096C234.582 137.551 235.87 136.263 237.415 136.263L258.406 136.264C259.05 136.264 259.694 135.62 259.694 134.976C259.694 134.332 259.178 133.688 258.406 133.688H237.415C234.454 133.688 232.007 136.135 232.007 139.097C232.007 142.058 234.454 144.505 237.415 144.505L244.24 144.505Z" fill="#525D77"/>
<path d="M247.46 152.618H240.635C237.673 152.618 235.226 150.171 235.226 147.209V143.088C235.226 142.316 235.87 141.8 236.514 141.8C237.287 141.8 237.802 142.444 237.802 143.088V147.209C237.802 148.754 239.09 150.042 240.635 150.042H247.46C248.233 150.042 248.749 150.686 248.749 151.33C248.748 152.102 248.232 152.618 247.46 152.618L247.46 152.618Z" fill="#525D77"/>
<path fill-rule="evenodd" clip-rule="evenodd" d="M249.874 153.618H240.635C237.121 153.618 234.226 150.723 234.226 147.209V143.088C234.226 141.7 235.384 140.8 236.514 140.8C237.903 140.8 238.802 141.958 238.802 143.088V147.209C238.802 148.202 239.643 149.042 240.635 149.042H247.46C248.849 149.042 249.749 150.2 249.749 151.33V151.332C249.748 151.915 249.558 152.476 249.162 152.906L249.874 153.618ZM248.454 152.198C248.642 151.977 248.748 151.68 248.749 151.33C248.749 150.686 248.233 150.042 247.46 150.042H240.635C239.09 150.042 237.802 148.754 237.802 147.209V143.088C237.802 142.444 237.287 141.8 236.514 141.8C235.87 141.8 235.226 142.316 235.226 143.088V147.209C235.226 150.171 237.673 152.618 240.635 152.618H247.459C247.881 152.618 248.227 152.464 248.454 152.198Z" fill="#525D77"/>
<path d="M250.937 160.859H244.112C241.15 160.859 238.703 158.412 238.703 155.451V151.33C238.703 150.557 239.347 150.042 239.991 150.042C240.764 150.042 241.279 150.686 241.279 151.33V155.451C241.279 156.996 242.567 158.284 244.112 158.284H250.937C251.71 158.284 252.226 158.928 252.226 159.572C252.225 160.215 251.581 160.859 250.937 160.859L250.937 160.859Z" fill="#525D77"/>
<path fill-rule="evenodd" clip-rule="evenodd" d="M253.429 161.859H244.112C240.598 161.859 237.703 158.965 237.703 155.451V151.33C237.703 149.941 238.861 149.042 239.991 149.042C241.38 149.042 242.279 150.199 242.279 151.33V155.451C242.279 156.444 243.12 157.284 244.112 157.284H250.937C252.326 157.284 253.226 158.442 253.226 159.572V159.573C253.225 160.173 252.955 160.7 252.612 161.078L253.429 161.859ZM251.889 160.386C252.093 160.154 252.225 159.863 252.226 159.572C252.226 158.928 251.71 158.284 250.937 158.284H244.112C242.567 158.284 241.279 156.996 241.279 155.451V151.33C241.279 150.686 240.764 150.042 239.991 150.042C239.347 150.042 238.703 150.557 238.703 151.33V155.451C238.703 158.412 241.15 160.859 244.112 160.859H250.936C251.289 160.859 251.642 160.666 251.889 160.386Z" fill="#525D77"/>
<path d="M255.057 168.972H248.232C245.271 168.972 242.824 166.525 242.824 163.564V159.572C242.824 158.799 243.468 158.284 244.112 158.284C244.884 158.284 245.4 158.928 245.4 159.572V163.693C245.4 165.238 246.688 166.526 248.233 166.526H255.058C255.831 166.526 256.346 167.17 256.346 167.814C256.474 168.457 255.831 168.972 255.057 168.972L255.057 168.972Z" fill="#525D77"/>
<path fill-rule="evenodd" clip-rule="evenodd" d="M255.057 169.972H248.232C244.718 169.972 241.824 167.077 241.824 163.564V159.572C241.824 158.183 242.981 157.284 244.112 157.284C245.5 157.284 246.4 158.441 246.4 159.572V163.693C246.4 164.686 247.24 165.526 248.233 165.526H255.058C256.407 165.526 257.295 166.62 257.344 167.719C257.444 168.414 257.134 169.009 256.694 169.39C256.249 169.776 255.654 169.972 255.057 169.972ZM255.057 168.972C255.117 168.972 255.177 168.969 255.235 168.963C255.926 168.891 256.464 168.407 256.346 167.814C256.346 167.17 255.831 166.526 255.058 166.526H248.233C246.688 166.526 245.4 165.238 245.4 163.693V159.572C245.4 158.928 244.884 158.284 244.112 158.284C243.468 158.284 242.824 158.799 242.824 159.572V163.564C242.824 166.525 245.271 168.972 248.232 168.972L255.057 168.972Z" fill="#525D77"/>
<path d="M255.057 168.972C254.285 168.972 253.769 168.328 253.769 167.684C253.769 166.912 254.413 166.396 255.057 166.396C258.405 166.396 261.754 165.881 265.359 164.722C265.746 164.593 266.261 164.464 266.647 164.335C269.738 163.434 272.828 162.404 276.177 162.404H283.13C283.903 162.404 284.418 163.048 284.418 163.692C284.418 164.465 283.774 164.98 283.13 164.98H276.177C273.215 164.98 270.382 165.882 267.421 166.783C266.906 166.912 266.519 167.041 266.004 167.169C262.269 168.458 258.792 168.972 255.057 168.972H255.057Z" fill="#525D77"/>
<path fill-rule="evenodd" clip-rule="evenodd" d="M266.35 163.381L266.367 163.375C266.685 163.283 267.005 163.188 267.328 163.092C270.084 162.275 273.021 161.404 276.177 161.404H283.13C284.519 161.404 285.418 162.562 285.418 163.692C285.418 165.081 284.261 165.98 283.13 165.98H276.177C273.489 165.98 270.897 166.77 268.019 167.646C267.917 167.677 267.815 167.709 267.712 167.74L267.688 167.747L267.663 167.753C267.424 167.813 267.214 167.873 266.987 167.938L266.982 167.939C266.771 168 266.545 168.064 266.289 168.129C262.457 169.446 258.88 169.972 255.057 169.972H255.057C253.669 169.972 252.769 168.815 252.769 167.684C252.769 166.296 253.927 165.396 255.057 165.396C258.295 165.396 261.539 164.899 265.049 163.771C265.261 163.701 265.501 163.632 265.717 163.57L265.729 163.567C265.96 163.501 266.163 163.443 266.332 163.387L266.35 163.381ZM265.359 164.722C261.754 165.881 258.405 166.396 255.057 166.396C254.413 166.396 253.769 166.912 253.769 167.684C253.769 168.328 254.285 168.972 255.057 168.972H255.057C258.792 168.972 262.269 168.458 266.004 167.169C266.262 167.105 266.487 167.041 266.713 166.976C266.938 166.912 267.163 166.847 267.421 166.783C267.542 166.746 267.663 166.71 267.783 166.673C270.614 165.81 273.336 164.98 276.177 164.98H283.13C283.774 164.98 284.418 164.465 284.418 163.692C284.418 163.048 283.903 162.404 283.13 162.404H276.177C273.175 162.404 270.381 163.231 267.608 164.052C267.288 164.147 266.967 164.242 266.647 164.335C266.454 164.4 266.229 164.464 266.003 164.529C265.778 164.593 265.552 164.657 265.359 164.722Z" fill="#525D77"/>
<path d="M299.742 169.101H283.259C282.487 169.101 281.971 168.457 281.971 167.813L281.972 136.006C281.972 135.233 282.616 134.717 283.26 134.717L299.742 134.718C300.515 134.718 301.031 135.362 301.031 136.006C301.031 136.779 300.386 137.295 299.742 137.295L284.676 137.294V166.397H299.742C300.515 166.397 301.031 167.041 301.031 167.685C301.031 168.329 300.386 169.101 299.742 169.101L299.742 169.101Z" fill="#525D77"/>
<path fill-rule="evenodd" clip-rule="evenodd" d="M299.742 169.101C299.744 169.101 299.746 169.101 299.748 169.101C300.148 169.099 300.548 168.798 300.792 168.417C300.94 168.187 301.031 167.927 301.031 167.685C301.031 167.041 300.515 166.397 299.742 166.397H284.676V137.294L299.742 137.295C300.386 137.295 301.031 136.779 301.031 136.006C301.031 135.362 300.515 134.718 299.742 134.718L283.26 134.717C282.616 134.717 281.972 135.233 281.972 136.006L281.971 167.813C281.971 168.457 282.487 169.101 283.259 169.101L299.742 169.101ZM298.671 170.101H283.259C281.871 170.101 280.971 168.943 280.971 167.813L280.972 136.006C280.972 136.006 280.972 136.006 280.972 136.006C280.972 134.617 282.13 133.717 283.26 133.717L299.742 133.718C299.742 133.718 299.742 133.718 299.742 133.718C301.131 133.718 302.031 134.876 302.031 136.006C302.031 137.395 300.873 138.295 299.742 138.295L285.676 138.294V165.397H299.742C301.131 165.397 302.031 166.554 302.031 167.685C302.031 168.313 301.734 168.893 301.378 169.296C301.026 169.694 300.453 170.101 299.742 170.101L298.671 170.101ZM299.742 169.101C299.742 169.101 299.742 169.101 299.742 169.101Z" fill="#525D77"/>
<path fill-rule="evenodd" clip-rule="evenodd" d="M262.498 25.0925C259.98 24.9651 257.41 24.8918 254.787 24.8739L254.815 20.874C257.494 20.8923 260.123 20.9672 262.7 21.0976L262.498 25.0925ZM247.061 24.978C244.53 25.062 241.954 25.195 239.334 25.3782L239.055 21.388C241.722 21.2014 244.347 21.0658 246.928 20.9802L247.061 24.978ZM277.847 26.628C275.358 26.2459 272.805 25.9242 270.188 25.6648L270.582 21.6843C273.268 21.9506 275.892 22.281 278.454 22.6744L277.847 26.628ZM231.62 26.0506C230.336 26.184 229.042 26.3291 227.739 26.4858C226.414 26.645 225.097 26.8367 223.787 27.0595L223.116 23.1161C224.489 22.8826 225.871 22.6815 227.261 22.5144C228.586 22.3551 229.901 22.2077 231.206 22.072L231.62 26.0506ZM292.844 29.8686C290.445 29.1839 287.968 28.5658 285.414 28.0167L286.255 24.1061C288.892 24.6731 291.455 25.3124 293.942 26.0221L292.844 29.8686ZM216.003 28.7641C213.438 29.4511 210.899 30.2537 208.386 31.1627L207.026 27.4012C209.64 26.4553 212.288 25.618 214.969 24.9002L216.003 28.7641ZM307.196 35.1708C304.943 34.1209 302.593 33.1447 300.149 32.2453L301.53 28.4914C304.075 29.4278 306.527 30.4464 308.885 31.5449L307.196 35.1708ZM200.97 34.1787C198.547 35.2718 196.147 36.4588 193.77 37.7305L191.883 34.2036C194.335 32.8921 196.815 31.665 199.325 30.5325L200.97 34.1787ZM320.308 42.8714C318.307 41.4028 316.191 40.0137 313.96 38.7081L315.981 35.2559C318.327 36.6292 320.56 38.094 322.675 39.6471L320.308 42.8714ZM186.791 41.7387C184.516 43.1337 182.26 44.6004 180.025 46.1304L177.766 42.8294C180.053 41.2644 182.364 39.7609 184.701 38.3283L186.791 41.7387ZM331.384 53.1646C329.776 51.2581 328.034 49.4341 326.159 47.6968L328.878 44.7632C330.871 46.6095 332.726 48.5518 334.441 50.5857L331.384 53.1646ZM173.457 50.8405C171.312 52.447 169.185 54.1053 167.075 55.8072L164.564 52.6938C166.708 50.9644 168.872 49.2766 171.059 47.639L173.457 50.8405ZM31.5668 55.1452C34.3754 54.6076 37.347 54.3638 40.4725 54.4502L40.362 58.4487C37.5155 58.37 34.8334 58.5925 32.3187 59.0738L31.5668 55.1452ZM49.2798 55.5124C50.6807 55.8054 52.1061 56.16 53.5552 56.5786L52.4451 60.4215C51.0892 60.0298 49.761 59.6995 48.461 59.4277L49.2798 55.5124ZM339.538 65.8304C338.458 63.5502 337.235 61.3497 335.872 59.2328L339.234 57.0665C340.692 59.3294 341.999 61.6817 343.153 64.1184L339.538 65.8304ZM15.4046 62.6538C17.6971 60.7827 20.2399 59.1707 23.022 57.8821L24.7031 61.5117C22.2337 62.6555 19.9747 64.087 17.9338 65.7527L15.4046 62.6538ZM160.848 60.9902C158.8 62.7448 156.769 64.5335 154.752 66.3487L152.076 63.3755C154.114 61.541 156.17 59.7307 158.245 57.953L160.848 60.9902ZM148.764 71.8464C146.784 73.6989 144.817 75.5694 142.862 77.4505L140.088 74.5685C142.054 72.6764 144.035 70.7925 146.032 68.925L148.764 71.8464ZM4.59368 76.7684C5.84821 74.0623 7.38166 71.4882 9.18623 69.1131L12.3712 71.5331C10.7483 73.669 9.36149 75.9943 8.22266 78.4508L4.59368 76.7684ZM344.227 80.1665C343.733 77.6554 343.098 75.2143 342.326 72.8465L346.129 71.6069C346.952 74.1308 347.627 76.7278 348.152 79.3933L344.227 80.1665ZM137.022 83.1307C135.076 85.0401 133.142 86.9516 131.219 88.858L128.403 86.0171C130.329 84.1084 132.268 82.1917 134.22 80.2756L137.022 83.1307ZM0.473145 93.9861C0.588481 91.0212 0.995073 88.0643 1.68295 85.1784L5.57394 86.1059C4.94631 88.739 4.57532 91.4374 4.47012 94.1416L0.473145 93.9861ZM345.51 95.2827C345.557 92.6934 345.477 90.16 345.271 87.6856L349.257 87.3542C349.474 89.9672 349.559 92.6354 349.51 95.3551L345.51 95.2827ZM125.428 94.6044C123.48 96.5361 121.542 98.454 119.612 100.348L116.81 97.4945C118.732 95.6068 120.665 93.6941 122.611 91.7642L125.428 94.6044ZM3.40079 111.48C2.28971 108.706 1.49904 105.814 1.01571 102.871L4.96283 102.223C5.40111 104.891 6.11602 107.501 7.114 109.992L3.40079 111.48ZM344.523 106.7C344.717 105.42 344.883 104.152 345.02 102.895L348.996 103.329C348.853 104.643 348.68 105.966 348.478 107.3C348.243 108.847 347.946 110.35 347.593 111.809L343.705 110.867C344.031 109.521 344.305 108.133 344.523 106.7ZM113.74 106.06C111.746 107.977 109.759 109.86 107.78 111.699L105.058 108.768C107.017 106.948 108.987 105.081 110.968 103.177L113.74 106.06ZM101.691 117.219C99.598 119.067 97.5099 120.853 95.4256 122.565L92.8863 119.475C94.9293 117.796 96.9813 116.041 99.0442 114.22L101.691 117.219ZM10.5287 122.855C9.50142 121.739 8.55541 120.569 7.68944 119.355L10.9465 117.033C11.7175 118.114 12.5588 119.154 13.4716 120.146C14.4273 121.184 15.3789 122.175 16.3265 123.12L13.5013 125.952C12.512 124.965 11.5212 123.933 10.5287 122.855ZM336.79 126.18C338.375 123.928 339.784 121.488 340.973 118.851L344.62 120.495C343.323 123.371 341.786 126.03 340.061 128.482L336.79 126.18ZM88.9269 127.66C86.6617 129.344 84.3966 130.928 82.1298 132.394L79.9578 129.035C82.1423 127.622 84.3355 126.089 86.5398 124.45L88.9269 127.66ZM26.5108 136.45C24.2376 135.042 21.9617 133.414 19.6807 131.553L22.209 128.453C24.3662 130.213 26.5016 131.739 28.6164 133.049L26.5108 136.45ZM324.797 138.082C327.08 136.459 329.272 134.645 331.315 132.628L334.124 135.475C331.918 137.653 329.56 139.604 327.116 141.342L324.797 138.082ZM74.9476 136.62C72.4048 137.961 69.8529 139.135 67.2896 140.116L65.8595 136.38C68.2567 135.463 70.6629 134.357 73.0816 133.082L74.9476 136.62ZM42.1918 142.775C39.4798 142.247 36.7636 141.436 34.0416 140.319L35.5591 136.618C38.0453 137.638 40.5094 138.373 42.9559 138.849L42.1918 142.775ZM59.1767 142.54C56.3716 143.135 53.5504 143.473 50.7115 143.521L50.6435 139.522C53.2088 139.478 55.7747 139.173 58.3469 138.627L59.1767 142.54ZM309.648 145.922C312.245 144.989 314.888 143.858 317.5 142.513L319.332 146.069C316.556 147.498 313.752 148.698 310.999 149.687L309.648 145.922ZM297.231 149.018C298.564 148.837 299.966 148.592 301.42 148.28L302.26 152.191C300.71 152.524 299.208 152.786 297.77 152.982L297.231 149.018Z" fill="#DBD9D5"/>
</svg>
