<svg width="354" height="207" viewBox="0 0 354 207" fill="none" xmlns="http://www.w3.org/2000/svg">
<path d="M21.9998 194C41.0666 120.938 107.712 66.9999 187 66.9999C266.287 66.9999 332.933 120.938 352 194" stroke="#F2B43F" stroke-width="4"/>
<path d="M303.822 113C327.216 134.56 324.288 145.612 320.239 148.391C314.904 152.052 329.865 187.262 320.239 195.985C305.875 209.003 293.5 192.717 255.5 203C218.975 212.884 215.271 182.561 194.241 182.561C180.5 182.561 170.292 200.5 159 195.985C138.683 187.862 164.281 168.73 161.819 148.391C160.529 137.736 147.043 132.119 139.246 140.255C131.448 148.391 145.812 152.771 139.246 160.5C136.051 164.26 121.29 167.51 125.292 141.882C129.293 116.254 91.6377 107.305 87.944 145.136C85.2202 173.033 50.049 169.273 35.0005 164.256" stroke="#F2B43F" stroke-width="4"/>
<path d="M116.457 30.8022L107.991 36.1894L107.971 36.165L106.566 37.0572C103.631 38.9244 100.121 39.568 96.6912 38.8659C93.2611 38.1639 90.3161 36.1991 88.3961 33.3373L66.0706 0L61.9106 2.64729L78.8059 27.8721L56.5755 8.45865L54.1704 12.8659L72.9908 29.3006L52.2204 20.1301L51.9154 25.3126L77.3109 36.5258L52.5154 31.6602L53.7104 36.8378L77.8659 41.5766L55.9205 42.7564L58.3955 47.4757L81.6909 46.2276L61.8356 52.5119L65.2706 56.5194L86.746 49.7232L44.0002 76.9372L46.7153 80.9934L95.8762 49.694L61.5706 81.2713L64.9806 84.7961L119.522 34.5951L117.817 32.8352L116.457 30.8022Z" fill="#F2B43F"/>
<path d="M124.712 25.1272C122.937 24.7615 121.197 25.8731 120.822 27.6038C120.447 29.3346 121.587 31.0312 123.362 31.3968C125.137 31.7625 126.877 30.6509 127.252 28.9202C127.627 27.1846 126.487 25.488 124.712 25.1272Z" fill="#F2B43F"/>
<path d="M132.827 21.1101C132.352 21.0565 131.862 21.0321 131.382 21.0321C130.912 21.2027 130.447 21.4026 129.992 21.6366C129.612 21.8317 129.242 22.051 128.887 22.2851L131.377 25.8635C131.377 25.8635 131.382 25.8587 131.387 25.8587V25.8733C131.687 25.8733 131.987 25.8879 132.282 25.922C136.342 26.3608 139.402 29.7004 139.402 33.6884C139.402 37.9982 135.807 41.5035 131.387 41.5035V46.3496C138.547 46.3496 144.372 40.6698 144.372 33.6884C144.367 27.2286 139.402 21.8219 132.827 21.1101Z" fill="#F2B43F"/>
<path d="M179.739 152.489C179.739 153.376 180.447 154.277 181.527 154.277C182.019 154.277 182.502 154.114 182.85 153.788C183.201 153.461 183.391 152.989 183.315 152.451V93.7674C183.315 92.8802 182.608 91.9793 181.527 91.9793C180.64 91.9793 179.739 92.6869 179.739 93.7674V152.489Z" fill="#525D77" stroke="#525D77"/>
<path d="M259.322 107.16V107.16C259.322 107.902 259.816 108.653 260.61 108.88V108.948H261.11C262.06 108.948 262.897 108.05 262.899 107.032V107.032V93.768C262.899 92.8807 262.191 91.9799 261.111 91.9799C260.223 91.9799 259.322 92.6875 259.322 93.7679C259.322 93.768 259.322 93.768 259.322 93.768L259.322 107.16Z" fill="#525D77" stroke="#525D77"/>
<path d="M200.085 152.489C200.085 153.077 200.396 153.671 200.921 154.005L200.642 154.277H201.873C202.365 154.277 202.848 154.114 203.196 153.788C203.547 153.461 203.736 152.989 203.66 152.451V138.453C203.66 137.827 204.209 137.278 204.835 137.278C204.835 137.278 204.835 137.278 204.835 137.278L228.143 137.279C228.628 137.279 229.07 137.042 229.382 136.73C229.694 136.418 229.931 135.976 229.931 135.491C229.931 134.604 229.223 133.703 228.143 133.703H204.835C202.24 133.703 200.085 135.859 200.085 138.452V152.489Z" fill="#525D77" stroke="#525D77"/>
<path d="M220.174 154.208V154.277H220.674C221.166 154.277 221.649 154.114 221.998 153.789C222.349 153.461 222.538 152.989 222.463 152.452V135.491C222.463 134.604 221.756 133.703 220.675 133.703C219.788 133.703 218.887 134.41 218.887 135.491C218.887 135.491 218.887 135.491 218.887 135.491L218.886 152.489C218.886 153.23 219.381 153.982 220.174 154.208Z" fill="#525D77" stroke="#525D77"/>
<path d="M191.571 135.218H191.604L191.606 135.218C192.272 135.206 192.959 134.865 193.307 134.169L193.319 134.145L193.329 134.118L195.132 129.225L195.136 129.213L195.14 129.201C195.711 127.372 197.433 126.204 199.427 126.204L241.922 126.205C242.81 126.205 243.711 125.497 243.711 124.417C243.711 123.53 243.003 122.629 241.923 122.629H199.298C195.871 122.629 192.851 124.689 191.619 127.975C191.619 127.975 191.619 127.975 191.619 127.975L189.818 132.734C189.451 133.659 189.997 134.691 190.851 135.046C191.003 135.12 191.136 135.167 191.264 135.192C191.394 135.218 191.499 135.218 191.565 135.218L191.571 135.218Z" fill="#525D77" stroke="#525D77"/>
<mask id="path-11-outside-1_1_501" maskUnits="userSpaceOnUse" x="171" y="41" width="101" height="55" fill="black">
<rect fill="white" x="171" y="41" width="101" height="55"/>
<path fill-rule="evenodd" clip-rule="evenodd" d="M203 59.2565H197.753C194.791 59.2565 192.473 56.8095 192.473 53.9765L192.474 47.28C192.474 44.3184 194.921 42 197.754 42H244.756C247.718 42 250.036 44.4469 250.036 47.28V53.9765C250.165 56.8095 247.717 59.2565 244.755 59.2565H240.12V65.3093H255.446C255.833 65.3093 256.219 65.5671 256.477 65.824L270.124 85.0117L270.128 85.0196C270.255 85.2748 270.382 85.529 270.382 85.7842C270.381 90.8064 266.132 94.9267 261.11 94.9267C257.762 94.9267 254.8 93.1239 253.126 90.4192C251.452 93.1239 248.49 94.9267 245.142 94.9267C241.794 94.9267 238.832 93.1239 237.158 90.4192C235.484 93.1239 232.522 94.9267 229.175 94.9267C225.827 94.9267 222.864 93.1239 221.191 90.4192C219.516 93.1239 216.555 94.9267 213.207 94.9267C209.859 94.9267 206.897 93.1239 205.223 90.4192C203.549 93.1239 200.587 94.9267 197.239 94.9267C193.891 94.9267 190.929 93.1239 189.256 90.4192C187.581 93.1239 184.62 94.9267 181.272 94.9267C176.121 94.9267 172 90.8055 172 85.6549C172 85.3971 172.128 85.1402 172.258 84.8824L185.522 65.824C185.779 65.4378 186.166 65.3093 186.552 65.3093H203V59.2565Z"/>
</mask>
<path fill-rule="evenodd" clip-rule="evenodd" d="M203 59.2565H197.753C194.791 59.2565 192.473 56.8095 192.473 53.9765L192.474 47.28C192.474 44.3184 194.921 42 197.754 42H244.756C247.718 42 250.036 44.4469 250.036 47.28V53.9765C250.165 56.8095 247.717 59.2565 244.755 59.2565H240.12V65.3093H255.446C255.833 65.3093 256.219 65.5671 256.477 65.824L270.124 85.0117L270.128 85.0196C270.255 85.2748 270.382 85.529 270.382 85.7842C270.381 90.8064 266.132 94.9267 261.11 94.9267C257.762 94.9267 254.8 93.1239 253.126 90.4192C251.452 93.1239 248.49 94.9267 245.142 94.9267C241.794 94.9267 238.832 93.1239 237.158 90.4192C235.484 93.1239 232.522 94.9267 229.175 94.9267C225.827 94.9267 222.864 93.1239 221.191 90.4192C219.516 93.1239 216.555 94.9267 213.207 94.9267C209.859 94.9267 206.897 93.1239 205.223 90.4192C203.549 93.1239 200.587 94.9267 197.239 94.9267C193.891 94.9267 190.929 93.1239 189.256 90.4192C187.581 93.1239 184.62 94.9267 181.272 94.9267C176.121 94.9267 172 90.8055 172 85.6549C172 85.3971 172.128 85.1402 172.258 84.8824L185.522 65.824C185.779 65.4378 186.166 65.3093 186.552 65.3093H203V59.2565Z" fill="#F4E0A1"/>
<path d="M203 59.2565H204V58.2565H203V59.2565ZM192.473 53.9765L191.473 53.9764V53.9765H192.473ZM192.474 47.28L193.474 47.2801V47.28H192.474ZM250.036 53.9765H249.036V53.9992L249.037 54.0218L250.036 53.9765ZM240.12 59.2565V58.2565H239.12V59.2565H240.12ZM240.12 65.3093H239.12V66.3093H240.12V65.3093ZM256.477 65.824L257.292 65.2444L257.242 65.1754L257.182 65.1157L256.477 65.824ZM270.124 85.0117L271.019 84.566L270.984 84.4959L270.939 84.4321L270.124 85.0117ZM270.128 85.0196L269.233 85.4653L269.233 85.4656L270.128 85.0196ZM270.382 85.7842L271.382 85.7844V85.7842H270.382ZM253.126 90.4192L253.976 89.893L253.126 88.519L252.276 89.8928L253.126 90.4192ZM237.158 90.4192L238.009 89.893L237.159 88.519L236.308 89.8928L237.158 90.4192ZM221.191 90.4192L222.041 89.893L221.191 88.519L220.34 89.8928L221.191 90.4192ZM205.223 90.4192L206.074 89.893L205.223 88.519L204.373 89.8928L205.223 90.4192ZM189.256 90.4192L190.106 89.893L189.256 88.519L188.405 89.8928L189.256 90.4192ZM172.258 84.8824L171.437 84.3112L171.396 84.37L171.364 84.434L172.258 84.8824ZM185.522 65.824L186.342 66.3953L186.348 66.3873L186.353 66.3792L185.522 65.824ZM203 65.3093V66.3093H204V65.3093H203ZM203 58.2565H197.753V60.2565H203V58.2565ZM197.753 58.2565C195.359 58.2565 193.473 56.2731 193.473 53.9765H191.473C191.473 57.3459 194.223 60.2565 197.753 60.2565V58.2565ZM193.473 53.9766L193.474 47.2801L191.474 47.2799L191.473 53.9764L193.473 53.9766ZM193.474 47.28C193.474 44.8864 195.457 43 197.754 43V41C194.384 41 191.474 43.7504 191.474 47.28H193.474ZM197.754 43H244.756V41H197.754V43ZM244.756 43C247.15 43 249.036 44.9834 249.036 47.28H251.036C251.036 43.9105 248.286 41 244.756 41V43ZM249.036 47.28V53.9765H251.036V47.28H249.036ZM249.037 54.0218C249.138 56.2419 247.191 58.2565 244.755 58.2565V60.2565C248.243 60.2565 251.191 57.3771 251.035 53.9312L249.037 54.0218ZM244.755 58.2565H240.12V60.2565H244.755V58.2565ZM239.12 59.2565V65.3093H241.12V59.2565H239.12ZM240.12 66.3093H255.446V64.3093H240.12V66.3093ZM255.446 66.3093C255.421 66.3093 255.448 66.3034 255.531 66.3483C255.609 66.3911 255.696 66.4575 255.771 66.5324L257.182 65.1157C256.861 64.7954 256.232 64.3093 255.446 64.3093V66.3093ZM255.662 66.4036L269.309 85.5913L270.939 84.4321L257.292 65.2444L255.662 66.4036ZM269.229 85.4573L269.233 85.4653L271.023 84.574L271.019 84.566L269.229 85.4573ZM269.233 85.4656C269.301 85.6027 269.34 85.6823 269.366 85.7518C269.39 85.8168 269.382 85.8195 269.382 85.7842H271.382C271.382 85.2481 271.121 84.7714 271.023 84.5736L269.233 85.4656ZM269.382 85.784C269.381 90.2361 265.598 93.9267 261.11 93.9267V95.9267C266.666 95.9267 271.381 91.3767 271.382 85.7844L269.382 85.784ZM261.11 93.9267C258.13 93.9267 255.48 92.3224 253.976 89.893L252.276 90.9453C254.12 93.9254 257.393 95.9267 261.11 95.9267V93.9267ZM252.276 89.8928C250.772 92.3224 248.122 93.9267 245.142 93.9267V95.9267C248.859 95.9267 252.132 93.9253 253.976 90.9455L252.276 89.8928ZM245.142 93.9267C242.163 93.9267 239.512 92.3224 238.009 89.893L236.308 90.9453C238.152 93.9254 241.426 95.9267 245.142 95.9267V93.9267ZM236.308 89.8928C234.804 92.3224 232.154 93.9267 229.175 93.9267V95.9267C232.891 95.9267 236.164 93.9253 238.009 90.9455L236.308 89.8928ZM229.175 93.9267C226.195 93.9267 223.544 92.3224 222.041 89.893L220.34 90.9453C222.184 93.9254 225.458 95.9267 229.175 95.9267V93.9267ZM220.34 89.8928C218.836 92.3224 216.186 93.9267 213.207 93.9267V95.9267C216.923 95.9267 220.196 93.9253 222.041 90.9455L220.34 89.8928ZM213.207 93.9267C210.227 93.9267 207.577 92.3224 206.074 89.893L204.373 90.9453C206.217 93.9254 209.491 95.9267 213.207 95.9267V93.9267ZM204.373 89.8928C202.869 92.3224 200.219 93.9267 197.239 93.9267V95.9267C200.956 95.9267 204.229 93.9253 206.073 90.9455L204.373 89.8928ZM197.239 93.9267C194.26 93.9267 191.609 92.3224 190.106 89.893L188.405 90.9453C190.249 93.9254 193.523 95.9267 197.239 95.9267V93.9267ZM188.405 89.8928C186.901 92.3224 184.251 93.9267 181.272 93.9267V95.9267C184.988 95.9267 188.261 93.9253 190.106 90.9455L188.405 89.8928ZM181.272 93.9267C176.674 93.9267 173 90.2532 173 85.6549H171C171 91.3578 175.569 95.9267 181.272 95.9267V93.9267ZM173 85.6549C173 85.6896 172.992 85.686 173.017 85.62C173.043 85.5497 173.082 85.4688 173.152 85.3309L171.364 84.434C171.263 84.6352 171 85.1148 171 85.6549H173ZM173.079 85.4537L186.342 66.3953L184.701 65.2528L171.437 84.3112L173.079 85.4537ZM186.353 66.3792C186.367 66.3582 186.378 66.3485 186.383 66.3444C186.388 66.3401 186.393 66.3363 186.402 66.3324C186.421 66.3238 186.467 66.3093 186.552 66.3093V64.3093C185.936 64.3093 185.184 64.528 184.69 65.2689L186.353 66.3792ZM186.552 66.3093H203V64.3093H186.552V66.3093ZM204 65.3093V59.2565H202V65.3093H204Z" fill="#525D77" mask="url(#path-11-outside-1_1_501)"/>
<path d="M253.126 91.3149C254.937 93.8032 257.846 95.4265 261.109 95.4267L253.126 91.3149ZM253.126 91.3149C251.314 93.8033 248.405 95.4267 245.142 95.4267C241.879 95.4267 238.969 93.8034 237.158 91.3149C235.347 93.8033 232.438 95.4267 229.175 95.4267C225.911 95.4267 223.002 93.8034 221.191 91.3149C219.379 93.8033 216.47 95.4267 213.207 95.4267C209.944 95.4267 207.034 93.8034 205.223 91.3149C203.412 93.8033 200.503 95.4267 197.239 95.4267C193.976 95.4267 191.067 93.8034 189.255 91.3149C187.444 93.8033 184.535 95.4267 181.272 95.4267C175.845 95.4267 171.5 91.0816 171.5 85.6549C171.5 85.2752 171.677 84.9232 171.794 84.6922C171.8 84.6806 171.805 84.6692 171.811 84.6582L171.827 84.6262L171.847 84.5968L185.109 65.5421C185.485 64.982 186.052 64.8093 186.552 64.8093H255.446C256.032 64.8093 256.54 65.1813 256.83 65.4699L256.86 65.4997L256.884 65.5342L270.531 84.7219L270.554 84.7537L270.571 84.7887C270.578 84.8014 270.584 84.8146 270.591 84.8283C270.706 85.0573 270.882 85.4076 270.882 85.7843C270.881 91.0914 266.399 95.4264 261.11 95.4267L253.126 91.3149ZM254.914 85.6558C254.914 84.7686 254.207 83.8679 253.126 83.8677L253.126 83.8676C252.602 83.8676 252.138 84.0865 251.845 84.4291C251.578 84.7419 251.438 85.1895 251.601 85.6275C251.545 89.0323 248.708 91.7228 245.405 91.7228C241.952 91.7228 239.208 88.8622 239.208 85.5263C239.208 85.0417 238.971 84.5989 238.659 84.2872C238.348 83.9755 237.905 83.7382 237.42 83.7382C236.533 83.7382 235.632 84.4458 235.632 85.5263C235.632 88.9789 232.771 91.7228 229.436 91.7228C225.983 91.7228 223.239 88.8622 223.239 85.5263C223.239 84.6391 222.531 83.7382 221.451 83.7382C220.564 83.7382 219.663 84.4458 219.663 85.5263C219.663 88.9789 216.802 91.7228 213.466 91.7228C210.014 91.7228 207.27 88.8622 207.27 85.5263C207.27 84.6391 206.562 83.7382 205.482 83.7382C204.594 83.7382 203.694 84.4458 203.694 85.5263C203.694 88.9851 200.955 91.7228 197.497 91.7228C194.045 91.7228 191.301 88.8622 191.301 85.5263C191.301 84.6391 190.593 83.7382 189.512 83.7382C188.625 83.7382 187.724 84.4458 187.724 85.5263C187.724 88.9789 184.864 91.7228 181.528 91.7228C178.379 91.7228 175.794 89.3186 175.475 86.1795L187.841 68.513L254.797 68.5139L267.17 86.3165C266.966 89.4305 264.279 91.8523 261.111 91.8523C257.658 91.8523 254.914 88.9916 254.914 85.6558Z" fill="#525D77" stroke="#525D77"/>
<path d="M191.973 53.9764V53.9765C191.973 57.0777 194.507 59.7565 197.753 59.7565H244.755H244.756C247.977 59.7565 250.671 57.0998 250.536 53.9655V47.28C250.536 44.1787 248.002 41.5 244.756 41.5H197.754C194.652 41.5 191.974 44.0344 191.974 47.2799C191.974 47.2799 191.974 47.28 191.974 47.28L191.973 53.9764ZM195.548 47.2809C195.548 46.0112 196.484 45.0762 197.753 45.0762H197.753L244.755 45.0753C246.025 45.0753 246.96 46.011 246.96 47.28V53.9774C246.96 55.2471 246.024 56.1821 244.755 56.1821H197.753C196.483 56.1821 195.548 55.2464 195.548 53.9774V47.2809Z" fill="#525D77" stroke="#525D77"/>
<path d="M237.043 66.7247C237.043 67.612 237.751 68.5129 238.832 68.5129C239.316 68.5129 239.759 68.2756 240.071 67.9639C240.382 67.6522 240.62 67.2094 240.62 66.7247V57.9685C240.62 57.0813 239.912 56.1804 238.832 56.1804C237.944 56.1804 237.043 56.888 237.043 57.9685V66.7247Z" fill="#525D77" stroke="#525D77"/>
<path d="M202.017 66.7247C202.017 67.612 202.725 68.5129 203.805 68.5129C204.886 68.5129 205.593 67.612 205.593 66.7247V57.9685C205.593 57.0813 204.886 56.1804 203.805 56.1804C202.918 56.1804 202.017 56.888 202.017 57.9685V66.7247Z" fill="#525D77" stroke="#525D77"/>
<path d="M264.364 128.159C266.744 136.49 274.54 142.301 283.259 142.301L283.259 142.301C284.336 142.301 285.175 141.404 285.178 140.256V140.255C285.178 139.368 284.47 138.467 283.39 138.467C276.269 138.467 269.898 133.717 267.901 126.977L267.901 126.976C267.148 124.468 266.891 121.562 266.891 118.234C266.891 115.564 265.196 113.304 262.53 112.601C259.965 111.891 257.291 113.178 256.034 115.554L256.034 115.554L256.03 115.56C253.14 121.21 252.361 128.022 253.924 135.199C254.012 135.707 254.276 136.12 254.674 136.377C255.07 136.633 255.555 136.709 256.042 136.628C256.555 136.542 256.973 136.276 257.233 135.875C257.489 135.48 257.564 134.995 257.483 134.508L257.481 134.495L257.479 134.482C256.083 128.139 256.724 122.208 259.238 117.304L259.238 117.304L259.24 117.3C259.748 116.284 260.753 116.056 261.625 116.271C262.375 116.488 263.186 117.108 263.186 118.363C263.186 121.874 263.576 125.268 264.362 128.153L264.362 128.153L264.364 128.159Z" fill="#525D77" stroke="#525D77"/>
<path d="M244.24 145.005H244.74V144.936C245.534 144.71 246.029 143.959 246.029 143.218C246.029 142.33 245.321 141.429 244.24 141.429H237.415C236.147 141.429 235.082 140.365 235.082 139.096C235.082 137.828 236.146 136.763 237.415 136.763C237.415 136.763 237.415 136.763 237.415 136.763L258.406 136.764C258.89 136.764 259.333 136.527 259.645 136.215C259.957 135.904 260.194 135.461 260.194 134.976C260.194 134.089 259.486 133.188 258.406 133.188H237.415C234.178 133.188 231.507 135.859 231.507 139.097C231.507 142.334 234.178 145.005 237.415 145.005H244.24Z" fill="#525D77" stroke="#525D77"/>
<path d="M247.459 153.118H248.667L248.419 152.87C248.538 152.8 248.648 152.716 248.746 152.617C249.078 152.286 249.248 151.831 249.248 151.331V151.33C249.248 150.443 248.541 149.542 247.46 149.542H240.635C239.366 149.542 238.302 148.478 238.302 147.209V143.088C238.302 142.201 237.594 141.3 236.514 141.3C235.627 141.3 234.726 142.008 234.726 143.088V147.209C234.726 150.447 237.397 153.118 240.634 153.118H247.459Z" fill="#525D77" stroke="#525D77"/>
<path d="M250.937 161.359H252.181L251.87 161.061C251.982 160.987 252.084 160.902 252.176 160.811C252.487 160.499 252.725 160.057 252.726 159.573V159.572C252.726 158.685 252.018 157.784 250.937 157.784H244.112C242.844 157.784 241.779 156.72 241.779 155.451V151.33C241.779 150.442 241.072 149.542 239.991 149.542C239.104 149.542 238.203 150.249 238.203 151.33V155.451C238.203 158.689 240.874 161.359 244.112 161.359H250.937Z" fill="#525D77" stroke="#525D77"/>
<path d="M255.057 169.472L255.057 169.472C255.549 169.472 256.023 169.31 256.367 169.012C256.707 168.718 256.928 168.275 256.845 167.766C256.821 166.895 256.119 166.026 255.058 166.026H248.233C246.964 166.026 245.9 164.962 245.9 163.693V159.572C245.9 158.685 245.192 157.784 244.112 157.784C243.225 157.784 242.324 158.491 242.324 159.572V163.564C242.324 166.801 244.995 169.472 248.232 169.472H255.057Z" fill="#525D77" stroke="#525D77"/>
<path d="M266.507 163.855L266.498 163.858L266.49 163.861C266.309 163.921 266.094 163.983 265.866 164.048L265.86 164.05C265.64 164.113 265.407 164.179 265.204 164.246C261.646 165.39 258.35 165.896 255.057 165.896C254.17 165.896 253.269 166.604 253.269 167.684C253.269 168.571 253.977 169.472 255.057 169.472H255.057C258.836 169.472 262.363 168.952 266.147 167.649C266.403 167.585 266.629 167.52 266.847 167.458L266.85 167.457C267.076 167.392 267.294 167.33 267.542 167.268L267.554 167.265L267.566 167.262C267.679 167.227 267.791 167.193 267.903 167.159C270.756 166.29 273.413 165.48 276.177 165.48H283.13C284.018 165.48 284.918 164.773 284.918 163.692C284.918 162.805 284.211 161.904 283.13 161.904H276.177C273.098 161.904 270.233 162.753 267.468 163.572C267.146 163.668 266.826 163.762 266.507 163.855Z" fill="#525D77" stroke="#525D77"/>
<path d="M299.742 165.897H285.176V137.794L299.742 137.795H299.742C300.629 137.795 301.53 137.087 301.53 136.006C301.53 135.119 300.823 134.218 299.742 134.218L283.26 134.217H283.26C282.373 134.217 281.472 134.925 281.472 136.006C281.472 136.006 281.472 136.006 281.472 136.006L281.471 167.813C281.471 168.7 282.179 169.601 283.259 169.601H299.206L299.206 169.601H299.742C300.259 169.601 300.706 169.301 301.003 168.965C301.302 168.627 301.53 168.16 301.53 167.685C301.53 166.798 300.823 165.897 299.742 165.897Z" fill="#525D77" stroke="#525D77"/>
<path d="M297.5 151C314.667 148.667 342.048 136.332 346.5 107C355 51 310.121 14.5674 227.5 24.5C136 35.5001 81.5002 197 11.9999 121.5C-10.4471 97.1152 7.99993 45.5 52.9999 58.5" stroke="#DBD9D5" stroke-width="4" stroke-dasharray="8 8"/>
</svg>
