<svg width="348" height="200" viewBox="0 0 348 200" fill="none" xmlns="http://www.w3.org/2000/svg">
<path d="M15.9997 188C35.0666 114.938 101.712 61 181 61C260.287 61 326.933 114.938 346 188" stroke="#F2B43F" stroke-width="4"/>
<path d="M65.1783 106C41.7845 127.56 44.7122 138.612 48.7615 141.391C54.0968 145.052 39.135 180.262 48.7612 188.985C63.1254 202.003 75.5004 185.717 113.5 196C150.026 205.884 153.729 175.561 174.759 175.561C188.5 175.561 198.708 193.5 210 188.985C230.318 180.862 204.719 161.73 207.182 141.391C208.472 130.736 221.957 125.119 229.755 133.255C237.552 141.391 223.188 145.771 229.755 153.5C232.949 157.26 247.71 160.51 243.709 134.882C239.707 109.254 277.363 100.305 281.056 138.136C283.78 166.033 318.951 162.273 334 157.256" stroke="#F2B43F" stroke-width="4"/>
<ellipse cx="148.5" cy="150" rx="20.5" ry="3" fill="#D9D9D9"/>
<ellipse cx="208" cy="108" rx="15" ry="2" fill="#D9D9D9"/>
<path d="M208.545 79C215.923 59.701 221.58 19.7798 185.181 14.4863C139.684 7.86955 140.504 71.1426 106.893 60.3903C80.0041 51.7885 54.0172 38.8857 44.9997 22.7573" stroke="#DBD9D5" stroke-width="4" stroke-dasharray="10 10"/>
<path d="M230 71.4378C230 84.3847 207.5 108 207.5 108C207.5 108 185 84.3699 185 71.4378C185 58.5056 195.071 48 207.5 48C219.929 48 230 58.4908 230 71.4378Z" fill="#525D77"/>
<path d="M17.7826 21.771L23.1751 25.2027L23.1878 25.1872L24.0828 25.7555C25.9525 26.945 28.1885 27.3549 30.3735 26.9077C32.5585 26.4605 34.4346 25.2089 35.6577 23.3859L49.8794 2.14941L52.5294 3.83579L41.7668 19.9045L55.928 7.53773L57.4601 10.3452L45.4711 20.8144L58.7023 14.9727L58.8966 18.274L42.7192 25.417L58.5143 22.3176L57.7531 25.6158L42.3656 28.6345L56.3453 29.386L54.7686 32.3923L39.929 31.5973L52.5772 35.6005L50.389 38.1533L36.7088 33.824L63.9387 51.1598L62.2091 53.7437L30.8927 33.8054L52.746 53.9208L50.5738 56.1661L15.8301 24.1872L16.9162 23.066L17.7826 21.771Z" fill="#525D77"/>
<path d="M12.5238 18.1559C13.6545 17.923 14.7629 18.6311 15.0018 19.7336C15.2407 20.8361 14.5145 21.9169 13.3837 22.1498C12.253 22.3827 11.1446 21.6746 10.9057 20.5721C10.6668 19.4665 11.393 18.3857 12.5238 18.1559Z" fill="#525D77"/>
<path d="M7.35451 15.597C7.6571 15.5628 7.96925 15.5473 8.27502 15.5473C8.57443 15.656 8.87065 15.7833 9.16049 15.9324C9.40257 16.0566 9.63826 16.1964 9.86441 16.3455L8.27821 18.625C8.27821 18.625 8.27502 18.6219 8.27183 18.6219V18.6312C8.08073 18.6312 7.88962 18.6405 7.70169 18.6623C5.11535 18.9418 3.16604 21.0692 3.16604 23.6096C3.16604 26.355 5.45616 28.588 8.27183 28.588V31.675C3.7107 31.675 -6.67572e-06 28.0569 -6.67572e-06 23.6096C0.0031786 19.4946 3.16604 16.0504 7.35451 15.597Z" fill="#525D77"/>
<path d="M131.622 106C112.71 106 96.5271 101.974 84.7523 74.5078C72.8294 46.6965 100.787 -8.51738 146.423 3.75228C183.592 13.7454 212.205 51.6042 254.552 46.6963C288.43 42.77 287.854 37.2896 308 34.0176" stroke="#DBD9D5" stroke-width="4" stroke-dasharray="10 10"/>
<path d="M311.665 28.0667L305.309 32.1121L305.294 32.0938L304.239 32.7638C302.035 34.1659 299.399 34.6492 296.823 34.122C294.247 33.5948 292.036 32.1194 290.594 29.9704L273.829 4.93652L270.705 6.92444L283.393 25.8664L266.699 11.2884L264.893 14.5979L279.026 26.9391L263.429 20.0528L263.2 23.9444L282.27 32.3647L263.65 28.711L264.548 32.599L282.687 36.1575L266.207 37.0435L268.066 40.5873L285.559 39.6501L270.649 44.3691L273.229 47.3784L289.355 42.275L257.256 62.7107L259.295 65.7566L296.211 42.2531L270.45 65.9653L273.011 68.6122L313.967 30.9149L312.687 29.5933L311.665 28.0667Z" fill="#F2B43F"/>
<path d="M317.865 23.8053C316.532 23.5307 315.225 24.3654 314.943 25.665C314.662 26.9647 315.518 28.2387 316.851 28.5133C318.184 28.7879 319.49 27.9532 319.772 26.6535C320.054 25.3502 319.198 24.0762 317.865 23.8053Z" fill="#F2B43F"/>
<path d="M323.959 20.7887C323.602 20.7485 323.234 20.7302 322.873 20.7302C322.52 20.8583 322.171 21.0084 321.83 21.1841C321.544 21.3306 321.266 21.4953 321 21.671L322.87 24.3582C322.87 24.3582 322.873 24.3546 322.877 24.3546V24.3655C323.102 24.3655 323.328 24.3765 323.549 24.4021C326.598 24.7316 328.896 27.2394 328.896 30.2341C328.896 33.4704 326.196 36.1027 322.877 36.1027V39.7417C328.254 39.7417 332.628 35.4767 332.628 30.2341C332.624 25.3833 328.896 21.3232 323.959 20.7887Z" fill="#F2B43F"/>
<path d="M179 100.032C179 117.726 148 150 148 150C148 150 117 117.706 117 100.032C117 82.3576 130.875 68 148 68C165.124 68 179 82.3374 179 100.032Z" fill="#525D77"/>
</svg>
