<svg width="348" height="200" viewBox="0 0 348 200" fill="none" xmlns="http://www.w3.org/2000/svg">
<path fill-rule="evenodd" clip-rule="evenodd" d="M181 63C102.64 63 36.7765 116.306 17.9348 188.505L14.0645 187.495C33.3566 113.57 100.784 59 181 59C261.215 59 328.643 113.57 347.935 187.495L344.064 188.505C325.223 116.306 259.359 63 181 63Z" fill="#F2B43F"/>
<path fill-rule="evenodd" clip-rule="evenodd" d="M44.7579 130.181C46.5919 123.866 52.0136 115.413 63.8227 104.529L66.5335 107.471C54.9487 118.147 50.1374 126 48.5992 131.296C47.0779 136.534 48.7811 138.979 49.8929 139.742C51.3507 140.742 51.7611 142.521 51.8902 143.949C52.0304 145.499 51.8985 147.382 51.6425 149.397C51.2884 152.185 50.6535 155.517 49.9917 158.991C49.6991 160.526 49.4013 162.09 49.1202 163.645C48.1865 168.812 47.4174 173.986 47.4502 178.368C47.4839 182.862 48.3638 185.926 50.104 187.503C53.3917 190.483 56.4754 191.728 59.837 192.142C63.321 192.571 67.141 192.12 72.0285 191.532C81.7565 190.363 94.6527 188.828 114.022 194.069C122.886 196.468 129.615 196.391 135.038 195.036C140.471 193.678 144.761 190.996 148.709 187.911C150.327 186.646 151.863 185.335 153.409 184.015C153.762 183.714 154.115 183.412 154.47 183.11C156.361 181.503 158.287 179.906 160.312 178.501C164.393 175.67 168.962 173.561 174.759 173.561C178.637 173.561 182.179 174.828 185.405 176.523C188.192 177.988 190.86 179.841 193.343 181.564C193.711 181.82 194.074 182.072 194.434 182.32C197.291 184.292 199.869 185.973 202.371 186.922C204.808 187.847 207.026 188.02 209.258 187.128C213.921 185.264 215.453 183.009 215.808 180.681C216.209 178.049 215.23 174.741 213.446 170.553C212.863 169.183 212.19 167.713 211.486 166.176C210.152 163.261 208.708 160.108 207.56 156.949C205.775 152.031 204.527 146.68 205.196 141.15C205.94 135.005 210.194 130.361 215.315 128.408C220.469 126.442 226.67 127.147 231.198 131.871C233.455 134.226 234.322 136.569 234.113 138.939C233.92 141.126 232.813 143.048 231.944 144.538L231.857 144.686C230.937 146.262 230.264 147.416 230.047 148.585C229.865 149.565 229.99 150.688 231.279 152.205C231.742 152.75 232.854 153.48 234.32 153.838C235.746 154.187 237.234 154.118 238.486 153.448C240.835 152.191 243.716 147.896 241.732 135.191C239.554 121.241 248.79 111.519 259.345 110.718C264.621 110.317 270.129 112.162 274.53 116.666C278.916 121.155 282.092 128.161 283.047 137.942C283.683 144.459 286.183 148.976 289.693 152.106C293.243 155.272 297.976 157.149 303.25 158.068C313.84 159.914 326.048 157.799 333.367 155.358L334.632 159.153C326.903 161.73 314.001 164.003 302.563 162.009C296.823 161.008 291.311 158.908 287.03 155.091C282.709 151.237 279.791 145.763 279.066 138.331C278.174 129.196 275.258 123.134 271.669 119.462C268.096 115.805 263.747 114.395 259.648 114.706C251.453 115.329 243.861 122.896 245.685 134.574C247.702 147.496 245.204 154.39 240.374 156.975C238.037 158.225 235.486 158.241 233.37 157.724C231.295 157.216 229.364 156.129 228.23 154.795C226.236 152.447 225.693 150.125 226.114 147.855C226.464 145.97 227.481 144.238 228.29 142.861C228.358 142.746 228.424 142.633 228.488 142.522C229.415 140.934 230.026 139.753 230.128 138.588C230.215 137.607 229.953 136.352 228.311 134.639C225.041 131.228 220.601 130.673 216.74 132.145C212.847 133.63 209.713 137.122 209.167 141.631C208.605 146.271 209.634 150.939 211.32 155.583C212.421 158.613 213.727 161.462 215.014 164.266C215.738 165.846 216.456 167.41 217.126 168.986C218.895 173.138 220.352 177.408 219.762 181.283C219.125 185.462 216.238 188.645 210.742 190.842C207.328 192.208 204.036 191.832 200.953 190.662C197.936 189.518 194.986 187.561 192.162 185.612C191.788 185.354 191.416 185.096 191.045 184.839C188.543 183.103 186.096 181.405 183.544 180.064C180.638 178.537 177.752 177.561 174.759 177.561C170.041 177.561 166.26 179.243 162.592 181.788C160.741 183.072 158.942 184.559 157.061 186.158C156.721 186.447 156.377 186.74 156.031 187.036C154.481 188.36 152.865 189.739 151.172 191.063C147 194.323 142.2 197.369 136.009 198.916C129.808 200.466 122.376 200.474 112.978 197.931C94.3475 192.889 82.0563 194.356 72.5059 195.504L72.2946 195.529C67.6253 196.091 63.3518 196.605 59.3484 196.112C55.1622 195.597 51.3125 193.997 47.418 190.467C44.3451 187.683 43.4854 183.074 43.4503 178.398C43.4144 173.611 44.2474 168.117 45.1839 162.934C45.4842 161.272 45.7934 159.65 46.0916 158.085C46.7401 154.683 47.3364 151.554 47.6744 148.893C47.9203 146.957 48.0068 145.419 47.9064 144.309C47.8142 143.29 47.6004 143.03 47.5994 143.019C44.6799 140.993 42.9133 136.531 44.7579 130.181Z" fill="#F2B43F"/>
<path d="M169 150C169 151.657 159.821 153 148.5 153C137.178 153 128 151.657 128 150C128 148.343 137.178 147 148.5 147C159.821 147 169 148.343 169 150Z" fill="#D9D9D9"/>
<path d="M223 108C223 109.105 216.284 110 208 110C199.715 110 193 109.105 193 108C193 106.895 199.715 106 208 106C216.284 106 223 106.895 223 108Z" fill="#D9D9D9"/>
<path fill-rule="evenodd" clip-rule="evenodd" d="M184.894 16.4655C183.269 16.2292 181.712 16.0866 180.218 16.0293L180.372 12.0322C182.013 12.0953 183.711 12.2515 185.469 12.5072C187.281 12.7706 189 13.1177 190.63 13.5435L189.618 17.4136C188.14 17.0273 186.567 16.7089 184.894 16.4655ZM171.039 16.8406C167.92 17.5572 165.101 18.7052 162.512 20.1801L160.532 16.7045C163.437 15.0496 166.62 13.7518 170.143 12.9422L171.039 16.8406ZM205.236 27.1755C203.396 24.8179 201.113 22.7333 198.303 21.0175L200.388 17.6037C203.615 19.5746 206.258 21.9842 208.389 24.714L205.236 27.1755ZM45.917 27.8134C44.9233 26.4844 44.0316 25.1244 43.2539 23.7333L46.7453 21.7813C47.4296 23.0053 48.2231 24.2179 49.1205 25.418L45.917 27.8134ZM155.083 25.7483C152.807 27.8818 150.705 30.2569 148.702 32.7634L145.577 30.2661C147.659 27.6606 149.892 25.1322 152.347 22.8303L155.083 25.7483ZM59.8234 40.7824C57.1424 38.8912 54.6571 36.9221 52.4129 34.8764L55.1076 31.9203C57.2112 33.8379 59.5634 35.7039 62.1292 37.5139L59.8234 40.7824ZM211.706 44.7436C211.364 41.4928 210.707 38.3488 209.67 35.412L213.442 34.08C214.6 37.359 215.314 40.8161 215.684 44.3241L211.706 44.7436ZM141.802 42.1388C140.272 44.3075 138.747 46.4694 137.208 48.517L134.011 46.1138C135.51 44.1191 136.991 42.0202 138.517 39.8567C138.901 39.3119 139.289 38.7631 139.68 38.2107L142.944 40.5225C142.563 41.0606 142.182 41.5999 141.802 42.1388ZM76.0018 50.2653C73.1452 48.8487 70.3855 47.3741 67.7508 45.8429L69.7606 42.3845C72.3115 43.8669 74.9929 45.3001 77.7789 46.6817L76.0018 50.2653ZM93.1092 57.6903C90.1824 56.5735 87.2971 55.4048 84.4757 54.1853L86.0627 50.5136C88.8271 51.7084 91.6585 52.8555 94.5351 53.953L93.1092 57.6903ZM130.651 56.1686C128.071 58.675 125.242 60.7677 122.014 62.0928L120.495 58.3925C123.112 57.318 125.524 55.5726 127.863 53.2998L130.651 56.1686ZM210.647 64.1489C211.243 61.0076 211.679 57.7363 211.878 54.4431L215.871 54.6852C215.66 58.1669 215.2 61.6074 214.576 64.8947L210.647 64.1489ZM106.283 62.2952C104.808 61.8231 103.335 61.3382 101.867 60.8404L103.151 57.0522C104.597 57.5424 106.048 58.0202 107.502 58.4854C109.074 58.9883 110.545 59.3116 111.928 59.4806L111.442 63.451C109.788 63.2489 108.071 62.8672 106.283 62.2952ZM206.677 78.2858C207.222 76.8593 207.759 75.3129 208.271 73.6706L212.09 74.8593C211.554 76.5798 210.99 78.2063 210.413 79.7142L206.677 78.2858Z" fill="#DBD9D5"/>
<path d="M230 71.4378C230 84.3847 207.5 108 207.5 108C207.5 108 185 84.3699 185 71.4378C185 58.5056 195.071 48 207.5 48C219.929 48 230 58.4908 230 71.4378Z" fill="#525D77"/>
<path d="M17.7824 21.771L23.1749 25.2027L23.1876 25.1872L24.0827 25.7555C25.9523 26.945 28.1883 27.3549 30.3733 26.9077C32.5584 26.4605 34.4344 25.2089 35.6575 23.3859L49.8792 2.14941L52.5293 3.83579L41.7666 19.9045L55.9278 7.53773L57.4599 10.3452L45.471 20.8144L58.7021 14.9727L58.8964 18.274L42.719 25.417L58.5142 22.3176L57.7529 25.6158L42.3654 28.6345L56.3451 29.386L54.7684 32.3923L39.9288 31.5973L52.577 35.6005L50.3888 38.1533L36.7086 33.824L63.9385 51.1598L62.2089 53.7437L30.8925 33.8054L52.7459 53.9208L50.5736 56.1661L15.8299 24.1872L16.9161 23.066L17.7824 21.771Z" fill="#525D77"/>
<path d="M12.5234 18.1559C13.6541 17.923 14.7625 18.6311 15.0014 19.7336C15.2403 20.8361 14.5141 21.9169 13.3833 22.1498C12.2526 22.3827 11.1442 21.6746 10.9053 20.5721C10.6664 19.4665 11.3926 18.3857 12.5234 18.1559Z" fill="#525D77"/>
<path d="M7.35436 15.597C7.65695 15.5628 7.9691 15.5473 8.27487 15.5473C8.57427 15.656 8.87049 15.7833 9.16034 15.9324C9.40241 16.0566 9.63811 16.1964 9.86426 16.3455L8.27805 18.625C8.27805 18.625 8.27487 18.6219 8.27168 18.6219V18.6312C8.08057 18.6312 7.88947 18.6405 7.70154 18.6623C5.1152 18.9418 3.16588 21.0692 3.16588 23.6096C3.16588 26.355 5.45601 28.588 8.27168 28.588V31.675C3.71054 31.675 -0.000159264 28.0569 -0.000159264 23.6096C0.00302601 19.4946 3.16589 16.0504 7.35436 15.597Z" fill="#525D77"/>
<path fill-rule="evenodd" clip-rule="evenodd" d="M132.437 4.01525C129.344 4.09762 126.369 4.51182 123.522 5.21438L122.563 1.33086C125.687 0.560224 128.947 0.106769 132.331 0.0166626L132.437 4.01525ZM145.903 5.68368C144.399 5.27918 142.917 4.95146 141.458 4.69636L142.147 0.75615C143.726 1.03221 145.324 1.38597 146.942 1.82086C148.571 2.25876 150.181 2.74823 151.775 3.28329L150.503 7.07538C148.981 6.56478 147.449 6.09921 145.903 5.68368ZM115.052 8.2974C112.336 9.62328 109.765 11.2234 107.351 13.0508L104.937 9.86166C107.544 7.8875 110.335 6.14879 113.298 4.70278L115.052 8.2974ZM168.174 14.9538C165.298 13.4022 162.404 11.9462 159.479 10.625L161.125 6.97949C164.153 8.34679 167.132 9.84653 170.073 11.4334L168.174 14.9538ZM185.049 24.9106C182.25 23.1787 179.461 21.4616 176.662 19.7941L178.709 16.3577C181.539 18.0436 184.352 19.7757 187.154 21.5091L185.049 24.9106ZM100.605 19.157C98.5301 21.3795 96.6261 23.7774 94.9066 26.3016L91.6007 24.0497C93.4297 21.3648 95.4604 18.806 97.6819 16.427L100.605 19.157ZM202.006 35.123C199.129 33.5004 196.281 31.8083 193.455 30.0898L195.533 26.6719C198.338 28.3772 201.145 30.0452 203.971 31.6387L202.006 35.123ZM308.32 35.9918C306.715 36.2525 305.247 36.5269 303.888 36.8127L303.065 32.8983C304.487 32.5992 306.016 32.3136 307.679 32.0435L308.32 35.9918ZM90.3056 34.2225C88.9458 36.9979 87.7934 39.8477 86.8606 42.7178L83.0565 41.4815C84.0477 38.4315 85.2711 35.4068 86.7135 32.4627L90.3056 34.2225ZM290.617 40.7527C289.36 41.2034 288.066 41.6673 286.612 42.1612L285.325 38.3738C286.604 37.9393 287.883 37.482 289.16 37.0252C290.778 36.4465 292.394 35.8688 294.003 35.3396L295.253 39.1395C293.615 39.678 292.143 40.2057 290.617 40.7527ZM220.013 43.8037C216.893 42.6067 213.834 41.2509 210.824 39.7817L212.579 36.187C215.502 37.6136 218.452 38.9206 221.446 40.0692L220.013 43.8037ZM277.655 44.7995C275.025 45.4524 272.035 46.0942 268.53 46.7147L267.833 42.776C271.255 42.1701 274.156 41.5468 276.692 40.9173L277.655 44.7995ZM239.572 48.7179C236.171 48.3395 232.855 47.7134 229.612 46.8844L230.603 43.009C233.68 43.7955 236.812 44.3862 240.015 44.7424L239.572 48.7179ZM259.391 48.1125C257.927 48.306 256.393 48.4963 254.782 48.683C253.071 48.8813 251.381 49.0119 249.711 49.0791L249.551 45.0823C251.121 45.0192 252.71 44.8963 254.321 44.7096C255.912 44.5253 257.425 44.3376 258.867 44.147L259.391 48.1125ZM84.6901 51.5991C84.1847 54.6906 83.9534 57.7313 84.0071 60.6539L80.0078 60.7275C79.9493 57.5452 80.2014 54.2634 80.7425 50.9538L84.6901 51.5991ZM85.1696 69.5397C85.55 71.0003 86.0233 72.397 86.5903 73.7197C87.2701 75.3054 87.9635 76.8081 88.67 78.2322L85.0866 80.0098C84.3455 78.5157 83.6212 76.9456 82.914 75.2958C82.2628 73.777 81.7262 72.1893 81.2987 70.5477L85.1696 69.5397ZM93.6459 86.7227C95.6786 89.6318 97.7938 92.0495 99.9815 94.0601L97.2747 97.0051C94.8545 94.7808 92.551 92.1392 90.3671 89.0138L93.6459 86.7227ZM107.832 99.5267C110.72 100.987 113.746 102.001 116.912 102.688L116.063 106.597C112.614 105.848 109.26 104.731 106.027 103.096L107.832 99.5267ZM126.645 103.889C128.274 103.967 129.933 104 131.622 104V108C129.882 108 128.158 107.966 126.452 107.884L126.645 103.889Z" fill="#DBD9D5"/>
<path d="M311.665 28.0667L305.309 32.1121L305.294 32.0938L304.238 32.7638C302.034 34.1659 299.399 34.6492 296.823 34.122C294.247 33.5948 292.036 32.1194 290.594 29.9704L273.829 4.93652L270.705 6.92444L283.392 25.8664L266.699 11.2884L264.893 14.5979L279.026 26.9391L263.429 20.0528L263.2 23.9444L282.27 32.3647L263.65 28.711L264.547 32.599L282.686 36.1575L266.207 37.0435L268.066 40.5873L285.559 39.6501L270.649 44.3691L273.228 47.3784L289.355 42.275L257.256 62.7107L259.295 65.7566L296.211 42.2531L270.45 65.9653L273.011 68.6122L313.967 30.9149L312.687 29.5933L311.665 28.0667Z" fill="#F2B43F"/>
<path d="M317.864 23.8053C316.531 23.5307 315.225 24.3654 314.943 25.665C314.662 26.9647 315.518 28.2387 316.851 28.5133C318.184 28.7879 319.49 27.9532 319.772 26.6535C320.053 25.3502 319.197 24.0762 317.864 23.8053Z" fill="#F2B43F"/>
<path d="M323.958 20.7887C323.602 20.7485 323.234 20.7302 322.873 20.7302C322.52 20.8583 322.171 21.0084 321.829 21.1841C321.544 21.3306 321.266 21.4953 321 21.671L322.869 24.3582C322.869 24.3582 322.873 24.3546 322.877 24.3546V24.3655C323.102 24.3655 323.327 24.3765 323.549 24.4021C326.598 24.7316 328.896 27.2394 328.896 30.2341C328.896 33.4704 326.196 36.1027 322.877 36.1027V39.7417C328.254 39.7417 332.628 35.4767 332.628 30.2341C332.624 25.3833 328.896 21.3232 323.958 20.7887Z" fill="#F2B43F"/>
<path d="M179 100.032C179 117.726 148 150 148 150C148 150 117 117.706 117 100.032C117 82.3576 130.875 68 148 68C165.124 68 179 82.3374 179 100.032Z" fill="#525D77"/>
</svg>
