<svg width="380" height="221" viewBox="0 0 380 221" fill="none" xmlns="http://www.w3.org/2000/svg">
<path fill-rule="evenodd" clip-rule="evenodd" d="M92.7296 83.7908C93.7517 82.4314 94.8301 81.0726 95.9663 79.7159L99.0329 82.2841C97.9409 83.5881 96.9061 84.8921 95.9268 86.1946L92.7296 83.7908ZM206.719 94.4803C204.973 94.2331 203.289 94.0819 201.663 94.0192L201.817 90.0222C203.584 90.0903 205.404 90.2543 207.28 90.5197C210.129 90.9229 212.627 91.5957 214.821 92.4637L213.349 96.183C211.467 95.4384 209.276 94.8421 206.719 94.4803ZM191.666 94.8302C188.296 95.5462 185.19 96.6962 182.295 98.1973L180.453 94.6464C183.65 92.9886 187.095 91.7121 190.835 90.9175L191.666 94.8302ZM82.3062 101.83C83.5804 98.7389 85.1222 95.6132 86.9501 92.4727L90.4072 94.4849C88.6679 97.4732 87.2073 100.436 86.0044 103.355L82.3062 101.83ZM173.97 103.858C171.425 106.018 169.036 108.457 166.752 111.094L163.728 108.475C166.115 105.72 168.648 103.129 171.381 100.809L173.97 103.858ZM225.558 108.643C225.069 107.504 224.43 106.079 223.48 104.555L226.875 102.439C227.988 104.225 228.722 105.872 229.234 107.066C229.295 107.209 229.352 107.342 229.404 107.465C229.581 107.879 229.712 108.186 229.829 108.429C229.864 108.501 229.891 108.555 229.913 108.595C229.924 108.615 229.933 108.63 229.939 108.64C229.943 108.648 229.946 108.653 229.947 108.654C229.946 108.652 229.941 108.644 229.931 108.632C229.921 108.618 229.903 108.596 229.878 108.567C229.832 108.516 229.728 108.409 229.56 108.304L227.44 111.696C226.996 111.419 226.73 111.041 226.605 110.852C226.456 110.625 226.329 110.381 226.226 110.166C226.065 109.831 225.884 109.408 225.7 108.975C225.653 108.865 225.605 108.754 225.558 108.643ZM229.947 108.654C229.947 108.654 229.947 108.654 229.947 108.654L229.947 108.654C229.947 108.654 229.947 108.654 229.947 108.654ZM77.5479 122.239C77.7225 118.867 78.2177 115.381 79.065 111.814L82.9567 112.739C82.1639 116.076 81.7043 119.322 81.5425 122.446L77.5479 122.239ZM160.355 119.25C158.327 122.055 156.362 124.95 154.408 127.867L151.085 125.64C153.045 122.715 155.042 119.772 157.114 116.907L160.355 119.25ZM80.9565 143.052C79.6312 139.89 78.6544 136.457 78.0784 132.81L82.0294 132.186C82.5571 135.527 83.4484 138.65 84.6455 141.506L80.9565 143.052ZM148.506 136.634C146.462 139.604 144.378 142.511 142.208 145.249L139.073 142.764C141.165 140.124 143.193 137.299 145.211 134.366L148.506 136.634ZM94.4494 159.49C91.4382 157.597 88.73 155.16 86.4087 152.277L89.524 149.768C91.583 152.325 93.9629 154.459 96.5789 156.104L94.4494 159.49ZM134.95 153.281C132.231 155.846 129.311 158.089 126.115 159.852L124.183 156.349C127.025 154.782 129.677 152.757 132.206 150.371L134.95 153.281ZM110 164C108.147 164 106.329 163.826 104.56 163.49L105.308 159.56C106.83 159.85 108.397 160 110 160C111.72 160 113.363 159.862 114.936 159.599L115.594 163.545C113.799 163.844 111.936 164 110 164Z" fill="#DBD9D5"/>
<path fill-rule="evenodd" clip-rule="evenodd" d="M138.243 79.1431C139.9 79.8059 141.826 80.7826 143.607 82.0241L141.32 85.3058C139.822 84.2616 138.172 83.4228 136.758 82.857L138.243 79.1431ZM149.2 93.6021C148.597 95.4927 147.296 97.2967 145.308 99.0137C143.645 100.449 141.696 101.324 139.624 101.805L138.721 97.9078C140.285 97.5453 141.61 96.9214 142.693 95.9864C144.304 94.5952 145.073 93.3773 145.389 92.3873L149.2 93.6021ZM105.396 97.2675C105.196 97.3793 105.043 97.5262 104.953 97.9339C104.766 98.7738 104.85 99.4162 105.091 99.9867C105.348 100.597 105.836 101.247 106.645 101.982L103.956 104.942C102.901 103.984 101.967 102.876 101.404 101.54C100.825 100.164 100.691 98.6721 101.048 97.0662C101.374 95.6009 102.2 94.4704 103.446 93.7751C104.597 93.1323 105.948 92.9489 107.247 92.9539L107.232 96.9539C106.25 96.9501 105.69 97.1033 105.396 97.2675ZM117.906 99.16C117.714 99.108 117.524 99.0563 117.334 99.005L118.379 95.1439C118.555 95.1915 118.731 95.2393 118.908 95.2871C122.142 96.1634 125.494 97.0717 128.755 97.6614L128.043 101.598C124.607 100.976 121.101 100.026 117.906 99.16ZM117.62 109.455C119.416 110.783 121.238 112.31 122.954 114.127L120.046 116.873C118.532 115.27 116.9 113.897 115.242 112.672L117.62 109.455Z" fill="#DBD9D5"/>
<path fill-rule="evenodd" clip-rule="evenodd" d="M354 110C354 108.895 353.105 108 352 108H173C171.895 108 171 108.895 171 110V188.516C171 189.62 171.895 190.516 173 190.516H291.263L307.398 219.425C307.752 220.058 308.42 220.45 309.145 220.45C309.87 220.45 310.538 220.058 310.891 219.425L327.026 190.516H352C353.105 190.516 354 189.62 354 188.516V110ZM350 112V186.516H325.852C325.127 186.516 324.459 186.908 324.106 187.541L309.145 214.347L294.184 187.541C293.83 186.908 293.162 186.516 292.437 186.516H175V112H350Z" fill="#525D77"/>
<path d="M308.018 178.649C291.589 178.649 278.62 165.567 279.052 149.43C279.485 133.293 293.154 120.211 309.584 120.211C326.014 120.211 338.983 133.293 338.55 149.43C338.118 165.567 324.448 178.649 308.018 178.649Z" fill="#9D9E99"/>
<path d="M193.877 137.906H268.705V140.373H193.877V137.906Z" fill="#9E9F9A"/>
<path d="M205.635 144.764H268.705V147.23H205.635V144.764Z" fill="#9E9F9A"/>
<path d="M197.571 151.621H268.705V154.087H197.571V151.621Z" fill="#9E9F9A"/>
<path d="M226.225 158.478H268.705V160.944H226.225V158.478Z" fill="#9E9F9A"/>
<path d="M315 44V72.2352H358.371L364.438 83L370.505 72.2352H380V44H315Z" fill="#9D9E99"/>
<path d="M141 116V136.995H108.972L104.492 145L100.012 136.995H93V116H141Z" fill="#9D9E99"/>
<path d="M15 164V194.407H62.3745L69.0015 206L75.6286 194.407H86V164H15Z" fill="#DBD9D5"/>
<path fill-rule="evenodd" clip-rule="evenodd" d="M298.974 22.6815C299.183 23.9721 299.513 25.4866 299.935 27.2068L296.049 28.1582C295.618 26.3959 295.258 24.7629 295.025 23.3184L298.974 22.6815ZM302.365 36.4533C303.147 39.4059 303.959 42.5746 304.688 45.8512L300.784 46.7203C300.072 43.5203 299.275 40.4109 298.499 37.4771L302.365 36.4533ZM306.457 55.4457C306.913 58.7228 307.197 62.0324 307.206 65.2809L303.206 65.2909C303.198 62.2641 302.932 59.1401 302.495 55.9971L306.457 55.4457ZM306.184 75.2587C305.41 78.6332 304.148 81.8398 302.234 84.7248L298.9 82.5136C300.504 80.0961 301.6 77.3538 302.285 74.365L306.184 75.2587ZM236.358 86.1397C234.78 85.0663 233.389 84.0146 232.217 83.0341L234.783 79.9658C235.844 80.8532 237.128 81.8258 238.608 82.8324L236.358 86.1397ZM254.751 95.0633C251.346 93.9826 248.15 92.6689 245.239 91.2566L246.985 87.6578C249.74 88.9945 252.757 90.2339 255.961 91.2507L254.751 95.0633ZM294.84 91.9576C293.452 92.848 291.933 93.6457 290.276 94.3433C288.642 95.0313 287.001 95.6088 285.36 96.0851L284.245 92.2436C285.74 91.8098 287.235 91.2837 288.724 90.6567C290.181 90.0433 291.495 89.3509 292.68 88.5907L294.84 91.9576ZM275.114 97.8282C271.588 98.0312 268.124 97.8453 264.777 97.3717L265.338 93.4111C268.45 93.8516 271.648 94.0211 274.884 93.8348L275.114 97.8282Z" fill="#DBD9D5"/>
<path d="M320 4V22.8234H290.641L286.534 30L282.427 22.8234H276V4H320Z" fill="#DBD9D5"/>
<path fill-rule="evenodd" clip-rule="evenodd" d="M25.9261 87.4091C26.6983 85.6235 27.4781 83.9969 28.2299 82.5685L31.7696 84.4315C31.0686 85.7634 30.3323 87.2977 29.5975 88.9968L25.9261 87.4091ZM19.9475 107.89C20.5082 104.267 21.3335 100.747 22.3009 97.4558L26.1386 98.5839C25.2143 101.728 24.4308 105.075 23.9005 108.502L19.9475 107.89ZM20.6173 129.432C19.6811 125.916 19.2428 122.273 19.1748 118.633L23.1741 118.559C23.2371 121.932 23.6426 125.248 24.4826 128.403L20.6173 129.432ZM28.5515 143.879C27.2404 142.503 26.0881 141.045 25.082 139.522L28.4193 137.317C29.2976 138.647 30.303 139.918 31.448 141.121C32.4507 142.173 33.6714 143.119 35.1068 143.965L33.0763 147.411C31.3732 146.408 29.8478 145.24 28.5515 143.879ZM53.8561 153.07C50.1197 152.672 46.5827 152.113 43.3409 151.329L44.2814 147.441C47.3075 148.173 50.6636 148.707 54.2794 149.092L53.8561 153.07ZM74.8865 154C71.3232 153.986 67.8106 153.93 64.4016 153.797L64.5566 149.8C67.9053 149.93 71.3691 149.986 74.9026 150L74.8865 154ZM88.745 153.917C87.6115 153.93 86.4767 153.942 85.3412 153.953L85.3011 149.953C86.4288 149.942 87.5595 149.93 88.691 149.917C91.0424 149.892 93.3971 149.866 95.7342 149.849L95.7628 153.849C93.4332 153.866 91.0919 153.892 88.745 153.917ZM116.47 154.214C113.16 154.019 109.702 153.915 106.145 153.866L106.199 149.866C109.797 149.916 113.318 150.022 116.705 150.221L116.47 154.214ZM136.467 157.471C133.618 156.49 130.329 155.757 126.679 155.217L127.265 151.26C131.075 151.824 134.619 152.605 137.769 153.689L136.467 157.471ZM147.166 165.799C146.573 164.437 145.729 163.229 144.643 162.149L147.464 159.313C148.882 160.723 150.024 162.345 150.833 164.201C151.632 166.032 152.024 167.819 151.985 169.546L147.986 169.457C148.01 168.408 147.776 167.197 147.166 165.799ZM136.394 179.151C139.588 178.113 142.231 176.885 144.187 175.477L146.524 178.723C144.114 180.458 141.049 181.844 137.631 182.956L136.394 179.151ZM118.654 182.536C121.759 182.225 124.795 181.813 127.67 181.289L128.388 185.224C125.39 185.771 122.246 186.196 119.052 186.516L118.654 182.536ZM86.7206 182.512C88.1289 182.669 89.6456 182.806 91.2496 182.92L90.9658 186.91C89.3146 186.792 87.7449 186.651 86.2789 186.488L86.7206 182.512ZM100.377 183.29C103.34 183.328 106.423 183.29 109.535 183.165L109.696 187.162C106.511 187.29 103.358 187.328 100.327 187.29L100.377 183.29Z" fill="#DBD9D5"/>
<path fill-rule="evenodd" clip-rule="evenodd" d="M357.304 29.718C355.39 27.6812 352.64 26.1863 348.643 25.9309L348.898 21.9391C353.87 22.2567 357.583 24.1744 360.219 26.9786L357.304 29.718ZM338.358 27.46C336.774 27.9545 335.083 28.5766 333.281 29.3412C331.872 29.9389 330.504 30.5973 329.172 31.3086L327.288 27.7803C328.719 27.0158 330.195 26.3054 331.719 25.6589C333.63 24.8481 335.444 24.1792 337.166 23.6417L338.358 27.46ZM321.462 36.2418C318.987 38.0864 316.634 40.0875 314.365 42.1773L311.655 39.2355C314 37.0752 316.461 34.9804 319.072 33.0345L321.462 36.2418ZM361.504 43.8692C361.608 42.2952 361.556 40.5221 361.284 38.7181L365.239 38.1199C365.557 40.2243 365.617 42.2863 365.496 44.1309L361.504 43.8692ZM303.936 52.6479C303.008 53.6215 302.084 54.5905 301.15 55.56L298.27 52.7846C299.166 51.8548 300.082 50.8934 301.012 49.9185C302.266 48.6032 303.543 47.2635 304.824 45.9443L307.694 48.7306C306.41 50.0524 305.169 51.3542 303.936 52.6479ZM294.325 62.2988C291.84 64.5714 289.297 66.6424 286.639 68.3517L284.475 64.9873C286.882 63.4399 289.243 61.5263 291.626 59.3471L294.325 62.2988ZM257.766 69.6195C256.357 68.9222 254.917 68.1165 253.442 67.1974L255.558 63.8027C256.932 64.6587 258.258 65.3998 259.541 66.0347L257.766 69.6195ZM277.436 72.4587C274.236 73.248 270.859 73.4184 267.249 72.8122L267.911 68.8674C270.978 69.3824 273.804 69.2347 276.478 68.5751L277.436 72.4587Z" fill="#DBD9D5"/>
<path fill-rule="evenodd" clip-rule="evenodd" d="M0.585786 0.585786C0.960859 0.210714 1.46957 0 2 0H253.5C254.605 0 255.5 0.89543 255.5 2V80.5157C255.5 81.6203 254.605 82.5157 253.5 82.5157H62.7369L46.6017 111.425C46.2483 112.058 45.5802 112.45 44.8553 112.45C44.1303 112.45 43.4622 112.058 43.1089 111.425L26.9735 82.5157H2C0.89543 82.5157 0 81.6203 0 80.5157V2C0 1.46957 0.210714 0.960859 0.585786 0.585786ZM4 4V78.5157H28.1477C28.8726 78.5157 29.5408 78.908 29.8941 79.541L44.8553 106.347L59.8164 79.541C60.1697 78.908 60.8379 78.5157 61.5628 78.5157H251.5V4H4Z" fill="#F2B43F"/>
<path d="M45.9815 70.6489C62.4114 70.649 75.38 57.5672 74.9477 41.4301C74.5153 25.2929 60.8458 12.2112 44.4159 12.2112C27.9861 12.2112 15.0175 25.2929 15.4498 41.4301C15.8821 57.5672 29.5516 70.6489 45.9815 70.6489Z" fill="#F2B43F"/>
<path d="M228 29.9064H85.2954V32.3726H228V29.9064Z" fill="#9D9E99"/>
<path d="M205.576 36.7635H85.2954V39.2297H205.576V36.7635Z" fill="#9D9E99"/>
<path d="M220.955 43.6206H85.2954V46.0867H220.955V43.6206Z" fill="#9D9E99"/>
<path d="M166.308 50.4777H85.2954V52.9439H166.308V50.4777Z" fill="#9D9E99"/>
<path d="M56.4857 39.1669V21.3686L54.6046 21.1264L54.612 39.1669C54.612 39.3702 54.6077 39.5724 54.5983 39.7746C54.5582 39.2638 54.4939 38.753 54.4042 38.2433L51.359 21L49.4673 21.1095L52.5568 38.5687C52.5916 38.7688 52.6233 38.9689 52.6496 39.169C52.522 38.673 52.3692 38.1812 52.192 37.6946L46.3419 21.6403L44.5599 22.2259L50.43 38.3339C50.4996 38.5245 50.565 38.7162 50.6251 38.9089C50.4131 38.4424 50.177 37.9842 49.9186 37.5367L41.8816 23.6329L40.3759 24.7714L48.2958 38.4719C48.397 38.6477 48.4951 38.8257 48.5879 39.0048C48.2979 38.5824 47.9869 38.1717 47.6526 37.7757L38.403 26.7966L37.2747 28.3363L46.2164 38.9795C46.3472 39.1353 46.4737 39.2933 46.5971 39.4534C46.2386 39.088 45.86 38.7372 45.4625 38.4045L36.0336 30.5089L35.2396 32.2793L44.2583 39.8378C44.4144 39.9684 44.5662 40.1021 44.7149 40.238C44.2984 39.941 43.8661 39.6619 43.4179 39.4039L34.5405 34.2466L34.0249 36.078L42.4732 41.0205L42.4784 41.0237C42.6545 41.1248 42.8275 41.2301 42.9983 41.3385C42.5364 41.1174 42.0609 40.9183 41.5737 40.7404L33.6316 37.8589L33.3248 39.7356L40.9326 42.5012C41.1224 42.5697 41.309 42.6434 41.4946 42.7192C41.0022 42.5823 40.5013 42.4696 39.992 42.3801L33.1402 41.1974L33 43.0499L39.6662 44.2242C41.5126 44.5496 43.2397 45.2257 44.7993 46.2347C46.3061 47.2088 47.5946 48.4516 48.629 49.927C49.6634 51.4025 50.3921 53.037 50.7938 54.7842C51.2093 56.5925 51.2546 58.445 50.9298 60.289L52.7762 60.6145C53.1452 58.5218 53.0936 56.4197 52.6212 54.365C52.3354 53.1234 51.9052 51.9333 51.3358 50.8054C54.6172 47.8228 56.4857 43.6239 56.4857 39.1669Z" fill="#525D77"/>
<path d="M43.5086 54.8157C44.5004 54.8157 45.3043 54.0128 45.3043 53.0222C45.3043 52.0317 44.5004 51.2287 43.5086 51.2287C42.5169 51.2287 41.7129 52.0317 41.7129 53.0222C41.7129 54.0128 42.5169 54.8157 43.5086 54.8157Z" fill="#525D77"/>
</svg>
