<svg width="380" height="221" viewBox="0 0 380 221" fill="none" xmlns="http://www.w3.org/2000/svg">
<path d="M97.4998 81C63.9999 121 82.5 162 110 162C151.815 162 154 85 207 92.5C225.257 95.0836 227.167 109.167 228.5 110" stroke="#DBD9D5" stroke-width="4" stroke-dasharray="10 10"/>
<path d="M121.5 115.5C113 106.5 101.4 104.7 103 97.5C105 88.5 133 107 144 97.5C152.8 89.9 143.334 83.3333 137.5 81" stroke="#DBD9D5" stroke-width="4" stroke-dasharray="10 10"/>
<path d="M173 110V188.516H292.437L309.145 218.45L325.852 188.516H352V110H173Z" stroke="#525D77" stroke-width="4" stroke-linejoin="round"/>
<path d="M308.019 178.649C291.589 178.649 278.62 165.567 279.053 149.43C279.485 133.293 293.154 120.211 309.584 120.211C326.014 120.211 338.983 133.293 338.55 149.43C338.118 165.567 324.449 178.649 308.019 178.649Z" fill="#9D9E99"/>
<path d="M193.877 137.906H268.705V140.373H193.877V137.906Z" fill="#9E9F9A"/>
<path d="M205.635 144.764H268.705V147.23H205.635V144.764Z" fill="#9E9F9A"/>
<path d="M197.571 151.621H268.705V154.087H197.571V151.621Z" fill="#9E9F9A"/>
<path d="M226.225 158.478H268.705V160.944H226.225V158.478Z" fill="#9E9F9A"/>
<path d="M315 44V72.2352H358.371L364.438 83L370.505 72.2352H380V44H315Z" fill="#9D9E99"/>
<path d="M141 116V136.995H108.972L104.492 145L100.012 136.995H93V116H141Z" fill="#9D9E99"/>
<path d="M15 164V194.407H62.3745L69.0015 206L75.6286 194.407H86V164H15Z" fill="#DBD9D5"/>
<path d="M297 23C299.5 38.5 318 80.5 289.5 92.5C266.7 102.1 242.667 89.1667 233.5 81.5" stroke="#DBD9D5" stroke-width="4" stroke-dasharray="10 10"/>
<path d="M320 4V22.8234H290.641L286.534 30L282.427 22.8234H276V4H320Z" fill="#DBD9D5"/>
<path d="M86.5 184.5C109 187 157.5 184.5 149 165C137.667 139 50 163.5 30 142.5C14 125.7 23.3333 96.1667 30 83.5" stroke="#DBD9D5" stroke-width="4" stroke-dasharray="10 10"/>
<path d="M363.5 44C364.167 33.8333 358.9 16.3 332.5 27.5C299.5 41.5 289 87 254.5 65.5" stroke="#DBD9D5" stroke-width="4" stroke-dasharray="10 10"/>
<path d="M253.5 2V80.5157H61.5628L44.8553 110.45L28.1477 80.5157H2V2L253.5 2Z" stroke="#F2B43F" stroke-width="4" stroke-linejoin="round"/>
<path d="M45.9813 70.6489C62.4111 70.649 75.3797 57.5672 74.9474 41.4301C74.5151 25.2929 60.8456 12.2112 44.4157 12.2112C27.9858 12.2112 15.0172 25.2929 15.4495 41.4301C15.8818 57.5672 29.5514 70.6489 45.9813 70.6489Z" fill="#F2B43F"/>
<path d="M228 29.9064H85.2954V32.3726H228V29.9064Z" fill="#9D9E99"/>
<path d="M205.576 36.7635H85.2954V39.2297H205.576V36.7635Z" fill="#9D9E99"/>
<path d="M220.955 43.6206H85.2954V46.0867H220.955V43.6206Z" fill="#9D9E99"/>
<path d="M166.308 50.4777H85.2954V52.9439H166.308V50.4777Z" fill="#9D9E99"/>
<path d="M56.4857 39.1669V21.3686L54.6046 21.1264L54.612 39.1669C54.612 39.3702 54.6077 39.5724 54.5983 39.7746C54.5582 39.2638 54.4939 38.753 54.4042 38.2433L51.359 21L49.4673 21.1095L52.5568 38.5687C52.5916 38.7688 52.6233 38.9689 52.6496 39.169C52.522 38.673 52.3692 38.1812 52.192 37.6946L46.3419 21.6403L44.5599 22.2259L50.43 38.3339C50.4996 38.5245 50.565 38.7162 50.6251 38.9089C50.4131 38.4424 50.177 37.9842 49.9186 37.5367L41.8816 23.6329L40.3759 24.7714L48.2958 38.4719C48.397 38.6477 48.4951 38.8257 48.5879 39.0048C48.2979 38.5824 47.9869 38.1717 47.6526 37.7757L38.403 26.7966L37.2747 28.3363L46.2164 38.9795C46.3472 39.1353 46.4737 39.2933 46.5971 39.4534C46.2386 39.088 45.86 38.7372 45.4625 38.4045L36.0336 30.5089L35.2396 32.2793L44.2583 39.8378C44.4144 39.9684 44.5662 40.1021 44.7149 40.238C44.2984 39.941 43.8661 39.6619 43.4179 39.4039L34.5405 34.2466L34.0249 36.078L42.4732 41.0205L42.4784 41.0237C42.6545 41.1248 42.8275 41.2301 42.9983 41.3385C42.5364 41.1174 42.0609 40.9183 41.5737 40.7404L33.6316 37.8589L33.3248 39.7356L40.9326 42.5012C41.1224 42.5697 41.309 42.6434 41.4946 42.7192C41.0022 42.5823 40.5013 42.4696 39.992 42.3801L33.1402 41.1974L33 43.0499L39.6662 44.2242C41.5126 44.5496 43.2397 45.2257 44.7993 46.2347C46.3061 47.2088 47.5946 48.4516 48.629 49.927C49.6634 51.4025 50.3921 53.037 50.7938 54.7842C51.2093 56.5925 51.2546 58.445 50.9298 60.289L52.7762 60.6145C53.1452 58.5218 53.0936 56.4197 52.6212 54.365C52.3354 53.1234 51.9052 51.9333 51.3358 50.8054C54.6172 47.8228 56.4857 43.6239 56.4857 39.1669Z" fill="#525D77"/>
<path d="M43.5085 54.8157C44.5002 54.8157 45.3042 54.0128 45.3042 53.0222C45.3042 52.0317 44.5002 51.2287 43.5085 51.2287C42.5167 51.2287 41.7128 52.0317 41.7128 53.0222C41.7128 54.0128 42.5167 54.8157 43.5085 54.8157Z" fill="#525D77"/>
</svg>
