<svg width="370" height="237" viewBox="0 0 370 237" fill="none" xmlns="http://www.w3.org/2000/svg">
<circle cx="57" cy="9" r="2" fill="#525D77"/>
<circle cx="64" cy="9" r="2" fill="#525D77"/>
<circle cx="71" cy="9" r="2" fill="#525D77"/>
<path d="M115.247 62.2263V28.6944L111.703 28.2381L111.717 62.2263C111.717 62.6092 111.709 62.9902 111.691 63.3711C111.615 62.4088 111.494 61.4465 111.325 60.4862L105.588 28L102.024 28.2063L107.845 61.0993C107.91 61.4763 107.97 61.8533 108.02 62.2303C107.779 61.2957 107.491 60.3691 107.158 59.4525L96.136 29.2064L92.7787 30.3095L103.838 60.6568C103.969 61.016 104.092 61.3771 104.205 61.7402C103.806 60.8612 103.361 59.9981 102.874 59.1549L87.7329 32.9603L84.896 35.1052L99.8171 60.9168C100.008 61.2481 100.193 61.5834 100.367 61.9207C99.8211 61.1251 99.2351 60.3513 98.6053 59.6053L81.1792 38.9207L79.0535 41.8215L95.8996 61.8731C96.146 62.1668 96.3844 62.4644 96.6168 62.766C95.9413 62.0775 95.2282 61.4168 94.4792 60.7898L76.7154 45.9147L75.2195 49.2501L92.2106 63.4902C92.5046 63.7362 92.7907 63.9882 93.0708 64.2442C92.2861 63.6846 91.4716 63.1588 90.6273 62.6727L73.9024 52.9564L72.9309 56.4068L88.8473 65.7184L88.8573 65.7243C89.189 65.9148 89.5148 66.1132 89.8366 66.3176C88.9665 65.9009 88.0706 65.5259 87.1528 65.1906L72.19 59.762L71.6119 63.2977L85.9449 68.5081C86.3025 68.637 86.6541 68.7759 87.0038 68.9188C86.0761 68.6608 85.1324 68.4485 84.1729 68.2799L71.2642 66.0517L71 69.5418L83.5591 71.7541C87.0376 72.3672 90.2916 73.641 93.2297 75.5418C96.0685 77.3771 98.4961 79.7184 100.445 82.4982C102.394 85.278 103.766 88.3573 104.523 91.649C105.306 95.0558 105.391 98.5458 104.78 102.02L108.258 102.633C108.953 98.6907 108.856 94.7304 107.966 90.8593C107.428 88.52 106.617 86.278 105.544 84.153C111.727 78.5339 115.247 70.6231 115.247 62.2263Z" fill="#F2B43F"/>
<path d="M90.7983 91.7086C92.6667 91.7086 94.1814 90.1958 94.1814 88.3297C94.1814 86.4635 92.6667 84.9507 90.7983 84.9507C88.9298 84.9507 87.4152 86.4635 87.4152 88.3297C87.4152 90.1958 88.9298 91.7086 90.7983 91.7086Z" fill="#F2B43F"/>
<rect x="42" y="2" width="263" height="14" stroke="#525D77" stroke-width="4"/>
<rect x="55" y="133" width="238" height="14" stroke="#525D77" stroke-width="4"/>
<path d="M141 45H275" stroke="#DBD9D5" stroke-width="4"/>
<path d="M141 67H275" stroke="#DBD9D5" stroke-width="4"/>
<path d="M141 56H275" stroke="#DBD9D5" stroke-width="4"/>
<path d="M141 78H275" stroke="#DBD9D5" stroke-width="4"/>
<path d="M41.0001 50C31.6667 65.1667 17.5599 105.36 24.5001 147C35.0002 210 67 236.5 104 231.5C134.864 227.329 125 195 151 187C175.279 179.529 191.833 201 196.5 210" stroke="#DBD9D5" stroke-width="4" stroke-dasharray="8 8"/>
<path d="M141 89H234" stroke="#DBD9D5" stroke-width="4"/>
<path d="M226.36 234.359H230.139H230.249L230.358 234.347L230.139 232.359C230.358 234.347 230.358 234.346 230.359 234.346L230.36 234.346L230.362 234.346L230.366 234.346L230.377 234.344L230.403 234.341C230.41 234.34 230.418 234.339 230.427 234.338C230.441 234.336 230.457 234.334 230.475 234.331C230.532 234.323 230.606 234.311 230.694 234.295C230.868 234.263 231.107 234.21 231.377 234.127C231.857 233.98 232.697 233.66 233.35 232.957L233.35 232.957C234.012 232.244 234.232 231.367 234.318 230.897C234.368 230.627 234.39 230.39 234.401 230.218C234.406 230.131 234.408 230.058 234.41 230.001C234.41 229.973 234.41 229.949 234.41 229.929L234.41 229.903L234.41 229.892L234.41 229.89L234.41 229.889L234.41 229.888V229.888L234.41 229.887L234.41 229.886L234.41 229.886L234.41 229.885L234.41 229.859C234.41 229.832 234.41 229.789 234.411 229.73C234.413 229.613 234.419 229.438 234.432 229.224C234.459 228.789 234.515 228.222 234.631 227.651C234.75 227.064 234.911 226.575 235.098 226.24C235.153 226.142 235.201 226.073 235.239 226.026C235.293 226.056 235.363 226.099 235.449 226.16C235.909 226.482 236.475 227.042 237.193 227.84C237.445 228.12 237.739 228.455 238.048 228.81C238.509 229.337 239.005 229.905 239.454 230.391C240.25 231.253 241.159 232.153 242.146 232.83L226.36 234.359ZM226.36 234.359C226.337 234.36 226.308 234.361 226.274 234.362C226.189 234.364 226.072 234.366 225.926 234.365C225.634 234.364 225.225 234.352 224.717 234.311C223.703 234.229 222.289 234.031 220.631 233.573C217.307 232.653 213.003 230.683 208.997 226.512L208.997 226.512C204.744 222.084 200.822 215.583 198.002 210.309C196.581 207.65 195.417 205.26 194.608 203.534C194.203 202.67 193.886 201.972 193.67 201.487C193.562 201.245 193.479 201.055 193.423 200.926C193.394 200.861 193.373 200.811 193.358 200.777L193.341 200.738L193.336 200.727L193.335 200.724L193.335 200.723C193.334 200.722 193.334 200.722 195.173 199.936M226.36 234.359L243.648 196.234C243.014 196.614 242.603 197.16 242.397 197.466C242.28 197.641 242.189 197.799 242.126 197.915C242.094 197.974 242.068 198.024 242.049 198.064C242.039 198.084 242.031 198.101 242.024 198.115L242.015 198.134L242.012 198.142L242.01 198.145L242.009 198.147L242.009 198.148C242.009 198.148 242.008 198.148 243.826 198.983L242.008 198.148L241.979 198.213L241.954 198.279L241.954 198.279L241.954 198.279L241.954 198.279L241.954 198.28L241.951 198.286L241.94 198.316C241.93 198.343 241.913 198.385 241.892 198.44C241.849 198.551 241.785 198.715 241.701 198.924C241.533 199.342 241.287 199.937 240.979 200.637C240.36 202.045 239.508 203.842 238.548 205.471C236.58 208.813 235.254 210.515 234.421 211.332C234.391 211.171 234.363 210.974 234.343 210.735C234.283 210.023 234.303 209.333 234.325 208.571C234.337 208.144 234.35 207.696 234.35 207.208C234.35 205.627 234.405 204.26 234.454 203.048C234.458 202.944 234.462 202.841 234.466 202.739C234.516 201.488 234.559 200.316 234.486 199.325C234.413 198.342 234.213 197.253 233.564 196.322C232.866 195.318 231.853 194.78 230.737 194.511L230.737 194.511C229.525 194.218 228.602 194.037 225.796 194.008L225.796 194.008C224.082 193.991 222.415 193.992 220.955 194.107C219.531 194.22 218.083 194.454 216.911 195.029C216.063 195.444 215.339 196.086 214.881 196.692C214.682 196.954 214.36 197.43 214.25 198.028C214.193 198.337 214.145 198.95 214.517 199.574C214.935 200.275 215.61 200.541 216.101 200.607L216.102 200.607C216.321 200.636 216.661 200.702 216.988 200.834C217.325 200.97 217.509 201.121 217.594 201.236L217.594 201.236C217.754 201.454 217.954 202.077 218.067 202.98C218.116 203.371 218.139 203.732 218.149 203.995C218.154 204.126 218.156 204.229 218.157 204.298C218.158 204.332 218.158 204.357 218.158 204.371L218.158 204.384L218.158 204.384L218.158 204.385L218.158 204.386L218.158 204.386L218.158 204.387L218.157 204.463L218.162 204.542L218.162 204.542L218.162 204.542L218.162 204.543L218.162 204.545L218.163 204.559L218.167 204.621C218.17 204.676 218.175 204.76 218.181 204.868C218.192 205.085 218.206 205.398 218.217 205.779C218.24 206.544 218.251 207.562 218.206 208.6C218.161 209.656 218.062 210.649 217.889 211.396C217.88 211.436 217.871 211.474 217.862 211.51C217.828 211.478 217.792 211.442 217.755 211.404C216.865 210.504 215.572 208.689 213.668 205.399L213.668 205.398C212.736 203.787 211.907 202.073 211.308 200.748C211.01 200.089 210.771 199.533 210.608 199.144C210.526 198.95 210.464 198.797 210.422 198.695C210.401 198.644 210.386 198.605 210.376 198.58L210.365 198.552L210.362 198.546L210.362 198.545L210.362 198.545L210.362 198.545L210.362 198.545L210.358 198.536L210.354 198.526L208.502 199.281C210.354 198.526 210.354 198.526 210.354 198.525L210.354 198.524L210.353 198.523L210.351 198.519L210.348 198.511L210.34 198.492C210.334 198.477 210.326 198.46 210.318 198.441C210.3 198.401 210.277 198.351 210.249 198.292C210.192 198.176 210.111 198.02 210.005 197.845C209.81 197.526 209.45 197.007 208.894 196.597L208.893 196.597C208.335 196.187 207.733 195.957 207.342 195.834C207.133 195.768 206.952 195.722 206.818 195.691C206.751 195.676 206.694 195.664 206.65 195.656C206.629 195.652 206.61 195.648 206.595 195.645L206.574 195.642L206.566 195.64L206.563 195.64L206.561 195.639L206.56 195.639C206.56 195.639 206.56 195.639 206.231 197.612L206.56 195.639L206.39 195.611L206.218 195.612L197.073 195.672L197.052 195.672L197.03 195.673L197.086 197.672C197.03 195.673 197.03 195.673 197.029 195.673L197.028 195.673L197.027 195.673L197.022 195.673L197.013 195.673L196.987 195.674C196.967 195.675 196.941 195.676 196.911 195.678C196.851 195.681 196.771 195.687 196.675 195.696C196.487 195.714 196.224 195.746 195.931 195.807C195.488 195.899 194.406 196.158 193.681 197.016L193.681 197.017C192.862 197.986 192.984 199.18 193.042 199.595C193.082 199.883 193.143 200.132 193.192 200.305C193.218 200.393 193.241 200.467 193.26 200.524C193.27 200.552 193.278 200.576 193.285 200.596L193.294 200.622L193.298 200.632L193.3 200.636L193.301 200.638L193.301 200.639C193.301 200.64 193.301 200.64 195.173 199.936M195.173 199.936L193.334 200.722L193.317 200.682L193.301 200.64L195.173 199.936ZM256.079 232.359C256.202 234.355 256.203 234.355 256.203 234.355L256.205 234.355L256.209 234.354L256.218 234.354L256.241 234.352C256.258 234.351 256.28 234.349 256.306 234.347C256.358 234.342 256.427 234.335 256.509 234.325C256.672 234.305 256.895 234.272 257.154 234.218C257.644 234.115 258.379 233.913 259.073 233.499C259.778 233.079 260.618 232.327 260.905 231.096C261.187 229.882 260.822 228.663 260.142 227.535L260.141 227.533C260.143 227.536 260.162 227.567 260.064 227.392C259.998 227.272 259.907 227.114 259.787 226.918C259.546 226.527 259.198 226.006 258.694 225.348C257.687 224.036 256.062 222.187 253.435 219.749L253.435 219.749C252.03 218.445 251.23 217.701 250.772 217.108C250.566 216.841 250.515 216.708 250.504 216.671C250.503 216.67 250.503 216.669 250.503 216.668C250.5 216.663 250.497 216.655 250.508 216.603C250.564 216.335 250.823 215.798 251.739 214.552C252.186 213.945 252.683 213.302 253.272 212.541C253.893 211.739 254.615 210.805 255.489 209.641C257.482 206.985 258.937 204.767 259.838 202.989C260.287 202.101 260.632 201.257 260.821 200.479C261.003 199.731 261.095 198.828 260.783 197.957C260.783 197.957 260.783 197.957 260.783 197.957L258.901 198.632C258.433 197.327 255.541 197.672 255.541 197.672L255.529 195.672L255.433 195.672M256.079 232.359L255.433 195.672M256.079 232.359L256.202 234.355L256.154 234.358L256.107 234.358L247.687 234.476M256.079 232.359L247.687 234.476M255.433 195.672L246.007 195.731M255.433 195.672L246.007 195.731M246.007 195.731C245.977 195.728 245.944 195.726 245.909 195.724C245.772 195.716 245.586 195.713 245.37 195.726C244.976 195.751 244.302 195.843 243.648 196.234L246.007 195.731ZM247.687 234.476C247.581 234.489 247.446 234.501 247.284 234.507C246.959 234.52 246.526 234.508 246.008 234.429C244.965 234.269 243.615 233.839 242.146 232.83L247.687 234.476ZM235.342 225.925C235.342 225.925 235.34 225.926 235.337 225.927C235.341 225.925 235.342 225.924 235.342 225.925ZM235.096 225.958C235.087 225.956 235.082 225.955 235.082 225.954C235.081 225.954 235.086 225.955 235.096 225.958ZM218.042 199.147C218.041 199.147 218.045 199.139 218.057 199.124C218.057 199.124 218.057 199.124 218.057 199.124C218.048 199.139 218.042 199.147 218.042 199.147ZM217.616 212.196C217.616 212.196 217.618 212.192 217.624 212.184C217.619 212.193 217.616 212.196 217.616 212.196Z" fill="#F3F2F2" stroke="#525D77" stroke-width="4"/>
<path d="M41 117C15.0003 109 -15.3984 151.626 15 181C59.4998 224 87.9998 117 183.5 117C228.546 117 261.667 155.167 273 169.5" stroke="#DBD9D5" stroke-width="4" stroke-dasharray="8 8"/>
<rect x="42" y="16" width="263" height="144" stroke="#525D77" stroke-width="4"/>
<path d="M319.02 205.04C345.541 205.04 367.04 183.541 367.04 157.02C367.04 130.499 345.541 109 319.02 109C292.499 109 271 130.499 271 157.02C271 183.541 292.499 205.04 319.02 205.04Z" fill="#F3F2F2" stroke="#525D77" stroke-width="4"/>
<path fill-rule="evenodd" clip-rule="evenodd" d="M292.711 156.5C306.705 150.423 316.021 146.384 320.699 144.425C334.014 138.868 336.813 137.908 338.612 137.868C339.012 137.868 339.891 137.948 340.491 138.428C340.971 138.828 341.091 139.347 341.171 139.747C341.251 140.147 341.331 140.987 341.251 141.626C340.531 149.223 337.412 167.656 335.813 176.132C335.133 179.73 333.814 180.93 332.534 181.05C329.736 181.29 327.616 179.211 324.938 177.451C320.699 174.693 318.34 172.973 314.222 170.254C309.464 167.136 312.543 165.416 315.262 162.618C315.981 161.898 328.256 150.703 328.496 149.703C328.536 149.583 328.536 149.103 328.256 148.863C327.976 148.623 327.577 148.703 327.257 148.783C326.817 148.863 320.1 153.341 307.025 162.178C305.106 163.497 303.387 164.137 301.827 164.097C300.108 164.057 296.829 163.137 294.35 162.338C291.352 161.378 288.953 160.858 289.153 159.179C289.272 158.299 290.472 157.42 292.711 156.5Z" fill="#525D77"/>
</svg>
