<svg width="370" height="238" viewBox="0 0 370 238" fill="none" xmlns="http://www.w3.org/2000/svg">
<path d="M115.247 62.2263V28.6944L111.703 28.2381L111.717 62.2263C111.717 62.6092 111.709 62.9902 111.691 63.3711C111.615 62.4088 111.494 61.4465 111.325 60.4862L105.588 28L102.024 28.2063L107.845 61.0993C107.91 61.4763 107.97 61.8533 108.02 62.2303C107.779 61.2957 107.491 60.3691 107.158 59.4525L96.136 29.2064L92.7787 30.3095L103.838 60.6568C103.969 61.016 104.092 61.3771 104.205 61.7402C103.806 60.8612 103.361 59.9981 102.874 59.1549L87.7329 32.9603L84.896 35.1052L99.8171 60.9168C100.008 61.2481 100.193 61.5834 100.367 61.9207C99.8211 61.1251 99.2351 60.3513 98.6053 59.6053L81.1792 38.9207L79.0535 41.8215L95.8996 61.8731C96.146 62.1668 96.3844 62.4644 96.6168 62.766C95.9413 62.0775 95.2282 61.4168 94.4792 60.7898L76.7154 45.9147L75.2195 49.2501L92.2106 63.4902C92.5046 63.7362 92.7907 63.9882 93.0708 64.2442C92.2861 63.6846 91.4716 63.1588 90.6273 62.6727L73.9024 52.9564L72.9309 56.4068L88.8473 65.7184L88.8573 65.7243C89.189 65.9148 89.5148 66.1132 89.8366 66.3176C88.9665 65.9009 88.0706 65.5259 87.1528 65.1906L72.19 59.762L71.6119 63.2977L85.9449 68.5081C86.3025 68.637 86.6541 68.7759 87.0038 68.9188C86.0761 68.6608 85.1324 68.4485 84.1729 68.2799L71.2642 66.0517L71 69.5418L83.5591 71.7541C87.0376 72.3672 90.2916 73.641 93.2297 75.5418C96.0685 77.3771 98.4961 79.7184 100.445 82.4982C102.394 85.278 103.766 88.3573 104.523 91.649C105.306 95.0558 105.391 98.5458 104.78 102.02L108.258 102.633C108.953 98.6907 108.856 94.7304 107.966 90.8593C107.428 88.52 106.617 86.278 105.544 84.153C111.727 78.5339 115.247 70.6231 115.247 62.2263Z" fill="#F2B43F"/>
<path d="M90.7982 91.7086C92.6666 91.7086 94.1813 90.1958 94.1813 88.3297C94.1813 86.4635 92.6666 84.9507 90.7982 84.9507C88.9297 84.9507 87.415 86.4635 87.415 88.3297C87.415 90.1958 88.9297 91.7086 90.7982 91.7086Z" fill="#F2B43F"/>
<path fill-rule="evenodd" clip-rule="evenodd" d="M40 0H307V18H40V0ZM44 4V14H303V4H44Z" fill="#525D77"/>
<path fill-rule="evenodd" clip-rule="evenodd" d="M53 131H295V149H53V131ZM57 135V145H291V135H57Z" fill="#525D77"/>
<path d="M59 9C59 10.1046 58.1046 11 57 11C55.8954 11 55 10.1046 55 9C55 7.89543 55.8954 7 57 7C58.1046 7 59 7.89543 59 9Z" fill="#525D77"/>
<path d="M66 9C66 10.1046 65.1046 11 64 11C62.8954 11 62 10.1046 62 9C62 7.89543 62.8954 7 64 7C65.1046 7 66 7.89543 66 9Z" fill="#525D77"/>
<path d="M73 9C73 10.1046 72.1046 11 71 11C69.8954 11 69 10.1046 69 9C69 7.89543 69.8954 7 71 7C72.1046 7 73 7.89543 73 9Z" fill="#525D77"/>
<path fill-rule="evenodd" clip-rule="evenodd" d="M275 47H141V43H275V47Z" fill="#DBD9D5"/>
<path fill-rule="evenodd" clip-rule="evenodd" d="M275 69H141V65H275V69Z" fill="#DBD9D5"/>
<path fill-rule="evenodd" clip-rule="evenodd" d="M275 58H141V54H275V58Z" fill="#DBD9D5"/>
<path fill-rule="evenodd" clip-rule="evenodd" d="M275 80H141V76H275V80Z" fill="#DBD9D5"/>
<path fill-rule="evenodd" clip-rule="evenodd" d="M37.1752 52.6764C37.8966 51.3177 38.6067 50.0729 39.2965 48.9519L42.7031 51.0483C42.063 52.0884 41.3948 53.2587 40.7081 54.5521L37.1752 52.6764ZM30.4277 68.2446C31.4374 65.4293 32.4759 62.7961 33.5174 60.3691L37.1933 61.9465C36.185 64.2961 35.1761 66.8535 34.1929 69.5949L30.4277 68.2446ZM25.5668 84.4236C26.2615 81.604 27.0073 78.8837 27.789 76.2765L31.6205 77.4253C30.8575 79.9699 30.1292 82.6262 29.4506 85.3805L25.5668 84.4236ZM22.3343 100.992C22.7446 98.1519 23.2198 95.373 23.7483 92.6652L27.6742 93.4315C27.1579 96.0768 26.6939 98.7909 26.2931 101.564L22.3343 100.992ZM20.7723 117.808C20.8875 114.959 21.0787 112.147 21.3367 109.38L25.3194 109.751C25.0677 112.451 24.8813 115.193 24.7691 117.97L20.7723 117.808ZM21.0283 134.716C20.822 131.877 20.7026 129.057 20.6616 126.263L24.6612 126.204C24.701 128.924 24.8173 131.667 25.0178 134.426L21.0283 134.716ZM22.527 147.329C22.2939 145.93 22.0842 144.533 21.897 143.139L25.8614 142.607C26.0431 143.96 26.2465 145.315 26.4726 146.671C26.6961 148.012 26.9294 149.337 27.1723 150.644L23.2396 151.374C22.9921 150.043 22.7545 148.694 22.527 147.329ZM26.8852 167.331C26.1762 164.756 25.5105 162.104 24.8895 159.375L28.7898 158.487C29.3979 161.16 30.0492 163.754 30.7418 166.27L26.8852 167.331ZM32.0479 182.9C31.0667 180.416 30.1344 177.84 29.253 175.171L33.0512 173.917C33.9096 176.516 34.8161 179.02 35.7682 181.43L32.0479 182.9ZM172.792 189.899C170.191 188.797 167.407 188.007 164.451 187.655L164.925 183.683C168.289 184.084 171.437 184.981 174.352 186.216L172.792 189.899ZM155.825 187.895C154.446 188.132 153.034 188.467 151.588 188.912C150.25 189.323 149.021 189.801 147.888 190.335L146.183 186.717C147.493 186.099 148.899 185.554 150.412 185.089C152.018 184.594 153.598 184.219 155.148 183.953L155.825 187.895ZM39.109 197.78C37.7883 195.453 36.523 193.013 35.3161 190.459L38.9327 188.75C40.0987 191.217 41.3183 193.569 42.5878 195.806L39.109 197.78ZM186.965 200.168C185.037 198.104 182.832 196.074 180.371 194.263L182.742 191.041C185.43 193.019 187.818 195.221 189.888 197.438L186.965 200.168ZM141.464 194.744C139.544 196.586 137.961 198.694 136.551 200.988L133.144 198.892C134.679 196.396 136.465 193.996 138.696 191.857L141.464 194.744ZM48.5114 211.395C46.7734 209.335 45.0976 207.135 43.4881 204.793L46.7846 202.527C48.3225 204.765 49.9186 206.86 51.5683 208.815L48.5114 211.395ZM194.724 210.921C194.165 209.842 193.414 208.554 192.477 207.141L195.811 204.931C196.82 206.452 197.645 207.863 198.275 209.079L194.724 210.921ZM132.048 209.631C131.041 211.739 130.009 213.9 128.878 215.984L125.363 214.075C126.44 212.092 127.418 210.043 128.423 207.939C128.641 207.483 128.859 207.026 129.081 206.565L132.686 208.298C132.474 208.739 132.262 209.184 132.048 209.631ZM60.6324 222.791C58.4286 221.183 56.2898 219.402 54.2219 217.448L56.9691 214.541C58.9179 216.382 60.927 218.054 62.9904 219.56L60.6324 222.791ZM123.947 223.367C122.05 225.593 119.803 227.606 117.031 229.264L114.977 225.832C117.33 224.424 119.252 222.71 120.902 220.773L123.947 223.367ZM75.3733 230.666C72.7605 229.724 70.2047 228.586 67.7138 227.251L69.6032 223.725C71.9237 224.969 74.3015 226.027 76.7302 226.903L75.3733 230.666ZM108.669 232.648C107.287 232.992 105.823 233.272 104.268 233.482C102.877 233.67 101.493 233.815 100.115 233.916L99.8216 229.927C101.117 229.832 102.421 229.695 103.732 229.518C105.151 229.326 106.471 229.073 107.701 228.767L108.669 232.648ZM91.7566 233.99C88.9472 233.827 86.1758 233.473 83.4505 232.922L84.242 229.002C86.7783 229.514 89.3622 229.845 91.9874 229.996L91.7566 233.99Z" fill="#DBD9D5"/>
<path fill-rule="evenodd" clip-rule="evenodd" d="M234 91H141V87H234V91Z" fill="#DBD9D5"/>
<path fill-rule="evenodd" clip-rule="evenodd" d="M37.4964 114.208C38.8663 114.381 40.233 114.671 41.5881 115.088L40.4117 118.912C39.2801 118.563 38.14 118.321 36.9973 118.177L37.4964 114.208ZM21.4924 117.334C23.9587 116.055 26.5509 115.107 29.2106 114.559L30.0175 118.477C27.7476 118.944 25.5018 119.761 23.3338 120.885L21.4924 117.334ZM183.5 119C182.152 119 180.817 119.022 179.496 119.064L179.367 115.066C180.731 115.022 182.109 115 183.5 115C184.82 115 186.131 115.032 187.431 115.094L187.239 119.09C186.002 119.03 184.756 119 183.5 119ZM171.606 119.577C168.937 119.839 166.326 120.187 163.77 120.614L163.111 116.669C165.755 116.227 168.456 115.867 171.215 115.596L171.606 119.577ZM202.03 121.207C199.625 120.634 197.174 120.162 194.681 119.803L195.25 115.844C197.868 116.22 200.437 116.715 202.957 117.316L202.03 121.207ZM156.022 122.182C153.423 122.801 150.882 123.502 148.398 124.275L147.209 120.456C149.778 119.656 152.406 118.932 155.095 118.291L156.022 122.182ZM216.258 125.906C213.969 124.938 211.627 124.051 209.236 123.259L210.494 119.462C212.991 120.289 215.433 121.214 217.816 122.222L216.258 125.906ZM9.1954 127.711C10.879 125.563 12.7527 123.605 14.7721 121.884L17.3671 124.928C15.5565 126.471 13.867 128.235 12.3432 130.179L9.1954 127.711ZM140.926 126.876C138.438 127.835 136.007 128.865 133.632 129.956L131.962 126.322C134.411 125.197 136.918 124.134 139.488 123.144L140.926 126.876ZM229.649 132.752C227.516 131.471 225.322 130.245 223.068 129.09L224.893 125.53C227.23 126.728 229.503 127.998 231.709 129.323L229.649 132.752ZM126.53 133.478C124.176 134.731 121.876 136.041 119.629 137.396L117.564 133.97C119.868 132.581 122.229 131.236 124.651 129.947L126.53 133.478ZM242.091 141.289C240.131 139.773 238.097 138.283 235.991 136.835L238.257 133.539C240.428 135.031 242.522 136.566 244.538 138.125L242.091 141.289ZM1.87456 141.967C2.62978 139.362 3.63687 136.855 4.85446 134.487L8.41178 136.316C7.3085 138.462 6.39802 140.729 5.71641 143.08L1.87456 141.967ZM112.925 141.663C110.702 143.152 108.53 144.678 106.406 146.23L104.046 143C106.21 141.419 108.427 139.861 110.7 138.339L112.925 141.663ZM253.579 151.145C251.798 149.462 249.92 147.762 247.95 146.069L250.556 143.035C252.578 144.772 254.503 146.514 256.326 148.238L253.579 151.145ZM100.04 151.054C97.9165 152.719 95.8418 154.397 93.8107 156.076L91.262 152.993C93.3152 151.296 95.4172 149.595 97.5721 147.906L100.04 151.054ZM0.631011 157.989C0.26497 155.262 0.205961 152.554 0.416921 149.902L4.40433 150.219C4.21514 152.597 4.26842 155.02 4.59546 157.457L0.631011 157.989ZM264.129 162.03C262.555 160.263 260.831 158.395 258.963 156.466L261.836 153.684C263.747 155.656 265.509 157.565 267.116 159.37L264.129 162.03ZM87.6837 161.239C85.6184 163.007 83.5987 164.758 81.6158 166.479L78.9938 163.458C80.9766 161.737 83.0056 159.978 85.0825 158.2L87.6837 161.239ZM6.06077 173.109C4.6037 170.721 3.44356 168.289 2.55719 165.838L6.3188 164.478C7.11291 166.674 8.15614 168.864 9.47508 171.025L6.06077 173.109ZM271.431 170.741C270.723 169.844 269.928 168.854 269.051 167.786L272.141 165.247C273.037 166.337 273.847 167.347 274.569 168.26L271.431 170.741ZM75.5054 171.764C73.4047 173.565 71.3409 175.309 69.3098 176.97L66.7773 173.874C68.7757 172.24 70.8139 170.517 72.9017 168.727L75.5054 171.764ZM13.6101 182.438C12.6302 181.491 11.7094 180.53 10.8461 179.555L13.8406 176.903C14.6338 177.798 15.4827 178.685 16.3896 179.562C17.3768 180.516 18.3517 181.389 19.3152 182.186L16.7652 185.268C15.7173 184.401 14.666 183.459 13.6101 182.438ZM62.8978 181.988C60.6151 183.678 58.3564 185.232 56.1128 186.609L54.0206 183.2C56.1432 181.897 58.3044 180.412 60.5173 178.773L62.8978 181.988ZM31.895 192.797C29.1884 192.317 26.4855 191.393 23.7725 189.984L25.6162 186.434C27.9945 187.67 30.3127 188.454 32.5924 188.858L31.895 192.797ZM48.7091 190.476C46.0061 191.617 43.2886 192.441 40.5421 192.865L39.9321 188.912C42.2987 188.547 44.6978 187.828 47.1539 186.791L48.7091 190.476Z" fill="#DBD9D5"/>
<path fill-rule="evenodd" clip-rule="evenodd" d="M40 14H307V162H40V14ZM44 18V158H303V18H44Z" fill="#525D77"/>
<path d="M319.02 205.04C345.541 205.04 367.04 183.541 367.04 157.02C367.04 130.499 345.541 109 319.02 109C292.499 109 271 130.499 271 157.02C271 183.541 292.499 205.04 319.02 205.04Z" fill="#F3F2F2"/>
<path fill-rule="evenodd" clip-rule="evenodd" d="M319.02 111C293.604 111 273 131.604 273 157.02C273 182.436 293.604 203.04 319.02 203.04C344.436 203.04 365.04 182.436 365.04 157.02C365.04 131.604 344.436 111 319.02 111ZM269 157.02C269 129.395 291.395 107 319.02 107C346.645 107 369.04 129.395 369.04 157.02C369.04 184.645 346.645 207.04 319.02 207.04C291.395 207.04 269 184.645 269 157.02Z" fill="#525D77"/>
<path fill-rule="evenodd" clip-rule="evenodd" d="M292.711 156.5C306.705 150.423 316.021 146.384 320.699 144.425C334.014 138.868 336.812 137.908 338.612 137.868C339.012 137.868 339.891 137.948 340.491 138.428C340.971 138.828 341.091 139.347 341.171 139.747C341.251 140.147 341.331 140.987 341.251 141.626C340.531 149.223 337.412 167.656 335.813 176.132C335.133 179.73 333.814 180.93 332.534 181.05C329.735 181.29 327.616 179.211 324.937 177.451C320.699 174.693 318.34 172.973 314.222 170.254C309.464 167.136 312.543 165.416 315.261 162.618C315.981 161.898 328.256 150.703 328.496 149.703C328.536 149.583 328.536 149.103 328.256 148.863C327.976 148.623 327.576 148.703 327.256 148.783C326.817 148.863 320.099 153.341 307.025 162.178C305.106 163.497 303.386 164.137 301.827 164.097C300.108 164.057 296.829 163.137 294.35 162.338C291.351 161.378 288.952 160.858 289.152 159.179C289.272 158.299 290.472 157.42 292.711 156.5Z" fill="#525D77"/>
<path fill-rule="evenodd" clip-rule="evenodd" d="M260.443 229.632C258.812 226.32 256.663 223.294 254.078 220.671C253.198 219.64 252.167 218.622 251.361 217.828L251.249 217.717C250.834 217.307 250.49 216.967 250.21 216.674C253.744 211.719 256.769 206.413 259.238 200.838L259.337 200.613L259.407 200.377C259.731 199.28 260.105 197.193 258.783 195.308C257.417 193.359 255.23 193.007 253.765 193.007H247.026C245.621 192.942 244.23 193.325 243.051 194.104C241.863 194.888 240.955 196.032 240.455 197.37C239.004 200.855 237.188 204.17 235.04 207.26V199.297C235.04 198.268 234.944 196.546 233.851 195.093C232.542 193.353 230.65 193.007 229.336 193.007H218.643C217.265 192.975 215.925 193.472 214.895 194.399C213.841 195.348 213.195 196.674 213.094 198.096L213.084 198.231V198.366C213.084 199.834 213.661 200.917 214.122 201.598C214.328 201.903 214.549 202.18 214.688 202.355L214.721 202.396C214.869 202.583 214.969 202.708 215.068 202.844C215.33 203.203 215.707 203.757 215.814 205.191V209.644C213.97 206.589 212.025 202.523 210.562 198.181L210.54 198.114L210.515 198.048C210.15 197.085 209.565 195.683 208.393 194.611C207.024 193.357 205.404 193.007 203.931 193.007H197.094C195.604 193.007 193.808 193.359 192.467 194.784C191.149 196.186 191 197.865 191 198.758V199.161L191.084 199.554C192.978 208.417 196.88 216.717 202.485 223.804C205.026 227.844 208.469 231.23 212.54 233.691C216.676 236.192 221.342 237.666 226.153 237.992L226.279 238H226.405C228.581 238 230.851 237.811 232.557 236.664C234.859 235.118 235.04 232.742 235.04 231.558V228.118C235.631 228.599 236.364 229.247 237.261 230.118C238.346 231.213 239.21 232.162 239.951 232.989L240.346 233.433L240.348 233.435C240.923 234.081 241.49 234.717 242.005 235.239C242.653 235.896 243.452 236.62 244.457 237.155C245.544 237.734 246.686 237.995 247.898 237.995H254.74C256.182 237.995 258.249 237.652 259.703 235.953C261.287 234.101 261.166 231.831 260.668 230.2L260.578 229.907L260.443 229.632ZM243.291 229.951C242.52 229.09 241.592 228.07 240.418 226.887L240.408 226.877C236.341 222.924 234.441 222.235 233.097 222.235C232.382 222.235 231.592 222.316 231.078 222.96C230.836 223.264 230.709 223.631 230.638 224.014C230.566 224.396 230.542 224.844 230.542 225.355V231.558C230.542 232.329 230.416 232.652 230.063 232.89C229.592 233.206 228.586 233.463 226.43 233.464C222.338 233.183 218.371 231.928 214.853 229.802C211.328 227.671 208.356 224.726 206.181 221.21L206.157 221.172L206.129 221.137C200.907 214.583 197.268 206.896 195.499 198.682C195.509 198.286 195.594 198.051 195.732 197.904C195.874 197.753 196.218 197.543 197.094 197.543H203.931C204.692 197.543 205.086 197.709 205.369 197.969C205.69 198.263 205.969 198.762 206.307 199.653C207.986 204.63 210.255 209.285 212.404 212.707C213.478 214.417 214.536 215.841 215.488 216.847C215.964 217.35 216.43 217.766 216.875 218.062C217.306 218.348 217.794 218.574 218.296 218.574C218.561 218.574 218.871 218.547 219.17 218.413C219.491 218.27 219.74 218.031 219.916 217.711C220.227 217.145 220.312 216.307 220.312 215.208V205.037L220.311 205.013C220.155 202.539 219.414 201.147 218.693 200.158C218.535 199.941 218.379 199.745 218.242 199.573L218.205 199.527C218.055 199.338 217.936 199.186 217.838 199.041C217.658 198.776 217.589 198.591 217.583 198.393C217.606 198.158 217.716 197.94 217.892 197.782C218.074 197.618 218.312 197.532 218.556 197.543H229.336C229.954 197.543 230.162 197.695 230.267 197.834C230.415 198.031 230.542 198.439 230.542 199.297V212.99C230.542 214.617 231.285 215.718 232.365 215.718C233.608 215.718 234.504 214.958 236.071 213.378L236.097 213.352L236.12 213.323C239.631 209.006 242.501 204.197 244.637 199.046L244.651 199.007C244.811 198.552 245.115 198.162 245.516 197.897C245.917 197.633 246.393 197.507 246.871 197.541L246.897 197.543H253.765C254.701 197.543 255.01 197.783 255.109 197.925C255.215 198.076 255.289 198.4 255.109 199.036C252.646 204.589 249.601 209.859 246.027 214.76L246.004 214.794C245.657 215.329 245.277 215.921 245.221 216.601C245.162 217.331 245.476 217.995 246.024 218.706C246.423 219.301 247.247 220.114 248.083 220.939L248.162 221.017C249.038 221.882 249.987 222.818 250.749 223.725L250.77 223.749L250.792 223.772C253.064 226.056 254.953 228.698 256.385 231.592C256.614 232.38 256.474 232.783 256.296 232.99C256.089 233.233 255.622 233.46 254.74 233.46H247.898C247.364 233.46 246.951 233.354 246.557 233.144C246.147 232.925 245.724 232.578 245.195 232.041C244.768 231.609 244.302 231.085 243.734 230.448C243.593 230.29 243.445 230.124 243.291 229.951Z" fill="#525D77"/>
</svg>
