<svg width="770" height="737" viewBox="0 0 770 737" fill="none" xmlns="http://www.w3.org/2000/svg">
<g opacity="0.1">
<path fill-rule="evenodd" clip-rule="evenodd" d="M5.63592 733.916C2.52369 733.916 0 731.154 0 727.745V556.095C0 552.686 2.52369 549.923 5.63592 549.923C8.74749 549.923 11.2725 552.686 11.2725 556.095V641.92V727.745C11.2725 731.154 8.74749 733.916 5.63592 733.916Z" fill="#A5B9C4"/>
<path fill-rule="evenodd" clip-rule="evenodd" d="M503.795 731.347C503.795 734.469 497.443 737 489.602 737L94.8364 737C86.9953 737 80.6416 734.469 80.6416 731.347C80.6416 728.226 86.9953 725.693 94.8364 725.693L292.219 725.693L489.602 725.693C497.443 725.693 503.795 728.226 503.795 731.347Z" fill="#A5B9C4"/>
<path fill-rule="evenodd" clip-rule="evenodd" d="M246.746 393.683H144.325C141.241 393.683 138.739 391.138 138.739 387.998V350.029C138.739 346.89 141.241 344.344 144.325 344.344H246.746C249.83 344.344 252.332 346.89 252.332 350.029V387.998C252.332 391.138 249.83 393.683 246.746 393.683ZM149.912 382.315H241.16V355.713H149.912V382.315Z" fill="#A5B9C4"/>
<path fill-rule="evenodd" clip-rule="evenodd" d="M249.357 514.975H142.58C139.501 514.975 137.004 512.459 137.004 509.356V407.526C137.004 404.422 139.501 401.906 142.58 401.906H249.357C252.436 401.906 254.932 404.422 254.932 407.526V509.356C254.932 512.459 252.436 514.975 249.357 514.975ZM148.157 503.736H243.78V413.144H148.157V503.736Z" fill="#A5B9C4"/>
<path fill-rule="evenodd" clip-rule="evenodd" d="M277.095 535.533H114.841C111.757 535.533 109.257 532.99 109.257 529.856V509.346C109.257 506.21 111.757 503.668 114.841 503.668H277.095C280.18 503.668 282.68 506.21 282.68 509.346V529.856C282.68 532.99 280.18 535.533 277.095 535.533ZM120.426 524.179H271.51V515.022H120.426V524.179Z" fill="#A5B9C4"/>
<path fill-rule="evenodd" clip-rule="evenodd" d="M277.095 413.214H114.841C111.757 413.214 109.257 410.754 109.257 407.72V387.87C109.257 384.837 111.757 382.377 114.841 382.377H277.095C280.18 382.377 282.68 384.837 282.68 387.87V407.72C282.68 410.754 280.18 413.214 277.095 413.214ZM120.426 402.226H271.51V393.364H120.426V402.226Z" fill="#A5B9C4"/>
<path fill-rule="evenodd" clip-rule="evenodd" d="M80.1432 737C77.0654 737 74.5713 734.48 74.5713 731.372V529.855C74.5713 526.747 77.0654 524.226 80.1432 524.226H310.925C314.002 524.226 316.497 526.747 316.497 529.855V656.543C316.497 659.652 314.002 662.172 310.925 662.172C307.846 662.172 305.353 659.652 305.353 656.543V535.485H85.715V731.372C85.715 734.48 83.2208 737 80.1432 737Z" fill="#A5B9C4"/>
<path fill-rule="evenodd" clip-rule="evenodd" d="M246.746 355.651C243.661 355.651 241.16 353.138 241.16 350.036C241.16 324.751 220.693 304.18 195.536 304.18C170.378 304.18 149.912 324.751 149.912 350.036C149.912 353.138 147.41 355.651 144.325 355.651C141.241 355.651 138.739 353.138 138.739 350.036C138.739 318.558 164.218 292.95 195.536 292.95C226.853 292.95 252.332 318.558 252.332 350.036C252.332 353.138 249.83 355.651 246.746 355.651Z" fill="#A5B9C4"/>
<path fill-rule="evenodd" clip-rule="evenodd" d="M195.969 342.289C186.883 342.289 179.493 334.911 179.493 325.843C179.493 316.774 186.883 309.396 195.969 309.396C205.053 309.396 212.444 316.774 212.444 325.843C212.444 334.911 205.053 342.289 195.969 342.289ZM195.969 315.044C190.005 315.044 185.154 319.889 185.154 325.843C185.154 331.797 190.005 336.641 195.969 336.641C201.931 336.641 206.782 331.797 206.782 325.843C206.782 319.889 201.931 315.044 195.969 315.044Z" fill="#A5B9C4"/>
<path fill-rule="evenodd" clip-rule="evenodd" d="M128.522 679.438C126.982 679.438 125.731 678.181 125.731 676.632V656.587C125.731 617.611 157.273 585.9 196.046 585.9C213.973 585.9 231.047 592.688 244.123 605.016C257.135 617.282 264.974 633.86 266.198 651.694C266.304 653.239 265.143 654.579 263.606 654.686C262.066 654.795 260.736 653.625 260.629 652.078C259.503 635.664 252.285 620.403 240.304 609.108C228.267 597.76 212.549 591.51 196.046 591.51C160.353 591.51 131.313 620.705 131.313 656.587V676.632C131.313 678.181 130.065 679.438 128.522 679.438Z" fill="#A5B9C4"/>
<path fill-rule="evenodd" clip-rule="evenodd" d="M265.985 624.96C264.956 624.96 263.963 624.386 263.467 623.395C259.195 614.861 253.43 607.294 246.326 600.907C239.186 594.488 231.036 589.566 222.101 586.281C220.639 585.742 219.885 584.109 220.418 582.633C220.952 581.156 222.57 580.394 224.033 580.933C233.641 584.466 242.403 589.758 250.079 596.66C257.712 603.523 263.91 611.655 268.502 620.83C269.205 622.233 268.646 623.944 267.255 624.653C266.848 624.861 266.414 624.96 265.985 624.96Z" fill="#A5B9C4"/>
<path fill-rule="evenodd" clip-rule="evenodd" d="M272.167 642.434C270.928 642.434 269.812 641.56 269.529 640.273C268.745 636.714 267.688 633.177 266.39 629.762C265.847 628.337 266.539 626.731 267.932 626.177C269.325 625.622 270.893 626.328 271.435 627.754C272.831 631.424 273.967 635.226 274.809 639.054C275.139 640.546 274.222 642.029 272.765 642.365C272.564 642.411 272.364 642.434 272.167 642.434Z" fill="#A5B9C4"/>
<path fill-rule="evenodd" clip-rule="evenodd" d="M142.404 733.916C140.859 733.916 139.606 732.659 139.606 731.111V657.857C139.606 626.682 164.89 601.318 195.969 601.318C227.047 601.318 252.332 626.682 252.332 657.857V665.717C252.332 667.267 251.079 668.522 249.534 668.522C247.989 668.522 246.737 667.267 246.737 665.717V657.857C246.737 629.776 223.962 606.931 195.969 606.931C167.975 606.931 145.202 629.776 145.202 657.857V731.111C145.202 732.659 143.948 733.916 142.404 733.916Z" fill="#A5B9C4"/>
<path fill-rule="evenodd" clip-rule="evenodd" d="M159.898 737C156.834 737 154.347 734.482 154.347 731.377V661.653C154.347 638.586 172.869 619.82 195.633 619.82C205.924 619.82 215.786 623.684 223.398 630.698C230.961 637.669 235.684 647.161 236.695 657.426C236.999 660.516 234.772 663.272 231.722 663.58C228.673 663.888 225.952 661.632 225.647 658.542C224.909 651.05 221.458 644.116 215.929 639.021C210.365 633.894 203.157 631.07 195.633 631.07C178.99 631.07 165.448 644.79 165.448 661.653V731.377C165.448 734.482 162.963 737 159.898 737Z" fill="#A5B9C4"/>
<path fill-rule="evenodd" clip-rule="evenodd" d="M205.151 304.257H186.786C183.717 304.257 181.228 301.741 181.228 298.638V280.067C181.228 276.965 183.717 274.448 186.786 274.448H205.151C208.221 274.448 210.71 276.965 210.71 280.067V298.638C210.71 301.741 208.221 304.257 205.151 304.257ZM192.343 293.018H199.594V285.687H192.343V293.018Z" fill="#A5B9C4"/>
<path fill-rule="evenodd" clip-rule="evenodd" d="M205.147 285.753C202.165 285.753 199.697 283.364 199.596 280.33L195.969 171.854L192.34 280.33C192.236 283.427 189.666 285.844 186.598 285.749C183.53 285.645 181.127 283.049 181.231 279.95L190.413 5.42267C190.516 2.39824 192.972 0 195.969 0C198.964 0 201.422 2.39824 201.523 5.42267L210.706 279.95C210.809 283.049 208.406 285.645 205.338 285.749C205.274 285.752 205.211 285.755 205.147 285.755V285.753Z" fill="#A5B9C4"/>
<path fill-rule="evenodd" clip-rule="evenodd" d="M311.116 555.063H80.8215C79.2854 555.063 78.04 553.682 78.04 551.978C78.04 550.276 79.2854 548.895 80.8215 548.895H311.116C312.651 548.895 313.896 550.276 313.896 551.978C313.896 553.682 312.651 555.063 311.116 555.063Z" fill="#A5B9C4"/>
<path fill-rule="evenodd" clip-rule="evenodd" d="M246.95 367.986H144.987C143.451 367.986 142.207 366.606 142.207 364.902C142.207 363.2 143.451 361.819 144.987 361.819H246.95C248.485 361.819 249.73 363.2 249.73 364.902C249.73 366.606 248.485 367.986 246.95 367.986Z" fill="#A5B9C4"/>
<path fill-rule="evenodd" clip-rule="evenodd" d="M255.611 352.568H136.327C134.786 352.568 133.536 351.418 133.536 349.999C133.536 348.579 134.786 347.428 136.327 347.428H255.611C257.151 347.428 258.401 348.579 258.401 349.999C258.401 351.418 257.151 352.568 255.611 352.568Z" fill="#A5B9C4"/>
<path fill-rule="evenodd" clip-rule="evenodd" d="M213.125 282.671H177.945C176.406 282.671 175.158 281.52 175.158 280.101C175.158 278.682 176.406 277.531 177.945 277.531H213.125C214.665 277.531 215.913 278.682 215.913 280.101C215.913 281.52 214.665 282.671 213.125 282.671Z" fill="#A5B9C4"/>
<path fill-rule="evenodd" clip-rule="evenodd" d="M311.116 571.509H80.8215C79.2854 571.509 78.04 570.129 78.04 568.426C78.04 566.723 79.2854 565.342 80.8215 565.342H311.116C312.651 565.342 313.896 566.723 313.896 568.426C313.896 570.129 312.651 571.509 311.116 571.509Z" fill="#A5B9C4"/>
<path fill-rule="evenodd" clip-rule="evenodd" d="M142.051 679.438H80.7979C79.2748 679.438 78.04 678.287 78.04 676.868C78.04 675.449 79.2748 674.298 80.7979 674.298H142.051C143.573 674.298 144.808 675.449 144.808 676.868C144.808 678.287 143.573 679.438 142.051 679.438Z" fill="#A5B9C4"/>
<path fill-rule="evenodd" clip-rule="evenodd" d="M166.148 499.952C164.609 499.952 163.36 498.696 163.36 497.146V419.569C163.36 418.018 164.609 416.763 166.148 416.763C167.688 416.763 168.936 418.018 168.936 419.569V497.146C168.936 498.696 167.688 499.952 166.148 499.952Z" fill="#A5B9C4"/>
<path fill-rule="evenodd" clip-rule="evenodd" d="M154.038 499.952C152.499 499.952 151.251 498.697 151.251 497.146V419.569C151.251 418.018 152.499 416.763 154.038 416.763C155.579 416.763 156.827 418.018 156.827 419.569V497.146C156.827 498.697 155.579 499.952 154.038 499.952Z" fill="#A5B9C4"/>
<path fill-rule="evenodd" clip-rule="evenodd" d="M166.148 422.376H154.038C152.903 422.376 151.881 421.683 151.455 420.624L148.035 412.126C147.686 411.261 147.788 410.278 148.305 409.504C148.823 408.729 149.691 408.266 150.618 408.266H169.569C170.495 408.266 171.362 408.729 171.88 409.504C172.399 410.278 172.5 411.261 172.153 412.126L168.732 420.624C168.305 421.683 167.283 422.376 166.148 422.376ZM155.917 416.763H164.269L165.431 413.879H154.756L155.917 416.763Z" fill="#A5B9C4"/>
<path fill-rule="evenodd" clip-rule="evenodd" d="M169.569 508.461H150.618C149.691 508.461 148.824 507.997 148.305 507.223C147.788 506.449 147.686 505.467 148.034 504.602L151.455 496.093C151.88 495.033 152.903 494.339 154.038 494.339H166.148C167.283 494.339 168.306 495.033 168.733 496.093L172.153 504.602C172.501 505.467 172.398 506.449 171.88 507.223C171.362 507.997 170.496 508.461 169.569 508.461ZM154.754 502.848H165.433L164.268 499.952H155.918L154.754 502.848Z" fill="#A5B9C4"/>
<path fill-rule="evenodd" clip-rule="evenodd" d="M130.382 499.952C128.841 499.952 127.594 498.696 127.594 497.146V419.569C127.594 418.018 128.841 416.763 130.382 416.763C131.921 416.763 133.17 418.018 133.17 419.569V497.146C133.17 498.696 131.921 499.952 130.382 499.952Z" fill="#A5B9C4"/>
<path fill-rule="evenodd" clip-rule="evenodd" d="M118.273 499.952C116.732 499.952 115.483 498.697 115.483 497.146V419.569C115.483 418.018 116.732 416.763 118.273 416.763C119.811 416.763 121.06 418.018 121.06 419.569V497.146C121.06 498.697 119.811 499.952 118.273 499.952Z" fill="#A5B9C4"/>
<path fill-rule="evenodd" clip-rule="evenodd" d="M130.384 422.376H118.275C117.138 422.376 116.116 421.683 115.689 420.623L112.269 412.126C111.922 411.26 112.026 410.278 112.543 409.504C113.06 408.729 113.927 408.266 114.854 408.266H133.782C134.708 408.266 135.574 408.728 136.092 409.501C136.61 410.275 136.715 411.255 136.369 412.12L132.97 420.618C132.544 421.68 131.522 422.376 130.384 422.376ZM120.153 416.763H128.501L129.653 413.879H118.992L120.153 416.763Z" fill="#A5B9C4"/>
<path fill-rule="evenodd" clip-rule="evenodd" d="M133.782 508.461H114.854C113.927 508.461 113.062 507.997 112.543 507.223C112.026 506.449 111.922 505.467 112.269 504.602L115.689 496.093C116.114 495.033 117.137 494.339 118.275 494.339H130.384C131.523 494.339 132.546 495.036 132.97 496.099L136.369 504.608C136.715 505.472 136.61 506.453 136.092 507.227C135.574 507.998 134.708 508.461 133.782 508.461ZM118.989 502.848H129.656L128.501 499.952H120.153L118.989 502.848Z" fill="#A5B9C4"/>
<path fill-rule="evenodd" clip-rule="evenodd" d="M201.912 499.952C200.372 499.952 199.123 498.696 199.123 497.146V419.569C199.123 418.018 200.372 416.763 201.912 416.763C203.452 416.763 204.7 418.018 204.7 419.569V497.146C204.7 498.696 203.452 499.952 201.912 499.952Z" fill="#A5B9C4"/>
<path fill-rule="evenodd" clip-rule="evenodd" d="M189.804 499.952C188.263 499.952 187.015 498.697 187.015 497.146V419.569C187.015 418.018 188.263 416.763 189.804 416.763C191.342 416.763 192.59 418.018 192.59 419.569V497.146C192.59 498.697 191.342 499.952 189.804 499.952Z" fill="#A5B9C4"/>
<path fill-rule="evenodd" clip-rule="evenodd" d="M201.912 422.376H189.803C188.668 422.376 187.645 421.683 187.218 420.623L183.798 412.126C183.451 411.26 183.553 410.278 184.071 409.504C184.589 408.729 185.455 408.266 186.383 408.266H205.332C206.259 408.266 207.126 408.729 207.644 409.504C208.162 410.278 208.263 411.261 207.916 412.126L204.495 420.624C204.07 421.683 203.048 422.376 201.912 422.376ZM191.681 416.763H200.033L201.194 413.879H190.52L191.681 416.763Z" fill="#A5B9C4"/>
<path fill-rule="evenodd" clip-rule="evenodd" d="M205.332 508.461H186.382C185.455 508.461 184.589 507.997 184.071 507.224C183.553 506.449 183.45 505.467 183.798 504.602L187.218 496.093C187.644 495.034 188.666 494.339 189.803 494.339H201.911C203.048 494.339 204.07 495.034 204.496 496.093L207.917 504.602C208.263 505.467 208.162 506.449 207.643 507.224C207.126 507.997 206.259 508.461 205.332 508.461ZM190.518 502.848H201.195L200.032 499.952H191.682L190.518 502.848Z" fill="#A5B9C4"/>
<path fill-rule="evenodd" clip-rule="evenodd" d="M237.676 499.952C236.135 499.952 234.888 498.696 234.888 497.146V419.569C234.888 418.018 236.135 416.763 237.676 416.763C239.216 416.763 240.463 418.018 240.463 419.569V497.146C240.463 498.696 239.216 499.952 237.676 499.952Z" fill="#A5B9C4"/>
<path fill-rule="evenodd" clip-rule="evenodd" d="M225.564 499.952C224.025 499.952 222.777 498.697 222.777 497.146V419.569C222.777 418.018 224.025 416.763 225.564 416.763C227.106 416.763 228.354 418.018 228.354 419.569V497.146C228.354 498.697 227.106 499.952 225.564 499.952Z" fill="#A5B9C4"/>
<path fill-rule="evenodd" clip-rule="evenodd" d="M237.676 422.376H225.564C224.428 422.376 223.407 421.683 222.981 420.623L219.561 412.126C219.213 411.26 219.316 410.278 219.833 409.504C220.351 408.729 221.219 408.266 222.147 408.266H241.094C242.023 408.266 242.888 408.729 243.408 409.504C243.924 410.278 244.027 411.26 243.677 412.126L240.26 420.623C239.833 421.683 238.812 422.376 237.676 422.376ZM227.443 416.763H235.797L236.957 413.879H226.283L227.443 416.763Z" fill="#A5B9C4"/>
<path fill-rule="evenodd" clip-rule="evenodd" d="M241.094 508.461H222.147C221.219 508.461 220.352 507.997 219.833 507.224C219.316 506.449 219.213 505.467 219.561 504.602L222.98 496.093C223.406 495.034 224.428 494.339 225.564 494.339H237.676C238.812 494.339 239.834 495.034 240.26 496.093L243.678 504.602C244.027 505.467 243.924 506.449 243.406 507.224C242.888 507.997 242.022 508.461 241.094 508.461ZM226.281 502.848H236.96L235.796 499.952H227.445L226.281 502.848Z" fill="#A5B9C4"/>
<path fill-rule="evenodd" clip-rule="evenodd" d="M273.439 499.952C271.9 499.952 270.65 498.696 270.65 497.146V419.569C270.65 418.018 271.9 416.763 273.439 416.763C274.979 416.763 276.227 418.018 276.227 419.569V497.146C276.227 498.696 274.979 499.952 273.439 499.952Z" fill="#A5B9C4"/>
<path fill-rule="evenodd" clip-rule="evenodd" d="M261.329 499.952C259.79 499.952 258.54 498.697 258.54 497.146V419.569C258.54 418.018 259.79 416.763 261.329 416.763C262.868 416.763 264.117 418.018 264.117 419.569V497.146C264.117 498.697 262.868 499.952 261.329 499.952Z" fill="#A5B9C4"/>
<path fill-rule="evenodd" clip-rule="evenodd" d="M273.438 422.376H261.328C260.193 422.376 259.17 421.683 258.744 420.624L255.325 412.126C254.977 411.261 255.078 410.278 255.597 409.504C256.115 408.729 256.981 408.266 257.908 408.266H276.857C277.785 408.266 278.651 408.729 279.168 409.504C279.687 410.278 279.79 411.26 279.442 412.126L276.022 420.623C275.595 421.683 274.573 422.376 273.438 422.376ZM263.207 416.763H271.559L272.721 413.879H262.046L263.207 416.763Z" fill="#A5B9C4"/>
<path fill-rule="evenodd" clip-rule="evenodd" d="M276.857 508.461H257.908C256.982 508.461 256.115 507.997 255.597 507.224C255.079 506.449 254.978 505.467 255.324 504.602L258.745 496.093C259.17 495.034 260.192 494.339 261.328 494.339H273.438C274.573 494.339 275.597 495.034 276.023 496.093L279.442 504.602C279.79 505.467 279.688 506.449 279.169 507.224C278.651 507.997 277.785 508.461 276.857 508.461ZM262.044 502.848H272.723L271.559 499.952H263.208L262.044 502.848Z" fill="#A5B9C4"/>
<path fill-rule="evenodd" clip-rule="evenodd" d="M197.921 606.458H193.151C192.037 606.458 191.028 605.807 190.594 604.807L184.915 591.711C184.553 590.876 184.645 589.921 185.16 589.165C185.673 588.41 186.541 587.955 187.47 587.955H203.6C204.53 587.955 205.397 588.41 205.911 589.165C206.426 589.921 206.518 590.876 206.155 591.711L200.475 604.807C200.041 605.807 199.034 606.458 197.921 606.458ZM194.989 601.05H196.08L199.414 593.363H191.655L194.989 601.05Z" fill="#A5B9C4"/>
<path fill-rule="evenodd" clip-rule="evenodd" d="M291.202 595.151H260.285C258.765 595.151 257.533 593.849 257.533 592.243V580.585C257.533 578.979 258.765 577.677 260.285 577.677H291.202C292.72 577.677 293.952 578.979 293.952 580.585V592.243C293.952 593.849 292.72 595.151 291.202 595.151ZM263.034 589.335H288.451V583.494H263.034V589.335Z" fill="#A5B9C4"/>
<path fill-rule="evenodd" clip-rule="evenodd" d="M421.072 686.633C418.007 686.633 415.522 684.129 415.522 681.04V560.081H317.19V656.046C317.19 659.135 314.705 661.639 311.641 661.639C308.575 661.639 306.092 659.135 306.092 656.046V554.489C306.092 551.399 308.575 548.895 311.641 548.895H421.072C424.137 548.895 426.621 551.399 426.621 554.489V681.04C426.621 684.129 424.137 686.633 421.072 686.633Z" fill="#A5B9C4"/>
<path fill-rule="evenodd" clip-rule="evenodd" d="M421.241 571.509H311.475C309.939 571.509 308.694 570.129 308.694 568.426C308.694 566.723 309.939 565.342 311.475 565.342H421.241C422.776 565.342 424.021 566.723 424.021 568.426C424.021 570.129 422.776 571.509 421.241 571.509Z" fill="#A5B9C4"/>
<path fill-rule="evenodd" clip-rule="evenodd" d="M421.241 584.872H311.475C309.939 584.872 308.694 583.721 308.694 582.302C308.694 580.883 309.939 579.732 311.475 579.732H421.241C422.776 579.732 424.021 580.883 424.021 582.302C424.021 583.721 422.776 584.872 421.241 584.872Z" fill="#A5B9C4"/>
<path fill-rule="evenodd" clip-rule="evenodd" d="M421.251 679.438H370.428C368.899 679.438 367.658 678.287 367.658 676.868C367.658 675.449 368.899 674.298 370.428 674.298H421.251C422.78 674.298 424.021 675.449 424.021 676.868C424.021 678.287 422.78 679.438 421.251 679.438Z" fill="#A5B9C4"/>
<path fill-rule="evenodd" clip-rule="evenodd" d="M345.854 625.987H331.365C329.858 625.987 328.637 624.736 328.637 623.193V596.916C328.637 595.374 329.858 594.123 331.365 594.123H345.854C347.361 594.123 348.58 595.374 348.58 596.916V623.193C348.58 624.736 347.361 625.987 345.854 625.987ZM334.092 620.4H343.125V599.71H334.092V620.4Z" fill="#A5B9C4"/>
<path fill-rule="evenodd" clip-rule="evenodd" d="M401.346 625.987H386.862C385.354 625.987 384.133 624.736 384.133 623.193V596.916C384.133 595.374 385.354 594.123 386.862 594.123H401.346C402.854 594.123 404.077 595.374 404.077 596.916V623.193C404.077 624.736 402.854 625.987 401.346 625.987ZM389.593 620.4H398.616V599.71H389.593V620.4Z" fill="#A5B9C4"/>
<path fill-rule="evenodd" clip-rule="evenodd" d="M373.602 625.987H359.113C357.606 625.987 356.386 624.736 356.386 623.193V596.916C356.386 595.374 357.606 594.123 359.113 594.123H373.602C375.109 594.123 376.329 595.374 376.329 596.916V623.193C376.329 624.736 375.109 625.987 373.602 625.987ZM361.84 620.4H370.874V599.71H361.84V620.4Z" fill="#A5B9C4"/>
<path fill-rule="evenodd" clip-rule="evenodd" d="M345.854 653.741C344.348 653.741 343.125 652.475 343.125 650.913V641.922H334.092V647.997C334.092 649.559 332.872 650.826 331.365 650.826C329.858 650.826 328.637 649.559 328.637 647.997V639.094C328.637 637.533 329.858 636.266 331.365 636.266H345.854C347.361 636.266 348.58 637.533 348.58 639.094V650.913C348.58 652.475 347.361 653.741 345.854 653.741Z" fill="#A5B9C4"/>
<path fill-rule="evenodd" clip-rule="evenodd" d="M401.346 668.131H386.862C385.354 668.131 384.133 666.881 384.133 665.337V639.061C384.133 637.518 385.354 636.266 386.862 636.266H401.346C402.854 636.266 404.077 637.518 404.077 639.061V665.337C404.077 666.881 402.854 668.131 401.346 668.131ZM389.593 662.542H398.616V641.856H389.593V662.542Z" fill="#A5B9C4"/>
<path fill-rule="evenodd" clip-rule="evenodd" d="M373.602 668.131H359.113C357.606 668.131 356.386 666.881 356.386 665.337V639.061C356.386 637.518 357.606 636.266 359.113 636.266H373.602C375.109 636.266 376.329 637.518 376.329 639.061V665.337C376.329 666.881 375.109 668.131 373.602 668.131ZM361.84 662.542H370.874V641.856H361.84V662.542Z" fill="#A5B9C4"/>
<path fill-rule="evenodd" clip-rule="evenodd" d="M80.2945 737H6.41866C3.35277 737 0.867188 734.483 0.867188 731.378C0.867188 728.271 3.35277 725.754 6.41866 725.754H74.7441V560.142H6.41866C3.35277 560.142 0.867188 557.624 0.867188 554.519C0.867188 551.413 3.35277 548.895 6.41866 548.895H80.2945C83.3602 548.895 85.8447 551.413 85.8447 554.519V731.378C85.8447 734.483 83.3602 737 80.2945 737Z" fill="#A5B9C4"/>
<path fill-rule="evenodd" clip-rule="evenodd" d="M80.457 571.509H6.25677C4.71732 571.509 3.46875 570.129 3.46875 568.426C3.46875 566.723 4.71732 565.342 6.25677 565.342H80.457C81.9969 565.342 83.2435 566.723 83.2435 568.426C83.2435 570.129 81.9969 571.509 80.457 571.509Z" fill="#A5B9C4"/>
<path fill-rule="evenodd" clip-rule="evenodd" d="M80.457 584.872H6.25677C4.71732 584.872 3.46875 583.721 3.46875 582.302C3.46875 580.883 4.71732 579.732 6.25677 579.732H80.457C81.9969 579.732 83.2435 580.883 83.2435 582.302C83.2435 583.721 81.9969 584.872 80.457 584.872Z" fill="#A5B9C4"/>
<path fill-rule="evenodd" clip-rule="evenodd" d="M80.4644 679.438H7.98129C6.44639 679.438 5.20215 678.287 5.20215 676.868C5.20215 675.449 6.44639 674.298 7.98129 674.298H80.4644C81.9998 674.298 83.2427 675.449 83.2427 676.868C83.2427 678.287 81.9998 679.438 80.4644 679.438Z" fill="#A5B9C4"/>
<path fill-rule="evenodd" clip-rule="evenodd" d="M60.5732 625.987H46.0845C44.578 625.987 43.3564 624.736 43.3564 623.193V596.916C43.3564 595.374 44.578 594.123 46.0845 594.123H60.5732C62.0787 594.123 63.3001 595.374 63.3001 596.916V623.193C63.3001 624.736 62.0787 625.987 60.5732 625.987ZM48.812 620.4H57.8459V599.71H48.812V620.4Z" fill="#A5B9C4"/>
<path fill-rule="evenodd" clip-rule="evenodd" d="M32.822 625.987H18.3383C16.83 625.987 15.6084 624.736 15.6084 623.193V596.916C15.6084 595.374 16.83 594.123 18.3383 594.123H32.822C34.3296 594.123 35.5521 595.374 35.5521 596.916V623.193C35.5521 624.736 34.3296 625.987 32.822 625.987ZM21.069 620.4H30.0915V599.71H21.069V620.4Z" fill="#A5B9C4"/>
<path fill-rule="evenodd" clip-rule="evenodd" d="M60.5732 668.131H46.0845C44.578 668.131 43.3564 666.881 43.3564 665.337V639.061C43.3564 637.518 44.578 636.266 46.0845 636.266H60.5732C62.0787 636.266 63.3001 637.518 63.3001 639.061V665.337C63.3001 666.881 62.0787 668.131 60.5732 668.131ZM48.812 662.542H57.8459V641.856H48.812V662.542Z" fill="#A5B9C4"/>
<path fill-rule="evenodd" clip-rule="evenodd" d="M32.822 668.131H18.3383C16.83 668.131 15.6084 666.881 15.6084 665.337V639.061C15.6084 637.518 16.83 636.266 18.3383 636.266H32.822C34.3296 636.266 35.5521 637.518 35.5521 639.061V665.337C35.5521 666.881 34.3296 668.131 32.822 668.131ZM21.069 662.542H30.0915V641.856H21.069V662.542Z" fill="#A5B9C4"/>
<path fill-rule="evenodd" clip-rule="evenodd" d="M131.587 595.151H99.933C98.3783 595.151 97.1172 593.849 97.1172 592.243V580.585C97.1172 578.979 98.3783 577.677 99.933 577.677H131.587C133.143 577.677 134.403 578.979 134.403 580.585V592.243C134.403 593.849 133.143 595.151 131.587 595.151ZM102.749 589.335H128.771V583.494H102.749V589.335Z" fill="#A5B9C4"/>
<path fill-rule="evenodd" clip-rule="evenodd" d="M227.779 329.954C226.818 329.954 225.879 329.481 225.334 328.619C222.389 323.965 218.101 319.837 212.932 316.677C211.584 315.853 211.172 314.111 212.01 312.786C212.849 311.46 214.622 311.054 215.972 311.879C221.885 315.493 226.811 320.25 230.22 325.637C231.057 326.962 230.644 328.703 229.295 329.527C228.823 329.816 228.298 329.954 227.779 329.954Z" fill="#A5B9C4"/>
<path fill-rule="evenodd" clip-rule="evenodd" d="M232.176 340.233C230.886 340.233 229.725 339.316 229.436 337.969C229.159 336.686 228.765 335.335 228.227 333.839C227.689 332.345 228.432 330.685 229.889 330.133C231.344 329.582 232.959 330.345 233.497 331.839C234.124 333.585 234.59 335.183 234.922 336.726C235.256 338.282 234.299 339.822 232.785 340.165C232.58 340.211 232.377 340.233 232.176 340.233Z" fill="#A5B9C4"/>
<path fill-rule="evenodd" clip-rule="evenodd" d="M201.658 324.814C200.541 324.814 199.47 324.246 198.959 323.277C198.578 322.554 197.999 321.938 197.274 321.497C195.914 320.663 195.558 318.994 196.486 317.767C197.412 316.54 199.266 316.223 200.629 317.056C202.23 318.035 203.518 319.393 204.353 320.981C205.057 322.322 204.421 323.922 202.932 324.556C202.52 324.732 202.085 324.814 201.658 324.814Z" fill="#A5B9C4"/>
<path fill-rule="evenodd" clip-rule="evenodd" d="M7.46906 250.806C6.19163 250.806 5.04402 249.903 4.77183 248.587C3.68004 243.319 4.64849 238.215 7.5727 233.829C10.1414 229.978 14.0685 226.961 18.6293 225.337C26.4577 222.548 36.5095 224.027 41.3217 233.619C42.0124 234.993 41.4712 236.674 40.1122 237.373C38.7549 238.07 37.0952 237.522 36.4045 236.147C32.8779 229.119 25.6112 228.768 20.4606 230.604C14.2794 232.806 8.42347 239.013 10.1709 247.439C10.4831 248.95 9.52865 250.43 8.03636 250.746C7.84704 250.786 7.65622 250.806 7.46906 250.806Z" fill="#A5B9C4"/>
<path fill-rule="evenodd" clip-rule="evenodd" d="M33.1263 231.276C32.9228 231.276 32.7144 231.252 32.5059 231.203C31.0127 230.85 30.0784 229.307 30.42 227.758C33.0782 215.69 43.1314 210.569 51.6556 209.8C56.185 209.392 60.7744 210.131 64.5815 211.881C68.8472 213.845 71.9285 216.917 73.4881 220.767C74.0814 222.232 73.4185 223.918 72.0068 224.534C70.5949 225.149 68.9686 224.461 68.3739 222.996C66.3189 217.925 59.6408 214.857 52.1361 215.532C45.5583 216.125 37.8218 219.985 35.8284 229.04C35.5329 230.372 34.3906 231.276 33.1263 231.276Z" fill="#A5B9C4"/>
<path fill-rule="evenodd" clip-rule="evenodd" d="M98.8287 246.695C98.6141 246.695 98.3974 246.671 98.1785 246.619C96.6641 246.263 95.7262 244.753 96.0849 243.246C97.9348 235.461 95.2066 225.815 84.8402 223.037C78.0876 221.229 69.9771 223.657 67.083 233.162C66.631 234.643 65.0576 235.482 63.5682 235.031C62.0774 234.583 61.2355 233.017 61.6875 231.535C65.6549 218.509 77.2306 215.192 86.3057 217.623C91.6172 219.047 96.1274 222.301 99.0054 226.785C102.243 231.834 103.131 237.972 101.571 244.536C101.264 245.826 100.107 246.695 98.8287 246.695Z" fill="#A5B9C4"/>
<path fill-rule="evenodd" clip-rule="evenodd" d="M497.424 710.275C495.751 710.275 494.099 709.513 493.016 708.065C485.841 698.467 477.272 692.813 468.244 691.715C461.431 690.889 454.595 692.817 449.492 697.011C447.137 698.945 443.668 698.596 441.741 696.233C439.815 693.868 440.162 690.383 442.516 688.449C449.931 682.357 459.791 679.545 469.567 680.733C477.992 681.757 490.427 686.179 501.824 701.422C503.652 703.865 503.16 707.332 500.726 709.166C499.736 709.914 498.576 710.275 497.424 710.275Z" fill="#A5B9C4"/>
<path fill-rule="evenodd" clip-rule="evenodd" d="M453.148 711.303C450.284 711.303 447.855 709.097 447.621 706.185C447.065 699.272 437.159 691.876 428.615 689.563C421.17 687.547 406.917 686.703 395.107 703.703C393.356 706.225 389.897 706.845 387.381 705.09C384.864 703.335 384.244 699.868 385.995 697.347C392.119 688.533 399.573 682.537 408.152 679.525C415.546 676.93 423.624 676.687 431.512 678.822C446.11 682.776 457.792 694.155 458.687 705.293C458.933 708.356 456.655 711.038 453.598 711.285C453.448 711.297 453.297 711.303 453.148 711.303V711.303Z" fill="#A5B9C4"/>
<path fill-rule="evenodd" clip-rule="evenodd" d="M334.222 703.079C333.464 703.079 332.695 702.925 331.957 702.599C329.136 701.353 327.866 698.068 329.12 695.261C334.571 683.052 348.066 674.465 363.499 673.383C378.677 672.319 392.231 678.837 399.758 690.816C401.392 693.42 400.598 696.85 397.981 698.477C395.365 700.105 391.916 699.314 390.28 696.709C384.905 688.154 375.432 683.691 364.285 684.475C353.096 685.26 343.069 691.408 339.333 699.776C338.407 701.848 336.364 703.079 334.222 703.079Z" fill="#A5B9C4"/>
<path fill-rule="evenodd" clip-rule="evenodd" d="M367.263 683.549C364.823 683.549 362.58 681.962 361.883 679.529C359.992 672.924 356.605 667.507 351.818 663.43C347.674 659.901 342.488 657.425 336.817 656.27C326.008 654.068 316.697 657.105 313.424 661.081C311.475 663.447 307.952 663.807 305.556 661.884C303.159 659.959 302.797 656.481 304.744 654.114C308.056 650.09 313.222 647.154 319.681 645.621C325.791 644.171 332.499 644.114 339.078 645.453C355.729 648.846 367.965 660.171 372.648 676.524C373.489 679.459 371.76 682.511 368.788 683.34C368.278 683.482 367.766 683.549 367.263 683.549Z" fill="#A5B9C4"/>
<path fill-rule="evenodd" clip-rule="evenodd" d="M251.811 673.271C250.799 673.271 249.776 672.998 248.857 672.425C246.261 670.807 245.481 667.41 247.115 664.839C252.167 656.889 258.723 651.022 266.599 647.4C273.511 644.221 281.276 642.929 289.052 643.661C303.567 645.03 316.185 653.229 320.452 664.062C321.566 666.892 320.153 670.082 317.296 671.186C314.436 672.29 311.217 670.89 310.101 668.06C307.365 661.112 298.277 655.583 288 654.614C275.252 653.414 263.776 659.274 256.517 670.7C255.461 672.362 253.655 673.271 251.811 673.271Z" fill="#A5B9C4"/>
<path fill-rule="evenodd" clip-rule="evenodd" d="M192.448 709.247C189.996 709.247 187.75 707.576 187.091 705.045C184.281 694.283 185.36 683.9 190.209 675.018C194.505 667.152 201.664 660.805 210.367 657.145C219.222 653.421 228.974 652.726 237.822 655.188C247.75 657.949 255.809 664.38 261.127 673.784C262.657 676.49 261.744 679.946 259.09 681.505C256.434 683.064 253.042 682.135 251.512 679.429C247.687 672.665 241.943 668.054 234.901 666.096C228.408 664.289 221.198 664.822 214.599 667.598C208.206 670.286 202.988 674.874 199.905 680.516C196.481 686.787 195.758 694.263 197.813 702.138C198.602 705.156 196.841 708.253 193.878 709.056C193.402 709.186 192.921 709.247 192.448 709.247Z" fill="#A5B9C4"/>
<path fill-rule="evenodd" clip-rule="evenodd" d="M174.636 735.972C174.542 735.972 174.446 735.971 174.35 735.965C171.293 735.81 168.94 733.206 169.095 730.15C169.656 719.116 173.145 710.688 179.466 705.102C187.431 698.06 197.607 697.657 202.963 698.04C206.016 698.26 208.314 700.913 208.094 703.966C207.875 707.018 205.22 709.312 202.166 709.095C198.547 708.832 191.737 709.047 186.809 713.404C182.806 716.944 180.571 722.767 180.167 730.711C180.017 733.673 177.569 735.972 174.636 735.972V735.972Z" fill="#A5B9C4"/>
<path fill-rule="evenodd" clip-rule="evenodd" d="M280.3 682.522C280.161 682.522 280.022 682.511 279.884 682.49C278.343 682.266 277.28 680.855 277.509 679.341C278.214 674.645 281.846 671.206 286.985 670.368C291.763 669.59 296.181 671.367 297.975 674.796C298.687 676.157 298.144 677.829 296.759 678.53C295.375 679.232 293.676 678.697 292.962 677.334C292.325 676.116 290.151 675.474 287.908 675.839C286.903 676.002 283.591 676.797 283.084 680.154C282.876 681.531 281.673 682.522 280.3 682.522Z" fill="#A5B9C4"/>
<path fill-rule="evenodd" clip-rule="evenodd" d="M307.48 686.633C307.338 686.633 307.193 686.621 307.044 686.601C305.504 686.369 304.447 684.971 304.685 683.478C305.072 681.063 304.052 678.369 300.905 677.796C299.002 677.449 296.732 678.117 296.067 681.025C295.729 682.5 294.22 683.432 292.698 683.106C291.174 682.778 290.214 681.317 290.551 679.842C291.185 677.068 292.725 674.897 295.008 673.563C297.034 672.38 299.498 671.974 301.947 672.418C306.883 673.316 311.328 677.691 310.27 684.315C310.054 685.666 308.85 686.633 307.48 686.633Z" fill="#A5B9C4"/>
<path fill-rule="evenodd" clip-rule="evenodd" d="M358.793 719.526C357.332 719.527 356.104 718.412 356.011 716.962C355.822 714.018 352.985 713.087 352.119 712.872C350.236 712.403 348.278 712.786 347.666 713.745C346.848 715.025 345.125 715.413 343.82 714.609C342.513 713.806 342.119 712.118 342.938 710.838C344.884 707.796 349.125 706.482 353.493 707.568C358.199 708.739 361.298 712.207 361.582 716.618C361.678 718.125 360.509 719.425 358.972 719.52C358.912 719.525 358.853 719.525 358.793 719.525V719.526Z" fill="#A5B9C4"/>
<path fill-rule="evenodd" clip-rule="evenodd" d="M333.237 721.581C331.759 721.581 330.512 720.46 330.404 718.993C329.938 712.578 334.5 708.743 339.243 708.27C341.599 708.034 343.9 708.619 345.723 709.913C347.777 711.373 349.058 713.577 349.423 716.284C349.628 717.809 348.535 719.211 346.978 719.412C345.422 719.612 343.995 718.542 343.788 717.016C343.332 713.638 340.402 713.756 339.821 713.815C337.944 714.002 335.841 715.366 336.075 718.596C336.186 720.132 335.006 721.464 333.441 721.574C333.373 721.579 333.304 721.582 333.237 721.582V721.581Z" fill="#A5B9C4"/>
<path fill-rule="evenodd" clip-rule="evenodd" d="M256.974 719.526C255.651 719.526 254.476 718.636 254.233 717.368C253.751 714.871 254.313 712.476 255.86 710.444C257.19 708.697 259.173 707.356 261.446 706.67C266.264 705.218 270.857 706.954 272.876 710.989C273.532 712.301 272.934 713.866 271.541 714.485C270.148 715.102 268.487 714.54 267.831 713.228C266.634 710.835 263.943 711.433 263.146 711.674C261.622 712.133 259.184 713.653 259.719 716.43C259.996 717.858 258.988 719.224 257.474 719.484C257.306 719.512 257.138 719.526 256.974 719.526Z" fill="#A5B9C4"/>
<path fill-rule="evenodd" clip-rule="evenodd" d="M268.149 712.33C267.914 712.33 267.676 712.3 267.439 712.234C265.938 711.827 265.038 710.226 265.429 708.659C266.68 703.645 270.781 700.333 276.132 700.019C281.092 699.728 285.389 702.153 286.828 706.055C287.385 707.566 286.663 709.262 285.215 709.844C283.769 710.425 282.143 709.672 281.586 708.161C281.053 706.715 278.845 705.732 276.449 705.873C275.372 705.936 271.788 706.431 270.864 710.137C270.535 711.456 269.396 712.33 268.149 712.33Z" fill="#A5B9C4"/>
<path fill-rule="evenodd" clip-rule="evenodd" d="M404.358 720.554C402.852 720.554 401.587 719.386 401.492 717.867C401.234 713.802 403.857 709.879 408.017 708.106C412.255 706.299 416.766 707.209 419.79 710.48C420.867 711.644 420.791 713.458 419.625 714.531C418.458 715.604 416.64 715.53 415.563 714.367C413.622 712.267 411.219 712.976 410.275 713.378C408.725 714.039 407.111 715.613 407.228 717.507C407.328 719.087 406.126 720.449 404.541 720.549C404.478 720.551 404.417 720.554 404.358 720.554Z" fill="#A5B9C4"/>
<path fill-rule="evenodd" clip-rule="evenodd" d="M415.472 713.359C415.224 713.359 414.972 713.324 414.721 713.253C413.276 712.839 412.439 711.333 412.853 709.888C413.912 706.188 417.176 703.606 421.373 703.149C425.084 702.746 428.378 704.132 429.761 706.683C430.476 708.005 429.985 709.657 428.662 710.372C427.339 711.087 425.685 710.594 424.97 709.273C424.779 708.92 423.611 708.379 421.962 708.56C421.22 708.641 418.749 709.083 418.09 711.386C417.747 712.58 416.657 713.359 415.472 713.359Z" fill="#A5B9C4"/>
<path fill-rule="evenodd" clip-rule="evenodd" d="M227.333 690.745C227.125 690.745 226.913 690.721 226.703 690.67C225.226 690.311 224.311 688.785 224.657 687.26C225.633 682.979 228.957 680.009 233.332 679.509C237.641 679.016 241.68 681.126 243.385 684.757C244.047 686.166 243.476 687.862 242.111 688.545C240.745 689.228 239.104 688.64 238.442 687.231C237.645 685.535 235.548 684.96 233.937 685.144C232.963 685.256 230.63 685.811 230.004 688.557C229.706 689.865 228.579 690.745 227.333 690.745Z" fill="#A5B9C4"/>
<path fill-rule="evenodd" clip-rule="evenodd" d="M216.072 691.773C214.569 691.773 213.337 690.636 213.312 689.215C213.264 686.448 215.478 683.757 218.955 682.357C222.888 680.773 227.057 681.399 229.835 683.988C230.919 685 230.928 686.646 229.854 687.668C228.782 688.689 227.032 688.697 225.949 687.687C224.221 686.075 221.819 686.862 221.124 687.141C219.586 687.76 218.826 688.748 218.833 689.126C218.859 690.564 217.643 691.747 216.119 691.772C216.101 691.772 216.087 691.772 216.071 691.772L216.072 691.773Z" fill="#A5B9C4"/>
<path fill-rule="evenodd" clip-rule="evenodd" d="M405.136 310.424C403.593 310.424 402.342 309.172 402.342 307.627C402.342 271.195 431.943 241.555 468.326 241.555C471.986 241.555 475.743 241.905 479.81 242.625C481.328 242.894 482.343 244.345 482.073 245.866C481.805 247.387 480.357 248.402 478.838 248.133C475.095 247.471 471.656 247.149 468.326 247.149C435.023 247.149 407.929 274.28 407.929 307.627C407.929 309.172 406.678 310.424 405.136 310.424Z" fill="#A5B9C4"/>
<path fill-rule="evenodd" clip-rule="evenodd" d="M514.673 268.28C513.913 268.28 513.155 267.965 512.605 267.348C503.651 257.281 491.487 250.448 478.351 248.107C477.571 247.968 476.888 247.499 476.469 246.819C476.052 246.138 475.938 245.308 476.157 244.537C480.039 230.911 488.317 218.644 499.464 209.996C510.993 201.054 524.777 196.328 539.327 196.328C550.664 196.328 561.878 199.342 571.755 205.045C573.093 205.817 573.561 207.543 572.8 208.9C572.039 210.257 570.338 210.731 569.002 209.959C559.961 204.739 549.7 201.981 539.327 201.981C526.01 201.981 513.396 206.306 502.848 214.487C493.447 221.78 486.276 231.881 482.425 243.173C495.58 246.201 507.669 253.362 516.74 263.559C517.77 264.717 517.681 266.505 516.539 267.551C516.006 268.04 515.339 268.28 514.673 268.28Z" fill="#A5B9C4"/>
<path fill-rule="evenodd" clip-rule="evenodd" d="M673.557 227.164C672.502 227.164 671.494 226.566 671.021 225.55C666.231 215.257 658.662 206.538 649.135 200.335C639.351 193.963 627.972 190.595 616.227 190.595C599.723 190.595 584.286 197.151 572.767 209.056C571.695 210.164 569.926 210.195 568.815 209.126C567.704 208.058 567.673 206.293 568.745 205.186C581.329 192.182 598.192 185.021 616.227 185.021C629.059 185.021 641.495 188.703 652.19 195.667C662.594 202.442 670.858 211.963 676.09 223.203C676.74 224.599 676.131 226.256 674.733 226.904C674.352 227.081 673.951 227.164 673.557 227.164Z" fill="#A5B9C4"/>
<path fill-rule="evenodd" clip-rule="evenodd" d="M592.947 232.304C592.029 232.304 591.131 231.83 590.607 230.965C585.326 222.263 577.977 214.981 569.36 209.907C568.033 209.126 567.568 207.377 568.323 206.001C569.075 204.625 570.763 204.144 572.089 204.925C581.5 210.465 589.519 218.413 595.284 227.913C596.096 229.253 595.709 231.022 594.417 231.864C593.96 232.162 593.451 232.304 592.947 232.304Z" fill="#A5B9C4"/>
<path fill-rule="evenodd" clip-rule="evenodd" d="M767.216 282.671C765.679 282.671 764.433 281.418 764.433 279.873C764.433 246.526 737.433 219.396 704.246 219.396C693.831 219.396 683.527 222.154 674.448 227.372C673.114 228.139 671.414 227.674 670.649 226.334C669.886 224.993 670.349 223.285 671.685 222.518C681.603 216.815 692.862 213.802 704.246 213.802C740.503 213.802 770 243.441 770 279.873C770 281.418 768.754 282.671 767.216 282.671Z" fill="#A5B9C4"/>
<path fill-rule="evenodd" clip-rule="evenodd" d="M650.521 250.806C650.038 250.806 649.548 250.678 649.101 250.407C647.776 249.606 647.341 247.862 648.128 246.513C653.944 236.527 662.261 228.189 672.18 222.401C673.516 221.621 675.218 222.094 675.982 223.456C676.748 224.818 676.284 226.555 674.948 227.335C665.863 232.637 658.246 240.272 652.921 249.415C652.399 250.309 651.473 250.806 650.521 250.806Z" fill="#A5B9C4"/>
<path fill-rule="evenodd" clip-rule="evenodd" d="M749.007 264.169C747.931 264.169 746.907 263.529 746.452 262.456C740.311 248.014 727.601 237.698 712.452 234.863C710.94 234.58 709.938 233.097 710.215 231.551C710.493 230.006 711.944 228.984 713.457 229.267C730.434 232.444 744.677 244.005 751.559 260.19C752.172 261.631 751.525 263.307 750.114 263.932C749.754 264.093 749.377 264.169 749.007 264.169Z" fill="#A5B9C4"/>
<path fill-rule="evenodd" clip-rule="evenodd" d="M753.031 283.699C751.324 283.699 749.938 282.392 749.938 280.779C749.938 278.125 749.7 275.406 749.23 272.7C748.954 271.109 750.096 269.608 751.782 269.347C753.468 269.087 755.061 270.165 755.336 271.756C755.86 274.774 756.125 277.811 756.125 280.779C756.125 282.392 754.74 283.699 753.031 283.699Z" fill="#A5B9C4"/>
<path fill-rule="evenodd" clip-rule="evenodd" d="M544.962 478.999C544.942 478.999 544.921 478.998 544.904 478.998C543.998 478.976 543.157 478.495 542.656 477.704C541.339 475.635 540.835 475.58 538.042 475.278C535.598 475.014 531.903 474.616 526.35 472.281C524.927 471.682 524.237 469.988 524.806 468.494C525.375 467.001 526.991 466.274 528.413 466.875C533.244 468.905 536.22 469.226 538.611 469.484C540.899 469.731 542.961 469.954 544.976 471.707C548.85 467.989 553.185 467.698 556.496 467.477C557.837 467.386 559.102 467.302 559.974 466.995C561.429 466.488 562.998 467.311 563.483 468.838C563.968 470.364 563.183 472.014 561.73 472.522C560.173 473.067 558.484 473.179 556.852 473.29C553.343 473.525 550.028 473.748 547.203 477.805C546.679 478.556 545.846 478.999 544.962 478.999Z" fill="#A5B9C4"/>
<path fill-rule="evenodd" clip-rule="evenodd" d="M84.8137 236.415C84.044 236.415 83.2766 236.071 82.7294 235.398C81.3148 233.655 79.536 232.481 77.5876 232.003C76.0997 231.638 75.1677 230.044 75.5089 228.446C75.849 226.847 77.3325 225.847 78.8198 226.211C81.9143 226.972 84.7079 228.798 86.8973 231.493C87.9008 232.73 87.7809 234.605 86.6305 235.684C86.1067 236.175 85.4586 236.415 84.8137 236.415Z" fill="#A5B9C4"/>
<path fill-rule="evenodd" clip-rule="evenodd" d="M88.0902 244.637C86.5922 244.637 85.3075 243.457 85.1546 241.875L85.1224 241.529C85.1039 241.446 85.0784 241.329 85.0416 241.146C84.7054 239.487 85.7266 237.859 87.3231 237.51C88.9208 237.16 90.4865 238.223 90.8215 239.881C90.8517 240.034 90.8734 240.127 90.8871 240.192C90.958 240.52 90.9744 240.647 91.008 241.006L91.0324 241.26C91.1952 242.947 90.0118 244.453 88.3903 244.622C88.289 244.633 88.1887 244.639 88.0902 244.639V244.637ZM85.1368 241.6H85.1414H85.1368Z" fill="#A5B9C4"/>
</g>
</svg>
