<svg width="807" height="319" viewBox="0 0 807 319" fill="none" xmlns="http://www.w3.org/2000/svg">
<g style="mix-blend-mode:multiply">
<path d="M0 0H404L319 319H0V0Z" fill="#DBD9D5" fill-opacity="0.48"/>
</g>
<g style="mix-blend-mode:multiply">
<path d="M404 0H807V319H318L404 0Z" fill="#B0461D"/>
</g>
<path d="M425.693 102.037C425.693 104.661 424.773 106.701 422.933 108.159C421.093 109.617 418.793 110.394 415.941 110.394C413.825 110.394 412.077 110.102 410.512 109.617C408.948 109.131 407.568 108.159 406.372 106.896L410.328 102.718C411.524 103.981 413.365 104.564 415.941 104.564C418.333 104.564 419.529 103.786 419.529 102.134C419.529 101.454 419.345 100.968 419.069 100.58C418.701 100.191 418.149 99.9968 417.413 99.8996L414.377 99.4137C412.169 99.0251 410.42 98.2477 409.316 97.0817C408.12 95.8185 407.568 94.0694 407.568 91.7373C407.568 89.3081 408.396 87.2676 410.052 85.7129C411.709 84.1582 413.917 83.3808 416.769 83.3808C420.449 83.3808 423.301 84.4496 425.233 86.5874L421.369 90.6685C420.725 89.9883 420.081 89.5996 419.345 89.4053C418.609 89.211 417.689 89.1138 416.585 89.1138C415.573 89.1138 414.837 89.4053 414.285 89.8912C413.733 90.377 413.549 90.96 413.549 91.6402C413.549 92.126 413.733 92.5147 414.009 92.9034C414.377 93.2921 415.021 93.5836 415.757 93.6807L418.793 94.1666C421.001 94.4581 422.657 95.2355 423.761 96.4015C425.141 97.4704 425.693 99.4138 425.693 102.037Z" fill="#1D3A66"/>
<path d="M446.855 89.4053H440.69V110.2H434.526V89.4053H428.362V83.5751H446.947V89.4053H446.855Z" fill="#1D3A66"/>
<path d="M453.847 110.2H447.499V103.495H453.847V110.2Z" fill="#1D3A66"/>
<path d="M482.553 86.1015C484.117 87.7534 484.853 89.794 484.853 92.126C484.853 94.4581 484.117 96.4987 482.553 98.1505C480.989 99.8024 478.872 100.677 476.296 100.677H472.524V110.2H466.36V83.5751H476.388C478.964 83.5751 481.081 84.4496 482.553 86.1015ZM477.952 94.0694C478.412 93.4864 478.688 92.9034 478.688 92.2232C478.688 91.543 478.412 90.8628 477.952 90.377C477.492 89.8911 476.848 89.5996 476.02 89.5996H472.524V94.944H476.02C476.756 94.8468 477.492 94.5553 477.952 94.0694Z" fill="#1D3A66"/>
<path d="M505.646 110.2H488.533V83.5751H505.646V89.4053H494.697V93.8751H504.082V99.7052H494.697V104.369H505.646V110.2Z" fill="#1D3A66"/>
<path d="M527.083 89.4053H520.919V110.2H514.754V89.4053H508.59V83.5751H527.175V89.4053H527.083Z" fill="#1D3A66"/>
<path d="M547.876 110.2H530.763V83.5751H547.876V89.4053H536.928V93.8751H546.312V99.7052H536.928V104.369H547.876V110.2Z" fill="#1D3A66"/>
<path d="M572.166 110.2H564.989L560.573 100.288H558.457V110.2H552.293V83.5751H562.321C564.989 83.5751 567.105 84.4496 568.578 86.1015C570.142 87.7534 570.878 89.794 570.878 92.126C570.878 93.7779 570.51 95.2355 569.682 96.4015C568.854 97.5675 567.934 98.442 566.737 99.1222L572.166 110.2ZM563.885 94.0694C564.345 93.4864 564.621 92.9034 564.621 92.2232C564.621 91.543 564.345 90.8628 563.885 90.377C563.425 89.8911 562.781 89.5996 561.953 89.5996H558.457V94.944H561.953C562.781 94.8468 563.425 94.5553 563.885 94.0694Z" fill="#1D3A66"/>
<path d="M592.315 102.037C592.315 104.661 591.395 106.701 589.555 108.159C587.715 109.617 585.415 110.394 582.562 110.394C580.446 110.394 578.698 110.102 577.134 109.617C575.57 109.131 574.19 108.159 572.994 106.896L576.95 102.718C578.146 103.981 579.986 104.564 582.562 104.564C584.955 104.564 586.151 103.786 586.151 102.134C586.151 101.454 585.967 100.968 585.691 100.58C585.323 100.191 584.771 99.9968 584.034 99.8996L580.998 99.4137C578.79 99.0251 577.042 98.2477 575.938 97.0817C574.742 95.8185 574.19 94.0694 574.19 91.7373C574.19 89.3081 575.018 87.2676 576.674 85.7129C578.33 84.1582 580.538 83.3808 583.39 83.3808C587.071 83.3808 589.923 84.4496 591.855 86.5874L587.991 90.6685C587.347 89.9883 586.703 89.5996 585.967 89.4053C585.231 89.211 584.311 89.1138 583.206 89.1138C582.194 89.1138 581.458 89.4053 580.906 89.8912C580.354 90.377 580.17 90.96 580.17 91.6402C580.17 92.126 580.354 92.5147 580.63 92.9034C580.998 93.2921 581.642 93.5836 582.378 93.6807L585.415 94.1666C587.623 94.4581 589.279 95.2355 590.383 96.4015C591.671 97.4704 592.315 99.4138 592.315 102.037Z" fill="#1D3A66"/>
<path d="M615.132 102.329C615.132 104.758 614.396 106.701 612.924 108.062C611.452 109.422 609.612 110.102 607.22 110.102H596.363V83.478H606.852C609.428 83.478 611.452 84.1582 612.832 85.6157C614.212 86.9761 614.948 88.9195 614.948 91.2515C614.948 93.4864 614.028 95.2355 612.188 96.4987C612.556 96.7902 612.924 96.9845 613.108 97.1789C613.384 97.3732 613.66 97.7619 614.028 98.1506C614.396 98.6364 614.672 99.2194 614.948 99.8996C615.04 100.677 615.132 101.454 615.132 102.329ZM608.14 93.1949C608.508 92.8062 608.692 92.2232 608.692 91.6402C608.692 91.0572 608.508 90.5714 608.14 90.0855C607.772 89.6969 607.22 89.4053 606.484 89.4053H602.62V93.778H606.484C607.22 93.778 607.772 93.5836 608.14 93.1949ZM608.416 103.592C608.784 103.106 608.968 102.62 608.968 101.94C608.968 101.26 608.784 100.774 608.416 100.288C608.048 99.8025 607.496 99.6081 606.668 99.6081H602.528V104.272H606.668C607.496 104.369 608.048 104.078 608.416 103.592Z" fill="#1D3A66"/>
<path d="M638.134 100.871C638.134 103.689 637.214 106.021 635.373 107.77C633.533 109.519 631.233 110.394 628.565 110.394C625.897 110.394 623.597 109.519 621.757 107.77C619.917 106.021 618.996 103.689 618.996 100.871V83.5751H625.161V100.677C625.161 101.94 625.437 102.815 626.081 103.495C626.633 104.175 627.461 104.564 628.565 104.564C629.577 104.564 630.405 104.175 631.049 103.495C631.693 102.815 631.969 101.843 631.969 100.677V83.5751H638.134V100.871V100.871Z" fill="#1D3A66"/>
<path d="M662.791 110.2H655.615L651.198 100.288H649.082V110.2H642.918V83.5751H652.946C655.615 83.5751 657.731 84.4496 659.203 86.1015C660.767 87.7534 661.503 89.794 661.503 92.126C661.503 93.7779 661.135 95.2355 660.307 96.4015C659.479 97.5675 658.559 98.442 657.363 99.1222L662.791 110.2ZM654.511 94.0694C654.971 93.4864 655.247 92.9034 655.247 92.2232C655.247 91.543 654.971 90.8628 654.511 90.377C654.051 89.8911 653.406 89.5996 652.578 89.5996H649.082V94.944H652.578C653.314 94.8468 653.959 94.5553 654.511 94.0694Z" fill="#1D3A66"/>
<path d="M684.228 98.5392C684.228 100.774 684.044 102.523 683.676 103.884C683.308 105.244 682.664 106.41 681.652 107.479C679.812 109.519 677.42 110.491 674.292 110.491C671.44 110.491 669.139 109.519 667.299 107.576C666.655 106.896 666.195 106.216 665.827 105.438C665.459 104.661 665.183 103.786 665.091 102.815C664.907 101.746 664.815 100.968 664.815 100.191C664.815 99.5109 664.723 98.3449 664.723 96.9845C664.723 95.527 664.723 94.4581 664.815 93.778C664.815 93.0978 664.907 92.2232 665.091 91.1544C665.275 90.0855 665.459 89.211 665.827 88.5308C666.195 87.7534 666.655 87.0732 667.299 86.393C669.139 84.4497 671.44 83.478 674.292 83.478C677.328 83.478 679.628 84.3525 681.192 86.0044C682.756 87.6563 683.768 89.794 684.136 92.3204H677.88C677.604 91.2516 677.236 90.4742 676.684 90.0855C676.132 89.5997 675.304 89.4053 674.292 89.4053C673.188 89.4053 672.452 89.794 671.808 90.5714C671.44 91.0572 671.256 91.6402 671.072 92.5148C670.887 93.3893 670.887 94.8468 670.887 97.1789C670.887 99.5109 670.979 100.968 671.072 101.843C671.256 102.718 671.44 103.301 671.808 103.786C672.36 104.564 673.188 104.952 674.292 104.952C675.488 104.952 676.408 104.564 677.052 103.884C677.696 103.203 677.972 102.232 677.972 101.066V100.677H674.292V95.2355H684.136V98.5392H684.228Z" fill="#1D3A66"/>
<path d="M429.374 155.092H422.933L421.737 151.108H414.009L412.813 155.092H406.372L415.573 128.467H420.357L429.374 155.092ZM420.081 145.666L417.965 138.573L415.665 145.666H420.081Z" fill="#1D3A66"/>
<path d="M448.879 146.93C448.879 149.553 447.959 151.594 446.119 153.051C444.278 154.509 441.978 155.286 439.126 155.286C437.01 155.286 435.262 154.995 433.698 154.509C432.134 154.023 430.754 153.051 429.558 151.788L433.514 147.61C434.71 148.873 436.55 149.456 439.126 149.456C441.518 149.456 442.714 148.679 442.714 147.027C442.714 146.347 442.53 145.861 442.254 145.472C441.886 145.083 441.334 144.889 440.598 144.792L437.562 144.306C435.354 143.917 433.606 143.14 432.502 141.974C431.306 140.711 430.754 138.962 430.754 136.63C430.754 134.2 431.582 132.16 433.238 130.605C434.894 129.05 437.102 128.273 439.954 128.273C443.634 128.273 446.487 129.342 448.419 131.48L444.554 135.561C443.91 134.881 443.266 134.492 442.53 134.298C441.794 134.103 440.874 134.006 439.77 134.006C438.758 134.006 438.022 134.298 437.47 134.783C436.918 135.269 436.734 135.852 436.734 136.532C436.734 137.018 436.918 137.407 437.194 137.796C437.562 138.184 438.206 138.476 438.942 138.573L441.978 139.059C444.186 139.35 445.842 140.128 446.947 141.294C448.235 142.363 448.879 144.306 448.879 146.93Z" fill="#1D3A66"/>
<path d="M469.672 146.93C469.672 149.553 468.752 151.594 466.912 153.051C465.072 154.509 462.771 155.286 459.919 155.286C457.803 155.286 456.055 154.995 454.491 154.509C452.927 154.023 451.547 153.051 450.351 151.788L454.307 147.61C455.503 148.873 457.343 149.456 459.919 149.456C462.311 149.456 463.507 148.679 463.507 147.027C463.507 146.347 463.323 145.861 463.047 145.472C462.679 145.083 462.127 144.889 461.391 144.792L458.355 144.306C456.147 143.917 454.399 143.14 453.295 141.974C452.099 140.711 451.547 138.962 451.547 136.63C451.547 134.2 452.375 132.16 454.031 130.605C455.687 129.05 457.895 128.273 460.747 128.273C464.428 128.273 467.28 129.342 469.212 131.48L465.348 135.561C464.704 134.881 464.06 134.492 463.324 134.298C462.587 134.103 461.667 134.006 460.563 134.006C459.551 134.006 458.815 134.298 458.263 134.783C457.711 135.269 457.527 135.852 457.527 136.532C457.527 137.018 457.711 137.407 457.987 137.796C458.355 138.184 458.999 138.476 459.735 138.573L462.771 139.059C464.98 139.35 466.636 140.128 467.74 141.294C469.028 142.363 469.672 144.306 469.672 146.93Z" fill="#1D3A66"/>
<path d="M492.029 138.476C492.029 139.156 492.121 140.322 492.121 141.682C492.121 143.14 492.121 144.209 492.029 144.889C492.029 145.569 491.937 146.444 491.753 147.513C491.569 148.581 491.385 149.456 491.017 150.136C490.649 150.816 490.189 151.594 489.545 152.274C487.705 154.217 485.405 155.189 482.553 155.189C479.7 155.189 477.4 154.217 475.56 152.274C474.916 151.594 474.456 150.914 474.088 150.136C473.72 149.359 473.444 148.484 473.352 147.513C473.168 146.444 473.076 145.666 473.076 144.889C473.076 144.209 472.984 143.043 472.984 141.682C472.984 140.225 472.984 139.156 473.076 138.476C473.076 137.796 473.168 136.921 473.352 135.852C473.536 134.783 473.72 133.909 474.088 133.229C474.456 132.451 474.916 131.771 475.56 131.091C477.4 129.148 479.7 128.176 482.553 128.176C485.405 128.176 487.705 129.148 489.545 131.091C490.189 131.771 490.649 132.451 491.017 133.229C491.385 134.006 491.661 134.881 491.753 135.852C491.937 136.921 492.029 137.796 492.029 138.476ZM485.681 146.347C485.865 145.569 485.865 144.014 485.865 141.78C485.865 139.545 485.773 137.99 485.681 137.115C485.497 136.241 485.313 135.658 484.945 135.172C484.393 134.395 483.565 134.006 482.461 134.006C481.357 134.006 480.528 134.395 479.976 135.172C479.608 135.658 479.424 136.241 479.24 137.115C479.056 137.99 479.056 139.447 479.056 141.78C479.056 144.112 479.148 145.569 479.24 146.347C479.424 147.124 479.608 147.804 479.976 148.29C480.528 149.067 481.357 149.456 482.461 149.456C483.565 149.456 484.393 149.067 484.945 148.29C485.313 147.804 485.589 147.221 485.681 146.347Z" fill="#1D3A66"/>
<path d="M514.847 146.638C514.386 149.456 513.282 151.594 511.626 153.148C509.878 154.606 507.854 155.383 505.37 155.383C502.518 155.383 500.218 154.412 498.378 152.468C497.733 151.788 497.273 151.108 496.905 150.33C496.537 149.553 496.261 148.679 496.169 147.707C495.985 146.638 495.893 145.861 495.893 145.083C495.893 144.403 495.801 143.237 495.801 141.877C495.801 140.419 495.801 139.35 495.893 138.67C495.893 137.99 495.985 137.115 496.169 136.047C496.353 134.978 496.537 134.103 496.905 133.423C497.273 132.646 497.733 131.965 498.378 131.285C500.218 129.342 502.518 128.37 505.37 128.37C507.854 128.37 509.97 129.148 511.626 130.605C513.374 132.063 514.386 134.2 514.847 137.115H508.59C508.13 135.269 507.026 134.298 505.37 134.298C504.266 134.298 503.438 134.686 502.886 135.464C502.518 135.949 502.334 136.532 502.15 137.407C501.966 138.281 501.966 139.836 501.966 142.071C501.966 144.306 502.058 145.861 502.15 146.735C502.242 147.61 502.518 148.29 502.886 148.679C503.438 149.456 504.266 149.845 505.37 149.845C507.026 149.845 508.13 148.873 508.59 147.027H514.847V146.638Z" fill="#1D3A66"/>
<path d="M524.323 155.092H518.159V128.467H524.323V155.092Z" fill="#1D3A66"/>
<path d="M549.992 155.092H543.552L542.356 151.108H534.628L533.432 155.092H526.991L536.192 128.467H540.976L549.992 155.092ZM540.7 145.666L538.584 138.573L536.284 145.666H540.7Z" fill="#1D3A66"/>
<path d="M567.197 134.298H561.033V155.092H554.869V134.298H548.704V128.467H567.29V134.298H567.197Z" fill="#1D3A66"/>
<path d="M576.95 155.092H570.786V128.467H576.95V155.092Z" fill="#1D3A66"/>
<path d="M600.411 138.476C600.411 139.156 600.503 140.322 600.503 141.682C600.503 143.14 600.503 144.209 600.411 144.889C600.411 145.569 600.319 146.444 600.135 147.513C599.951 148.581 599.767 149.456 599.399 150.136C599.031 150.816 598.571 151.594 597.927 152.274C596.087 154.217 593.787 155.189 590.935 155.189C588.083 155.189 585.783 154.217 583.942 152.274C583.298 151.594 582.838 150.914 582.47 150.136C582.102 149.359 581.826 148.484 581.734 147.513C581.55 146.444 581.458 145.666 581.458 144.889C581.458 144.209 581.366 143.043 581.366 141.682C581.366 140.225 581.366 139.156 581.458 138.476C581.458 137.796 581.55 136.921 581.734 135.852C581.918 134.783 582.102 133.909 582.47 133.229C582.838 132.451 583.298 131.771 583.942 131.091C585.783 129.148 588.083 128.176 590.935 128.176C593.787 128.176 596.087 129.148 597.927 131.091C598.571 131.771 599.031 132.451 599.399 133.229C599.767 134.006 600.043 134.881 600.135 135.852C600.227 136.921 600.319 137.796 600.411 138.476ZM594.063 146.347C594.247 145.569 594.247 144.014 594.247 141.78C594.247 139.545 594.155 137.99 594.063 137.115C593.879 136.241 593.695 135.658 593.327 135.172C592.775 134.395 591.947 134.006 590.843 134.006C589.739 134.006 588.911 134.395 588.359 135.172C587.991 135.658 587.807 136.241 587.623 137.115C587.439 137.99 587.439 139.447 587.439 141.78C587.439 144.112 587.531 145.569 587.623 146.347C587.807 147.124 587.991 147.804 588.359 148.29C588.911 149.067 589.739 149.456 590.843 149.456C591.947 149.456 592.775 149.067 593.327 148.29C593.695 147.804 593.879 147.221 594.063 146.347Z" fill="#1D3A66"/>
<path d="M624.425 155.092H618.996L610.9 141.682V155.092H604.736V128.467H610.164L618.26 141.877V128.467H624.425V155.092Z" fill="#1D3A66"/>
<path d="M425.969 179.19H415.021V183.854H424.313V189.684H414.929V199.984H408.764V173.36H425.877V179.19H425.969Z" fill="#1D3A66"/>
<path d="M447.499 183.368C447.499 184.048 447.591 185.214 447.591 186.575C447.591 188.032 447.591 189.101 447.499 189.781C447.499 190.461 447.407 191.336 447.223 192.405C447.039 193.474 446.855 194.348 446.487 195.028C446.118 195.709 445.658 196.486 445.014 197.166C443.174 199.109 440.874 200.081 438.022 200.081C435.17 200.081 432.87 199.109 431.03 197.166C430.386 196.486 429.926 195.806 429.558 195.028C429.19 194.251 428.914 193.377 428.822 192.405C428.638 191.336 428.545 190.559 428.545 189.781C428.545 189.101 428.453 187.935 428.453 186.575C428.453 185.117 428.453 184.048 428.545 183.368C428.545 182.688 428.638 181.813 428.822 180.745C429.006 179.676 429.19 178.801 429.558 178.121C429.926 177.344 430.386 176.663 431.03 175.983C432.87 174.04 435.17 173.068 438.022 173.068C440.874 173.068 443.174 174.04 445.014 175.983C445.658 176.663 446.118 177.344 446.487 178.121C446.855 178.898 447.131 179.773 447.223 180.745C447.407 181.813 447.499 182.688 447.499 183.368ZM441.15 191.239C441.334 190.461 441.334 188.907 441.334 186.672C441.334 184.437 441.242 182.882 441.15 182.008C440.966 181.133 440.782 180.55 440.414 180.064C439.862 179.287 439.034 178.898 437.93 178.898C436.826 178.898 435.998 179.287 435.446 180.064C435.078 180.55 434.894 181.133 434.71 182.008C434.526 182.882 434.526 184.34 434.526 186.672C434.526 189.004 434.618 190.461 434.71 191.239C434.894 192.016 435.078 192.696 435.446 193.182C435.998 193.96 436.826 194.348 437.93 194.348C439.034 194.348 439.862 193.96 440.414 193.182C440.782 192.696 441.058 192.016 441.15 191.239Z" fill="#1D3A66"/>
<path d="M471.788 199.984H464.612L460.195 190.073H458.079V199.984H451.915V173.36H461.943C464.612 173.36 466.728 174.234 468.2 175.886C469.764 177.538 470.5 179.579 470.5 181.911C470.5 183.562 470.132 185.02 469.304 186.186C468.476 187.352 467.556 188.227 466.36 188.907L471.788 199.984ZM463.507 183.757C463.968 183.174 464.244 182.591 464.244 181.911C464.244 181.23 463.968 180.55 463.507 180.064C463.047 179.578 462.403 179.287 461.575 179.287H458.079V184.631H461.575C462.311 184.534 463.047 184.34 463.507 183.757Z" fill="#1D3A66"/>
<path d="M488.993 199.984H482.829V173.36H488.993V199.984Z" fill="#1D3A66"/>
<path d="M513.742 199.984H508.314L500.218 186.575V199.984H494.053V173.36H499.482L507.578 186.769V173.36H513.742V199.984Z" fill="#1D3A66"/>
<path d="M536.008 179.19H529.843V199.984H523.679V179.19H517.515V173.36H536.1V179.19H536.008Z" fill="#1D3A66"/>
<path d="M556.709 199.984H539.596V173.36H556.709V179.19H545.76V183.66H555.145V189.49H545.76V194.154H556.709V199.984Z" fill="#1D3A66"/>
<path d="M581.09 199.984H573.914L569.498 190.073H567.382V199.984H561.217V173.36H571.246C573.914 173.36 576.03 174.234 577.502 175.886C579.066 177.538 579.802 179.579 579.802 181.911C579.802 183.562 579.434 185.02 578.606 186.186C577.778 187.352 576.858 188.227 575.662 188.907L581.09 199.984ZM572.718 183.757C573.178 183.174 573.454 182.591 573.454 181.911C573.454 181.23 573.178 180.55 572.718 180.064C572.258 179.578 571.614 179.287 570.786 179.287H567.29V184.631H570.786C571.614 184.534 572.258 184.34 572.718 183.757Z" fill="#1D3A66"/>
<path d="M603.908 199.984H598.479L590.383 186.575V199.984H584.218V173.36H589.647L597.743 186.769V173.36H603.908V199.984Z" fill="#1D3A66"/>
<path d="M629.577 199.984H623.137L621.941 196H614.212L613.016 199.984H606.576L615.776 173.36H620.561L629.577 199.984ZM620.285 190.559L618.168 183.465L615.868 190.559H620.285Z" fill="#1D3A66"/>
<path d="M646.69 179.19H640.526V199.984H634.361V179.19H628.197V173.36H646.782V179.19H646.69Z" fill="#1D3A66"/>
<path d="M656.535 199.984H650.37V173.36H656.535V199.984Z" fill="#1D3A66"/>
<path d="M679.996 183.368C679.996 184.048 680.088 185.214 680.088 186.575C680.088 188.032 680.088 189.101 679.996 189.781C679.996 190.461 679.904 191.336 679.72 192.405C679.536 193.474 679.352 194.348 678.984 195.028C678.616 195.709 678.156 196.486 677.512 197.166C675.672 199.109 673.372 200.081 670.519 200.081C667.667 200.081 665.367 199.109 663.527 197.166C662.883 196.486 662.423 195.806 662.055 195.028C661.687 194.251 661.411 193.377 661.319 192.405C661.135 191.336 661.043 190.559 661.043 189.781C661.043 189.101 660.951 187.935 660.951 186.575C660.951 185.117 660.951 184.048 661.043 183.368C661.043 182.688 661.135 181.813 661.319 180.745C661.503 179.676 661.687 178.801 662.055 178.121C662.423 177.344 662.883 176.663 663.527 175.983C665.367 174.04 667.667 173.068 670.519 173.068C673.372 173.068 675.672 174.04 677.512 175.983C678.156 176.663 678.616 177.344 678.984 178.121C679.352 178.898 679.628 179.773 679.72 180.745C679.812 181.813 679.904 182.688 679.996 183.368ZM673.556 191.239C673.74 190.461 673.74 188.907 673.74 186.672C673.74 184.437 673.648 182.882 673.556 182.008C673.372 181.133 673.188 180.55 672.82 180.064C672.268 179.287 671.44 178.898 670.335 178.898C669.231 178.898 668.403 179.287 667.851 180.064C667.483 180.55 667.299 181.133 667.115 182.008C666.931 182.882 666.931 184.34 666.931 186.672C666.931 189.004 667.023 190.461 667.115 191.239C667.299 192.016 667.483 192.696 667.851 193.182C668.403 193.96 669.231 194.348 670.335 194.348C671.44 194.348 672.268 193.96 672.82 193.182C673.188 192.696 673.464 192.016 673.556 191.239Z" fill="#1D3A66"/>
<path d="M704.009 199.984H698.581L690.485 186.575V199.984H684.32V173.36H689.749L697.845 186.769V173.36H704.009V199.984Z" fill="#1D3A66"/>
<path d="M729.679 199.984H723.239L722.042 196H714.314L713.118 199.984H706.678L715.878 173.36H720.662L729.679 199.984ZM720.386 190.559L718.27 183.465L715.97 190.559H720.386Z" fill="#1D3A66"/>
<path d="M749 199.984H732.255V173.36H738.419V194.154H749V199.984Z" fill="#1D3A66"/>
<path d="M427.073 236.325C426.613 239.143 425.509 241.281 423.853 242.836C422.105 244.293 420.081 245.071 417.597 245.071C414.745 245.071 412.445 244.099 410.604 242.156C409.96 241.475 409.5 240.795 409.132 240.018C408.764 239.24 408.488 238.366 408.396 237.394C408.212 236.325 408.12 235.548 408.12 234.771C408.12 234.09 408.028 232.924 408.028 231.564C408.028 230.107 408.028 229.038 408.12 228.357C408.12 227.677 408.212 226.803 408.396 225.734C408.58 224.665 408.764 223.79 409.132 223.11C409.5 222.333 409.96 221.653 410.604 220.973C412.445 219.029 414.745 218.057 417.597 218.057C420.081 218.057 422.197 218.835 423.853 220.292C425.601 221.75 426.613 223.888 427.073 226.803H420.817C420.357 224.957 419.253 223.985 417.597 223.985C416.493 223.985 415.665 224.374 415.113 225.151C414.745 225.637 414.561 226.22 414.377 227.094C414.193 227.969 414.193 229.524 414.193 231.758C414.193 233.993 414.285 235.548 414.377 236.423C414.469 237.297 414.745 237.977 415.113 238.366C415.665 239.143 416.493 239.532 417.597 239.532C419.253 239.532 420.357 238.56 420.817 236.714H427.073V236.325Z" fill="#1D3A66"/>
<path d="M448.879 228.26C448.879 228.94 448.971 230.107 448.971 231.467C448.971 232.924 448.971 233.993 448.879 234.673C448.879 235.354 448.787 236.228 448.603 237.297C448.419 238.366 448.235 239.24 447.867 239.921C447.499 240.601 447.039 241.378 446.395 242.058C444.554 244.002 442.254 244.973 439.402 244.973C436.55 244.973 434.25 244.002 432.41 242.058C431.766 241.378 431.306 240.698 430.938 239.921C430.57 239.143 430.294 238.269 430.202 237.297C430.018 236.228 429.926 235.451 429.926 234.673C429.926 233.993 429.834 232.827 429.834 231.467C429.834 230.009 429.834 228.94 429.926 228.26C429.926 227.58 430.018 226.706 430.202 225.637C430.386 224.568 430.57 223.693 430.938 223.013C431.306 222.236 431.766 221.556 432.41 220.875C434.25 218.932 436.55 217.96 439.402 217.96C442.254 217.96 444.554 218.932 446.395 220.875C447.039 221.556 447.499 222.236 447.867 223.013C448.235 223.791 448.511 224.665 448.603 225.637C448.695 226.706 448.787 227.483 448.879 228.26ZM442.53 236.131C442.714 235.354 442.714 233.799 442.714 231.564C442.714 229.329 442.622 227.774 442.53 226.9C442.346 226.025 442.162 225.442 441.794 224.957C441.242 224.179 440.414 223.79 439.31 223.79C438.206 223.79 437.378 224.179 436.826 224.957C436.458 225.442 436.274 226.025 436.09 226.9C435.906 227.774 435.906 229.232 435.906 231.564C435.906 233.896 435.998 235.354 436.09 236.131C436.274 236.908 436.458 237.589 436.826 238.074C437.378 238.852 438.206 239.24 439.31 239.24C440.414 239.24 441.242 238.852 441.794 238.074C442.162 237.589 442.346 236.908 442.53 236.131Z" fill="#1D3A66"/>
<path d="M471.696 228.26C471.696 228.94 471.788 230.107 471.788 231.467C471.788 232.924 471.788 233.993 471.696 234.673C471.696 235.354 471.604 236.228 471.42 237.297C471.236 238.366 471.052 239.24 470.684 239.921C470.316 240.601 469.856 241.378 469.212 242.058C467.372 244.002 465.072 244.973 462.219 244.973C459.367 244.973 457.067 244.002 455.227 242.058C454.583 241.378 454.123 240.698 453.755 239.921C453.387 239.143 453.111 238.269 453.019 237.297C452.835 236.228 452.743 235.451 452.743 234.673C452.743 233.993 452.651 232.827 452.651 231.467C452.651 230.009 452.651 228.94 452.743 228.26C452.743 227.58 452.835 226.706 453.019 225.637C453.203 224.568 453.387 223.693 453.755 223.013C454.123 222.236 454.583 221.556 455.227 220.875C457.067 218.932 459.367 217.96 462.219 217.96C465.072 217.96 467.372 218.932 469.212 220.875C469.856 221.556 470.316 222.236 470.684 223.013C471.052 223.791 471.328 224.665 471.42 225.637C471.604 226.706 471.696 227.483 471.696 228.26ZM465.348 236.131C465.532 235.354 465.532 233.799 465.532 231.564C465.532 229.329 465.44 227.774 465.348 226.9C465.164 226.025 464.98 225.442 464.612 224.957C464.06 224.179 463.231 223.79 462.127 223.79C461.023 223.79 460.195 224.179 459.643 224.957C459.275 225.442 459.091 226.025 458.907 226.9C458.723 227.774 458.723 229.232 458.723 231.564C458.723 233.896 458.815 235.354 458.907 236.131C459.091 236.908 459.275 237.589 459.643 238.074C460.195 238.852 461.023 239.24 462.127 239.24C463.231 239.24 464.06 238.852 464.612 238.074C464.98 237.589 465.164 236.908 465.348 236.131Z" fill="#1D3A66"/>
<path d="M492.305 220.681C493.869 222.333 494.605 224.374 494.605 226.706C494.605 229.038 493.869 231.078 492.305 232.73C490.741 234.382 488.625 235.257 486.049 235.257H482.277V244.779H476.112V218.155H486.141C488.717 218.155 490.741 219.029 492.305 220.681ZM487.705 228.649C488.165 228.066 488.441 227.483 488.441 226.803C488.441 226.123 488.165 225.442 487.705 224.957C487.245 224.471 486.601 224.179 485.773 224.179H482.277V229.524H485.773C486.509 229.426 487.153 229.135 487.705 228.649Z" fill="#1D3A66"/>
<path d="M515.398 244.779H498.286V218.155H515.398V223.985H504.45V228.455H513.834V234.285H504.45V238.949H515.398V244.779Z" fill="#1D3A66"/>
<path d="M539.688 244.779H532.511L528.095 234.868H525.979V244.779H519.815V218.155H529.843C532.512 218.155 534.628 219.029 536.1 220.681C537.664 222.333 538.4 224.374 538.4 226.706C538.4 228.357 538.032 229.815 537.204 230.981C536.376 232.147 535.456 233.022 534.26 233.702L539.688 244.779ZM531.407 228.649C531.867 228.066 532.143 227.483 532.143 226.803C532.143 226.123 531.867 225.442 531.407 224.957C530.947 224.471 530.303 224.179 529.475 224.179H525.979V229.524H529.475C530.303 229.426 530.947 229.135 531.407 228.649Z" fill="#1D3A66"/>
<path d="M563.425 244.779H556.985L555.789 240.795H548.06L546.864 244.779H540.424L549.624 218.155H554.409L563.425 244.779ZM554.133 235.354L552.017 228.26L549.716 235.354H554.133Z" fill="#1D3A66"/>
<path d="M580.63 223.985H574.466V244.779H568.302V223.985H562.137V218.155H580.722V223.985H580.63Z" fill="#1D3A66"/>
<path d="M590.383 244.779H584.218V218.155H590.383V244.779Z" fill="#1D3A66"/>
<path d="M613.844 228.26C613.844 228.94 613.936 230.107 613.936 231.467C613.936 232.924 613.936 233.993 613.844 234.673C613.844 235.354 613.752 236.228 613.568 237.297C613.384 238.366 613.2 239.24 612.832 239.921C612.464 240.601 612.004 241.378 611.36 242.058C609.52 244.002 607.22 244.973 604.368 244.973C601.515 244.973 599.215 244.002 597.375 242.058C596.731 241.378 596.271 240.698 595.903 239.921C595.535 239.143 595.259 238.269 595.167 237.297C594.983 236.228 594.891 235.451 594.891 234.673C594.891 233.993 594.799 232.827 594.799 231.467C594.799 230.009 594.799 228.94 594.891 228.26C594.891 227.58 594.983 226.706 595.167 225.637C595.351 224.568 595.535 223.693 595.903 223.013C596.271 222.236 596.731 221.556 597.375 220.875C599.215 218.932 601.515 217.96 604.368 217.96C607.22 217.96 609.52 218.932 611.36 220.875C612.004 221.556 612.464 222.236 612.832 223.013C613.2 223.791 613.476 224.665 613.568 225.637C613.66 226.706 613.752 227.483 613.844 228.26ZM607.496 236.131C607.68 235.354 607.68 233.799 607.68 231.564C607.68 229.329 607.588 227.774 607.496 226.9C607.312 226.025 607.128 225.442 606.76 224.957C606.208 224.179 605.38 223.79 604.276 223.79C603.172 223.79 602.344 224.179 601.792 224.957C601.423 225.442 601.239 226.025 601.055 226.9C600.871 227.774 600.871 229.232 600.871 231.564C600.871 233.896 600.963 235.354 601.055 236.131C601.239 236.908 601.423 237.589 601.792 238.074C602.344 238.852 603.172 239.24 604.276 239.24C605.38 239.24 606.208 238.852 606.76 238.074C607.128 237.589 607.312 236.908 607.496 236.131Z" fill="#1D3A66"/>
<path d="M637.858 244.779H632.429L624.333 231.37V244.779H618.168V218.155H623.597L631.693 231.564V218.155H637.858V244.779Z" fill="#1D3A66"/>
<path d="M189.148 148.29C186.203 153.44 183.259 158.59 180.315 163.837C183.259 165.975 186.111 167.918 188.964 169.959C188.964 170.056 188.964 170.153 188.872 170.25C185.191 170.25 193.288 170.347 191.172 170.25C189.424 170.25 189.424 170.25 189.424 168.501C189.424 162.185 189.424 155.966 189.424 149.65C189.424 149.164 189.424 148.679 189.424 148.193C189.424 148.29 189.24 148.29 189.148 148.29Z" fill="#1D3A66"/>
<path d="M194.484 170.347V170.056L190.436 167.141L195.128 158.493V169.959C195.128 170.25 195.312 170.444 195.588 170.444H195.956" fill="#1D3A66"/>
<path d="M183.903 170.542V170.25L179.855 167.335L184.547 158.687V170.153C184.547 170.444 184.731 170.639 185.007 170.639H185.375" fill="#1D3A66"/>
<path d="M176.267 170.444L197.428 170.25L196.324 173.845C196.324 173.845 192.736 175.109 188.78 176.275C184.823 177.441 182.983 177.829 182.983 177.829L176.267 170.444Z" fill="#1D3A66"/>
<path fill-rule="evenodd" clip-rule="evenodd" d="M308.571 149.942H325.224C326.42 149.942 327.34 148.776 327.156 147.513C320.439 101.066 285.661 62.4893 238.647 46.0677C237.727 45.7762 236.714 46.4564 236.714 47.5252C236.714 48.1083 237.082 48.6913 237.543 48.8856C274.437 66.7648 301.21 103.786 306.455 147.998C306.731 149.164 307.559 149.942 308.571 149.942Z" fill="#1D3A66"/>
<path fill-rule="evenodd" clip-rule="evenodd" d="M67.6086 149.942H50.9556C49.7595 149.942 48.8395 148.776 49.0235 147.513C55.7399 101.066 90.5179 62.4893 137.533 46.0677C138.453 45.7762 139.465 46.4564 139.465 47.5252C139.465 48.1083 139.097 48.6913 138.637 48.8856C101.743 66.7648 74.969 103.786 69.7247 147.998C69.4487 149.164 68.6206 149.942 67.6086 149.942Z" fill="#1D3A66"/>
<path fill-rule="evenodd" clip-rule="evenodd" d="M308.571 177.538H325.224C326.42 177.538 327.34 178.704 327.156 179.967C320.439 226.414 285.661 264.99 238.647 281.412C237.727 281.703 236.714 281.023 236.714 279.954C236.714 279.371 237.082 278.788 237.543 278.594C274.437 260.715 301.21 223.693 306.455 179.481C306.731 178.315 307.559 177.538 308.571 177.538Z" fill="#1D3A66"/>
<path fill-rule="evenodd" clip-rule="evenodd" d="M67.6086 177.538H50.9556C49.7595 177.538 48.8395 178.704 49.0235 179.967C55.7399 226.414 90.5179 264.99 137.533 281.412C138.453 281.703 139.465 281.023 139.465 279.954C139.465 279.371 139.097 278.788 138.637 278.594C101.743 260.715 74.969 223.693 69.7247 179.481C69.4487 178.315 68.6206 177.538 67.6086 177.538Z" fill="#1D3A66"/>
<path d="M294.494 163.06C294.494 224.957 247.019 275.193 188.32 275.193C145.169 275.193 108.091 247.986 91.438 209.021C85.4577 195.028 82.1455 179.481 82.1455 163.157C82.1455 101.26 129.62 51.0234 188.32 51.0234C247.019 51.0234 294.494 101.163 294.494 163.06Z" stroke="#1D3A66" stroke-width="4.6425" stroke-miterlimit="10"/>
<path d="M187.842 270.726C243.889 270.575 289.209 222.468 289.067 163.276C288.924 104.083 243.374 56.2198 187.327 56.37C131.28 56.5202 85.9607 104.627 86.1029 163.82C86.2451 223.012 131.795 270.876 187.842 270.726Z" fill="white"/>
<path fill-rule="evenodd" clip-rule="evenodd" d="M282.993 135.366L284.189 139.933L285.017 144.5L285.753 149.164L286.305 153.829L286.489 158.493L286.581 163.157V167.821L286.213 172.582L285.753 177.344L285.109 181.91L284.189 186.477L283.177 191.044L281.797 195.514L280.509 199.984L278.853 204.357L277.013 208.632L274.989 212.81L272.781 216.891L270.388 220.875L267.904 224.762L265.236 228.552L262.384 232.147L259.44 235.548L256.22 238.949L252.999 242.058L249.503 245.071L246.007 247.986L242.327 250.609L238.647 253.233L234.782 255.37L230.826 257.605L226.87 259.549L222.73 261.395L218.497 262.853L214.265 264.213L209.941 265.379L205.525 266.448L201.2 267.128L196.784 267.614L192.276 267.905L187.952 268.197L183.443 268.003L179.027 267.711L174.611 267.128L170.195 266.448L165.87 265.573L161.546 264.407L157.314 263.047L153.082 261.589L148.941 259.743L144.893 257.8L140.937 255.662L137.073 253.427L133.3 250.901L129.62 248.277L126.032 245.362L122.72 242.35L119.316 239.24L116.187 235.937L113.243 232.536L110.391 228.94L107.723 225.151L105.147 221.264L102.755 217.28L100.547 213.296L98.5224 209.118L96.6823 204.842L95.0262 200.47L93.4621 196.097L92.2661 191.53L91.07 186.963L90.242 182.396L89.5059 177.732L89.0459 173.165L88.6779 168.404L88.5859 163.74L88.6779 159.076L89.0459 154.314L89.4139 149.747L90.15 145.083L91.07 140.516L92.0821 135.949L93.3701 131.382L94.8422 127.01L96.4983 122.637L98.3384 118.362L100.271 114.183L102.479 110.102L104.871 106.118L107.355 102.232L110.023 98.442L112.967 94.8467L115.911 91.4458L119.04 88.1421L122.352 84.9354L125.664 81.826L129.252 79.0081L132.932 76.3845L136.613 73.7609L140.477 71.5261L144.433 69.3883L148.481 67.3478L152.622 65.5988L156.762 64.1412L161.086 62.6837L165.41 61.6148L169.735 60.5459L174.151 59.7686L178.567 59.2827L182.983 58.9912L187.308 58.894L191.816 59.0884L196.232 59.2827L200.648 59.7686L205.065 60.5459L209.389 61.5176L213.805 62.6837L218.037 63.9469L222.178 65.4044L226.318 67.2506L230.366 69.194L234.414 71.2346L238.187 73.5667L242.051 76.093L245.731 78.7166L249.227 81.5345L252.539 84.5468L255.944 87.7534L259.072 91.0571L262.016 94.4581L264.868 98.0533L267.536 101.843L270.204 105.633L272.505 109.616L274.713 113.698L276.737 117.876L278.577 122.151L280.325 126.427L281.797 130.897L282.993 135.366Z" fill="#1D3A66"/>
<path d="M282.993 135.366L284.189 139.933L285.017 144.5L285.753 149.164L286.305 153.829L286.489 158.493L286.581 163.157V167.821L286.213 172.582L285.753 177.344L285.109 181.91L284.189 186.477L283.177 191.044L281.797 195.514L280.509 199.984L278.853 204.357L277.013 208.632L274.989 212.81L272.781 216.891L270.388 220.875L267.904 224.762L265.236 228.552L262.384 232.147L259.44 235.548L256.22 238.949L252.999 242.058L249.503 245.071L246.007 247.986L242.327 250.609L238.647 253.233L234.782 255.37L230.826 257.605L226.87 259.549L222.73 261.395L218.497 262.853L214.265 264.213L209.941 265.379L205.525 266.448L201.2 267.128L196.784 267.614L192.276 267.905L187.952 268.197L183.443 268.003L179.027 267.711L174.611 267.128L170.195 266.448L165.87 265.573L161.546 264.407L157.314 263.047L153.082 261.589L148.941 259.743L144.893 257.8L140.937 255.662L137.073 253.427L133.3 250.901L129.62 248.277L126.032 245.362L122.72 242.35L119.316 239.24L116.187 235.937L113.243 232.536L110.391 228.94L107.723 225.151L105.147 221.264L102.755 217.28L100.547 213.296L98.5224 209.118L96.6823 204.842L95.0262 200.47L93.4621 196.097L92.2661 191.53L91.07 186.963L90.242 182.396L89.5059 177.732L89.0459 173.165L88.6779 168.404L88.5859 163.74L88.6779 159.076L89.0459 154.314L89.4139 149.747L90.15 145.083L91.07 140.516L92.0821 135.949L93.3701 131.382L94.8422 127.01L96.4983 122.637L98.3384 118.362L100.271 114.183L102.479 110.102L104.871 106.118L107.355 102.232L110.023 98.442L112.967 94.8467L115.911 91.4458L119.04 88.1421L122.352 84.9354L125.664 81.826L129.252 79.0081L132.932 76.3845L136.613 73.7609L140.477 71.5261L144.433 69.3883L148.481 67.3478L152.622 65.5988L156.762 64.1412L161.086 62.6837L165.41 61.6148L169.735 60.5459L174.151 59.7686L178.567 59.2827L182.983 58.9912L187.308 58.894L191.816 59.0884L196.232 59.2827L200.648 59.7686L205.065 60.5459L209.389 61.5176L213.805 62.6837L218.037 63.9469L222.178 65.4044L226.318 67.2506L230.366 69.194L234.414 71.2346L238.187 73.5667L242.051 76.093L245.731 78.7166L249.227 81.5345L252.539 84.5468L255.944 87.7534L259.072 91.0571L262.016 94.4581L264.868 98.0533L267.536 101.843L270.204 105.633L272.505 109.616L274.713 113.698L276.737 117.876L278.577 122.151L280.325 126.427L281.797 130.897L282.993 135.366Z" stroke="white" stroke-width="0.5264"/>
<path fill-rule="evenodd" clip-rule="evenodd" d="M198.9 267.322L219.969 262.172L226.594 259.452L239.935 252.358L239.015 252.941L238.647 253.233L234.874 255.371L230.826 257.605L226.87 259.549L222.73 261.395L218.497 262.853L214.265 264.213L209.941 265.379L205.525 266.448L201.016 267.128L199.544 267.322H198.9Z" fill="white"/>
<path fill-rule="evenodd" clip-rule="evenodd" d="M125.388 84.4496L122.996 86.6845L121.8 87.2675L122.536 86.393L125.204 84.5468L125.388 84.4496Z" fill="white"/>
<path fill-rule="evenodd" clip-rule="evenodd" d="M125.388 84.4496L122.996 86.6845L121.8 87.2675L122.536 86.393L125.204 84.5468" fill="white"/>
<path fill-rule="evenodd" clip-rule="evenodd" d="M219.785 66.279L223.742 67.9308L227.146 70.3601L219.785 66.279Z" fill="#1769FF"/>
<path fill-rule="evenodd" clip-rule="evenodd" d="M219.785 66.279L223.742 67.9308L227.146 70.3601L219.785 66.279Z" fill="#1769FF"/>
<path fill-rule="evenodd" clip-rule="evenodd" d="M180.591 86.2958L182.523 86.5873L182.707 87.4619L181.879 88.1421L180.131 86.976L180.591 86.2958Z" fill="#1769FF"/>
<path fill-rule="evenodd" clip-rule="evenodd" d="M180.591 86.2958L182.523 86.5873L182.707 87.4619L181.879 88.1421L180.131 86.976L180.591 86.2958Z" fill="#1769FF"/>
<path fill-rule="evenodd" clip-rule="evenodd" d="M164.398 181.036L166.606 181.522L167.158 185.214L165.226 184.437L166.33 183.271L164.398 181.036Z" fill="#1769FF"/>
<path fill-rule="evenodd" clip-rule="evenodd" d="M99.5345 116.71L99.0745 117.682L99.9025 117.099L100.087 116.807L99.9945 116.224L99.6265 116.613L99.5345 116.71Z" fill="#1769FF"/>
<path d="M137.533 72.595L142.501 69.9714L143.789 69.4855" stroke="white" stroke-width="1.316" stroke-linecap="round" stroke-linejoin="round"/>
<path d="M139.925 72.2063L136.153 74.0525L131.092 77.0648L123.824 82.7006" stroke="white" stroke-width="1.316" stroke-linecap="round" stroke-linejoin="round"/>
<path d="M101.743 110.199L107.171 101.746L113.335 93.875L120.42 86.7817L128.24 80.5628L133.668 76.8704L137.993 74.6355" stroke="white" stroke-width="1.316" stroke-linecap="round" stroke-linejoin="round"/>
<path d="M137.625 76.5789L133.3 79.2996L124.928 85.7129L117.2 92.9034L110.299 100.968L104.227 109.714L100.731 115.738L96.2223 125.358L92.6341 135.366L90.886 142.265L89.1379 152.76L88.4019 163.351L88.7699 173.943L90.15 184.34L91.8061 191.239" stroke="white" stroke-width="1.316" stroke-linecap="round" stroke-linejoin="round"/>
<path d="M140.017 255.079L134.497 251.581L129.16 247.694L124.1 243.419L119.316 238.755L115.083 233.702L111.035 228.357L107.447 222.624L104.135 216.6L101.283 210.284L98.7985 203.871L96.8663 197.166L95.2102 190.267L94.1062 183.174L93.2781 172.582V165.489L93.7382 158.201L94.6582 151.011L96.8663 140.322L98.9825 133.326L101.467 126.621L104.227 119.916L107.539 113.503L111.219 107.284L115.267 101.357L119.684 95.8184L124.468 90.4741L132.104 83.2836L137.533 78.911C137.533 78.911 142.685 72.6921 160.994 62.5865" stroke="white" stroke-width="1.316" stroke-linecap="round" stroke-linejoin="round"/>
<path d="M141.949 78.7167L140.753 79.8827L135.969 84.4496L131.552 89.4053L125.388 97.5675L121.616 103.301L118.212 109.422L113.611 119.139L111.219 125.747L109.011 132.646L106.435 143.237L105.239 150.428L104.411 157.618L103.951 168.598L104.227 175.886L104.687 183.077L106.343 193.668L107.999 200.567L109.931 207.175L113.611 216.892L116.647 222.916L119.868 228.746L125.296 236.811L129.344 241.767L133.668 246.334L138.177 250.512L145.537 256.051L153.266 260.521L158.694 262.853L164.214 264.699L172.403 266.545" stroke="white" stroke-width="1.316" stroke-linecap="round" stroke-linejoin="round"/>
<path d="M189.056 267.808L182.891 267.42L178.199 266.642L171.207 264.407L166.698 262.367L162.19 259.743L155.75 255.079L151.61 251.387L145.813 244.973L142.133 240.212L137.165 232.536L134.129 226.803L129.988 217.863L126.492 208.146L124.56 201.442L122.26 190.947L121.064 183.854L120.236 176.663L119.592 165.78L119.5 158.59L120.144 147.61L120.972 140.516L122.72 129.925L124.376 123.026L127.32 113.115L130.908 103.786L133.669 97.9562L138.269 89.7939L141.673 84.7411C141.673 84.7411 148.665 72.6921 161.086 62.5865" stroke="white" stroke-width="1.316" stroke-linecap="round" stroke-linejoin="round"/>
<path d="M161.086 62.6837C152.53 71.6233 150.965 79.6884 150.965 79.6884L148.757 84.1581L146.641 89.0166L143.881 97.0816L142.409 102.815L140.477 112.046L139.097 121.763L138.545 128.565L138.177 135.464L138.085 146.152L138.545 156.938L139.097 164.128L140.293 174.914L142.041 185.603L143.513 192.599L146.181 202.899L148.113 209.507L151.425 218.932L155.198 227.774L157.866 233.313L160.718 238.463L165.134 245.556L168.262 249.735L173.139 255.176L176.451 258.383L181.511 262.172L185.007 264.116L190.16 266.059L195.128 266.934L199.176 266.739" stroke="white" stroke-width="1.316" stroke-linecap="round" stroke-linejoin="round"/>
<path d="M207.089 265.573L205.157 265.67L202.304 264.893L200.372 263.63L197.244 261.006L194.116 257.314L191.908 254.204L186.48 244.585L181.051 232.439L175.807 218.252L170.931 202.413L165.594 181.716L161.27 160.339L158.602 142.557L156.67 125.358L155.75 109.422L155.842 95.0411C155.842 95.0411 156.486 85.81 156.762 82.7978C158.326 69.4856 160.994 62.6837 160.994 62.6837" stroke="white" stroke-width="1.316" stroke-linecap="round" stroke-linejoin="round"/>
<path d="M161.086 62.6837L213.805 263.921" stroke="white" stroke-width="1.4024" stroke-linecap="round" stroke-linejoin="round"/>
<path d="M220.337 261.687L222.086 260.715L224.018 258.48L225.582 255.176L226.318 252.358L227.238 247.403L227.514 243.516L227.422 232.341L226.134 218.932L223.65 203.968L220.153 187.741L214.541 167.141L207.733 146.541L201.292 129.925L194.576 114.086L187.584 99.8996L180.591 87.559C180.591 87.559 175.439 80.077 173.783 77.5506C166.33 66.1818 161.086 62.3922 161.086 62.3922" stroke="white" stroke-width="1.316" stroke-linecap="round" stroke-linejoin="round"/>
<path d="M162.374 62.7808C171.023 65.6959 181.419 74.5384 181.419 74.5384L185.467 77.6477L191.724 83.0892L195.864 87.1704L201.936 94.0694L207.825 101.649L213.529 110.005L217.209 115.835L222.27 125.066L225.582 131.48L230.09 141.294L232.85 147.998L236.622 158.201L239.751 168.501L241.591 175.303L243.799 185.311L244.811 191.919L246.007 201.539L246.375 207.758V216.6L246.099 222.139L245.547 227.386L244.075 234.673L242.787 239.24L240.211 245.265L237.174 250.415L234.874 253.233L230.918 256.731L227.422 258.771" stroke="white" stroke-width="1.316" stroke-linecap="round" stroke-linejoin="round"/>
<path d="M236.806 253.719L241.959 250.026L245.639 246.82L250.607 241.087L253.459 236.811L255.944 232.147L259.256 224.568L261.648 216.308L262.844 210.576L263.672 204.454L264.132 195.126L263.764 185.311L263.12 178.704L261.372 168.501L259.716 161.699L256.68 151.496L254.195 144.792L249.871 134.978L246.559 128.565L241.131 119.236L237.082 113.212L232.942 107.576L226.226 99.5109L221.534 94.5553L214.081 87.6563L206.353 81.6317L201.108 78.1336L193.196 73.6638L187.86 71.2346C187.86 71.2346 172.955 61.3233 161.178 62.6837" stroke="white" stroke-width="1.316" stroke-linecap="round" stroke-linejoin="round"/>
<path d="M162.374 62.7809C174.151 59.7686 189.056 65.113 189.056 65.113L195.588 68.7083L204.881 71.9148L211.045 74.6356L219.969 79.494L228.618 85.3242L234.046 89.6968L239.291 94.3609L244.259 99.3166L251.159 107.479L255.484 113.212L259.348 119.236L264.592 128.662L267.536 135.075L271.308 145.083L273.333 151.788L274.897 158.59L276.093 165.392L277.013 175.692V182.396L276.369 192.308L275.265 198.818L273.793 205.134L270.848 214.171L268.364 219.904L265.512 225.345L260.452 232.924L256.588 237.491L250.423 243.613" stroke="white" stroke-width="1.316" stroke-linecap="round" stroke-linejoin="round"/>
<path d="M272.597 216.114L275.633 210.09L278.301 203.774L280.417 197.458L282.165 190.85L283.453 184.145L284.281 177.344L284.557 170.444L284.465 163.448L283.821 156.452L282.717 149.65L281.061 142.848L279.037 136.047L276.645 129.342L273.793 123.026L270.388 116.71L264.684 107.77L260.36 102.232L255.668 96.8873L248.123 89.4053L242.603 85.0326L236.99 80.8544L230.918 77.2591L224.846 73.9553L218.405 71.0402L211.873 68.7082L205.249 66.7648L195.22 64.8214L188.32 64.044L186.572 63.8497" stroke="white" stroke-width="1.316" stroke-linecap="round" stroke-linejoin="round"/>
<path d="M186.94 62.0035L192.184 61.9064L202.488 62.8781L212.609 64.8215L219.325 66.7648L228.802 70.5544L238.003 75.4129L246.467 81.1459L254.471 87.7534L259.348 92.709L265.972 100.677L271.768 109.325L276.645 118.653L280.601 128.37L282.533 135.075" stroke="white" stroke-width="1.316" stroke-linecap="round" stroke-linejoin="round"/>
<path d="M234.322 71.1374L225.582 66.862L216.381 63.5582L206.905 61.3233L197.244 60.2545H187.308L185.836 60.4488" stroke="white" stroke-width="1.316" stroke-linecap="round" stroke-linejoin="round"/>
<path d="M183.167 59.4771L187.216 59.0884L193.012 58.894L202.028 59.7686" stroke="white" stroke-width="1.316" stroke-linecap="round" stroke-linejoin="round"/>
<path d="M185.375 58.6026L179.671 58.9913L178.751 59.2828" stroke="white" stroke-width="1.316" stroke-linecap="round" stroke-linejoin="round"/>
<path d="M253.183 241.087L250.515 243.516L246.651 246.042L242.051 248.763L236.898 251.387L225.03 256.342L213.621 260.229L200.464 263.63L187.86 265.865L182.063 266.448L176.911 266.545L172.311 266.448L168.815 265.865" stroke="white" stroke-width="1.316" stroke-linecap="round" stroke-linejoin="round"/>
<path d="M141.581 256.051L146.273 257.703L152.898 258.771L161.086 259.063L168.723 258.674L179.027 257.411L190.252 255.468L199.636 253.233L211.413 250.026L223.006 246.237L231.93 242.933L240.303 239.338L249.779 234.771L256.404 230.981L263.396 226.22L268.548 221.75L271.584 217.766" stroke="white" stroke-width="1.316" stroke-linecap="round" stroke-linejoin="round"/>
<path d="M282.625 191.336L281.889 193.085L280.049 196.194L277.473 199.207L275.173 201.442L267.904 207.077L258.796 212.907L247.663 218.641L235.15 224.179L221.534 229.426L207.457 233.896L192.92 237.88L175.991 241.67L162.558 243.613L150.321 244.779L139.557 244.876L130.632 244.002L127.688 243.321L123.824 242.155L120.788 240.504L119.224 239.338" stroke="white" stroke-width="1.316" stroke-linecap="round" stroke-linejoin="round"/>
<path d="M102.387 217.183L103.859 219.126L106.527 221.07L108.827 222.236L113.151 223.596L118.212 224.568L124.192 225.151L135.785 225.248L143.697 224.859L152.07 223.888L167.066 221.556L182.799 218.252L202.12 213.005L217.945 207.855L233.034 202.122L241.591 198.526L249.595 194.737L261.464 188.227L271.4 181.813L276.277 178.024L280.141 174.428L282.257 171.999L284.649 168.695L285.937 165.489L286.213 163.06" stroke="white" stroke-width="1.316" stroke-linecap="round" stroke-linejoin="round"/>
<path d="M282.533 135.075L282.809 137.407L282.165 140.516L280.417 143.82L277.749 147.415L273.977 151.205L269.192 155.092L259.44 161.699L247.479 168.404L239.383 172.388L230.734 176.178L215.369 182.202L195.772 188.712L175.715 194.154L159.43 197.555L150.045 199.109L141.029 200.276L132.472 201.053L124.56 201.442L112.967 201.053L107.079 200.276L102.019 199.207L97.9704 197.555L94.8423 195.611L92.6341 193.279L91.8061 191.239" stroke="white" stroke-width="1.316" stroke-linecap="round" stroke-linejoin="round"/>
<path d="M88.1259 163.254L88.4939 165.586L89.8739 168.015L92.1741 170.056L95.5783 171.805L99.8105 173.165L104.963 174.234L110.943 174.817L117.66 174.914L125.112 174.72L133.024 174.137L141.673 173.165L150.597 171.805L169.459 167.821L188.78 162.671L204.605 157.521L222.638 150.525L231.01 146.832L238.831 143.043L246.007 139.059L252.447 135.269L258.152 131.48L263.028 127.69L266.8 124.095L269.836 120.499L271.768 117.196L272.781 114.183V111.365L271.952 109.131" stroke="white" stroke-width="1.316" stroke-linecap="round" stroke-linejoin="round"/>
<path d="M255.023 86.976L256.128 88.3363L256.864 89.7939L257.14 92.2231L256.588 95.0411L255.115 97.859L252.723 100.968L249.503 104.175L245.455 107.576L240.579 110.977L235.058 114.475L228.802 117.876L214.633 124.775L206.905 127.981L195.864 132.063L178.843 137.504L161.546 141.974L144.893 145.278L129.344 147.221L122.352 147.61L115.819 147.707L110.115 147.415L104.963 146.735L100.639 145.666L97.0503 144.306L94.3822 142.751L92.5421 140.614L91.622 138.379L91.53 136.824L91.806 135.075" stroke="white" stroke-width="1.316" stroke-linecap="round" stroke-linejoin="round"/>
<path d="M102.663 108.548L101.651 111.074L101.375 113.212L101.927 115.155L102.663 116.321L103.767 117.196L106.803 119.139L110.023 120.111L113.703 120.791L118.028 121.277H128.424L134.313 120.791L142.685 119.819L158.602 116.807L175.071 112.434L188.872 107.867L203.961 101.843L211.781 98.0533L216.933 95.2354L225.858 89.5024L229.354 86.7817L232.298 84.1581L235.058 80.66L236.07 78.3279L236.622 76.8704V75.4128L236.162 73.5667L234.966 71.8176L232.666 70.2629" stroke="white" stroke-width="1.316" stroke-linecap="round" stroke-linejoin="round"/>
<path d="M205.525 60.3516L208.285 61.129L210.677 62.1979L212.149 63.7526L212.701 65.1129L212.517 67.0563L211.505 69.1941L209.573 71.6233L207.641 73.5667L204.145 76.1902L199.912 78.8138L191.08 83.5751L180.591 87.8505L169.183 91.6402L157.59 94.6524L144.801 97.1788L139.005 97.7618L133.668 97.9562L125.848 97.6647L123.18 97.0816L120.328 96.1099L118.396 94.7496L117.292 93.1949L117.2 91.1543L117.66 89.5996L119.132 87.2675L121.156 85.227" stroke="white" stroke-width="1.316" stroke-linecap="round" stroke-linejoin="round"/>
<path d="M167.066 60.6431L161.086 62.1979L155.106 64.2384L149.585 66.3761L145.445 68.5139L141.581 70.9431L139.281 72.8865L137.809 74.927L137.625 76.0931L137.809 76.7733L138.545 77.5506L139.557 78.1336L143.145 78.911L148.205 79.0081L154.37 78.2308L161.178 76.6761L167.986 74.6355L174.519 72.2063L179.303 69.8742L183.627 66.9591L186.296 64.4327L186.94 63.2667L187.124 62.295L186.756 61.2262L186.02 60.546L183.535 59.5743L179.211 59.2828L173.507 59.5743L167.066 60.6431Z" stroke="white" stroke-width="1.316" stroke-linecap="round" stroke-linejoin="round"/>
<path d="M263.672 96.8873L264.96 99.1222L265.328 101.746L264.776 104.564L263.212 107.576L260.728 110.783L257.324 114.183L253.091 117.779L248.031 121.374L240.119 126.135L233.402 129.828L218.221 136.824L201.292 143.431L184.087 148.873L182.983 149.164L165.594 153.926L147.929 157.521L131.46 159.853L123.916 160.339L114.715 160.533L108.735 160.242L103.215 159.562L98.7065 158.493L95.0263 157.035L92.1741 155.383L90.334 153.246L89.2299 150.816L89.4139 148.096" stroke="white" stroke-width="1.316" stroke-linecap="round" stroke-linejoin="round" stroke-dasharray="11.14 11.14"/>
<path d="M285.201 177.829L284.649 180.259L282.993 183.271L281.429 185.603L278.301 189.004L274.161 192.696L271.032 195.028L265.42 198.721L259.348 202.51L252.263 206.203L244.811 209.992L231.01 215.823L216.289 221.264L203.961 225.151L203.132 225.442L190.712 228.843L175.439 232.244L160.718 234.673L152.438 235.645L144.709 236.228L137.625 236.52L131 236.228L127.136 235.937L121.8 235.062L117.476 233.896L114.991 232.924L112.047 230.981L110.391 229.232" stroke="white" stroke-width="1.316" stroke-linecap="round" stroke-linejoin="round" stroke-dasharray="11.14 11.14"/>
<path fill-rule="evenodd" clip-rule="evenodd" d="M250.883 190.073C250.055 193.085 249.135 196.194 247.019 198.332C246.099 199.207 244.995 199.984 244.719 201.247C244.351 202.705 245.271 204.162 245.363 205.62C245.455 206.786 244.995 207.855 244.627 208.924C244.259 209.992 243.983 211.158 244.259 212.324C244.535 213.491 245.731 214.268 246.743 213.879C247.387 213.588 247.755 212.81 248.031 212.13C248.951 210.187 249.779 208.243 250.699 206.3C251.435 204.745 252.079 203.191 252.447 201.539C253.275 198.235 252.815 194.834 252.355 191.433C252.263 191.044 251.803 190.656 251.803 191.044" fill="white"/>
<path fill-rule="evenodd" clip-rule="evenodd" d="M140.477 76.0931C141.305 73.8582 143.881 72.8865 146.181 72.7893C148.481 72.6921 150.873 73.0808 153.082 72.4978C153.818 72.3035 154.646 72.012 155.106 72.595C155.474 72.9837 155.474 73.6638 155.198 74.2468C154.37 76.5789 151.794 77.6478 150.137 79.3969C148.297 81.3402 147.469 84.2553 145.445 86.0044C144.157 87.0732 142.593 87.5591 141.029 88.1421C137.073 89.5025 133.3 91.4458 130.08 94.1665C129.16 94.9439 127.78 95.8185 126.952 95.0411C125.848 93.9722 126.676 91.1543 125.204 90.96C127.228 88.6279 129.712 86.5874 132.38 85.1298C133.484 84.5468 134.773 83.9638 135.417 82.7978C135.693 82.3119 135.877 81.7289 136.061 81.1459C136.889 79.1053 138.269 77.3562 139.741 75.7044" fill="white"/>
<path fill-rule="evenodd" clip-rule="evenodd" d="M130.724 80.4657C126.308 85.4213 121.892 90.2798 117.476 95.2354C116.924 95.9156 116.279 96.5958 116.371 97.4703C116.371 98.0533 116.648 98.6363 116.648 99.2193C116.648 100.483 115.175 101.26 114.899 102.426C114.715 103.398 115.359 104.369 115.543 105.341C116.003 107.576 114.347 109.714 112.507 111.074C110.667 112.337 108.459 113.212 107.171 115.155C106.159 116.71 105.699 118.75 104.135 119.722C103.491 120.111 102.755 120.305 102.019 120.499C99.7185 121.18 97.7864 122.929 96.7744 125.164C96.7744 125.164 97.8784 113.212 106.067 99.8024C112.507 89.2109 129.62 75.9959 132.472 74.6355C135.233 73.2751 130.724 80.4657 130.724 80.4657Z" fill="white"/>
<path fill-rule="evenodd" clip-rule="evenodd" d="M132.932 251.678C129.62 247.791 126.124 243.224 126.4 237.977C126.492 236.228 127.044 234.576 127.044 232.827C127.044 229.426 125.02 226.317 124.744 222.916C124.56 219.904 125.664 216.503 124.192 213.879C123.548 212.713 122.352 211.936 121.34 211.158C119.684 209.992 118.028 208.924 116.463 207.758C113.427 205.62 110.207 203.482 106.619 202.899C106.251 202.802 105.975 202.802 105.607 202.705C104.871 202.413 104.503 201.539 104.135 200.761C101.559 195.223 98.9825 189.781 96.4983 184.243C95.6703 182.493 94.8422 180.744 93.5542 179.384C92.5421 178.315 91.162 177.538 90.242 176.275C89.3219 175.011 86.6538 173.262 87.4818 171.999C87.4818 171.999 89.4139 189.976 99.5345 212.713C105.791 226.997 132.932 251.678 132.932 251.678Z" fill="white"/>
<path d="M187.768 196.777C186.203 196.777 184.823 194.931 184.363 193.182C183.811 191.239 183.811 189.004 182.615 187.449C181.327 185.894 179.211 185.409 177.279 185.506C169.367 185.603 162.19 191.822 154.37 190.656C152.438 190.364 150.597 189.587 148.941 188.615C140.017 183.66 134.865 172.194 136.705 161.796C137.809 155.578 141.121 150.039 144.341 144.597C146.457 141.197 148.481 137.698 150.597 134.298V134.2C151.425 134.006 152.254 134.686 152.99 135.075C158.602 137.893 164.398 127.787 170.103 130.216C170.931 130.605 171.575 131.091 172.311 131.674C176.359 134.589 181.511 135.949 186.387 135.269C185.467 134.006 186.295 132.063 187.584 131.285C188.872 130.508 190.436 130.508 192 130.508C194.024 130.411 196.048 130.119 197.98 129.633C200.464 129.05 202.948 127.982 204.605 125.844C206.169 123.706 206.445 120.305 204.513 118.556C204.329 118.362 204.053 118.167 203.684 118.07C202.948 117.973 202.488 118.75 202.028 119.333C199.82 122.249 194.852 121.957 192.92 118.848C192.092 117.584 191.816 115.641 192.828 114.475C193.288 113.892 194.024 113.503 194.668 113.212C198.532 111.366 202.304 109.519 206.077 107.77C205.525 105.438 202.672 104.855 200.372 104.661C197.704 104.467 194.852 104.272 192.736 106.021C188.32 109.714 190.804 119.139 185.651 121.471C182.339 117.196 176.819 114.961 171.667 115.738C174.243 117.293 176.819 118.75 179.303 120.305C179.487 121.374 179.027 122.54 178.199 123.317C175.899 120.985 173.323 119.042 170.563 117.293C169.827 116.904 169.09 116.418 168.262 116.418C167.71 116.418 167.158 116.613 166.698 116.807C162.374 118.75 160.074 123.609 157.314 127.593C155.566 130.216 152.99 132.646 150.229 133.715C148.757 134.2 147.193 134.298 145.629 133.812C146.181 132.063 145.629 130.119 145.353 128.273C145.077 126.427 145.261 124.192 146.641 123.123C147.745 122.346 149.125 122.443 150.413 122.054C152.99 121.277 154.83 119.139 154.278 116.418C155.106 115.544 153.542 111.851 154.186 110.588C157.774 107.77 176.175 97.0817 176.175 97.0817C176.175 97.0817 180.867 95.1383 176.175 87.1704C173.507 83.0893 165.686 96.11 164.214 96.0128C162.65 96.0128 160.902 96.4015 159.798 95.3326C161.914 91.3487 162.834 89.6968 164.95 85.7129C165.87 84.061 167.434 78.5223 168.998 77.745C170.471 76.9676 172.863 78.5224 174.519 78.4252C177.463 78.2308 180.407 77.3563 182.983 75.7044C185.007 74.4412 186.848 72.6921 187.584 70.3601C188.32 68.028 187.492 65.0158 185.283 64.0441C186.572 64.2384 187.676 62.4894 187.216 61.129C186.848 59.7686 185.467 58.9913 184.179 58.6026C184.179 58.6026 222.362 58.4083 245.639 78.4252C268.548 98.1506 276.277 117.973 276.461 118.653C274.161 116.03 271.768 113.309 269.468 110.685C268.916 110.102 268.272 109.422 267.536 109.617C266.524 109.908 266.34 111.366 266.432 112.532C267.26 120.111 268.824 127.593 271.124 134.881C267.352 133.132 264.04 130.216 261.832 126.524C260.084 123.706 258.796 120.208 255.851 118.945C253.827 118.07 251.527 118.459 249.595 117.39C249.043 117.099 248.583 116.613 247.939 116.613C247.295 116.516 246.559 116.904 246.007 117.196C240.855 119.916 234.966 120.888 229.262 119.916C227.698 119.625 225.674 119.431 224.938 120.985C227.606 123.22 230.826 124.775 234.138 125.552C234.598 125.649 235.15 125.747 235.61 125.552C236.162 125.261 236.438 124.581 236.806 123.998C238.278 121.763 241.775 122.54 243.615 124.483C246.559 127.593 246.743 133.131 244.167 136.435C242.695 138.379 240.487 139.545 239.015 141.488C236.99 144.209 236.346 148.29 233.402 149.942C232.85 150.33 232.114 150.525 231.47 150.331C231.378 150.331 231.378 150.33 231.286 150.233C230.642 149.942 230.366 149.262 229.998 148.679C225.49 140.225 218.037 133.617 209.481 130.314C208.653 129.342 207.733 128.37 206.905 127.399C205.525 127.69 205.341 129.828 206.261 130.994C207.089 132.16 208.561 132.549 209.849 133.132C213.621 134.881 216.565 138.184 219.325 141.488C221.994 144.792 224.662 148.29 228.158 150.622C228.526 150.914 228.986 151.108 229.446 151.399C232.758 153.148 236.806 153.634 239.935 151.788C241.315 151.011 242.971 149.65 244.351 150.622C245.363 151.302 245.455 152.663 245.455 153.926C245.179 160.339 241.775 166.169 239.199 171.999C236.622 177.829 234.598 184.728 237.082 190.656C237.818 192.308 238.831 193.862 239.199 195.611C240.395 200.373 236.99 204.94 235.242 209.604C233.586 214.074 233.31 219.029 231.378 223.402C229.722 227.289 226.778 230.398 223.926 233.41C221.626 235.84 218.957 238.463 215.737 238.56C211.689 238.657 208.653 234.771 206.353 231.273C205.617 230.107 204.789 229.038 204.053 227.872C202.58 225.734 201.108 223.596 198.9 222.527C198.164 222.236 197.428 221.944 196.784 221.458C194.852 219.904 195.588 216.697 195.956 214.171C196.968 207.369 193.564 200.081 187.86 196.777V196.777H187.768Z" fill="white"/>
</svg>
