<svg width="340" height="546" viewBox="0 0 340 546" fill="none" xmlns="http://www.w3.org/2000/svg">
<g style="mix-blend-mode:multiply">
<rect width="340" height="546" fill="#D9D9D9"/>
</g>
<path fill-rule="evenodd" clip-rule="evenodd" d="M118.689 118.649C123.069 118.649 127.085 119.627 130.629 121.553C134.155 123.476 136.874 126.106 138.715 129.368L139.287 130.382L151.82 123.44L151.23 122.473C147.993 117.186 143.421 112.942 137.641 109.856C131.87 106.775 125.494 105.212 118.689 105.212C107.384 105.212 97.8687 108.841 90.4124 115.995C82.9562 123.148 79.178 132.114 79.178 142.645C79.178 153.177 82.9562 162.142 90.4124 169.295C97.8687 176.448 107.381 180.077 118.689 180.077C125.564 180.077 131.98 178.496 137.754 175.379C143.53 172.262 148.066 167.997 151.233 162.709L151.814 161.739L139.265 154.908L138.706 155.937C136.935 159.197 134.237 161.82 130.684 163.735C127.112 165.661 123.075 166.64 118.689 166.64C111.226 166.64 105.109 164.362 100.509 159.871C95.9004 155.379 93.561 149.583 93.561 142.645C93.561 135.709 95.9004 129.913 100.509 125.417C105.112 120.927 111.23 118.649 118.689 118.649V118.649ZM185.618 106.512H157.421V178.778H171.804V154.766H185.618C192.822 154.766 198.93 152.419 203.779 147.788C208.631 143.157 211.089 137.387 211.089 130.639C211.089 123.823 208.628 118.036 203.779 113.44C198.927 108.843 192.819 106.512 185.618 106.512V106.512ZM193.576 138.621C191.48 140.712 188.879 141.729 185.618 141.729H171.804V119.55H185.618C188.879 119.55 191.48 120.567 193.573 122.657C195.681 124.762 196.706 127.374 196.706 130.639C196.706 133.905 195.681 136.517 193.576 138.621ZM230.227 165.542V148.863H259.562V135.726H230.227V119.749H262.181V106.512H215.844V178.778H262.705V165.542H230.227Z" fill="#09378B"/>
<path fill-rule="evenodd" clip-rule="evenodd" d="M152.661 281.61H169.68L163.291 294.744H155.146H80.3887H52.4377V281.61H75.388C82.1593 273.55 85.5457 261.311 85.5457 244.894V190.268H152.661V281.61ZM91.7965 281.61H138.127V203.253H100.08V245.192C100.08 261.013 97.3177 273.154 91.7965 281.61V281.61Z" fill="#09378B"/>
<path fill-rule="evenodd" clip-rule="evenodd" d="M258.348 294.744L249.218 271.312H198.758L181.253 315.908H165.394L215.578 190.268H232.398L274.207 294.744H258.348ZM203.885 258.327H244.092L223.909 206.835L203.885 258.327Z" fill="#09378B"/>
<path fill-rule="evenodd" clip-rule="evenodd" d="M157.216 281.368L143.67 315.908H159.529L172.899 281.299L157.216 281.368Z" fill="#09378B"/>
<path fill-rule="evenodd" clip-rule="evenodd" d="M65.4119 88.7485H52.4377V294.744H65.4119V88.7485Z" fill="#09378B"/>
<path fill-rule="evenodd" clip-rule="evenodd" d="M295.406 88.7485H282.431V178.883H295.406V88.7485Z" fill="#09378B"/>
<path fill-rule="evenodd" clip-rule="evenodd" d="M295.406 189.459H282.431V270.835H295.406V189.459Z" fill="#E50C6F"/>
<path fill-rule="evenodd" clip-rule="evenodd" d="M288.584 296.279C283.654 296.279 279.657 292.462 279.657 287.754C279.657 283.045 283.654 279.228 288.584 279.228C293.515 279.228 297.512 283.045 297.512 287.754C297.512 292.462 293.515 296.279 288.584 296.279Z" fill="#E50C6F"/>
<path fill-rule="evenodd" clip-rule="evenodd" d="M295.41 89.6706V77.28H52.4377V89.6706H295.41Z" fill="#09378B"/>
<path fill-rule="evenodd" clip-rule="evenodd" d="M59.6165 368.762V336.128H74.4961V340.864H64.817V349.772H73.2441V354.602H64.817V364.026H74.4961V368.762H59.6165Z" fill="#09378B"/>
<path fill-rule="evenodd" clip-rule="evenodd" d="M80.1719 368.762V374.951H75.7898V364.542L77.7641 364.12C78.6624 363.182 79.2727 362.097 79.594 360.861C79.9145 359.627 80.1072 357.994 80.1719 355.962L80.7512 336.128H95.7739V364.167H97.8927V374.951H93.5107V368.762H80.1719ZM84.8428 355.932C84.7781 357.803 84.6502 359.418 84.4576 360.775C84.2649 362.132 83.8955 363.263 83.35 364.167H90.5732V340.864H85.2281L84.8428 355.932Z" fill="#09378B"/>
<path fill-rule="evenodd" clip-rule="evenodd" d="M113.114 348.319L106.083 368.762H101.075V336.128H106.131V356.805H106.324L113.306 336.128H118.362V368.762H113.258V348.319H113.114Z" fill="#09378B"/>
<path fill-rule="evenodd" clip-rule="evenodd" d="M134.346 368.762V354.508H128.375V368.762H123.174V336.128H128.375V349.772H134.346V336.128H139.546V368.762H134.346Z" fill="#09378B"/>
<path fill-rule="evenodd" clip-rule="evenodd" d="M160.449 360.416C160.449 363.261 159.793 365.41 158.481 366.863C157.169 368.317 155.104 369.043 152.287 369.043C149.47 369.043 147.422 368.348 146.141 366.957C144.861 365.566 144.221 363.557 144.221 360.932V344.521C144.221 343.24 144.373 342.067 144.677 341.004C144.981 339.942 145.453 339.028 146.093 338.261C146.734 337.496 147.574 336.902 148.615 336.48C149.654 336.058 150.895 335.847 152.335 335.847C153.872 335.847 155.16 336.042 156.2 336.433C157.24 336.824 158.072 337.394 158.697 338.144C159.321 338.894 159.768 339.801 160.041 340.864C160.313 341.927 160.449 343.13 160.449 344.474V360.416ZM155.249 344.099C155.249 343.193 155.048 342.38 154.647 341.661C154.245 340.942 153.483 340.582 152.359 340.582C151.749 340.582 151.252 340.716 150.866 340.981C150.481 341.247 150.184 341.575 149.976 341.965C149.767 342.357 149.622 342.794 149.542 343.278C149.462 343.763 149.422 344.209 149.422 344.615V361.026C149.422 361.87 149.639 362.628 150.072 363.3C150.505 363.972 151.252 364.308 152.311 364.308C153.371 364.308 154.124 363.956 154.574 363.253C155.024 362.549 155.249 361.698 155.249 360.697V344.099Z" fill="#09378B"/>
<path fill-rule="evenodd" clip-rule="evenodd" d="M165.211 368.762V336.128H180.091V340.864H170.412V349.772H178.838V354.602H170.412V364.026H180.091V368.762H165.211Z" fill="#09378B"/>
<path fill-rule="evenodd" clip-rule="evenodd" d="M75.5525 408.989C75.5525 411.834 74.8963 413.983 73.5841 415.436C72.2719 416.89 70.2072 417.617 67.3902 417.617C64.5732 417.617 62.5252 416.921 61.2446 415.53C59.964 414.14 59.3245 412.131 59.3245 409.505V393.094C59.3245 391.813 59.4764 390.641 59.7804 389.578C60.0843 388.515 60.5562 387.601 61.1964 386.835C61.8368 386.069 62.6772 385.475 63.7177 385.053C64.7576 384.631 65.9983 384.42 67.4384 384.42C68.9748 384.42 70.263 384.615 71.3035 385.006C72.3433 385.397 73.1756 385.967 73.8 386.717C74.4238 387.468 74.8715 388.375 75.1438 389.437C75.4162 390.5 75.5525 391.704 75.5525 393.047V408.989ZM70.3517 392.672C70.3517 391.766 70.1509 390.953 69.7499 390.234C69.348 389.515 68.5859 389.156 67.4624 389.156C66.8522 389.156 66.355 389.289 65.9697 389.554C65.5845 389.82 65.2872 390.148 65.0789 390.539C64.8697 390.93 64.7253 391.367 64.6455 391.852C64.565 392.337 64.525 392.782 64.525 393.188V409.599C64.525 410.443 64.7417 411.201 65.1751 411.873C65.6086 412.545 66.355 412.881 67.4144 412.881C68.4738 412.881 69.2276 412.529 69.6776 411.826C70.1268 411.123 70.3517 410.271 70.3517 409.271V392.672Z" fill="#09378B"/>
<path fill-rule="evenodd" clip-rule="evenodd" d="M85.4713 397.313H87.6766C89.4027 397.313 90.833 397.54 91.9676 397.992C93.1023 398.445 94.0135 399.092 94.7011 399.933C95.3881 400.776 95.8757 401.804 96.163 403.021C96.4505 404.237 96.595 405.609 96.595 407.137C96.595 410.537 95.8727 413.086 94.4281 414.785C92.9834 416.485 90.7517 417.335 87.7345 417.335H80.2705V384.701H94.9577V389.436H85.4713V397.313ZM85.4713 412.552H87.4305C87.6848 412.552 87.9084 412.505 88.0994 412.411C89.5004 412.287 90.4319 411.748 90.8939 410.794C91.3559 409.841 91.5869 408.645 91.5869 407.207C91.5869 405.425 91.2761 404.12 90.6554 403.292C90.0339 402.464 88.9272 402.049 87.335 402.049H85.4713V412.552Z" fill="#09378B"/>
<path fill-rule="evenodd" clip-rule="evenodd" d="M125.685 412.599H127.901V423.524H123.518V417.335H100.115V384.701H105.316V412.599H110.276V384.701H115.477V412.599H120.485V384.701H125.685V412.599Z" fill="#09378B"/>
<path fill-rule="evenodd" clip-rule="evenodd" d="M131.317 417.335V384.701H146.197V389.436H136.518V398.345H144.945V403.174H136.518V412.599H146.197V417.335H131.317Z" fill="#09378B"/>
<path fill-rule="evenodd" clip-rule="evenodd" d="M157.459 384.42C158.839 384.42 160.027 384.606 161.022 384.977C162.017 385.349 162.844 385.868 163.502 386.533C164.16 387.198 164.641 387.989 164.947 388.906C165.251 389.823 165.404 390.828 165.404 391.922L160.348 393.188C160.348 392 160.117 391.031 159.655 390.281C159.193 389.531 158.453 389.156 157.435 389.156C156.83 389.156 156.336 389.281 155.954 389.531C155.572 389.782 155.277 390.104 155.071 390.495C154.863 390.886 154.72 391.309 154.64 391.763C154.56 392.217 154.521 392.648 154.521 393.055V409.639C154.521 409.953 154.553 410.298 154.617 410.674C154.68 411.049 154.815 411.402 155.022 411.73C155.229 412.059 155.516 412.333 155.882 412.552C156.247 412.772 156.718 412.881 157.291 412.881C159.201 412.881 160.172 411.537 160.203 408.849C161.07 409.005 161.937 409.138 162.804 409.247C163.671 409.357 164.537 409.474 165.404 409.599C165.34 412.069 164.641 414.022 163.309 415.46C161.977 416.898 160.011 417.617 157.411 417.617C154.649 417.617 152.611 416.937 151.295 415.577C149.978 414.217 149.321 412.224 149.321 409.599V393.329C149.321 392.109 149.457 390.961 149.73 389.882C150.002 388.804 150.46 387.859 151.102 387.046C151.744 386.233 152.587 385.592 153.63 385.123C154.673 384.654 155.949 384.42 157.459 384.42V384.42Z" fill="#09378B"/>
<path fill-rule="evenodd" clip-rule="evenodd" d="M177.391 389.436V417.335H172.191V389.436H166.797V384.701H182.785V389.436H177.391Z" fill="#09378B"/>
<path fill-rule="evenodd" clip-rule="evenodd" d="M197.721 400.267C199.198 400.736 200.209 401.627 200.755 402.94C201.301 404.253 201.574 405.753 201.574 407.441C201.574 410.849 200.827 413.349 199.334 414.943C197.842 416.538 195.554 417.335 192.473 417.335H185.538V384.701H192.858C195.811 384.701 197.954 385.459 199.286 386.975C200.618 388.491 201.285 390.687 201.285 393.562C201.285 395.063 201.02 396.376 200.49 397.501C199.961 398.626 199.037 399.47 197.721 400.033V400.267ZM196.325 393.656C196.325 392.156 196.019 391.077 195.41 390.421C194.8 389.764 193.788 389.436 192.376 389.436H190.739V397.876H192.424C193.773 397.876 194.76 397.517 195.386 396.798C196.012 396.079 196.325 395.032 196.325 393.656ZM196.614 407.019C196.614 405.488 196.325 404.347 195.747 403.596C195.169 402.846 194.158 402.471 192.713 402.471H190.739V412.599H192.81C193.644 412.599 194.31 412.451 194.808 412.154C195.305 411.857 195.691 411.458 195.964 410.958C196.236 410.458 196.413 409.864 196.493 409.176C196.573 408.489 196.614 407.77 196.614 407.019V407.019Z" fill="#09378B"/>
<path fill-rule="evenodd" clip-rule="evenodd" d="M206.241 417.335V384.701H221.121V389.436H211.442V398.345H219.869V403.174H211.442V412.599H221.121V417.335H206.241Z" fill="#09378B"/>
<path fill-rule="evenodd" clip-rule="evenodd" d="M235.712 417.335V403.081H229.74V417.335H224.54V384.701H229.74V398.345H235.712V384.701H240.912V417.335H235.712Z" fill="#09378B"/>
<path fill-rule="evenodd" clip-rule="evenodd" d="M257.042 417.335V403.081H251.071V417.335H245.87V384.701H251.071V398.345H257.042V384.701H262.243V417.335H257.042Z" fill="#09378B"/>
<path fill-rule="evenodd" clip-rule="evenodd" d="M283.145 408.989C283.145 411.834 282.489 413.983 281.177 415.436C279.865 416.89 277.8 417.617 274.983 417.617C272.166 417.617 270.118 416.921 268.837 415.53C267.557 414.14 266.917 412.131 266.917 409.505V393.094C266.917 391.813 267.069 390.641 267.373 389.578C267.677 388.515 268.149 387.601 268.789 386.835C269.43 386.069 270.27 385.475 271.311 385.053C272.35 384.631 273.591 384.42 275.031 384.42C276.568 384.42 277.856 384.615 278.896 385.006C279.936 385.397 280.768 385.967 281.393 386.717C282.017 387.468 282.464 388.375 282.737 389.437C283.009 390.5 283.145 391.704 283.145 393.047V408.989ZM277.945 392.672C277.945 391.766 277.744 390.953 277.343 390.234C276.941 389.515 276.179 389.156 275.055 389.156C274.445 389.156 273.948 389.289 273.563 389.554C273.177 389.82 272.88 390.148 272.672 390.539C272.463 390.93 272.318 391.367 272.238 391.852C272.158 392.337 272.118 392.782 272.118 393.188V409.599C272.118 410.443 272.335 411.201 272.768 411.873C273.201 412.545 273.948 412.881 275.007 412.881C276.067 412.881 276.821 412.529 277.271 411.826C277.72 411.123 277.945 410.271 277.945 409.271V392.672Z" fill="#09378B"/>
<path fill-rule="evenodd" clip-rule="evenodd" d="M287.906 417.335V384.701H302.786V389.436H293.107V398.345H301.534V403.174H293.107V412.599H302.786V417.335H287.906Z" fill="#09378B"/>
<path fill-rule="evenodd" clip-rule="evenodd" d="M70.1141 465.908V438.15H64.817V465.908H59.6165V433.274H75.3147V465.908H70.1141Z" fill="#09378B"/>
<path fill-rule="evenodd" clip-rule="evenodd" d="M87.7353 433.274C90.8172 433.274 93.0721 434.055 94.501 435.618C95.9291 437.182 96.6438 439.697 96.6438 443.167C96.6438 444.699 96.4994 446.09 96.2104 447.34C95.9216 448.591 95.4235 449.661 94.7177 450.552C94.0112 451.443 93.0879 452.139 91.9488 452.638C90.8088 453.139 89.3726 453.389 87.639 453.389H85.5202V465.908H80.3196V433.274H87.7353ZM85.5202 438.009V448.559H87.35C88.955 448.559 90.0708 448.112 90.6967 447.217C91.3227 446.323 91.6358 444.98 91.6358 443.19C91.6358 441.589 91.3386 440.325 90.745 439.399C90.1505 438.473 89.0513 438.009 87.4464 438.009H85.5202Z" fill="#09378B"/>
<path fill-rule="evenodd" clip-rule="evenodd" d="M116.1 457.562C116.1 460.407 115.444 462.555 114.132 464.009C112.82 465.462 110.755 466.189 107.938 466.189C105.121 466.189 103.073 465.494 101.792 464.103C100.512 462.712 99.8723 460.703 99.8723 458.078V441.667C99.8723 440.385 100.024 439.213 100.328 438.15C100.632 437.088 101.104 436.173 101.744 435.407C102.385 434.642 103.225 434.047 104.266 433.626C105.305 433.203 106.546 432.992 107.986 432.992C109.523 432.992 110.811 433.188 111.851 433.579C112.891 433.97 113.723 434.54 114.348 435.29C114.972 436.04 115.419 436.947 115.692 438.009C115.964 439.073 116.1 440.276 116.1 441.62V457.562ZM110.9 441.245C110.9 440.339 110.699 439.526 110.298 438.807C109.896 438.088 109.134 437.728 108.01 437.728C107.4 437.728 106.903 437.862 106.518 438.127C106.132 438.393 105.835 438.721 105.627 439.111C105.418 439.503 105.273 439.94 105.193 440.424C105.113 440.909 105.073 441.355 105.073 441.761V458.171C105.073 459.015 105.29 459.774 105.723 460.445C106.156 461.118 106.903 461.454 107.962 461.454C109.022 461.454 109.775 461.102 110.225 460.399C110.675 459.695 110.9 458.844 110.9 457.843V441.245Z" fill="#09378B"/>
<path fill-rule="evenodd" clip-rule="evenodd" d="M128.714 432.992C130.094 432.992 131.282 433.179 132.277 433.55C133.272 433.921 134.099 434.44 134.757 435.105C135.415 435.771 135.896 436.562 136.202 437.478C136.507 438.396 136.659 439.401 136.659 440.495L131.603 441.761C131.603 440.573 131.372 439.604 130.91 438.853C130.448 438.103 129.709 437.728 128.69 437.728C128.085 437.728 127.591 437.853 127.209 438.104C126.827 438.355 126.533 438.676 126.326 439.067C126.118 439.459 125.975 439.881 125.895 440.336C125.816 440.79 125.776 441.221 125.776 441.628V458.212C125.776 458.525 125.808 458.87 125.872 459.246C125.935 459.622 126.071 459.974 126.277 460.303C126.484 460.632 126.771 460.906 127.137 461.125C127.502 461.344 127.973 461.454 128.546 461.454C130.456 461.454 131.427 460.11 131.459 457.421C132.325 457.578 133.192 457.711 134.059 457.82C134.926 457.93 135.792 458.047 136.659 458.171C136.595 460.641 135.896 462.595 134.565 464.032C133.232 465.471 131.266 466.189 128.666 466.189C125.904 466.189 123.866 465.509 122.55 464.15C121.233 462.79 120.576 460.797 120.576 458.171V441.901C120.576 440.682 120.712 439.533 120.985 438.455C121.257 437.376 121.715 436.431 122.357 435.618C122.999 434.806 123.842 434.165 124.885 433.696C125.928 433.227 127.204 432.992 128.714 432.992V432.992Z" fill="#09378B"/>
<path fill-rule="evenodd" clip-rule="evenodd" d="M148.646 438.009V465.908H143.446V438.009H138.052V433.274H154.039V438.009H148.646Z" fill="#09378B"/>
<path fill-rule="evenodd" clip-rule="evenodd" d="M164.2 433.274C167.282 433.274 169.537 434.055 170.966 435.618C172.394 437.182 173.109 439.697 173.109 443.167C173.109 444.699 172.964 446.09 172.675 447.34C172.386 448.591 171.888 449.661 171.183 450.552C170.476 451.443 169.553 452.139 168.414 452.638C167.274 453.139 165.837 453.389 164.104 453.389H161.985V465.908H156.784V433.274H164.2ZM161.985 438.009V448.559H163.815C165.42 448.559 166.536 448.112 167.162 447.217C167.788 446.323 168.101 444.98 168.101 443.19C168.101 441.589 167.804 440.325 167.21 439.399C166.615 438.473 165.516 438.009 163.911 438.009H161.985Z" fill="#09378B"/>
<path fill-rule="evenodd" clip-rule="evenodd" d="M186.259 465.908L184.959 459.109H178.796C178.571 460.234 178.354 461.368 178.145 462.508C177.936 463.65 177.736 464.783 177.544 465.908H172.247C173.37 460.438 174.493 454.999 175.617 449.591C176.741 444.183 177.864 438.744 178.988 433.274H184.767L191.556 465.908H186.259ZM181.733 440.823C181.412 443.073 181.075 445.317 180.722 447.551C180.368 449.786 179.983 452.06 179.566 454.373H184.141L181.974 440.823H181.733Z" fill="#09378B"/>
<path fill-rule="evenodd" clip-rule="evenodd" d="M205.712 465.908V451.654H199.741V465.908H194.54V433.274H199.741V446.918H205.712V433.274H210.913V465.908H205.712Z" fill="#09378B"/>
<path fill-rule="evenodd" clip-rule="evenodd" d="M223.716 432.992C225.096 432.992 226.284 433.179 227.279 433.55C228.274 433.921 229.101 434.44 229.759 435.105C230.417 435.771 230.899 436.562 231.204 437.478C231.509 438.396 231.661 439.401 231.661 440.495L226.605 441.761C226.605 440.573 226.374 439.604 225.912 438.853C225.45 438.103 224.711 437.728 223.692 437.728C223.087 437.728 222.593 437.853 222.211 438.104C221.829 438.355 221.535 438.676 221.328 439.067C221.12 439.459 220.977 439.881 220.897 440.336C220.818 440.79 220.778 441.221 220.778 441.628V458.212C220.778 458.525 220.81 458.87 220.874 459.246C220.937 459.622 221.073 459.974 221.28 460.303C221.487 460.632 221.773 460.906 222.139 461.125C222.505 461.344 222.975 461.454 223.548 461.454C225.458 461.454 226.429 460.11 226.461 457.421C227.328 457.578 228.194 457.711 229.061 457.82C229.928 457.93 230.795 458.047 231.661 458.171C231.597 460.641 230.899 462.595 229.567 464.032C228.234 465.471 226.268 466.189 223.668 466.189C220.906 466.189 218.868 465.509 217.552 464.15C216.235 462.79 215.578 460.797 215.578 458.171V441.901C215.578 440.682 215.714 439.533 215.987 438.455C216.26 437.376 216.717 436.431 217.36 435.618C218.001 434.806 218.844 434.165 219.888 433.696C220.931 433.227 222.207 432.992 223.716 432.992V432.992Z" fill="#09378B"/>
<path fill-rule="evenodd" clip-rule="evenodd" d="M243.659 438.009V465.908H238.458V438.009H233.065V433.274H249.052V438.009H243.659Z" fill="#09378B"/>
<path fill-rule="evenodd" clip-rule="evenodd" d="M263.979 448.841C265.455 449.309 266.467 450.2 267.013 451.513C267.558 452.826 267.831 454.326 267.831 456.014C267.831 459.422 267.085 461.922 265.592 463.517C264.1 465.111 261.812 465.908 258.73 465.908H251.796V433.274H259.116C262.069 433.274 264.212 434.032 265.544 435.548C266.876 437.064 267.543 439.26 267.543 442.135C267.543 443.636 267.278 444.949 266.748 446.074C266.218 447.199 265.295 448.043 263.979 448.606V448.841ZM262.583 442.229C262.583 440.729 262.277 439.65 261.668 438.994C261.058 438.338 260.046 438.009 258.634 438.009H256.997V446.449H258.682C260.031 446.449 261.018 446.09 261.644 445.371C262.27 444.652 262.583 443.605 262.583 442.229V442.229ZM262.872 455.592C262.872 454.061 262.583 452.92 262.005 452.17C261.427 451.419 260.416 451.044 258.971 451.044H256.997V461.172H259.067C259.902 461.172 260.568 461.024 261.066 460.727C261.563 460.43 261.948 460.031 262.222 459.531C262.494 459.031 262.671 458.437 262.751 457.749C262.831 457.062 262.872 456.343 262.872 455.592V455.592Z" fill="#09378B"/>
<path fill-rule="evenodd" clip-rule="evenodd" d="M288.435 457.562C288.435 460.407 287.779 462.555 286.467 464.009C285.155 465.462 283.09 466.189 280.273 466.189C277.456 466.189 275.408 465.494 274.127 464.103C272.847 462.712 272.207 460.703 272.207 458.078V441.667C272.207 440.385 272.359 439.213 272.663 438.15C272.967 437.088 273.439 436.173 274.079 435.407C274.719 434.642 275.56 434.047 276.6 433.626C277.64 433.203 278.881 432.992 280.321 432.992C281.857 432.992 283.146 433.188 284.186 433.579C285.226 433.97 286.058 434.54 286.683 435.29C287.306 436.04 287.754 436.947 288.026 438.009C288.299 439.073 288.435 440.276 288.435 441.62V457.562ZM283.234 441.245C283.234 440.339 283.034 439.526 282.632 438.807C282.231 438.088 281.468 437.728 280.345 437.728C279.735 437.728 279.238 437.862 278.852 438.127C278.467 438.393 278.17 438.721 277.962 439.111C277.752 439.503 277.608 439.94 277.528 440.424C277.447 440.909 277.408 441.355 277.408 441.761V458.171C277.408 459.015 277.624 459.774 278.058 460.445C278.491 461.118 279.238 461.454 280.297 461.454C281.356 461.454 282.11 461.102 282.56 460.399C283.009 459.695 283.234 458.844 283.234 457.843V441.245Z" fill="#09378B"/>
</svg>
