<svg width="277" height="267" viewBox="0 0 277 267" fill="none" xmlns="http://www.w3.org/2000/svg">
<path d="M217.798 198.136C292.064 117.814 234.168 90.1689 210.216 68.5457C187.582 48.1128 121.697 46.7142 106.119 59.5422C75.9403 84.3921 44.5798 54.5465 29.419 117.795C14.2581 181.044 143.531 278.459 217.798 198.136Z" stroke="#DBD9D5" stroke-width="4" stroke-dasharray="8 8"/>
<path d="M236.481 106.331C215.958 -1.12159 159.334 29.0438 127.713 35.474C97.8319 41.5502 57.5809 93.7291 58.6506 113.881C60.7228 152.919 18.0863 160.427 59.9715 210.185C101.857 259.944 257.003 213.784 236.481 106.331Z" stroke="#DBD9D5" stroke-width="4" stroke-dasharray="8 8"/>
<path d="M174.237 127.719L142.237 95.7192L110.237 127.719" stroke="#525D77" stroke-width="4"/>
<rect x="125.237" y="129.719" width="35" height="24" stroke="#525D77" stroke-width="4"/>
<path d="M107.987 64.2697L101.24 68.5636L101.224 68.5441L100.104 69.2552C97.7651 70.7435 94.9674 71.2564 92.2335 70.6969C89.4996 70.1373 87.1523 68.5713 85.622 66.2904L67.8278 39.7192L64.512 41.8292L77.9782 61.9344L60.2598 46.4611L58.3428 49.9739L73.3434 63.0729L56.7886 55.7637L56.5455 59.8943L76.7866 68.8317L57.0237 64.9536L57.9762 69.0804L77.229 72.8574L59.7377 73.7977L61.7104 77.5592L80.2777 76.5644L64.4523 81.5732L67.1901 84.7673L84.3068 79.3505L50.2368 101.041L52.4008 104.274L91.5839 79.3272L64.241 104.496L66.959 107.305L110.43 67.2929L109.071 65.8901L107.987 64.2697Z" fill="#F2B43F"/>
<path d="M114.567 59.7466C113.153 59.4552 111.766 60.3412 111.467 61.7206C111.168 63.1001 112.077 64.4523 113.491 64.7438C114.906 65.0352 116.293 64.1493 116.592 62.7698C116.891 61.3864 115.982 60.0342 114.567 59.7466Z" fill="#F2B43F"/>
<path d="M121.035 56.5448C120.656 56.5021 120.266 56.4827 119.883 56.4827C119.509 56.6187 119.138 56.778 118.775 56.9645C118.472 57.1199 118.177 57.2948 117.895 57.4813L119.879 60.3335C119.879 60.3335 119.883 60.3296 119.887 60.3296V60.3413C120.126 60.3413 120.365 60.3529 120.601 60.3801C123.837 60.7298 126.276 63.3916 126.276 66.5702C126.276 70.0053 123.41 72.7992 119.887 72.7992V76.6616C125.594 76.6616 130.237 72.1347 130.237 66.5702C130.233 61.4215 126.276 57.1122 121.035 56.5448Z" fill="#F2B43F"/>
<path d="M165.486 194.27L172.233 198.564L172.249 198.544L173.369 199.255C175.709 200.743 178.506 201.256 181.24 200.697C183.974 200.137 186.321 198.571 187.852 196.29L205.646 169.719L208.962 171.829L195.495 191.934L213.214 176.461L215.131 179.974L200.13 193.073L216.685 185.764L216.928 189.894L196.687 198.832L216.45 194.954L215.497 199.08L196.245 202.857L213.736 203.798L211.763 207.559L193.196 206.564L209.021 211.573L206.284 214.767L189.167 209.351L223.237 231.041L221.073 234.274L181.89 209.327L209.233 234.496L206.515 237.305L163.043 197.293L164.402 195.89L165.486 194.27Z" fill="#F2B43F"/>
<path d="M158.906 189.747C160.321 189.455 161.708 190.341 162.007 191.721C162.306 193.1 161.397 194.452 159.982 194.744C158.568 195.035 157.181 194.149 156.882 192.77C156.583 191.386 157.492 190.034 158.906 189.747Z" fill="#F2B43F"/>
<path d="M152.439 186.545C152.817 186.502 153.208 186.483 153.59 186.483C153.965 186.619 154.336 186.778 154.698 186.965C155.001 187.12 155.296 187.295 155.579 187.481L153.594 190.333C153.594 190.333 153.59 190.33 153.586 190.33V190.341C153.347 190.341 153.108 190.353 152.873 190.38C149.637 190.73 147.198 193.392 147.198 196.57C147.198 200.005 150.063 202.799 153.586 202.799V206.662C147.88 206.662 143.237 202.135 143.237 196.57C143.241 191.422 147.198 187.112 152.439 186.545Z" fill="#F2B43F"/>
</svg>
