<svg width="283" height="272" viewBox="0 0 283 272" fill="none" xmlns="http://www.w3.org/2000/svg">
<path fill-rule="evenodd" clip-rule="evenodd" d="M197.091 60.0986C199.67 61.0693 202.129 62.1369 204.433 63.3051L202.624 66.8727C200.466 65.7784 198.142 64.7682 195.682 63.8423L197.091 60.0986ZM211.368 67.4905C212.498 68.3085 213.563 69.165 214.556 70.0613C215.474 70.8901 216.447 71.7319 217.468 72.5905L214.894 75.6519C213.847 74.7713 212.836 73.898 211.875 73.0304C210.998 72.2381 210.045 71.4711 209.022 70.7299L211.368 67.4905ZM181.856 55.7012C184.477 56.2673 187.046 56.9057 189.541 57.6182L188.442 61.4644C186.038 60.7777 183.553 60.1601 181.012 59.6111L181.856 55.7012ZM224.058 77.9419C225.892 79.4075 227.793 80.9269 229.711 82.5023L227.172 85.5932C225.276 84.0357 223.395 82.5327 221.558 81.0643C221.388 80.9286 221.218 80.7932 221.049 80.6581L223.547 77.5336C223.716 77.6692 223.887 77.8053 224.058 77.9419ZM235.775 87.6752C237.746 89.4364 239.698 91.2756 241.584 93.2041L238.724 96.0009C236.913 94.1489 235.028 92.3722 233.11 90.6582L235.775 87.6752ZM166.267 53.2168C168.887 53.4985 171.501 53.8435 174.088 54.2532L173.463 58.204C170.944 57.8051 168.396 57.4687 165.839 57.1939L166.267 53.2168ZM246.962 99.2226C248.658 101.32 250.247 103.52 251.687 105.835L248.289 107.947C246.948 105.789 245.456 103.722 243.851 101.737L246.962 99.2226ZM150.533 52.2761C153.13 52.308 155.763 52.4026 158.411 52.5609L158.172 56.5537C155.587 56.3992 153.017 56.3069 150.484 56.2758L150.533 52.2761ZM255.482 113.08C256.544 115.558 257.421 118.152 258.072 120.874L254.181 121.804C253.586 119.315 252.783 116.936 251.806 114.656L255.482 113.08ZM134.749 52.9027C137.296 52.6556 139.936 52.4796 142.642 52.3758L142.796 56.3728C140.162 56.4739 137.6 56.6449 135.135 56.884L134.749 52.9027ZM259.281 128.995C259.443 131.621 259.398 134.347 259.12 137.177L255.139 136.787C255.397 134.163 255.437 131.651 255.288 129.242L259.281 128.995ZM119.079 55.7008C121.474 55.013 124.089 54.4292 126.873 53.9486L127.553 57.8903C124.888 58.3505 122.416 58.9041 120.183 59.5454L119.079 55.7008ZM107.847 60.9984C108.89 60.1399 110.1 59.362 111.44 58.6571L113.302 62.1973C112.151 62.8027 111.18 63.4355 110.39 64.0862C109.363 64.9315 108.334 65.7167 107.304 66.4471L104.991 63.1832C105.943 62.5089 106.895 61.7824 107.847 60.9984ZM257.748 145.247C257.151 147.743 256.38 150.313 255.424 152.96L251.662 151.601C252.57 149.086 253.297 146.659 253.858 144.315L257.748 145.247ZM92.2031 69.6005C94.4153 68.8668 96.6294 67.9781 98.8419 66.872L100.631 70.4498C98.2283 71.6508 95.8349 72.6103 93.4622 73.3972L92.2031 69.6005ZM252.327 160.41C251.236 162.74 250.007 165.126 248.632 167.571L245.146 165.61C246.475 163.246 247.658 160.948 248.704 158.714L252.327 160.41ZM77.9504 72.8107C80.3609 72.4184 82.7725 72.0042 85.1968 71.4812L86.0403 75.3913C83.5132 75.9365 81.0201 76.3637 78.5929 76.7587L77.9504 72.8107ZM63.052 75.7739C65.5129 75.0485 68.0178 74.5083 70.5349 74.0457L71.2579 77.9798C68.8154 78.4287 66.4597 78.9396 64.183 79.6107L63.052 75.7739ZM244.482 174.44C243.092 176.594 241.593 178.792 239.981 181.036L236.733 178.701C238.308 176.509 239.769 174.367 241.12 172.272L244.482 174.44ZM49.1846 83.0478C51.299 81.2476 53.4973 79.8111 55.7625 78.6454L57.5928 82.2021C55.585 83.2353 53.6452 84.5033 51.7777 86.0934L49.1846 83.0478ZM235.205 187.387C233.627 189.398 231.96 191.445 230.202 193.528L227.145 190.947C228.874 188.899 230.51 186.89 232.058 184.918L235.205 187.387ZM39.5306 95.2549C40.8808 92.8147 42.2976 90.6582 43.7785 88.7488L46.9392 91.2003C45.5954 92.9329 44.2901 94.9151 43.0305 97.1915L39.5306 95.2549ZM225 199.495C224.109 200.487 223.198 201.487 222.266 202.494C221.312 203.526 220.349 204.529 219.377 205.505L216.544 202.681C217.48 201.741 218.409 200.774 219.329 199.779C220.248 198.785 221.147 197.799 222.025 196.821L225 199.495ZM33.5433 109.378C34.3925 106.788 35.2809 104.393 36.2073 102.177L39.8979 103.719C39.0159 105.829 38.1637 108.125 37.3442 110.624L33.5433 109.378ZM213.365 211.088C211.25 212.903 209.099 214.597 206.916 216.174L204.573 212.932C206.665 211.421 208.729 209.795 210.761 208.052L213.365 211.088ZM30.4739 120.329C30.7802 119.051 31.0933 117.81 31.4131 116.604L35.2795 117.629C34.9682 118.803 34.6629 120.013 34.3637 121.261C34.0653 122.507 33.8252 123.767 33.6422 125.041L29.6829 124.472C29.8831 123.078 30.1461 121.697 30.4739 120.329ZM200.03 220.707C197.633 222.137 195.204 223.438 192.75 224.613L191.022 221.006C193.367 219.883 195.688 218.64 197.981 217.272L200.03 220.707ZM30.0767 141.172C29.5843 138.387 29.292 135.615 29.2152 132.87L33.2136 132.758C33.2846 135.295 33.5551 137.871 34.0156 140.475L30.0767 141.172ZM185.147 227.833C182.546 228.795 179.922 229.627 177.282 230.334L176.247 226.471C178.769 225.795 181.275 225 183.76 224.081L185.147 227.833ZM34.9169 157.014C33.807 154.43 32.8457 151.837 32.0445 149.244L35.8661 148.063C36.6232 150.513 37.5346 152.973 38.5921 155.435L34.9169 157.014ZM169.226 232.106C166.511 232.576 163.783 232.923 161.051 233.153L160.715 229.167C163.334 228.947 165.946 228.614 168.544 228.164L169.226 232.106ZM42.7456 171.518C41.2251 169.181 39.8161 166.819 38.5272 164.442L42.0435 162.536C43.2794 164.815 44.6336 167.085 46.0987 169.338L42.7456 171.518ZM152.823 233.498C150.081 233.499 147.338 233.389 144.602 233.174L144.915 229.187C147.55 229.394 150.187 229.499 152.821 229.498L152.823 233.498ZM52.6386 184.617C50.8291 182.524 49.1052 180.397 47.4739 178.242L50.6632 175.827C52.2407 177.911 53.9099 179.971 55.6643 182L52.6386 184.617ZM136.438 232.223C133.737 231.807 131.046 231.293 128.372 230.687L129.256 226.786C131.841 227.372 134.44 227.868 137.047 228.27L136.438 232.223ZM64.0692 196.338C62.0385 194.483 60.0749 192.584 58.1844 190.648L61.0465 187.854C62.883 189.735 64.7917 191.581 66.7668 193.385L64.0692 196.338ZM120.435 228.609C117.819 227.832 115.223 226.97 112.654 226.029L114.03 222.273C116.523 223.186 119.039 224.022 121.574 224.775L120.435 228.609ZM76.7331 206.687C74.5209 205.071 72.3616 203.402 70.2607 201.686L72.7913 198.588C74.8362 200.259 76.9385 201.884 79.0925 203.457L76.7331 206.687ZM105.05 222.982C102.547 221.892 100.075 220.73 97.6395 219.5L99.4426 215.929C101.812 217.126 104.215 218.256 106.646 219.314L105.05 222.982ZM90.4395 215.609C88.0717 214.245 85.7453 212.817 83.4653 211.333L85.6478 207.981C87.8678 209.426 90.1326 210.816 92.4372 212.144L90.4395 215.609Z" fill="#DBD9D5"/>
<path fill-rule="evenodd" clip-rule="evenodd" d="M111.927 44.6496C114.239 43.1509 116.559 41.806 118.867 40.6461L120.663 44.2202C118.501 45.3067 116.308 46.5767 114.102 48.0064L111.927 44.6496ZM126.353 37.5519C127.681 37.1291 129.003 36.7806 130.314 36.5141C131.526 36.2676 132.781 35.9843 134.079 35.6727L135.013 39.5621C133.682 39.8816 132.38 40.1758 131.111 40.4338C129.953 40.6694 128.77 40.9805 127.566 41.3636L126.353 37.5519ZM99.3417 54.2956C101.353 52.5234 103.393 50.835 105.447 49.2513L107.889 52.4193C105.909 53.9457 103.937 55.5779 101.986 57.297L99.3417 54.2956ZM142.297 33.549C144.566 32.9437 146.917 32.3162 149.324 31.7088L150.303 35.5871C147.924 36.1876 145.597 36.8083 143.325 37.4147C143.115 37.4708 142.905 37.5267 142.696 37.5825L141.665 33.7175C141.875 33.6616 142.086 33.6054 142.297 33.549ZM157.087 29.9018C159.674 29.3616 162.313 28.8835 164.985 28.5112L165.537 32.4729C162.971 32.8304 160.422 33.2916 157.904 33.8174L157.087 29.9018ZM88.085 65.3631C89.8677 63.4221 91.6978 61.5236 93.5637 59.6855L96.3708 62.5351C94.5542 64.3247 92.7703 66.1751 91.0309 68.0689L88.085 65.3631ZM173.021 27.7578C175.715 27.6395 178.43 27.667 181.147 27.884L180.829 31.8713C178.295 31.669 175.747 31.642 173.197 31.754L173.021 27.7578ZM77.9844 77.4638C79.5526 75.3928 81.1925 73.3303 82.8918 71.2945L85.9625 73.8578C84.3036 75.8453 82.7031 77.8582 81.1733 79.8785L77.9844 77.4638ZM189.23 29.1326C191.854 29.7494 194.462 30.5846 197.038 31.677L195.477 35.3596C193.121 34.3604 190.73 33.5941 188.315 33.0265L189.23 29.1326ZM69.1152 90.5353C70.4289 88.3394 71.8554 86.1104 73.3789 83.8713L76.6859 86.1215C75.2034 88.3004 73.8191 90.4638 72.5479 92.5888L69.1152 90.5353ZM204.29 35.5272C206.5 36.9562 208.666 38.611 210.779 40.5154L208.101 43.4865C206.142 41.7215 204.145 40.1969 202.118 38.8859L204.29 35.5272ZM62.0612 104.804C62.93 102.469 64.0133 100.018 65.2796 97.4932L68.8551 99.2865C67.6424 101.704 66.6203 104.021 65.8102 106.199L62.0612 104.804ZM59.6534 116.987C59.5818 115.639 59.6745 114.203 59.9031 112.706L63.8573 113.31C63.6609 114.596 63.5935 115.753 63.6478 116.775C63.7183 118.103 63.739 119.397 63.7144 120.66L59.7152 120.583C59.7378 119.416 59.7188 118.219 59.6534 116.987ZM216.456 46.4111C218.11 48.3745 219.72 50.5205 221.282 52.8622L217.954 55.0817C216.47 52.8572 214.949 50.8311 213.397 48.9878L216.456 46.4111ZM57.2842 134.682C58.0076 132.467 58.6075 130.158 59.0314 127.721L62.9722 128.406C62.5119 131.052 61.8625 133.548 61.0866 135.924L57.2842 134.682ZM225.437 59.778C226.663 62.039 227.853 64.4446 229.004 67.0027L225.356 68.6439C224.244 66.1708 223.097 63.8542 221.921 61.6851L225.437 59.778ZM51.4031 148.056C52.5189 145.884 53.6179 143.697 54.6367 141.436L58.2836 143.08C57.2215 145.437 56.0847 147.696 54.9611 149.884L51.4031 148.056ZM44.9398 161.803C45.8176 159.392 46.8705 157.056 47.993 154.756L51.5877 156.51C50.4984 158.742 49.5105 160.941 48.6985 163.171L44.9398 161.803ZM232.066 74.4216C232.974 76.8189 233.853 79.33 234.7 81.9596L230.893 83.1867C230.065 80.6175 229.208 78.1698 228.325 75.8384L232.066 74.4216ZM42.5571 177.28C42.3643 174.51 42.514 171.888 42.9213 169.373L46.8698 170.012C46.5088 172.241 46.3771 174.555 46.5474 177.002L42.5571 177.28ZM236.974 89.5739C237.655 92.0382 238.312 94.5946 238.943 97.2461L235.052 98.173C234.431 95.5659 233.786 93.0558 233.118 90.6396L236.974 89.5739ZM46.6456 192.296C45.4841 189.761 44.5903 187.34 43.9335 185.015L47.7829 183.928C48.3789 186.038 49.1986 188.265 50.2821 190.63L46.6456 192.296ZM240.656 104.975C240.924 106.281 241.188 107.608 241.445 108.956C241.709 110.336 241.944 111.707 242.151 113.068L238.197 113.671C237.997 112.359 237.77 111.038 237.516 109.706C237.262 108.376 237.003 107.068 236.738 105.781L240.656 104.975ZM54.4531 205.501C52.8736 203.279 51.4741 201.142 50.2411 199.081L53.6739 197.027C54.8479 198.99 56.1888 201.039 57.713 203.183L54.4531 205.501ZM243.074 121.22C243.277 124 243.363 126.737 243.336 129.43L239.336 129.389C239.362 126.809 239.28 124.183 239.084 121.513L243.074 121.22ZM61.4414 214.473C60.5951 213.468 59.7823 212.479 59.0019 211.506L62.1228 209.004C62.8824 209.951 63.675 210.916 64.5015 211.897C65.3261 212.877 66.1975 213.819 67.1136 214.722L64.3045 217.57C63.3023 216.581 62.3469 215.549 61.4414 214.473ZM242.894 137.662C242.621 140.44 242.225 143.166 241.714 145.839L237.785 145.087C238.274 142.534 238.652 139.928 238.913 137.271L242.894 137.662ZM77.9748 227.17C75.4421 225.913 73.0384 224.502 70.7842 222.934L73.0687 219.65C75.1518 221.1 77.3852 222.412 79.7534 223.587L77.9748 227.17ZM239.789 153.868C239.018 156.532 238.13 159.137 237.131 161.681L233.408 160.22C234.362 157.789 235.21 155.301 235.946 152.756L239.789 153.868ZM93.5954 232.684C90.8575 232.042 88.2001 231.276 85.6387 230.381L86.9578 226.605C89.378 227.45 91.899 228.178 94.5077 228.789L93.5954 232.684ZM233.772 169.215C232.538 171.679 231.197 174.079 229.76 176.415L226.354 174.318C227.732 172.079 229.015 169.781 230.196 167.423L233.772 169.215ZM109.915 234.999C107.131 234.834 104.394 234.565 101.716 234.191L102.27 230.229C104.838 230.588 107.469 230.847 110.151 231.006L109.915 234.999ZM225.151 183.239C223.524 185.447 221.807 187.588 220.009 189.662L216.987 187.041C218.718 185.045 220.368 182.986 221.932 180.866L225.151 183.239ZM126.328 234.817C123.57 235.031 120.835 235.154 118.132 235.187L118.083 231.187C120.697 231.156 123.346 231.036 126.02 230.829L126.328 234.817ZM214.396 195.665C212.456 197.592 210.445 199.451 208.37 201.243L205.756 198.215C207.763 196.483 209.705 194.687 211.576 192.828L214.396 195.665ZM142.547 232.581C139.849 233.114 137.155 233.566 134.474 233.937L133.926 229.975C136.53 229.614 139.148 229.175 141.773 228.657L142.547 232.581ZM201.985 206.395C199.805 208.038 197.571 209.615 195.288 211.123L193.083 207.785C195.298 206.322 197.465 204.794 199.576 203.201L201.985 206.395ZM158.394 228.538C155.78 229.358 153.155 230.104 150.527 230.776L149.537 226.9C152.095 226.247 154.651 225.52 157.196 224.722L158.394 228.538ZM188.32 215.432C185.957 216.799 183.554 218.097 181.118 219.326L179.316 215.755C181.685 214.559 184.022 213.297 186.318 211.969L188.32 215.432ZM173.712 222.809C171.208 223.903 168.678 224.927 166.13 225.88L164.729 222.134C167.21 221.206 169.673 220.209 172.11 219.143L173.712 222.809Z" fill="#DBD9D5"/>
<path fill-rule="evenodd" clip-rule="evenodd" d="M145.237 95.8909L178.651 129.305L175.823 132.134L145.237 101.548L114.651 132.134L111.823 129.305L145.237 95.8909Z" fill="#525D77"/>
<path fill-rule="evenodd" clip-rule="evenodd" d="M161.237 134.719H130.237V154.719H161.237V134.719ZM126.237 130.719V158.719H165.237V130.719H126.237Z" fill="#525D77"/>
<path d="M110.987 67.2697L104.24 71.5636L104.224 71.5441L103.104 72.2552C100.765 73.7435 97.9674 74.2564 95.2335 73.6969C92.4996 73.1373 90.1523 71.5713 88.622 69.2904L70.8278 42.7192L67.512 44.8292L80.9782 64.9344L63.2598 49.4611L61.3428 52.9739L76.3434 66.0729L59.7886 58.7637L59.5455 62.8943L79.7866 71.8317L60.0237 67.9536L60.9762 72.0804L80.229 75.8574L62.7377 76.7977L64.7104 80.5592L83.2777 79.5644L67.4523 84.5732L70.1901 87.7673L87.3068 82.3505L53.2368 104.041L55.4008 107.274L94.5839 82.3272L67.241 107.496L69.959 110.305L113.43 70.2929L112.071 68.8901L110.987 67.2697Z" fill="#F2B43F"/>
<path d="M117.567 62.7466C116.152 62.4552 114.765 63.3412 114.467 64.7206C114.168 66.1001 115.076 67.4523 116.491 67.7438C117.906 68.0352 119.293 67.1493 119.592 65.7698C119.891 64.3864 118.982 63.0342 117.567 62.7466Z" fill="#F2B43F"/>
<path d="M124.035 59.5448C123.656 59.5021 123.266 59.4827 122.883 59.4827C122.509 59.6187 122.138 59.778 121.775 59.9645C121.472 60.1199 121.177 60.2948 120.895 60.4813L122.879 63.3335C122.879 63.3335 122.883 63.3296 122.887 63.3296V63.3413C123.126 63.3413 123.365 63.3529 123.601 63.3801C126.837 63.7298 129.276 66.3916 129.276 69.5702C129.276 73.0053 126.41 75.7992 122.887 75.7992V79.6616C128.594 79.6616 133.237 75.1347 133.237 69.5702C133.233 64.4215 129.276 60.1122 124.035 59.5448Z" fill="#F2B43F"/>
<path d="M168.486 197.27L175.233 201.564L175.249 201.544L176.369 202.255C178.709 203.743 181.506 204.256 184.24 203.697C186.974 203.137 189.321 201.571 190.852 199.29L208.646 172.719L211.962 174.829L198.495 194.934L216.214 179.461L218.131 182.974L203.13 196.073L219.685 188.764L219.928 192.894L199.687 201.832L219.45 197.954L218.497 202.08L199.245 205.857L216.736 206.798L214.763 210.559L196.196 209.564L212.021 214.573L209.284 217.767L192.167 212.351L226.237 234.041L224.073 237.274L184.89 212.327L212.233 237.496L209.515 240.305L166.043 200.293L167.402 198.89L168.486 197.27Z" fill="#F2B43F"/>
<path d="M161.907 192.747C163.321 192.455 164.708 193.341 165.007 194.721C165.306 196.1 164.397 197.452 162.983 197.744C161.568 198.035 160.181 197.149 159.882 195.77C159.583 194.386 160.492 193.034 161.907 192.747Z" fill="#F2B43F"/>
<path d="M155.439 189.545C155.817 189.502 156.208 189.483 156.59 189.483C156.965 189.619 157.336 189.778 157.698 189.965C158.001 190.12 158.296 190.295 158.579 190.481L156.594 193.333C156.594 193.333 156.59 193.33 156.586 193.33V193.341C156.347 193.341 156.108 193.353 155.873 193.38C152.637 193.73 150.198 196.392 150.198 199.57C150.198 203.005 153.063 205.799 156.586 205.799V209.662C150.88 209.662 146.237 205.135 146.237 199.57C146.241 194.422 150.198 190.112 155.439 189.545Z" fill="#F2B43F"/>
</svg>
